<?xml version="1.0" encoding="utf-8"?>
<!-- Generator: Adobe Illustrator 16.0.4, SVG Export Plug-In . SVG Version: 6.00 Build 0)  -->
<!DOCTYPE svg PUBLIC "-//W3C//DTD SVG 1.1//EN" "http://www.w3.org/Graphics/SVG/1.1/DTD/svg11.dtd">
<svg version="1.1" xmlns="http://www.w3.org/2000/svg" xmlns:xlink="http://www.w3.org/1999/xlink" x="0px" y="0px" width="837px"
	 height="549px" viewBox="0 0 837 549" enable-background="new 0 0 837 549" xml:space="preserve">
<g id="Layer_2">
	<g>
		<rect x="84.704" y="45.9" fill="#A5DBC2" width="657.121" height="439.89"/>
		<path fill="#357523" d="M739.108,48.616v434.459H87.419V48.616H739.108 M744.539,43.185h-5.431H87.419h-5.431v5.431v434.459v5.431
			h5.431h651.689h5.431v-5.431V48.616V43.185L744.539,43.185z"/>
	</g>
	<g>
		<rect x="360.767" y="232.356" fill="#FFB380" width="104.994" height="66.979"/>
	</g>
	<g>
		<g>
			<g>
				<g>
					<g>
						<g>
							
								<rect x="85.363" y="41.828" transform="matrix(-0.832 -0.5547 0.5547 -0.832 148.0772 155.6432)" fill="none" width="24.476" height="27.151"/>
						</g>
						
							<rect x="102.811" y="57.988" transform="matrix(0.5547 -0.8321 0.8321 0.5547 -3.7502 113.5132)" fill-rule="evenodd" clip-rule="evenodd" fill="#231F20" width="2.716" height="4.543"/>
						
							<rect x="96.032" y="53.469" transform="matrix(0.5547 -0.832 0.832 0.5547 -3.0137 105.849)" fill-rule="evenodd" clip-rule="evenodd" fill="#231F20" width="2.715" height="4.543"/>
						
							<rect x="89.274" y="48.963" transform="matrix(0.5547 -0.832 0.832 0.5547 -2.2741 98.2203)" fill-rule="evenodd" clip-rule="evenodd" fill="#231F20" width="2.715" height="4.543"/>
					</g>
				</g>
				<g>
					<g>
						<g>
							
								<rect x="105.729" y="55.406" transform="matrix(-0.8321 -0.5547 0.5547 -0.8321 177.8579 191.8129)" fill="none" width="24.476" height="27.151"/>
						</g>
						
							<rect x="123.177" y="71.565" transform="matrix(0.5547 -0.832 0.832 0.5547 -5.984 136.492)" fill-rule="evenodd" clip-rule="evenodd" fill="#231F20" width="2.715" height="4.543"/>
						
							<rect x="116.397" y="67.045" transform="matrix(0.5547 -0.832 0.832 0.5547 -5.242 128.8384)" fill-rule="evenodd" clip-rule="evenodd" fill="#231F20" width="2.715" height="4.543"/>
						
							<rect x="109.639" y="62.541" transform="matrix(0.5546 -0.8321 0.8321 0.5546 -4.4944 121.2272)" fill-rule="evenodd" clip-rule="evenodd" fill="#231F20" width="2.715" height="4.543"/>
					</g>
				</g>
				<g>
					<g>
						<g>
							
								<rect x="126.094" y="68.982" transform="matrix(-0.8321 -0.5547 0.5547 -0.8321 207.6376 227.9827)" fill="none" width="24.476" height="27.151"/>
						</g>
						
							<rect x="143.542" y="85.142" transform="matrix(0.5547 -0.832 0.832 0.5547 -8.2123 159.4814)" fill-rule="evenodd" clip-rule="evenodd" fill="#231F20" width="2.715" height="4.543"/>
						
							<rect x="136.762" y="80.622" transform="matrix(0.5547 -0.832 0.832 0.5547 -7.4707 151.8281)" fill-rule="evenodd" clip-rule="evenodd" fill="#231F20" width="2.715" height="4.543"/>
						
							<rect x="130.005" y="76.117" transform="matrix(0.5546 -0.8321 0.8321 0.5546 -6.7213 144.2201)" fill-rule="evenodd" clip-rule="evenodd" fill="#231F20" width="2.715" height="4.543"/>
					</g>
				</g>
				<g>
					<g>
						<g>
							
								<rect x="146.459" y="82.559" transform="matrix(-0.832 -0.5547 0.5547 -0.832 237.4142 264.1537)" fill="none" width="24.476" height="27.151"/>
						</g>
						
							<rect x="163.907" y="98.719" transform="matrix(0.5546 -0.8321 0.8321 0.5546 -10.4288 182.4974)" fill-rule="evenodd" clip-rule="evenodd" fill="#231F20" width="2.715" height="4.543"/>
						
							<rect x="157.128" y="94.199" transform="matrix(0.5546 -0.8321 0.8321 0.5546 -9.6873 174.8427)" fill-rule="evenodd" clip-rule="evenodd" fill="#231F20" width="2.715" height="4.543"/>
						
							<rect x="150.37" y="89.694" transform="matrix(0.5547 -0.832 0.832 0.5547 -8.9597 167.1893)" fill-rule="evenodd" clip-rule="evenodd" fill="#231F20" width="2.715" height="4.543"/>
					</g>
				</g>
				<g>
					<g>
						<g>
							
								<rect x="166.825" y="96.136" transform="matrix(-0.8321 -0.5547 0.5547 -0.8321 267.1959 300.3229)" fill="none" width="24.476" height="27.151"/>
						</g>
						
							<rect x="184.273" y="112.296" transform="matrix(0.5546 -0.8321 0.8321 0.5546 -12.6557 205.4902)" fill-rule="evenodd" clip-rule="evenodd" fill="#231F20" width="2.715" height="4.543"/>
						
							<rect x="177.493" y="107.776" transform="matrix(0.5546 -0.8321 0.8321 0.5546 -11.9144 197.8357)" fill-rule="evenodd" clip-rule="evenodd" fill="#231F20" width="2.715" height="4.543"/>
						
							<rect x="170.735" y="103.271" transform="matrix(0.5547 -0.832 0.832 0.5547 -11.1879 190.179)" fill-rule="evenodd" clip-rule="evenodd" fill="#231F20" width="2.715" height="4.543"/>
					</g>
				</g>
				<g>
					<g>
						<g>
							
								<rect x="187.19" y="109.713" transform="matrix(-0.8321 -0.5547 0.5547 -0.8321 296.974 336.4932)" fill="none" width="24.477" height="27.151"/>
						</g>
						
							<rect x="204.638" y="125.873" transform="matrix(0.5547 -0.832 0.832 0.5547 -14.8978 228.4506)" fill-rule="evenodd" clip-rule="evenodd" fill="#231F20" width="2.715" height="4.543"/>
						
							<rect x="197.858" y="121.353" transform="matrix(0.5547 -0.832 0.832 0.5547 -14.1559 220.7969)" fill-rule="evenodd" clip-rule="evenodd" fill="#231F20" width="2.715" height="4.543"/>
						
							<rect x="191.101" y="116.848" transform="matrix(0.5547 -0.832 0.832 0.5547 -13.4162 213.1684)" fill-rule="evenodd" clip-rule="evenodd" fill="#231F20" width="2.715" height="4.543"/>
					</g>
				</g>
				<g>
					<g>
						<g>
							
								<rect x="207.556" y="123.29" transform="matrix(-0.8321 -0.5547 0.5547 -0.8321 326.7547 372.6633)" fill="none" width="24.476" height="27.151"/>
						</g>
						
							<rect x="225.003" y="139.45" transform="matrix(0.5547 -0.832 0.832 0.5547 -17.1261 251.4401)" fill-rule="evenodd" clip-rule="evenodd" fill="#231F20" width="2.715" height="4.543"/>
						
							<rect x="218.224" y="134.93" transform="matrix(0.5547 -0.832 0.832 0.5547 -16.3841 243.7866)" fill-rule="evenodd" clip-rule="evenodd" fill="#231F20" width="2.715" height="4.543"/>
						
							<rect x="211.466" y="130.425" transform="matrix(0.5547 -0.832 0.832 0.5547 -15.6449 236.1581)" fill-rule="evenodd" clip-rule="evenodd" fill="#231F20" width="2.715" height="4.543"/>
					</g>
				</g>
				<g>
					<g>
						<g>
							
								<rect x="227.921" y="136.867" transform="matrix(-0.832 -0.5547 0.5547 -0.832 356.5297 408.8349)" fill="none" width="24.476" height="27.151"/>
						</g>
						
							<rect x="245.369" y="153.026" transform="matrix(0.5547 -0.832 0.832 0.5547 -19.3544 274.4295)" fill-rule="evenodd" clip-rule="evenodd" fill="#231F20" width="2.715" height="4.543"/>
						
							<rect x="238.589" y="148.507" transform="matrix(0.5547 -0.832 0.832 0.5547 -18.6128 266.7762)" fill-rule="evenodd" clip-rule="evenodd" fill="#231F20" width="2.715" height="4.543"/>
						
							<rect x="231.831" y="144.001" transform="matrix(0.5547 -0.832 0.832 0.5547 -17.8732 259.1475)" fill-rule="evenodd" clip-rule="evenodd" fill="#231F20" width="2.715" height="4.543"/>
					</g>
				</g>
				<g>
					<g>
						<g>
							
								<rect x="248.286" y="150.443" transform="matrix(-0.8321 -0.5547 0.5547 -0.8321 386.3131 445.0031)" fill="none" width="24.476" height="27.151"/>
						</g>
						
							<rect x="265.734" y="166.603" transform="matrix(0.5547 -0.832 0.832 0.5547 -21.5831 297.4192)" fill-rule="evenodd" clip-rule="evenodd" fill="#231F20" width="2.715" height="4.543"/>
						
							<rect x="258.954" y="162.083" transform="matrix(0.5547 -0.832 0.832 0.5547 -20.8411 289.7657)" fill-rule="evenodd" clip-rule="evenodd" fill="#231F20" width="2.715" height="4.543"/>
						
							<rect x="252.196" y="157.578" transform="matrix(0.5547 -0.8321 0.8321 0.5547 -20.0895 282.1644)" fill-rule="evenodd" clip-rule="evenodd" fill="#231F20" width="2.716" height="4.543"/>
					</g>
				</g>
				<g>
					<g>
						<g>
							
								<rect x="268.651" y="164.021" transform="matrix(-0.8321 -0.5547 0.5547 -0.8321 416.0922 481.1732)" fill="none" width="24.476" height="27.151"/>
						</g>
						
							<rect x="286.099" y="180.18" transform="matrix(0.5547 -0.832 0.832 0.5547 -23.8114 320.4087)" fill-rule="evenodd" clip-rule="evenodd" fill="#231F20" width="2.715" height="4.543"/>
						
							<rect x="279.319" y="175.66" transform="matrix(0.5547 -0.8321 0.8321 0.5547 -23.0562 312.7856)" fill-rule="evenodd" clip-rule="evenodd" fill="#231F20" width="2.716" height="4.543"/>
						
							<rect x="272.562" y="171.155" transform="matrix(0.5546 -0.8321 0.8321 0.5546 -22.3105 305.171)" fill-rule="evenodd" clip-rule="evenodd" fill="#231F20" width="2.715" height="4.543"/>
					</g>
				</g>
				<g>
					<g>
						<g>
							
								<rect x="289.017" y="177.597" transform="matrix(-0.832 -0.5547 0.5547 -0.832 445.8666 517.3455)" fill="none" width="24.476" height="27.151"/>
						</g>
						
							<rect x="306.464" y="193.757" transform="matrix(0.5547 -0.8321 0.8321 0.5547 -26.0252 343.4315)" fill-rule="evenodd" clip-rule="evenodd" fill="#231F20" width="2.716" height="4.543"/>
						
							<rect x="299.685" y="189.237" transform="matrix(0.5547 -0.832 0.832 0.5547 -25.2981 335.7448)" fill-rule="evenodd" clip-rule="evenodd" fill="#231F20" width="2.715" height="4.543"/>
						
							<rect x="292.927" y="184.732" transform="matrix(0.5546 -0.8321 0.8321 0.5546 -24.5376 328.1639)" fill-rule="evenodd" clip-rule="evenodd" fill="#231F20" width="2.715" height="4.543"/>
					</g>
				</g>
				<g>
					<g>
						<g>
							
								<rect x="309.382" y="191.174" transform="matrix(-0.8321 -0.5547 0.5547 -0.8321 475.651 553.5136)" fill="none" width="24.476" height="27.151"/>
						</g>
						
							<rect x="326.83" y="207.334" transform="matrix(0.5546 -0.8321 0.8321 0.5546 -28.2449 366.4411)" fill-rule="evenodd" clip-rule="evenodd" fill="#231F20" width="2.715" height="4.543"/>
						
							<rect x="320.05" y="202.814" transform="matrix(0.5546 -0.8321 0.8321 0.5546 -27.5034 358.7865)" fill-rule="evenodd" clip-rule="evenodd" fill="#231F20" width="2.715" height="4.543"/>
						
							<rect x="313.292" y="198.309" transform="matrix(0.5547 -0.832 0.832 0.5547 -26.7871 351.106)" fill-rule="evenodd" clip-rule="evenodd" fill="#231F20" width="2.715" height="4.543"/>
					</g>
				</g>
				<g>
					<g>
						<g>
							
								<rect x="329.747" y="204.751" transform="matrix(-0.8321 -0.5547 0.5547 -0.8321 505.4344 589.6815)" fill="none" width="24.476" height="27.151"/>
						</g>
						
							<rect x="347.195" y="220.911" transform="matrix(0.5546 -0.8321 0.8321 0.5546 -30.472 389.4341)" fill-rule="evenodd" clip-rule="evenodd" fill="#231F20" width="2.715" height="4.543"/>
						
							<rect x="340.415" y="216.391" transform="matrix(0.5546 -0.8321 0.8321 0.5546 -29.7307 381.7795)" fill-rule="evenodd" clip-rule="evenodd" fill="#231F20" width="2.715" height="4.543"/>
						
							<rect x="333.658" y="211.886" transform="matrix(0.5547 -0.832 0.832 0.5547 -29.0153 374.0956)" fill-rule="evenodd" clip-rule="evenodd" fill="#231F20" width="2.715" height="4.543"/>
					</g>
				</g>
				<g>
					<g>
						<g>
							
								<rect x="350.113" y="218.327" transform="matrix(-0.832 -0.5547 0.5547 -0.832 535.2035 625.856)" fill="none" width="24.476" height="27.151"/>
						</g>
						
							<rect x="367.56" y="234.488" transform="matrix(0.5547 -0.832 0.832 0.5547 -32.7253 412.3671)" fill-rule="evenodd" clip-rule="evenodd" fill="#231F20" width="2.715" height="4.543"/>
						
							<rect x="360.78" y="229.968" transform="matrix(0.5546 -0.8321 0.8321 0.5546 -31.9576 404.7724)" fill-rule="evenodd" clip-rule="evenodd" fill="#231F20" width="2.715" height="4.543"/>
						
							<rect x="354.023" y="225.463" transform="matrix(0.5547 -0.832 0.832 0.5547 -31.244 397.0853)" fill-rule="evenodd" clip-rule="evenodd" fill="#231F20" width="2.715" height="4.543"/>
					</g>
				</g>
				<g>
					<g>
						<g>
							
								<rect x="370.478" y="231.905" transform="matrix(-0.8321 -0.5547 0.5547 -0.8321 564.989 662.0237)" fill="none" width="24.476" height="27.151"/>
						</g>
						
							<rect x="387.926" y="248.064" transform="matrix(0.5547 -0.832 0.832 0.5547 -34.9535 435.3568)" fill-rule="evenodd" clip-rule="evenodd" fill="#231F20" width="2.715" height="4.543"/>
						
							<rect x="381.146" y="243.544" transform="matrix(0.5547 -0.832 0.832 0.5547 -34.2117 427.7034)" fill-rule="evenodd" clip-rule="evenodd" fill="#231F20" width="2.715" height="4.544"/>
						
							<rect x="374.388" y="239.039" transform="matrix(0.5547 -0.832 0.832 0.5547 -33.4723 420.0748)" fill-rule="evenodd" clip-rule="evenodd" fill="#231F20" width="2.715" height="4.543"/>
					</g>
				</g>
				<g>
					<g>
						<g>
							
								<rect x="390.843" y="245.481" transform="matrix(-0.832 -0.5547 0.5547 -0.832 594.761 698.1965)" fill="none" width="24.476" height="27.151"/>
						</g>
						
							<rect x="408.291" y="261.641" transform="matrix(0.5547 -0.832 0.832 0.5547 -37.1822 458.3465)" fill-rule="evenodd" clip-rule="evenodd" fill="#231F20" width="2.715" height="4.543"/>
						
							<rect x="401.511" y="257.121" transform="matrix(0.5547 -0.832 0.832 0.5547 -36.4402 450.693)" fill-rule="evenodd" clip-rule="evenodd" fill="#231F20" width="2.715" height="4.543"/>
						
							<rect x="394.753" y="252.616" transform="matrix(0.5547 -0.832 0.832 0.5547 -35.7008 443.0643)" fill-rule="evenodd" clip-rule="evenodd" fill="#231F20" width="2.715" height="4.544"/>
					</g>
				</g>
				<g>
					<g>
						<g>
							
								<rect x="411.208" y="259.059" transform="matrix(-0.8321 -0.5547 0.5547 -0.8321 624.5473 734.3639)" fill="none" width="24.476" height="27.151"/>
						</g>
						
							<rect x="428.656" y="275.218" transform="matrix(0.5547 -0.832 0.832 0.5547 -39.4105 481.3359)" fill-rule="evenodd" clip-rule="evenodd" fill="#231F20" width="2.715" height="4.543"/>
						
							<rect x="421.876" y="270.698" transform="matrix(0.5547 -0.832 0.832 0.5547 -38.6685 473.6824)" fill-rule="evenodd" clip-rule="evenodd" fill="#231F20" width="2.715" height="4.543"/>
						
							<rect x="415.119" y="266.193" transform="matrix(0.5547 -0.832 0.832 0.5547 -37.9293 466.0539)" fill-rule="evenodd" clip-rule="evenodd" fill="#231F20" width="2.715" height="4.543"/>
					</g>
				</g>
				<g>
					<g>
						<g>
							
								<rect x="431.573" y="272.635" transform="matrix(-0.832 -0.5547 0.5547 -0.832 654.3186 770.537)" fill="none" width="24.476" height="27.151"/>
						</g>
						
							<rect x="449.021" y="288.795" transform="matrix(0.5545 -0.8322 0.8322 0.5545 -41.5857 504.4478)" fill-rule="evenodd" clip-rule="evenodd" fill="#231F20" width="2.716" height="4.542"/>
						
							<rect x="442.242" y="284.275" transform="matrix(0.5549 -0.8319 0.8319 0.5549 -40.9285 496.5998)" fill-rule="evenodd" clip-rule="evenodd" fill="#231F20" width="2.716" height="4.543"/>
						
							<rect x="435.484" y="279.77" transform="matrix(0.5546 -0.8321 0.8321 0.5546 -40.1266 489.1147)" fill-rule="evenodd" clip-rule="evenodd" fill="#231F20" width="2.715" height="4.543"/>
					</g>
				</g>
				<g>
					<g>
						<g>
							
								<rect x="451.939" y="286.212" transform="matrix(-0.8321 -0.5547 0.5547 -0.8321 684.1142 806.7)" fill="none" width="24.476" height="27.151"/>
						</g>
						
							<rect x="469.387" y="302.372" transform="matrix(0.5547 -0.8321 0.8321 0.5547 -43.8563 527.3409)" fill-rule="evenodd" clip-rule="evenodd" fill="#231F20" width="2.715" height="4.544"/>
						
							<rect x="462.607" y="297.852" transform="matrix(0.5549 -0.8319 0.8319 0.5549 -43.1805 519.5355)" fill-rule="evenodd" clip-rule="evenodd" fill="#231F20" width="2.715" height="4.544"/>
						
							<rect x="455.849" y="293.347" transform="matrix(0.5548 -0.832 0.832 0.5548 -42.3965 512.0082)" fill-rule="evenodd" clip-rule="evenodd" fill="#231F20" width="2.716" height="4.543"/>
					</g>
				</g>
				<g>
					<g>
						<g>
							
								<rect x="472.304" y="299.789" transform="matrix(-0.832 -0.5547 0.5547 -0.832 713.8763 842.8772)" fill="none" width="24.476" height="27.151"/>
						</g>
						
							<rect x="489.753" y="315.949" transform="matrix(0.5547 -0.8321 0.8321 0.5547 -46.0845 550.3317)" fill-rule="evenodd" clip-rule="evenodd" fill="#231F20" width="2.715" height="4.544"/>
						
							<rect x="482.972" y="311.429" transform="matrix(0.5548 -0.832 0.832 0.5548 -45.3651 542.6248)" fill-rule="evenodd" clip-rule="evenodd" fill="#231F20" width="2.716" height="4.543"/>
						
							<rect x="476.214" y="306.924" transform="matrix(0.5548 -0.832 0.832 0.5548 -44.6257 534.9967)" fill-rule="evenodd" clip-rule="evenodd" fill="#231F20" width="2.716" height="4.543"/>
					</g>
				</g>
				<g>
					<g>
						<g>
							
								<rect x="492.669" y="313.366" transform="matrix(-0.832 -0.5547 0.5547 -0.832 743.655 879.0479)" fill="none" width="24.476" height="27.151"/>
						</g>
						
							<rect x="510.117" y="329.525" transform="matrix(0.5545 -0.8322 0.8322 0.5545 -48.2637 573.4337)" fill-rule="evenodd" clip-rule="evenodd" fill="#231F20" width="2.716" height="4.543"/>
						
							<rect x="503.338" y="325.006" transform="matrix(0.5549 -0.8319 0.8319 0.5549 -47.6418 565.5032)" fill-rule="evenodd" clip-rule="evenodd" fill="#231F20" width="2.715" height="4.544"/>
						
							<rect x="496.58" y="320.501" transform="matrix(0.5549 -0.8319 0.8319 0.5549 -46.9019 557.8765)" fill-rule="evenodd" clip-rule="evenodd" fill="#231F20" width="2.715" height="4.544"/>
					</g>
				</g>
				<g>
					<g>
						<g>
							
								<rect x="513.034" y="326.942" transform="matrix(-0.832 -0.5547 0.5547 -0.832 773.4338 915.2177)" fill="none" width="24.476" height="27.152"/>
						</g>
						
							<rect x="530.483" y="343.103" transform="matrix(0.5545 -0.8322 0.8322 0.5545 -50.4901 596.429)" fill-rule="evenodd" clip-rule="evenodd" fill="#231F20" width="2.716" height="4.543"/>
						
							<rect x="523.703" y="338.583" transform="matrix(0.5549 -0.8319 0.8319 0.5549 -49.8728 588.4872)" fill-rule="evenodd" clip-rule="evenodd" fill="#231F20" width="2.715" height="4.544"/>
						
							<rect x="516.945" y="334.078" transform="matrix(0.5545 -0.8322 0.8322 0.5545 -49.01 581.1431)" fill-rule="evenodd" clip-rule="evenodd" fill="#231F20" width="2.716" height="4.542"/>
					</g>
				</g>
				<g>
					<g>
						<g>
							
								<rect x="533.4" y="340.52" transform="matrix(-0.8321 -0.5547 0.5547 -0.8321 803.2332 951.3801)" fill="none" width="24.476" height="27.151"/>
						</g>
						
							<rect x="550.848" y="356.679" transform="matrix(0.5547 -0.8321 0.8321 0.5547 -52.7684 619.3037)" fill-rule="evenodd" clip-rule="evenodd" fill="#231F20" width="2.715" height="4.544"/>
						
							<rect x="544.068" y="352.159" transform="matrix(0.5548 -0.832 0.832 0.5548 -52.0518 611.59)" fill-rule="evenodd" clip-rule="evenodd" fill="#231F20" width="2.716" height="4.543"/>
						
							<rect x="537.31" y="347.655" transform="matrix(0.5545 -0.8322 0.8322 0.5545 -51.2364 604.1384)" fill-rule="evenodd" clip-rule="evenodd" fill="#231F20" width="2.716" height="4.542"/>
					</g>
				</g>
				<g>
					<g>
						<g>
							
								<rect x="553.765" y="354.096" transform="matrix(-0.832 -0.5547 0.5547 -0.832 832.9923 987.5585)" fill="none" width="24.476" height="27.151"/>
						</g>
						
							<rect x="571.213" y="370.256" transform="matrix(0.5545 -0.8322 0.8322 0.5545 -54.9424 642.4194)" fill-rule="evenodd" clip-rule="evenodd" fill="#231F20" width="2.716" height="4.544"/>
						
							<rect x="564.433" y="365.737" transform="matrix(0.5545 -0.8322 0.8322 0.5545 -54.2012 634.764)" fill-rule="evenodd" clip-rule="evenodd" fill="#231F20" width="2.716" height="4.542"/>
						
							<rect x="557.676" y="361.232" transform="matrix(0.5547 -0.8321 0.8321 0.5547 -53.5154 627.0115)" fill-rule="evenodd" clip-rule="evenodd" fill="#231F20" width="2.715" height="4.543"/>
					</g>
				</g>
				<g>
					<g>
						<g>
							
								<rect x="574.13" y="367.673" transform="matrix(-0.8321 -0.5547 0.5547 -0.8321 862.7853 1023.7223)" fill="none" width="24.477" height="27.152"/>
						</g>
						
							<rect x="591.578" y="383.833" transform="matrix(0.5545 -0.8322 0.8322 0.5545 -57.1683 665.4146)" fill-rule="evenodd" clip-rule="evenodd" fill="#231F20" width="2.716" height="4.543"/>
						
							<rect x="584.799" y="379.314" transform="matrix(0.5547 -0.8321 0.8321 0.5547 -56.4827 657.6312)" fill-rule="evenodd" clip-rule="evenodd" fill="#231F20" width="2.715" height="4.543"/>
						
							<rect x="578.041" y="374.808" transform="matrix(0.5545 -0.8322 0.8322 0.5545 -55.6885 650.1292)" fill-rule="evenodd" clip-rule="evenodd" fill="#231F20" width="2.716" height="4.544"/>
					</g>
				</g>
				<g>
					<g>
						<g>
							
								<rect x="594.497" y="381.25" transform="matrix(-0.8321 -0.5547 0.5547 -0.8321 892.5728 1059.8899)" fill="none" width="24.476" height="27.151"/>
						</g>
						
							<rect x="611.944" y="397.41" transform="matrix(0.5549 -0.8319 0.8319 0.5549 -59.5384 688.0747)" fill-rule="evenodd" clip-rule="evenodd" fill="#231F20" width="2.715" height="4.544"/>
						
							<rect x="605.164" y="392.89" transform="matrix(0.5545 -0.8322 0.8322 0.5545 -58.6534 680.7545)" fill-rule="evenodd" clip-rule="evenodd" fill="#231F20" width="2.716" height="4.543"/>
						
							<rect x="598.406" y="388.385" transform="matrix(0.5545 -0.8322 0.8322 0.5545 -57.9144 673.1243)" fill-rule="evenodd" clip-rule="evenodd" fill="#231F20" width="2.716" height="4.543"/>
					</g>
				</g>
				<g>
					<g>
						<g>
							
								<rect x="614.862" y="394.827" transform="matrix(-0.832 -0.5547 0.5547 -0.832 922.3296 1096.0691)" fill="none" width="24.476" height="27.151"/>
						</g>
						
							<rect x="632.309" y="410.987" transform="matrix(0.5549 -0.8319 0.8319 0.5549 -61.7694 711.0587)" fill-rule="evenodd" clip-rule="evenodd" fill="#231F20" width="2.715" height="4.544"/>
						
							<rect x="625.529" y="406.467" transform="matrix(0.5545 -0.8322 0.8322 0.5545 -60.8794 703.7495)" fill-rule="evenodd" clip-rule="evenodd" fill="#231F20" width="2.716" height="4.542"/>
						
							<rect x="618.772" y="401.962" transform="matrix(0.5547 -0.8321 0.8321 0.5547 -60.199 695.9839)" fill-rule="evenodd" clip-rule="evenodd" fill="#231F20" width="2.715" height="4.544"/>
					</g>
				</g>
				<g>
					<g>
						<g>
							
								<rect x="635.227" y="408.404" transform="matrix(-0.832 -0.5547 0.5547 -0.832 952.1083 1132.2399)" fill="none" width="24.476" height="27.151"/>
						</g>
						
							<rect x="652.674" y="424.563" transform="matrix(0.5548 -0.832 0.832 0.5548 -63.9384 734.1857)" fill-rule="evenodd" clip-rule="evenodd" fill="#231F20" width="2.716" height="4.543"/>
						
							<rect x="645.895" y="420.044" transform="matrix(0.5547 -0.8321 0.8321 0.5547 -63.1663 726.6036)" fill-rule="evenodd" clip-rule="evenodd" fill="#231F20" width="2.715" height="4.544"/>
						
							<rect x="639.137" y="415.539" transform="matrix(0.5547 -0.8321 0.8321 0.5547 -62.4272 718.9747)" fill-rule="evenodd" clip-rule="evenodd" fill="#231F20" width="2.715" height="4.544"/>
					</g>
				</g>
				<g>
					<g>
						<g>
							
								<rect x="655.592" y="421.98" transform="matrix(-0.832 -0.5547 0.5547 -0.832 981.8872 1168.4097)" fill="none" width="24.476" height="27.152"/>
						</g>
						
							<rect x="673.04" y="438.14" transform="matrix(0.5549 -0.8319 0.8319 0.5549 -66.2308 757.0264)" fill-rule="evenodd" clip-rule="evenodd" fill="#231F20" width="2.715" height="4.544"/>
						
							<rect x="666.26" y="433.621" transform="matrix(0.5547 -0.8321 0.8321 0.5547 -65.3945 749.5944)" fill-rule="evenodd" clip-rule="evenodd" fill="#231F20" width="2.715" height="4.544"/>
						
							<rect x="659.502" y="429.115" transform="matrix(0.5545 -0.8322 0.8322 0.5545 -64.5927 742.1097)" fill-rule="evenodd" clip-rule="evenodd" fill="#231F20" width="2.716" height="4.543"/>
					</g>
				</g>
				<g>
					<g>
						<g>
							
								<rect x="675.958" y="435.558" transform="matrix(-0.8321 -0.5547 0.5547 -0.8321 1011.6909 1204.5697)" fill="none" width="24.476" height="27.151"/>
						</g>
						
							<rect x="693.405" y="451.717" transform="matrix(0.5549 -0.8319 0.8319 0.5549 -68.4618 780.0104)" fill-rule="evenodd" clip-rule="evenodd" fill="#231F20" width="2.715" height="4.544"/>
						
							<rect x="686.625" y="447.197" transform="matrix(0.5545 -0.8322 0.8322 0.5545 -67.5574 772.7354)" fill-rule="evenodd" clip-rule="evenodd" fill="#231F20" width="2.716" height="4.543"/>
						
							<rect x="679.867" y="442.692" transform="matrix(0.5545 -0.8322 0.8322 0.5545 -66.819 765.105)" fill-rule="evenodd" clip-rule="evenodd" fill="#231F20" width="2.716" height="4.543"/>
					</g>
				</g>
				<g>
					<g>
						<g>
							
								<rect x="696.322" y="449.135" transform="matrix(-0.832 -0.5547 0.5547 -0.832 1041.4447 1240.7502)" fill="none" width="24.476" height="27.151"/>
						</g>
						
							<rect x="713.77" y="465.294" transform="matrix(0.5548 -0.832 0.832 0.5548 -70.6251 803.1509)" fill-rule="evenodd" clip-rule="evenodd" fill="#231F20" width="2.716" height="4.543"/>
						
							<rect x="706.99" y="460.774" transform="matrix(0.5545 -0.8322 0.8322 0.5545 -69.7838 795.7307)" fill-rule="evenodd" clip-rule="evenodd" fill="#231F20" width="2.716" height="4.543"/>
						
							<rect x="700.233" y="456.269" transform="matrix(0.5547 -0.8321 0.8321 0.5547 -69.1112 787.9467)" fill-rule="evenodd" clip-rule="evenodd" fill="#231F20" width="2.715" height="4.544"/>
					</g>
				</g>
				<g>
					<g>
						<g>
							
								<rect x="716.688" y="462.711" transform="matrix(-0.832 -0.5547 0.5547 -0.832 1071.2236 1276.92)" fill="none" width="24.476" height="27.152"/>
						</g>
						
							<rect x="734.135" y="478.871" transform="matrix(0.5545 -0.8322 0.8322 0.5545 -72.751 826.3812)" fill-rule="evenodd" clip-rule="evenodd" fill="#231F20" width="2.716" height="4.542"/>
						
							<rect x="727.356" y="474.351" transform="matrix(0.5547 -0.8321 0.8321 0.5547 -72.0785 818.5664)" fill-rule="evenodd" clip-rule="evenodd" fill="#231F20" width="2.715" height="4.544"/>
						
							<rect x="720.598" y="469.846" transform="matrix(0.5545 -0.8322 0.8322 0.5545 -71.2714 811.0955)" fill-rule="evenodd" clip-rule="evenodd" fill="#231F20" width="2.716" height="4.544"/>
					</g>
				</g>
			</g>
		</g>
	</g>
</g>
<g id="Layer_1">
	<g>
		<text transform="matrix(1 0 0 1 476.1836 265.8457)" fill="#FFFFFF" font-family="'HelveticaNeue-Italic'" font-size="16">5.8mm</text>
	</g>
	<g>
		<text transform="matrix(1 0 0 1 389.4229 321.0293)" fill="#FFFFFF" font-family="'HelveticaNeue-Italic'" font-size="16">3.7mm</text>
	</g>
	<text transform="matrix(1 0 0 1 761.7129 281.8457)" font-family="'HelveticaNeue-Italic'" font-size="21.723">24mm</text>
	<text transform="matrix(1 0 0 1 389.4229 523.0195)" font-family="'HelveticaNeue-Italic'" font-size="21.723">36mm</text>
	<g opacity="0.8">
		<rect x="360.767" y="232.356" fill="none" width="104.994" height="66.979"/>
	</g>
	
		<text transform="matrix(0.8344 0.5511 -0.5511 0.8344 636.3008 393.9746)" font-family="'HelveticaNeue-Italic'" font-size="21.723">~43.27mm</text>
	<g>
		
			<text transform="matrix(0.8312 0.556 -0.556 0.8312 393.5122 243.5479)" fill="#FFFFFF" font-family="'HelveticaNeue-Italic'" font-size="16">~6.88mm</text>
	</g>
	<text transform="matrix(1 0 0 1 355.2065 76.3701)" font-family="'HelveticaNeue'" font-size="24">35mm film</text>
	<text transform="matrix(1 0 0 1 368.832 219.2017)" fill="#FFFFFF" font-family="'HelveticaNeue'" font-size="21.723">Webcam</text>
</g>
</svg>
