<?xml version="1.0" encoding="utf-8"?>
<!-- Generator: Adobe Illustrator 16.0.4, SVG Export Plug-In . SVG Version: 6.00 Build 0)  -->
<!DOCTYPE svg PUBLIC "-//W3C//DTD SVG 1.1//EN" "http://www.w3.org/Graphics/SVG/1.1/DTD/svg11.dtd">
<svg version="1.1" xmlns="http://www.w3.org/2000/svg" xmlns:xlink="http://www.w3.org/1999/xlink" x="0px" y="0px" width="1200px"
	 height="760px" viewBox="0 0 1200 760" enable-background="new 0 0 1200 760" xml:space="preserve">
<g id="Layer_3">
	<rect fill="#273580" width="1200" height="760"/>
</g>
<g id="Layer_2">
	<polyline fill="none" stroke="#89171C" stroke-width="14" stroke-miterlimit="10" points="466.667,732.484 22.222,732.484 
		22.222,27.515 466.667,27.515 	"/>
	<polyline fill="none" stroke="#89171C" stroke-width="14" stroke-miterlimit="10" points="737.777,27.515 1177.777,27.515 
		1177.777,732.484 737.777,732.484 	"/>
	<g>
		<polygon fill="#FFFFFF" points="494.75,716.216 498.199,726.826 509.355,726.826 500.33,733.385 503.777,743.995 494.75,737.438 
			485.724,743.995 489.171,733.385 480.146,726.826 491.302,726.826 		"/>
		<polygon fill="#FFFFFF" points="652.625,716.216 656.073,726.826 667.229,726.826 658.205,733.385 661.651,743.995 
			652.625,737.438 643.599,743.995 647.047,733.385 638.021,726.826 649.177,726.826 		"/>
		<polygon fill="#FFFFFF" points="600,716.216 603.448,726.826 614.604,726.826 605.58,733.385 609.026,743.995 600,737.438 
			590.974,743.995 594.421,733.385 585.396,726.826 596.552,726.826 		"/>
		<polygon fill="#FFFFFF" points="705.25,716.216 708.698,726.826 719.854,726.826 710.83,733.385 714.276,743.995 705.25,737.438 
			696.224,743.995 699.672,733.385 690.646,726.826 701.802,726.826 		"/>
		<polygon fill="#FFFFFF" points="547.375,716.216 550.824,726.826 561.98,726.826 552.955,733.385 556.402,743.995 
			547.375,737.438 538.349,743.995 541.796,733.385 532.771,726.826 543.927,726.826 		"/>
	</g>
	<polygon fill="#FFFFFF" points="494.75,13.625 498.199,24.236 509.355,24.236 500.33,30.794 503.777,41.405 494.75,34.848 
		485.724,41.405 489.171,30.794 480.146,24.236 491.302,24.236 	"/>
	<polygon fill="#FFFFFF" points="652.625,13.625 656.073,24.236 667.229,24.236 658.205,30.794 661.651,41.405 652.625,34.848 
		643.599,41.405 647.047,30.794 638.021,24.236 649.177,24.236 	"/>
	<polygon fill="#FFFFFF" points="600,13.625 603.448,24.236 614.604,24.236 605.58,30.794 609.026,41.405 600,34.848 
		590.974,41.405 594.421,30.794 585.396,24.236 596.552,24.236 	"/>
	<polygon fill="#FFFFFF" points="705.25,13.625 708.698,24.236 719.854,24.236 710.83,30.794 714.276,41.405 705.25,34.848 
		696.224,41.405 699.672,30.794 690.646,24.236 701.802,24.236 	"/>
	<polygon fill="#FFFFFF" points="547.375,13.625 550.824,24.236 561.98,24.236 552.955,30.794 556.402,41.405 547.375,34.848 
		538.349,41.405 541.796,30.794 532.771,24.236 543.927,24.236 	"/>
	<g>
		<path fill="#FFFFFF" d="M440.584,672.281c14.297-14.834,24.003-25.725,29.121-32.672c5.117-6.947,7.676-13.719,7.676-20.314
			c0-5.775-1.563-10.174-4.688-13.199c-3.125-3.025-6.855-4.537-11.191-4.537c-5.352,0-9.688,1.951-13.008,5.854
			c-1.836,2.146-3.594,5.445-5.273,9.893l-2.52-0.525c1.953-8.98,5.263-15.217,9.932-18.711c4.667-3.492,9.677-5.24,15.029-5.24
			c6.601,0,11.943,2.078,16.025,6.234c4.082,4.158,6.123,9.242,6.123,15.252c0,6.4-2.208,12.566-6.624,18.5
			c-4.416,5.932-14.008,16.49-28.779,31.674h26.903c3.75,0,6.388-0.449,7.913-1.346c1.523-0.898,3.243-3.084,5.158-6.557
			l1.523,0.701l-6.504,16.342h-46.816V672.281z"/>
		<path fill="#FFFFFF" d="M570.463,607.125c3.945,7.617,5.918,16.367,5.918,26.25c0,7.773-1.211,15.098-3.633,21.973
			c-4.57,12.93-12.48,19.395-23.73,19.395c-7.696,0-14.024-3.496-18.984-10.488c-5.313-7.461-7.969-17.598-7.969-30.41
			c0-10.078,1.777-18.75,5.332-26.016c4.805-9.883,12.188-14.824,22.148-14.824C558.529,593.004,565.502,597.711,570.463,607.125z
			 M561.557,661.977c2.148-6.285,3.223-15.379,3.223-27.285c0-9.484-0.645-17.057-1.934-22.715
			c-2.422-10.539-6.954-15.809-13.594-15.809c-6.641,0-11.191,5.426-13.652,16.275c-1.289,5.777-1.934,13.389-1.934,22.834
			c0,8.861,0.664,15.945,1.992,21.254c2.5,9.914,7.187,14.871,14.062,14.871C555.463,671.402,559.408,668.26,561.557,661.977z"/>
		<path fill="#FFFFFF" d="M640.781,593.561c0.02,0.098,0.029,0.322,0.029,0.674v70.547c0,3.008,0.805,4.922,2.414,5.742
			s4.613,1.309,9.012,1.465v1.641h-33.105v-1.758c4.726-0.234,7.812-0.879,9.258-1.934c1.444-1.055,2.168-3.34,2.168-6.855v-54.258
			c0-1.875-0.234-3.301-0.703-4.277s-1.485-1.465-3.047-1.465c-1.017,0-2.335,0.283-3.955,0.85
			c-1.621,0.566-3.135,1.162-4.541,1.787v-1.641l21.504-10.957h0.703C640.673,593.316,640.761,593.463,640.781,593.561z"/>
		<path fill="#FFFFFF" d="M738.258,666.305c-4.591,5.742-10.557,8.613-17.9,8.613c-6.876,0-13.135-3.223-18.779-9.668
			c-5.646-6.445-8.467-15.02-8.467-25.723c0-13.789,5.469-25.625,16.406-35.508c9.765-8.281,20.742-12.422,32.93-12.422l0.293,1.934
			c-4.884,0.898-9.092,2.119-12.627,3.662c-3.536,1.543-6.689,3.701-9.463,6.475c-2.852,2.812-5.528,6.387-8.027,10.723
			c-2.5,4.336-4.219,8.633-5.156,12.891c2.422-1.484,4.512-2.578,6.27-3.281c3.125-1.25,6.27-1.875,9.434-1.875
			c6.211,0,11.426,2.148,15.645,6.445s6.328,10.43,6.328,18.398C745.143,654.117,742.848,660.562,738.258,666.305z M731.959,637.652
			c-2.734-6.719-7.383-10.078-13.945-10.078c-6.056,0-10.078,1.797-12.07,5.391c-1.172,2.109-1.758,5.625-1.758,10.547
			c0,6.367,1.356,12.598,4.072,18.691c2.715,6.094,7.002,9.141,12.861,9.141c4.648,0,8.027-1.982,10.137-5.947
			s3.164-8.604,3.164-13.916C734.42,646.285,733.6,641.676,731.959,637.652z"/>
	</g>
</g>
<g id="Layer_7">
</g>
<g id="Layer_6">
	<rect x="90.129" y="410.702" fill="#89171C" width="1019.741" height="133.813"/>
	<g>
		<path fill="#FFFFFF" d="M240.327,512.642v-69.7h10.702c5.146,0,8.908,1.135,11.287,3.4c3.898,3.734,5.848,9.734,5.848,18
			c0,4.6-0.614,8.7-1.842,12.3s-2.953,6.3-5.176,8.1c-1.911,1.534-4.62,2.3-8.128,2.3h-4.503v25.6H240.327z M253.719,454.242h-5.205
			v21.4h4.269c1.481,0,2.515-0.133,3.099-0.4c0.936-0.466,1.726-1.55,2.369-3.25c0.643-1.7,0.965-4.15,0.965-7.35
			c0-3.266-0.488-5.815-1.462-7.65C256.779,455.159,255.434,454.242,253.719,454.242z"/>
		<path fill="#FFFFFF" d="M331.965,512.642v-69.6l15.146,0.1c3.586,0,6.471,1.867,8.655,5.6c2.183,3.734,3.275,8.667,3.275,14.8
			c0,5.2-0.887,9.685-2.661,13.45c-1.774,3.767-3.909,5.684-6.403,5.75c0.623,0.867,1.188,1.834,1.696,2.9
			c1.442,3.134,4.698,12.134,9.766,27h-9.649c-1.365-4-2.632-7.8-3.801-11.4c-2.028-6.333-3.479-10.6-4.357-12.8
			c-0.877-2.2-1.667-3.6-2.368-4.2c-0.391-0.333-0.819-0.533-1.287-0.6v29H331.965z M342.9,454.342h-2.866l-0.058,18.8h2.749
			c3.119,0,5.185-0.8,6.199-2.4c1.013-1.6,1.521-3.9,1.521-6.9c0-3.866-0.76-6.5-2.281-7.9
			C347.072,454.876,345.317,454.342,342.9,454.342z"/>
		<path fill="#FFFFFF" d="M424.188,512.642v-69.5h23.158l-1.053,11.4h-13.918v16.1h11.637v11.4h-11.521v18.6h15.38v12H424.188z"/>
		<path fill="#FFFFFF" d="M525.007,441.042c5.263,0,9.785,2.334,13.567,7l-3.86,10c-3.431-3.533-6.589-5.3-9.474-5.3
			c-1.677,0-3.041,0.75-4.094,2.25c-1.052,1.5-1.579,3.417-1.579,5.75c0,1.8,0.331,3.217,0.994,4.25
			c0.662,1.034,1.832,1.95,3.509,2.75l4.912,2.3c6.861,3.2,10.292,10.1,10.292,20.7c0,7.067-1.53,12.734-4.591,17
			c-3.061,4.267-7.125,6.4-12.193,6.4c-4.952,0-9.572-2.1-13.86-6.3l3.041-10.9c4.171,3.734,7.895,5.6,11.17,5.6
			c4.756,0,7.134-3.166,7.134-9.5c0-4.333-1.774-7.333-5.322-9l-4.503-2.1c-3.899-1.8-6.57-4.732-8.012-8.8
			c-1.131-3.2-1.696-6.733-1.696-10.6c0-6.333,1.354-11.5,4.064-15.5C517.219,443.042,520.718,441.042,525.007,441.042z"/>
		<path fill="#FFFFFF" d="M604.013,512.642v-69.5h8.538v69.5H604.013z"/>
		<path fill="#FFFFFF" d="M678.984,512.642v-69.1h8.188c2.768,0,5.125,0.134,7.076,0.4c3.43,0.467,6.393,2.768,8.889,6.9
			c3.703,6.134,5.555,15.367,5.555,27.7c0,9.4-1.365,17.3-4.094,23.7c-2.534,6-5.828,9.334-9.883,10
			c-1.56,0.267-3.508,0.4-5.848,0.4H678.984z M691.031,454.542h-3.743v46.7h4.386c5.225,0,7.837-7.133,7.837-21.4
			c0-9.133-0.683-15.633-2.047-19.5C696.099,456.476,693.955,454.542,691.031,454.542z"/>
		<path fill="#FFFFFF" d="M773.02,512.642v-69.5h23.158l-1.053,11.4h-13.918v16.1h11.639v11.4h-11.521v18.6h15.381v12H773.02z"/>
		<path fill="#FFFFFF" d="M860.857,512.642v-69.5h9.064l7.777,27.8c1.949,7,3.43,13.567,4.443,19.7
			c-0.389-7.333-0.604-13.7-0.643-19.1l-0.176-28.4h7.779v69.5h-8.539l-6.959-26.6c-3.002-11.533-4.834-19.133-5.498-22.8
			c0.195,3.934,0.332,10.5,0.41,19.7l0.234,29.7H860.857z"/>
		<path fill="#FFFFFF" d="M952.025,454.742v-11.6h29.299l-1.344,11.6h-9.709v57.9h-8.305v-57.9H952.025z"/>
	</g>
</g>
<g id="Layer_5">
</g>
<g id="Layer_4">
	<g>
		<path fill="#FFFFFF" d="M709.872,236.292c-39.072-46.784-100.25-52.953-157.315-108.476
			c-34.444-33.417-95.108,32.903-78.658,64.776c22.106,42.157,73.003,122.871,118.758,158.343
			C690.85,426.507,789.042,330.886,709.872,236.292"/>
		<path opacity="0.15" enable-background="new    " d="M486.751,202.874c11.311-13.366,8.227-35.472,8.227-35.472
			s8.739,10.282,21.592,10.282l1.028-22.621c0,0,19.536-0.514,36.5-19.535l-57.578-2.057l-20.05,32.902L486.751,202.874"/>
		<g>
			<path fill="#FFE631" d="M491.379,123.703l-4.628,8.224c-12.337-8.224-29.817-30.844-12.337-62.205l7.711,5.141
				C466.188,103.139,488.809,121.646,491.379,123.703"/>
			<path fill="#FFE631" d="M523.767,142.723c19.537,2.058,37.53-13.365,37.53-13.365s-13.367-18.508-33.417-20.564
				c-19.536-2.058-36.501,3.599-37.529,12.853C489.321,131.413,504.231,140.668,523.767,142.723"/>
			<path fill="#FFE631" d="M461.561,163.288c-2.569,20.563,10.282,38.558,10.282,38.558s16.451-14.908,19.021-35.473
				c2.571-20.563-2.056-37.529-10.282-38.557C472.357,127.302,464.131,143.238,461.561,163.288"/>
		</g>
		<path fill="#FCDB1A" d="M480.068,151.977c12.853,17.995,40.614,17.995,40.614,17.995s6.17-29.303-6.684-47.811
			c-12.852-17.994-31.359-26.219-40.612-17.994C463.617,112.392,466.702,133.47,480.068,151.977"/>
	</g>
</g>
<g id="Layer_1">
</g>
</svg>
