<?xml version="1.0" encoding="utf-8"?>
<!-- Generator: Adobe Illustrator 16.0.4, SVG Export Plug-In . SVG Version: 6.00 Build 0)  -->
<!DOCTYPE svg PUBLIC "-//W3C//DTD SVG 1.1//EN" "http://www.w3.org/Graphics/SVG/1.1/DTD/svg11.dtd">
<svg version="1.1" id="Layer_1" xmlns="http://www.w3.org/2000/svg" xmlns:xlink="http://www.w3.org/1999/xlink" x="0px" y="0px"
	 width="2700px" height="1000px" viewBox="0 0 2700 1000" enable-background="new 0 0 2700 1000" xml:space="preserve">
<g id="Layer_4">
	<rect fill="#273580" width="2700" height="1000"/>
</g>
<g id="Layer_2">
	<polyline fill="none" stroke="#89171C" stroke-width="18.7895" stroke-miterlimit="10" points="1050,950 50,950 50,50 1050,50 	"/>
	<polyline fill="none" stroke="#89171C" stroke-width="23.4888" stroke-miterlimit="10" points="1650,50 2650,50 2650,950 1650,950 
			"/>
</g>
<g id="Layer_3">
	<g>
		<polygon fill="#89171C" points="1106.483,927.622 1112.038,944.717 1130.013,944.718 1115.472,955.283 1121.025,972.379 
			1106.483,961.814 1091.939,972.379 1097.494,955.283 1082.953,944.718 1100.928,944.717 		"/>
		<polygon fill="#89171C" points="1593.518,927.622 1599.072,944.717 1617.047,944.718 1602.506,955.283 1608.061,972.379 
			1593.518,961.814 1578.975,972.379 1584.528,955.283 1569.986,944.718 1587.962,944.717 		"/>
		<polygon fill="#89171C" points="1471.759,927.622 1477.312,944.717 1495.289,944.718 1480.747,955.283 1486.301,972.379 
			1471.759,961.814 1457.216,972.379 1462.77,955.283 1448.229,944.718 1466.203,944.717 		"/>
		<polygon fill="#89171C" points="1350,927.622 1355.555,944.717 1373.53,944.718 1358.988,955.283 1364.543,972.379 1350,961.814 
			1335.458,972.379 1341.011,955.283 1326.47,944.718 1344.445,944.717 		"/>
		<polygon fill="#89171C" points="1228.241,927.622 1233.797,944.717 1251.771,944.718 1237.23,955.283 1242.784,972.379 
			1228.241,961.814 1213.699,972.379 1219.253,955.283 1204.711,944.718 1222.688,944.717 		"/>
	</g>
	<g>
		<polygon fill="#89171C" points="1106.483,27.622 1112.038,44.716 1130.013,44.717 1115.472,55.283 1121.025,72.378 
			1106.483,61.814 1091.939,72.378 1097.494,55.283 1082.953,44.717 1100.928,44.716 		"/>
		<polygon fill="#89171C" points="1593.518,27.622 1599.072,44.716 1617.047,44.717 1602.506,55.283 1608.061,72.378 
			1593.518,61.814 1578.975,72.378 1584.528,55.283 1569.986,44.717 1587.962,44.716 		"/>
		<polygon fill="#89171C" points="1471.759,27.622 1477.312,44.716 1495.289,44.717 1480.747,55.283 1486.301,72.378 
			1471.759,61.814 1457.216,72.378 1462.77,55.283 1448.229,44.717 1466.203,44.716 		"/>
		<polygon fill="#89171C" points="1350,27.622 1355.555,44.716 1373.53,44.717 1358.988,55.283 1364.543,72.378 1350,61.814 
			1335.458,72.378 1341.011,55.283 1326.47,44.717 1344.445,44.716 		"/>
		<polygon fill="#89171C" points="1228.241,27.622 1233.797,44.716 1251.771,44.717 1237.23,55.283 1242.784,72.378 
			1228.241,61.814 1213.699,72.378 1219.253,55.283 1204.711,44.717 1222.688,44.716 		"/>
	</g>
</g>
<g id="Layer_1_1_">
	<g>
		<path fill="#FFFFFF" d="M518.245,828.41v-83.4h47.52l-2.159,13.683h-28.561v19.317h23.88v13.683h-23.64v22.317h31.56v14.4H518.245
			z"/>
		<path fill="#FFFFFF" d="M635.245,743.691c10.32,0,19.159,3.198,26.52,9.6l-8.88,10.439c-5.279-4.32-11.081-6.48-17.399-6.48
			c-5.04,0-9.041,1.4-12,4.201c-4.722,4.559-7.08,13.52-7.08,26.879c0,11.76,2.08,19.68,6.239,23.76
			c3.199,3.121,7.561,4.683,13.08,4.683c3.68,0,6.841-0.681,9.48-2.041v-18.959h-12.72l-2.16-13.683h32.28v39.84
			c-8.4,4.963-17.641,7.441-27.721,7.441c-12.319,0-21.8-4.24-28.439-12.721c-5.921-7.601-8.88-17.318-8.88-29.16
			c0-17.521,5.799-30.158,17.399-37.92C620.803,745.652,627.564,743.691,635.245,743.691z"/>
		<path fill="#FFFFFF" d="M731.963,743.691c10.32,0,19.159,3.198,26.521,9.6l-8.88,10.439c-5.28-4.32-11.081-6.48-17.4-6.48
			c-5.04,0-9.041,1.4-12,4.201c-4.721,4.559-7.08,13.52-7.08,26.879c0,11.76,2.08,19.68,6.24,23.76
			c3.198,3.121,7.56,4.683,13.08,4.683c3.679,0,6.84-0.681,9.479-2.041v-18.959h-12.72l-2.16-13.683h32.28v39.84
			c-8.4,4.963-17.641,7.441-27.72,7.441c-12.32,0-21.801-4.24-28.44-12.721c-5.921-7.601-8.88-17.318-8.88-29.16
			c0-17.521,5.799-30.158,17.399-37.92C717.521,745.652,724.283,743.691,731.963,743.691z"/>
		<path fill="#FFFFFF" d="M795.562,828.41v-83.639h21.96c10.56,0,18.278,1.36,23.159,4.079c7.999,4.48,12,11.681,12,21.601
			c0,5.52-1.26,10.438-3.779,14.76c-2.521,4.321-6.061,7.561-10.62,9.719c-3.92,1.842-9.48,2.763-16.681,2.763h-9.239v30.719
			L795.562,828.41L795.562,828.41z M823.042,758.33h-10.68v25.68h8.76c3.039,0,5.16-0.158,6.36-0.479
			c1.92-0.56,3.539-1.861,4.859-3.9c1.32-2.041,1.98-4.979,1.98-8.82c0-3.918-1.001-6.979-3-9.18
			C829.321,759.432,826.562,758.33,823.042,758.33z"/>
		<path fill="#FFFFFF" d="M889.041,828.41v-83.4h17.16v69.48h29.88l-3,13.92H889.041L889.041,828.41z"/>
		<path fill="#FFFFFF" d="M960.439,828.41l27.36-83.639h18.12l26.28,83.639h-18l-5.88-19.799h-24.48l-5.88,19.799H960.439z
			 M992.36,779.211c-1.44,5.682-2.921,10.842-4.44,15.48h16.32c-0.96-2.882-2.481-8.48-4.561-16.802
			c-0.561-2.399-1.68-7.319-3.359-14.76L992.36,779.211z"/>
		<path fill="#FFFFFF" d="M1062.799,828.41v-83.4h18.6l15.961,33.361c3.998,8.4,7.038,16.279,9.119,23.639
			c-0.801-8.799-1.24-16.438-1.319-22.92l-0.359-34.08h15.96v83.4h-17.521l-14.28-31.92c-6.161-13.84-9.921-22.959-11.28-27.359
			c0.399,4.721,0.679,12.6,0.84,23.641l0.48,35.64L1062.799,828.41L1062.799,828.41z"/>
		<path fill="#FFFFFF" d="M1153.877,758.93v-13.92h60.12l-2.76,13.92h-19.921v69.48h-17.039v-69.48H1153.877z"/>
	</g>
	<g>
		<path fill="#CECECE" d="M1649.087,209.558c-49.069-22.492-83.146,47.022-83.146,47.022s14.311,32.031,36.119,38.847
			c79.057,23.854,147.205-81.781,147.205-81.781S1697.472,232.047,1649.087,209.558"/>
		<path fill="#CECECE" d="M1518.235,232.047c-2.726,0-3.406,10.223-0.682,10.223c43.615,9.541,61.336,41.571,62.697,47.704
			c2.045,8.179,14.312-0.68,10.223-10.904C1589.113,277.707,1563.896,237.499,1518.235,232.047"/>
		<path fill="#E2E2E2" d="M1865.124,557.125c-2.046-2.045-6.816,0-10.224,4.088c-4.09,4.773-5.452,9.543-4.09,10.906"/>
		<path fill="#E2E2E2" d="M1850.812,572.119"/>
		<path fill="#FFFFFF" d="M1574.8,308.375c-3.405-4.77,0.684-15.675,10.225-25.897c9.54-9.541,20.444-14.312,25.216-10.904
			c57.246-36.801,144.479-19.764,207.179,44.979c55.884,57.928,75.646,136.301,53.157,194.912
			c10.904,14.311,7.496,38.843-9.542,56.564c-17.036,17.719-40.892,21.809-54.52,10.223c-56.565,22.49-132.214,2.728-188.098-55.203
			C1555.719,457.625,1538.682,367.667,1574.8,308.375"/>
		<path fill="#BFBFBF" d="M1584.342,287.931c-10.223-28.625-52.477-44.979-52.477-44.979s-85.869,48.385-54.521,111.084
			c30.668,62.018,10.903,130.85,10.903,130.85S1619.099,389.474,1584.342,287.931z"/>
		<path fill="#E2E2E2" d="M1531.865,242.952c-6.132,8.176-11.585,17.036-15.676,26.578c-4.088,9.541-6.812,20.444-8.177,31.349
			c-2.727,21.809,0,42.935,1.363,64.062c2.044,20.446,2.044,41.572-1.363,62.017c-3.407,20.446-10.905,40.208-19.765,58.61
			c5.452-8.179,10.223-17.721,14.994-27.262c4.089-9.54,7.496-19.763,10.223-29.985c4.771-21.809,4.771-43.617,2.725-64.743
			c-2.043-21.126-4.77-42.254-2.725-62.699C1514.829,280.435,1522.324,260.669,1531.865,242.952"/>
	</g>
	<g>
		<path fill="#FFFFFF" d="M815.839,420.471c64.806-77.592,166.271-87.824,260.916-179.913
			c57.13-55.423,157.743,54.57,130.459,107.436c-61.313,116.923-139.574,218.125-196.967,262.621
			C847.39,735.96,684.53,577.361,815.839,420.471"/>
		<path opacity="0.15" enable-background="new    " d="M1185.896,365.048c-18.758-22.169-13.642-58.834-13.642-58.834
			s-14.496,17.054-35.812,17.054l-1.706-37.518c0,0-32.4-0.853-60.538-32.403l95.498-3.409l33.252,54.57L1185.896,365.048"/>
		<g>
			<path fill="#FFE631" d="M1178.223,233.736l7.674,13.644c20.465-13.644,49.455-51.16,20.465-103.173l-12.791,8.528
				C1220.003,199.63,1182.485,230.327,1178.223,233.736"/>
			<path fill="#FFE631" d="M1124.505,265.286c-32.399,3.411-62.245-22.169-62.245-22.169s22.17-30.697,55.424-34.107
				c32.403-3.411,60.54,5.969,62.245,21.318C1181.634,246.528,1156.906,261.875,1124.505,265.286"/>
			<path fill="#FFE631" d="M1227.677,299.392c4.265,34.106-17.053,63.95-17.053,63.95s-27.286-24.727-31.549-58.834
				c-4.263-34.106,3.41-62.243,17.053-63.95C1209.771,239.706,1223.414,266.139,1227.677,299.392"/>
		</g>
		<path fill="#FCDB1A" d="M1196.98,280.633c-21.314,29.843-67.358,29.843-67.358,29.843s-10.233-48.601,11.086-79.296
			c21.315-29.844,52.011-43.486,67.358-29.844C1224.267,214.979,1219.15,249.938,1196.98,280.633"/>
	</g>
	<g>
		<path fill="#FFFFFF" d="M1504.169,828.41v-83.4h17.16v69.48h29.88l-3,13.92H1504.169L1504.169,828.41z"/>
		<path fill="#FFFFFF" d="M1585.289,828.41v-83.4h47.52l-2.16,13.68h-28.561v19.32h23.881v13.68h-23.641v22.32h31.561v14.4H1585.289
			z"/>
		<path fill="#FFFFFF" d="M1665.928,828.41l7.801-83.4h21.721l10.921,41.76c1.358,5.361,2.317,9.601,2.879,12.722
			c0.961-4.802,1.96-9.16,3-13.08l11.28-41.4h21.96l7.438,83.4h-16.559l-3.121-44.521c-0.479-6.881-0.72-11.319-0.72-13.319
			c-0.8,4.08-1.8,8.159-3,12.239l-13.2,45.601h-14.76l-11.88-43.802c-0.721-2.559-1.841-7.397-3.36-14.52
			c0,3.762-0.2,8.682-0.6,14.76l-2.881,43.562L1665.928,828.41L1665.928,828.41z"/>
		<path fill="#FFFFFF" d="M1803.807,748.01c4.959-2.719,10.72-4.08,17.279-4.08c11.119,0,19.879,3.779,26.28,11.34
			c6.399,7.562,9.601,17.9,9.601,31.021c0,19.521-6.201,32.721-18.601,39.602c-4.642,2.56-10.2,3.841-16.681,3.841
			c-12,0-21.041-3.92-27.119-11.763c-6.401-8.237-9.601-18.559-9.601-30.959c0-9.039,1.659-16.979,4.979-23.819
			C1793.266,756.35,1797.885,751.291,1803.807,748.01z M1835.486,767.449c-0.802-2.64-2.279-4.92-4.439-6.84
			c-2.802-2.479-6.201-3.72-10.2-3.72c-6.081,0-10.4,2.439-12.96,7.318c-2.802,5.361-4.199,12.961-4.199,22.801
			c0,14.32,2.479,23.32,7.439,27c2.559,1.92,5.879,2.881,9.959,2.881c5.84,0,10.062-2.358,12.66-7.08
			c2.599-4.721,3.9-12.399,3.9-23.041C1837.646,778.531,1836.926,772.09,1835.486,767.449z"/>
		<path fill="#FFFFFF" d="M1893.086,828.41v-83.4h18.6l15.962,33.359c3.999,8.399,7.038,16.281,9.118,23.641
			c-0.801-8.799-1.239-16.438-1.319-22.92l-0.359-34.08h15.96v83.4h-17.521l-14.279-31.92c-6.161-13.84-9.921-22.959-11.28-27.361
			c0.399,4.723,0.68,12.602,0.841,23.641l0.479,35.642L1893.086,828.41L1893.086,828.41z"/>
	</g>
	<g>
		<path fill="#FFFFFF" d="M1359.927,789.614h21.634v2.029c-3.135,0.428-5.681,1.282-7.639,2.565
			c-1.958,1.282-4.271,3.847-6.942,7.692c-3.526,5.127-6.446,9.206-8.761,12.232c4.238,7.156,8.813,10.735,13.729,10.735
			c3.026,0,5.768-1.299,8.227-3.897h2.403c-2.137,2.919-4.396,5.03-6.784,6.331c-2.387,1.298-5.216,1.948-8.493,1.948
			c-3.42,0-6.375-0.633-8.869-1.897c-2.492-1.264-4.968-3.391-7.424-6.382c-3.952,2.956-7.718,5.074-11.297,6.354
			c-3.579,1.282-7.541,1.923-11.886,1.923c-6.446,0-11.422-1.672-14.929-5.021c-3.509-3.349-5.262-7.711-5.262-13.088
			c0-6.373,2.689-11.981,8.066-16.827c3.525-3.134,10.702-6.533,21.527-10.201c-0.178-1.353-0.313-2.627-0.399-3.818
			c-0.09-1.193-0.133-2.288-0.133-3.287c0-7.264,1.905-12.996,5.716-17.2c3.809-4.201,8.403-6.304,13.78-6.304
			c3.633,0,6.508,1.009,8.63,3.019c2.116,2.013,3.175,4.531,3.175,7.56c0,3.81-1.53,7.46-4.592,10.95
			c-3.062,3.49-8.547,6.517-16.452,9.081c2.565,10.613,5.716,19.499,9.455,26.656c5.52-6.658,8.28-11.981,8.28-15.972
			c0-0.855-0.34-1.565-1.015-2.137c-0.676-0.569-1.922-0.907-3.739-1.015v-2.031H1359.927z M1337.759,787.478
			c-6.874,2.565-11.823,5.708-14.85,9.428c-3.028,3.722-4.541,7.577-4.541,11.565c0,4.485,1.433,8.196,4.299,11.138
			c2.866,2.937,6.596,4.405,11.191,4.405c2.529,0,4.797-0.383,6.812-1.148c2.01-0.765,4.78-2.394,8.306-4.887
			c-2.279-3.561-4.479-8.208-6.596-13.943C1340.26,798.305,1338.72,792.784,1337.759,787.478z M1346.252,780.693
			c5.412-2.313,9.062-4.521,10.951-6.624c2.599-2.918,3.898-6.104,3.898-9.56c0-2.28-0.624-4.076-1.869-5.395
			c-1.247-1.319-2.866-1.979-4.859-1.979c-2.565,0-4.737,1.122-6.517,3.365c-1.783,2.243-2.671,5.948-2.671,11.111
			c0,1.21,0.088,2.571,0.267,4.085C1345.628,777.214,1345.896,778.877,1346.252,780.693z"/>
	</g>
</g>
</svg>
