<?xml version="1.0" encoding="utf-8"?>
<!-- Generator: Adobe Illustrator 16.0.4, SVG Export Plug-In . SVG Version: 6.00 Build 0)  -->
<!DOCTYPE svg PUBLIC "-//W3C//DTD SVG 1.1//EN" "http://www.w3.org/Graphics/SVG/1.1/DTD/svg11.dtd">
<svg version="1.1" xmlns="http://www.w3.org/2000/svg" xmlns:xlink="http://www.w3.org/1999/xlink" x="0px" y="0px" width="2700px"
	 height="1000px" viewBox="0 0 2700 1000" enable-background="new 0 0 2700 1000" xml:space="preserve">
<g id="Layer_4">
	<rect fill="#273580" width="2700" height="1000"/>
</g>
<g id="Layer_2">
	<polyline fill="none" stroke="#89171C" stroke-width="18.7895" stroke-miterlimit="10" points="1050,950 50,950 50,50 1050,50 	"/>
	<polyline fill="none" stroke="#89171C" stroke-width="23.4888" stroke-miterlimit="10" points="1650,50 2650,50 2650,950 1650,950 
			"/>
</g>
<g id="Layer_3">
	<g>
		<polygon fill="#89171C" points="1106.483,927.622 1112.038,944.717 1130.013,944.718 1115.472,955.283 1121.025,972.379 
			1106.483,961.814 1091.94,972.379 1097.494,955.283 1082.953,944.718 1100.928,944.717 		"/>
		<polygon fill="#89171C" points="1593.518,927.622 1599.072,944.717 1617.047,944.718 1602.506,955.283 1608.06,972.379 
			1593.518,961.814 1578.975,972.379 1584.528,955.283 1569.986,944.718 1587.962,944.717 		"/>
		<polygon fill="#89171C" points="1471.759,927.622 1477.313,944.717 1495.289,944.718 1480.747,955.283 1486.301,972.379 
			1471.759,961.814 1457.216,972.379 1462.77,955.283 1448.229,944.718 1466.203,944.717 		"/>
		<polygon fill="#89171C" points="1350,927.622 1355.555,944.717 1373.53,944.718 1358.988,955.283 1364.543,972.379 1350,961.814 
			1335.458,972.379 1341.011,955.283 1326.47,944.718 1344.445,944.717 		"/>
		<polygon fill="#89171C" points="1228.241,927.622 1233.797,944.717 1251.771,944.718 1237.23,955.283 1242.784,972.379 
			1228.241,961.814 1213.699,972.379 1219.253,955.283 1204.711,944.718 1222.687,944.717 		"/>
	</g>
	<g>
		<polygon fill="#89171C" points="1106.483,27.622 1112.038,44.716 1130.013,44.717 1115.472,55.283 1121.025,72.378 
			1106.483,61.814 1091.94,72.378 1097.494,55.283 1082.953,44.717 1100.928,44.716 		"/>
		<polygon fill="#89171C" points="1593.518,27.622 1599.072,44.716 1617.047,44.717 1602.506,55.283 1608.06,72.378 
			1593.518,61.814 1578.975,72.378 1584.528,55.283 1569.986,44.717 1587.962,44.716 		"/>
		<polygon fill="#89171C" points="1471.759,27.622 1477.313,44.716 1495.289,44.717 1480.747,55.283 1486.301,72.378 
			1471.759,61.814 1457.216,72.378 1462.77,55.283 1448.229,44.717 1466.203,44.716 		"/>
		<polygon fill="#89171C" points="1350,27.622 1355.555,44.716 1373.53,44.717 1358.988,55.283 1364.543,72.378 1350,61.814 
			1335.458,72.378 1341.011,55.283 1326.47,44.717 1344.445,44.716 		"/>
		<polygon fill="#89171C" points="1228.241,27.622 1233.797,44.716 1251.771,44.717 1237.23,55.283 1242.784,72.378 
			1228.241,61.814 1213.699,72.378 1219.253,55.283 1204.711,44.717 1222.687,44.716 		"/>
	</g>
</g>
<g id="Layer_1">
	<g>
		<path fill="#FFFFFF" d="M1541.182,379.231c-67.99-81.405-174.439-92.14-273.735-188.751
			c-59.936-58.146-165.493,57.251-136.868,112.714c64.326,122.667,146.43,228.84,206.643,275.522
			C1508.08,710.219,1678.941,543.829,1541.182,379.231"/>
		<path opacity="0.15" enable-background="new    " d="M1152.943,321.085c19.681-23.259,14.313-61.725,14.313-61.725
			s15.208,17.892,37.571,17.892l1.789-39.361c0,0,33.993-0.895,63.513-33.993l-100.19-3.578l-34.887,57.251L1152.943,321.085"/>
		<g>
			<path fill="#FFE631" d="M1160.994,183.323l-8.051,14.313c-21.469-14.313-51.884-53.674-21.469-108.242l13.418,8.946
				C1117.161,147.542,1156.521,179.745,1160.994,183.323"/>
			<path fill="#FFE631" d="M1217.351,216.421c33.993,3.579,65.303-23.258,65.303-23.258s-23.258-32.204-58.146-35.782
				c-33.993-3.578-63.513,6.262-65.302,22.364C1157.416,196.742,1183.358,212.844,1217.351,216.421"/>
			<path fill="#FFE631" d="M1109.109,252.204c-4.472,35.782,17.892,67.091,17.892,67.091s28.625-25.942,33.099-61.725
				c4.473-35.782-3.578-65.302-17.892-67.091C1127.896,189.585,1113.583,217.316,1109.109,252.204"/>
		</g>
		<path fill="#FCDB1A" d="M1141.314,232.523c22.363,31.309,70.669,31.309,70.669,31.309s10.735-50.989-11.629-83.192
			c-22.363-31.31-54.567-45.623-70.669-31.31C1112.688,163.643,1118.056,200.32,1141.314,232.523"/>
	</g>
	<g>
		<path fill="#FFFFFF" d="M203.771,809.183v-83.4h47.52l-2.16,13.681h-28.56v19.319h23.88v13.681h-23.64v22.319h31.56v14.4H203.771z
			"/>
		<path fill="#FFFFFF" d="M320.771,724.463c10.32,0,19.159,3.2,26.52,9.6l-8.88,10.44c-5.28-4.32-11.081-6.48-17.4-6.48
			c-5.04,0-9.041,1.4-12,4.2c-4.721,4.56-7.08,13.521-7.08,26.88c0,11.76,2.08,19.68,6.24,23.76c3.199,3.12,7.56,4.681,13.08,4.681
			c3.679,0,6.84-0.679,9.48-2.04v-18.96h-12.72l-2.16-13.681h32.28v39.84c-8.4,4.962-17.64,7.44-27.72,7.44
			c-12.32,0-21.8-4.239-28.44-12.72c-5.921-7.6-8.88-17.319-8.88-29.16c0-17.521,5.799-30.159,17.4-37.92
			C306.329,726.424,313.09,724.463,320.771,724.463z"/>
		<path fill="#FFFFFF" d="M417.489,724.463c10.32,0,19.159,3.2,26.52,9.6l-8.88,10.44c-5.28-4.32-11.081-6.48-17.4-6.48
			c-5.04,0-9.041,1.4-12,4.2c-4.721,4.56-7.08,13.521-7.08,26.88c0,11.76,2.08,19.68,6.24,23.76c3.199,3.12,7.56,4.681,13.08,4.681
			c3.679,0,6.84-0.679,9.48-2.04v-18.96h-12.72l-2.16-13.681h32.28v39.84c-8.4,4.962-17.64,7.44-27.72,7.44
			c-12.32,0-21.8-4.239-28.44-12.72c-5.921-7.6-8.88-17.319-8.88-29.16c0-17.521,5.799-30.159,17.4-37.92
			C403.048,726.424,409.809,724.463,417.489,724.463z"/>
		<path fill="#FFFFFF" d="M481.087,809.183v-83.64h21.96c10.56,0,18.279,1.361,23.16,4.08c7.999,4.48,12,11.681,12,21.6
			c0,5.52-1.26,10.44-3.78,14.76c-2.52,4.32-6.06,7.561-10.62,9.72c-3.92,1.842-9.48,2.761-16.68,2.761h-9.24v30.72H481.087z
			 M508.567,739.103h-10.68v25.68h8.76c3.039,0,5.16-0.159,6.36-0.479c1.92-0.559,3.54-1.86,4.86-3.9
			c1.32-2.04,1.98-4.979,1.98-8.819c0-3.919-1.001-6.979-3-9.181C514.847,740.203,512.087,739.103,508.567,739.103z"/>
		<path fill="#FFFFFF" d="M574.566,809.183v-83.4h17.16v69.48h29.88l-3,13.92H574.566z"/>
		<path fill="#FFFFFF" d="M645.965,809.183l27.36-83.64h18.12l26.28,83.64h-18l-5.88-19.8h-24.48l-5.88,19.8H645.965z
			 M677.885,759.982c-1.44,5.682-2.921,10.842-4.44,15.48h16.32c-0.96-2.88-2.481-8.479-4.56-16.8c-0.561-2.4-1.68-7.32-3.36-14.761
			L677.885,759.982z"/>
		<path fill="#FFFFFF" d="M748.325,809.183v-83.4h18.6l15.96,33.36c3.999,8.4,7.039,16.28,9.12,23.64
			c-0.801-8.799-1.241-16.439-1.32-22.92l-0.359-34.08h15.96v83.4h-17.521l-14.28-31.92c-6.161-13.84-9.921-22.959-11.28-27.36
			c0.399,4.722,0.679,12.601,0.84,23.641l0.48,35.64H748.325z"/>
		<path fill="#FFFFFF" d="M839.403,739.702v-13.92h60.12l-2.76,13.92h-19.92v69.48h-17.04v-69.48H839.403z"/>
		<path fill="#FFFFFF" d="M994.684,809.183v-83.4h47.52l-2.16,13.681h-28.56v19.319h23.88v13.681h-23.64v22.319h31.56v14.4H994.684z
			"/>
		<path fill="#FFFFFF" d="M1111.684,724.463c10.32,0,19.158,3.2,26.52,9.6l-8.88,10.44c-5.28-4.32-11.081-6.48-17.399-6.48
			c-5.04,0-9.042,1.4-12,4.2c-4.722,4.56-7.08,13.521-7.08,26.88c0,11.76,2.079,19.68,6.239,23.76
			c3.199,3.12,7.561,4.681,13.08,4.681c3.679,0,6.841-0.679,9.48-2.04v-18.96h-12.72l-2.16-13.681h32.279v39.84
			c-8.399,4.962-17.64,7.44-27.72,7.44c-12.32,0-21.801-4.239-28.439-12.72c-5.922-7.6-8.88-17.319-8.88-29.16
			c0-17.521,5.799-30.159,17.399-37.92C1097.242,726.424,1104.004,724.463,1111.684,724.463z"/>
		<path fill="#FFFFFF" d="M1208.401,724.463c10.32,0,19.158,3.2,26.52,9.6l-8.88,10.44c-5.28-4.32-11.081-6.48-17.399-6.48
			c-5.04,0-9.042,1.4-12,4.2c-4.722,4.56-7.08,13.521-7.08,26.88c0,11.76,2.079,19.68,6.239,23.76
			c3.199,3.12,7.561,4.681,13.08,4.681c3.679,0,6.841-0.679,9.48-2.04v-18.96h-12.72l-2.16-13.681h32.279v39.84
			c-8.399,4.962-17.64,7.44-27.72,7.44c-12.32,0-21.801-4.239-28.439-12.72c-5.922-7.6-8.88-17.319-8.88-29.16
			c0-17.521,5.799-30.159,17.399-37.92C1193.96,726.424,1200.722,724.463,1208.401,724.463z"/>
		<path fill="#FFFFFF" d="M1272,809.183v-83.64h21.96c10.56,0,18.279,1.361,23.16,4.08c7.999,4.48,12,11.681,12,21.6
			c0,5.52-1.26,10.44-3.78,14.76c-2.52,4.32-6.06,7.561-10.62,9.72c-3.92,1.842-9.479,2.761-16.68,2.761h-9.24v30.72H1272z
			 M1299.479,739.103h-10.68v25.68h8.76c3.04,0,5.16-0.159,6.36-0.479c1.92-0.559,3.54-1.86,4.86-3.9
			c1.319-2.04,1.979-4.979,1.979-8.819c0-3.919-1.001-6.979-3-9.181C1305.76,740.203,1302.999,739.103,1299.479,739.103z"/>
		<path fill="#FFFFFF" d="M1365.479,809.183v-83.4h17.16v69.48h29.88l-3,13.92H1365.479z"/>
		<path fill="#FFFFFF" d="M1436.879,809.183l27.359-83.64h18.12l26.28,83.64h-18l-5.88-19.8h-24.48l-5.88,19.8H1436.879z
			 M1468.799,759.982c-1.44,5.682-2.922,10.842-4.44,15.48h16.32c-0.96-2.88-2.48-8.479-4.561-16.8
			c-0.561-2.4-1.68-7.32-3.359-14.761L1468.799,759.982z"/>
		<path fill="#FFFFFF" d="M1539.237,809.183v-83.4h18.6l15.96,33.36c3.999,8.4,7.039,16.28,9.12,23.64
			c-0.801-8.799-1.241-16.439-1.32-22.92l-0.359-34.08h15.96v83.4h-17.521l-14.28-31.92c-6.161-13.84-9.92-22.959-11.279-27.36
			c0.399,4.722,0.679,12.601,0.84,23.641l0.479,35.64H1539.237z"/>
		<path fill="#FFFFFF" d="M1630.316,739.702v-13.92h60.12l-2.76,13.92h-19.92v69.48h-17.04v-69.48H1630.316z"/>
		<path fill="#FFFFFF" d="M1785.596,809.183v-83.4h47.52l-2.16,13.681h-28.56v19.319h23.88v13.681h-23.64v22.319h31.56v14.4
			H1785.596z"/>
		<path fill="#FFFFFF" d="M1902.596,724.463c10.32,0,19.158,3.2,26.52,9.6l-8.88,10.44c-5.28-4.32-11.081-6.48-17.399-6.48
			c-5.04,0-9.042,1.4-12,4.2c-4.722,4.56-7.08,13.521-7.08,26.88c0,11.76,2.079,19.68,6.239,23.76
			c3.199,3.12,7.561,4.681,13.08,4.681c3.679,0,6.841-0.679,9.48-2.04v-18.96h-12.72l-2.16-13.681h32.279v39.84
			c-8.399,4.962-17.64,7.44-27.72,7.44c-12.32,0-21.801-4.239-28.439-12.72c-5.922-7.6-8.88-17.319-8.88-29.16
			c0-17.521,5.799-30.159,17.399-37.92C1888.154,726.424,1894.916,724.463,1902.596,724.463z"/>
		<path fill="#FFFFFF" d="M1999.314,724.463c10.32,0,19.158,3.2,26.52,9.6l-8.88,10.44c-5.28-4.32-11.081-6.48-17.399-6.48
			c-5.04,0-9.042,1.4-12,4.2c-4.722,4.56-7.08,13.521-7.08,26.88c0,11.76,2.079,19.68,6.239,23.76
			c3.199,3.12,7.561,4.681,13.08,4.681c3.679,0,6.841-0.679,9.48-2.04v-18.96h-12.72l-2.16-13.681h32.279v39.84
			c-8.399,4.962-17.64,7.44-27.72,7.44c-12.32,0-21.801-4.239-28.439-12.72c-5.922-7.6-8.88-17.319-8.88-29.16
			c0-17.521,5.799-30.159,17.399-37.92C1984.873,726.424,1991.635,724.463,1999.314,724.463z"/>
		<path fill="#FFFFFF" d="M2062.913,809.183v-83.64h21.96c10.56,0,18.279,1.361,23.16,4.08c7.999,4.48,12,11.681,12,21.6
			c0,5.52-1.26,10.44-3.78,14.76c-2.52,4.32-6.06,7.561-10.62,9.72c-3.92,1.842-9.479,2.761-16.68,2.761h-9.24v30.72H2062.913z
			 M2090.393,739.103h-10.68v25.68h8.76c3.04,0,5.16-0.159,6.36-0.479c1.92-0.559,3.54-1.86,4.86-3.9
			c1.319-2.04,1.979-4.979,1.979-8.819c0-3.919-1.001-6.979-3-9.181C2096.673,740.203,2093.912,739.103,2090.393,739.103z"/>
		<path fill="#FFFFFF" d="M2156.392,809.183v-83.4h17.16v69.48h29.88l-3,13.92H2156.392z"/>
		<path fill="#FFFFFF" d="M2227.791,809.183l27.359-83.64h18.12l26.28,83.64h-18l-5.88-19.8h-24.48l-5.88,19.8H2227.791z
			 M2259.711,759.982c-1.44,5.682-2.922,10.842-4.44,15.48h16.32c-0.96-2.88-2.48-8.479-4.561-16.8
			c-0.561-2.4-1.68-7.32-3.359-14.761L2259.711,759.982z"/>
		<path fill="#FFFFFF" d="M2330.15,809.183v-83.4h18.6l15.96,33.36c3.999,8.4,7.039,16.28,9.12,23.64
			c-0.801-8.799-1.241-16.439-1.32-22.92l-0.359-34.08h15.96v83.4h-17.521l-14.28-31.92c-6.161-13.84-9.92-22.959-11.279-27.36
			c0.399,4.722,0.679,12.601,0.84,23.641l0.479,35.64H2330.15z"/>
		<path fill="#FFFFFF" d="M2421.229,739.702v-13.92h60.12l-2.76,13.92h-19.92v69.48h-17.04v-69.48H2421.229z"/>
	</g>
</g>
</svg>
