<?xml version="1.0" encoding="utf-8"?>
<!-- Generator: Adobe Illustrator 16.0.4, SVG Export Plug-In . SVG Version: 6.00 Build 0)  -->
<!DOCTYPE svg PUBLIC "-//W3C//DTD SVG 1.1//EN" "http://www.w3.org/Graphics/SVG/1.1/DTD/svg11.dtd">
<svg version="1.1" xmlns="http://www.w3.org/2000/svg" xmlns:xlink="http://www.w3.org/1999/xlink" x="0px" y="0px" width="1200px"
	 height="1600px" viewBox="0 0 1200 1600" enable-background="new 0 0 1200 1600" xml:space="preserve">
<g id="Layer_3">
	<rect fill="#FFFFFF" width="1200" height="1600"/>
</g>
<g id="Layer_2">
	<polyline fill="none" stroke="#FE0027" stroke-width="14" stroke-miterlimit="10" points="466.667,1570.926 22.222,1570.926 
		22.222,27.515 466.667,27.515 	"/>
	<rect x="41.877" y="1334.858" fill="#FE0027" width="1116.594" height="202.535"/>
	<polyline fill="none" stroke="#FE0027" stroke-width="14" stroke-miterlimit="10" points="737.777,27.515 1177.777,27.515 
		1177.777,1570.926 737.777,1570.926 	"/>
	<g>
		<polygon fill="#FE0027" points="494.75,1554.657 498.199,1565.268 509.355,1565.268 500.33,1571.826 503.777,1582.437 
			494.75,1575.88 485.724,1582.437 489.171,1571.826 480.146,1565.268 491.302,1565.268 		"/>
		<polygon fill="#FE0027" points="652.625,1554.657 656.073,1565.268 667.229,1565.268 658.205,1571.826 661.651,1582.437 
			652.625,1575.88 643.599,1582.437 647.047,1571.826 638.021,1565.268 649.177,1565.268 		"/>
		<polygon fill="#FE0027" points="600,1554.657 603.448,1565.268 614.604,1565.268 605.58,1571.826 609.026,1582.437 600,1575.88 
			590.974,1582.437 594.421,1571.826 585.396,1565.268 596.552,1565.268 		"/>
		<polygon fill="#FE0027" points="705.25,1554.657 708.698,1565.268 719.854,1565.268 710.83,1571.826 714.276,1582.437 
			705.25,1575.88 696.224,1582.437 699.672,1571.826 690.646,1565.268 701.802,1565.268 		"/>
		<polygon fill="#FE0027" points="547.375,1554.657 550.824,1565.268 561.98,1565.268 552.955,1571.826 556.402,1582.437 
			547.375,1575.88 538.349,1582.437 541.796,1571.826 532.771,1565.268 543.927,1565.268 		"/>
	</g>
	<polygon fill="#FE0027" points="494.75,13.625 498.199,24.236 509.355,24.236 500.33,30.794 503.777,41.405 494.75,34.848 
		485.724,41.405 489.171,30.794 480.146,24.236 491.302,24.236 	"/>
	<polygon fill="#FE0027" points="652.625,13.625 656.073,24.236 667.229,24.236 658.205,30.794 661.651,41.405 652.625,34.848 
		643.599,41.405 647.047,30.794 638.021,24.236 649.177,24.236 	"/>
	<polygon fill="#FE0027" points="600,13.625 603.448,24.236 614.604,24.236 605.58,30.794 609.026,41.405 600,34.848 
		590.974,41.405 594.421,30.794 585.396,24.236 596.552,24.236 	"/>
	<polygon fill="#FE0027" points="705.25,13.625 708.698,24.236 719.854,24.236 710.83,30.794 714.276,41.405 705.25,34.848 
		696.224,41.405 699.672,30.794 690.646,24.236 701.802,24.236 	"/>
	<polygon fill="#FE0027" points="547.375,13.625 550.824,24.236 561.98,24.236 552.955,30.794 556.402,41.405 547.375,34.848 
		538.349,41.405 541.796,30.794 532.771,24.236 543.927,24.236 	"/>
	<g>
		<path fill="#FE0027" d="M69.129,678.063h83.197v36.68h-52.084v27.305h48.314v35.039h-48.314v33.867h53.592v38.906H69.129V678.063z
			"/>
		<path fill="#FE0027" d="M249.134,787.634v-35.742h47.972v73.242c-9.184,10.704-17.304,17.988-24.363,21.855
			c-7.059,3.867-15.432,5.801-25.117,5.801c-11.924,0-21.645-3.476-29.16-10.43c-7.516-6.952-13.341-17.304-17.476-31.055
			c-4.135-13.749-6.202-29.531-6.202-47.344c0-18.75,2.262-35.058,6.785-48.926c4.523-13.866,11.147-24.394,19.874-31.582
			c6.807-5.546,15.968-8.32,27.481-8.32c11.102,0,19.405,1.72,24.911,5.156c5.505,3.438,10.074,8.771,13.707,15.996
			c3.632,7.228,6.361,16.388,8.189,27.48l-29.948,9.141c-1.234-6.483-3.324-11.444-6.271-14.883
			c-2.947-3.437-6.706-5.156-11.273-5.156c-6.808,0-12.233,4.043-16.276,12.129s-6.065,20.88-6.065,38.379
			c0,18.595,2.044,31.875,6.133,39.844c4.088,7.969,9.789,11.953,17.099,11.953c3.472,0,6.785-0.858,9.937-2.578
			c3.152-1.718,6.761-4.647,10.828-8.789v-16.172H249.134z"/>
		<path fill="#FE0027" d="M394.119,787.634v-35.742h47.972v73.242c-9.184,10.704-17.304,17.988-24.363,21.855
			c-7.059,3.867-15.432,5.801-25.117,5.801c-11.924,0-21.645-3.476-29.16-10.43c-7.516-6.952-13.341-17.304-17.476-31.055
			c-4.135-13.749-6.202-29.531-6.202-47.344c0-18.75,2.262-35.058,6.785-48.926c4.523-13.866,11.147-24.394,19.874-31.582
			c6.807-5.546,15.968-8.32,27.481-8.32c11.102,0,19.405,1.72,24.911,5.156c5.505,3.438,10.074,8.771,13.707,15.996
			c3.632,7.228,6.361,16.388,8.189,27.48l-29.948,9.141c-1.234-6.483-3.324-11.444-6.271-14.883
			c-2.947-3.437-6.706-5.156-11.273-5.156c-6.808,0-12.233,4.043-16.276,12.129s-6.065,20.88-6.065,38.379
			c0,18.595,2.044,31.875,6.133,39.844c4.088,7.969,9.789,11.953,17.099,11.953c3.472,0,6.785-0.858,9.937-2.578
			c3.152-1.718,6.761-4.647,10.828-8.789v-16.172H394.119z"/>
		<path fill="#FE0027" d="M488.458,678.063h51.604c11.239,0,19.657,4.57,25.254,13.711c5.596,9.141,8.395,22.148,8.395,39.023
			c0,17.344-3.05,30.899-9.149,40.664c-6.099,9.767-15.409,14.648-27.926,14.648H519.64v63.75h-31.182V678.063z M519.64,751.306
			h7.607c5.985,0,10.188-1.776,12.61-5.332c2.421-3.554,3.632-8.104,3.632-13.652c0-5.391-1.052-9.961-3.152-13.711
			c-2.102-3.75-6.055-5.625-11.856-5.625h-8.841V751.306z"/>
		<path fill="#FE0027" d="M618.023,678.063h31.045v129.492h48.451v42.305h-79.496V678.063z"/>
		<path fill="#FE0027" d="M801.475,821.501h-35.246l-4.896,28.359h-31.697l37.76-171.797h33.863L839.01,849.86H806.5
			L801.475,821.501z M795.033,784.353l-11.088-61.758l-10.975,61.758H795.033z"/>
		<path fill="#FE0027" d="M877.154,678.063h28.988l37.83,95.046v-95.046h29.262V849.86h-29.262l-37.625-94.329v94.329h-29.193
			V678.063z"/>
		<path fill="#FE0027" d="M1014.875,678.063h94.367v42.422h-31.662V849.86h-31.043V720.485h-31.662V678.063z"/>
	</g>
	<g>
		<path fill="#FFFFFF" d="M514.049,1476.617h-48.852c0.56-8.248,2.259-16.007,5.097-23.276c2.838-7.269,8.161-15.848,15.971-25.737
			c4.77-6.061,7.821-10.664,9.154-13.809c1.333-3.145,1.999-6.129,1.999-8.955c0-3.053-0.66-5.662-1.979-7.827
			c-1.319-2.164-2.978-3.247-4.977-3.247c-2.079,0-3.778,1.117-5.097,3.35c-1.319,2.233-2.206,6.176-2.659,11.826l-16.311-2.256
			c0.64-7.838,1.812-13.956,3.518-18.354c1.705-4.397,4.111-7.77,7.216-10.117c3.104-2.347,7.402-3.521,12.893-3.521
			c5.729,0,10.187,1.117,13.372,3.35c3.184,2.233,5.689,5.663,7.516,10.288c1.825,4.626,2.738,9.81,2.738,15.552
			c0,6.107-1.046,11.94-3.138,17.5c-2.092,5.561-5.896,11.667-11.413,18.32c-3.278,3.874-5.471,6.586-6.576,8.135
			c-1.106,1.55-2.406,3.578-3.898,6.084h25.425V1476.617z"/>
		<path fill="#FFFFFF" d="M537.379,1426.1c0-19.049,2.005-32.379,6.017-39.99c4.011-7.61,10.12-11.416,18.329-11.416
			c3.944,0,7.182,0.832,9.714,2.495c2.532,1.664,4.597,3.828,6.196,6.494s2.858,5.469,3.778,8.408s1.659,6.369,2.219,10.288
			c1.093,7.475,1.639,15.268,1.639,23.379c0,18.184-1.799,31.491-5.397,39.922c-3.598,8.432-9.794,12.646-18.589,12.646
			c-4.931,0-8.915-1.345-11.953-4.033s-5.531-6.631-7.476-11.826c-1.413-3.691-2.512-8.738-3.298-15.142
			C537.772,1440.923,537.379,1433.848,537.379,1426.1z M553.53,1426.168c0,12.761,0.659,21.477,1.979,26.147
			c1.319,4.672,3.231,7.007,5.737,7.007c1.652,0,3.084-0.991,4.297-2.974c1.212-1.982,2.105-5.115,2.679-9.399
			c0.573-4.283,0.859-10.96,0.859-20.029c0-13.307-0.66-22.251-1.979-26.831s-3.298-6.87-5.937-6.87
			c-2.692,0-4.637,2.336-5.836,7.007C554.129,1404.897,553.53,1413.545,553.53,1426.168z"/>
		<path fill="#FFFFFF" d="M645.26,1374.693v101.924h-16.471v-66.787c-2.665,3.464-5.243,6.267-7.734,8.408
			c-2.493,2.143-5.617,4.193-9.375,6.152v-22.832c5.543-3.053,9.848-6.722,12.912-11.006c3.064-4.283,5.463-9.57,7.195-15.859
			H645.26z"/>
		<path fill="#FFFFFF" d="M726.477,1398.961l-16.191,3.418c-0.426-3.873-1.139-6.607-2.139-8.203
			c-0.999-1.595-2.232-2.393-3.697-2.393c-2.639,0-4.691,2.279-6.156,6.836c-1.066,3.281-1.854,10.3-2.359,21.055
			c1.945-3.372,3.944-5.867,5.997-7.485c2.052-1.617,4.424-2.427,7.116-2.427c5.223,0,9.641,3.19,13.252,9.57
			c3.611,6.381,5.416,14.47,5.416,24.268c0,6.608-0.912,12.646-2.738,18.115c-1.825,5.469-4.357,9.604-7.596,12.407
			c-3.237,2.803-7.295,4.204-12.172,4.204c-5.863,0-10.568-1.709-14.111-5.127c-3.545-3.418-6.377-8.875-8.496-16.372
			c-2.118-7.496-3.178-17.42-3.178-29.771c0-18.092,2.225-31.343,6.676-39.751s10.62-12.612,18.51-12.612
			c4.663,0,8.348,0.923,11.053,2.769s4.951,4.546,6.736,8.101S725.543,1393.584,726.477,1398.961z M696.494,1443.6
			c0,5.424,0.799,9.673,2.398,12.749s3.558,4.614,5.877,4.614c2.131,0,3.917-1.39,5.356-4.17c1.438-2.779,2.159-6.927,2.159-12.441
			c0-5.65-0.747-9.957-2.239-12.92c-1.493-2.962-3.345-4.443-5.557-4.443c-2.266,0-4.165,1.436-5.696,4.307
			C697.26,1434.166,696.494,1438.268,696.494,1443.6z"/>
	</g>
	<g>
		<path fill="#FE0027" d="M345.187,1181.115h23.283v97.119h36.339v31.729h-59.622V1181.115z"/>
		<path fill="#FE0027" d="M436.398,1181.115h62.398v27.51h-39.063v20.479h36.236v26.279h-36.236v25.4h40.194v29.18h-63.529V1181.115
			z"/>
		<path fill="#FE0027" d="M533.263,1181.115h30.621l11.809,78.398l11.724-78.398h30.603v128.848h-19.069v-98.262l-14.693,98.262
			h-17.26l-14.666-98.262v98.262h-19.069V1181.115z"/>
		<path fill="#FE0027" d="M650.997,1245.627c0-21.035,3.426-37.411,10.279-49.131c6.853-11.719,16.396-17.578,28.629-17.578
			c12.542,0,22.204,5.757,28.989,17.271c6.784,11.514,10.177,27.642,10.177,48.384c0,15.06-1.483,27.408-4.446,37.046
			c-2.965,9.64-7.247,17.139-12.85,22.5s-12.584,8.042-20.945,8.042c-8.498,0-15.531-2.314-21.099-6.943
			c-5.568-4.628-10.083-11.953-13.544-21.973S650.997,1260.687,650.997,1245.627z M674.28,1245.803
			c0,13.008,1.413,22.354,4.24,28.037c2.827,5.684,6.673,8.525,11.539,8.525c5.003,0,8.874-2.782,11.616-8.35
			c2.74-5.566,4.111-15.557,4.111-29.971c0-12.129-1.431-20.99-4.291-26.587c-2.861-5.595-6.742-8.394-11.643-8.394
			c-4.694,0-8.463,2.843-11.307,8.525C675.701,1223.273,674.28,1232.678,674.28,1245.803z"/>
		<path fill="#FE0027" d="M762.82,1181.115h21.74l28.373,71.285v-71.285h21.947v128.848h-21.947l-28.219-70.746v70.746H762.82
			V1181.115z"/>
	</g>
</g>
<g id="Layer_7">
	<rect x="41.877" y="65.397" fill="#FE0027" width="1116.594" height="570.754"/>
	<rect x="41.877" y="886.611" fill="#FE0027" width="1116.594" height="256.868"/>
</g>
<g id="Layer_6">
</g>
<g id="Layer_5">
	<g>
		<path fill="#FFFFFF" d="M464.712,1521.594c0.533-0.05,0.866-0.155,0.998-0.316s0.198-0.529,0.198-1.105v-6.063
			c0-0.487-0.074-0.809-0.222-0.964s-0.473-0.253-0.974-0.294v-0.26h3.691c1.185,0,2.092,0.23,2.721,0.69s0.943,1.066,0.943,1.818
			c0,0.952-0.349,1.643-1.046,2.071s-1.57,0.643-2.618,0.643c-0.15,0-0.343-0.003-0.578-0.011c-0.235-0.006-0.409-0.01-0.523-0.01
			v2.543c0,0.525,0.081,0.856,0.243,0.993c0.162,0.136,0.523,0.224,1.083,0.265v0.26h-3.917V1521.594z M469.436,1513.37
			c-0.396-0.173-0.898-0.26-1.504-0.26c-0.287,0-0.464,0.028-0.53,0.085c-0.066,0.058-0.099,0.184-0.099,0.38v3.65
			c0.25,0.022,0.415,0.036,0.492,0.041s0.153,0.007,0.226,0.007c0.643,0,1.148-0.091,1.518-0.273
			c0.67-0.333,1.005-0.955,1.005-1.866C470.543,1514.277,470.174,1513.689,469.436,1513.37z"/>
		<path fill="#FFFFFF" d="M473.777,1518.839c0.419-0.273,1.255-0.645,2.509-1.114v-0.581c0-0.465-0.045-0.788-0.137-0.971
			c-0.155-0.306-0.476-0.458-0.964-0.458c-0.232,0-0.454,0.06-0.663,0.178c-0.209,0.123-0.314,0.292-0.314,0.506
			c0,0.055,0.011,0.146,0.034,0.277c0.023,0.129,0.034,0.213,0.034,0.249c0,0.255-0.084,0.433-0.253,0.533
			c-0.096,0.06-0.209,0.089-0.342,0.089c-0.205,0-0.362-0.067-0.472-0.201c-0.109-0.135-0.164-0.284-0.164-0.448
			c0-0.319,0.197-0.653,0.591-1.001c0.394-0.35,0.972-0.523,1.733-0.523c0.884,0,1.483,0.287,1.798,0.861
			c0.168,0.314,0.253,0.772,0.253,1.374v2.741c0,0.265,0.018,0.446,0.055,0.547c0.059,0.178,0.182,0.267,0.369,0.267
			c0.105,0,0.191-0.016,0.26-0.048s0.187-0.109,0.355-0.232v0.355c-0.146,0.178-0.303,0.323-0.472,0.438
			c-0.255,0.173-0.515,0.26-0.779,0.26c-0.31,0-0.534-0.101-0.673-0.301s-0.215-0.439-0.229-0.718
			c-0.346,0.301-0.643,0.524-0.889,0.67c-0.415,0.246-0.809,0.369-1.183,0.369c-0.392,0-0.731-0.138-1.019-0.413
			c-0.287-0.276-0.431-0.626-0.431-1.05C472.786,1519.832,473.116,1519.281,473.777,1518.839z M476.286,1518.066
			c-0.524,0.173-0.957,0.364-1.299,0.574c-0.656,0.405-0.984,0.866-0.984,1.381c0,0.415,0.137,0.72,0.41,0.916
			c0.178,0.128,0.376,0.191,0.595,0.191c0.301,0,0.589-0.084,0.865-0.253s0.414-0.383,0.414-0.643V1518.066z"/>
		<path fill="#FFFFFF" d="M478.76,1521.662c0.488-0.046,0.795-0.129,0.923-0.25c0.127-0.12,0.191-0.447,0.191-0.98v-3.261
			c0-0.296-0.021-0.501-0.062-0.615c-0.068-0.187-0.212-0.28-0.431-0.28c-0.05,0-0.099,0.005-0.147,0.014s-0.186,0.046-0.414,0.109
			v-0.212l0.294-0.096c0.797-0.26,1.354-0.456,1.668-0.588c0.127-0.055,0.209-0.082,0.246-0.082
			c0.009,0.032,0.014,0.066,0.014,0.103v4.908c0,0.52,0.062,0.846,0.188,0.978s0.409,0.217,0.851,0.253v0.191h-3.322V1521.662z
			 M479.847,1512.521c0.137-0.141,0.305-0.211,0.506-0.211c0.196,0,0.363,0.069,0.502,0.208c0.139,0.138,0.208,0.307,0.208,0.507
			c0,0.194-0.069,0.361-0.208,0.5c-0.139,0.138-0.307,0.207-0.502,0.207c-0.201,0-0.369-0.069-0.506-0.207
			c-0.137-0.139-0.205-0.306-0.205-0.5C479.642,1512.83,479.71,1512.662,479.847,1512.521z"/>
		<path fill="#FFFFFF" d="M486.608,1515.612c0.182,0.096,0.358,0.228,0.526,0.396v-2.174c0-0.278-0.031-0.47-0.092-0.574
			s-0.208-0.157-0.441-0.157c-0.055,0-0.103,0.002-0.144,0.007s-0.132,0.014-0.273,0.027v-0.226l0.561-0.144
			c0.205-0.055,0.41-0.111,0.615-0.171s0.385-0.116,0.54-0.171c0.073-0.022,0.194-0.066,0.362-0.13l0.041,0.014l-0.014,0.718
			c-0.004,0.26-0.009,0.527-0.014,0.804c-0.004,0.275-0.007,0.548-0.007,0.816l-0.014,5.585c0,0.296,0.037,0.504,0.109,0.622
			s0.267,0.178,0.581,0.178c0.05,0,0.1-0.001,0.15-0.004c0.05-0.002,0.1-0.008,0.15-0.017v0.226
			c-0.027,0.009-0.358,0.123-0.991,0.342l-1.073,0.403l-0.048-0.062v-0.841c-0.255,0.278-0.476,0.477-0.663,0.595
			c-0.333,0.205-0.718,0.308-1.155,0.308c-0.775,0-1.402-0.3-1.883-0.899c-0.481-0.599-0.721-1.293-0.721-2.081
			c0-0.989,0.288-1.838,0.865-2.546c0.577-0.709,1.282-1.063,2.116-1.063C486.024,1515.394,486.33,1515.467,486.608,1515.612z
			 M486.806,1520.931c0.219-0.21,0.328-0.408,0.328-0.595v-2.933c0-0.593-0.158-1.011-0.475-1.255
			c-0.317-0.243-0.625-0.365-0.926-0.365c-0.574,0-1.021,0.254-1.34,0.762c-0.319,0.509-0.479,1.134-0.479,1.877
			c0,0.733,0.17,1.388,0.509,1.962s0.847,0.861,1.521,0.861C486.3,1521.245,486.587,1521.141,486.806,1520.931z"/>
		<path fill="#FFFFFF" d="M493.15,1521.662c0.483-0.022,0.801-0.113,0.954-0.27c0.153-0.158,0.229-0.489,0.229-0.995v-4.389h-1.169
			v-0.458h1.169c0-0.72,0.098-1.328,0.294-1.825c0.375-0.952,1.062-1.429,2.062-1.429c0.401,0,0.761,0.08,1.078,0.239
			s0.476,0.374,0.476,0.643c0,0.15-0.055,0.285-0.163,0.403c-0.109,0.118-0.241,0.178-0.395,0.178c-0.132,0-0.245-0.04-0.34-0.119
			c-0.095-0.08-0.208-0.221-0.34-0.421l-0.116-0.178c-0.063-0.096-0.139-0.177-0.225-0.243c-0.086-0.065-0.206-0.099-0.36-0.099
			c-0.345,0-0.578,0.171-0.701,0.513c-0.068,0.183-0.102,0.422-0.102,0.718v1.62h1.702v0.458h-1.702v4.389
			c0,0.515,0.069,0.845,0.208,0.987c0.139,0.145,0.502,0.236,1.09,0.277v0.191h-3.65V1521.662z"/>
		<path fill="#FFFFFF" d="M498.759,1516.381c0.577-0.626,1.318-0.939,2.225-0.939c0.902,0,1.65,0.296,2.242,0.889
			s0.889,1.381,0.889,2.365c0,0.907-0.287,1.695-0.861,2.365s-1.317,1.005-2.229,1.005c-0.875,0-1.616-0.321-2.222-0.964
			s-0.909-1.449-0.909-2.42C497.894,1517.774,498.182,1517.008,498.759,1516.381z M499.851,1516.207
			c-0.457,0.415-0.685,1.13-0.685,2.146c0,0.812,0.184,1.567,0.551,2.27s0.878,1.053,1.531,1.053c0.511,0,0.905-0.234,1.181-0.704
			c0.276-0.47,0.415-1.085,0.415-1.846c0-0.788-0.176-1.531-0.527-2.229s-0.861-1.046-1.527-1.046
			C500.428,1515.852,500.115,1515.97,499.851,1516.207z"/>
		<path fill="#FFFFFF" d="M504.6,1521.628c0.419-0.036,0.697-0.11,0.834-0.222c0.137-0.112,0.205-0.351,0.205-0.715v-3.083
			c0-0.451-0.042-0.773-0.126-0.968c-0.084-0.193-0.238-0.29-0.461-0.29c-0.045,0-0.106,0.006-0.181,0.017
			c-0.075,0.012-0.154,0.026-0.236,0.045v-0.226c0.259-0.091,0.524-0.185,0.797-0.28c0.272-0.096,0.461-0.164,0.565-0.205
			c0.227-0.087,0.461-0.185,0.702-0.294c0.032,0,0.051,0.012,0.058,0.034s0.01,0.07,0.01,0.144v1.121
			c0.292-0.405,0.575-0.723,0.847-0.95s0.554-0.342,0.847-0.342c0.233,0,0.422,0.069,0.569,0.209
			c0.146,0.139,0.219,0.312,0.219,0.522c0,0.187-0.056,0.344-0.167,0.472s-0.252,0.191-0.42,0.191c-0.173,0-0.348-0.08-0.523-0.239
			s-0.313-0.239-0.414-0.239c-0.16,0-0.355,0.129-0.588,0.387c-0.232,0.257-0.349,0.522-0.349,0.796v3.083
			c0,0.392,0.091,0.664,0.273,0.816c0.182,0.153,0.485,0.225,0.909,0.216v0.226h-3.37V1521.628z"/>
		<path fill="#FFFFFF" d="M512.749,1513.158v-0.232c0.521-0.118,0.99-0.251,1.406-0.396s0.64-0.219,0.672-0.219
			c0.009,0.027,0.014,0.055,0.014,0.082v4.163c0.118-0.219,0.296-0.427,0.532-0.622c0.419-0.342,0.901-0.513,1.447-0.513
			c0.668,0,1.24,0.282,1.713,0.848s0.71,1.299,0.71,2.201c0,0.966-0.308,1.793-0.923,2.481s-1.424,1.032-2.427,1.032
			c-0.506,0-1.002-0.101-1.49-0.301s-0.731-0.401-0.731-0.602v-7.226c0-0.265-0.037-0.452-0.109-0.564
			c-0.073-0.111-0.242-0.167-0.506-0.167L512.749,1513.158z M515.351,1521.358c0.313,0.103,0.588,0.153,0.824,0.153
			c0.635,0,1.106-0.239,1.413-0.717s0.459-1.056,0.459-1.734c0-0.678-0.143-1.305-0.429-1.881c-0.286-0.575-0.749-0.863-1.389-0.863
			c-0.322,0-0.638,0.099-0.946,0.297s-0.463,0.449-0.463,0.755v3.481C514.861,1521.086,515.038,1521.256,515.351,1521.358z"/>
		<path fill="#FFFFFF" d="M519.892,1515.571h2.885v0.191c-0.228,0.005-0.396,0.025-0.506,0.062c-0.209,0.062-0.314,0.18-0.314,0.357
			c0,0.064,0.011,0.131,0.034,0.199c0.023,0.067,0.064,0.169,0.123,0.304l1.582,3.421l1.303-3.448
			c0.014-0.037,0.035-0.121,0.065-0.252s0.044-0.219,0.044-0.266c0-0.121-0.041-0.21-0.123-0.266
			c-0.082-0.057-0.187-0.089-0.314-0.099l-0.212-0.014v-0.191h1.88v0.191c-0.187,0.023-0.327,0.09-0.42,0.197
			c-0.093,0.108-0.174,0.259-0.243,0.452l-2.153,5.701c-0.374,0.984-0.731,1.697-1.073,2.14s-0.775,0.663-1.299,0.663
			c-0.255,0-0.495-0.063-0.718-0.191s-0.335-0.33-0.335-0.608c0-0.183,0.066-0.331,0.199-0.448c0.133-0.115,0.3-0.174,0.503-0.174
			c0.117,0,0.292,0.043,0.523,0.13c0.231,0.087,0.397,0.13,0.496,0.13c0.252,0,0.518-0.31,0.797-0.928
			c0.279-0.619,0.418-1.028,0.418-1.227c0-0.04-0.006-0.09-0.02-0.148s-0.028-0.11-0.045-0.155l-2.154-4.658
			c-0.155-0.337-0.291-0.56-0.407-0.667c-0.116-0.106-0.288-0.176-0.516-0.208V1515.571z"/>
		<path fill="#FFFFFF" d="M531.103,1519.037c0.237,0.629,0.514,1.13,0.833,1.504c0.555,0.651,1.245,0.978,2.068,0.978
			c0.446,0,0.832-0.142,1.157-0.424c0.325-0.282,0.488-0.677,0.488-1.183c0-0.456-0.164-0.853-0.491-1.189
			c-0.214-0.214-0.664-0.535-1.351-0.964l-1.194-0.745c-0.359-0.228-0.646-0.458-0.86-0.69c-0.396-0.442-0.595-0.93-0.595-1.463
			c0-0.706,0.235-1.294,0.704-1.764s1.091-0.704,1.866-0.704c0.319,0,0.703,0.078,1.152,0.236c0.449,0.156,0.705,0.235,0.769,0.235
			c0.173,0,0.293-0.041,0.359-0.123s0.117-0.198,0.154-0.349h0.287l0.308,2.98h-0.335c-0.228-0.897-0.594-1.524-1.097-1.88
			s-1.001-0.533-1.494-0.533c-0.383,0-0.717,0.112-1.001,0.339c-0.285,0.225-0.427,0.538-0.427,0.939
			c0,0.36,0.109,0.668,0.328,0.923c0.218,0.26,0.557,0.531,1.017,0.813l1.229,0.759c0.77,0.474,1.312,0.909,1.628,1.306
			c0.311,0.401,0.467,0.875,0.467,1.422c0,0.733-0.277,1.347-0.831,1.839s-1.261,0.738-2.123,0.738
			c-0.433,0-0.885-0.082-1.357-0.246s-0.742-0.246-0.81-0.246c-0.164,0-0.274,0.05-0.332,0.15s-0.095,0.207-0.113,0.321h-0.308
			l-0.417-2.98H531.103z"/>
		<path fill="#FFFFFF" d="M540.154,1515.523v4.375c0,0.31,0.043,0.559,0.13,0.745c0.168,0.347,0.479,0.52,0.93,0.52
			c0.31,0,0.613-0.103,0.909-0.308c0.168-0.114,0.339-0.271,0.513-0.472v-3.746c0-0.351-0.068-0.581-0.205-0.69
			s-0.41-0.176-0.82-0.198v-0.226h2.208v4.812c0,0.31,0.056,0.523,0.167,0.639c0.112,0.117,0.348,0.168,0.708,0.154v0.191
			c-0.25,0.068-0.435,0.119-0.554,0.154c-0.119,0.033-0.317,0.097-0.595,0.188c-0.119,0.041-0.378,0.139-0.779,0.294
			c-0.023,0-0.037-0.011-0.041-0.03c-0.004-0.021-0.007-0.045-0.007-0.072v-1.101c-0.31,0.369-0.592,0.643-0.848,0.82
			c-0.387,0.273-0.797,0.41-1.23,0.41c-0.396,0-0.77-0.142-1.121-0.425c-0.355-0.278-0.533-0.746-0.533-1.402v-3.553
			c0-0.361-0.078-0.604-0.232-0.726c-0.1-0.077-0.314-0.132-0.643-0.163v-0.191H540.154z"/>
		<path fill="#FFFFFF" d="M545.055,1524.677c0.425-0.027,0.696-0.118,0.811-0.273c0.116-0.155,0.173-0.398,0.173-0.731v-6.562
			c0-0.347-0.042-0.568-0.126-0.666c-0.084-0.099-0.243-0.147-0.475-0.147c-0.05,0-0.097,0.002-0.14,0.007s-0.106,0.014-0.188,0.027
			v-0.226l0.649-0.212c0.023-0.005,0.481-0.162,1.374-0.472c0.023,0,0.04,0.011,0.051,0.03c0.011,0.021,0.017,0.045,0.017,0.072
			v0.923c0.301-0.301,0.565-0.524,0.793-0.67c0.41-0.255,0.832-0.383,1.265-0.383c0.629,0,1.17,0.268,1.624,0.803
			c0.454,0.534,0.68,1.267,0.68,2.195c0,0.91-0.272,1.736-0.817,2.479s-1.229,1.113-2.054,1.113c-0.255,0-0.476-0.032-0.663-0.096
			c-0.292-0.096-0.561-0.271-0.807-0.526v2.242c0,0.46,0.075,0.743,0.226,0.848s0.479,0.176,0.984,0.212v0.239h-3.377V1524.677z
			 M547.752,1521.283c0.235,0.152,0.512,0.229,0.831,0.229c0.492,0,0.913-0.244,1.261-0.734c0.349-0.488,0.523-1.17,0.523-2.044
			c0-0.838-0.181-1.464-0.543-1.878s-0.783-0.621-1.261-0.621c-0.337,0-0.645,0.104-0.923,0.311s-0.417,0.411-0.417,0.611v3.434
			C547.341,1520.899,547.517,1521.131,547.752,1521.283z"/>
		<path fill="#FFFFFF" d="M552.055,1524.677c0.425-0.027,0.696-0.118,0.811-0.273c0.116-0.155,0.173-0.398,0.173-0.731v-6.562
			c0-0.347-0.042-0.568-0.126-0.666c-0.084-0.099-0.243-0.147-0.475-0.147c-0.05,0-0.097,0.002-0.14,0.007s-0.106,0.014-0.188,0.027
			v-0.226l0.649-0.212c0.023-0.005,0.481-0.162,1.374-0.472c0.023,0,0.04,0.011,0.051,0.03c0.011,0.021,0.017,0.045,0.017,0.072
			v0.923c0.301-0.301,0.565-0.524,0.793-0.67c0.41-0.255,0.832-0.383,1.265-0.383c0.629,0,1.17,0.268,1.624,0.803
			c0.454,0.534,0.68,1.267,0.68,2.195c0,0.91-0.272,1.736-0.817,2.479s-1.229,1.113-2.054,1.113c-0.255,0-0.476-0.032-0.663-0.096
			c-0.292-0.096-0.561-0.271-0.807-0.526v2.242c0,0.46,0.075,0.743,0.226,0.848s0.479,0.176,0.984,0.212v0.239h-3.377V1524.677z
			 M554.752,1521.283c0.235,0.152,0.512,0.229,0.831,0.229c0.492,0,0.913-0.244,1.261-0.734c0.349-0.488,0.523-1.17,0.523-2.044
			c0-0.838-0.181-1.464-0.543-1.878s-0.783-0.621-1.261-0.621c-0.337,0-0.645,0.104-0.923,0.311s-0.417,0.411-0.417,0.611v3.434
			C554.341,1520.899,554.517,1521.131,554.752,1521.283z"/>
		<path fill="#FFFFFF" d="M560.207,1516.381c0.577-0.626,1.318-0.939,2.225-0.939c0.902,0,1.65,0.296,2.242,0.889
			s0.889,1.381,0.889,2.365c0,0.907-0.287,1.695-0.861,2.365s-1.317,1.005-2.229,1.005c-0.875,0-1.616-0.321-2.222-0.964
			s-0.909-1.449-0.909-2.42C559.342,1517.774,559.63,1517.008,560.207,1516.381z M561.299,1516.207
			c-0.457,0.415-0.685,1.13-0.685,2.146c0,0.812,0.184,1.567,0.551,2.27s0.878,1.053,1.531,1.053c0.511,0,0.905-0.234,1.181-0.704
			c0.276-0.47,0.415-1.085,0.415-1.846c0-0.788-0.176-1.531-0.527-2.229s-0.861-1.046-1.527-1.046
			C561.876,1515.852,561.563,1515.97,561.299,1516.207z"/>
		<path fill="#FFFFFF" d="M566.048,1521.628c0.419-0.036,0.697-0.11,0.834-0.222c0.137-0.112,0.205-0.351,0.205-0.715v-3.083
			c0-0.451-0.042-0.773-0.126-0.968c-0.084-0.193-0.238-0.29-0.461-0.29c-0.045,0-0.106,0.006-0.181,0.017
			c-0.075,0.012-0.154,0.026-0.236,0.045v-0.226c0.259-0.091,0.524-0.185,0.797-0.28c0.272-0.096,0.461-0.164,0.565-0.205
			c0.227-0.087,0.461-0.185,0.702-0.294c0.032,0,0.051,0.012,0.058,0.034s0.01,0.07,0.01,0.144v1.121
			c0.292-0.405,0.575-0.723,0.847-0.95s0.554-0.342,0.847-0.342c0.233,0,0.422,0.069,0.569,0.209
			c0.146,0.139,0.219,0.312,0.219,0.522c0,0.187-0.056,0.344-0.167,0.472s-0.252,0.191-0.42,0.191c-0.173,0-0.348-0.08-0.523-0.239
			s-0.313-0.239-0.414-0.239c-0.16,0-0.355,0.129-0.588,0.387c-0.232,0.257-0.349,0.522-0.349,0.796v3.083
			c0,0.392,0.091,0.664,0.273,0.816c0.182,0.153,0.485,0.225,0.909,0.216v0.226h-3.37V1521.628z"/>
		<path fill="#FFFFFF" d="M574.21,1515.551v0.492h-1.395l-0.014,3.938c0,0.347,0.03,0.608,0.089,0.786
			c0.109,0.314,0.324,0.472,0.643,0.472c0.164,0,0.307-0.039,0.427-0.116s0.259-0.2,0.414-0.369l0.178,0.15l-0.15,0.205
			c-0.237,0.319-0.488,0.545-0.752,0.677s-0.52,0.198-0.766,0.198c-0.538,0-0.902-0.239-1.094-0.718
			c-0.105-0.26-0.157-0.62-0.157-1.08v-4.143h-0.745c-0.023-0.014-0.04-0.027-0.051-0.041s-0.017-0.032-0.017-0.055
			c0-0.046,0.01-0.081,0.031-0.105c0.021-0.025,0.085-0.084,0.195-0.175c0.314-0.26,0.541-0.471,0.68-0.632
			c0.139-0.162,0.466-0.59,0.981-1.282c0.059,0,0.095,0.005,0.106,0.014s0.017,0.043,0.017,0.103v1.682H574.21z"/>
		<path fill="#FFFFFF" d="M579.433,1516.107c0.483,0.445,0.725,1.075,0.725,1.891h-4.341c0.045,1.055,0.285,1.823,0.718,2.306
			c0.433,0.481,0.946,0.723,1.538,0.723c0.479,0,0.882-0.125,1.21-0.375s0.631-0.604,0.909-1.064l0.239,0.082
			c-0.187,0.58-0.537,1.116-1.049,1.609s-1.141,0.739-1.883,0.739c-0.857,0-1.519-0.323-1.986-0.971s-0.701-1.393-0.701-2.235
			c0-0.916,0.271-1.707,0.813-2.372s1.249-0.998,2.119-0.998C578.387,1515.441,578.95,1515.664,579.433,1516.107z M576.159,1516.631
			c-0.146,0.246-0.25,0.556-0.314,0.93h2.885c-0.05-0.456-0.137-0.795-0.26-1.019c-0.223-0.401-0.597-0.602-1.121-0.602
			C576.829,1515.94,576.432,1516.171,576.159,1516.631z"/>
		<path fill="#FFFFFF" d="M580.814,1521.628c0.419-0.036,0.697-0.11,0.834-0.222c0.137-0.112,0.205-0.351,0.205-0.715v-3.083
			c0-0.451-0.042-0.773-0.126-0.968c-0.084-0.193-0.238-0.29-0.461-0.29c-0.045,0-0.106,0.006-0.181,0.017
			c-0.075,0.012-0.154,0.026-0.236,0.045v-0.226c0.259-0.091,0.524-0.185,0.797-0.28c0.272-0.096,0.461-0.164,0.565-0.205
			c0.227-0.087,0.461-0.185,0.702-0.294c0.032,0,0.051,0.012,0.058,0.034s0.01,0.07,0.01,0.144v1.121
			c0.292-0.405,0.575-0.723,0.847-0.95s0.554-0.342,0.847-0.342c0.233,0,0.422,0.069,0.569,0.209
			c0.146,0.139,0.219,0.312,0.219,0.522c0,0.187-0.056,0.344-0.167,0.472s-0.252,0.191-0.42,0.191c-0.173,0-0.348-0.08-0.523-0.239
			s-0.313-0.239-0.414-0.239c-0.16,0-0.355,0.129-0.588,0.387c-0.232,0.257-0.349,0.522-0.349,0.796v3.083
			c0,0.392,0.091,0.664,0.273,0.816c0.182,0.153,0.485,0.225,0.909,0.216v0.226h-3.37V1521.628z"/>
		<path fill="#FFFFFF" d="M586.146,1519.7h0.226c0.104,0.52,0.246,0.918,0.423,1.196c0.318,0.511,0.784,0.766,1.398,0.766
			c0.341,0,0.61-0.095,0.808-0.283c0.198-0.189,0.297-0.435,0.297-0.735c0-0.191-0.057-0.376-0.171-0.554s-0.314-0.351-0.602-0.52
			l-0.765-0.438c-0.561-0.301-0.973-0.604-1.238-0.909c-0.264-0.306-0.396-0.665-0.396-1.08c0-0.511,0.182-0.93,0.547-1.258
			s0.823-0.492,1.374-0.492c0.242,0,0.507,0.046,0.796,0.137s0.452,0.137,0.489,0.137c0.082,0,0.141-0.012,0.178-0.034
			s0.068-0.06,0.096-0.109h0.164l0.048,1.907h-0.212c-0.091-0.442-0.214-0.786-0.369-1.032c-0.283-0.456-0.69-0.684-1.224-0.684
			c-0.319,0-0.57,0.098-0.752,0.294s-0.273,0.426-0.273,0.69c0,0.419,0.314,0.793,0.943,1.121l0.902,0.485
			c0.971,0.528,1.456,1.144,1.456,1.846c0,0.538-0.201,0.978-0.604,1.319s-0.929,0.513-1.58,0.513c-0.273,0-0.583-0.046-0.928-0.137
			s-0.55-0.137-0.614-0.137c-0.055,0-0.103,0.02-0.143,0.058c-0.041,0.039-0.073,0.086-0.096,0.141h-0.178V1519.7z"/>
		<path fill="#FFFFFF" d="M595.583,1516.381c0.577-0.626,1.318-0.939,2.225-0.939c0.902,0,1.65,0.296,2.242,0.889
			s0.889,1.381,0.889,2.365c0,0.907-0.287,1.695-0.861,2.365s-1.317,1.005-2.229,1.005c-0.875,0-1.616-0.321-2.222-0.964
			s-0.909-1.449-0.909-2.42C594.718,1517.774,595.006,1517.008,595.583,1516.381z M596.675,1516.207
			c-0.457,0.415-0.685,1.13-0.685,2.146c0,0.812,0.184,1.567,0.551,2.27s0.878,1.053,1.531,1.053c0.511,0,0.905-0.234,1.181-0.704
			c0.276-0.47,0.415-1.085,0.415-1.846c0-0.788-0.176-1.531-0.527-2.229s-0.861-1.046-1.527-1.046
			C597.252,1515.852,596.939,1515.97,596.675,1516.207z"/>
		<path fill="#FFFFFF" d="M601.637,1521.662c0.482-0.022,0.801-0.113,0.953-0.27c0.152-0.158,0.229-0.489,0.229-0.995v-4.389h-1.168
			v-0.458h1.168c0-0.72,0.099-1.328,0.295-1.825c0.375-0.952,1.062-1.429,2.062-1.429c0.401,0,0.761,0.08,1.078,0.239
			s0.476,0.374,0.476,0.643c0,0.15-0.055,0.285-0.162,0.403c-0.109,0.118-0.241,0.178-0.395,0.178c-0.133,0-0.246-0.04-0.341-0.119
			c-0.095-0.08-0.208-0.221-0.34-0.421l-0.116-0.178c-0.062-0.096-0.139-0.177-0.225-0.243c-0.086-0.065-0.205-0.099-0.359-0.099
			c-0.346,0-0.578,0.171-0.701,0.513c-0.068,0.183-0.102,0.422-0.102,0.718v1.62h1.701v0.458h-1.701v4.389
			c0,0.515,0.068,0.845,0.208,0.987c0.14,0.145,0.503,0.236,1.091,0.277v0.191h-3.65V1521.662z"/>
		<path fill="#FFFFFF" d="M609.682,1521.594c0.516-0.055,0.85-0.146,1.002-0.275s0.229-0.457,0.229-0.982v-6.228
			c0-0.497-0.074-0.821-0.225-0.974c-0.15-0.153-0.486-0.248-1.006-0.284v-0.26h7.438l0.049,2.003h-0.355
			c-0.119-0.617-0.297-1.016-0.533-1.197c-0.237-0.182-0.766-0.272-1.586-0.272h-1.906c-0.206,0-0.332,0.033-0.381,0.099
			c-0.048,0.066-0.072,0.19-0.072,0.373v3.124h2.16c0.598,0,0.979-0.088,1.143-0.266c0.164-0.177,0.296-0.534,0.396-1.074h0.328
			v3.233h-0.328c-0.105-0.542-0.24-0.901-0.404-1.076c-0.164-0.176-0.542-0.264-1.135-0.264h-2.16v3.466
			c0,0.278,0.088,0.442,0.264,0.492s0.702,0.075,1.578,0.075c0.949,0,1.65-0.104,2.102-0.311c0.452-0.208,0.858-0.71,1.219-1.508
			h0.389l-0.635,2.365h-7.568V1521.594z"/>
		<path fill="#FFFFFF" d="M619.372,1518.825c-0.229-0.351-0.345-0.745-0.345-1.183c0-0.533,0.211-1.039,0.635-1.518
			s1.023-0.718,1.799-0.718c0.332,0,0.699,0.079,1.1,0.235c0.401,0.158,0.787,0.236,1.156,0.236c0.096,0,0.24-0.004,0.434-0.01
			c0.193-0.008,0.334-0.011,0.42-0.011h0.082v0.554h-1.182c0.082,0.191,0.146,0.357,0.191,0.499
			c0.077,0.265,0.115,0.515,0.115,0.752c0,0.52-0.215,0.997-0.646,1.433c-0.431,0.435-1.011,0.652-1.739,0.652
			c-0.114,0-0.319-0.021-0.615-0.062c-0.133,0-0.309,0.111-0.527,0.335s-0.328,0.405-0.328,0.547c0,0.146,0.16,0.253,0.48,0.321
			c0.209,0.046,0.441,0.068,0.697,0.068c1.174,0,1.97,0.066,2.39,0.198c0.688,0.214,1.034,0.675,1.034,1.381
			c0,0.72-0.402,1.294-1.207,1.723s-1.617,0.643-2.438,0.643c-0.747,0-1.34-0.151-1.777-0.455c-0.438-0.303-0.656-0.62-0.656-0.953
			c0-0.164,0.059-0.324,0.174-0.482c0.116-0.156,0.344-0.391,0.685-0.7l0.449-0.403l0.082-0.082
			c-0.208-0.082-0.364-0.162-0.468-0.239c-0.182-0.142-0.271-0.303-0.271-0.485c0-0.169,0.078-0.354,0.235-0.557
			c0.157-0.203,0.493-0.532,1.009-0.988C619.925,1519.42,619.602,1519.176,619.372,1518.825z M620.097,1523.911
			c0.431,0.146,0.924,0.219,1.479,0.219c0.757,0,1.372-0.131,1.846-0.394c0.475-0.262,0.711-0.584,0.711-0.967
			c0-0.306-0.191-0.508-0.574-0.608c-0.238-0.06-0.688-0.094-1.35-0.103c-0.17-0.005-0.348-0.01-0.535-0.018
			c-0.188-0.006-0.357-0.015-0.514-0.023c-0.1-0.005-0.262-0.022-0.486-0.055c-0.223-0.032-0.391-0.06-0.5-0.082
			c-0.055,0-0.188,0.144-0.398,0.431c-0.217,0.292-0.324,0.561-0.324,0.807C619.451,1523.501,619.666,1523.766,620.097,1523.911z
			 M622.268,1519.215c0.273-0.219,0.41-0.6,0.41-1.142c0-0.433-0.111-0.921-0.332-1.463s-0.589-0.813-1.104-0.813
			c-0.447,0-0.755,0.212-0.924,0.636c-0.086,0.224-0.129,0.499-0.129,0.827c0,0.556,0.134,1.055,0.402,1.497
			c0.27,0.442,0.618,0.663,1.047,0.663C621.889,1519.42,622.099,1519.352,622.268,1519.215z"/>
		<path fill="#FFFFFF" d="M626.372,1518.825c-0.229-0.351-0.345-0.745-0.345-1.183c0-0.533,0.211-1.039,0.635-1.518
			s1.023-0.718,1.799-0.718c0.332,0,0.699,0.079,1.1,0.235c0.401,0.158,0.787,0.236,1.156,0.236c0.096,0,0.24-0.004,0.434-0.01
			c0.193-0.008,0.334-0.011,0.42-0.011h0.082v0.554h-1.182c0.082,0.191,0.146,0.357,0.191,0.499
			c0.077,0.265,0.115,0.515,0.115,0.752c0,0.52-0.215,0.997-0.646,1.433c-0.431,0.435-1.011,0.652-1.739,0.652
			c-0.114,0-0.319-0.021-0.615-0.062c-0.133,0-0.309,0.111-0.527,0.335s-0.328,0.405-0.328,0.547c0,0.146,0.16,0.253,0.48,0.321
			c0.209,0.046,0.441,0.068,0.697,0.068c1.174,0,1.97,0.066,2.39,0.198c0.688,0.214,1.034,0.675,1.034,1.381
			c0,0.72-0.402,1.294-1.207,1.723s-1.617,0.643-2.438,0.643c-0.747,0-1.34-0.151-1.777-0.455c-0.438-0.303-0.656-0.62-0.656-0.953
			c0-0.164,0.059-0.324,0.174-0.482c0.116-0.156,0.344-0.391,0.685-0.7l0.449-0.403l0.082-0.082
			c-0.208-0.082-0.364-0.162-0.468-0.239c-0.182-0.142-0.271-0.303-0.271-0.485c0-0.169,0.078-0.354,0.235-0.557
			c0.157-0.203,0.493-0.532,1.009-0.988C626.925,1519.42,626.602,1519.176,626.372,1518.825z M627.097,1523.911
			c0.431,0.146,0.924,0.219,1.479,0.219c0.757,0,1.372-0.131,1.846-0.394c0.475-0.262,0.711-0.584,0.711-0.967
			c0-0.306-0.191-0.508-0.574-0.608c-0.238-0.06-0.688-0.094-1.35-0.103c-0.17-0.005-0.348-0.01-0.535-0.018
			c-0.188-0.006-0.357-0.015-0.514-0.023c-0.1-0.005-0.262-0.022-0.486-0.055c-0.223-0.032-0.391-0.06-0.5-0.082
			c-0.055,0-0.188,0.144-0.398,0.431c-0.217,0.292-0.324,0.561-0.324,0.807C626.451,1523.501,626.666,1523.766,627.097,1523.911z
			 M629.268,1519.215c0.273-0.219,0.41-0.6,0.41-1.142c0-0.433-0.111-0.921-0.332-1.463s-0.589-0.813-1.104-0.813
			c-0.447,0-0.755,0.212-0.924,0.636c-0.086,0.224-0.129,0.499-0.129,0.827c0,0.556,0.134,1.055,0.402,1.497
			c0.27,0.442,0.618,0.663,1.047,0.663C628.889,1519.42,629.099,1519.352,629.268,1519.215z"/>
		<path fill="#FFFFFF" d="M632.145,1524.677c0.426-0.027,0.696-0.118,0.812-0.273c0.116-0.155,0.173-0.398,0.173-0.731v-6.562
			c0-0.347-0.041-0.568-0.126-0.666c-0.085-0.099-0.243-0.147-0.476-0.147c-0.05,0-0.096,0.002-0.14,0.007s-0.106,0.014-0.188,0.027
			v-0.226l0.65-0.212c0.022-0.005,0.48-0.162,1.373-0.472c0.023,0,0.041,0.011,0.052,0.03c0.011,0.021,0.017,0.045,0.017,0.072
			v0.923c0.301-0.301,0.565-0.524,0.793-0.67c0.41-0.255,0.832-0.383,1.266-0.383c0.629,0,1.17,0.268,1.623,0.803
			c0.453,0.534,0.68,1.267,0.68,2.195c0,0.91-0.271,1.736-0.816,2.479s-1.229,1.113-2.055,1.113c-0.255,0-0.476-0.032-0.662-0.096
			c-0.292-0.096-0.561-0.271-0.807-0.526v2.242c0,0.46,0.074,0.743,0.225,0.848s0.479,0.176,0.984,0.212v0.239h-3.377V1524.677z
			 M634.842,1521.283c0.234,0.152,0.512,0.229,0.83,0.229c0.492,0,0.913-0.244,1.262-0.734c0.349-0.488,0.523-1.17,0.523-2.044
			c0-0.838-0.182-1.464-0.544-1.878s-0.782-0.621-1.261-0.621c-0.338,0-0.646,0.104-0.924,0.311
			c-0.277,0.207-0.416,0.411-0.416,0.611v3.434C634.431,1520.899,634.607,1521.131,634.842,1521.283z"/>
		<path fill="#FFFFFF" d="M639.363,1521.662c0.424-0.041,0.711-0.127,0.861-0.256c0.15-0.131,0.227-0.385,0.227-0.763v-6.679
			c0-0.301-0.025-0.508-0.076-0.622c-0.091-0.191-0.275-0.287-0.553-0.287c-0.064,0-0.134,0.007-0.209,0.021
			s-0.17,0.034-0.283,0.062v-0.226c0.615-0.164,1.355-0.383,2.221-0.656c0.032,0,0.052,0.014,0.059,0.041s0.01,0.087,0.01,0.178
			v8.196c0,0.396,0.068,0.653,0.205,0.769c0.137,0.117,0.42,0.19,0.848,0.223v0.191h-3.309V1521.662z"/>
		<path fill="#FFFFFF" d="M644.471,1518.839c0.419-0.273,1.255-0.645,2.508-1.114v-0.581c0-0.465-0.045-0.788-0.137-0.971
			c-0.154-0.306-0.476-0.458-0.963-0.458c-0.232,0-0.454,0.06-0.664,0.178c-0.209,0.123-0.314,0.292-0.314,0.506
			c0,0.055,0.012,0.146,0.035,0.277c0.022,0.129,0.033,0.213,0.033,0.249c0,0.255-0.084,0.433-0.252,0.533
			c-0.096,0.06-0.21,0.089-0.342,0.089c-0.205,0-0.363-0.067-0.473-0.201c-0.109-0.135-0.164-0.284-0.164-0.448
			c0-0.319,0.197-0.653,0.592-1.001c0.395-0.35,0.972-0.523,1.732-0.523c0.885,0,1.484,0.287,1.799,0.861
			c0.168,0.314,0.252,0.772,0.252,1.374v2.741c0,0.265,0.019,0.446,0.055,0.547c0.06,0.178,0.183,0.267,0.369,0.267
			c0.105,0,0.191-0.016,0.26-0.048s0.188-0.109,0.355-0.232v0.355c-0.146,0.178-0.303,0.323-0.471,0.438
			c-0.256,0.173-0.516,0.26-0.779,0.26c-0.311,0-0.535-0.101-0.674-0.301s-0.215-0.439-0.229-0.718
			c-0.347,0.301-0.643,0.524-0.889,0.67c-0.415,0.246-0.81,0.369-1.184,0.369c-0.392,0-0.73-0.138-1.018-0.413
			c-0.287-0.276-0.432-0.626-0.432-1.05C643.479,1519.832,643.81,1519.281,644.471,1518.839z M646.979,1518.066
			c-0.523,0.173-0.957,0.364-1.299,0.574c-0.656,0.405-0.984,0.866-0.984,1.381c0,0.415,0.137,0.72,0.41,0.916
			c0.178,0.128,0.377,0.191,0.596,0.191c0.301,0,0.588-0.084,0.864-0.253s0.413-0.383,0.413-0.643V1518.066z"/>
		<path fill="#FFFFFF" d="M649.434,1521.662c0.323-0.041,0.55-0.122,0.68-0.242c0.13-0.121,0.195-0.392,0.195-0.811v-3.473
			c0-0.289-0.027-0.493-0.082-0.61c-0.087-0.172-0.265-0.258-0.533-0.258c-0.041,0-0.084,0.002-0.127,0.007s-0.097,0.012-0.16,0.021
			v-0.239c0.187-0.055,0.629-0.196,1.326-0.424l0.643-0.212c0.031,0,0.051,0.012,0.058,0.034s0.011,0.055,0.011,0.096v1.005
			c0.418-0.392,0.746-0.661,0.982-0.807c0.354-0.224,0.723-0.335,1.105-0.335c0.309,0,0.591,0.089,0.846,0.267
			c0.491,0.347,0.736,0.964,0.736,1.853v3.192c0,0.328,0.066,0.565,0.197,0.711s0.35,0.221,0.658,0.226v0.191h-2.92v-0.191
			c0.333-0.046,0.565-0.138,0.697-0.277c0.133-0.139,0.199-0.44,0.199-0.905v-2.919c0-0.392-0.073-0.717-0.219-0.975
			c-0.145-0.257-0.412-0.386-0.801-0.386c-0.268,0-0.54,0.091-0.816,0.273c-0.154,0.104-0.354,0.278-0.598,0.52v3.828
			c0,0.328,0.072,0.548,0.219,0.659c0.146,0.112,0.375,0.173,0.689,0.182v0.191h-2.986V1521.662z"/>
		<path fill="#FFFFFF" d="M659.742,1515.551v0.492h-1.395l-0.014,3.938c0,0.347,0.029,0.608,0.088,0.786
			c0.109,0.314,0.324,0.472,0.643,0.472c0.164,0,0.307-0.039,0.428-0.116s0.258-0.2,0.414-0.369l0.178,0.15l-0.15,0.205
			c-0.238,0.319-0.488,0.545-0.752,0.677c-0.266,0.132-0.52,0.198-0.766,0.198c-0.539,0-0.902-0.239-1.094-0.718
			c-0.105-0.26-0.158-0.62-0.158-1.08v-4.143h-0.744c-0.023-0.014-0.041-0.027-0.052-0.041s-0.017-0.032-0.017-0.055
			c0-0.046,0.01-0.081,0.03-0.105c0.021-0.025,0.085-0.084,0.194-0.175c0.314-0.26,0.541-0.471,0.68-0.632
			c0.141-0.162,0.467-0.59,0.982-1.282c0.059,0,0.094,0.005,0.105,0.014s0.018,0.043,0.018,0.103v1.682H659.742z"/>
		<path fill="#FFFFFF" d="M663.844,1521.662c0.482-0.022,0.801-0.113,0.953-0.27c0.152-0.158,0.229-0.489,0.229-0.995v-4.389h-1.168
			v-0.458h1.168c0-0.72,0.1-1.328,0.295-1.825c0.375-0.952,1.061-1.429,2.061-1.429c0.402,0,0.762,0.08,1.08,0.239
			c0.316,0.159,0.475,0.374,0.475,0.643c0,0.15-0.055,0.285-0.162,0.403c-0.109,0.118-0.24,0.178-0.395,0.178
			c-0.133,0-0.246-0.04-0.34-0.119c-0.096-0.08-0.209-0.221-0.342-0.421l-0.115-0.178c-0.062-0.096-0.139-0.177-0.225-0.243
			c-0.086-0.065-0.205-0.099-0.359-0.099c-0.346,0-0.578,0.171-0.701,0.513c-0.068,0.183-0.102,0.422-0.102,0.718v1.62h1.701v0.458
			h-1.701v4.389c0,0.515,0.068,0.845,0.209,0.987c0.139,0.145,0.502,0.236,1.09,0.277v0.191h-3.65V1521.662z"/>
		<path fill="#FFFFFF" d="M669.453,1516.381c0.576-0.626,1.316-0.939,2.225-0.939c0.902,0,1.648,0.296,2.242,0.889
			c0.592,0.593,0.889,1.381,0.889,2.365c0,0.907-0.287,1.695-0.861,2.365s-1.318,1.005-2.229,1.005
			c-0.875,0-1.615-0.321-2.223-0.964c-0.605-0.643-0.908-1.449-0.908-2.42C668.588,1517.774,668.875,1517.008,669.453,1516.381z
			 M670.543,1516.207c-0.455,0.415-0.684,1.13-0.684,2.146c0,0.812,0.184,1.567,0.551,2.27s0.877,1.053,1.531,1.053
			c0.512,0,0.904-0.234,1.182-0.704c0.275-0.47,0.414-1.085,0.414-1.846c0-0.788-0.176-1.531-0.527-2.229s-0.861-1.046-1.527-1.046
			C671.121,1515.852,670.809,1515.97,670.543,1516.207z"/>
		<path fill="#FFFFFF" d="M675.293,1521.628c0.42-0.036,0.697-0.11,0.834-0.222c0.137-0.112,0.205-0.351,0.205-0.715v-3.083
			c0-0.451-0.041-0.773-0.125-0.968c-0.086-0.193-0.238-0.29-0.463-0.29c-0.045,0-0.105,0.006-0.18,0.017
			c-0.076,0.012-0.154,0.026-0.236,0.045v-0.226c0.258-0.091,0.523-0.185,0.797-0.28s0.461-0.164,0.566-0.205
			c0.227-0.087,0.461-0.185,0.701-0.294c0.031,0,0.051,0.012,0.059,0.034c0.006,0.022,0.01,0.07,0.01,0.144v1.121
			c0.291-0.405,0.574-0.723,0.846-0.95s0.555-0.342,0.848-0.342c0.232,0,0.422,0.069,0.568,0.209
			c0.146,0.139,0.219,0.312,0.219,0.522c0,0.187-0.055,0.344-0.166,0.472c-0.113,0.128-0.252,0.191-0.422,0.191
			c-0.172,0-0.348-0.08-0.521-0.239c-0.176-0.159-0.314-0.239-0.414-0.239c-0.16,0-0.355,0.129-0.588,0.387
			c-0.232,0.257-0.35,0.522-0.35,0.796v3.083c0,0.392,0.092,0.664,0.273,0.816c0.184,0.153,0.486,0.225,0.91,0.216v0.226h-3.371
			V1521.628z"/>
		<path fill="#FFFFFF" d="M683.619,1521.594c0.533-0.05,0.867-0.155,0.998-0.316c0.133-0.161,0.199-0.529,0.199-1.105v-6.063
			c0-0.487-0.074-0.809-0.223-0.964s-0.473-0.253-0.975-0.294v-0.26h3.691c1.186,0,2.092,0.23,2.721,0.69s0.943,1.066,0.943,1.818
			c0,0.952-0.348,1.643-1.045,2.071s-1.57,0.643-2.619,0.643c-0.15,0-0.342-0.003-0.576-0.011c-0.236-0.006-0.41-0.01-0.523-0.01
			v2.543c0,0.525,0.08,0.856,0.242,0.993c0.162,0.136,0.523,0.224,1.084,0.265v0.26h-3.918V1521.594z M688.344,1513.37
			c-0.396-0.173-0.898-0.26-1.504-0.26c-0.287,0-0.465,0.028-0.529,0.085c-0.066,0.058-0.1,0.184-0.1,0.38v3.65
			c0.25,0.022,0.414,0.036,0.492,0.041c0.076,0.005,0.152,0.007,0.225,0.007c0.643,0,1.148-0.091,1.518-0.273
			c0.67-0.333,1.006-0.955,1.006-1.866C689.451,1514.277,689.082,1513.689,688.344,1513.37z"/>
		<path fill="#FFFFFF" d="M691.242,1521.628c0.418-0.036,0.697-0.11,0.834-0.222c0.137-0.112,0.205-0.351,0.205-0.715v-3.083
			c0-0.451-0.043-0.773-0.127-0.968c-0.084-0.193-0.238-0.29-0.461-0.29c-0.047,0-0.107,0.006-0.182,0.017
			c-0.076,0.012-0.154,0.026-0.236,0.045v-0.226c0.26-0.091,0.525-0.185,0.797-0.28c0.273-0.096,0.463-0.164,0.566-0.205
			c0.227-0.087,0.461-0.185,0.701-0.294c0.033,0,0.051,0.012,0.059,0.034c0.006,0.022,0.01,0.07,0.01,0.144v1.121
			c0.293-0.405,0.574-0.723,0.848-0.95c0.271-0.228,0.553-0.342,0.846-0.342c0.232,0,0.424,0.069,0.568,0.209
			c0.146,0.139,0.221,0.312,0.221,0.522c0,0.187-0.057,0.344-0.168,0.472s-0.252,0.191-0.42,0.191c-0.174,0-0.348-0.08-0.523-0.239
			s-0.312-0.239-0.414-0.239c-0.158,0-0.355,0.129-0.588,0.387c-0.232,0.257-0.348,0.522-0.348,0.796v3.083
			c0,0.392,0.09,0.664,0.273,0.816c0.182,0.153,0.484,0.225,0.908,0.216v0.226h-3.369V1521.628z"/>
		<path fill="#FFFFFF" d="M700.736,1516.107c0.484,0.445,0.725,1.075,0.725,1.891h-4.34c0.045,1.055,0.285,1.823,0.717,2.306
			c0.434,0.481,0.945,0.723,1.539,0.723c0.479,0,0.881-0.125,1.209-0.375s0.631-0.604,0.91-1.064l0.238,0.082
			c-0.186,0.58-0.537,1.116-1.049,1.609c-0.514,0.493-1.141,0.739-1.883,0.739c-0.857,0-1.52-0.323-1.986-0.971
			s-0.701-1.393-0.701-2.235c0-0.916,0.271-1.707,0.814-2.372c0.541-0.665,1.248-0.998,2.119-0.998
			C699.691,1515.441,700.254,1515.664,700.736,1516.107z M697.463,1516.631c-0.146,0.246-0.252,0.556-0.314,0.93h2.885
			c-0.051-0.456-0.137-0.795-0.26-1.019c-0.225-0.401-0.598-0.602-1.121-0.602C698.133,1515.94,697.736,1516.171,697.463,1516.631z"
			/>
		<path fill="#FFFFFF" d="M702.787,1519.7h0.227c0.104,0.52,0.244,0.918,0.422,1.196c0.318,0.511,0.785,0.766,1.398,0.766
			c0.342,0,0.611-0.095,0.809-0.283c0.197-0.189,0.297-0.435,0.297-0.735c0-0.191-0.057-0.376-0.172-0.554
			c-0.113-0.178-0.314-0.351-0.602-0.52l-0.766-0.438c-0.561-0.301-0.973-0.604-1.236-0.909c-0.266-0.306-0.396-0.665-0.396-1.08
			c0-0.511,0.182-0.93,0.547-1.258c0.363-0.328,0.822-0.492,1.373-0.492c0.242,0,0.508,0.046,0.797,0.137s0.453,0.137,0.488,0.137
			c0.082,0,0.143-0.012,0.178-0.034c0.037-0.022,0.068-0.06,0.096-0.109h0.164l0.049,1.907h-0.213
			c-0.09-0.442-0.213-0.786-0.369-1.032c-0.281-0.456-0.689-0.684-1.223-0.684c-0.32,0-0.57,0.098-0.752,0.294
			c-0.184,0.196-0.273,0.426-0.273,0.69c0,0.419,0.314,0.793,0.943,1.121l0.902,0.485c0.971,0.528,1.455,1.144,1.455,1.846
			c0,0.538-0.201,0.978-0.604,1.319s-0.93,0.513-1.58,0.513c-0.273,0-0.582-0.046-0.928-0.137s-0.551-0.137-0.613-0.137
			c-0.055,0-0.104,0.02-0.145,0.058c-0.041,0.039-0.072,0.086-0.096,0.141h-0.178V1519.7z"/>
		<path fill="#FFFFFF" d="M707.777,1521.662c0.488-0.046,0.795-0.129,0.924-0.25c0.127-0.12,0.191-0.447,0.191-0.98v-3.261
			c0-0.296-0.021-0.501-0.062-0.615c-0.068-0.187-0.211-0.28-0.43-0.28c-0.051,0-0.1,0.005-0.148,0.014
			c-0.047,0.009-0.186,0.046-0.412,0.109v-0.212l0.293-0.096c0.799-0.26,1.354-0.456,1.668-0.588
			c0.129-0.055,0.211-0.082,0.246-0.082c0.01,0.032,0.014,0.066,0.014,0.103v4.908c0,0.52,0.062,0.846,0.188,0.978
			c0.127,0.132,0.41,0.217,0.852,0.253v0.191h-3.322V1521.662z M708.865,1512.521c0.137-0.141,0.305-0.211,0.506-0.211
			c0.195,0,0.363,0.069,0.502,0.208c0.139,0.138,0.209,0.307,0.209,0.507c0,0.194-0.07,0.361-0.209,0.5
			c-0.139,0.138-0.307,0.207-0.502,0.207c-0.201,0-0.369-0.069-0.506-0.207c-0.137-0.139-0.205-0.306-0.205-0.5
			C708.66,1512.83,708.729,1512.662,708.865,1512.521z"/>
		<path fill="#FFFFFF" d="M715.625,1515.612c0.184,0.096,0.357,0.228,0.527,0.396v-2.174c0-0.278-0.031-0.47-0.092-0.574
			c-0.062-0.104-0.209-0.157-0.441-0.157c-0.055,0-0.104,0.002-0.145,0.007s-0.131,0.014-0.273,0.027v-0.226l0.561-0.144
			c0.205-0.055,0.41-0.111,0.615-0.171s0.385-0.116,0.541-0.171c0.072-0.022,0.193-0.066,0.361-0.13l0.041,0.014l-0.014,0.718
			c-0.004,0.26-0.008,0.527-0.014,0.804c-0.004,0.275-0.006,0.548-0.006,0.816l-0.014,5.585c0,0.296,0.035,0.504,0.109,0.622
			c0.072,0.118,0.266,0.178,0.58,0.178c0.051,0,0.102-0.001,0.15-0.004c0.051-0.002,0.102-0.008,0.15-0.017v0.226
			c-0.027,0.009-0.357,0.123-0.99,0.342l-1.074,0.403l-0.047-0.062v-0.841c-0.256,0.278-0.477,0.477-0.664,0.595
			c-0.332,0.205-0.717,0.308-1.154,0.308c-0.775,0-1.402-0.3-1.883-0.899c-0.482-0.599-0.723-1.293-0.723-2.081
			c0-0.989,0.289-1.838,0.865-2.546c0.576-0.709,1.281-1.063,2.115-1.063C715.043,1515.394,715.348,1515.467,715.625,1515.612z
			 M715.824,1520.931c0.219-0.21,0.328-0.408,0.328-0.595v-2.933c0-0.593-0.158-1.011-0.475-1.255
			c-0.318-0.243-0.627-0.365-0.928-0.365c-0.574,0-1.02,0.254-1.34,0.762c-0.318,0.509-0.479,1.134-0.479,1.877
			c0,0.733,0.17,1.388,0.51,1.962s0.846,0.861,1.521,0.861C715.318,1521.245,715.605,1521.141,715.824,1520.931z"/>
		<path fill="#FFFFFF" d="M723.289,1516.107c0.482,0.445,0.725,1.075,0.725,1.891h-4.342c0.047,1.055,0.285,1.823,0.719,2.306
			c0.432,0.481,0.945,0.723,1.537,0.723c0.479,0,0.883-0.125,1.211-0.375s0.631-0.604,0.908-1.064l0.24,0.082
			c-0.188,0.58-0.537,1.116-1.049,1.609c-0.514,0.493-1.141,0.739-1.885,0.739c-0.855,0-1.518-0.323-1.984-0.971
			c-0.469-0.647-0.701-1.393-0.701-2.235c0-0.916,0.271-1.707,0.812-2.372c0.543-0.665,1.25-0.998,2.119-0.998
			C722.242,1515.441,722.805,1515.664,723.289,1516.107z M720.014,1516.631c-0.145,0.246-0.25,0.556-0.314,0.93h2.885
			c-0.049-0.456-0.137-0.795-0.26-1.019c-0.223-0.401-0.596-0.602-1.121-0.602C720.684,1515.94,720.287,1516.171,720.014,1516.631z"
			/>
		<path fill="#FFFFFF" d="M724.861,1521.662c0.322-0.041,0.549-0.122,0.68-0.242c0.129-0.121,0.195-0.392,0.195-0.811v-3.473
			c0-0.289-0.027-0.493-0.082-0.61c-0.088-0.172-0.266-0.258-0.533-0.258c-0.041,0-0.084,0.002-0.127,0.007s-0.098,0.012-0.16,0.021
			v-0.239c0.186-0.055,0.629-0.196,1.326-0.424l0.643-0.212c0.031,0,0.051,0.012,0.057,0.034c0.008,0.022,0.012,0.055,0.012,0.096
			v1.005c0.418-0.392,0.746-0.661,0.982-0.807c0.354-0.224,0.723-0.335,1.105-0.335c0.309,0,0.592,0.089,0.846,0.267
			c0.49,0.347,0.736,0.964,0.736,1.853v3.192c0,0.328,0.066,0.565,0.197,0.711s0.35,0.221,0.658,0.226v0.191h-2.92v-0.191
			c0.334-0.046,0.566-0.138,0.697-0.277c0.133-0.139,0.199-0.44,0.199-0.905v-2.919c0-0.392-0.072-0.717-0.219-0.975
			c-0.145-0.257-0.412-0.386-0.801-0.386c-0.268,0-0.539,0.091-0.816,0.273c-0.154,0.104-0.354,0.278-0.598,0.52v3.828
			c0,0.328,0.072,0.548,0.219,0.659c0.145,0.112,0.375,0.173,0.689,0.182v0.191h-2.986V1521.662z"/>
		<path fill="#FFFFFF" d="M735.17,1515.551v0.492h-1.395l-0.014,3.938c0,0.347,0.029,0.608,0.088,0.786
			c0.109,0.314,0.324,0.472,0.643,0.472c0.164,0,0.307-0.039,0.428-0.116s0.258-0.2,0.414-0.369l0.178,0.15l-0.15,0.205
			c-0.238,0.319-0.488,0.545-0.752,0.677c-0.266,0.132-0.52,0.198-0.766,0.198c-0.539,0-0.902-0.239-1.094-0.718
			c-0.105-0.26-0.158-0.62-0.158-1.08v-4.143h-0.744c-0.023-0.014-0.041-0.027-0.053-0.041c-0.01-0.014-0.016-0.032-0.016-0.055
			c0-0.046,0.01-0.081,0.029-0.105c0.021-0.025,0.086-0.084,0.195-0.175c0.314-0.26,0.541-0.471,0.68-0.632
			c0.141-0.162,0.467-0.59,0.982-1.282c0.059,0,0.094,0.005,0.105,0.014s0.018,0.043,0.018,0.103v1.682H735.17z"/>
	</g>
	<rect x="456" y="1504.034" fill="none" stroke="#FFFFFF" stroke-miterlimit="10" width="288" height="26"/>
</g>
<g id="Layer_4">
	<g>
		<g>
			<g>
				<path fill="#FFFFFF" d="M705.331,474.995c7.357-81.971-45.158-146.268-46.629-253.76
					c-0.982-64.791-122.219-59.391-136.942-13.253c-32.013,102.6-45.22,205.906-37.793,264.557
					C505.56,638.441,690.604,640.893,705.331,474.995"/>
			</g>
			<path opacity="0.15" fill="#FFFFFF" enable-background="new    " d="M524.212,230.069c23.56-1.964,41.722-26.014,41.722-26.014
				s-1.473,18.161,10.798,30.432l22.578-20.615c0,0,19.142,18.16,53.503,16.196l-53.012-56.935l-50.554,12.271L524.212,230.069"/>
			<g>
				<path fill="#FFFFFF" d="M604.218,158.898l-12.271,3.437c-3.925-19.633,0.981-57.918,47.612-71.17l2.453,12.271
					C599.801,115.216,603.729,154.483,604.218,158.898"/>
				<path fill="#FFFFFF" d="M616.98,207.982c16.689,20.615,48.594,23.07,48.594,23.07s4.907-30.433-12.273-51.538
					c-16.687-20.616-38.284-31.414-48.102-23.56C594.893,164.299,600.292,187.368,616.98,207.982"/>
				<path fill="#FFFFFF" d="M537.956,168.226c-22.086,17.178-26.995,46.628-26.995,46.628s29.94,1.473,52.027-15.707
					c22.088-17.179,33.867-37.792,26.995-46.629C582.623,144.175,559.553,151.538,537.956,168.226"/>
			</g>
			<path fill="#FFFFFF" d="M566.425,175.096c-4.908,29.45,21.595,55.954,21.595,55.954s33.867-22.086,39.266-52.027
				c4.91-29.449-4.906-54.972-21.595-55.954C588.511,121.596,571.333,144.666,566.425,175.096"/>
		</g>
	</g>
	<g>
		<g>
			<path fill="#FFFFFF" d="M551.804,940.462c8.508-23.451,42.448-12.126,42.448-12.126s5.906,15.1,1.077,24.491
				c-17.784,33.767-74.668,21.946-74.668,21.946S543.517,963.688,551.804,940.462"/>
			<path fill="#FFFFFF" d="M601.646,904.671c0.883-0.896,4.471,2.194,3.586,3.092c-11.002,17.455-6.203,33.678-4.625,36.115
				c2.03,3.325-4.865,4.492-6.905-0.171C593.693,942.816,588.632,921.475,601.646,904.671"/>
			<path fill="#FFFFFF" d="M596.182,1124.315c-0.008-1.337,2.211-2.244,4.662-2.04c2.897,0.201,4.91,1.299,4.916,2.189"/>
			<path fill="#FFFFFF" d="M605.76,1124.465"/>
			<g>
				<path fill="#FFFFFF" d="M608.434,948.05c-0.466-2.668-5.383-4.858-11.844-5.032c-6.235,0.047-11.342,2.091-11.767,4.766
					c-30.683,6.914-53.364,41.163-52.38,82.805c0.949,37.188,20.346,69.111,46.938,80.715c1.176,8.231,10.358,15.064,21.719,15.202
					c11.357,0.138,20.442-6.392,21.047-14.636c25.749-11.331,43.775-42.649,42.826-79.837
					C663.764,990.17,639.67,955.387,608.434,948.05"/>
			</g>
			<path fill="#FFFFFF" d="M598.607,944.562c-6.109-12.649,2.209-31.866,2.209-31.866s43.78-12.582,54.256,18.074
				c10.476,30.212,39.55,46.026,39.55,46.026S620.77,988.938,598.607,944.562z"/>
			<path fill="#FFFFFF" d="M600.816,912.695c4.68,0.633,9.367,1.711,13.834,3.459s8.941,4.387,12.974,7.475
				c8.065,6.175,14.138,13.924,20.651,21.226c6.069,7.303,13.025,14.154,20.862,19.663c7.838,5.509,16.774,9.449,25.708,12.5
				c-4.461-0.857-9.15-2.381-13.839-3.904c-4.468-1.748-8.938-3.941-13.188-6.359c-8.729-5.502-15.909-12.574-22.201-20.1
				c-6.293-7.523-12.365-15.273-19.761-21.23C618.684,919.242,609.743,915.301,600.816,912.695"/>
		</g>
	</g>
</g>
<g id="Layer_1">
</g>
</svg>
