<?xml version="1.0" encoding="utf-8"?>
<!-- Generator: Adobe Illustrator 16.0.4, SVG Export Plug-In . SVG Version: 6.00 Build 0)  -->
<!DOCTYPE svg PUBLIC "-//W3C//DTD SVG 1.1//EN" "http://www.w3.org/Graphics/SVG/1.1/DTD/svg11.dtd">
<svg version="1.1" id="Layer_1" xmlns="http://www.w3.org/2000/svg" xmlns:xlink="http://www.w3.org/1999/xlink" x="0px" y="0px"
	 width="1200px" height="760px" viewBox="0 0 1200 760" enable-background="new 0 0 1200 760" xml:space="preserve">
<g id="Layer_3">
	<rect fill="#FFFFFF" width="1200" height="760"/>
</g>
<polyline fill="none" stroke="#FE0027" stroke-width="14" stroke-miterlimit="10" points="466.667,732.484 22.222,732.484 
	22.222,27.515 466.667,27.515 "/>
<polyline fill="none" stroke="#FE0027" stroke-width="14" stroke-miterlimit="10" points="737.777,27.515 1177.777,27.515 
	1177.777,732.484 737.777,732.484 "/>
<g>
	<polygon fill="#300063" points="494.75,716.216 498.199,726.826 509.355,726.826 500.33,733.385 503.777,743.995 494.75,737.438 
		485.724,743.995 489.171,733.385 480.146,726.826 491.302,726.826 	"/>
	<polygon fill="#300063" points="652.625,716.216 656.073,726.826 667.229,726.826 658.205,733.385 661.651,743.995 
		652.625,737.438 643.599,743.995 647.047,733.385 638.021,726.826 649.177,726.826 	"/>
	<polygon fill="#300063" points="600,716.216 603.448,726.826 614.604,726.826 605.58,733.385 609.026,743.995 600,737.438 
		590.974,743.995 594.421,733.385 585.396,726.826 596.552,726.826 	"/>
	<polygon fill="#300063" points="705.25,716.216 708.698,726.826 719.854,726.826 710.83,733.385 714.276,743.995 705.25,737.438 
		696.224,743.995 699.672,733.385 690.646,726.826 701.802,726.826 	"/>
	<polygon fill="#300063" points="547.375,716.216 550.824,726.826 561.98,726.826 552.955,733.385 556.402,743.995 547.375,737.438 
		538.349,743.995 541.796,733.385 532.771,726.826 543.927,726.826 	"/>
</g>
<polygon fill="#300063" points="494.75,13.625 498.199,24.236 509.355,24.236 500.33,30.794 503.777,41.405 494.75,34.848 
	485.724,41.405 489.171,30.794 480.146,24.236 491.302,24.236 "/>
<polygon fill="#300063" points="652.625,13.625 656.073,24.236 667.229,24.236 658.205,30.794 661.651,41.405 652.625,34.848 
	643.599,41.405 647.047,30.794 638.021,24.236 649.177,24.236 "/>
<polygon fill="#300063" points="600,13.625 603.448,24.236 614.604,24.236 605.58,30.794 609.026,41.405 600,34.848 590.974,41.405 
	594.421,30.794 585.396,24.236 596.552,24.236 "/>
<polygon fill="#300063" points="705.25,13.625 708.698,24.236 719.854,24.236 710.83,30.794 714.276,41.405 705.25,34.848 
	696.224,41.405 699.672,30.794 690.646,24.236 701.802,24.236 "/>
<polygon fill="#300063" points="547.375,13.625 550.824,24.236 561.98,24.236 552.955,30.794 556.402,41.405 547.375,34.848 
	538.349,41.405 541.796,30.794 532.771,24.236 543.927,24.236 "/>
<g>
	<g enable-background="new    ">
		<path fill="#300063" d="M79.752,337.373L101.905,335c0.479,6.152,1.456,10.841,2.93,14.062c2.398,5.216,5.825,7.822,10.279,7.822
			c3.323,0,5.885-1.332,7.684-3.999c1.799-2.666,2.699-5.757,2.699-9.272c0-3.34-0.857-6.328-2.57-8.965
			c-1.714-2.637-5.688-5.126-11.925-7.471c-10.211-3.925-17.493-9.141-21.844-15.645c-4.387-6.504-6.579-14.794-6.579-24.873
			c0-6.621,1.122-12.876,3.367-18.765c2.244-5.889,5.619-10.517,10.125-13.887c4.505-3.369,10.682-5.054,18.529-5.054
			c9.628,0,16.969,3.062,22.024,9.185c5.054,6.124,8.061,15.864,9.021,29.224l-21.947,2.197c-0.583-5.801-1.808-10.02-3.675-12.656
			c-1.868-2.637-4.446-3.955-7.735-3.955c-2.708,0-4.747,0.982-6.117,2.944c-1.371,1.964-2.056,4.351-2.056,7.163
			c0,2.052,0.565,3.897,1.696,5.537c1.096,1.7,3.701,3.282,7.812,4.746c10.177,3.75,17.466,7.545,21.87,11.382
			c4.402,3.838,7.607,8.6,9.611,14.282c2.004,5.684,3.007,12.041,3.007,19.072c0,8.262-1.336,15.879-4.009,22.852
			c-2.672,6.974-6.408,12.261-11.205,15.864c-4.798,3.604-10.845,5.405-18.144,5.405c-12.816,0-21.69-4.219-26.625-12.656
			C83.196,361.104,80.403,350.381,79.752,337.373z"/>
		<path fill="#300063" d="M175.484,251.152h70.776v31.816h-23.746V380H199.23v-97.031h-23.746V251.152z"/>
		<path fill="#300063" d="M316.924,358.73H290.49L286.818,380h-23.773l28.32-128.848h25.397L345.076,380h-24.383L316.924,358.73z
			 M312.094,330.869l-8.316-46.318l-8.23,46.318H312.094z"/>
		<path fill="#300063" d="M373.58,251.152h21.741l28.372,71.285v-71.285h21.947V380h-21.947l-28.218-70.747V380H373.58V251.152z"/>
		<path fill="#300063" d="M482.367,251.152h34.591c6.818,0,12.327,1.582,16.524,4.746s7.667,7.706,10.408,13.623
			c2.741,5.919,4.729,12.803,5.962,20.654c1.234,7.853,1.851,16.172,1.851,24.961c0,13.77-0.917,24.449-2.75,32.036
			c-1.833,7.589-4.377,13.946-7.633,19.072c-3.255,5.128-6.75,8.541-10.484,10.239c-5.106,2.344-9.732,3.516-13.878,3.516h-34.591
			V251.152z M505.65,280.332v70.4h5.705c4.865,0,8.326-0.923,10.383-2.769c2.056-1.846,3.666-5.067,4.831-9.668
			c1.165-4.599,1.748-12.055,1.748-22.368c0-13.652-1.303-22.997-3.906-28.037c-2.604-5.039-6.922-7.559-12.953-7.559H505.65z"/>
		<path fill="#300063" d="M580.823,337.373L602.976,335c0.479,6.152,1.456,10.841,2.93,14.062c2.398,5.216,5.825,7.822,10.28,7.822
			c3.323,0,5.885-1.332,7.684-3.999c1.799-2.666,2.698-5.757,2.698-9.272c0-3.34-0.856-6.328-2.569-8.965
			c-1.714-2.637-5.688-5.126-11.925-7.471c-10.211-3.925-17.493-9.141-21.844-15.645c-4.387-6.504-6.579-14.794-6.579-24.873
			c0-6.621,1.121-12.876,3.366-18.765c2.244-5.889,5.619-10.517,10.126-13.887c4.505-3.369,10.682-5.054,18.528-5.054
			c9.629,0,16.97,3.062,22.024,9.185c5.054,6.124,8.061,15.864,9.021,29.224l-21.947,2.197c-0.583-5.801-1.808-10.02-3.675-12.656
			c-1.868-2.637-4.446-3.955-7.735-3.955c-2.707,0-4.746,0.982-6.116,2.944c-1.371,1.964-2.057,4.351-2.057,7.163
			c0,2.052,0.565,3.897,1.696,5.537c1.097,1.7,3.701,3.282,7.812,4.746c10.177,3.75,17.467,7.545,21.87,11.382
			c4.403,3.838,7.607,8.6,9.611,14.282c2.005,5.684,3.007,12.041,3.007,19.072c0,8.262-1.336,15.879-4.009,22.852
			c-2.673,6.974-6.408,12.261-11.205,15.864c-4.798,3.604-10.845,5.405-18.144,5.405c-12.815,0-21.689-4.219-26.624-12.656
			S581.474,350.381,580.823,337.373z"/>
		<path fill="#300063" d="M730.141,251.152h22.115l7.962,72.132l11.653-72.132h22.035l11.682,72.036l7.971-72.036h22.001
			L818.949,380h-22.832l-13.216-81.123L769.737,380h-22.832L730.141,251.152z"/>
		<path fill="#300063" d="M865.039,251.152h23.335V380h-23.335V251.152z"/>
		<path fill="#300063" d="M920.732,251.152h70.775v31.816h-23.746V380h-23.283v-97.031h-23.746V251.152z"/>
		<path fill="#300063" d="M1023.095,251.152h23.283v45.088h25.442v-45.088h23.387V380h-23.387v-52.119h-25.442V380h-23.283V251.152z
			"/>
	</g>
</g>
<g id="Layer_7">
</g>
<g id="Layer_6">
	<g enable-background="new    ">
		<path fill="#FE0027" d="M103.622,104.962l-3.341,19.922h6.725l-0.728,4.614h-6.682l-7.367,43.213c-0.8,4.64-1.2,7.643-1.2,9.009
			c0,0.831,0.114,1.465,0.343,1.904c0.229,0.439,0.5,0.659,0.814,0.659c0.713,0,1.656-0.854,2.827-2.563
			c0.686-0.976,2.213-3.979,4.583-9.009l1.414,1.831c-2.627,6.544-5.112,11.158-7.453,13.843c-1.6,1.855-3.212,2.783-4.84,2.783
			c-1.257,0-2.285-0.672-3.083-2.014c-0.8-1.342-1.2-3.063-1.2-5.164c0-2.637,0.457-6.665,1.371-12.085l7.153-42.407h-6.468
			l0.428-2.856c3.141-1.465,5.754-3.649,7.838-6.555c2.084-2.904,4.412-7.947,6.981-15.125H103.622z"/>
		<path fill="#FE0027" d="M151.914,85.26l-12.036,71.118c5.197-13.378,9.252-22.266,12.165-26.66s5.697-6.592,8.352-6.592
			c1.371,0,2.513,0.806,3.427,2.417c0.914,1.611,1.371,3.761,1.371,6.445c0,3.223-0.4,7.13-1.199,11.719l-5.226,30.688
			c-0.657,3.711-0.985,5.762-0.985,6.152c0,0.685,0.121,1.245,0.364,1.685c0.242,0.439,0.521,0.659,0.835,0.659
			c0.371,0,0.799-0.317,1.285-0.952c1.627-2.148,3.241-5.127,4.84-8.936l1.328,1.392c-0.971,2.589-2.32,5.433-4.048,8.533
			c-1.728,3.102-3.212,5.25-4.455,6.445s-2.349,1.794-3.319,1.794c-1.057,0-1.921-0.575-2.591-1.721
			c-0.671-1.146-1.006-2.624-1.006-4.431c0-2.148,0.499-6.152,1.499-12.012l4.926-29.297c0.627-3.662,0.942-6.542,0.942-8.643
			c0-0.976-0.179-1.758-0.535-2.344c-0.357-0.586-0.821-0.879-1.392-0.879c-0.829,0-1.771,0.538-2.827,1.611
			c-1.942,2.051-4.184,5.859-6.725,11.426c-0.685,1.514-2.97,7.617-6.853,18.311c-1.199,3.418-2.184,7.154-2.955,11.206
			l-2.741,15.015h-6.425l14.091-83.789l1.5-9.082c0-1.269-0.308-2.392-0.921-3.369c-0.615-0.976-1.364-1.465-2.249-1.465
			c-0.514,0-1.299,0.146-2.355,0.439l-0.899,0.22v-2.856L151.914,85.26z"/>
		<path fill="#FE0027" d="M201.448,161.798c-0.2,2.442-0.3,4.468-0.3,6.079c0,4.347,0.899,8.045,2.698,11.096
			c1.799,3.052,3.983,4.578,6.553,4.578c2.056,0,4.033-0.72,5.932-2.161c1.899-1.439,4.718-4.625,8.459-9.558l0.899,2.124
			c-6.768,11.475-13.221,17.212-19.36,17.212c-4.169,0-7.311-2.245-9.423-6.738c-2.113-4.492-3.169-9.448-3.169-14.868
			c0-7.275,1.313-14.722,3.94-22.339c2.627-7.617,5.925-13.537,9.895-17.761c3.968-4.223,8.052-6.335,12.25-6.335
			c3.026,0,5.268,1.051,6.725,3.149c1.456,2.1,2.184,4.59,2.184,7.471c0,4.054-0.942,7.936-2.827,11.646
			c-2.484,4.834-6.14,8.741-10.965,11.719C211.742,159.113,207.245,160.675,201.448,161.798z M201.748,158.209
			c4.226-0.83,7.667-2.245,10.322-4.248c3.512-2.685,6.146-5.896,7.903-9.631c1.756-3.735,2.634-7.288,2.634-10.657
			c0-2.051-0.378-3.71-1.135-4.98c-0.757-1.269-1.835-1.904-3.234-1.904c-2.913,0-6.004,2.649-9.273,7.947
			C205.695,140.034,203.29,147.858,201.748,158.209z"/>
		<path fill="#FE0027" d="M325.615,123.126l-2.611,22.485h-1.586c-0.143-6.542-0.957-11.303-2.441-14.282
			c-1.484-2.978-3.326-4.468-5.525-4.468c-1.771,0-3.176,0.831-4.219,2.49c-1.043,1.661-1.562,3.662-1.562,6.006
			c0,1.611,0.205,3.149,0.621,4.614c0.412,1.465,1.32,3.516,2.719,6.152c3.711,6.934,6.111,12.158,7.195,15.674
			c1.086,3.516,1.629,6.837,1.629,9.961c0,5.079-1.236,9.583-3.705,13.513c-2.471,3.931-5.59,5.896-9.359,5.896
			c-2.056,0-4.426-0.831-7.11-2.49c-0.942-0.586-1.67-0.879-2.185-0.879c-1.285,0-2.256,1.124-2.913,3.369h-1.585l2.613-23.73h1.585
			c0.171,7.423,1.071,12.671,2.698,15.747c1.628,3.076,3.855,4.614,6.682,4.614c2.169,0,3.89-1.037,5.161-3.113
			c1.27-2.075,1.906-4.625,1.906-7.654c0-1.952-0.229-3.759-0.686-5.42c-0.801-2.93-2.479-6.982-5.033-12.158
			c-2.556-5.175-4.197-9.057-4.925-11.646c-0.728-2.587-1.092-5.175-1.092-7.764c0-4.735,1.006-8.74,3.02-12.012
			c2.014-3.271,4.605-4.907,7.773-4.907c0.914,0,1.742,0.123,2.484,0.366c0.4,0.146,1.336,0.696,2.807,1.648
			s2.447,1.428,2.934,1.428c1.227,0,2.256-1.146,3.084-3.442H325.615z"/>
		<path fill="#FE0027" d="M369.067,123.126l-8.48,51.343c-0.571,3.468-0.856,5.542-0.856,6.226c0,0.782,0.135,1.417,0.406,1.904
			c0.271,0.489,0.593,0.732,0.964,0.732c0.429,0,0.942-0.39,1.542-1.172c1.628-2.197,3.27-5.321,4.926-9.375l1.499,1.685
			c-1.942,5.079-4.227,9.351-6.854,12.817c-1.941,2.587-3.798,3.882-5.567,3.882c-1.172,0-2.128-0.599-2.87-1.794
			c-0.743-1.196-1.113-2.697-1.113-4.504c0-1.806,0.356-4.809,1.07-9.009l5.568-32.812c0.913-5.371,1.371-8.74,1.371-10.107
			c0-1.073-0.222-1.952-0.664-2.637c-0.443-0.683-1.05-1.025-1.82-1.025c-0.629,0-1.928,0.269-3.898,0.806v-2.856L369.067,123.126z
			 M368.511,94.049c1.199,0,2.213,0.708,3.041,2.124c0.828,1.417,1.242,3.149,1.242,5.2c0,2.003-0.422,3.724-1.264,5.164
			c-0.843,1.441-1.85,2.161-3.02,2.161c-1.171,0-2.178-0.72-3.02-2.161c-0.843-1.439-1.264-3.161-1.264-5.164
			c0-2.051,0.413-3.783,1.242-5.2C366.298,94.757,367.312,94.049,368.511,94.049z"/>
		<path fill="#FE0027" d="M420.315,85.26l-14.648,87.158c-0.715,4.347-1.071,7.007-1.071,7.983c0,0.732,0.136,1.344,0.407,1.831
			c0.271,0.489,0.606,0.732,1.007,0.732c0.542,0,1.127-0.414,1.756-1.245c1.484-2.001,3.041-5.102,4.668-9.302l1.285,2.271
			c-2.713,6.544-5.211,11.109-7.495,13.696c-1.686,1.855-3.284,2.783-4.798,2.783c-1.085,0-1.991-0.635-2.72-1.904
			c-0.728-1.269-1.092-2.734-1.092-4.395c0-1.758,0.456-5.371,1.37-10.84l11.608-68.701c0.941-5.614,1.413-8.837,1.413-9.668
			c0-1.172-0.271-2.135-0.813-2.893c-0.543-0.756-1.386-1.135-2.527-1.135c-0.657,0-1.656,0.172-2.998,0.513v-2.71L420.315,85.26z"
			/>
		<path fill="#FE0027" d="M450.018,161.798c-0.2,2.442-0.3,4.468-0.3,6.079c0,4.347,0.899,8.045,2.698,11.096
			c1.799,3.052,3.983,4.578,6.554,4.578c2.056,0,4.032-0.72,5.932-2.161c1.898-1.439,4.719-4.625,8.46-9.558l0.899,2.124
			c-6.768,11.475-13.222,17.212-19.36,17.212c-4.17,0-7.311-2.245-9.423-6.738c-2.114-4.492-3.17-9.448-3.17-14.868
			c0-7.275,1.313-14.722,3.94-22.339s5.925-13.537,9.895-17.761c3.969-4.223,8.053-6.335,12.25-6.335
			c3.026,0,5.269,1.051,6.725,3.149c1.456,2.1,2.185,4.59,2.185,7.471c0,4.054-0.942,7.936-2.827,11.646
			c-2.484,4.834-6.14,8.741-10.965,11.719C460.312,159.113,455.813,160.675,450.018,161.798z M450.317,158.209
			c4.226-0.83,7.667-2.245,10.322-4.248c3.513-2.685,6.146-5.896,7.902-9.631c1.757-3.735,2.635-7.288,2.635-10.657
			c0-2.051-0.379-3.71-1.136-4.98c-0.757-1.269-1.835-1.904-3.233-1.904c-2.913,0-6.004,2.649-9.273,7.947
			C454.265,140.034,451.859,147.858,450.317,158.209z"/>
		<path fill="#FE0027" d="M518.826,123.126l-5.697,33.325c5.34-13.623,9.43-22.583,12.271-26.88
			c2.841-4.296,5.575-6.445,8.202-6.445c1.428,0,2.605,0.806,3.534,2.417c0.928,1.611,1.392,3.711,1.392,6.299
			c0,2.93-0.414,6.837-1.242,11.719l-5.226,30.835c-0.6,3.565-0.899,5.738-0.899,6.519c0,0.685,0.114,1.258,0.343,1.721
			c0.229,0.465,0.472,0.696,0.729,0.696c0.343,0,0.756-0.317,1.242-0.952c1.513-2.051,3.169-5.175,4.969-9.375l1.327,1.392
			c-2.655,6.495-5.168,11.133-7.538,13.916c-1.656,1.904-3.142,2.856-4.455,2.856c-1.057,0-1.898-0.549-2.526-1.648
			c-0.629-1.099-0.942-2.575-0.942-4.431c0-2.344,0.485-6.372,1.456-12.085l4.969-29.443c0.628-3.662,0.942-6.519,0.942-8.569
			c0-0.976-0.187-1.769-0.557-2.38c-0.372-0.61-0.829-0.916-1.371-0.916c-0.8,0-1.756,0.586-2.87,1.758
			c-2.113,2.197-4.312,5.823-6.596,10.876c-2.285,5.054-4.697,11.512-7.238,19.373c-1.343,4.151-2.456,8.692-3.341,13.623
			l-2.142,12.085h-6.425l7.795-45.85c0.914-5.517,1.371-8.837,1.371-9.961c0-1.073-0.251-2.014-0.75-2.82
			c-0.5-0.806-1.121-1.208-1.863-1.208c-0.343,0-0.942,0.099-1.799,0.293l-1.628,0.439l-0.257-2.637L518.826,123.126z"/>
		<path fill="#FE0027" d="M587.078,104.962l-3.342,19.922h6.725l-0.728,4.614h-6.682l-7.367,43.213
			c-0.8,4.64-1.199,7.643-1.199,9.009c0,0.831,0.113,1.465,0.343,1.904c0.228,0.439,0.499,0.659,0.813,0.659
			c0.713,0,1.655-0.854,2.827-2.563c0.685-0.976,2.212-3.979,4.583-9.009l1.413,1.831c-2.627,6.544-5.111,11.158-7.453,13.843
			c-1.599,1.855-3.212,2.783-4.84,2.783c-1.257,0-2.284-0.672-3.084-2.014s-1.199-3.063-1.199-5.164
			c0-2.637,0.457-6.665,1.371-12.085l7.152-42.407h-6.467l0.428-2.856c3.141-1.465,5.754-3.649,7.838-6.555
			c2.085-2.904,4.412-7.947,6.982-15.125H587.078z"/>
		<path fill="#FE0027" d="M671.54,123.126l-5.568,33.032c2.484-7.764,4.597-13.598,6.339-17.505
			c2.713-6.054,5.354-10.448,7.924-13.184c1.514-1.562,3.099-2.344,4.755-2.344c1.428,0,2.612,0.782,3.555,2.344
			c0.942,1.563,1.414,3.565,1.414,6.006c0,2.393-0.329,5.519-0.985,9.375l-3.041,18.604c4.653-14.892,9.065-25.342,13.235-31.348
			c2.312-3.32,4.597-4.98,6.853-4.98c1.313,0,2.392,0.769,3.234,2.307c0.842,1.538,1.263,3.918,1.263,7.141
			c0,2.833-0.257,5.835-0.771,9.009l-4.712,28.491c-1.027,6.202-1.542,9.644-1.542,10.327c0,0.685,0.129,1.271,0.386,1.758
			c0.172,0.342,0.399,0.513,0.686,0.513c0.285,0,0.785-0.463,1.499-1.392c1.628-2.148,3.155-4.98,4.583-8.496l1.413,1.538
			c-0.714,1.954-1.978,4.64-3.79,8.057c-1.813,3.418-3.362,5.738-4.647,6.958s-2.471,1.831-3.555,1.831
			c-1,0-1.836-0.586-2.506-1.758c-0.672-1.172-1.007-2.611-1.007-4.321c0-2.344,0.585-7.055,1.756-14.136l3.898-23.511
			c0.885-5.42,1.355-8.423,1.413-9.009c0.086-0.927,0.129-1.831,0.129-2.71c0-1.22-0.157-2.172-0.472-2.856
			c-0.343-0.683-0.729-1.025-1.156-1.025c-1.199,0-2.471,1.051-3.812,3.149c-3.94,6.202-7.624,14.894-11.051,26.074
			c-2.256,7.374-4.368,16.822-6.339,28.345h-6.468l7.324-44.312c0.8-4.785,1.199-7.983,1.199-9.595c0-1.318-0.157-2.294-0.471-2.93
			c-0.314-0.634-0.7-0.952-1.156-0.952c-0.942,0-1.942,0.586-2.998,1.758c-1.714,1.904-3.92,5.982-6.618,12.231
			c-2.698,6.251-4.79,12.231-6.274,17.944c-0.715,2.686-2.414,11.305-5.098,25.854h-6.339l7.924-47.461l1.028-6.152
			c0.199-0.927,0.3-1.611,0.3-2.051c0-1.073-0.286-2.038-0.856-2.893c-0.572-0.854-1.3-1.282-2.185-1.282
			c-0.372,0-1.399,0.293-3.084,0.879l-0.386-2.71L671.54,123.126z"/>
		<path fill="#FE0027" d="M777.997,123.126l-8.352,49.658l-0.942,6.665c-0.086,0.635-0.129,1.172-0.129,1.611
			c0,0.782,0.143,1.465,0.429,2.051c0.229,0.439,0.514,0.659,0.856,0.659c0.371,0,0.856-0.39,1.456-1.172
			c1.114-1.416,2.599-4.345,4.455-8.789l1.456,1.758c-1.971,5.079-3.998,8.948-6.082,11.609c-2.085,2.661-4.013,3.992-5.782,3.992
			c-1.229,0-2.149-0.525-2.763-1.575c-0.614-1.049-0.921-2.575-0.921-4.578c0-2.392,0.313-5.541,0.942-9.448l0.899-5.493
			c-3.741,8.35-7.182,14.185-10.322,17.505c-2.257,2.392-4.47,3.589-6.64,3.589c-2.085,0-3.884-1.478-5.396-4.431
			c-1.514-2.954-2.271-7.019-2.271-12.195c0-7.764,1.363-15.954,4.091-24.573c2.727-8.617,6.189-15.515,10.387-20.691
			c3.283-4.102,6.382-6.152,9.295-6.152c1.741,0,3.19,0.782,4.347,2.344c1.157,1.563,2.035,4.151,2.635,7.764l1.542-8.35
			L777.997,123.126z M762.749,126.935c-1.827,0-3.769,1.465-5.825,4.395c-2.912,4.151-5.504,10.303-7.773,18.457
			c-2.271,8.155-3.405,15.527-3.405,22.119c0,3.321,0.485,5.945,1.456,7.874c0.971,1.93,2.084,2.893,3.341,2.893
			c3.112,0,6.496-3.93,10.151-11.792c4.883-10.448,7.324-21.167,7.324-32.153c0-4.149-0.471-7.152-1.413-9.009
			C765.662,127.863,764.377,126.935,762.749,126.935z"/>
		<path fill="#FE0027" d="M822.435,123.126l-11.094,65.552c-1.97,11.719-4.676,20.166-8.116,25.342
			c-3.44,5.175-7.16,7.764-11.158,7.764c-1.799,0-3.162-0.708-4.09-2.124c-0.928-1.417-1.393-3.102-1.393-5.054
			c0-1.514,0.351-2.845,1.05-3.992c0.7-1.148,1.506-1.721,2.42-1.721c0.828,0,1.557,0.463,2.185,1.392
			c0.514,0.732,0.771,1.562,0.771,2.49c0,1.269-0.356,2.368-1.07,3.296c-0.399,0.537-0.6,0.976-0.6,1.318l0.085,0.366
			c0.086,0.194,0.215,0.341,0.386,0.439c0.172,0.097,0.429,0.146,0.771,0.146c2.312,0,4.29-1.258,5.932-3.772
			c1.643-2.516,3.105-7.533,4.391-15.051l9.595-56.25c0.942-5.517,1.413-8.569,1.413-9.155c0-1.172-0.308-2.221-0.921-3.149
			c-0.614-0.927-1.392-1.392-2.334-1.392c-0.372,0-0.8,0.073-1.285,0.22c-0.372,0.099-0.914,0.245-1.628,0.439v-2.563
			L822.435,123.126z M821.749,94.122c1.199,0,2.221,0.721,3.062,2.161c0.842,1.441,1.264,3.186,1.264,5.237
			s-0.422,3.797-1.264,5.237c-0.842,1.441-1.863,2.161-3.062,2.161s-2.221-0.72-3.062-2.161c-0.842-1.439-1.264-3.186-1.264-5.237
			s0.422-3.796,1.264-5.237C819.528,94.843,820.55,94.122,821.749,94.122z"/>
		<path fill="#FE0027" d="M887.56,146.051c0,7.324-1.135,14.575-3.404,21.753c-2.271,7.178-5.434,12.867-9.487,17.065
			c-4.056,4.2-7.996,6.299-11.822,6.299c-3.912,0-7.104-2.135-9.573-6.409c-2.47-4.272-3.704-9.802-3.704-16.589
			c0-7.178,1.206-14.379,3.619-21.606c2.412-7.226,5.639-12.938,9.68-17.139c4.04-4.199,7.945-6.299,11.715-6.299
			s6.874,2.124,9.315,6.372S887.56,139.265,887.56,146.051z M880.45,140.997c0-4.541-0.65-8.02-1.949-10.437
			c-1.3-2.417-2.977-3.625-5.033-3.625c-4.197,0-8.06,5.14-11.586,15.417c-3.526,10.279-5.289,20.497-5.289,30.652
			c0,4.64,0.685,8.216,2.056,10.73c1.37,2.516,3.098,3.772,5.183,3.772c4.026,0,7.802-5.114,11.329-15.344
			C878.687,161.933,880.45,151.544,880.45,140.997z"/>
		<path fill="#FE0027" d="M916.406,127.228l14.777-4.102l-6.168,35.596c4.996-14.599,9.537-24.804,13.62-30.615
			c2.313-3.32,4.198-4.98,5.654-4.98c0.942,0,1.685,0.476,2.228,1.428c0.542,0.952,0.813,2.333,0.813,4.138
			c0,3.223-0.486,6.299-1.456,9.229c-0.686,2.197-1.671,3.296-2.956,3.296c-0.657,0-1.221-0.366-1.691-1.099
			c-0.472-0.732-0.765-1.855-0.878-3.369c-0.058-0.927-0.187-1.538-0.386-1.831c-0.229-0.39-0.5-0.586-0.813-0.586
			c-0.486,0-0.942,0.196-1.371,0.586c-0.743,0.685-1.87,2.589-3.384,5.713c-2.37,4.786-4.94,10.986-7.71,18.604
			c-1.199,3.223-2.227,6.861-3.083,10.913c-1.2,5.566-1.885,8.912-2.057,10.034l-1.37,9.229h-6.554l7.924-45.483
			c0.914-5.273,1.371-9.033,1.371-11.279c0-0.879-0.215-1.611-0.643-2.197c-0.571-0.78-1.328-1.172-2.271-1.172
			c-0.6,0-1.699,0.22-3.298,0.659L916.406,127.228z"/>
		<path fill="#FE0027" d="M987.1,123.126l-8.48,51.343c-0.571,3.468-0.856,5.542-0.856,6.226c0,0.782,0.135,1.417,0.406,1.904
			c0.271,0.489,0.593,0.732,0.964,0.732c0.429,0,0.942-0.39,1.542-1.172c1.628-2.197,3.27-5.321,4.926-9.375l1.499,1.685
			c-1.942,5.079-4.227,9.351-6.854,12.817c-1.941,2.587-3.798,3.882-5.567,3.882c-1.172,0-2.128-0.599-2.87-1.794
			c-0.743-1.196-1.113-2.697-1.113-4.504c0-1.806,0.356-4.809,1.07-9.009l5.568-32.812c0.913-5.371,1.371-8.74,1.371-10.107
			c0-1.073-0.222-1.952-0.664-2.637c-0.443-0.683-1.05-1.025-1.82-1.025c-0.629,0-1.928,0.269-3.898,0.806v-2.856L987.1,123.126z
			 M986.543,94.049c1.199,0,2.213,0.708,3.041,2.124c0.828,1.417,1.242,3.149,1.242,5.2c0,2.003-0.422,3.724-1.264,5.164
			c-0.843,1.441-1.85,2.161-3.02,2.161c-1.171,0-2.178-0.72-3.02-2.161c-0.843-1.439-1.264-3.161-1.264-5.164
			c0-2.051,0.413-3.783,1.242-5.2C984.33,94.757,985.344,94.049,986.543,94.049z"/>
		<path fill="#FE0027" d="M1035.049,104.962l-3.342,19.922h6.725l-0.728,4.614h-6.682l-7.367,43.213
			c-0.8,4.64-1.199,7.643-1.199,9.009c0,0.831,0.113,1.465,0.343,1.904c0.228,0.439,0.499,0.659,0.813,0.659
			c0.713,0,1.655-0.854,2.827-2.563c0.685-0.976,2.212-3.979,4.583-9.009l1.413,1.831c-2.627,6.544-5.111,11.158-7.453,13.843
			c-1.599,1.855-3.212,2.783-4.84,2.783c-1.257,0-2.284-0.672-3.084-2.014s-1.199-3.063-1.199-5.164
			c0-2.637,0.457-6.665,1.371-12.085l7.152-42.407h-6.467l0.428-2.856c3.141-1.465,5.754-3.649,7.838-6.555
			c2.085-2.904,4.412-7.947,6.982-15.125H1035.049z"/>
		<path fill="#FE0027" d="M1071.604,123.126c0.971,2.833,1.642,5.482,2.014,7.947c0.37,2.466,0.742,7.313,1.113,14.539l1.885,36.035
			c1.713-3.516,4.197-9.082,7.452-16.699c1.57-3.71,3.513-8.764,5.825-15.161c1.399-3.906,2.256-6.64,2.57-8.203
			c0.171-0.78,0.257-1.586,0.257-2.417c0-0.537-0.101-0.976-0.3-1.318c-0.2-0.341-0.722-0.744-1.563-1.208
			c-0.843-0.463-1.542-1.318-2.099-2.563s-0.835-2.673-0.835-4.285c0-2.001,0.343-3.613,1.028-4.834
			c0.685-1.22,1.541-1.831,2.569-1.831c1.256,0,2.327,0.892,3.213,2.673c0.885,1.783,1.327,4.237,1.327,7.361
			c0,3.858-0.771,8.265-2.312,13.22c-1.542,4.957-4.513,12.561-8.909,22.815c-4.397,10.254-9.723,21.435-15.977,33.545
			c-4.312,8.35-7.51,13.61-9.594,15.784c-2.085,2.172-3.869,3.259-5.354,3.259c-0.885,0-1.663-0.575-2.334-1.721
			c-0.671-1.148-1.007-2.479-1.007-3.992c0-1.904,0.465-3.638,1.392-5.2c0.929-1.563,1.936-2.344,3.021-2.344
			c0.571,0,1.042,0.22,1.413,0.659c0.229,0.244,0.479,0.939,0.749,2.087c0.272,1.146,0.521,1.916,0.75,2.307
			c0.143,0.244,0.313,0.366,0.514,0.366c0.172,0,0.472-0.245,0.899-0.732c1.57-1.661,3.398-4.297,5.482-7.91
			c2.742-4.786,4.769-8.692,6.083-11.719l-2.399-46.436c-0.399-7.665-0.999-12.329-1.799-13.989c-0.8-1.659-2.142-2.49-4.026-2.49
			c-0.6,0-1.67,0.146-3.212,0.439l-0.386-2.71L1071.604,123.126z"/>
	</g>
</g>
<g id="Layer_5">
	<g enable-background="new    ">
		<path fill="#300063" d="M464.712,693.16c0.533-0.05,0.866-0.155,0.998-0.316s0.198-0.529,0.198-1.105v-6.063
			c0-0.487-0.074-0.809-0.222-0.964s-0.473-0.253-0.974-0.294v-0.26h3.691c1.185,0,2.092,0.23,2.721,0.69s0.943,1.066,0.943,1.818
			c0,0.952-0.349,1.643-1.046,2.071s-1.57,0.643-2.618,0.643c-0.15,0-0.343-0.003-0.578-0.011c-0.235-0.006-0.409-0.01-0.523-0.01
			v2.543c0,0.525,0.081,0.856,0.243,0.993c0.162,0.136,0.523,0.224,1.083,0.265v0.26h-3.917V693.16z M469.436,684.937
			c-0.396-0.173-0.898-0.26-1.504-0.26c-0.287,0-0.464,0.028-0.53,0.085c-0.066,0.058-0.099,0.184-0.099,0.38v3.65
			c0.25,0.022,0.415,0.036,0.492,0.041s0.153,0.007,0.226,0.007c0.643,0,1.148-0.091,1.518-0.273
			c0.67-0.333,1.005-0.955,1.005-1.866C470.543,685.844,470.174,685.256,469.436,684.937z"/>
		<path fill="#300063" d="M473.777,690.405c0.419-0.273,1.255-0.645,2.509-1.114v-0.581c0-0.465-0.045-0.788-0.137-0.971
			c-0.155-0.306-0.476-0.458-0.964-0.458c-0.232,0-0.454,0.06-0.663,0.178c-0.209,0.123-0.314,0.292-0.314,0.506
			c0,0.055,0.011,0.146,0.034,0.277c0.023,0.129,0.034,0.213,0.034,0.249c0,0.255-0.084,0.433-0.253,0.533
			c-0.096,0.06-0.209,0.089-0.342,0.089c-0.205,0-0.362-0.067-0.472-0.201c-0.109-0.135-0.164-0.284-0.164-0.448
			c0-0.319,0.197-0.653,0.591-1.001c0.394-0.35,0.972-0.523,1.733-0.523c0.884,0,1.483,0.287,1.798,0.861
			c0.168,0.314,0.253,0.772,0.253,1.374v2.741c0,0.265,0.018,0.446,0.055,0.547c0.059,0.178,0.182,0.267,0.369,0.267
			c0.105,0,0.191-0.016,0.26-0.048s0.187-0.109,0.355-0.232v0.355c-0.146,0.178-0.303,0.323-0.472,0.438
			c-0.255,0.173-0.515,0.26-0.779,0.26c-0.31,0-0.534-0.101-0.673-0.301s-0.215-0.439-0.229-0.718
			c-0.346,0.301-0.643,0.524-0.889,0.67c-0.415,0.246-0.809,0.369-1.183,0.369c-0.392,0-0.731-0.138-1.019-0.413
			c-0.287-0.276-0.431-0.626-0.431-1.05C472.786,691.398,473.116,690.848,473.777,690.405z M476.286,689.633
			c-0.524,0.173-0.957,0.364-1.299,0.574c-0.656,0.405-0.984,0.866-0.984,1.381c0,0.415,0.137,0.72,0.41,0.916
			c0.178,0.128,0.376,0.191,0.595,0.191c0.301,0,0.589-0.084,0.865-0.253s0.414-0.383,0.414-0.643V689.633z"/>
		<path fill="#300063" d="M478.76,693.229c0.488-0.046,0.795-0.129,0.923-0.25c0.127-0.12,0.191-0.447,0.191-0.98v-3.261
			c0-0.296-0.021-0.501-0.062-0.615c-0.068-0.187-0.212-0.28-0.431-0.28c-0.05,0-0.099,0.005-0.147,0.014s-0.186,0.046-0.414,0.109
			v-0.212l0.294-0.096c0.797-0.26,1.354-0.456,1.668-0.588c0.127-0.055,0.209-0.082,0.246-0.082
			c0.009,0.032,0.014,0.066,0.014,0.103v4.908c0,0.52,0.062,0.846,0.188,0.978s0.409,0.217,0.851,0.253v0.191h-3.322V693.229z
			 M479.847,684.088c0.137-0.141,0.305-0.211,0.506-0.211c0.196,0,0.363,0.069,0.502,0.208c0.139,0.138,0.208,0.307,0.208,0.507
			c0,0.194-0.069,0.361-0.208,0.5c-0.139,0.138-0.307,0.207-0.502,0.207c-0.201,0-0.369-0.069-0.506-0.207
			c-0.137-0.139-0.205-0.306-0.205-0.5C479.642,684.396,479.71,684.229,479.847,684.088z"/>
		<path fill="#300063" d="M486.608,687.179c0.182,0.096,0.358,0.228,0.526,0.396v-2.174c0-0.278-0.031-0.47-0.092-0.574
			s-0.208-0.157-0.441-0.157c-0.055,0-0.103,0.002-0.144,0.007s-0.132,0.014-0.273,0.027v-0.226l0.561-0.144
			c0.205-0.055,0.41-0.111,0.615-0.171s0.385-0.116,0.54-0.171c0.073-0.022,0.194-0.066,0.362-0.13l0.041,0.014l-0.014,0.718
			c-0.004,0.26-0.009,0.527-0.014,0.804c-0.004,0.275-0.007,0.548-0.007,0.816l-0.014,5.585c0,0.296,0.037,0.504,0.109,0.622
			s0.267,0.178,0.581,0.178c0.05,0,0.1-0.001,0.15-0.004c0.05-0.002,0.1-0.008,0.15-0.017v0.226
			c-0.027,0.009-0.358,0.123-0.991,0.342l-1.073,0.403l-0.048-0.062v-0.841c-0.255,0.278-0.476,0.477-0.663,0.595
			c-0.333,0.205-0.718,0.308-1.155,0.308c-0.775,0-1.402-0.3-1.883-0.899c-0.481-0.599-0.721-1.293-0.721-2.081
			c0-0.989,0.288-1.838,0.865-2.546c0.577-0.709,1.282-1.063,2.116-1.063C486.024,686.96,486.33,687.033,486.608,687.179z
			 M486.806,692.497c0.219-0.21,0.328-0.408,0.328-0.595v-2.933c0-0.593-0.158-1.011-0.475-1.255
			c-0.317-0.243-0.625-0.365-0.926-0.365c-0.574,0-1.021,0.254-1.34,0.762c-0.319,0.509-0.479,1.134-0.479,1.877
			c0,0.733,0.17,1.388,0.509,1.962s0.847,0.861,1.521,0.861C486.3,692.812,486.587,692.707,486.806,692.497z"/>
		<path fill="#300063" d="M493.15,693.229c0.483-0.022,0.801-0.113,0.954-0.27c0.153-0.158,0.229-0.489,0.229-0.995v-4.389h-1.169
			v-0.458h1.169c0-0.72,0.098-1.328,0.294-1.825c0.375-0.952,1.062-1.429,2.062-1.429c0.401,0,0.761,0.08,1.078,0.239
			s0.476,0.374,0.476,0.643c0,0.15-0.055,0.285-0.163,0.403c-0.109,0.118-0.241,0.178-0.395,0.178c-0.132,0-0.245-0.04-0.34-0.119
			c-0.095-0.08-0.208-0.221-0.34-0.421l-0.116-0.178c-0.063-0.096-0.139-0.177-0.225-0.243c-0.086-0.065-0.206-0.099-0.36-0.099
			c-0.345,0-0.578,0.171-0.701,0.513c-0.068,0.183-0.102,0.422-0.102,0.718v1.62h1.702v0.458h-1.702v4.389
			c0,0.515,0.069,0.845,0.208,0.987c0.139,0.145,0.502,0.236,1.09,0.277v0.191h-3.65V693.229z"/>
		<path fill="#300063" d="M498.759,687.947c0.577-0.626,1.318-0.939,2.225-0.939c0.902,0,1.65,0.296,2.242,0.889
			s0.889,1.381,0.889,2.365c0,0.907-0.287,1.695-0.861,2.365s-1.317,1.005-2.229,1.005c-0.875,0-1.616-0.321-2.222-0.964
			s-0.909-1.449-0.909-2.42C497.894,689.341,498.182,688.574,498.759,687.947z M499.851,687.773
			c-0.457,0.415-0.685,1.13-0.685,2.146c0,0.812,0.184,1.567,0.551,2.27s0.878,1.053,1.531,1.053c0.511,0,0.905-0.234,1.181-0.704
			c0.276-0.47,0.415-1.085,0.415-1.846c0-0.788-0.176-1.531-0.527-2.229s-0.861-1.046-1.527-1.046
			C500.428,687.418,500.115,687.536,499.851,687.773z"/>
		<path fill="#300063" d="M504.6,693.194c0.419-0.036,0.697-0.11,0.834-0.222c0.137-0.112,0.205-0.351,0.205-0.715v-3.083
			c0-0.451-0.042-0.773-0.126-0.968c-0.084-0.193-0.238-0.29-0.461-0.29c-0.045,0-0.106,0.006-0.181,0.017
			c-0.075,0.012-0.154,0.026-0.236,0.045v-0.226c0.259-0.091,0.524-0.185,0.797-0.28c0.272-0.096,0.461-0.164,0.565-0.205
			c0.227-0.087,0.461-0.185,0.702-0.294c0.032,0,0.051,0.012,0.058,0.034s0.01,0.07,0.01,0.144v1.121
			c0.292-0.405,0.575-0.723,0.847-0.95s0.554-0.342,0.847-0.342c0.233,0,0.422,0.069,0.569,0.209
			c0.146,0.139,0.219,0.312,0.219,0.522c0,0.187-0.056,0.344-0.167,0.472s-0.252,0.191-0.42,0.191c-0.173,0-0.348-0.08-0.523-0.239
			s-0.313-0.239-0.414-0.239c-0.16,0-0.355,0.129-0.588,0.387c-0.232,0.257-0.349,0.522-0.349,0.796v3.083
			c0,0.392,0.091,0.664,0.273,0.816c0.182,0.153,0.485,0.225,0.909,0.216v0.226h-3.37V693.194z"/>
		<path fill="#300063" d="M512.749,684.725v-0.232c0.521-0.118,0.99-0.251,1.406-0.396s0.64-0.219,0.672-0.219
			c0.009,0.027,0.014,0.055,0.014,0.082v4.163c0.118-0.219,0.296-0.427,0.532-0.622c0.419-0.342,0.901-0.513,1.447-0.513
			c0.668,0,1.24,0.282,1.713,0.848s0.71,1.299,0.71,2.201c0,0.966-0.308,1.793-0.923,2.481s-1.424,1.032-2.427,1.032
			c-0.506,0-1.002-0.101-1.49-0.301s-0.731-0.401-0.731-0.602v-7.226c0-0.265-0.037-0.452-0.109-0.564
			c-0.073-0.111-0.242-0.167-0.506-0.167L512.749,684.725z M515.351,692.925c0.313,0.103,0.588,0.153,0.824,0.153
			c0.635,0,1.106-0.239,1.413-0.717s0.459-1.056,0.459-1.734c0-0.678-0.143-1.305-0.429-1.881c-0.286-0.575-0.749-0.863-1.389-0.863
			c-0.322,0-0.638,0.099-0.946,0.297s-0.463,0.449-0.463,0.755v3.481C514.861,692.652,515.038,692.822,515.351,692.925z"/>
		<path fill="#300063" d="M519.892,687.138h2.885v0.191c-0.228,0.005-0.396,0.025-0.506,0.062c-0.209,0.062-0.314,0.18-0.314,0.357
			c0,0.064,0.011,0.131,0.034,0.199c0.023,0.067,0.064,0.169,0.123,0.304l1.582,3.421l1.303-3.448
			c0.014-0.037,0.035-0.121,0.065-0.252s0.044-0.219,0.044-0.266c0-0.121-0.041-0.21-0.123-0.266
			c-0.082-0.057-0.187-0.089-0.314-0.099l-0.212-0.014v-0.191h1.88v0.191c-0.187,0.023-0.327,0.09-0.42,0.197
			c-0.093,0.108-0.174,0.259-0.243,0.452l-2.153,5.701c-0.374,0.984-0.731,1.697-1.073,2.14s-0.775,0.663-1.299,0.663
			c-0.255,0-0.495-0.063-0.718-0.191s-0.335-0.33-0.335-0.608c0-0.183,0.066-0.331,0.199-0.448c0.133-0.115,0.3-0.174,0.503-0.174
			c0.117,0,0.292,0.043,0.523,0.13c0.231,0.087,0.397,0.13,0.496,0.13c0.252,0,0.518-0.31,0.797-0.928
			c0.279-0.619,0.418-1.028,0.418-1.227c0-0.04-0.006-0.09-0.02-0.148s-0.028-0.11-0.045-0.155l-2.154-4.658
			c-0.155-0.337-0.291-0.56-0.407-0.667c-0.116-0.106-0.288-0.176-0.516-0.208V687.138z"/>
		<path fill="#300063" d="M531.103,690.604c0.237,0.629,0.514,1.13,0.833,1.504c0.555,0.651,1.245,0.978,2.068,0.978
			c0.446,0,0.832-0.142,1.157-0.424c0.325-0.282,0.488-0.677,0.488-1.183c0-0.456-0.164-0.853-0.491-1.189
			c-0.214-0.214-0.664-0.535-1.351-0.964l-1.194-0.745c-0.359-0.228-0.646-0.458-0.86-0.69c-0.396-0.442-0.595-0.93-0.595-1.463
			c0-0.706,0.235-1.294,0.704-1.764s1.091-0.704,1.866-0.704c0.319,0,0.703,0.078,1.152,0.236c0.449,0.156,0.705,0.235,0.769,0.235
			c0.173,0,0.293-0.041,0.359-0.123s0.117-0.198,0.154-0.349h0.287l0.308,2.98h-0.335c-0.228-0.897-0.594-1.524-1.097-1.88
			s-1.001-0.533-1.494-0.533c-0.383,0-0.717,0.112-1.001,0.339c-0.285,0.225-0.427,0.538-0.427,0.939
			c0,0.36,0.109,0.668,0.328,0.923c0.218,0.26,0.557,0.531,1.017,0.813l1.229,0.759c0.77,0.474,1.312,0.909,1.628,1.306
			c0.311,0.401,0.467,0.875,0.467,1.422c0,0.733-0.277,1.347-0.831,1.839s-1.261,0.738-2.123,0.738
			c-0.433,0-0.885-0.082-1.357-0.246s-0.742-0.246-0.81-0.246c-0.164,0-0.274,0.05-0.332,0.15s-0.095,0.207-0.113,0.321h-0.308
			l-0.417-2.98H531.103z"/>
		<path fill="#300063" d="M540.154,687.09v4.375c0,0.31,0.043,0.559,0.13,0.745c0.168,0.347,0.479,0.52,0.93,0.52
			c0.31,0,0.613-0.103,0.909-0.308c0.168-0.114,0.339-0.271,0.513-0.472v-3.746c0-0.351-0.068-0.581-0.205-0.69
			s-0.41-0.176-0.82-0.198v-0.226h2.208v4.812c0,0.31,0.056,0.523,0.167,0.639c0.112,0.117,0.348,0.168,0.708,0.154v0.191
			c-0.25,0.068-0.435,0.119-0.554,0.154c-0.119,0.033-0.317,0.097-0.595,0.188c-0.119,0.041-0.378,0.139-0.779,0.294
			c-0.023,0-0.037-0.011-0.041-0.03c-0.004-0.021-0.007-0.045-0.007-0.072v-1.101c-0.31,0.369-0.592,0.643-0.848,0.82
			c-0.387,0.273-0.797,0.41-1.23,0.41c-0.396,0-0.77-0.142-1.121-0.425c-0.355-0.278-0.533-0.746-0.533-1.402v-3.553
			c0-0.361-0.078-0.604-0.232-0.726c-0.1-0.077-0.314-0.132-0.643-0.163v-0.191H540.154z"/>
		<path fill="#300063" d="M545.055,696.243c0.425-0.027,0.696-0.118,0.811-0.273c0.116-0.155,0.173-0.398,0.173-0.731v-6.562
			c0-0.347-0.042-0.568-0.126-0.666c-0.084-0.099-0.243-0.147-0.475-0.147c-0.05,0-0.097,0.002-0.14,0.007s-0.106,0.014-0.188,0.027
			v-0.226l0.649-0.212c0.023-0.005,0.481-0.162,1.374-0.472c0.023,0,0.04,0.011,0.051,0.03c0.011,0.021,0.017,0.045,0.017,0.072
			v0.923c0.301-0.301,0.565-0.524,0.793-0.67c0.41-0.255,0.832-0.383,1.265-0.383c0.629,0,1.17,0.268,1.624,0.803
			c0.454,0.534,0.68,1.267,0.68,2.195c0,0.91-0.272,1.736-0.817,2.479s-1.229,1.113-2.054,1.113c-0.255,0-0.476-0.032-0.663-0.096
			c-0.292-0.096-0.561-0.271-0.807-0.526v2.242c0,0.46,0.075,0.743,0.226,0.848s0.479,0.176,0.984,0.212v0.239h-3.377V696.243z
			 M547.752,692.85c0.235,0.152,0.512,0.229,0.831,0.229c0.492,0,0.913-0.244,1.261-0.734c0.349-0.488,0.523-1.17,0.523-2.044
			c0-0.838-0.181-1.464-0.543-1.878s-0.783-0.621-1.261-0.621c-0.337,0-0.645,0.104-0.923,0.311s-0.417,0.411-0.417,0.611v3.434
			C547.341,692.466,547.517,692.697,547.752,692.85z"/>
		<path fill="#300063" d="M552.055,696.243c0.425-0.027,0.696-0.118,0.811-0.273c0.116-0.155,0.173-0.398,0.173-0.731v-6.562
			c0-0.347-0.042-0.568-0.126-0.666c-0.084-0.099-0.243-0.147-0.475-0.147c-0.05,0-0.097,0.002-0.14,0.007s-0.106,0.014-0.188,0.027
			v-0.226l0.649-0.212c0.023-0.005,0.481-0.162,1.374-0.472c0.023,0,0.04,0.011,0.051,0.03c0.011,0.021,0.017,0.045,0.017,0.072
			v0.923c0.301-0.301,0.565-0.524,0.793-0.67c0.41-0.255,0.832-0.383,1.265-0.383c0.629,0,1.17,0.268,1.624,0.803
			c0.454,0.534,0.68,1.267,0.68,2.195c0,0.91-0.272,1.736-0.817,2.479s-1.229,1.113-2.054,1.113c-0.255,0-0.476-0.032-0.663-0.096
			c-0.292-0.096-0.561-0.271-0.807-0.526v2.242c0,0.46,0.075,0.743,0.226,0.848s0.479,0.176,0.984,0.212v0.239h-3.377V696.243z
			 M554.752,692.85c0.235,0.152,0.512,0.229,0.831,0.229c0.492,0,0.913-0.244,1.261-0.734c0.349-0.488,0.523-1.17,0.523-2.044
			c0-0.838-0.181-1.464-0.543-1.878s-0.783-0.621-1.261-0.621c-0.337,0-0.645,0.104-0.923,0.311s-0.417,0.411-0.417,0.611v3.434
			C554.341,692.466,554.517,692.697,554.752,692.85z"/>
		<path fill="#300063" d="M560.207,687.947c0.577-0.626,1.318-0.939,2.225-0.939c0.902,0,1.65,0.296,2.242,0.889
			s0.889,1.381,0.889,2.365c0,0.907-0.287,1.695-0.861,2.365s-1.317,1.005-2.229,1.005c-0.875,0-1.616-0.321-2.222-0.964
			s-0.909-1.449-0.909-2.42C559.342,689.341,559.63,688.574,560.207,687.947z M561.299,687.773c-0.457,0.415-0.685,1.13-0.685,2.146
			c0,0.812,0.184,1.567,0.551,2.27s0.878,1.053,1.531,1.053c0.511,0,0.905-0.234,1.181-0.704c0.276-0.47,0.415-1.085,0.415-1.846
			c0-0.788-0.176-1.531-0.527-2.229s-0.861-1.046-1.527-1.046C561.876,687.418,561.563,687.536,561.299,687.773z"/>
		<path fill="#300063" d="M566.048,693.194c0.419-0.036,0.697-0.11,0.834-0.222c0.137-0.112,0.205-0.351,0.205-0.715v-3.083
			c0-0.451-0.042-0.773-0.126-0.968c-0.084-0.193-0.238-0.29-0.461-0.29c-0.045,0-0.106,0.006-0.181,0.017
			c-0.075,0.012-0.154,0.026-0.236,0.045v-0.226c0.259-0.091,0.524-0.185,0.797-0.28c0.272-0.096,0.461-0.164,0.565-0.205
			c0.227-0.087,0.461-0.185,0.702-0.294c0.032,0,0.051,0.012,0.058,0.034s0.01,0.07,0.01,0.144v1.121
			c0.292-0.405,0.575-0.723,0.847-0.95s0.554-0.342,0.847-0.342c0.233,0,0.422,0.069,0.569,0.209
			c0.146,0.139,0.219,0.312,0.219,0.522c0,0.187-0.056,0.344-0.167,0.472s-0.252,0.191-0.42,0.191c-0.173,0-0.348-0.08-0.523-0.239
			s-0.313-0.239-0.414-0.239c-0.16,0-0.355,0.129-0.588,0.387c-0.232,0.257-0.349,0.522-0.349,0.796v3.083
			c0,0.392,0.091,0.664,0.273,0.816c0.182,0.153,0.485,0.225,0.909,0.216v0.226h-3.37V693.194z"/>
		<path fill="#300063" d="M574.21,687.117v0.492h-1.395l-0.014,3.938c0,0.347,0.03,0.608,0.089,0.786
			c0.109,0.314,0.324,0.472,0.643,0.472c0.164,0,0.307-0.039,0.427-0.116s0.259-0.2,0.414-0.369l0.178,0.15l-0.15,0.205
			c-0.237,0.319-0.488,0.545-0.752,0.677s-0.52,0.198-0.766,0.198c-0.538,0-0.902-0.239-1.094-0.718
			c-0.105-0.26-0.157-0.62-0.157-1.08v-4.143h-0.745c-0.023-0.014-0.04-0.027-0.051-0.041s-0.017-0.032-0.017-0.055
			c0-0.046,0.01-0.081,0.031-0.105c0.021-0.025,0.085-0.084,0.195-0.175c0.314-0.26,0.541-0.471,0.68-0.632
			c0.139-0.162,0.466-0.59,0.981-1.282c0.059,0,0.095,0.005,0.106,0.014s0.017,0.043,0.017,0.103v1.682H574.21z"/>
		<path fill="#300063" d="M579.433,687.674c0.483,0.445,0.725,1.075,0.725,1.891h-4.341c0.045,1.055,0.285,1.823,0.718,2.306
			c0.433,0.481,0.946,0.723,1.538,0.723c0.479,0,0.882-0.125,1.21-0.375s0.631-0.604,0.909-1.064l0.239,0.082
			c-0.187,0.58-0.537,1.116-1.049,1.609s-1.141,0.739-1.883,0.739c-0.857,0-1.519-0.323-1.986-0.971s-0.701-1.393-0.701-2.235
			c0-0.916,0.271-1.707,0.813-2.372s1.249-0.998,2.119-0.998C578.387,687.008,578.95,687.23,579.433,687.674z M576.159,688.197
			c-0.146,0.246-0.25,0.556-0.314,0.93h2.885c-0.05-0.456-0.137-0.795-0.26-1.019c-0.223-0.401-0.597-0.602-1.121-0.602
			C576.829,687.507,576.432,687.737,576.159,688.197z"/>
		<path fill="#300063" d="M580.814,693.194c0.419-0.036,0.697-0.11,0.834-0.222c0.137-0.112,0.205-0.351,0.205-0.715v-3.083
			c0-0.451-0.042-0.773-0.126-0.968c-0.084-0.193-0.238-0.29-0.461-0.29c-0.045,0-0.106,0.006-0.181,0.017
			c-0.075,0.012-0.154,0.026-0.236,0.045v-0.226c0.259-0.091,0.524-0.185,0.797-0.28c0.272-0.096,0.461-0.164,0.565-0.205
			c0.227-0.087,0.461-0.185,0.702-0.294c0.032,0,0.051,0.012,0.058,0.034s0.01,0.07,0.01,0.144v1.121
			c0.292-0.405,0.575-0.723,0.847-0.95s0.554-0.342,0.847-0.342c0.233,0,0.422,0.069,0.569,0.209
			c0.146,0.139,0.219,0.312,0.219,0.522c0,0.187-0.056,0.344-0.167,0.472s-0.252,0.191-0.42,0.191c-0.173,0-0.348-0.08-0.523-0.239
			s-0.313-0.239-0.414-0.239c-0.16,0-0.355,0.129-0.588,0.387c-0.232,0.257-0.349,0.522-0.349,0.796v3.083
			c0,0.392,0.091,0.664,0.273,0.816c0.182,0.153,0.485,0.225,0.909,0.216v0.226h-3.37V693.194z"/>
		<path fill="#300063" d="M586.146,691.267h0.226c0.104,0.52,0.246,0.918,0.423,1.196c0.318,0.511,0.784,0.766,1.398,0.766
			c0.341,0,0.61-0.095,0.808-0.283c0.198-0.189,0.297-0.435,0.297-0.735c0-0.191-0.057-0.376-0.171-0.554s-0.314-0.351-0.602-0.52
			l-0.765-0.438c-0.561-0.301-0.973-0.604-1.238-0.909c-0.264-0.306-0.396-0.665-0.396-1.08c0-0.511,0.182-0.93,0.547-1.258
			s0.823-0.492,1.374-0.492c0.242,0,0.507,0.046,0.796,0.137s0.452,0.137,0.489,0.137c0.082,0,0.141-0.012,0.178-0.034
			s0.068-0.06,0.096-0.109h0.164l0.048,1.907h-0.212c-0.091-0.442-0.214-0.786-0.369-1.032c-0.283-0.456-0.69-0.684-1.224-0.684
			c-0.319,0-0.57,0.098-0.752,0.294s-0.273,0.426-0.273,0.69c0,0.419,0.314,0.793,0.943,1.121l0.902,0.485
			c0.971,0.528,1.456,1.144,1.456,1.846c0,0.538-0.201,0.978-0.604,1.319s-0.929,0.513-1.58,0.513c-0.273,0-0.583-0.046-0.928-0.137
			s-0.55-0.137-0.614-0.137c-0.055,0-0.103,0.02-0.143,0.058c-0.041,0.039-0.073,0.086-0.096,0.141h-0.178V691.267z"/>
		<path fill="#300063" d="M595.583,687.947c0.577-0.626,1.318-0.939,2.225-0.939c0.902,0,1.65,0.296,2.242,0.889
			s0.889,1.381,0.889,2.365c0,0.907-0.287,1.695-0.862,2.365c-0.574,0.67-1.317,1.005-2.229,1.005c-0.875,0-1.616-0.321-2.222-0.964
			s-0.909-1.449-0.909-2.42C594.718,689.341,595.006,688.574,595.583,687.947z M596.675,687.773
			c-0.457,0.415-0.685,1.13-0.685,2.146c0,0.812,0.184,1.567,0.551,2.27s0.878,1.053,1.531,1.053c0.511,0,0.905-0.234,1.181-0.704
			c0.276-0.47,0.415-1.085,0.415-1.846c0-0.788-0.176-1.531-0.527-2.229s-0.861-1.046-1.527-1.046
			C597.252,687.418,596.939,687.536,596.675,687.773z"/>
		<path fill="#300063" d="M601.637,693.229c0.482-0.022,0.801-0.113,0.953-0.27c0.152-0.158,0.229-0.489,0.229-0.995v-4.389h-1.168
			v-0.458h1.168c0-0.72,0.099-1.328,0.295-1.825c0.375-0.952,1.062-1.429,2.062-1.429c0.401,0,0.761,0.08,1.078,0.239
			s0.476,0.374,0.476,0.643c0,0.15-0.055,0.285-0.162,0.403c-0.109,0.118-0.241,0.178-0.395,0.178c-0.133,0-0.246-0.04-0.341-0.119
			c-0.095-0.08-0.208-0.221-0.34-0.421l-0.116-0.178c-0.062-0.096-0.139-0.177-0.225-0.243c-0.086-0.065-0.205-0.099-0.359-0.099
			c-0.346,0-0.578,0.171-0.701,0.513c-0.068,0.183-0.102,0.422-0.102,0.718v1.62h1.701v0.458h-1.701v4.389
			c0,0.515,0.068,0.845,0.208,0.987c0.14,0.145,0.503,0.236,1.091,0.277v0.191h-3.65V693.229z"/>
		<path fill="#300063" d="M609.682,693.16c0.516-0.055,0.85-0.146,1.002-0.275s0.229-0.457,0.229-0.982v-6.228
			c0-0.497-0.074-0.821-0.225-0.974c-0.15-0.153-0.486-0.248-1.006-0.284v-0.26h7.438l0.049,2.003h-0.355
			c-0.119-0.617-0.297-1.016-0.533-1.197c-0.237-0.182-0.766-0.272-1.586-0.272h-1.906c-0.206,0-0.332,0.033-0.381,0.099
			c-0.048,0.066-0.072,0.19-0.072,0.373v3.124h2.16c0.598,0,0.979-0.088,1.143-0.266c0.164-0.177,0.296-0.534,0.396-1.074h0.328
			v3.233h-0.328c-0.105-0.542-0.24-0.901-0.404-1.076c-0.164-0.176-0.542-0.264-1.135-0.264h-2.16v3.466
			c0,0.278,0.088,0.442,0.264,0.492s0.702,0.075,1.578,0.075c0.949,0,1.65-0.104,2.102-0.311c0.452-0.208,0.858-0.71,1.219-1.508
			h0.389l-0.635,2.365h-7.568V693.16z"/>
		<path fill="#300063" d="M619.372,690.392c-0.229-0.351-0.345-0.745-0.345-1.183c0-0.533,0.211-1.039,0.635-1.518
			s1.023-0.718,1.799-0.718c0.332,0,0.699,0.079,1.1,0.235c0.401,0.158,0.787,0.236,1.156,0.236c0.096,0,0.24-0.004,0.434-0.01
			c0.193-0.008,0.334-0.011,0.42-0.011h0.082v0.554h-1.182c0.082,0.191,0.146,0.357,0.191,0.499
			c0.077,0.265,0.115,0.515,0.115,0.752c0,0.52-0.215,0.997-0.646,1.433c-0.431,0.435-1.011,0.652-1.739,0.652
			c-0.114,0-0.319-0.021-0.615-0.062c-0.133,0-0.309,0.111-0.527,0.335s-0.328,0.405-0.328,0.547c0,0.146,0.16,0.253,0.48,0.321
			c0.209,0.046,0.441,0.068,0.697,0.068c1.174,0,1.97,0.066,2.39,0.198c0.688,0.214,1.034,0.675,1.034,1.381
			c0,0.72-0.402,1.294-1.207,1.723s-1.617,0.643-2.438,0.643c-0.747,0-1.34-0.151-1.777-0.455c-0.438-0.303-0.656-0.62-0.656-0.953
			c0-0.164,0.059-0.324,0.174-0.482c0.116-0.156,0.344-0.391,0.685-0.7l0.449-0.403l0.082-0.082
			c-0.208-0.082-0.364-0.162-0.468-0.239c-0.182-0.142-0.271-0.303-0.271-0.485c0-0.169,0.078-0.354,0.235-0.557
			c0.157-0.203,0.493-0.532,1.009-0.988C619.925,690.986,619.602,690.742,619.372,690.392z M620.097,695.478
			c0.431,0.146,0.924,0.219,1.479,0.219c0.757,0,1.372-0.131,1.846-0.394c0.475-0.262,0.711-0.584,0.711-0.967
			c0-0.306-0.191-0.508-0.574-0.608c-0.238-0.06-0.688-0.094-1.35-0.103c-0.17-0.005-0.348-0.01-0.535-0.018
			c-0.188-0.006-0.357-0.015-0.514-0.023c-0.1-0.005-0.262-0.022-0.486-0.055c-0.223-0.032-0.391-0.06-0.5-0.082
			c-0.055,0-0.188,0.144-0.398,0.431c-0.217,0.292-0.324,0.561-0.324,0.807C619.451,695.067,619.666,695.332,620.097,695.478z
			 M622.268,690.781c0.273-0.219,0.41-0.6,0.41-1.142c0-0.433-0.111-0.921-0.332-1.463s-0.589-0.813-1.104-0.813
			c-0.447,0-0.755,0.212-0.924,0.636c-0.086,0.224-0.129,0.499-0.129,0.827c0,0.556,0.134,1.055,0.402,1.497
			c0.27,0.442,0.618,0.663,1.047,0.663C621.889,690.986,622.099,690.918,622.268,690.781z"/>
		<path fill="#300063" d="M626.372,690.392c-0.229-0.351-0.345-0.745-0.345-1.183c0-0.533,0.211-1.039,0.635-1.518
			s1.023-0.718,1.799-0.718c0.332,0,0.699,0.079,1.1,0.235c0.401,0.158,0.787,0.236,1.156,0.236c0.096,0,0.24-0.004,0.434-0.01
			c0.193-0.008,0.334-0.011,0.42-0.011h0.082v0.554h-1.182c0.082,0.191,0.146,0.357,0.191,0.499
			c0.077,0.265,0.115,0.515,0.115,0.752c0,0.52-0.215,0.997-0.646,1.433c-0.431,0.435-1.011,0.652-1.739,0.652
			c-0.114,0-0.319-0.021-0.615-0.062c-0.133,0-0.309,0.111-0.527,0.335s-0.328,0.405-0.328,0.547c0,0.146,0.16,0.253,0.48,0.321
			c0.209,0.046,0.441,0.068,0.697,0.068c1.174,0,1.97,0.066,2.39,0.198c0.688,0.214,1.034,0.675,1.034,1.381
			c0,0.72-0.402,1.294-1.207,1.723s-1.617,0.643-2.438,0.643c-0.747,0-1.34-0.151-1.777-0.455c-0.438-0.303-0.656-0.62-0.656-0.953
			c0-0.164,0.059-0.324,0.174-0.482c0.116-0.156,0.344-0.391,0.685-0.7l0.449-0.403l0.082-0.082
			c-0.208-0.082-0.364-0.162-0.468-0.239c-0.182-0.142-0.271-0.303-0.271-0.485c0-0.169,0.078-0.354,0.235-0.557
			c0.157-0.203,0.493-0.532,1.009-0.988C626.925,690.986,626.602,690.742,626.372,690.392z M627.097,695.478
			c0.431,0.146,0.924,0.219,1.479,0.219c0.757,0,1.372-0.131,1.846-0.394c0.475-0.262,0.711-0.584,0.711-0.967
			c0-0.306-0.191-0.508-0.574-0.608c-0.238-0.06-0.688-0.094-1.35-0.103c-0.17-0.005-0.348-0.01-0.535-0.018
			c-0.188-0.006-0.357-0.015-0.514-0.023c-0.1-0.005-0.262-0.022-0.486-0.055c-0.223-0.032-0.391-0.06-0.5-0.082
			c-0.055,0-0.188,0.144-0.398,0.431c-0.217,0.292-0.324,0.561-0.324,0.807C626.451,695.067,626.666,695.332,627.097,695.478z
			 M629.268,690.781c0.273-0.219,0.41-0.6,0.41-1.142c0-0.433-0.111-0.921-0.332-1.463s-0.589-0.813-1.104-0.813
			c-0.447,0-0.755,0.212-0.924,0.636c-0.086,0.224-0.129,0.499-0.129,0.827c0,0.556,0.134,1.055,0.402,1.497
			c0.27,0.442,0.618,0.663,1.047,0.663C628.889,690.986,629.099,690.918,629.268,690.781z"/>
		<path fill="#300063" d="M632.145,696.243c0.426-0.027,0.696-0.118,0.812-0.273c0.116-0.155,0.173-0.398,0.173-0.731v-6.562
			c0-0.347-0.041-0.568-0.126-0.666c-0.085-0.099-0.243-0.147-0.476-0.147c-0.05,0-0.096,0.002-0.14,0.007s-0.106,0.014-0.188,0.027
			v-0.226l0.65-0.212c0.022-0.005,0.48-0.162,1.373-0.472c0.023,0,0.041,0.011,0.052,0.03c0.011,0.021,0.017,0.045,0.017,0.072
			v0.923c0.301-0.301,0.565-0.524,0.793-0.67c0.41-0.255,0.832-0.383,1.266-0.383c0.629,0,1.17,0.268,1.623,0.803
			c0.453,0.534,0.68,1.267,0.68,2.195c0,0.91-0.271,1.736-0.816,2.479s-1.229,1.113-2.055,1.113c-0.255,0-0.476-0.032-0.662-0.096
			c-0.292-0.096-0.561-0.271-0.807-0.526v2.242c0,0.46,0.074,0.743,0.225,0.848s0.479,0.176,0.984,0.212v0.239h-3.377V696.243z
			 M634.842,692.85c0.234,0.152,0.512,0.229,0.83,0.229c0.492,0,0.913-0.244,1.262-0.734c0.349-0.488,0.523-1.17,0.523-2.044
			c0-0.838-0.182-1.464-0.544-1.878s-0.782-0.621-1.261-0.621c-0.338,0-0.646,0.104-0.924,0.311
			c-0.277,0.207-0.416,0.411-0.416,0.611v3.434C634.431,692.466,634.607,692.697,634.842,692.85z"/>
		<path fill="#300063" d="M639.363,693.229c0.424-0.041,0.711-0.127,0.861-0.256c0.15-0.131,0.227-0.385,0.227-0.763v-6.679
			c0-0.301-0.025-0.508-0.076-0.622c-0.091-0.191-0.275-0.287-0.553-0.287c-0.064,0-0.134,0.007-0.209,0.021
			s-0.17,0.034-0.283,0.062v-0.226c0.615-0.164,1.355-0.383,2.221-0.656c0.032,0,0.052,0.014,0.059,0.041s0.01,0.087,0.01,0.178
			v8.196c0,0.396,0.068,0.653,0.205,0.769c0.137,0.117,0.42,0.19,0.848,0.223v0.191h-3.309V693.229z"/>
		<path fill="#300063" d="M644.471,690.405c0.419-0.273,1.255-0.645,2.508-1.114v-0.581c0-0.465-0.045-0.788-0.137-0.971
			c-0.154-0.306-0.476-0.458-0.963-0.458c-0.232,0-0.454,0.06-0.664,0.178c-0.209,0.123-0.314,0.292-0.314,0.506
			c0,0.055,0.012,0.146,0.035,0.277c0.022,0.129,0.033,0.213,0.033,0.249c0,0.255-0.084,0.433-0.252,0.533
			c-0.096,0.06-0.21,0.089-0.342,0.089c-0.205,0-0.363-0.067-0.473-0.201c-0.109-0.135-0.164-0.284-0.164-0.448
			c0-0.319,0.197-0.653,0.592-1.001c0.395-0.35,0.972-0.523,1.732-0.523c0.885,0,1.484,0.287,1.799,0.861
			c0.168,0.314,0.252,0.772,0.252,1.374v2.741c0,0.265,0.019,0.446,0.055,0.547c0.06,0.178,0.183,0.267,0.369,0.267
			c0.105,0,0.191-0.016,0.26-0.048s0.188-0.109,0.355-0.232v0.355c-0.146,0.178-0.303,0.323-0.471,0.438
			c-0.256,0.173-0.516,0.26-0.779,0.26c-0.311,0-0.535-0.101-0.674-0.301s-0.215-0.439-0.229-0.718
			c-0.347,0.301-0.643,0.524-0.889,0.67c-0.415,0.246-0.81,0.369-1.184,0.369c-0.392,0-0.73-0.138-1.018-0.413
			c-0.287-0.276-0.432-0.626-0.432-1.05C643.479,691.398,643.81,690.848,644.471,690.405z M646.979,689.633
			c-0.523,0.173-0.957,0.364-1.299,0.574c-0.656,0.405-0.984,0.866-0.984,1.381c0,0.415,0.137,0.72,0.41,0.916
			c0.178,0.128,0.377,0.191,0.596,0.191c0.301,0,0.588-0.084,0.864-0.253s0.413-0.383,0.413-0.643V689.633z"/>
		<path fill="#300063" d="M649.434,693.229c0.323-0.041,0.55-0.122,0.68-0.242c0.13-0.121,0.195-0.392,0.195-0.811v-3.473
			c0-0.289-0.027-0.493-0.082-0.61c-0.087-0.172-0.265-0.258-0.533-0.258c-0.041,0-0.084,0.002-0.127,0.007s-0.097,0.012-0.16,0.021
			v-0.239c0.187-0.055,0.629-0.196,1.326-0.424l0.643-0.212c0.031,0,0.051,0.012,0.058,0.034s0.011,0.055,0.011,0.096v1.005
			c0.418-0.392,0.746-0.661,0.982-0.807c0.354-0.224,0.723-0.335,1.105-0.335c0.309,0,0.591,0.089,0.846,0.267
			c0.491,0.347,0.736,0.964,0.736,1.853v3.192c0,0.328,0.066,0.565,0.197,0.711s0.35,0.221,0.658,0.226v0.191h-2.92v-0.191
			c0.333-0.046,0.565-0.138,0.697-0.277c0.133-0.139,0.199-0.44,0.199-0.905v-2.919c0-0.392-0.073-0.717-0.219-0.975
			c-0.145-0.257-0.412-0.386-0.801-0.386c-0.268,0-0.54,0.091-0.816,0.273c-0.154,0.104-0.354,0.278-0.598,0.52v3.828
			c0,0.328,0.072,0.548,0.219,0.659c0.146,0.112,0.375,0.173,0.689,0.182v0.191h-2.986V693.229z"/>
		<path fill="#300063" d="M659.742,687.117v0.492h-1.395l-0.014,3.938c0,0.347,0.029,0.608,0.088,0.786
			c0.109,0.314,0.324,0.472,0.643,0.472c0.164,0,0.307-0.039,0.428-0.116s0.259-0.2,0.414-0.369l0.178,0.15l-0.15,0.205
			c-0.237,0.319-0.488,0.545-0.752,0.677c-0.265,0.132-0.52,0.198-0.766,0.198c-0.538,0-0.902-0.239-1.094-0.718
			c-0.105-0.26-0.158-0.62-0.158-1.08v-4.143h-0.744c-0.023-0.014-0.041-0.027-0.052-0.041s-0.017-0.032-0.017-0.055
			c0-0.046,0.01-0.081,0.03-0.105c0.021-0.025,0.085-0.084,0.194-0.175c0.314-0.26,0.541-0.471,0.681-0.632
			c0.14-0.162,0.466-0.59,0.981-1.282c0.059,0,0.094,0.005,0.105,0.014s0.018,0.043,0.018,0.103v1.682H659.742z"/>
		<path fill="#300063" d="M663.844,693.229c0.482-0.022,0.801-0.113,0.953-0.27c0.152-0.158,0.229-0.489,0.229-0.995v-4.389h-1.168
			v-0.458h1.168c0-0.72,0.099-1.328,0.295-1.825c0.375-0.952,1.062-1.429,2.062-1.429c0.401,0,0.761,0.08,1.078,0.239
			s0.476,0.374,0.476,0.643c0,0.15-0.055,0.285-0.162,0.403c-0.109,0.118-0.241,0.178-0.395,0.178c-0.133,0-0.246-0.04-0.341-0.119
			c-0.095-0.08-0.208-0.221-0.34-0.421l-0.116-0.178c-0.062-0.096-0.139-0.177-0.225-0.243c-0.086-0.065-0.205-0.099-0.359-0.099
			c-0.346,0-0.578,0.171-0.701,0.513c-0.068,0.183-0.102,0.422-0.102,0.718v1.62h1.701v0.458h-1.701v4.389
			c0,0.515,0.068,0.845,0.208,0.987c0.14,0.145,0.503,0.236,1.091,0.277v0.191h-3.65V693.229z"/>
		<path fill="#300063" d="M669.452,687.947c0.577-0.626,1.318-0.939,2.226-0.939c0.902,0,1.649,0.296,2.242,0.889
			c0.592,0.593,0.889,1.381,0.889,2.365c0,0.907-0.287,1.695-0.861,2.365s-1.317,1.005-2.229,1.005
			c-0.875,0-1.616-0.321-2.223-0.964c-0.605-0.643-0.908-1.449-0.908-2.42C668.588,689.341,668.875,688.574,669.452,687.947z
			 M670.544,687.773c-0.457,0.415-0.685,1.13-0.685,2.146c0,0.812,0.184,1.567,0.551,2.27s0.878,1.053,1.531,1.053
			c0.511,0,0.904-0.234,1.181-0.704s0.415-1.085,0.415-1.846c0-0.788-0.176-1.531-0.527-2.229s-0.861-1.046-1.527-1.046
			C671.121,687.418,670.809,687.536,670.544,687.773z"/>
		<path fill="#300063" d="M675.293,693.194c0.42-0.036,0.697-0.11,0.834-0.222c0.137-0.112,0.205-0.351,0.205-0.715v-3.083
			c0-0.451-0.041-0.773-0.126-0.968c-0.085-0.193-0.238-0.29-0.462-0.29c-0.045,0-0.105,0.006-0.181,0.017
			c-0.075,0.012-0.153,0.026-0.235,0.045v-0.226c0.258-0.091,0.523-0.185,0.797-0.28c0.272-0.096,0.461-0.164,0.565-0.205
			c0.228-0.087,0.461-0.185,0.702-0.294c0.031,0,0.051,0.012,0.058,0.034s0.011,0.07,0.011,0.144v1.121
			c0.292-0.405,0.574-0.723,0.846-0.95c0.272-0.228,0.555-0.342,0.848-0.342c0.232,0,0.422,0.069,0.568,0.209
			c0.146,0.139,0.219,0.312,0.219,0.522c0,0.187-0.055,0.344-0.167,0.472s-0.252,0.191-0.421,0.191c-0.173,0-0.348-0.08-0.522-0.239
			s-0.313-0.239-0.413-0.239c-0.16,0-0.355,0.129-0.588,0.387c-0.232,0.257-0.35,0.522-0.35,0.796v3.083
			c0,0.392,0.092,0.664,0.273,0.816c0.183,0.153,0.486,0.225,0.91,0.216v0.226h-3.371V693.194z"/>
		<path fill="#300063" d="M683.619,693.16c0.533-0.05,0.866-0.155,0.998-0.316c0.133-0.161,0.199-0.529,0.199-1.105v-6.063
			c0-0.487-0.074-0.809-0.223-0.964s-0.473-0.253-0.975-0.294v-0.26h3.691c1.186,0,2.092,0.23,2.721,0.69s0.943,1.066,0.943,1.818
			c0,0.952-0.348,1.643-1.045,2.071s-1.57,0.643-2.619,0.643c-0.15,0-0.342-0.003-0.577-0.011c-0.235-0.006-0.409-0.01-0.522-0.01
			v2.543c0,0.525,0.08,0.856,0.242,0.993c0.162,0.136,0.523,0.224,1.084,0.265v0.26h-3.918V693.16z M688.344,684.937
			c-0.396-0.173-0.898-0.26-1.504-0.26c-0.287,0-0.465,0.028-0.53,0.085c-0.065,0.058-0.099,0.184-0.099,0.38v3.65
			c0.25,0.022,0.414,0.036,0.492,0.041c0.077,0.005,0.152,0.007,0.225,0.007c0.643,0,1.148-0.091,1.518-0.273
			c0.67-0.333,1.006-0.955,1.006-1.866C689.451,685.844,689.082,685.256,688.344,684.937z"/>
		<path fill="#300063" d="M691.242,693.194c0.419-0.036,0.697-0.11,0.834-0.222c0.137-0.112,0.205-0.351,0.205-0.715v-3.083
			c0-0.451-0.043-0.773-0.127-0.968c-0.084-0.193-0.238-0.29-0.461-0.29c-0.046,0-0.106,0.006-0.182,0.017
			c-0.075,0.012-0.154,0.026-0.236,0.045v-0.226c0.26-0.091,0.525-0.185,0.798-0.28s0.461-0.164,0.565-0.205
			c0.227-0.087,0.461-0.185,0.701-0.294c0.033,0,0.052,0.012,0.059,0.034s0.01,0.07,0.01,0.144v1.121
			c0.293-0.405,0.575-0.723,0.848-0.95c0.271-0.228,0.553-0.342,0.846-0.342c0.233,0,0.423,0.069,0.569,0.209
			c0.146,0.139,0.22,0.312,0.22,0.522c0,0.187-0.057,0.344-0.168,0.472s-0.252,0.191-0.42,0.191c-0.174,0-0.348-0.08-0.523-0.239
			s-0.313-0.239-0.414-0.239c-0.159,0-0.355,0.129-0.588,0.387c-0.232,0.257-0.348,0.522-0.348,0.796v3.083
			c0,0.392,0.091,0.664,0.273,0.816c0.182,0.153,0.484,0.225,0.908,0.216v0.226h-3.369V693.194z"/>
		<path fill="#300063" d="M700.736,687.674c0.483,0.445,0.725,1.075,0.725,1.891h-4.34c0.045,1.055,0.284,1.823,0.717,2.306
			c0.434,0.481,0.946,0.723,1.539,0.723c0.479,0,0.881-0.125,1.209-0.375s0.632-0.604,0.91-1.064l0.238,0.082
			c-0.187,0.58-0.536,1.116-1.049,1.609s-1.141,0.739-1.883,0.739c-0.857,0-1.52-0.323-1.986-0.971s-0.701-1.393-0.701-2.235
			c0-0.916,0.271-1.707,0.814-2.372c0.542-0.665,1.248-0.998,2.119-0.998C699.691,687.008,700.254,687.23,700.736,687.674z
			 M697.463,688.197c-0.146,0.246-0.251,0.556-0.314,0.93h2.885c-0.051-0.456-0.137-0.795-0.26-1.019
			c-0.224-0.401-0.598-0.602-1.121-0.602C698.133,687.507,697.736,687.737,697.463,688.197z"/>
		<path fill="#300063" d="M702.787,691.267h0.227c0.104,0.52,0.245,0.918,0.422,1.196c0.318,0.511,0.785,0.766,1.398,0.766
			c0.342,0,0.61-0.095,0.809-0.283c0.197-0.189,0.297-0.435,0.297-0.735c0-0.191-0.058-0.376-0.172-0.554
			c-0.113-0.178-0.314-0.351-0.602-0.52l-0.765-0.438c-0.561-0.301-0.974-0.604-1.237-0.909c-0.265-0.306-0.396-0.665-0.396-1.08
			c0-0.511,0.182-0.93,0.547-1.258c0.364-0.328,0.822-0.492,1.373-0.492c0.242,0,0.508,0.046,0.797,0.137s0.452,0.137,0.488,0.137
			c0.082,0,0.142-0.012,0.178-0.034c0.037-0.022,0.068-0.06,0.096-0.109h0.164l0.049,1.907h-0.213
			c-0.091-0.442-0.214-0.786-0.369-1.032c-0.282-0.456-0.689-0.684-1.223-0.684c-0.319,0-0.57,0.098-0.752,0.294
			c-0.183,0.196-0.273,0.426-0.273,0.69c0,0.419,0.314,0.793,0.943,1.121l0.902,0.485c0.971,0.528,1.455,1.144,1.455,1.846
			c0,0.538-0.201,0.978-0.604,1.319s-0.93,0.513-1.58,0.513c-0.272,0-0.582-0.046-0.928-0.137s-0.551-0.137-0.614-0.137
			c-0.055,0-0.103,0.02-0.144,0.058c-0.041,0.039-0.072,0.086-0.096,0.141h-0.178V691.267z"/>
		<path fill="#300063" d="M707.777,693.229c0.488-0.046,0.796-0.129,0.924-0.25c0.127-0.12,0.191-0.447,0.191-0.98v-3.261
			c0-0.296-0.021-0.501-0.062-0.615c-0.068-0.187-0.211-0.28-0.43-0.28c-0.051,0-0.1,0.005-0.147,0.014s-0.186,0.046-0.413,0.109
			v-0.212l0.293-0.096c0.798-0.26,1.354-0.456,1.668-0.588c0.128-0.055,0.21-0.082,0.246-0.082c0.01,0.032,0.014,0.066,0.014,0.103
			v4.908c0,0.52,0.062,0.846,0.188,0.978s0.409,0.217,0.851,0.253v0.191h-3.322V693.229z M708.865,684.088
			c0.137-0.141,0.305-0.211,0.506-0.211c0.195,0,0.363,0.069,0.502,0.208c0.139,0.138,0.209,0.307,0.209,0.507
			c0,0.194-0.07,0.361-0.209,0.5c-0.139,0.138-0.307,0.207-0.502,0.207c-0.201,0-0.369-0.069-0.506-0.207
			c-0.137-0.139-0.205-0.306-0.205-0.5C708.66,684.396,708.729,684.229,708.865,684.088z"/>
		<path fill="#300063" d="M715.625,687.179c0.183,0.096,0.358,0.228,0.527,0.396v-2.174c0-0.278-0.031-0.47-0.093-0.574
			s-0.208-0.157-0.44-0.157c-0.055,0-0.104,0.002-0.145,0.007s-0.132,0.014-0.273,0.027v-0.226l0.561-0.144
			c0.205-0.055,0.41-0.111,0.615-0.171s0.386-0.116,0.541-0.171c0.072-0.022,0.193-0.066,0.361-0.13l0.041,0.014l-0.014,0.718
			c-0.004,0.26-0.009,0.527-0.014,0.804c-0.004,0.275-0.006,0.548-0.006,0.816l-0.014,5.585c0,0.296,0.036,0.504,0.109,0.622
			c0.072,0.118,0.266,0.178,0.58,0.178c0.051,0,0.101-0.001,0.15-0.004c0.051-0.002,0.101-0.008,0.15-0.017v0.226
			c-0.027,0.009-0.357,0.123-0.99,0.342l-1.074,0.403l-0.047-0.062v-0.841c-0.256,0.278-0.477,0.477-0.664,0.595
			c-0.332,0.205-0.717,0.308-1.154,0.308c-0.775,0-1.402-0.3-1.884-0.899c-0.481-0.599-0.722-1.293-0.722-2.081
			c0-0.989,0.289-1.838,0.865-2.546c0.576-0.709,1.281-1.063,2.115-1.063C715.042,686.96,715.348,687.033,715.625,687.179z
			 M715.824,692.497c0.219-0.21,0.328-0.408,0.328-0.595v-2.933c0-0.593-0.158-1.011-0.476-1.255
			c-0.317-0.243-0.626-0.365-0.927-0.365c-0.574,0-1.021,0.254-1.34,0.762c-0.318,0.509-0.479,1.134-0.479,1.877
			c0,0.733,0.17,1.388,0.51,1.962s0.847,0.861,1.521,0.861C715.318,692.812,715.605,692.707,715.824,692.497z"/>
		<path fill="#300063" d="M723.289,687.674c0.482,0.445,0.725,1.075,0.725,1.891h-4.342c0.046,1.055,0.285,1.823,0.719,2.306
			c0.433,0.481,0.945,0.723,1.537,0.723c0.479,0,0.883-0.125,1.211-0.375s0.631-0.604,0.908-1.064l0.24,0.082
			c-0.188,0.58-0.537,1.116-1.05,1.609s-1.141,0.739-1.884,0.739c-0.856,0-1.518-0.323-1.985-0.971s-0.7-1.393-0.7-2.235
			c0-0.916,0.271-1.707,0.812-2.372c0.543-0.665,1.249-0.998,2.119-0.998C722.242,687.008,722.806,687.23,723.289,687.674z
			 M720.014,688.197c-0.146,0.246-0.25,0.556-0.314,0.93h2.885c-0.05-0.456-0.137-0.795-0.26-1.019
			c-0.223-0.401-0.597-0.602-1.121-0.602C720.684,687.507,720.287,687.737,720.014,688.197z"/>
		<path fill="#300063" d="M724.861,693.229c0.323-0.041,0.55-0.122,0.68-0.242c0.13-0.121,0.195-0.392,0.195-0.811v-3.473
			c0-0.289-0.027-0.493-0.082-0.61c-0.087-0.172-0.265-0.258-0.533-0.258c-0.041,0-0.084,0.002-0.127,0.007s-0.097,0.012-0.16,0.021
			v-0.239c0.187-0.055,0.629-0.196,1.326-0.424l0.643-0.212c0.031,0,0.051,0.012,0.058,0.034s0.011,0.055,0.011,0.096v1.005
			c0.418-0.392,0.746-0.661,0.982-0.807c0.354-0.224,0.723-0.335,1.105-0.335c0.309,0,0.591,0.089,0.846,0.267
			c0.491,0.347,0.736,0.964,0.736,1.853v3.192c0,0.328,0.066,0.565,0.197,0.711s0.35,0.221,0.658,0.226v0.191h-2.92v-0.191
			c0.333-0.046,0.565-0.138,0.697-0.277c0.133-0.139,0.199-0.44,0.199-0.905v-2.919c0-0.392-0.073-0.717-0.219-0.975
			c-0.145-0.257-0.412-0.386-0.801-0.386c-0.268,0-0.54,0.091-0.816,0.273c-0.154,0.104-0.354,0.278-0.598,0.52v3.828
			c0,0.328,0.072,0.548,0.219,0.659c0.146,0.112,0.375,0.173,0.689,0.182v0.191h-2.986V693.229z"/>
		<path fill="#300063" d="M735.17,687.117v0.492h-1.395l-0.014,3.938c0,0.347,0.029,0.608,0.088,0.786
			c0.109,0.314,0.324,0.472,0.643,0.472c0.164,0,0.307-0.039,0.428-0.116s0.259-0.2,0.414-0.369l0.178,0.15l-0.15,0.205
			c-0.237,0.319-0.488,0.545-0.752,0.677c-0.265,0.132-0.52,0.198-0.766,0.198c-0.538,0-0.902-0.239-1.094-0.718
			c-0.105-0.26-0.158-0.62-0.158-1.08v-4.143h-0.744c-0.023-0.014-0.041-0.027-0.052-0.041s-0.017-0.032-0.017-0.055
			c0-0.046,0.01-0.081,0.03-0.105c0.021-0.025,0.085-0.084,0.194-0.175c0.314-0.26,0.541-0.471,0.681-0.632
			c0.14-0.162,0.466-0.59,0.981-1.282c0.059,0,0.094,0.005,0.105,0.014s0.018,0.043,0.018,0.103v1.682H735.17z"/>
	</g>
	<rect x="456" y="675.601" fill="none" stroke="#300063" stroke-width="1.1047" stroke-miterlimit="10" width="288" height="26"/>
</g>
<g id="Layer_4">
	<g>
		<path fill="#7A2D77" d="M677.788,536.552c-27.663-33.123-70.976-37.489-111.377-76.8c-24.386-23.659-67.335,23.295-55.688,45.86
			c15.651,29.848,51.686,86.991,84.08,112.104C664.32,671.222,733.839,603.523,677.788,536.552"/>
		<path opacity="0.15" enable-background="new    " d="M519.821,512.892c8.008-9.463,5.823-25.112,5.823-25.112
			s6.188,7.278,15.287,7.278l0.729-16.016c0,0,13.831-0.363,25.842-13.83l-40.765-1.457l-14.195,23.295L519.821,512.892"/>
		<g>
			<path fill="#FFE631" d="M523.098,456.841l-3.275,5.822c-8.735-5.822-21.11-21.838-8.735-44.041l5.459,3.641
				C505.263,442.281,521.278,455.384,523.098,456.841"/>
			<path fill="#FFE631" d="M546.028,470.307c13.832,1.456,26.57-9.462,26.57-9.462s-9.463-13.104-23.657-14.561
				c-13.832-1.456-25.844,2.549-26.57,9.1C521.641,462.299,532.197,468.852,546.028,470.307"/>
			<path fill="#FFE631" d="M501.987,484.866c-1.819,14.559,7.279,27.299,7.279,27.299s11.647-10.555,13.468-25.115
				c1.819-14.559-1.456-26.569-7.279-27.298C509.63,459.388,503.807,470.671,501.987,484.866"/>
		</g>
		<path fill="#FCDB1A" d="M515.09,476.858c9.101,12.738,28.754,12.738,28.754,12.738s4.368-20.746-4.731-33.849
			c-9.1-12.74-22.202-18.562-28.753-12.74C503.442,448.833,505.626,463.755,515.09,476.858"/>
	</g>
</g>
<g id="Layer_1_1_">
</g>
</svg>
