<?xml version="1.0" encoding="utf-8"?>
<!-- Generator: Adobe Illustrator 16.0.4, SVG Export Plug-In . SVG Version: 6.00 Build 0)  -->
<!DOCTYPE svg PUBLIC "-//W3C//DTD SVG 1.1//EN" "http://www.w3.org/Graphics/SVG/1.1/DTD/svg11.dtd">
<svg version="1.1" xmlns="http://www.w3.org/2000/svg" xmlns:xlink="http://www.w3.org/1999/xlink" x="0px" y="0px" width="1200px"
	 height="760px" viewBox="0 0 1200 760" enable-background="new 0 0 1200 760" xml:space="preserve">
<g id="Layer_3">
	<rect fill="#7A2D77" width="1200" height="760"/>
</g>
<g id="Layer_2">
	<polyline fill="none" stroke="#FFFFFF" stroke-width="14" stroke-miterlimit="10" points="466.667,732.484 22.222,732.484 
		22.222,27.515 466.667,27.515 	"/>
	<polyline fill="none" stroke="#FFFFFF" stroke-width="14" stroke-miterlimit="10" points="737.777,27.515 1177.777,27.515 
		1177.777,732.484 737.777,732.484 	"/>
	<g>
		<path fill="#FFFFFF" d="M348.079,555.526h6.511l-3.62,17.501h6.12l3.672-17.501h6.51l-3.62,17.501h7.031l-2.24,10.287h-6.979
			l-2.083,10.242h7.214l-2.188,10.286h-7.162l-3.672,17.501h-6.511l3.62-17.501h-6.12l-3.672,17.501h-6.51l3.62-17.501h-7.135
			l2.239-10.286h7.031l2.136-10.242h-7.37l2.24-10.287h7.266L348.079,555.526z M348.678,583.314l-2.135,10.331h6.38l2.136-10.331
			H348.678z"/>
		<path fill="#FFFFFF" d="M380.678,620.81v-65.193h23.359v14.294h-13.229v11.312h12.474v13.982h-12.474v10.999h13.229v14.606
			H380.678z"/>
		<path fill="#FFFFFF" d="M434.371,596.808v-13.672h20.417c0.017,0.445,0.03,0.936,0.039,1.47s0.013,1.321,0.013,2.36
			c0,11.222-1.732,19.928-5.195,26.117c-3.464,6.19-8.338,9.285-14.623,9.285c-3.091,0-5.838-0.795-8.242-2.383
			c-2.405-1.588-4.554-4.015-6.446-7.28c-1.806-3.117-3.208-6.806-4.206-11.066c-0.999-4.26-1.498-8.721-1.498-13.382
			c0-4.868,0.486-9.344,1.458-13.426c0.972-4.082,2.422-7.756,4.349-11.021c1.91-3.177,4.102-5.581,6.576-7.214
			c2.474-1.633,5.143-2.449,8.008-2.449c3.732,0,7.035,1.262,9.909,3.785c2.873,2.523,5.291,6.278,7.253,11.267l-9.011,7.392
			c-1.077-2.522-2.288-4.4-3.633-5.633c-1.346-1.231-2.852-1.849-4.518-1.849c-3.108,0-5.556,1.774-7.344,5.322
			c-1.789,3.548-2.683,8.394-2.683,14.539c0,6.205,0.894,11.088,2.683,14.65c1.788,3.562,4.236,5.344,7.344,5.344
			c2.639,0,4.839-1.105,6.602-3.317c1.762-2.211,2.791-5.158,3.086-8.839H434.371z"/>
		<path fill="#FFFFFF" d="M484.652,596.808v-13.672h20.417c0.017,0.445,0.03,0.936,0.039,1.47s0.013,1.321,0.013,2.36
			c0,11.222-1.732,19.928-5.195,26.117c-3.464,6.19-8.338,9.285-14.623,9.285c-3.091,0-5.838-0.795-8.242-2.383
			c-2.405-1.588-4.554-4.015-6.446-7.28c-1.806-3.117-3.208-6.806-4.206-11.066c-0.999-4.26-1.498-8.721-1.498-13.382
			c0-4.868,0.486-9.344,1.458-13.426c0.972-4.082,2.422-7.756,4.349-11.021c1.91-3.177,4.102-5.581,6.576-7.214
			c2.474-1.633,5.143-2.449,8.008-2.449c3.732,0,7.035,1.262,9.909,3.785c2.873,2.523,5.291,6.278,7.253,11.267l-9.011,7.392
			c-1.077-2.522-2.288-4.4-3.633-5.633c-1.346-1.231-2.852-1.849-4.518-1.849c-3.108,0-5.556,1.774-7.344,5.322
			c-1.789,3.548-2.683,8.394-2.683,14.539c0,6.205,0.894,11.088,2.683,14.65c1.788,3.562,4.236,5.344,7.344,5.344
			c2.639,0,4.839-1.105,6.602-3.317c1.762-2.211,2.791-5.158,3.086-8.839H484.652z"/>
		<path fill="#FFFFFF" d="M526.549,620.81h-9.74v-65.193h10.859c4.253,0,7.24,0.355,8.958,1.068s3.177,1.93,4.375,3.651
			c1.406,1.989,2.478,4.476,3.216,7.459c0.738,2.983,1.107,6.302,1.107,9.953c0,3.89-0.365,7.311-1.094,10.265
			c-0.729,2.954-1.806,5.381-3.229,7.28c-1.077,1.425-2.344,2.449-3.802,3.073c-1.458,0.623-3.793,0.935-7.005,0.935h-1.771h-1.875
			V620.81z M526.549,584.962h1.979c2.5,0,4.245-0.586,5.234-1.759c0.99-1.173,1.484-3.169,1.484-5.989
			c0-2.731-0.486-4.676-1.458-5.834c-0.973-1.158-2.691-1.736-5.156-1.736h-2.083V584.962z"/>
		<path fill="#FFFFFF" d="M555.945,620.81v-65.193h10.391v49.964h12.917v15.229H555.945z"/>
		<path fill="#FFFFFF" d="M585.185,620.81l13.151-65.193h13.021l13.177,65.193h-10.339l-1.927-11.667h-14.766l-1.979,11.667H585.185
			z M599.742,596.451h10.339l-3.88-21.509c-0.122-0.652-0.287-1.707-0.495-3.162c-0.208-1.454-0.478-3.324-0.808-5.61
			c-0.226,1.603-0.447,3.132-0.664,4.587c-0.217,1.454-0.438,2.85-0.664,4.186L599.742,596.451z"/>
		<path fill="#FFFFFF" d="M633.514,620.81v-65.193h10.025l14.401,33.531c0.277,0.684,0.733,2.057,1.367,4.119
			c0.634,2.064,1.333,4.521,2.097,7.37c-0.209-2.701-0.361-5.105-0.456-7.214c-0.096-2.107-0.144-3.978-0.144-5.611v-32.195h9.975
			v65.193h-9.975l-14.4-33.666c-0.296-0.683-0.76-2.055-1.394-4.119c-0.634-2.062-1.324-4.489-2.07-7.28
			c0.208,2.731,0.36,5.15,0.456,7.259c0.095,2.107,0.143,3.979,0.143,5.61v32.196H633.514z"/>
		<path fill="#FFFFFF" d="M689.784,620.81v-49.786h-8.542v-15.407h27.475v15.407h-8.541v49.786H689.784z"/>
		<path fill="#FFFFFF" d="M745.196,620.81h-29.114l17.109-34.646c1.041-2.107,1.81-4.015,2.305-5.722
			c0.494-1.707,0.742-3.303,0.742-4.787c0-2.286-0.422-4.148-1.264-5.589c-0.842-1.439-1.949-2.16-3.32-2.16
			c-1.632,0-2.887,0.891-3.763,2.672c-0.877,1.781-1.315,4.364-1.315,7.749v0.801h-9.166v-0.445c0-7.392,1.263-13.21,3.789-17.456
			c2.525-4.245,5.977-6.368,10.352-6.368c4.271,0,7.673,1.886,10.208,5.656c2.534,3.771,3.802,8.787,3.802,15.051
			c0,3.059-0.399,6.034-1.197,8.929c-0.799,2.895-2.119,6.064-3.959,9.508l-6.875,12.958h11.667V620.81z"/>
		<path fill="#FFFFFF" d="M784.827,589.326c0,10.331-1.28,18.451-3.841,24.358c-2.562,5.908-6.082,8.861-10.561,8.861
			s-8.008-3.006-10.586-9.018s-3.867-14.286-3.867-24.826c0-10.509,1.289-18.762,3.867-24.759s6.107-8.995,10.586-8.995
			c4.549,0,8.086,3.006,10.611,9.018C783.564,569.978,784.827,578.431,784.827,589.326z M765.582,588.702
			c0,7.125,0.387,12.328,1.158,15.608c0.773,3.281,2.002,4.921,3.686,4.921c1.648,0,2.859-1.647,3.633-4.943
			c0.772-3.295,1.158-8.49,1.158-15.586c0-7.035-0.386-12.216-1.158-15.541c-0.773-3.324-1.984-4.987-3.633-4.987
			c-1.701,0-2.934,1.625-3.697,4.876C765.964,576.301,765.582,581.519,765.582,588.702z"/>
		<path fill="#FFFFFF" d="M805.213,620.81v-49.786h-8.178l4.479-14.784h13.177v64.57H805.213z"/>
		<path fill="#FFFFFF" d="M847.291,579.218c0.607-0.327,1.24-0.571,1.9-0.735c0.66-0.163,1.355-0.245,2.084-0.245
			c3.229,0,5.902,1.938,8.021,5.812c2.117,3.874,3.176,8.795,3.176,14.763c0,7.185-1.324,12.936-3.971,17.256
			c-2.648,4.319-6.193,6.479-10.639,6.479c-4.426,0-7.942-2.137-10.547-6.412c-2.604-4.275-3.906-10.02-3.906-17.233
			c0-3.711,0.439-7.526,1.315-11.444c0.876-3.919,2.712-9.619,5.508-17.101l5.339-14.116h10.625L847.291,579.218z M847.76,589.638
			c-1.771,0-3.174,0.898-4.205,2.694c-1.033,1.796-1.551,4.238-1.551,7.325c0,3.058,0.518,5.478,1.551,7.259
			c1.031,1.781,2.434,2.672,4.205,2.672s3.172-0.891,4.205-2.672s1.551-4.201,1.551-7.259c0-3.087-0.518-5.529-1.551-7.325
			S849.531,589.638,847.76,589.638z"/>
	</g>
	<g>
		<polygon fill="#FFFFFF" points="494.75,716.216 498.199,726.826 509.355,726.826 500.33,733.385 503.777,743.995 494.75,737.438 
			485.724,743.995 489.171,733.385 480.146,726.826 491.302,726.826 		"/>
		<polygon fill="#FFFFFF" points="652.625,716.216 656.073,726.826 667.229,726.826 658.205,733.385 661.651,743.995 
			652.625,737.438 643.599,743.995 647.047,733.385 638.021,726.826 649.177,726.826 		"/>
		<polygon fill="#FFFFFF" points="600,716.216 603.448,726.826 614.604,726.826 605.58,733.385 609.026,743.995 600,737.438 
			590.974,743.995 594.421,733.385 585.396,726.826 596.552,726.826 		"/>
		<polygon fill="#FFFFFF" points="705.25,716.216 708.698,726.826 719.854,726.826 710.83,733.385 714.276,743.995 705.25,737.438 
			696.224,743.995 699.672,733.385 690.646,726.826 701.802,726.826 		"/>
		<polygon fill="#FFFFFF" points="547.375,716.216 550.824,726.826 561.98,726.826 552.955,733.385 556.402,743.995 
			547.375,737.438 538.349,743.995 541.796,733.385 532.771,726.826 543.927,726.826 		"/>
	</g>
	<polygon fill="#FFFFFF" points="494.75,13.625 498.199,24.236 509.355,24.236 500.33,30.794 503.777,41.405 494.75,34.848 
		485.724,41.405 489.171,30.794 480.146,24.236 491.302,24.236 	"/>
	<polygon fill="#FFFFFF" points="652.625,13.625 656.073,24.236 667.229,24.236 658.205,30.794 661.651,41.405 652.625,34.848 
		643.599,41.405 647.047,30.794 638.021,24.236 649.177,24.236 	"/>
	<polygon fill="#FFFFFF" points="600,13.625 603.448,24.236 614.604,24.236 605.58,30.794 609.026,41.405 600,34.848 
		590.974,41.405 594.421,30.794 585.396,24.236 596.552,24.236 	"/>
	<polygon fill="#FFFFFF" points="705.25,13.625 708.698,24.236 719.854,24.236 710.83,30.794 714.276,41.405 705.25,34.848 
		696.224,41.405 699.672,30.794 690.646,24.236 701.802,24.236 	"/>
	<polygon fill="#FFFFFF" points="547.375,13.625 550.824,24.236 561.98,24.236 552.955,30.794 556.402,41.405 547.375,34.848 
		538.349,41.405 541.796,30.794 532.771,24.236 543.927,24.236 	"/>
</g>
<g id="Layer_5">
	<g>
		<path fill="#FFFFFF" d="M464.712,682.151c0.533-0.05,0.866-0.155,0.998-0.316s0.198-0.529,0.198-1.105v-6.063
			c0-0.487-0.074-0.809-0.222-0.964s-0.473-0.253-0.974-0.294v-0.26h3.691c1.185,0,2.092,0.23,2.721,0.69s0.943,1.066,0.943,1.818
			c0,0.952-0.349,1.643-1.046,2.071s-1.57,0.643-2.618,0.643c-0.15,0-0.343-0.003-0.578-0.011c-0.235-0.006-0.409-0.01-0.523-0.01
			v2.543c0,0.525,0.081,0.856,0.243,0.993c0.162,0.136,0.523,0.224,1.083,0.265v0.26h-3.917V682.151z M469.436,673.928
			c-0.396-0.173-0.898-0.26-1.504-0.26c-0.287,0-0.464,0.028-0.53,0.085c-0.066,0.058-0.099,0.184-0.099,0.38v3.65
			c0.25,0.022,0.415,0.036,0.492,0.041s0.153,0.007,0.226,0.007c0.643,0,1.148-0.091,1.518-0.273
			c0.67-0.333,1.005-0.955,1.005-1.866C470.543,674.835,470.174,674.247,469.436,673.928z"/>
		<path fill="#FFFFFF" d="M473.777,679.396c0.419-0.273,1.255-0.645,2.509-1.114v-0.581c0-0.465-0.045-0.788-0.137-0.971
			c-0.155-0.306-0.476-0.458-0.964-0.458c-0.232,0-0.454,0.06-0.663,0.178c-0.209,0.123-0.314,0.292-0.314,0.506
			c0,0.055,0.011,0.146,0.034,0.277c0.023,0.129,0.034,0.213,0.034,0.249c0,0.255-0.084,0.433-0.253,0.533
			c-0.096,0.06-0.209,0.089-0.342,0.089c-0.205,0-0.362-0.067-0.472-0.201c-0.109-0.135-0.164-0.284-0.164-0.448
			c0-0.319,0.197-0.653,0.591-1.001c0.394-0.35,0.972-0.523,1.733-0.523c0.884,0,1.483,0.287,1.798,0.861
			c0.168,0.314,0.253,0.772,0.253,1.374v2.741c0,0.265,0.018,0.446,0.055,0.547c0.059,0.178,0.182,0.267,0.369,0.267
			c0.105,0,0.191-0.016,0.26-0.048s0.187-0.109,0.355-0.232v0.355c-0.146,0.178-0.303,0.323-0.472,0.438
			c-0.255,0.173-0.515,0.26-0.779,0.26c-0.31,0-0.534-0.101-0.673-0.301s-0.215-0.439-0.229-0.718
			c-0.346,0.301-0.643,0.524-0.889,0.67c-0.415,0.246-0.809,0.369-1.183,0.369c-0.392,0-0.731-0.138-1.019-0.413
			c-0.287-0.276-0.431-0.626-0.431-1.05C472.786,680.39,473.116,679.839,473.777,679.396z M476.286,678.624
			c-0.524,0.173-0.957,0.364-1.299,0.574c-0.656,0.405-0.984,0.866-0.984,1.381c0,0.415,0.137,0.72,0.41,0.916
			c0.178,0.128,0.376,0.191,0.595,0.191c0.301,0,0.589-0.084,0.865-0.253s0.414-0.383,0.414-0.643V678.624z"/>
		<path fill="#FFFFFF" d="M478.76,682.22c0.488-0.046,0.795-0.129,0.923-0.25c0.127-0.12,0.191-0.447,0.191-0.98v-3.261
			c0-0.296-0.021-0.501-0.062-0.615c-0.068-0.187-0.212-0.28-0.431-0.28c-0.05,0-0.099,0.005-0.147,0.014s-0.186,0.046-0.414,0.109
			v-0.212l0.294-0.096c0.797-0.26,1.354-0.456,1.668-0.588c0.127-0.055,0.209-0.082,0.246-0.082
			c0.009,0.032,0.014,0.066,0.014,0.103v4.908c0,0.52,0.062,0.846,0.188,0.978s0.409,0.217,0.851,0.253v0.191h-3.322V682.22z
			 M479.847,673.079c0.137-0.141,0.305-0.211,0.506-0.211c0.196,0,0.363,0.069,0.502,0.208c0.139,0.138,0.208,0.307,0.208,0.507
			c0,0.194-0.069,0.361-0.208,0.5c-0.139,0.138-0.307,0.207-0.502,0.207c-0.201,0-0.369-0.069-0.506-0.207
			c-0.137-0.139-0.205-0.306-0.205-0.5C479.642,673.388,479.71,673.22,479.847,673.079z"/>
		<path fill="#FFFFFF" d="M486.608,676.17c0.182,0.096,0.358,0.228,0.526,0.396v-2.174c0-0.278-0.031-0.47-0.092-0.574
			s-0.208-0.157-0.441-0.157c-0.055,0-0.103,0.002-0.144,0.007s-0.132,0.014-0.273,0.027v-0.226l0.561-0.144
			c0.205-0.055,0.41-0.111,0.615-0.171s0.385-0.116,0.54-0.171c0.073-0.022,0.194-0.066,0.362-0.13l0.041,0.014l-0.014,0.718
			c-0.004,0.26-0.009,0.527-0.014,0.804c-0.004,0.275-0.007,0.548-0.007,0.816l-0.014,5.585c0,0.296,0.037,0.504,0.109,0.622
			s0.267,0.178,0.581,0.178c0.05,0,0.1-0.001,0.15-0.004c0.05-0.002,0.1-0.008,0.15-0.017v0.226
			c-0.027,0.009-0.358,0.123-0.991,0.342l-1.073,0.403l-0.048-0.062v-0.841c-0.255,0.278-0.476,0.477-0.663,0.595
			c-0.333,0.205-0.718,0.308-1.155,0.308c-0.775,0-1.402-0.3-1.883-0.899c-0.481-0.599-0.721-1.293-0.721-2.081
			c0-0.989,0.288-1.838,0.865-2.546c0.577-0.709,1.282-1.063,2.116-1.063C486.024,675.951,486.33,676.024,486.608,676.17z
			 M486.806,681.488c0.219-0.21,0.328-0.408,0.328-0.595v-2.933c0-0.593-0.158-1.011-0.475-1.255
			c-0.317-0.243-0.625-0.365-0.926-0.365c-0.574,0-1.021,0.254-1.34,0.762c-0.319,0.509-0.479,1.134-0.479,1.877
			c0,0.733,0.17,1.388,0.509,1.962s0.847,0.861,1.521,0.861C486.3,681.803,486.587,681.698,486.806,681.488z"/>
		<path fill="#FFFFFF" d="M493.15,682.22c0.483-0.022,0.801-0.113,0.954-0.27c0.153-0.158,0.229-0.489,0.229-0.995v-4.389h-1.169
			v-0.458h1.169c0-0.72,0.098-1.328,0.294-1.825c0.375-0.952,1.062-1.429,2.062-1.429c0.401,0,0.761,0.08,1.078,0.239
			s0.476,0.374,0.476,0.643c0,0.15-0.055,0.285-0.163,0.403c-0.109,0.118-0.241,0.178-0.395,0.178c-0.132,0-0.245-0.04-0.34-0.119
			c-0.095-0.08-0.208-0.221-0.34-0.421l-0.116-0.178c-0.063-0.096-0.139-0.177-0.225-0.243c-0.086-0.065-0.206-0.099-0.36-0.099
			c-0.345,0-0.578,0.171-0.701,0.513c-0.068,0.183-0.102,0.422-0.102,0.718v1.62h1.702v0.458h-1.702v4.389
			c0,0.515,0.069,0.845,0.208,0.987c0.139,0.145,0.502,0.236,1.09,0.277v0.191h-3.65V682.22z"/>
		<path fill="#FFFFFF" d="M498.759,676.938c0.577-0.626,1.318-0.939,2.225-0.939c0.902,0,1.65,0.296,2.242,0.889
			s0.889,1.381,0.889,2.365c0,0.907-0.287,1.695-0.861,2.365s-1.317,1.005-2.229,1.005c-0.875,0-1.616-0.321-2.222-0.964
			s-0.909-1.449-0.909-2.42C497.894,678.332,498.182,677.565,498.759,676.938z M499.851,676.765
			c-0.457,0.415-0.685,1.13-0.685,2.146c0,0.812,0.184,1.567,0.551,2.27s0.878,1.053,1.531,1.053c0.511,0,0.905-0.234,1.181-0.704
			c0.276-0.47,0.415-1.085,0.415-1.846c0-0.788-0.176-1.531-0.527-2.229s-0.861-1.046-1.527-1.046
			C500.428,676.409,500.115,676.527,499.851,676.765z"/>
		<path fill="#FFFFFF" d="M504.6,682.186c0.419-0.036,0.697-0.11,0.834-0.222c0.137-0.112,0.205-0.351,0.205-0.715v-3.083
			c0-0.451-0.042-0.773-0.126-0.968c-0.084-0.193-0.238-0.29-0.461-0.29c-0.045,0-0.106,0.006-0.181,0.017
			c-0.075,0.012-0.154,0.026-0.236,0.045v-0.226c0.259-0.091,0.524-0.185,0.797-0.28c0.272-0.096,0.461-0.164,0.565-0.205
			c0.227-0.087,0.461-0.185,0.702-0.294c0.032,0,0.051,0.012,0.058,0.034s0.01,0.07,0.01,0.144v1.121
			c0.292-0.405,0.575-0.723,0.847-0.95s0.554-0.342,0.847-0.342c0.233,0,0.422,0.069,0.569,0.209
			c0.146,0.139,0.219,0.312,0.219,0.522c0,0.187-0.056,0.344-0.167,0.472s-0.252,0.191-0.42,0.191c-0.173,0-0.348-0.08-0.523-0.239
			s-0.313-0.239-0.414-0.239c-0.16,0-0.355,0.129-0.588,0.387c-0.232,0.257-0.349,0.522-0.349,0.796v3.083
			c0,0.392,0.091,0.664,0.273,0.816c0.182,0.153,0.485,0.225,0.909,0.216v0.226h-3.37V682.186z"/>
		<path fill="#FFFFFF" d="M512.749,673.716v-0.232c0.521-0.118,0.99-0.251,1.406-0.396s0.64-0.219,0.672-0.219
			c0.009,0.027,0.014,0.055,0.014,0.082v4.163c0.118-0.219,0.296-0.427,0.532-0.622c0.419-0.342,0.901-0.513,1.447-0.513
			c0.668,0,1.24,0.282,1.713,0.848s0.71,1.299,0.71,2.201c0,0.966-0.308,1.793-0.923,2.481s-1.424,1.032-2.427,1.032
			c-0.506,0-1.002-0.101-1.49-0.301s-0.731-0.401-0.731-0.602v-7.226c0-0.265-0.037-0.452-0.109-0.564
			c-0.073-0.111-0.242-0.167-0.506-0.167L512.749,673.716z M515.351,681.916c0.313,0.103,0.588,0.153,0.824,0.153
			c0.635,0,1.106-0.239,1.413-0.717s0.459-1.056,0.459-1.734c0-0.678-0.143-1.305-0.429-1.881c-0.286-0.575-0.749-0.863-1.389-0.863
			c-0.322,0-0.638,0.099-0.946,0.297s-0.463,0.449-0.463,0.755v3.481C514.861,681.644,515.038,681.813,515.351,681.916z"/>
		<path fill="#FFFFFF" d="M519.892,676.129h2.885v0.191c-0.228,0.005-0.396,0.025-0.506,0.062c-0.209,0.062-0.314,0.18-0.314,0.357
			c0,0.064,0.011,0.131,0.034,0.199c0.023,0.067,0.064,0.169,0.123,0.304l1.582,3.421l1.303-3.448
			c0.014-0.037,0.035-0.121,0.065-0.252s0.044-0.219,0.044-0.266c0-0.121-0.041-0.21-0.123-0.266
			c-0.082-0.057-0.187-0.089-0.314-0.099l-0.212-0.014v-0.191h1.88v0.191c-0.187,0.023-0.327,0.09-0.42,0.197
			c-0.093,0.108-0.174,0.259-0.243,0.452l-2.153,5.701c-0.374,0.984-0.731,1.697-1.073,2.14s-0.775,0.663-1.299,0.663
			c-0.255,0-0.495-0.063-0.718-0.191s-0.335-0.33-0.335-0.608c0-0.183,0.066-0.331,0.199-0.448c0.133-0.115,0.3-0.174,0.503-0.174
			c0.117,0,0.292,0.043,0.523,0.13c0.231,0.087,0.397,0.13,0.496,0.13c0.252,0,0.518-0.31,0.797-0.928
			c0.279-0.619,0.418-1.028,0.418-1.227c0-0.04-0.006-0.09-0.02-0.148s-0.028-0.11-0.045-0.155l-2.154-4.658
			c-0.155-0.337-0.291-0.56-0.407-0.667c-0.116-0.106-0.288-0.176-0.516-0.208V676.129z"/>
		<path fill="#FFFFFF" d="M531.103,679.595c0.237,0.629,0.514,1.13,0.833,1.504c0.555,0.651,1.245,0.978,2.068,0.978
			c0.446,0,0.832-0.142,1.157-0.424c0.325-0.282,0.488-0.677,0.488-1.183c0-0.456-0.164-0.853-0.491-1.189
			c-0.214-0.214-0.664-0.535-1.351-0.964l-1.194-0.745c-0.359-0.228-0.646-0.458-0.86-0.69c-0.396-0.442-0.595-0.93-0.595-1.463
			c0-0.706,0.235-1.294,0.704-1.764s1.091-0.704,1.866-0.704c0.319,0,0.703,0.078,1.152,0.236c0.449,0.156,0.705,0.235,0.769,0.235
			c0.173,0,0.293-0.041,0.359-0.123s0.117-0.198,0.154-0.349h0.287l0.308,2.98h-0.335c-0.228-0.897-0.594-1.524-1.097-1.88
			s-1.001-0.533-1.494-0.533c-0.383,0-0.717,0.112-1.001,0.339c-0.285,0.225-0.427,0.538-0.427,0.939
			c0,0.36,0.109,0.668,0.328,0.923c0.218,0.26,0.557,0.531,1.017,0.813l1.229,0.759c0.77,0.474,1.312,0.909,1.628,1.306
			c0.311,0.401,0.467,0.875,0.467,1.422c0,0.733-0.277,1.347-0.831,1.839s-1.261,0.738-2.123,0.738
			c-0.433,0-0.885-0.082-1.357-0.246s-0.742-0.246-0.81-0.246c-0.164,0-0.274,0.05-0.332,0.15s-0.095,0.207-0.113,0.321h-0.308
			l-0.417-2.98H531.103z"/>
		<path fill="#FFFFFF" d="M540.154,676.081v4.375c0,0.31,0.043,0.559,0.13,0.745c0.168,0.347,0.479,0.52,0.93,0.52
			c0.31,0,0.613-0.103,0.909-0.308c0.168-0.114,0.339-0.271,0.513-0.472v-3.746c0-0.351-0.068-0.581-0.205-0.69
			s-0.41-0.176-0.82-0.198v-0.226h2.208v4.812c0,0.31,0.056,0.523,0.167,0.639c0.112,0.117,0.348,0.168,0.708,0.154v0.191
			c-0.25,0.068-0.435,0.119-0.554,0.154c-0.119,0.033-0.317,0.097-0.595,0.188c-0.119,0.041-0.378,0.139-0.779,0.294
			c-0.023,0-0.037-0.011-0.041-0.03c-0.004-0.021-0.007-0.045-0.007-0.072v-1.101c-0.31,0.369-0.592,0.643-0.848,0.82
			c-0.387,0.273-0.797,0.41-1.23,0.41c-0.396,0-0.77-0.142-1.121-0.425c-0.355-0.278-0.533-0.746-0.533-1.402v-3.553
			c0-0.361-0.078-0.604-0.232-0.726c-0.1-0.077-0.314-0.132-0.643-0.163v-0.191H540.154z"/>
		<path fill="#FFFFFF" d="M545.055,685.234c0.425-0.027,0.696-0.118,0.811-0.273c0.116-0.155,0.173-0.398,0.173-0.731v-6.562
			c0-0.347-0.042-0.568-0.126-0.666c-0.084-0.099-0.243-0.147-0.475-0.147c-0.05,0-0.097,0.002-0.14,0.007s-0.106,0.014-0.188,0.027
			v-0.226l0.649-0.212c0.023-0.005,0.481-0.162,1.374-0.472c0.023,0,0.04,0.011,0.051,0.03c0.011,0.021,0.017,0.045,0.017,0.072
			v0.923c0.301-0.301,0.565-0.524,0.793-0.67c0.41-0.255,0.832-0.383,1.265-0.383c0.629,0,1.17,0.268,1.624,0.803
			c0.454,0.534,0.68,1.267,0.68,2.195c0,0.91-0.272,1.736-0.817,2.479s-1.229,1.113-2.054,1.113c-0.255,0-0.476-0.032-0.663-0.096
			c-0.292-0.096-0.561-0.271-0.807-0.526v2.242c0,0.46,0.075,0.743,0.226,0.848s0.479,0.176,0.984,0.212v0.239h-3.377V685.234z
			 M547.752,681.841c0.235,0.152,0.512,0.229,0.831,0.229c0.492,0,0.913-0.244,1.261-0.734c0.349-0.488,0.523-1.17,0.523-2.044
			c0-0.838-0.181-1.464-0.543-1.878s-0.783-0.621-1.261-0.621c-0.337,0-0.645,0.104-0.923,0.311s-0.417,0.411-0.417,0.611v3.434
			C547.341,681.457,547.517,681.688,547.752,681.841z"/>
		<path fill="#FFFFFF" d="M552.055,685.234c0.425-0.027,0.696-0.118,0.811-0.273c0.116-0.155,0.173-0.398,0.173-0.731v-6.562
			c0-0.347-0.042-0.568-0.126-0.666c-0.084-0.099-0.243-0.147-0.475-0.147c-0.05,0-0.097,0.002-0.14,0.007s-0.106,0.014-0.188,0.027
			v-0.226l0.649-0.212c0.023-0.005,0.481-0.162,1.374-0.472c0.023,0,0.04,0.011,0.051,0.03c0.011,0.021,0.017,0.045,0.017,0.072
			v0.923c0.301-0.301,0.565-0.524,0.793-0.67c0.41-0.255,0.832-0.383,1.265-0.383c0.629,0,1.17,0.268,1.624,0.803
			c0.454,0.534,0.68,1.267,0.68,2.195c0,0.91-0.272,1.736-0.817,2.479s-1.229,1.113-2.054,1.113c-0.255,0-0.476-0.032-0.663-0.096
			c-0.292-0.096-0.561-0.271-0.807-0.526v2.242c0,0.46,0.075,0.743,0.226,0.848s0.479,0.176,0.984,0.212v0.239h-3.377V685.234z
			 M554.752,681.841c0.235,0.152,0.512,0.229,0.831,0.229c0.492,0,0.913-0.244,1.261-0.734c0.349-0.488,0.523-1.17,0.523-2.044
			c0-0.838-0.181-1.464-0.543-1.878s-0.783-0.621-1.261-0.621c-0.337,0-0.645,0.104-0.923,0.311s-0.417,0.411-0.417,0.611v3.434
			C554.341,681.457,554.517,681.688,554.752,681.841z"/>
		<path fill="#FFFFFF" d="M560.207,676.938c0.577-0.626,1.318-0.939,2.225-0.939c0.902,0,1.65,0.296,2.242,0.889
			s0.889,1.381,0.889,2.365c0,0.907-0.287,1.695-0.861,2.365s-1.317,1.005-2.229,1.005c-0.875,0-1.616-0.321-2.222-0.964
			s-0.909-1.449-0.909-2.42C559.342,678.332,559.63,677.565,560.207,676.938z M561.299,676.765c-0.457,0.415-0.685,1.13-0.685,2.146
			c0,0.812,0.184,1.567,0.551,2.27s0.878,1.053,1.531,1.053c0.511,0,0.905-0.234,1.181-0.704c0.276-0.47,0.415-1.085,0.415-1.846
			c0-0.788-0.176-1.531-0.527-2.229s-0.861-1.046-1.527-1.046C561.876,676.409,561.563,676.527,561.299,676.765z"/>
		<path fill="#FFFFFF" d="M566.048,682.186c0.419-0.036,0.697-0.11,0.834-0.222c0.137-0.112,0.205-0.351,0.205-0.715v-3.083
			c0-0.451-0.042-0.773-0.126-0.968c-0.084-0.193-0.238-0.29-0.461-0.29c-0.045,0-0.106,0.006-0.181,0.017
			c-0.075,0.012-0.154,0.026-0.236,0.045v-0.226c0.259-0.091,0.524-0.185,0.797-0.28c0.272-0.096,0.461-0.164,0.565-0.205
			c0.227-0.087,0.461-0.185,0.702-0.294c0.032,0,0.051,0.012,0.058,0.034s0.01,0.07,0.01,0.144v1.121
			c0.292-0.405,0.575-0.723,0.847-0.95s0.554-0.342,0.847-0.342c0.233,0,0.422,0.069,0.569,0.209
			c0.146,0.139,0.219,0.312,0.219,0.522c0,0.187-0.056,0.344-0.167,0.472s-0.252,0.191-0.42,0.191c-0.173,0-0.348-0.08-0.523-0.239
			s-0.313-0.239-0.414-0.239c-0.16,0-0.355,0.129-0.588,0.387c-0.232,0.257-0.349,0.522-0.349,0.796v3.083
			c0,0.392,0.091,0.664,0.273,0.816c0.182,0.153,0.485,0.225,0.909,0.216v0.226h-3.37V682.186z"/>
		<path fill="#FFFFFF" d="M574.21,676.108v0.492h-1.395l-0.014,3.938c0,0.347,0.03,0.608,0.089,0.786
			c0.109,0.314,0.324,0.472,0.643,0.472c0.164,0,0.307-0.039,0.427-0.116s0.259-0.2,0.414-0.369l0.178,0.15l-0.15,0.205
			c-0.237,0.319-0.488,0.545-0.752,0.677s-0.52,0.198-0.766,0.198c-0.538,0-0.902-0.239-1.094-0.718
			c-0.105-0.26-0.157-0.62-0.157-1.08v-4.143h-0.745c-0.023-0.014-0.04-0.027-0.051-0.041s-0.017-0.032-0.017-0.055
			c0-0.046,0.01-0.081,0.031-0.105c0.021-0.025,0.085-0.084,0.195-0.175c0.314-0.26,0.541-0.471,0.68-0.632
			c0.139-0.162,0.466-0.59,0.981-1.282c0.059,0,0.095,0.005,0.106,0.014s0.017,0.043,0.017,0.103v1.682H574.21z"/>
		<path fill="#FFFFFF" d="M579.433,676.665c0.483,0.445,0.725,1.075,0.725,1.891h-4.341c0.045,1.055,0.285,1.823,0.718,2.306
			c0.433,0.481,0.946,0.723,1.538,0.723c0.479,0,0.882-0.125,1.21-0.375s0.631-0.604,0.909-1.064l0.239,0.082
			c-0.187,0.58-0.537,1.116-1.049,1.609s-1.141,0.739-1.883,0.739c-0.857,0-1.519-0.323-1.986-0.971s-0.701-1.393-0.701-2.235
			c0-0.916,0.271-1.707,0.813-2.372s1.249-0.998,2.119-0.998C578.387,675.999,578.95,676.222,579.433,676.665z M576.159,677.188
			c-0.146,0.246-0.25,0.556-0.314,0.93h2.885c-0.05-0.456-0.137-0.795-0.26-1.019c-0.223-0.401-0.597-0.602-1.121-0.602
			C576.829,676.498,576.432,676.729,576.159,677.188z"/>
		<path fill="#FFFFFF" d="M580.814,682.186c0.419-0.036,0.697-0.11,0.834-0.222c0.137-0.112,0.205-0.351,0.205-0.715v-3.083
			c0-0.451-0.042-0.773-0.126-0.968c-0.084-0.193-0.238-0.29-0.461-0.29c-0.045,0-0.106,0.006-0.181,0.017
			c-0.075,0.012-0.154,0.026-0.236,0.045v-0.226c0.259-0.091,0.524-0.185,0.797-0.28c0.272-0.096,0.461-0.164,0.565-0.205
			c0.227-0.087,0.461-0.185,0.702-0.294c0.032,0,0.051,0.012,0.058,0.034s0.01,0.07,0.01,0.144v1.121
			c0.292-0.405,0.575-0.723,0.847-0.95s0.554-0.342,0.847-0.342c0.233,0,0.422,0.069,0.569,0.209
			c0.146,0.139,0.219,0.312,0.219,0.522c0,0.187-0.056,0.344-0.167,0.472s-0.252,0.191-0.42,0.191c-0.173,0-0.348-0.08-0.523-0.239
			s-0.313-0.239-0.414-0.239c-0.16,0-0.355,0.129-0.588,0.387c-0.232,0.257-0.349,0.522-0.349,0.796v3.083
			c0,0.392,0.091,0.664,0.273,0.816c0.182,0.153,0.485,0.225,0.909,0.216v0.226h-3.37V682.186z"/>
		<path fill="#FFFFFF" d="M586.146,680.258h0.226c0.104,0.52,0.246,0.918,0.423,1.196c0.318,0.511,0.784,0.766,1.398,0.766
			c0.341,0,0.61-0.095,0.808-0.283c0.198-0.189,0.297-0.435,0.297-0.735c0-0.191-0.057-0.376-0.171-0.554s-0.314-0.351-0.602-0.52
			l-0.765-0.438c-0.561-0.301-0.973-0.604-1.238-0.909c-0.264-0.306-0.396-0.665-0.396-1.08c0-0.511,0.182-0.93,0.547-1.258
			s0.823-0.492,1.374-0.492c0.242,0,0.507,0.046,0.796,0.137s0.452,0.137,0.489,0.137c0.082,0,0.141-0.012,0.178-0.034
			s0.068-0.06,0.096-0.109h0.164l0.048,1.907h-0.212c-0.091-0.442-0.214-0.786-0.369-1.032c-0.283-0.456-0.69-0.684-1.224-0.684
			c-0.319,0-0.57,0.098-0.752,0.294s-0.273,0.426-0.273,0.69c0,0.419,0.314,0.793,0.943,1.121l0.902,0.485
			c0.971,0.528,1.456,1.144,1.456,1.846c0,0.538-0.201,0.978-0.604,1.319s-0.929,0.513-1.58,0.513c-0.273,0-0.583-0.046-0.928-0.137
			s-0.55-0.137-0.614-0.137c-0.055,0-0.103,0.02-0.143,0.058c-0.041,0.039-0.073,0.086-0.096,0.141h-0.178V680.258z"/>
		<path fill="#FFFFFF" d="M595.583,676.938c0.577-0.626,1.318-0.939,2.225-0.939c0.902,0,1.65,0.296,2.242,0.889
			s0.889,1.381,0.889,2.365c0,0.907-0.287,1.695-0.861,2.365s-1.317,1.005-2.229,1.005c-0.875,0-1.616-0.321-2.222-0.964
			s-0.909-1.449-0.909-2.42C594.718,678.332,595.006,677.565,595.583,676.938z M596.675,676.765
			c-0.457,0.415-0.685,1.13-0.685,2.146c0,0.812,0.184,1.567,0.551,2.27s0.878,1.053,1.531,1.053c0.511,0,0.905-0.234,1.181-0.704
			c0.276-0.47,0.415-1.085,0.415-1.846c0-0.788-0.176-1.531-0.527-2.229s-0.861-1.046-1.527-1.046
			C597.252,676.409,596.939,676.527,596.675,676.765z"/>
		<path fill="#FFFFFF" d="M601.637,682.22c0.482-0.022,0.801-0.113,0.953-0.27c0.152-0.158,0.229-0.489,0.229-0.995v-4.389h-1.168
			v-0.458h1.168c0-0.72,0.099-1.328,0.295-1.825c0.375-0.952,1.062-1.429,2.062-1.429c0.401,0,0.761,0.08,1.078,0.239
			s0.476,0.374,0.476,0.643c0,0.15-0.055,0.285-0.162,0.403c-0.109,0.118-0.241,0.178-0.395,0.178c-0.133,0-0.246-0.04-0.341-0.119
			c-0.095-0.08-0.208-0.221-0.34-0.421l-0.116-0.178c-0.062-0.096-0.139-0.177-0.225-0.243c-0.086-0.065-0.205-0.099-0.359-0.099
			c-0.346,0-0.578,0.171-0.701,0.513c-0.068,0.183-0.102,0.422-0.102,0.718v1.62h1.701v0.458h-1.701v4.389
			c0,0.515,0.068,0.845,0.208,0.987c0.14,0.145,0.503,0.236,1.091,0.277v0.191h-3.65V682.22z"/>
		<path fill="#FFFFFF" d="M609.682,682.151c0.516-0.055,0.85-0.146,1.002-0.275s0.229-0.457,0.229-0.982v-6.228
			c0-0.497-0.074-0.821-0.225-0.974c-0.15-0.153-0.486-0.248-1.006-0.284v-0.26h7.438l0.049,2.003h-0.355
			c-0.119-0.617-0.297-1.016-0.533-1.197c-0.237-0.182-0.766-0.272-1.586-0.272h-1.906c-0.206,0-0.332,0.033-0.381,0.099
			c-0.048,0.066-0.072,0.19-0.072,0.373v3.124h2.16c0.598,0,0.979-0.088,1.143-0.266c0.164-0.177,0.296-0.534,0.396-1.074h0.328
			v3.233h-0.328c-0.105-0.542-0.24-0.901-0.404-1.076c-0.164-0.176-0.542-0.264-1.135-0.264h-2.16v3.466
			c0,0.278,0.088,0.442,0.264,0.492s0.702,0.075,1.578,0.075c0.949,0,1.65-0.104,2.102-0.311c0.452-0.208,0.858-0.71,1.219-1.508
			h0.389l-0.635,2.365h-7.568V682.151z"/>
		<path fill="#FFFFFF" d="M619.372,679.383c-0.229-0.351-0.345-0.745-0.345-1.183c0-0.533,0.211-1.039,0.635-1.518
			s1.023-0.718,1.799-0.718c0.332,0,0.699,0.079,1.1,0.235c0.401,0.158,0.787,0.236,1.156,0.236c0.096,0,0.24-0.004,0.434-0.01
			c0.193-0.008,0.334-0.011,0.42-0.011h0.082v0.554h-1.182c0.082,0.191,0.146,0.357,0.191,0.499
			c0.077,0.265,0.115,0.515,0.115,0.752c0,0.52-0.215,0.997-0.646,1.433c-0.431,0.435-1.011,0.652-1.739,0.652
			c-0.114,0-0.319-0.021-0.615-0.062c-0.133,0-0.309,0.111-0.527,0.335s-0.328,0.405-0.328,0.547c0,0.146,0.16,0.253,0.48,0.321
			c0.209,0.046,0.441,0.068,0.697,0.068c1.174,0,1.97,0.066,2.39,0.198c0.688,0.214,1.034,0.675,1.034,1.381
			c0,0.72-0.402,1.294-1.207,1.723s-1.617,0.643-2.438,0.643c-0.747,0-1.34-0.151-1.777-0.455c-0.438-0.303-0.656-0.62-0.656-0.953
			c0-0.164,0.059-0.324,0.174-0.482c0.116-0.156,0.344-0.391,0.685-0.7l0.449-0.403l0.082-0.082
			c-0.208-0.082-0.364-0.162-0.468-0.239c-0.182-0.142-0.271-0.303-0.271-0.485c0-0.169,0.078-0.354,0.235-0.557
			c0.157-0.203,0.493-0.532,1.009-0.988C619.925,679.978,619.602,679.733,619.372,679.383z M620.097,684.469
			c0.431,0.146,0.924,0.219,1.479,0.219c0.757,0,1.372-0.131,1.846-0.394c0.475-0.262,0.711-0.584,0.711-0.967
			c0-0.306-0.191-0.508-0.574-0.608c-0.238-0.06-0.688-0.094-1.35-0.103c-0.17-0.005-0.348-0.01-0.535-0.018
			c-0.188-0.006-0.357-0.015-0.514-0.023c-0.1-0.005-0.262-0.022-0.486-0.055c-0.223-0.032-0.391-0.06-0.5-0.082
			c-0.055,0-0.188,0.144-0.398,0.431c-0.217,0.292-0.324,0.561-0.324,0.807C619.451,684.059,619.666,684.323,620.097,684.469z
			 M622.268,679.772c0.273-0.219,0.41-0.6,0.41-1.142c0-0.433-0.111-0.921-0.332-1.463s-0.589-0.813-1.104-0.813
			c-0.447,0-0.755,0.212-0.924,0.636c-0.086,0.224-0.129,0.499-0.129,0.827c0,0.556,0.134,1.055,0.402,1.497
			c0.27,0.442,0.618,0.663,1.047,0.663C621.889,679.978,622.099,679.909,622.268,679.772z"/>
		<path fill="#FFFFFF" d="M626.372,679.383c-0.229-0.351-0.345-0.745-0.345-1.183c0-0.533,0.211-1.039,0.635-1.518
			s1.023-0.718,1.799-0.718c0.332,0,0.699,0.079,1.1,0.235c0.401,0.158,0.787,0.236,1.156,0.236c0.096,0,0.24-0.004,0.434-0.01
			c0.193-0.008,0.334-0.011,0.42-0.011h0.082v0.554h-1.182c0.082,0.191,0.146,0.357,0.191,0.499
			c0.077,0.265,0.115,0.515,0.115,0.752c0,0.52-0.215,0.997-0.646,1.433c-0.431,0.435-1.011,0.652-1.739,0.652
			c-0.114,0-0.319-0.021-0.615-0.062c-0.133,0-0.309,0.111-0.527,0.335s-0.328,0.405-0.328,0.547c0,0.146,0.16,0.253,0.48,0.321
			c0.209,0.046,0.441,0.068,0.697,0.068c1.174,0,1.97,0.066,2.39,0.198c0.688,0.214,1.034,0.675,1.034,1.381
			c0,0.72-0.402,1.294-1.207,1.723s-1.617,0.643-2.438,0.643c-0.747,0-1.34-0.151-1.777-0.455c-0.438-0.303-0.656-0.62-0.656-0.953
			c0-0.164,0.059-0.324,0.174-0.482c0.116-0.156,0.344-0.391,0.685-0.7l0.449-0.403l0.082-0.082
			c-0.208-0.082-0.364-0.162-0.468-0.239c-0.182-0.142-0.271-0.303-0.271-0.485c0-0.169,0.078-0.354,0.235-0.557
			c0.157-0.203,0.493-0.532,1.009-0.988C626.925,679.978,626.602,679.733,626.372,679.383z M627.097,684.469
			c0.431,0.146,0.924,0.219,1.479,0.219c0.757,0,1.372-0.131,1.846-0.394c0.475-0.262,0.711-0.584,0.711-0.967
			c0-0.306-0.191-0.508-0.574-0.608c-0.238-0.06-0.688-0.094-1.35-0.103c-0.17-0.005-0.348-0.01-0.535-0.018
			c-0.188-0.006-0.357-0.015-0.514-0.023c-0.1-0.005-0.262-0.022-0.486-0.055c-0.223-0.032-0.391-0.06-0.5-0.082
			c-0.055,0-0.188,0.144-0.398,0.431c-0.217,0.292-0.324,0.561-0.324,0.807C626.451,684.059,626.666,684.323,627.097,684.469z
			 M629.268,679.772c0.273-0.219,0.41-0.6,0.41-1.142c0-0.433-0.111-0.921-0.332-1.463s-0.589-0.813-1.104-0.813
			c-0.447,0-0.755,0.212-0.924,0.636c-0.086,0.224-0.129,0.499-0.129,0.827c0,0.556,0.134,1.055,0.402,1.497
			c0.27,0.442,0.618,0.663,1.047,0.663C628.889,679.978,629.099,679.909,629.268,679.772z"/>
		<path fill="#FFFFFF" d="M632.145,685.234c0.426-0.027,0.696-0.118,0.812-0.273c0.116-0.155,0.173-0.398,0.173-0.731v-6.562
			c0-0.347-0.041-0.568-0.126-0.666c-0.085-0.099-0.243-0.147-0.476-0.147c-0.05,0-0.096,0.002-0.14,0.007s-0.106,0.014-0.188,0.027
			v-0.226l0.65-0.212c0.022-0.005,0.48-0.162,1.373-0.472c0.023,0,0.041,0.011,0.052,0.03c0.011,0.021,0.017,0.045,0.017,0.072
			v0.923c0.301-0.301,0.565-0.524,0.793-0.67c0.41-0.255,0.832-0.383,1.266-0.383c0.629,0,1.17,0.268,1.623,0.803
			c0.453,0.534,0.68,1.267,0.68,2.195c0,0.91-0.271,1.736-0.816,2.479s-1.229,1.113-2.055,1.113c-0.255,0-0.476-0.032-0.662-0.096
			c-0.292-0.096-0.561-0.271-0.807-0.526v2.242c0,0.46,0.074,0.743,0.225,0.848s0.479,0.176,0.984,0.212v0.239h-3.377V685.234z
			 M634.842,681.841c0.234,0.152,0.512,0.229,0.83,0.229c0.492,0,0.913-0.244,1.262-0.734c0.349-0.488,0.523-1.17,0.523-2.044
			c0-0.838-0.182-1.464-0.544-1.878s-0.782-0.621-1.261-0.621c-0.338,0-0.646,0.104-0.924,0.311
			c-0.277,0.207-0.416,0.411-0.416,0.611v3.434C634.431,681.457,634.607,681.688,634.842,681.841z"/>
		<path fill="#FFFFFF" d="M639.363,682.22c0.424-0.041,0.711-0.127,0.861-0.256c0.15-0.131,0.227-0.385,0.227-0.763v-6.679
			c0-0.301-0.025-0.508-0.076-0.622c-0.091-0.191-0.275-0.287-0.553-0.287c-0.064,0-0.134,0.007-0.209,0.021
			s-0.17,0.034-0.283,0.062v-0.226c0.615-0.164,1.355-0.383,2.221-0.656c0.032,0,0.052,0.014,0.059,0.041s0.01,0.087,0.01,0.178
			v8.196c0,0.396,0.068,0.653,0.205,0.769c0.137,0.117,0.42,0.19,0.848,0.223v0.191h-3.309V682.22z"/>
		<path fill="#FFFFFF" d="M644.471,679.396c0.419-0.273,1.255-0.645,2.508-1.114v-0.581c0-0.465-0.045-0.788-0.137-0.971
			c-0.154-0.306-0.476-0.458-0.963-0.458c-0.232,0-0.454,0.06-0.664,0.178c-0.209,0.123-0.314,0.292-0.314,0.506
			c0,0.055,0.012,0.146,0.035,0.277c0.022,0.129,0.033,0.213,0.033,0.249c0,0.255-0.084,0.433-0.252,0.533
			c-0.096,0.06-0.21,0.089-0.342,0.089c-0.205,0-0.363-0.067-0.473-0.201c-0.109-0.135-0.164-0.284-0.164-0.448
			c0-0.319,0.197-0.653,0.592-1.001c0.395-0.35,0.972-0.523,1.732-0.523c0.885,0,1.484,0.287,1.799,0.861
			c0.168,0.314,0.252,0.772,0.252,1.374v2.741c0,0.265,0.019,0.446,0.055,0.547c0.06,0.178,0.183,0.267,0.369,0.267
			c0.105,0,0.191-0.016,0.26-0.048s0.188-0.109,0.355-0.232v0.355c-0.146,0.178-0.303,0.323-0.471,0.438
			c-0.256,0.173-0.516,0.26-0.779,0.26c-0.311,0-0.535-0.101-0.674-0.301s-0.215-0.439-0.229-0.718
			c-0.347,0.301-0.643,0.524-0.889,0.67c-0.415,0.246-0.81,0.369-1.184,0.369c-0.392,0-0.73-0.138-1.018-0.413
			c-0.287-0.276-0.432-0.626-0.432-1.05C643.479,680.39,643.81,679.839,644.471,679.396z M646.979,678.624
			c-0.523,0.173-0.957,0.364-1.299,0.574c-0.656,0.405-0.984,0.866-0.984,1.381c0,0.415,0.137,0.72,0.41,0.916
			c0.178,0.128,0.377,0.191,0.596,0.191c0.301,0,0.588-0.084,0.864-0.253s0.413-0.383,0.413-0.643V678.624z"/>
		<path fill="#FFFFFF" d="M649.434,682.22c0.323-0.041,0.55-0.122,0.68-0.242c0.13-0.121,0.195-0.392,0.195-0.811v-3.473
			c0-0.289-0.027-0.493-0.082-0.61c-0.087-0.172-0.265-0.258-0.533-0.258c-0.041,0-0.084,0.002-0.127,0.007s-0.097,0.012-0.16,0.021
			v-0.239c0.187-0.055,0.629-0.196,1.326-0.424l0.643-0.212c0.031,0,0.051,0.012,0.058,0.034s0.011,0.055,0.011,0.096v1.005
			c0.418-0.392,0.746-0.661,0.982-0.807c0.354-0.224,0.723-0.335,1.105-0.335c0.309,0,0.591,0.089,0.846,0.267
			c0.491,0.347,0.736,0.964,0.736,1.853v3.192c0,0.328,0.066,0.565,0.197,0.711s0.35,0.221,0.658,0.226v0.191h-2.92v-0.191
			c0.333-0.046,0.565-0.138,0.697-0.277c0.133-0.139,0.199-0.44,0.199-0.905v-2.919c0-0.392-0.073-0.717-0.219-0.975
			c-0.145-0.257-0.412-0.386-0.801-0.386c-0.268,0-0.54,0.091-0.816,0.273c-0.154,0.104-0.354,0.278-0.598,0.52v3.828
			c0,0.328,0.072,0.548,0.219,0.659c0.146,0.112,0.375,0.173,0.689,0.182v0.191h-2.986V682.22z"/>
		<path fill="#FFFFFF" d="M659.742,676.108v0.492h-1.395l-0.014,3.938c0,0.347,0.029,0.608,0.088,0.786
			c0.109,0.314,0.324,0.472,0.643,0.472c0.164,0,0.307-0.039,0.428-0.116s0.258-0.2,0.414-0.369l0.178,0.15l-0.15,0.205
			c-0.238,0.319-0.488,0.545-0.752,0.677c-0.266,0.132-0.52,0.198-0.766,0.198c-0.539,0-0.902-0.239-1.094-0.718
			c-0.105-0.26-0.158-0.62-0.158-1.08v-4.143h-0.744c-0.023-0.014-0.041-0.027-0.052-0.041s-0.017-0.032-0.017-0.055
			c0-0.046,0.01-0.081,0.03-0.105c0.021-0.025,0.085-0.084,0.194-0.175c0.314-0.26,0.541-0.471,0.68-0.632
			c0.141-0.162,0.467-0.59,0.982-1.282c0.059,0,0.094,0.005,0.105,0.014s0.018,0.043,0.018,0.103v1.682H659.742z"/>
		<path fill="#FFFFFF" d="M663.844,682.22c0.482-0.022,0.801-0.113,0.953-0.27c0.152-0.158,0.229-0.489,0.229-0.995v-4.389h-1.168
			v-0.458h1.168c0-0.72,0.1-1.328,0.295-1.825c0.375-0.952,1.061-1.429,2.061-1.429c0.402,0,0.762,0.08,1.08,0.239
			c0.316,0.159,0.475,0.374,0.475,0.643c0,0.15-0.055,0.285-0.162,0.403c-0.109,0.118-0.24,0.178-0.395,0.178
			c-0.133,0-0.246-0.04-0.34-0.119c-0.096-0.08-0.209-0.221-0.342-0.421l-0.115-0.178c-0.062-0.096-0.139-0.177-0.225-0.243
			c-0.086-0.065-0.205-0.099-0.359-0.099c-0.346,0-0.578,0.171-0.701,0.513c-0.068,0.183-0.102,0.422-0.102,0.718v1.62h1.701v0.458
			h-1.701v4.389c0,0.515,0.068,0.845,0.209,0.987c0.139,0.145,0.502,0.236,1.09,0.277v0.191h-3.65V682.22z"/>
		<path fill="#FFFFFF" d="M669.453,676.938c0.576-0.626,1.316-0.939,2.225-0.939c0.902,0,1.648,0.296,2.242,0.889
			c0.592,0.593,0.889,1.381,0.889,2.365c0,0.907-0.287,1.695-0.861,2.365s-1.318,1.005-2.229,1.005
			c-0.875,0-1.615-0.321-2.223-0.964c-0.605-0.643-0.908-1.449-0.908-2.42C668.588,678.332,668.875,677.565,669.453,676.938z
			 M670.543,676.765c-0.455,0.415-0.684,1.13-0.684,2.146c0,0.812,0.184,1.567,0.551,2.27s0.877,1.053,1.531,1.053
			c0.512,0,0.904-0.234,1.182-0.704c0.275-0.47,0.414-1.085,0.414-1.846c0-0.788-0.176-1.531-0.527-2.229s-0.861-1.046-1.527-1.046
			C671.121,676.409,670.809,676.527,670.543,676.765z"/>
		<path fill="#FFFFFF" d="M675.293,682.186c0.42-0.036,0.697-0.11,0.834-0.222c0.137-0.112,0.205-0.351,0.205-0.715v-3.083
			c0-0.451-0.041-0.773-0.125-0.968c-0.086-0.193-0.238-0.29-0.463-0.29c-0.045,0-0.105,0.006-0.18,0.017
			c-0.076,0.012-0.154,0.026-0.236,0.045v-0.226c0.258-0.091,0.523-0.185,0.797-0.28s0.461-0.164,0.566-0.205
			c0.227-0.087,0.461-0.185,0.701-0.294c0.031,0,0.051,0.012,0.059,0.034c0.006,0.022,0.01,0.07,0.01,0.144v1.121
			c0.291-0.405,0.574-0.723,0.846-0.95s0.555-0.342,0.848-0.342c0.232,0,0.422,0.069,0.568,0.209
			c0.146,0.139,0.219,0.312,0.219,0.522c0,0.187-0.055,0.344-0.166,0.472c-0.113,0.128-0.252,0.191-0.422,0.191
			c-0.172,0-0.348-0.08-0.521-0.239c-0.176-0.159-0.314-0.239-0.414-0.239c-0.16,0-0.355,0.129-0.588,0.387
			c-0.232,0.257-0.35,0.522-0.35,0.796v3.083c0,0.392,0.092,0.664,0.273,0.816c0.184,0.153,0.486,0.225,0.91,0.216v0.226h-3.371
			V682.186z"/>
		<path fill="#FFFFFF" d="M683.619,682.151c0.533-0.05,0.867-0.155,0.998-0.316c0.133-0.161,0.199-0.529,0.199-1.105v-6.063
			c0-0.487-0.074-0.809-0.223-0.964s-0.473-0.253-0.975-0.294v-0.26h3.691c1.186,0,2.092,0.23,2.721,0.69s0.943,1.066,0.943,1.818
			c0,0.952-0.348,1.643-1.045,2.071s-1.57,0.643-2.619,0.643c-0.15,0-0.342-0.003-0.576-0.011c-0.236-0.006-0.41-0.01-0.523-0.01
			v2.543c0,0.525,0.08,0.856,0.242,0.993c0.162,0.136,0.523,0.224,1.084,0.265v0.26h-3.918V682.151z M688.344,673.928
			c-0.396-0.173-0.898-0.26-1.504-0.26c-0.287,0-0.465,0.028-0.529,0.085c-0.066,0.058-0.1,0.184-0.1,0.38v3.65
			c0.25,0.022,0.414,0.036,0.492,0.041c0.076,0.005,0.152,0.007,0.225,0.007c0.643,0,1.148-0.091,1.518-0.273
			c0.67-0.333,1.006-0.955,1.006-1.866C689.451,674.835,689.082,674.247,688.344,673.928z"/>
		<path fill="#FFFFFF" d="M691.242,682.186c0.418-0.036,0.697-0.11,0.834-0.222c0.137-0.112,0.205-0.351,0.205-0.715v-3.083
			c0-0.451-0.043-0.773-0.127-0.968c-0.084-0.193-0.238-0.29-0.461-0.29c-0.047,0-0.107,0.006-0.182,0.017
			c-0.076,0.012-0.154,0.026-0.236,0.045v-0.226c0.26-0.091,0.525-0.185,0.797-0.28c0.273-0.096,0.463-0.164,0.566-0.205
			c0.227-0.087,0.461-0.185,0.701-0.294c0.033,0,0.051,0.012,0.059,0.034c0.006,0.022,0.01,0.07,0.01,0.144v1.121
			c0.293-0.405,0.574-0.723,0.848-0.95c0.271-0.228,0.553-0.342,0.846-0.342c0.232,0,0.424,0.069,0.568,0.209
			c0.146,0.139,0.221,0.312,0.221,0.522c0,0.187-0.057,0.344-0.168,0.472s-0.252,0.191-0.42,0.191c-0.174,0-0.348-0.08-0.523-0.239
			s-0.312-0.239-0.414-0.239c-0.158,0-0.355,0.129-0.588,0.387c-0.232,0.257-0.348,0.522-0.348,0.796v3.083
			c0,0.392,0.09,0.664,0.273,0.816c0.182,0.153,0.484,0.225,0.908,0.216v0.226h-3.369V682.186z"/>
		<path fill="#FFFFFF" d="M700.736,676.665c0.484,0.445,0.725,1.075,0.725,1.891h-4.34c0.045,1.055,0.285,1.823,0.717,2.306
			c0.434,0.481,0.945,0.723,1.539,0.723c0.479,0,0.881-0.125,1.209-0.375s0.631-0.604,0.91-1.064l0.238,0.082
			c-0.186,0.58-0.537,1.116-1.049,1.609c-0.514,0.493-1.141,0.739-1.883,0.739c-0.857,0-1.52-0.323-1.986-0.971
			s-0.701-1.393-0.701-2.235c0-0.916,0.271-1.707,0.814-2.372c0.541-0.665,1.248-0.998,2.119-0.998
			C699.691,675.999,700.254,676.222,700.736,676.665z M697.463,677.188c-0.146,0.246-0.252,0.556-0.314,0.93h2.885
			c-0.051-0.456-0.137-0.795-0.26-1.019c-0.225-0.401-0.598-0.602-1.121-0.602C698.133,676.498,697.736,676.729,697.463,677.188z"/>
		<path fill="#FFFFFF" d="M702.787,680.258h0.227c0.104,0.52,0.244,0.918,0.422,1.196c0.318,0.511,0.785,0.766,1.398,0.766
			c0.342,0,0.611-0.095,0.809-0.283c0.197-0.189,0.297-0.435,0.297-0.735c0-0.191-0.057-0.376-0.172-0.554
			c-0.113-0.178-0.314-0.351-0.602-0.52l-0.766-0.438c-0.561-0.301-0.973-0.604-1.236-0.909c-0.266-0.306-0.396-0.665-0.396-1.08
			c0-0.511,0.182-0.93,0.547-1.258c0.363-0.328,0.822-0.492,1.373-0.492c0.242,0,0.508,0.046,0.797,0.137s0.453,0.137,0.488,0.137
			c0.082,0,0.143-0.012,0.178-0.034c0.037-0.022,0.068-0.06,0.096-0.109h0.164l0.049,1.907h-0.213
			c-0.09-0.442-0.213-0.786-0.369-1.032c-0.281-0.456-0.689-0.684-1.223-0.684c-0.32,0-0.57,0.098-0.752,0.294
			c-0.184,0.196-0.273,0.426-0.273,0.69c0,0.419,0.314,0.793,0.943,1.121l0.902,0.485c0.971,0.528,1.455,1.144,1.455,1.846
			c0,0.538-0.201,0.978-0.604,1.319s-0.93,0.513-1.58,0.513c-0.273,0-0.582-0.046-0.928-0.137s-0.551-0.137-0.613-0.137
			c-0.055,0-0.104,0.02-0.145,0.058c-0.041,0.039-0.072,0.086-0.096,0.141h-0.178V680.258z"/>
		<path fill="#FFFFFF" d="M707.777,682.22c0.488-0.046,0.795-0.129,0.924-0.25c0.127-0.12,0.191-0.447,0.191-0.98v-3.261
			c0-0.296-0.021-0.501-0.062-0.615c-0.068-0.187-0.211-0.28-0.43-0.28c-0.051,0-0.1,0.005-0.148,0.014
			c-0.047,0.009-0.186,0.046-0.412,0.109v-0.212l0.293-0.096c0.799-0.26,1.354-0.456,1.668-0.588
			c0.129-0.055,0.211-0.082,0.246-0.082c0.01,0.032,0.014,0.066,0.014,0.103v4.908c0,0.52,0.062,0.846,0.188,0.978
			c0.127,0.132,0.41,0.217,0.852,0.253v0.191h-3.322V682.22z M708.865,673.079c0.137-0.141,0.305-0.211,0.506-0.211
			c0.195,0,0.363,0.069,0.502,0.208c0.139,0.138,0.209,0.307,0.209,0.507c0,0.194-0.07,0.361-0.209,0.5
			c-0.139,0.138-0.307,0.207-0.502,0.207c-0.201,0-0.369-0.069-0.506-0.207c-0.137-0.139-0.205-0.306-0.205-0.5
			C708.66,673.388,708.729,673.22,708.865,673.079z"/>
		<path fill="#FFFFFF" d="M715.625,676.17c0.184,0.096,0.357,0.228,0.527,0.396v-2.174c0-0.278-0.031-0.47-0.092-0.574
			c-0.062-0.104-0.209-0.157-0.441-0.157c-0.055,0-0.104,0.002-0.145,0.007s-0.131,0.014-0.273,0.027v-0.226l0.561-0.144
			c0.205-0.055,0.41-0.111,0.615-0.171s0.385-0.116,0.541-0.171c0.072-0.022,0.193-0.066,0.361-0.13l0.041,0.014l-0.014,0.718
			c-0.004,0.26-0.008,0.527-0.014,0.804c-0.004,0.275-0.006,0.548-0.006,0.816l-0.014,5.585c0,0.296,0.035,0.504,0.109,0.622
			c0.072,0.118,0.266,0.178,0.58,0.178c0.051,0,0.102-0.001,0.15-0.004c0.051-0.002,0.102-0.008,0.15-0.017v0.226
			c-0.027,0.009-0.357,0.123-0.99,0.342l-1.074,0.403l-0.047-0.062v-0.841c-0.256,0.278-0.477,0.477-0.664,0.595
			c-0.332,0.205-0.717,0.308-1.154,0.308c-0.775,0-1.402-0.3-1.883-0.899c-0.482-0.599-0.723-1.293-0.723-2.081
			c0-0.989,0.289-1.838,0.865-2.546c0.576-0.709,1.281-1.063,2.115-1.063C715.043,675.951,715.348,676.024,715.625,676.17z
			 M715.824,681.488c0.219-0.21,0.328-0.408,0.328-0.595v-2.933c0-0.593-0.158-1.011-0.475-1.255
			c-0.318-0.243-0.627-0.365-0.928-0.365c-0.574,0-1.02,0.254-1.34,0.762c-0.318,0.509-0.479,1.134-0.479,1.877
			c0,0.733,0.17,1.388,0.51,1.962s0.846,0.861,1.521,0.861C715.318,681.803,715.605,681.698,715.824,681.488z"/>
		<path fill="#FFFFFF" d="M723.289,676.665c0.482,0.445,0.725,1.075,0.725,1.891h-4.342c0.047,1.055,0.285,1.823,0.719,2.306
			c0.432,0.481,0.945,0.723,1.537,0.723c0.479,0,0.883-0.125,1.211-0.375s0.631-0.604,0.908-1.064l0.24,0.082
			c-0.188,0.58-0.537,1.116-1.049,1.609c-0.514,0.493-1.141,0.739-1.885,0.739c-0.855,0-1.518-0.323-1.984-0.971
			c-0.469-0.647-0.701-1.393-0.701-2.235c0-0.916,0.271-1.707,0.812-2.372c0.543-0.665,1.25-0.998,2.119-0.998
			C722.242,675.999,722.805,676.222,723.289,676.665z M720.014,677.188c-0.145,0.246-0.25,0.556-0.314,0.93h2.885
			c-0.049-0.456-0.137-0.795-0.26-1.019c-0.223-0.401-0.596-0.602-1.121-0.602C720.684,676.498,720.287,676.729,720.014,677.188z"/>
		<path fill="#FFFFFF" d="M724.861,682.22c0.322-0.041,0.549-0.122,0.68-0.242c0.129-0.121,0.195-0.392,0.195-0.811v-3.473
			c0-0.289-0.027-0.493-0.082-0.61c-0.088-0.172-0.266-0.258-0.533-0.258c-0.041,0-0.084,0.002-0.127,0.007s-0.098,0.012-0.16,0.021
			v-0.239c0.186-0.055,0.629-0.196,1.326-0.424l0.643-0.212c0.031,0,0.051,0.012,0.057,0.034c0.008,0.022,0.012,0.055,0.012,0.096
			v1.005c0.418-0.392,0.746-0.661,0.982-0.807c0.354-0.224,0.723-0.335,1.105-0.335c0.309,0,0.592,0.089,0.846,0.267
			c0.49,0.347,0.736,0.964,0.736,1.853v3.192c0,0.328,0.066,0.565,0.197,0.711s0.35,0.221,0.658,0.226v0.191h-2.92v-0.191
			c0.334-0.046,0.566-0.138,0.697-0.277c0.133-0.139,0.199-0.44,0.199-0.905v-2.919c0-0.392-0.072-0.717-0.219-0.975
			c-0.145-0.257-0.412-0.386-0.801-0.386c-0.268,0-0.539,0.091-0.816,0.273c-0.154,0.104-0.354,0.278-0.598,0.52v3.828
			c0,0.328,0.072,0.548,0.219,0.659c0.145,0.112,0.375,0.173,0.689,0.182v0.191h-2.986V682.22z"/>
		<path fill="#FFFFFF" d="M735.17,676.108v0.492h-1.395l-0.014,3.938c0,0.347,0.029,0.608,0.088,0.786
			c0.109,0.314,0.324,0.472,0.643,0.472c0.164,0,0.307-0.039,0.428-0.116s0.258-0.2,0.414-0.369l0.178,0.15l-0.15,0.205
			c-0.238,0.319-0.488,0.545-0.752,0.677c-0.266,0.132-0.52,0.198-0.766,0.198c-0.539,0-0.902-0.239-1.094-0.718
			c-0.105-0.26-0.158-0.62-0.158-1.08v-4.143h-0.744c-0.023-0.014-0.041-0.027-0.053-0.041c-0.01-0.014-0.016-0.032-0.016-0.055
			c0-0.046,0.01-0.081,0.029-0.105c0.021-0.025,0.086-0.084,0.195-0.175c0.314-0.26,0.541-0.471,0.68-0.632
			c0.141-0.162,0.467-0.59,0.982-1.282c0.059,0,0.094,0.005,0.105,0.014s0.018,0.043,0.018,0.103v1.682H735.17z"/>
	</g>
	<rect x="456" y="666.592" fill="none" stroke="#FFFFFF" stroke-width="1.1047" stroke-miterlimit="10" width="288" height="26"/>
</g>
<g id="Layer_4">
	<g>
		<path fill="#7A2D77" d="M735.516,294.104c-51.91-62.155-133.19-70.352-209.006-144.118
			c-45.763-44.396-126.359,43.714-104.503,86.062c29.37,56.008,96.99,163.242,157.779,210.371
			C710.242,546.822,840.699,419.78,735.516,294.104"/>
		<path opacity="0.15" enable-background="new    " d="M439.082,249.707c15.027-17.759,10.929-47.129,10.929-47.129
			s11.611,13.661,28.687,13.661l1.366-30.053c0,0,25.955-0.683,48.495-25.955l-76.499-2.732l-26.638,43.713L439.082,249.707"/>
		<g>
			<path fill="#83B730" d="M445.229,144.521l-6.147,10.928c-16.393-10.928-39.615-40.981-16.393-82.646l10.246,6.83
				C411.761,117.2,441.814,141.789,445.229,144.521"/>
			<path fill="#83B730" d="M488.26,169.793c25.955,2.732,49.861-17.758,49.861-17.758s-17.758-24.589-44.396-27.321
				c-25.955-2.732-48.495,4.781-49.861,17.076C442.497,154.767,462.305,167.061,488.26,169.793"/>
			<path fill="#83B730" d="M405.614,197.114c-3.416,27.321,13.66,51.227,13.66,51.227s21.857-19.808,25.272-47.129
				c3.415-27.321-2.732-49.86-13.661-51.227C419.958,149.303,409.029,170.476,405.614,197.114"/>
		</g>
		<path fill="#8CC63E" d="M430.203,182.087c17.075,23.906,53.958,23.906,53.958,23.906s8.196-38.932-8.879-63.521
			c-17.076-23.906-41.664-34.834-53.958-23.906C408.346,129.495,412.444,157.499,430.203,182.087"/>
	</g>
</g>
<g id="Layer_1">
</g>
</svg>
