<?xml version="1.0" encoding="utf-8"?>
<!-- Generator: Adobe Illustrator 16.0.4, SVG Export Plug-In . SVG Version: 6.00 Build 0)  -->
<!DOCTYPE svg PUBLIC "-//W3C//DTD SVG 1.1//EN" "http://www.w3.org/Graphics/SVG/1.1/DTD/svg11.dtd">
<svg version="1.1" id="Layer_1" xmlns="http://www.w3.org/2000/svg" xmlns:xlink="http://www.w3.org/1999/xlink" x="0px" y="0px"
	 width="600px" height="600px" viewBox="0 0 600 600" enable-background="new 0 0 600 600" xml:space="preserve">
<g id="Layer_5">
</g>
<g id="Layer_3">
	<g>
		<g>
			<defs>
				<circle id="SVGID_1_" cx="300" cy="300" r="275"/>
			</defs>
			<clipPath id="SVGID_2_">
				<use xlink:href="#SVGID_1_"  overflow="visible"/>
			</clipPath>
			<rect clip-path="url(#SVGID_2_)" fill="#F7F7F7" width="600" height="600"/>
		</g>
		<g>
			<defs>
				<circle id="SVGID_3_" cx="300" cy="300" r="275"/>
			</defs>
			<clipPath id="SVGID_4_">
				<use xlink:href="#SVGID_3_"  overflow="visible"/>
			</clipPath>
			<rect clip-path="url(#SVGID_4_)" fill="#FF0052" width="600" height="190"/>
		</g>
		<g>
			<defs>
				<circle id="SVGID_5_" cx="300" cy="300" r="275"/>
			</defs>
			<clipPath id="SVGID_6_">
				<use xlink:href="#SVGID_5_"  overflow="visible"/>
			</clipPath>
			<rect y="395" clip-path="url(#SVGID_6_)" fill="#343D8A" width="600" height="205"/>
		</g>
		<g>
			<defs>
				<circle id="SVGID_7_" cx="300" cy="300" r="275"/>
			</defs>
			<clipPath id="SVGID_8_">
				<use xlink:href="#SVGID_7_"  overflow="visible"/>
			</clipPath>
			
				<line clip-path="url(#SVGID_8_)" fill="none" stroke="#FF0052" stroke-width="5" stroke-miterlimit="10" x1="597.079" y1="196.006" x2="-2.921" y2="196.006"/>
		</g>
		<g>
			<defs>
				<circle id="SVGID_9_" cx="300" cy="300" r="275"/>
			</defs>
			<clipPath id="SVGID_10_">
				<use xlink:href="#SVGID_9_"  overflow="visible"/>
			</clipPath>
			
				<line clip-path="url(#SVGID_10_)" fill="none" stroke="#343D8A" stroke-width="5" stroke-miterlimit="10" x1="598.999" y1="388.672" x2="-1.001" y2="388.672"/>
		</g>
	</g>
</g>
<g id="Layer_2">
	<g>
		<polygon fill="#F7F7F7" points="300,32.842 305.611,50.113 323.772,50.114 309.081,60.789 314.691,78.061 300,67.387 
			285.307,78.061 290.918,60.789 276.227,50.114 294.387,50.113 		"/>
		<polygon fill="#F7F7F7" points="212.333,49.782 217.945,67.053 236.105,67.054 221.414,77.729 227.024,95 212.333,84.326 
			197.64,95 203.251,77.729 188.56,67.054 206.72,67.053 		"/>
		<polygon fill="#F7F7F7" points="144.664,91.509 150.276,108.78 168.437,108.781 153.745,119.456 159.355,136.727 144.664,126.053 
			129.971,136.727 135.582,119.456 120.891,108.781 139.051,108.78 		"/>
		<polygon fill="#F7F7F7" points="387.667,49.782 382.055,67.053 363.895,67.054 378.586,77.729 372.976,95 387.667,84.326 
			402.36,95 396.749,77.729 411.44,67.054 393.28,67.053 		"/>
		<polygon fill="#F7F7F7" points="455.336,91.509 449.724,108.78 431.562,108.781 446.255,119.456 440.645,136.727 455.336,126.053 
			470.029,136.727 464.418,119.456 479.109,108.781 460.949,108.78 		"/>
	</g>
	<polygon fill="#F7F7F7" points="300,521.939 305.611,539.211 323.772,539.212 309.081,549.887 314.691,567.158 300,556.484 
		285.307,567.158 290.918,549.887 276.227,539.212 294.387,539.211 	"/>
	<polygon fill="#F7F7F7" points="212.333,505 217.945,522.271 236.105,522.271 221.414,532.947 227.024,550.219 212.333,539.545 
		197.64,550.219 203.251,532.947 188.56,522.271 206.72,522.271 	"/>
	<polygon fill="#F7F7F7" points="144.664,463.273 150.276,480.544 168.437,480.546 153.745,491.22 159.355,508.491 144.664,497.817 
		129.971,508.491 135.582,491.22 120.891,480.546 139.051,480.544 	"/>
	<polygon fill="#F7F7F7" points="387.667,505 382.055,522.271 363.895,522.271 378.586,532.947 372.976,550.219 387.667,539.545 
		402.36,550.219 396.749,532.947 411.44,522.271 393.28,522.271 	"/>
	<polygon fill="#F7F7F7" points="455.336,463.273 449.724,480.544 431.562,480.546 446.255,491.22 440.645,508.491 455.336,497.817 
		470.029,508.491 464.418,491.22 479.109,480.546 460.949,480.544 	"/>
</g>
<g id="Layer_4">
	<g>
		<path fill="#7A2D77" d="M353.554,296.068c-19.045-22.803-48.864-25.81-76.679-52.873c-16.79-16.289-46.358,16.037-38.339,31.573
			c10.775,20.548,35.583,59.89,57.884,77.18C344.281,388.785,392.143,342.176,353.554,296.068"/>
		<path opacity="0.15" enable-background="new    " d="M244.799,279.78c5.513-6.515,4.009-17.29,4.009-17.29
			s4.26,5.011,10.524,5.011l0.501-11.025c0,0,9.522-0.25,17.792-9.522l-28.065-1.002l-9.772,16.038L244.799,279.78"/>
		<g>
			<path fill="#83B730" d="M247.055,241.19l-2.255,4.009c-6.014-4.009-14.534-15.035-6.014-30.321l3.758,2.506
				C234.776,231.167,245.802,240.188,247.055,241.19"/>
			<path fill="#83B730" d="M262.842,250.462c9.522,1.003,18.292-6.515,18.292-6.515s-6.515-9.021-16.288-10.023
				c-9.522-1.002-17.792,1.754-18.292,6.265C246.052,244.949,253.32,249.46,262.842,250.462"/>
			<path fill="#83B730" d="M232.521,260.485c-1.252,10.023,5.012,18.794,5.012,18.794s8.019-7.267,9.271-17.29
				c1.253-10.023-1.002-18.292-5.012-18.794C237.783,242.944,233.774,250.713,232.521,260.485"/>
		</g>
		<path fill="#8CC63E" d="M241.542,254.973c6.264,8.771,19.796,8.771,19.796,8.771s3.007-14.283-3.257-23.305
			c-6.265-8.771-15.286-12.779-19.796-8.771C233.523,235.677,235.027,245.952,241.542,254.973"/>
	</g>
	<g enable-background="new    ">
		<path fill="#F7F7F7" d="M246.088,467.582h16.846v6.416h-30.381l15.703-19.014c1.542-1.895,2.837-3.535,3.882-4.922
			c1.044-1.387,1.841-2.549,2.388-3.486c1.113-1.836,1.67-3.486,1.67-4.951c0-2.109-0.743-3.877-2.227-5.303
			c-1.484-1.426-3.321-2.139-5.508-2.139c-4.57,0-7.188,2.705-7.852,8.115h-6.797c1.094-9.531,5.908-14.297,14.443-14.297
			c4.121,0,7.578,1.309,10.371,3.926c2.812,2.617,4.219,5.859,4.219,9.727c0,2.461-0.655,4.873-1.963,7.236
			c-0.664,1.23-1.636,2.69-2.915,4.38c-1.279,1.689-2.896,3.687-4.849,5.991L246.088,467.582z"/>
		<path fill="#F7F7F7" d="M270.639,451.088c0-7.207,1.68-12.959,5.039-17.256c3.007-3.887,6.65-5.83,10.928-5.83
			s7.92,1.943,10.928,5.83c3.359,4.297,5.039,10.146,5.039,17.549c0,7.383-1.68,13.223-5.039,17.52
			c-3.008,3.887-6.641,5.83-10.898,5.83c-4.258,0-7.91-1.943-10.957-5.83C272.318,464.604,270.639,458.666,270.639,451.088z
			 M277.348,451.117c0,5.02,0.869,9.189,2.607,12.51c1.738,3.262,3.955,4.893,6.65,4.893c2.676,0,4.893-1.631,6.65-4.893
			c1.758-3.242,2.637-7.334,2.637-12.275s-0.879-9.043-2.637-12.305c-1.758-3.242-3.975-4.863-6.65-4.863
			c-2.656,0-4.863,1.621-6.621,4.863C278.227,442.27,277.348,446.293,277.348,451.117z"/>
		<path fill="#F7F7F7" d="M316.752,435.15h-7.822l3.75-6.387h10.898v45.234h-6.826V435.15z"/>
		<path fill="#F7F7F7" d="M355.805,427.182l5.01,3.75l-10.811,14.707c0.586-0.078,1.084-0.137,1.494-0.176s0.732-0.059,0.967-0.059
			c3.672,0,6.846,1.406,9.521,4.219c2.656,2.773,3.984,6.113,3.984,10.02c0,4.141-1.484,7.695-4.453,10.664
			c-2.949,2.949-6.494,4.424-10.635,4.424c-4.102,0-7.695-1.455-10.781-4.365c-3.027-2.91-4.541-6.357-4.541-10.342
			c0-3.574,1.475-7.363,4.424-11.367L355.805,427.182z M359.32,460.082c0-2.402-0.83-4.434-2.49-6.094
			c-1.68-1.68-3.701-2.52-6.064-2.52c-2.383,0-4.404,0.83-6.064,2.49s-2.49,3.672-2.49,6.035s0.83,4.375,2.49,6.035
			s3.691,2.49,6.094,2.49c2.344,0,4.346-0.83,6.006-2.49C358.48,464.35,359.32,462.367,359.32,460.082z"/>
	</g>
</g>
</svg>
