<?xml version="1.0" encoding="utf-8"?>
<!-- Generator: Adobe Illustrator 16.0.4, SVG Export Plug-In . SVG Version: 6.00 Build 0)  -->
<!DOCTYPE svg PUBLIC "-//W3C//DTD SVG 1.1//EN" "http://www.w3.org/Graphics/SVG/1.1/DTD/svg11.dtd">
<svg version="1.1" xmlns="http://www.w3.org/2000/svg" xmlns:xlink="http://www.w3.org/1999/xlink" x="0px" y="0px" width="1200px"
	 height="760px" viewBox="0 0 1200 760" enable-background="new 0 0 1200 760" xml:space="preserve">
<g id="Layer_3">
	<rect fill="#FFFFFF" width="1200" height="760"/>
</g>
<g id="Layer_2">
	<polyline fill="none" stroke="#300063" stroke-width="14" stroke-miterlimit="10" points="466.667,732.484 22.222,732.484 
		22.222,27.515 466.667,27.515 	"/>
	<polyline fill="none" stroke="#300063" stroke-width="14" stroke-miterlimit="10" points="737.777,27.515 1177.777,27.515 
		1177.777,732.484 737.777,732.484 	"/>
	<g>
		<polygon fill="#FE0027" points="494.75,716.216 498.199,726.826 509.355,726.826 500.33,733.385 503.777,743.995 494.75,737.438 
			485.724,743.995 489.171,733.385 480.146,726.826 491.302,726.826 		"/>
		<polygon fill="#FE0027" points="652.625,716.216 656.073,726.826 667.229,726.826 658.205,733.385 661.651,743.995 
			652.625,737.438 643.599,743.995 647.047,733.385 638.021,726.826 649.177,726.826 		"/>
		<polygon fill="#FE0027" points="600,716.216 603.448,726.826 614.604,726.826 605.58,733.385 609.026,743.995 600,737.438 
			590.974,743.995 594.421,733.385 585.396,726.826 596.552,726.826 		"/>
		<polygon fill="#FE0027" points="705.25,716.216 708.698,726.826 719.854,726.826 710.83,733.385 714.276,743.995 705.25,737.438 
			696.224,743.995 699.672,733.385 690.646,726.826 701.802,726.826 		"/>
		<polygon fill="#FE0027" points="547.375,716.216 550.824,726.826 561.98,726.826 552.955,733.385 556.402,743.995 
			547.375,737.438 538.349,743.995 541.796,733.385 532.771,726.826 543.927,726.826 		"/>
	</g>
	<polygon fill="#FE0027" points="494.75,13.625 498.199,24.236 509.355,24.236 500.33,30.794 503.777,41.405 494.75,34.848 
		485.724,41.405 489.171,30.794 480.146,24.236 491.302,24.236 	"/>
	<polygon fill="#FE0027" points="652.625,13.625 656.073,24.236 667.229,24.236 658.205,30.794 661.651,41.405 652.625,34.848 
		643.599,41.405 647.047,30.794 638.021,24.236 649.177,24.236 	"/>
	<polygon fill="#FE0027" points="600,13.625 603.448,24.236 614.604,24.236 605.58,30.794 609.026,41.405 600,34.848 
		590.974,41.405 594.421,30.794 585.396,24.236 596.552,24.236 	"/>
	<polygon fill="#FE0027" points="705.25,13.625 708.698,24.236 719.854,24.236 710.83,30.794 714.276,41.405 705.25,34.848 
		696.224,41.405 699.672,30.794 690.646,24.236 701.802,24.236 	"/>
	<polygon fill="#FE0027" points="547.375,13.625 550.824,24.236 561.98,24.236 552.955,30.794 556.402,41.405 547.375,34.848 
		538.349,41.405 541.796,30.794 532.771,24.236 543.927,24.236 	"/>
	<g>
		<path fill="#300063" d="M461.474,406.793v-55.6H480l-0.842,9.12h-11.135v12.88h9.31v9.12h-9.216v14.88h12.304v9.6H461.474z"/>
		<path fill="#300063" d="M507.088,350.313c4.023,0,7.469,2.134,10.339,6.4l-3.462,6.96c-2.059-2.88-4.32-4.32-6.784-4.32
			c-1.965,0-3.525,0.934-4.679,2.8c-1.84,3.04-2.76,9.014-2.76,17.92c0,7.84,0.811,13.12,2.433,15.84
			c1.247,2.08,2.947,3.12,5.099,3.12c1.435,0,2.667-0.453,3.696-1.36v-12.64h-4.959l-0.842-9.12h12.585v26.56
			c-3.275,3.307-6.877,4.96-10.807,4.96c-4.804,0-8.5-2.826-11.088-8.48c-2.309-5.066-3.462-11.546-3.462-19.44
			c0-11.68,2.261-20.106,6.784-25.28C501.458,351.621,504.094,350.313,507.088,350.313z"/>
		<path fill="#300063" d="M544.795,350.313c4.023,0,7.469,2.134,10.339,6.4l-3.462,6.96c-2.059-2.88-4.32-4.32-6.784-4.32
			c-1.965,0-3.525,0.934-4.679,2.8c-1.84,3.04-2.76,9.014-2.76,17.92c0,7.84,0.811,13.12,2.433,15.84
			c1.247,2.08,2.947,3.12,5.099,3.12c1.435,0,2.667-0.453,3.696-1.36v-12.64h-4.959l-0.842-9.12h12.585v26.56
			c-3.275,3.307-6.877,4.96-10.807,4.96c-4.804,0-8.5-2.826-11.088-8.48c-2.309-5.066-3.462-11.546-3.462-19.44
			c0-11.68,2.261-20.106,6.784-25.28C539.166,351.621,541.801,350.313,544.795,350.313z"/>
		<path fill="#300063" d="M569.591,406.793v-55.76h8.561c4.117,0,7.127,0.907,9.029,2.72c3.119,2.987,4.679,7.788,4.679,14.4
			c0,3.68-0.491,6.96-1.474,9.84c-0.982,2.88-2.363,5.04-4.141,6.48c-1.528,1.228-3.696,1.84-6.503,1.84h-3.603v20.48H569.591z
			 M580.304,360.073h-4.164v17.12h3.416c1.185,0,2.012-0.106,2.479-0.32c0.749-0.373,1.38-1.24,1.895-2.6s0.772-3.32,0.772-5.88
			c0-2.613-0.39-4.653-1.169-6.12C582.752,360.807,581.676,360.073,580.304,360.073z"/>
		<path fill="#300063" d="M606.034,406.793v-55.6h6.69v46.32h11.649l-1.17,9.28H606.034z"/>
		<path fill="#300063" d="M633.871,406.793l10.667-55.76h7.064l10.245,55.76h-7.018l-2.292-13.2h-9.544l-2.292,13.2H633.871z
			 M646.315,373.993c-0.561,3.787-1.139,7.228-1.73,10.32h6.362c-0.374-1.92-0.967-5.652-1.777-11.2
			c-0.219-1.6-0.655-4.88-1.311-9.84L646.315,373.993z"/>
		<path fill="#300063" d="M673.776,406.793v-55.6h7.252l6.223,22.24c1.559,5.6,2.744,10.854,3.556,15.76
			c-0.312-5.866-0.484-10.96-0.515-15.28l-0.141-22.72h6.222v55.6h-6.83l-5.567-21.28c-2.402-9.227-3.867-15.307-4.397-18.24
			c0.155,3.147,0.265,8.4,0.327,15.76l0.188,23.76H673.776z"/>
		<path fill="#300063" d="M709.286,360.473v-9.28h23.439l-1.076,9.28h-7.767v46.32h-6.643v-46.32H709.286z"/>
	</g>
	<g>
		<g>
			<path fill="#300063" d="M285.008,636.826v-55.601h18.527l-0.842,9.12h-11.135v12.88h9.31v9.12h-9.216v14.88h12.304v9.601H285.008
				z"/>
			<path fill="#300063" d="M330.623,580.346c4.023,0,7.469,2.134,10.339,6.4l-3.462,6.959c-2.059-2.879-4.32-4.319-6.784-4.319
				c-1.965,0-3.525,0.934-4.679,2.8c-1.84,3.04-2.76,9.014-2.76,17.92c0,7.84,0.811,13.12,2.433,15.84
				c1.247,2.08,2.947,3.121,5.099,3.121c1.435,0,2.667-0.453,3.696-1.361v-12.639h-4.959l-0.842-9.121h12.585v26.561
				c-3.275,3.307-6.877,4.96-10.807,4.96c-4.804,0-8.5-2.826-11.088-8.479c-2.309-5.066-3.462-11.547-3.462-19.44
				c0-11.681,2.261-20.106,6.784-25.28C324.993,581.653,327.628,580.346,330.623,580.346z"/>
			<path fill="#300063" d="M368.33,580.346c4.023,0,7.469,2.134,10.339,6.4l-3.462,6.959c-2.059-2.879-4.32-4.319-6.784-4.319
				c-1.965,0-3.525,0.934-4.679,2.8c-1.84,3.04-2.76,9.014-2.76,17.92c0,7.84,0.811,13.12,2.433,15.84
				c1.247,2.08,2.947,3.121,5.099,3.121c1.435,0,2.667-0.453,3.696-1.361v-12.639h-4.959l-0.842-9.121h12.585v26.561
				c-3.275,3.307-6.877,4.96-10.807,4.96c-4.804,0-8.5-2.826-11.088-8.479c-2.309-5.066-3.462-11.547-3.462-19.44
				c0-11.681,2.261-20.106,6.784-25.28C362.7,581.653,365.335,580.346,368.33,580.346z"/>
			<path fill="#300063" d="M393.125,636.826v-55.76h8.561c4.117,0,7.127,0.906,9.029,2.719c3.119,2.988,4.679,7.788,4.679,14.4
				c0,3.68-0.491,6.96-1.474,9.84c-0.982,2.881-2.363,5.041-4.141,6.48c-1.528,1.228-3.696,1.84-6.503,1.84h-3.603v20.48H393.125z
				 M403.838,590.105h-4.164v17.12h3.416c1.185,0,2.012-0.106,2.479-0.319c0.749-0.373,1.38-1.24,1.895-2.601
				s0.772-3.319,0.772-5.88c0-2.613-0.39-4.652-1.169-6.12C406.287,590.84,405.21,590.105,403.838,590.105z"/>
			<path fill="#300063" d="M429.568,636.826v-55.601h6.69v46.32h11.649l-1.17,9.28H429.568z"/>
			<path fill="#300063" d="M457.405,636.826l10.667-55.76h7.064l10.245,55.76h-7.018l-2.292-13.201h-9.544l-2.292,13.201H457.405z
				 M469.85,604.025c-0.561,3.787-1.139,7.229-1.73,10.32h6.362c-0.374-1.92-0.967-5.652-1.777-11.2
				c-0.219-1.6-0.655-4.88-1.311-9.84L469.85,604.025z"/>
			<path fill="#300063" d="M497.311,636.826v-55.601h7.252l6.223,22.24c1.559,5.601,2.744,10.854,3.556,15.76
				c-0.312-5.866-0.484-10.96-0.515-15.28l-0.141-22.72h6.222v55.601h-6.83l-5.567-21.28c-2.402-9.227-3.867-15.307-4.397-18.24
				c0.155,3.147,0.265,8.399,0.327,15.761l0.188,23.76H497.311z"/>
			<path fill="#300063" d="M532.82,590.506v-9.28h23.439l-1.076,9.28h-7.767v46.32h-6.643v-46.32H532.82z"/>
		</g>
		<g>
			<path fill="#300063" d="M616.887,636.826v-55.601h18.527l-0.842,9.12h-11.135v12.88h9.31v9.12h-9.216v14.88h12.304v9.601H616.887
				z"/>
			<path fill="#300063" d="M662.502,580.346c4.023,0,7.469,2.134,10.34,6.4l-3.463,6.959c-2.059-2.879-4.32-4.319-6.783-4.319
				c-1.965,0-3.525,0.934-4.679,2.8c-1.841,3.04-2.761,9.014-2.761,17.92c0,7.84,0.812,13.12,2.434,15.84
				c1.247,2.08,2.947,3.121,5.1,3.121c1.434,0,2.666-0.453,3.695-1.361v-12.639h-4.959l-0.842-9.121h12.585v26.561
				c-3.274,3.307-6.878,4.96-10.808,4.96c-4.803,0-8.499-2.826-11.088-8.479c-2.309-5.066-3.461-11.547-3.461-19.44
				c0-11.681,2.26-20.106,6.783-25.28C656.872,581.653,659.508,580.346,662.502,580.346z"/>
			<path fill="#300063" d="M700.209,580.346c4.023,0,7.469,2.134,10.34,6.4l-3.463,6.959c-2.059-2.879-4.32-4.319-6.783-4.319
				c-1.965,0-3.525,0.934-4.679,2.8c-1.841,3.04-2.761,9.014-2.761,17.92c0,7.84,0.812,13.12,2.434,15.84
				c1.247,2.08,2.947,3.121,5.1,3.121c1.434,0,2.666-0.453,3.695-1.361v-12.639h-4.959l-0.842-9.121h12.585v26.561
				c-3.274,3.307-6.878,4.96-10.808,4.96c-4.803,0-8.499-2.826-11.088-8.479c-2.309-5.066-3.461-11.547-3.461-19.44
				c0-11.681,2.26-20.106,6.783-25.28C694.579,581.653,697.215,580.346,700.209,580.346z"/>
			<path fill="#300063" d="M725.004,636.826v-55.76h8.562c4.117,0,7.127,0.906,9.029,2.719c3.118,2.988,4.679,7.788,4.679,14.4
				c0,3.68-0.491,6.96-1.474,9.84c-0.982,2.881-2.362,5.041-4.141,6.48c-1.528,1.228-3.696,1.84-6.503,1.84h-3.603v20.48H725.004z
				 M735.718,590.105h-4.164v17.12h3.415c1.186,0,2.012-0.106,2.48-0.319c0.748-0.373,1.379-1.24,1.895-2.601
				c0.514-1.36,0.771-3.319,0.771-5.88c0-2.613-0.391-4.652-1.17-6.12C738.166,590.84,737.09,590.105,735.718,590.105z"/>
			<path fill="#300063" d="M761.447,636.826v-55.601h6.691v46.32h11.648l-1.17,9.28H761.447z"/>
			<path fill="#300063" d="M789.285,636.826l10.666-55.76h7.064l10.246,55.76h-7.018l-2.293-13.201h-9.543l-2.293,13.201H789.285z
				 M801.729,604.025c-0.561,3.787-1.139,7.229-1.73,10.32h6.363c-0.375-1.92-0.967-5.652-1.777-11.2
				c-0.219-1.6-0.656-4.88-1.311-9.84L801.729,604.025z"/>
			<path fill="#300063" d="M829.189,636.826v-55.601h7.252l6.223,22.24c1.559,5.601,2.744,10.854,3.557,15.76
				c-0.312-5.866-0.484-10.96-0.516-15.28l-0.141-22.72h6.223v55.601h-6.83l-5.568-21.28c-2.402-9.227-3.867-15.307-4.396-18.24
				c0.154,3.147,0.264,8.399,0.326,15.761l0.188,23.76H829.189z"/>
			<path fill="#300063" d="M864.699,590.506v-9.28h23.439l-1.076,9.28h-7.766v46.32h-6.643v-46.32H864.699z"/>
			<path fill="#300063" d="M906.852,631.226c0,1.813-0.383,3.374-1.146,4.681c-0.764,1.306-1.691,1.959-2.783,1.959
				c-1.061,0-1.957-0.64-2.689-1.92c-0.734-1.279-1.1-2.852-1.1-4.72c0-1.866,0.381-3.44,1.146-4.72
				c0.764-1.28,1.676-1.92,2.736-1.92s1.965,0.653,2.713,1.96C906.477,627.854,906.852,629.413,906.852,631.226z M906.664,580.025
				l-1.309,39.12h-4.773l-1.402-37.28L906.664,580.025z"/>
		</g>
	</g>
</g>
<g id="Layer_7">
	<rect x="41.877" y="65.397" fill="#300063" width="1116.594" height="254.035"/>
</g>
<g id="Layer_6">
	<g>
		<path fill="#FE0027" d="M224.349,548.497c3.872-0.699,6.381-1.879,7.53-3.54c1.148-1.66,1.722-5.871,1.722-12.632v-80.068
			c0-6.386-0.565-10.561-1.696-12.524c-1.131-1.962-3.649-3.178-7.556-3.647v-3.34h55.921l0.36,25.752h-2.673
			c-0.891-7.932-2.228-13.064-4.009-15.397c-1.782-2.332-5.757-3.499-11.924-3.499h-14.331c-1.547,0-2.5,0.426-2.861,1.274
			c-0.361,0.85-0.541,2.447-0.541,4.79v40.166h16.242c4.488,0,7.35-1.136,8.583-3.41c1.233-2.274,2.227-6.879,2.981-13.817h2.467
			v41.572h-2.467c-0.789-6.972-1.799-11.586-3.032-13.843c-1.234-2.255-4.078-3.384-8.532-3.384h-16.242v44.561
			c0,3.575,0.66,5.685,1.981,6.328c1.321,0.646,5.276,0.967,11.866,0.967c7.137,0,12.405-1.332,15.802-3.999
			c3.397-2.666,6.45-9.125,9.157-19.38h2.93l-4.78,30.41h-56.898V548.497z"/>
		<path fill="#FE0027" d="M363.717,433.536c3.94,1.934,6.202,2.9,6.785,2.9c1.507,0,2.578-0.497,3.212-1.494
			c0.633-0.996,1.173-2.431,1.619-4.307h2.312l0.823,37.881h-2.416c-2.159-8.73-4.386-15.234-6.682-19.512
			c-4.146-7.5-9.543-11.25-16.19-11.25c-6.751,0-12.688,4.381-17.81,13.14c-5.123,8.76-7.684,23.189-7.684,43.286
			c0,16.583,2.552,29.531,7.658,38.848c5.105,9.316,11.411,13.975,18.915,13.975c1.268,0,2.758-0.204,4.472-0.614
			c1.713-0.408,3.341-1.052,4.883-1.93c2.501-1.401,4.061-2.614,4.677-3.637c0.617-1.023,0.925-2.53,0.925-4.519v-28.676
			c0-6.952-0.574-11.282-1.722-12.99c-1.148-1.708-3.658-2.77-7.53-3.182v-3.34h26.83v3.34c-2.604,0.294-4.335,1.026-5.191,2.197
			c-1.439,1.876-2.159,5.743-2.159,11.602v35.42c0,2.109-3.024,4.922-9.072,8.438c-6.048,3.516-11.865,5.273-17.45,5.273
			c-10.279,0-18.949-5.126-26.007-15.381c-7.779-11.308-11.667-26.484-11.667-45.527c0-16.757,3.101-31.113,9.303-43.066
			c6.818-13.184,15.864-19.775,27.138-19.775C355.767,430.636,359.776,431.603,363.717,433.536z"/>
		<path fill="#FE0027" d="M464.999,433.536c3.94,1.934,6.202,2.9,6.785,2.9c1.507,0,2.578-0.497,3.212-1.494
			c0.633-0.996,1.173-2.431,1.619-4.307h2.312l0.823,37.881h-2.416c-2.159-8.73-4.386-15.234-6.682-19.512
			c-4.146-7.5-9.543-11.25-16.19-11.25c-6.751,0-12.688,4.381-17.81,13.14c-5.123,8.76-7.684,23.189-7.684,43.286
			c0,16.583,2.552,29.531,7.658,38.848c5.105,9.316,11.411,13.975,18.915,13.975c1.268,0,2.758-0.204,4.472-0.614
			c1.713-0.408,3.341-1.052,4.883-1.93c2.501-1.401,4.061-2.614,4.677-3.637c0.617-1.023,0.925-2.53,0.925-4.519v-28.676
			c0-6.952-0.574-11.282-1.722-12.99c-1.148-1.708-3.658-2.77-7.53-3.182v-3.34h26.83v3.34c-2.604,0.294-4.335,1.026-5.191,2.197
			c-1.439,1.876-2.159,5.743-2.159,11.602v35.42c0,2.109-3.024,4.922-9.072,8.438c-6.048,3.516-11.865,5.273-17.45,5.273
			c-10.279,0-18.949-5.126-26.007-15.381c-7.779-11.308-11.667-26.484-11.667-45.527c0-16.757,3.101-31.113,9.303-43.066
			c6.818-13.184,15.864-19.775,27.138-19.775C457.049,430.636,461.058,431.603,464.999,433.536z"/>
		<path fill="#FE0027" d="M516.989,548.497c4.009-0.642,6.51-1.997,7.504-4.067c0.994-2.07,1.491-6.808,1.491-14.214v-77.959
			c0-6.269-0.558-10.4-1.67-12.393c-1.114-1.991-3.555-3.252-7.324-3.779v-3.34h27.755c8.909,0,15.728,2.959,20.457,8.877
			c4.729,5.919,7.093,13.711,7.093,23.379c0,12.247-2.622,21.124-7.864,26.631c-5.243,5.508-11.805,8.262-19.686,8.262
			c-1.131,0-2.579-0.044-4.343-0.132c-1.765-0.088-3.076-0.132-3.932-0.132v32.695c0,6.761,0.608,11.015,1.825,12.763
			c1.216,1.749,3.932,2.885,8.146,3.409v3.34h-29.451V548.497z M552.505,442.765c-2.981-2.226-6.751-3.34-11.308-3.34
			c-2.159,0-3.487,0.367-3.983,1.099c-0.497,0.733-0.745,2.359-0.745,4.878v46.934c1.884,0.294,3.118,0.47,3.701,0.527
			c0.582,0.059,1.147,0.088,1.696,0.088c4.832,0,8.635-1.171,11.411-3.516c5.037-4.276,7.556-12.274,7.556-23.994
			C560.832,454.425,558.056,446.867,552.505,442.765z"/>
		<path fill="#FE0027" d="M600.281,548.497c3.872-0.699,6.381-1.879,7.53-3.54c1.148-1.66,1.723-5.871,1.723-12.632v-80.068
			c0-6.386-0.566-10.561-1.697-12.524c-1.131-1.962-3.648-3.178-7.555-3.647v-3.34h29.708v3.34
			c-3.872,0.352-6.468,1.437-7.787,3.252c-1.319,1.817-1.979,5.713-1.979,11.689v86.484c0,1.993,0.196,3.56,0.592,4.702
			c0.394,1.143,1.261,1.861,2.599,2.153c0.789,0.176,1.621,0.294,2.496,0.352c0.875,0.06,2.513,0.088,4.914,0.088
			c9.365,0,15.695-1.318,18.989-3.955s6.484-9.374,9.572-20.215h2.676l-5.146,31.201h-56.635V548.497z"/>
		<path fill="#FE0027" d="M690.213,551.837v-3.34c2.707-0.522,4.736-2.263,6.091-5.224c1.354-2.961,3.674-11.062,6.96-24.304
			l21.93-88.334h2.096l26.227,102.044c1.748,6.76,3.145,10.939,4.189,12.541c1.045,1.603,2.801,2.694,5.268,3.276v3.34h-26.768
			v-3.34c3.076-0.467,5.059-1.036,5.949-1.706s1.336-2.318,1.336-4.941c0-0.874-0.172-2.419-0.514-4.636
			c-0.344-2.216-0.822-4.548-1.439-6.998l-4.215-17.314h-27.74c-2.734,11.777-4.367,18.964-4.898,21.558
			c-0.531,2.596-0.796,4.65-0.796,6.166c0,3.033,0.719,5.133,2.157,6.299c0.889,0.699,2.564,1.225,5.026,1.573v3.34H690.213z
			 M735.547,505.606l-12.062-49.57l-12.119,49.57H735.547z"/>
		<path fill="#FE0027" d="M791.125,548.497c4.352-0.761,7.145-2.442,8.379-5.05c1.232-2.605,1.85-8.65,1.85-18.135v-79.304
			l-1.439-2.897c-1.541-3.103-2.852-5.02-3.932-5.751s-2.699-1.156-4.857-1.274v-3.34h17.961l40.633,86.122V459.05
			c0-9.838-0.855-16.242-2.57-19.211c-1.129-1.919-3.631-3.172-7.504-3.754v-3.34h24.723v3.34c-4.008,0.703-6.682,2.373-8.018,5.01
			s-2.004,8.672-2.004,18.105v94.746h-1.799l-46.568-98.701v70.071c0,9.835,0.84,16.244,2.52,19.229
			c1.096,1.933,3.547,3.249,7.35,3.951v3.34h-24.723V548.497z"/>
		<path fill="#FE0027" d="M893.279,432.745h59.52l0.566,30.586h-2.52c-1.232-9.609-2.801-15.864-4.703-18.765
			c-1.9-2.9-5.902-4.351-12-4.351h-5.859v92.109c0,6.935,0.633,11.233,1.9,12.894c1.268,1.662,4.043,2.754,8.326,3.278v3.34h-30.684
			v-3.34c4.453-0.582,7.229-1.836,8.326-3.761c1.096-1.925,1.645-6.764,1.645-14.521v-90h-5.91c-5.826,0-9.791,1.437-11.898,4.307
			c-2.107,2.872-3.693,9.141-4.756,18.809h-2.568L893.279,432.745z"/>
	</g>
</g>
<g id="Layer_5">
	<text transform="matrix(1 0 0 1 464.4868 693.4199)" fill="#300063" font-family="'Times-Roman'" font-size="14">Paid for by Supporters of Eggplant for President</text>
	<rect x="456" y="675.601" fill="none" stroke="#300063" stroke-width="1.1047" stroke-miterlimit="10" width="288" height="26"/>
</g>
<g id="Layer_4">
	<g>
		<path fill="#FFFFFF" d="M677.788,198.893c-27.663-33.123-70.976-37.49-111.377-76.8c-24.386-23.659-67.335,23.295-55.688,45.861
			c15.651,29.847,51.685,86.991,84.079,112.105C664.32,333.562,733.839,265.864,677.788,198.893"/>
		<path opacity="0.15" enable-background="new    " d="M519.821,175.233c8.008-9.463,5.824-25.114,5.824-25.114
			s6.187,7.28,15.287,7.28l0.728-16.016c0,0,13.831-0.364,25.842-13.831l-40.765-1.457l-14.195,23.294L519.821,175.233"/>
		<g>
			<path fill="#FFE631" d="M523.098,119.181l-3.276,5.822c-8.735-5.822-21.11-21.837-8.735-44.04l5.459,3.64
				C505.263,104.622,521.278,117.725,523.098,119.181"/>
			<path fill="#FFE631" d="M546.028,132.647c13.832,1.457,26.571-9.462,26.571-9.462s-9.463-13.104-23.658-14.56
				c-13.832-1.457-25.843,2.548-26.57,9.1C521.641,124.64,532.197,131.192,546.028,132.647"/>
			<path fill="#FFE631" d="M501.987,147.207c-1.819,14.559,7.28,27.298,7.28,27.298s11.647-10.555,13.467-25.115
				c1.82-14.559-1.456-26.57-7.279-27.298C509.63,121.729,503.807,133.012,501.987,147.207"/>
		</g>
		<path fill="#FCDB1A" d="M515.09,139.199c9.1,12.74,28.754,12.74,28.754,12.74s4.368-20.746-4.732-33.849
			c-9.099-12.74-22.202-18.563-28.753-12.74C503.442,111.173,505.626,126.096,515.09,139.199"/>
	</g>
</g>
<g id="Layer_1">
</g>
</svg>
