<?xml version="1.0" encoding="utf-8"?>
<!-- Generator: Adobe Illustrator 16.0.4, SVG Export Plug-In . SVG Version: 6.00 Build 0)  -->
<!DOCTYPE svg PUBLIC "-//W3C//DTD SVG 1.1//EN" "http://www.w3.org/Graphics/SVG/1.1/DTD/svg11.dtd">
<svg version="1.1" xmlns="http://www.w3.org/2000/svg" xmlns:xlink="http://www.w3.org/1999/xlink" x="0px" y="0px" width="1200px"
	 height="760px" viewBox="0 0 1200 760" enable-background="new 0 0 1200 760" xml:space="preserve">
<g id="Layer_1">
	<path fill="#E6204E" d="M491.884,231.001c-21.169,7.651-42.128,17.676-63.519,24.354c-4.55,1.419-12.775,7.778-15.579,1.774
		c-3.893-8.605-8.792-12.813-19.05-13.123c-20.911-0.63-44.611,13.679-62.699,22.493c-1.291,0.629-4.999,2.286-8.173,4.07
		c0,0-51.312,26.815-69.147,31.952c-6.593,1.899-42.323,16.562-54.9,18.976c-10.184,1.956-27.944,0.005-36.724,4.854
		c-2.071,1.144-0.982,17.411,0.525,23.026c0.241,0.899,7.942,0.166,13.661-0.302l17.755-3.608
		c5.838-1.151,10.893-2.344,16.792-4.106c12.303-3.674,23.281-6.529,35.296-11.388c12.839-5.191,24.648-11.184,37.087-17.124
		c5.195-2.48,10.834-4.511,16.24-6.868l0.001,0.029l61.426-30.253c13.105-4.49,35.437-16.578,44.394-7.62
		c9.02,19.002,35.976,4.779,49.38-1.058c12.401-5.401,26.572-19.468,52.004-20.878c18.587-1.031,32.171,6.984,37.936,10.04
		c0.396,0.21-3.213-16.334-1.25-19.261C528.127,226.793,509.243,224.727,491.884,231.001z"/>
	<g>
		<path fill="#E6204E" d="M595.996,221.955c-1.138-0.278-17.055-1.002-22.271-1.348c-13.855-0.917-12.424-3.455-33.96-7.159
			c3.453,5.652,2.771,17.854,3.579,23.53c0.493-0.411,42.024,6.275,50.212,3.272C599.408,238.105,597.155,222.238,595.996,221.955z"
			/>
		<path fill="#E6204E" d="M534.532,193.223c-12.26-2.259-36.819-6.429-57.052-1.438c-20.732,5.114-40.283,16.495-61.118,21.048
			c-7.315,1.599-12.439-1.29-15.258-8.224c-8-3.171-14.473-4.795-23.031-3.312c-17.345,3.005-34.861,12.261-51.05,19.768
			c-38.785,17.984-77.326,38.711-118.853,49.765c-17.013,4.529-36.539,3.303-52.959,8.792c0.182,7.441,1.902,16.921,3.028,24.127
			c5.609,1.949,20.625-2.932,28.559-4.38c31.924-5.826,55.754-15.314,85.215-28.122c36.297-15.78,71.512-38.882,110.204-46.584
			c6.756-2.791,16.493-1.473,21.807,3.946c5.325,5.433,5.053,11.681,13.955,8.764c4.831-1.583,18.908-6.702,24.036-8.63
			c10.92-4.104,50.073-18.546,54.734-19.597c10.121-2.282,32.831-1.085,43.015,4.303
			C539.775,204.785,534.847,193.28,534.532,193.223z"/>
	</g>
	<path fill="#E6204E" d="M557.838,195.16c8.143,4.667,13.803,6.103,22.725,3.952c12.517-3.016,7.263-11.524,6.485-21.521
		c-6.309,0.103-12.408,2.541-18.76,1.941c-7.38-0.697-14.671-5.98-22.114-7.272c-4.538-0.789-11.674-0.463-19.227-0.417
		c-1.676,0.01,6.615,13.164,7.584,21.379C540.74,189.77,553.261,192.538,557.838,195.16z"/>
	<g>
		<path fill="#E6204E" d="M365.027,93.314c9.285-1.078,11.482,2.779,18.452,7.369c11.693,7.701,37.811-4.252,49.938-7.082
			c17.541-4.091,37.199-10.995,55.411-9.691c5.569,0.4,15.72,3.647,20.867,2.614c-1.478-5.885-3.929-19.113-14.633-20.654
			c-34.815-5.013-70.949,13.149-104.181,18.626c-5.382,0.887-11.947-4.905-15.396-8.25c-5.146-4.991-8.492-5.324-15.548-5.593
			C359.69,78.642,363.025,85.839,365.027,93.314z"/>
		<g>
			<g>
				<path fill="#E6204E" d="M527.535,166.161c0.004,0.018,0.005,0.033,0.009,0.05C527.61,166.301,527.594,166.263,527.535,166.161z"
					/>
				<path fill="#E6204E" d="M526.065,153.581c-2.241-1.672-10.673-3.202-12.881-3.851c-12.662-3.722-32.438-1.2-40.134,0.865
					c-19.656,5.273-39.129,11.192-58.603,17.096c-6.545,1.984-13.2,5.271-17.79-1.812c-4.487-6.926-12.468-8.815-20.244-8.219
					c-1.004,7.474,6.475,12.343,7.494,19.597c6.203,1.222,7.802,3.633,13.056,7.196c6.134,4.16,3.974,10.068,14.002,7.638
					c4.223-1.024,45.232-15.679,49.172-16.837c10.386-3.054,20.602-6.417,31.464-8.533c6.952-1.354,14.995-0.825,21.967,0.392
					c0.851,0.148,13.084,6.186,13.378,4.73C527.899,167.125,526.527,157.913,526.065,153.581z"/>
			</g>
			<path fill="#E6204E" d="M519.225,135.684c3.295,3.977,5.268,12.057,6.841,17.897c7.367,0.53,54.25,2.202,61.222,4.407
				c0.624-10.123,0.804-15.532-1.854-18.411C583.613,137.61,530.81,131.791,519.225,135.684z"/>
		</g>
		<g>
			<path fill="#E6204E" d="M433.017,115.849c-14.333,3.826-37.749,11.643-43.467,9.608c-1.87-0.666-3.929-4.981-4.651-9.286
				c-0.727-4.32-11.451-1.734-16.41-2.113c-0.111,6.824,3.042,12.046,4.045,18.554c-3.152,6.615,7.754,4.196,13.134,4.991
				c7.246,1.072,6.356,6.762,7.12,7.865c0.764,1.105,1.894,1.892,3.31,2.417c11.244,4.17,40.456-8.187,46.651-9.859
				c21.625-5.834,57.807-22.241,76.476-2.343c0.364-2.562-5.375-26.99-5.416-29.668C485.818,98.923,458.222,109.119,433.017,115.849
				z"/>
			<path fill="#E6204E" d="M568.682,91.217c-6.055-2.186-52.899-5.237-58.988-4.693c0,0,4.292,14.227,4.156,19.54
				c6.244-1.394,57.742,5.564,62.377,3.904C573.71,103.718,571.198,97.467,568.682,91.217z"/>
		</g>
		<path fill="#E6204E" d="M377.114,54.485c3.514,1.363,1.07-13.545-7.704-20.79c-2.863-2.363-12.809-7.759-22.3-5.181
			c1.397,7.499,4.6,14.479,7.298,21.602C355.987,50.163,361.602,48.47,377.114,54.485z"/>
		<path fill="#E6204E" d="M497.492,267.727c-21.169,7.652-42.129,23.987-63.519,30.664c-4.55,1.42-12.776,7.778-15.579,1.773
			c-3.892-8.605-8.792-12.813-19.05-13.123c-20.91-0.63-44.611,13.679-62.699,22.493c-1.291,0.629-4.999,2.285-8.173,4.071
			c0,0-11.422,5.602-24.275,11.712c-0.426,0.05-1.245,0.46-2.755,1.307c-8.069,3.82-16.416,7.697-22.658,10.413
			c-6.331,2.756-11.741,6.075-16.559,9.466c-6.931,2.941-13.954,5.706-21.129,8.456c-16.472,6.312-32.339,10.43-49.297,15.057
			c-8.106,2.211-17.621,1.531-26.035,2.24c-0.535,5.793-0.979,10.771-0.34,16.577c0.973,8.85,5.025,7.242,13.061,6.659
			c16.88-1.225,32.675-5.401,48.887-10.961c3.615-1.24,42.773-16.259,49.949-20.195c12.634-6.93,23.791-11.891,34.574-17.4
			c2.175-1.11,11.586-5.215,15.324-8.805l39.268-19.34c13.106-4.491,35.437-16.578,44.394-7.621
			c9.019,19.003,30.59,1.919,43.993-3.918c22.104-9.627,19.079-18.346,51.991-24.032c17.311-2.99,32.607,0.504,38.637,3
			c1.014,0.42-1.963-10.171,0-13.097C530.285,262.938,514.851,261.452,497.492,267.727z"/>
	</g>
	<path fill="#E6204E" d="M598.749,260.542c-6.817-3.142-14.65,3.854-19.788,2.89c-9.111-1.709-12.802-3.484-34.338-7.188
		c3.454,5.652,0.072,11.203,0.878,16.88c0.491-0.411,42.62,8.716,50.807,5.714C602.161,276.693,604.159,263.036,598.749,260.542z"/>
</g>
<g id="Layer_5">
	<polygon fill="#FFFFFF" points="410.296,279.445 352.786,296.65 352.786,329.987 392.542,329.987 	"/>
</g>
<g id="Layer_2">
	
		<line fill-rule="evenodd" clip-rule="evenodd" fill="none" stroke="#300362" stroke-width="6.3077" stroke-miterlimit="10" x1="110.143" y1="79.019" x2="202.658" y2="756.472"/>
	<circle fill-rule="evenodd" clip-rule="evenodd" fill="#300362" cx="110.143" cy="76.914" r="18.313"/>
	<path fill-rule="evenodd" clip-rule="evenodd" fill="#300362" d="M123.279,90.91c0,0,0.807,0.1,2.412,0.185
		c11.769,0.62,65.061-2.587,160.907-45.807c56.106-25.301,62.618-16.773,62.618-16.773s38.356,146.964,34.693,148.744
		c-3.664,1.778-74.565,25.468-119.017,50.835c-44.453,25.369-113.969,27.341-113.969,27.341"/>
</g>
<g id="Layer_4">
	<g>
		<g>
			<g>
				<path fill="#FFFFFF" d="M288.876,137.458c-17.281-13.922-39.564-11.77-63.892-27.531c-14.677-9.478-31.617,18.519-23.473,28.729
					c18.218,22.538,39.41,40.965,53.675,48.08C295.627,206.73,323.878,165.598,288.876,137.458"/>
			</g>
			<path opacity="0.15" fill="#FFFFFF" enable-background="new    " d="M206.833,141.412c3.084-5.578,0.409-13.252,0.409-13.252
				s3.854,3.05,8.443,2.134l-1.244-8.149c0,0,6.938-1.573,11.64-9.573l-20.704,3.365l-4.816,13.175L206.833,141.412"/>
			<g>
				<path fill="#FFFFFF" d="M202.848,112.814l-1.066,3.266c-4.991-2.059-12.843-8.89-8.835-21.332l3.12,1.288
					C192.389,107.265,201.782,112.262,202.848,112.814"/>
				<path fill="#FFFFFF" d="M215.765,117.301c7.122-0.657,12.448-7.445,12.448-7.445s-6.09-5.657-13.395-4.963
					c-7.122,0.656-12.777,3.883-12.485,7.261C202.662,115.713,208.644,117.957,215.765,117.301"/>
				<path fill="#FFFFFF" d="M195.02,129.071c0.546,7.525,6.416,13.035,6.416,13.035s4.813-6.495,4.267-14.02
					c-0.547-7.527-3.407-13.254-6.417-13.036C196.311,115.454,194.51,121.73,195.02,129.071"/>
			</g>
			<path fill="#FFFFFF" d="M200.822,123.715c5.87,5.509,15.783,3.533,15.783,3.533s0.116-10.902-5.791-16.595
				c-5.87-5.51-13.063-7.129-15.781-3.534C192.129,110.753,194.732,118.058,200.822,123.715"/>
		</g>
	</g>
</g>
<g id="Layer_6">
	<g>
		<g>
			<path fill="#300362" d="M583.977,144.259l-32.129-95.433h26.734l15.283,48.108c0.27,0.81,0.542,1.671,0.816,2.581
				c0.5-1.561,1.041-3.191,1.618-4.885l15.696-45.66l25.971-0.177l-32.957,95.467H583.977z"/>
			<path fill="#FFFFFF" d="M633.042,52.326l-30.528,88.433h-16.022l-29.772-88.433h19.302l14.507,45.667
				c0.925,2.775,1.849,6.055,2.775,9.84c0.42,1.766,0.84,3.576,1.262,5.424c0.42-2.097,0.924-4.196,1.514-6.294
				c0.925-3.272,2.102-7.007,3.532-11.206l14.887-43.306L633.042,52.326 M642.887,45.259l-9.893,0.067l-18.544,0.126l-4.96,0.034
				l-1.612,4.691l-13.094,38.092l-12.091-38.062l-1.55-4.881h-5.121h-19.302h-9.743l3.108,9.233l29.772,88.433l1.605,4.767h5.029
				h16.022h4.989l1.628-4.716l30.528-88.433L642.887,45.259L642.887,45.259z"/>
		</g>
		<g>
			<polygon fill="#300362" points="637.11,143.502 637.11,48.826 694.663,48.826 691.288,70.208 661.772,70.208 661.772,83.518 
				686.877,83.518 686.877,104.899 662.024,104.899 662.024,121.364 695.203,121.364 695.203,143.502 			"/>
			<path fill="#FFFFFF" d="M690.567,52.326l-2.271,14.381h-30.024v20.311h25.104v14.381h-24.853v23.465h33.179v15.138H640.61V52.326
				H690.567 M698.759,45.326h-8.191H640.61h-7v7v87.676v7h7h51.093h7v-7v-15.138v-7h-7h-26.179v-9.465h17.853h7v-7V87.018v-7h-7
				h-18.104v-6.311h23.024h5.981l0.933-5.908l2.271-14.381L698.759,45.326L698.759,45.326z"/>
		</g>
		<g>
			<polygon fill="#300362" points="713.938,143.502 713.938,70.46 692.492,70.46 692.492,48.826 763.457,48.826 759.168,70.46 
				738.853,70.46 738.853,143.502 			"/>
			<path fill="#FFFFFF" d="M759.195,52.326l-2.901,14.634h-20.941v73.042h-17.914V66.96h-21.446V52.326H759.195 M767.72,45.326
				h-8.524h-63.203h-7v7V66.96v7h7h14.446v66.042v7h7h17.914h7v-7V73.96h13.941h5.748l1.118-5.639l2.901-14.634L767.72,45.326
				L767.72,45.326z"/>
		</g>
		<g>
			<polygon fill="#300362" points="763.264,143.502 763.264,48.826 820.816,48.826 817.441,70.208 787.926,70.208 787.926,83.518 
				813.03,83.518 813.03,104.899 788.178,104.899 788.178,121.364 821.356,121.364 821.356,143.502 			"/>
			<path fill="#FFFFFF" d="M816.721,52.326l-2.271,14.381h-30.024v20.311h25.104v14.381h-24.853v23.465h33.179v15.138h-51.093
				V52.326H816.721 M824.912,45.326h-8.191h-49.957h-7v7v87.676v7h7h51.093h7v-7v-15.138v-7h-7h-26.179v-9.465h17.853h7v-7V87.018
				v-7h-7h-18.104v-6.311h23.024h5.981l0.933-5.908l2.271-14.381L824.912,45.326L824.912,45.326z"/>
		</g>
		<g>
			<path fill="#300362" d="M869.841,143.502l-1.013-1.736c-2.923-5.006-5.694-9.867-8.237-14.446
				c-4.315-7.881-7.418-13.217-9.23-15.875c-0.558-0.818-1.055-1.478-1.493-2.01v34.067h-24.283V48.686l36.188,0.14
				c8.647,0,15.762,2.722,21.132,8.089c5.368,5.371,8.09,12.485,8.09,21.146c0,7.349-2.191,13.796-6.515,19.163
				c-2.8,3.477-6.008,5.904-9.588,7.265c3.486,4.683,10.297,15.739,20.798,33.751l3.068,5.263H869.841z M852.297,86.672
				c7.872,0,10.314-1.469,10.999-2.101c1.448-1.337,2.152-3.343,2.152-6.132c0-4.685-1.757-6.172-3.079-6.884
				c-1.321-0.752-4.001-1.6-9.694-1.6h-2.7l-0.089,16.717H852.297z"/>
			<path fill="#FFFFFF" d="M829.084,52.2l32.674,0.126c7.736,0,13.96,2.355,18.671,7.064c4.709,4.711,7.064,10.934,7.064,18.67
				c0,6.56-1.914,12.217-5.74,16.968c-3.828,4.752-8.433,7.171-13.813,7.254c1.345,1.094,2.564,2.314,3.658,3.658
				c3.11,3.954,10.134,15.308,21.067,34.062h-20.814c-2.945-5.046-5.678-9.84-8.2-14.381c-4.374-7.989-7.506-13.373-9.398-16.148
				s-3.596-4.542-5.109-5.298c-0.842-0.42-1.767-0.672-2.775-0.757v36.584h-17.283V52.2 M846.367,90.172h5.93
				c6.727,0,11.184-1.009,13.372-3.028c2.186-2.018,3.279-4.92,3.279-8.705c0-4.876-1.64-8.2-4.92-9.966
				c-2.355-1.344-6.14-2.019-11.354-2.019h-6.182L846.367,90.172 M822.084,45.172V52.2v87.803v7h7h17.283h7v-7v-18.462
				c1.22,2.144,2.602,4.627,4.144,7.442c2.576,4.639,5.36,9.521,8.294,14.548l2.026,3.471h4.02h20.814h12.184l-6.137-10.526
				c-8.57-14.701-14.723-24.83-18.638-30.681c2.606-1.598,5.001-3.732,7.13-6.376c4.837-6.005,7.289-13.191,7.289-21.359
				c0-9.623-3.066-17.569-9.113-23.619c-6.053-6.049-13.999-9.116-23.622-9.116L829.111,45.2L822.084,45.172L822.084,45.172z
				 M853.404,83.161l0.052-9.7c5.067,0.079,6.797,0.917,7.103,1.092l0.075,0.043l0.076,0.041c0.339,0.182,1.238,0.667,1.238,3.802
				c0,2.478-0.696,3.248-0.984,3.521C860.777,82.078,859.063,83.047,853.404,83.161L853.404,83.161z"/>
		</g>
		<g>
			<path fill="#300362" d="M945.562,143.502l-6.182-20.815h-20.513l-6.182,20.815h-25.856l31.052-94.929h24.156l29.827,94.929
				H945.562z M932.994,101.053c-0.924-3.28-2.076-7.689-3.481-13.313c-0.081-0.345-0.172-0.736-0.273-1.174l-0.628,2.551
				c-1.071,4.226-2.175,8.22-3.298,11.937H932.994z"/>
			<path fill="#FFFFFF" d="M939.468,52.074l27.628,87.929h-18.923l-6.182-20.815h-25.735l-6.182,20.815h-18.418l28.763-87.929
				H939.468 M920.545,104.553h17.157c-1.01-3.027-2.608-8.914-4.794-17.661c-0.59-2.523-1.767-7.695-3.532-15.517l-4.163,16.905
				C923.699,94.252,922.142,99.677,920.545,104.553 M944.605,45.074h-5.138h-19.049h-5.075l-1.578,4.824l-28.763,87.929
				l-3.001,9.176h9.654h18.418h5.224l1.486-5.007l4.695-15.808h15.288l4.695,15.808l1.486,5.007h5.224h18.923h9.537l-2.859-9.098
				l-27.628-87.929L944.605,45.074L944.605,45.074z"/>
		</g>
		<g>
			<path fill="#300362" d="M1014.278,143.502l-15.939-35.627c-1.609-3.616-3.061-6.919-4.356-9.914
				c0.028,1.45,0.053,2.957,0.076,4.523l0.553,41.018h-24.078V48.826h25.259l17.73,37.06c0.535,1.124,1.055,2.24,1.559,3.35
				c-0.006-0.35-0.012-0.697-0.016-1.041l-0.416-39.369h23.815v94.676H1014.278z"/>
			<path fill="#FFFFFF" d="M1034.965,52.326v87.676h-18.418l-15.013-33.557c-6.478-14.549-10.43-24.137-11.858-28.763
				c0.42,4.963,0.714,13.246,0.883,24.853l0.505,37.467h-17.03V52.326h19.554l16.778,35.07c4.204,8.831,7.399,17.116,9.588,24.852
				c-0.842-9.25-1.306-17.283-1.388-24.095l-0.379-35.827H1034.965 M1041.965,45.326h-7h-16.778h-7.074l0.074,7.074l0.222,20.957
				l-11.507-24.052l-1.903-3.979h-4.411h-19.554h-7v7v87.676v7h7h17.03h7.095l-0.096-7.094l-0.334-24.829l12.429,27.782l1.853,4.141
				h4.537h18.418h7v-7V52.326V45.326L1041.965,45.326z"/>
		</g>
		<g>
			<path fill="#300362" d="M1075.081,145.395c-11.25,0-21.895-2.83-31.638-8.41l-2.817-1.614l9.522-19.96l3.218,1.685
				c8.448,4.422,16.009,6.665,22.472,6.665c10.478,0,11.891-4.289,11.891-8.484c0-1.513,0-5.53-8.907-7.979l-9.707-2.648
				c-9.263-2.501-15.778-6.762-19.355-12.664c-2.765-4.573-4.165-9.681-4.165-15.187c0-9.018,3.358-16.488,9.98-22.204
				c6.471-5.586,14.859-8.419,24.932-8.419c12.048,0,22.584,3.193,31.315,9.492l2.723,1.964l-12.025,18.22l-2.877-1.732
				c-6.815-4.104-13.084-6.185-18.631-6.185c-2.798,0-4.953,0.663-6.591,2.027c-1.464,1.221-2.146,2.671-2.146,4.565
				c0,1.669,0.571,2.383,1.001,2.774c0.573,0.522,2.129,1.562,6.153,2.686l10.58,2.896c16.21,4.421,24.779,14.618,24.779,29.49
				c0,9.978-3.766,18.105-11.192,24.159C1096.383,142.413,1086.789,145.395,1075.081,145.395z"/>
			<path fill="#FFFFFF" d="M1080.506,49.677c11.354,0,21.108,2.945,29.268,8.831l-8.326,12.615
				c-7.401-4.457-14.214-6.686-20.437-6.686c-3.617,0-6.561,0.946-8.831,2.838c-2.271,1.893-3.406,4.311-3.406,7.254
				c0,2.271,0.714,4.059,2.145,5.362c1.429,1.305,3.952,2.46,7.569,3.469l10.597,2.901c14.802,4.037,22.203,12.741,22.203,26.114
				c0,8.916-3.302,16.065-9.903,21.446c-6.604,5.383-15.371,8.074-26.303,8.074c-10.682,0-20.647-2.649-29.898-7.947l6.561-13.751
				c8.998,4.711,17.03,7.064,24.095,7.064c10.26,0,15.391-3.993,15.391-11.984c0-5.466-3.828-9.25-11.479-11.354l-9.714-2.649
				c-8.411-2.271-14.173-5.971-17.283-11.102c-2.44-4.037-3.658-8.494-3.658-13.372c0-7.989,2.921-14.508,8.768-19.554
				C1063.706,52.2,1071.253,49.677,1080.506,49.677 M1080.506,42.677c-10.937,0-20.094,3.119-27.219,9.271
				c-7.427,6.41-11.193,14.771-11.193,24.852c0,6.153,1.57,11.871,4.668,16.994c4.064,6.704,11.279,11.492,21.449,14.238
				l9.696,2.645c6.321,1.737,6.321,3.817,6.321,4.6c0,2.336,0,4.984-8.391,4.984c-5.893,0-12.906-2.108-20.848-6.266l-6.437-3.37
				l-3.128,6.557l-6.561,13.751l-2.797,5.861l5.636,3.228c10.279,5.888,21.509,8.873,33.377,8.873
				c12.535,0,22.873-3.246,30.726-9.648c8.281-6.75,12.48-15.791,12.48-26.872c0-11.59-4.747-26.7-27.361-32.867l-10.59-2.899
				c-2.942-0.821-4.157-1.513-4.548-1.777c-0.008-0.073-0.015-0.172-0.015-0.303c0-0.86,0.216-1.316,0.889-1.877
				c0.359-0.3,1.458-1.215,4.349-1.215c4.902,0,10.563,1.912,16.825,5.683l5.754,3.464l3.699-5.605l8.326-12.615l3.699-5.604
				l-5.445-3.929C1104.529,46.093,1093.304,42.677,1080.506,42.677L1080.506,42.677z"/>
		</g>
	</g>
	<g>
		<g>
			<polygon fill="#E6204E" points="909.599,267.482 909.599,173.058 964.689,173.058 961.68,194.313 934.261,194.313 
				934.261,207.372 956.59,207.372 956.59,228.753 934.261,228.753 934.261,267.482 			"/>
			<path fill="#FFFFFF" d="M960.659,176.558l-2.019,14.255h-27.88v20.059h22.329v14.381h-22.329v38.729h-17.662v-87.424H960.659
				 M968.721,169.558h-8.062h-47.561h-7v7v87.424v7h7h17.662h7v-7v-31.729h15.329h7v-7v-14.381v-7h-7h-15.329v-6.059h20.88h6.078
				l0.853-6.019l2.019-14.255L968.721,169.558L968.721,169.558z"/>
		</g>
		<g>
			<path fill="#E6204E" d="M1002.794,268.87c-13.697,0-24.22-4.616-31.276-13.719c-7.183-9.245-10.826-20.918-10.826-34.692
				c0-9.995,1.88-18.935,5.587-26.57c3.793-7.816,9.184-13.701,16.022-17.491c5.728-3.14,12.405-4.728,19.863-4.728
				c12.71,0,22.904,4.428,30.298,13.16c7.247,8.562,10.922,20.294,10.922,34.873c0,21.793-7.186,36.829-21.355,44.691
				C1016.64,267.365,1010.171,268.87,1002.794,268.87z M1001.911,192.294c-5.097,0-8.441,1.85-10.524,5.821
				c-2.664,5.097-4.016,12.616-4.016,22.343c0,17.21,3.484,23.406,6.407,25.573c2.074,1.556,4.891,2.339,8.386,2.339
				c4.872,0,8.127-1.79,10.243-5.631c2.432-4.416,3.665-11.998,3.665-22.533c0-8.269-0.711-14.753-2.113-19.273
				c-0.664-2.188-1.855-4.017-3.649-5.611C1008.01,193.286,1005.26,192.294,1001.911,192.294z"/>
			<path fill="#FFFFFF" d="M1002.164,175.17c11.688,0,20.897,3.974,27.627,11.921c6.728,7.948,10.093,18.819,10.093,32.611
				c0,20.521-6.519,34.398-19.554,41.63c-4.879,2.691-10.724,4.037-17.536,4.037c-12.615,0-22.12-4.12-28.51-12.363
				c-6.729-8.662-10.093-19.511-10.093-32.548c0-9.503,1.744-17.851,5.235-25.042c3.489-7.19,8.346-12.509,14.57-15.958
				C989.211,176.601,995.267,175.17,1002.164,175.17 M1002.164,251.871c6.138,0,10.575-2.479,13.309-7.443
				c2.732-4.961,4.1-13.035,4.1-24.222c0-8.661-0.757-15.432-2.271-20.311c-0.842-2.775-2.396-5.172-4.667-7.19
				c-2.945-2.606-6.519-3.911-10.724-3.911c-6.393,0-10.934,2.566-13.624,7.695c-2.945,5.636-4.416,13.625-4.416,23.969
				c0,15.056,2.606,24.517,7.822,28.385C994.384,250.862,997.874,251.871,1002.164,251.871 M1002.164,168.17
				c-8.053,0-15.297,1.733-21.532,5.151c-7.509,4.161-13.389,10.562-17.503,19.04c-3.939,8.115-5.938,17.569-5.938,28.098
				c0,14.57,3.891,26.965,11.565,36.842c7.748,9.997,19.202,15.068,34.037,15.068c7.976,0,15.013-1.651,20.917-4.908
				c15.382-8.534,23.173-24.6,23.173-47.76c0-15.429-3.953-27.923-11.75-37.133C1027.043,173.014,1015.951,168.17,1002.164,168.17
				L1002.164,168.17z M1002.164,244.871c-2.722,0-4.831-0.547-6.271-1.627c-1.202-0.892-5.022-5.099-5.022-22.785
				c0-9.157,1.218-16.131,3.62-20.727c1.07-2.041,2.714-3.938,7.42-3.938c2.491,0,4.425,0.685,6.085,2.154
				c1.286,1.143,2.143,2.448,2.607,3.979c1.311,4.226,1.969,10.362,1.969,18.279c0,12.379-1.757,18.168-3.231,20.845
				C1008.248,243.035,1006.623,244.871,1002.164,244.871L1002.164,244.871z"/>
		</g>
		<g>
			<path fill="#E6204E" d="M1092.371,267.482l-1.013-1.736c-2.923-5.007-5.694-9.867-8.237-14.446
				c-4.315-7.881-7.417-13.216-9.23-15.875c-0.558-0.818-1.055-1.478-1.493-2.01v34.067h-24.283v-94.816l36.188,0.14
				c8.647,0,15.762,2.722,21.132,8.089c5.368,5.371,8.09,12.485,8.09,21.146c0,7.349-2.191,13.796-6.515,19.163
				c-2.8,3.477-6.008,5.904-9.588,7.265c3.486,4.683,10.297,15.739,20.798,33.751l3.068,5.263H1092.371z M1074.827,210.651
				c7.872,0,10.314-1.469,10.999-2.101c1.448-1.337,2.152-3.343,2.152-6.132c0-4.685-1.757-6.172-3.079-6.884
				c-1.321-0.752-4.001-1.6-9.694-1.6h-2.7l-0.089,16.717H1074.827z"/>
			<path fill="#FFFFFF" d="M1051.614,176.179l32.674,0.126c7.736,0,13.96,2.355,18.671,7.064c4.709,4.711,7.064,10.934,7.064,18.67
				c0,6.56-1.914,12.217-5.74,16.968c-3.828,4.752-8.433,7.171-13.813,7.254c1.345,1.094,2.564,2.314,3.658,3.658
				c3.11,3.954,10.134,15.308,21.067,34.062h-20.814c-2.945-5.046-5.678-9.84-8.2-14.381c-4.374-7.989-7.506-13.373-9.398-16.148
				s-3.596-4.542-5.109-5.298c-0.842-0.42-1.767-0.672-2.775-0.757v36.584h-17.283V176.179 M1068.897,214.151h5.93
				c6.727,0,11.184-1.009,13.372-3.028c2.186-2.018,3.279-4.92,3.279-8.705c0-4.876-1.64-8.2-4.92-9.966
				c-2.355-1.344-6.14-2.019-11.354-2.019h-6.182L1068.897,214.151 M1044.614,169.152v7.027v87.803v7h7h17.283h7v-7V245.52
				c1.22,2.144,2.602,4.627,4.144,7.442c2.576,4.639,5.359,9.521,8.294,14.548l2.026,3.471h4.02h20.814h12.184l-6.137-10.526
				c-8.57-14.701-14.723-24.83-18.638-30.681c2.606-1.598,5.001-3.732,7.13-6.376c4.837-6.005,7.289-13.191,7.289-21.359
				c0-9.623-3.066-17.569-9.113-23.619c-6.053-6.049-13.999-9.116-23.622-9.116l-32.646-0.126L1044.614,169.152L1044.614,169.152z
				 M1075.935,207.141l0.052-9.7c5.067,0.079,6.797,0.917,7.103,1.092l0.075,0.043l0.076,0.041c0.339,0.182,1.238,0.667,1.238,3.802
				c0,2.478-0.696,3.248-0.984,3.521C1083.308,206.058,1081.594,207.027,1075.935,207.141L1075.935,207.141z"/>
		</g>
	</g>
	<g>
		<g>
			<polygon fill="#300362" points="327.34,420.245 327.34,291.036 403.538,291.036 399.532,316.41 357.361,316.41 357.361,340.184 
				392.925,340.184 392.925,365.557 357.718,365.557 357.718,393.798 404.721,393.798 404.721,420.245 			"/>
			<path fill="#FFFFFF" d="M400.612,293.536l-3.217,20.374h-42.535v28.773h35.564v20.374h-35.207v33.241h47.002v21.446h-72.38
				V293.536H400.612 M406.464,288.536h-5.852H329.84h-5v5v124.208v5h5h72.38h5v-5v-21.446v-5h-5h-42.002v-23.241h30.207h5v-5
				v-20.374v-5h-5h-30.564V318.91h37.535h4.272l0.667-4.22l3.217-20.374L406.464,288.536L406.464,288.536z"/>
		</g>
		<g>
			<path fill="#300362" d="M467.81,421.674c-19.072,0-33.985-6.696-44.324-19.903c-9.13-11.717-13.757-26.845-13.757-44.969
				c0-26.857,9.092-46.557,27.024-58.553c9.074-6.09,19.705-9.179,31.593-9.179c15.916,0,29.756,5.017,41.137,14.911l1.867,1.623
				l-16.417,19.3l-1.898-1.553c-7.368-6.029-15.554-9.085-24.331-9.085c-6.907,0-12.191,1.822-16.153,5.571
				c-6.472,6.251-9.763,19.115-9.763,38.217c0,16.736,2.875,28.042,8.544,33.601c4.313,4.208,10.115,6.255,17.729,6.255
				c4.432,0,8.332-0.713,11.619-2.122v-24.153h-18.58l-4.006-25.374h53.5v63.261l-1.229,0.726
				C497.526,417.83,483.208,421.674,467.81,421.674z"/>
			<path fill="#FFFFFF" d="M468.346,291.57c15.37,0,28.534,4.767,39.497,14.297l-13.225,15.548
				c-7.863-6.434-16.503-9.65-25.914-9.65c-7.506,0-13.465,2.086-17.872,6.255c-7.031,6.791-10.544,20.136-10.544,40.033
				c0,17.514,3.097,29.31,9.293,35.386c4.764,4.647,11.259,6.97,19.48,6.97c5.479,0,10.187-1.011,14.119-3.038v-28.237h-18.944
				l-3.217-20.374h48.075v59.334c-12.51,7.389-26.271,11.081-41.284,11.081c-18.349,0-32.468-6.313-42.356-18.944
				c-8.818-11.318-13.225-25.794-13.225-43.428c0-26.093,8.637-44.917,25.914-56.475C446.838,294.491,456.908,291.57,468.346,291.57
				 M468.346,286.57c-12.394,0-23.493,3.232-32.99,9.606c-18.662,12.484-28.127,32.883-28.127,60.626
				c0,18.694,4.805,34.339,14.281,46.501c10.845,13.852,26.42,20.871,46.3,20.871c15.852,0,30.598-3.962,43.827-11.775l2.457-1.451
				v-2.854V348.76v-5h-5h-48.075h-5.852l0.913,5.78l3.217,20.374l0.667,4.22h4.272h13.944v19.933
				c-2.646,0.892-5.701,1.342-9.119,1.342c-6.93,0-12.16-1.815-15.989-5.549c-5.089-4.991-7.785-15.993-7.785-31.807
				c0-18.12,3.111-30.711,8.999-36.418c3.475-3.277,8.19-4.87,14.417-4.87c8.3,0,15.741,2.787,22.748,8.52l3.796,3.106l3.178-3.736
				l13.225-15.548l3.205-3.768l-3.733-3.245C499.274,291.793,484.882,286.57,468.346,286.57L468.346,286.57z"/>
		</g>
		<g>
			<path fill="#300362" d="M576.11,421.674c-19.072,0-33.985-6.696-44.324-19.903c-9.13-11.717-13.757-26.845-13.757-44.969
				c0-26.857,9.092-46.557,27.024-58.553c9.074-6.09,19.705-9.179,31.593-9.179c15.916,0,29.756,5.017,41.137,14.911l1.866,1.623
				l-16.416,19.3l-1.898-1.553c-7.369-6.029-15.555-9.085-24.332-9.085c-6.907,0-12.191,1.822-16.153,5.571
				c-6.472,6.251-9.763,19.115-9.763,38.217c0,16.736,2.875,28.042,8.544,33.601c4.313,4.208,10.115,6.255,17.729,6.255
				c4.432,0,8.332-0.713,11.619-2.122v-24.153h-18.58l-4.006-25.374h53.501v63.261l-1.229,0.726
				C605.826,417.83,591.508,421.674,576.11,421.674z"/>
			<path fill="#FFFFFF" d="M576.646,291.57c15.37,0,28.534,4.767,39.497,14.297l-13.225,15.548
				c-7.864-6.434-16.504-9.65-25.915-9.65c-7.506,0-13.465,2.086-17.872,6.255c-7.031,6.791-10.544,20.136-10.544,40.033
				c0,17.514,3.097,29.31,9.293,35.386c4.764,4.647,11.259,6.97,19.48,6.97c5.479,0,10.187-1.011,14.119-3.038v-28.237h-18.944
				l-3.217-20.374h48.076v59.334c-12.512,7.389-26.272,11.081-41.285,11.081c-18.349,0-32.468-6.313-42.356-18.944
				c-8.818-11.318-13.225-25.794-13.225-43.428c0-26.093,8.637-44.917,25.914-56.475C555.139,294.491,565.208,291.57,576.646,291.57
				 M576.646,286.57c-12.394,0-23.493,3.232-32.99,9.606c-18.662,12.484-28.127,32.883-28.127,60.626
				c0,18.694,4.805,34.339,14.281,46.501c10.845,13.852,26.42,20.871,46.3,20.871c15.852,0,30.597-3.962,43.828-11.775l2.457-1.451
				v-2.854V348.76v-5h-5h-48.076h-5.852l0.913,5.78l3.217,20.374l0.667,4.22h4.272h13.944v19.933
				c-2.646,0.892-5.701,1.342-9.119,1.342c-6.93,0-12.16-1.815-15.989-5.549c-5.089-4.991-7.785-15.993-7.785-31.807
				c0-18.121,3.112-30.713,9-36.419c3.475-3.276,8.19-4.869,14.416-4.869c8.3,0,15.741,2.787,22.749,8.521l3.797,3.106l3.178-3.737
				l13.225-15.548l3.205-3.768l-3.733-3.245C607.574,291.793,593.182,286.57,576.646,286.57L576.646,286.57z"/>
		</g>
		<g>
			<path fill="#300362" d="M633.12,420.245V290.679h35.206c16.307,0,27.987,2.091,35.709,6.393
				c12.712,7.122,19.154,18.679,19.154,34.353c0,8.632-2.009,16.451-5.97,23.242c-3.993,6.847-9.682,12.054-16.905,15.476
				c-6.15,2.889-14.866,4.352-25.912,4.352h-11.262v45.751H633.12z M673.688,349.119c5.346,0,7.751-0.343,8.826-0.63
				c2.23-0.65,4.14-2.208,5.785-4.751c1.689-2.612,2.547-6.575,2.547-11.778c0-5.167-1.285-9.201-3.818-11.991
				c-2.507-2.755-5.935-4.095-10.48-4.095h-13.406v33.245H673.688z"/>
			<path fill="#FFFFFF" d="M668.326,293.179c15.727,0,27.224,2.027,34.492,6.077c11.912,6.674,17.871,17.397,17.871,32.169
				c0,8.221-1.876,15.548-5.629,21.982c-3.753,6.434-9.025,11.259-15.816,14.476c-5.839,2.742-14.119,4.111-24.842,4.111h-13.762
				v45.751H635.62V293.179H668.326 M660.641,351.619h13.047c4.526,0,7.685-0.237,9.472-0.715c2.859-0.832,5.272-2.77,7.238-5.808
				s2.948-7.417,2.948-13.136c0-5.836-1.49-10.394-4.468-13.672c-2.979-3.275-7.09-4.915-12.331-4.915h-15.906V351.619
				 M668.326,288.179H635.62h-5v5v124.566v5h5h25.021h5v-5v-40.751h8.762c11.577,0,20.397-1.5,26.967-4.585
				c7.703-3.649,13.758-9.192,18.011-16.483c4.187-7.177,6.31-15.421,6.31-24.501c0-16.646-6.873-28.937-20.428-36.531
				C697.148,290.373,685.07,288.179,668.326,288.179L668.326,288.179z M665.641,318.374h10.906c3.802,0,6.625,1.073,8.633,3.279
				c2.13,2.345,3.166,5.717,3.166,10.307c0,4.646-0.742,8.25-2.146,10.419c-1.29,1.994-2.724,3.208-4.381,3.707
				c-0.671,0.17-2.732,0.532-8.131,0.532h-8.047V318.374L665.641,318.374z"/>
		</g>
		<g>
			<polygon fill="#300362" points="736.596,420.245 736.596,291.036 767.152,291.036 767.152,394.514 812.249,394.514 
				806.704,420.245 			"/>
			<path fill="#FFFFFF" d="M764.652,293.536v103.478h44.501l-4.468,20.731h-65.59V293.536H764.652 M769.652,288.536h-5h-25.557h-5v5
				v124.208v5h5h65.59h4.037l0.851-3.947l4.468-20.731l1.305-6.053h-6.192h-39.501v-98.478V288.536L769.652,288.536z"/>
		</g>
		<g>
			<path fill="#300362" d="M887.889,420.245l-8.758-29.488h-32.728l-8.757,29.488H806.24l42.383-129.566h30.634l40.711,129.566
				H887.889z M871.521,365.025c-1.425-4.797-3.375-12.141-5.817-21.914c-0.538-2.304-1.423-6.168-2.681-11.715l-3.367,13.673
				c-1.816,7.166-3.699,13.858-5.614,19.957H871.521z"/>
			<path fill="#FFFFFF" d="M877.422,293.179l39.14,124.566h-26.808l-8.758-29.488h-36.458l-8.757,29.488h-26.093l40.747-124.566
				H877.422 M850.614,367.525h24.306c-1.43-4.289-3.694-12.627-6.791-25.02c-0.835-3.575-2.502-10.902-5.004-21.982l-5.897,23.948
				C855.083,352.932,852.877,360.617,850.614,367.525 M881.092,288.179h-3.67h-26.986h-3.625l-1.127,3.445L804.937,416.19
				l-2.145,6.555h6.896h26.093h3.731l1.062-3.577l7.695-25.912h28.996l7.695,25.912l1.062,3.577h3.73h26.808h6.812l-2.042-6.499
				l-39.14-124.566L881.092,288.179L881.092,288.179z M857.427,362.525c1.584-5.244,3.14-10.878,4.647-16.826l0.856-3.476
				c0.121,0.526,0.231,0.999,0.329,1.419l0.009,0.038l0.01,0.037c1.982,7.936,3.611,14.166,4.917,18.808H857.427L857.427,362.525z"
				/>
		</g>
		<g>
			<path fill="#300362" d="M984.997,420.245l-21.93-49.018c-4.671-10.492-8.391-19.099-11.199-25.919
				c0.181,5.513,0.325,11.962,0.433,19.321l0.749,55.616h-29.161V291.036h31.776l24.449,51.104
				c2.756,5.787,5.221,11.446,7.385,16.947c-0.293-5.314-0.468-10.247-0.522-14.766l-0.562-53.286h28.795v129.208H984.997z"/>
			<path fill="#FFFFFF" d="M1012.709,293.536v124.208h-26.092l-21.268-47.539c-9.176-20.611-14.775-34.194-16.8-40.748
				c0.595,7.031,1.011,18.765,1.251,35.207l0.715,53.079h-24.127V293.536h27.701l23.77,49.684
				c5.957,12.51,10.483,24.247,13.583,35.207c-1.192-13.105-1.849-24.484-1.966-34.135l-0.536-50.756H1012.709 M1017.709,288.536h-5
				H988.94h-5.053l0.053,5.053l0.536,50.756c0.006,0.424,0.012,0.85,0.019,1.281c-0.688-1.51-1.394-3.028-2.121-4.555
				l-23.773-49.692l-1.36-2.842h-3.15h-27.701h-5v5v124.208v5h5h24.127h5.067l-0.067-5.067l-0.715-53.079
				c-0.032-2.151-0.066-4.218-0.104-6.202c1.813,4.19,3.84,8.8,6.085,13.843l21.271,47.547l1.324,2.958h3.24h26.092h5v-5V293.536
				V288.536L1017.709,288.536z"/>
		</g>
		<g>
			<polygon fill="#300362" points="1054.173,420.245 1054.173,316.768 1023.791,316.768 1023.791,291.036 1118.872,291.036 
				1113.771,316.768 1084.551,316.768 1084.551,420.245 			"/>
			<path fill="#FFFFFF" d="M1115.828,293.536l-4.11,20.731h-29.667v103.477h-25.378V314.268h-30.382v-20.731H1115.828
				 M1121.917,288.536h-6.089h-89.537h-5v5v20.731v5h5h25.382v98.477v5h5h25.378h5v-5v-98.477h24.667h4.106l0.798-4.027l4.11-20.731
				L1121.917,288.536L1121.917,288.536z"/>
		</g>
	</g>
	<g>
		
			<text transform="matrix(0.5848 0 0 1 647.5137 524.7031)" fill="#E6204E" font-family="'MetaBold'" font-size="58.1594" letter-spacing="10.26">EGGPLANT</text>
	</g>
	
		<rect x="48.62" y="698.188" fill="#FFFFFF" stroke="#300063" stroke-width="1.1874" stroke-miterlimit="10" width="309.552" height="27.944"/>
	<g>
		<g>
			<g>
				
					<text transform="matrix(0.5848 0 0 1 519.2246 695.9385)" fill="#E6204E" font-family="'MetaBold'" font-size="58.1594" letter-spacing="10.26">EGGPLANT</text>
			</g>
			<g>
				
					<text transform="matrix(0.5848 0 0 1 760.498 695.9385)" fill="#E6204E" font-family="'MetaBold'" font-size="58.1594" letter-spacing="10.26">EGGPLANT!</text>
			</g>
		</g>
	</g>
	
		<text transform="matrix(0.5848 0 0 1 475.9067 630.1484)" fill="#E6204E" font-family="'Times-Roman'" font-size="130.8587" letter-spacing="30.78">EGGPLANT</text>
	<g>
		<path fill="#300063" d="M57.982,717.06c0.573-0.054,0.931-0.167,1.073-0.34c0.142-0.173,0.213-0.569,0.213-1.188v-6.517
			c0-0.524-0.08-0.87-0.239-1.036c-0.159-0.167-0.508-0.272-1.047-0.316v-0.279h3.968c1.273,0,2.248,0.248,2.925,0.742
			c0.676,0.495,1.014,1.146,1.014,1.954c0,1.024-0.375,1.767-1.124,2.227c-0.75,0.461-1.688,0.69-2.814,0.69
			c-0.161,0-0.368-0.003-0.621-0.011c-0.252-0.007-0.439-0.011-0.562-0.011v2.733c0,0.564,0.087,0.921,0.261,1.066
			c0.174,0.146,0.562,0.241,1.164,0.285v0.279h-4.21V717.06z M63.06,708.221c-0.426-0.187-0.965-0.279-1.616-0.279
			c-0.309,0-0.498,0.03-0.569,0.092s-0.106,0.197-0.106,0.408v3.923c0.27,0.025,0.445,0.04,0.529,0.045
			c0.083,0.005,0.164,0.007,0.242,0.007c0.69,0,1.234-0.098,1.631-0.294c0.72-0.357,1.08-1.026,1.08-2.006
			C64.25,709.195,63.854,708.563,63.06,708.221z"/>
		<path fill="#300063" d="M67.726,714.099c0.451-0.294,1.35-0.693,2.696-1.197v-0.625c0-0.5-0.049-0.848-0.146-1.043
			c-0.167-0.328-0.512-0.492-1.036-0.492c-0.25,0-0.487,0.063-0.713,0.19c-0.225,0.133-0.338,0.313-0.338,0.544
			c0,0.059,0.013,0.158,0.037,0.298s0.036,0.229,0.036,0.268c0,0.274-0.09,0.466-0.271,0.573c-0.103,0.063-0.226,0.096-0.367,0.096
			c-0.221,0-0.39-0.072-0.507-0.217c-0.118-0.145-0.177-0.305-0.177-0.481c0-0.343,0.212-0.701,0.636-1.076s1.045-0.562,1.862-0.562
			c0.95,0,1.595,0.309,1.933,0.926c0.182,0.339,0.271,0.831,0.271,1.478v2.946c0,0.284,0.02,0.479,0.06,0.588
			c0.063,0.19,0.195,0.286,0.396,0.286c0.112,0,0.206-0.017,0.279-0.052c0.073-0.034,0.2-0.117,0.382-0.249v0.382
			c-0.157,0.19-0.326,0.348-0.507,0.47c-0.274,0.187-0.554,0.279-0.838,0.279c-0.333,0-0.574-0.107-0.724-0.323
			c-0.149-0.215-0.231-0.473-0.246-0.771c-0.372,0.323-0.69,0.563-0.955,0.721c-0.446,0.264-0.869,0.396-1.271,0.396
			c-0.421,0-0.786-0.148-1.095-0.444c-0.309-0.297-0.463-0.673-0.463-1.128C66.66,715.167,67.016,714.574,67.726,714.099z
			 M70.422,713.269c-0.562,0.186-1.028,0.392-1.396,0.617c-0.705,0.436-1.058,0.931-1.058,1.484c0,0.445,0.146,0.773,0.44,0.984
			c0.191,0.137,0.404,0.205,0.64,0.205c0.323,0,0.633-0.09,0.929-0.271c0.297-0.181,0.444-0.411,0.444-0.69V713.269z"/>
		<path fill="#300063" d="M73.082,717.133c0.524-0.049,0.854-0.138,0.992-0.268c0.137-0.13,0.205-0.481,0.205-1.055v-3.505
			c0-0.318-0.021-0.539-0.065-0.661c-0.074-0.201-0.229-0.301-0.463-0.301c-0.055,0-0.106,0.005-0.158,0.015s-0.2,0.049-0.444,0.117
			v-0.228l0.315-0.104c0.857-0.278,1.455-0.489,1.793-0.632c0.137-0.059,0.226-0.088,0.265-0.088c0.01,0.034,0.015,0.071,0.015,0.11
			v5.275c0,0.559,0.067,0.909,0.202,1.051s0.439,0.232,0.915,0.271v0.206h-3.571V717.133z M74.25,707.309
			c0.147-0.151,0.328-0.227,0.544-0.227c0.211,0,0.391,0.074,0.54,0.223s0.224,0.33,0.224,0.545c0,0.21-0.074,0.389-0.224,0.537
			c-0.149,0.149-0.329,0.224-0.54,0.224c-0.216,0-0.396-0.074-0.544-0.224c-0.146-0.148-0.22-0.327-0.22-0.537
			S74.104,707.46,74.25,707.309z"/>
		<path fill="#300063" d="M81.517,710.631c0.196,0.103,0.385,0.245,0.566,0.426v-2.336c0-0.299-0.033-0.505-0.1-0.617
			c-0.066-0.113-0.224-0.169-0.474-0.169c-0.059,0-0.11,0.002-0.154,0.007s-0.143,0.015-0.294,0.029v-0.242l0.603-0.154
			c0.22-0.059,0.44-0.12,0.661-0.184s0.414-0.125,0.58-0.184c0.078-0.024,0.208-0.071,0.39-0.14l0.044,0.015l-0.015,0.771
			c-0.005,0.279-0.01,0.566-0.015,0.863c-0.005,0.296-0.007,0.589-0.007,0.878l-0.016,6.003c0,0.318,0.04,0.541,0.118,0.669
			c0.078,0.127,0.286,0.19,0.624,0.19c0.055,0,0.108-0.001,0.162-0.004c0.054-0.002,0.107-0.008,0.161-0.018v0.242
			c-0.029,0.01-0.384,0.132-1.065,0.367l-1.153,0.434l-0.051-0.066v-0.903c-0.274,0.299-0.513,0.512-0.713,0.639
			c-0.357,0.221-0.771,0.331-1.242,0.331c-0.833,0-1.507-0.322-2.024-0.966c-0.517-0.645-0.774-1.391-0.774-2.237
			c0-1.063,0.31-1.976,0.929-2.737c0.62-0.762,1.378-1.143,2.274-1.143C80.89,710.396,81.218,710.474,81.517,710.631z
			 M81.729,716.347c0.235-0.225,0.354-0.438,0.354-0.639v-3.152c0-0.637-0.171-1.086-0.511-1.349
			c-0.341-0.262-0.673-0.393-0.996-0.393c-0.617,0-1.097,0.273-1.439,0.819c-0.344,0.546-0.515,1.219-0.515,2.017
			c0,0.789,0.183,1.491,0.547,2.108c0.365,0.617,0.91,0.926,1.635,0.926C81.187,716.685,81.495,716.572,81.729,716.347z"/>
		<path fill="#300063" d="M88.548,717.133c0.52-0.024,0.86-0.121,1.025-0.29c0.164-0.169,0.246-0.525,0.246-1.069v-4.717h-1.257
			v-0.492h1.257c0-0.773,0.105-1.428,0.316-1.962c0.402-1.023,1.141-1.535,2.215-1.535c0.432,0,0.818,0.086,1.159,0.257
			c0.342,0.172,0.512,0.401,0.512,0.69c0,0.162-0.059,0.307-0.176,0.434c-0.116,0.128-0.258,0.191-0.424,0.191
			c-0.142,0-0.263-0.043-0.365-0.129s-0.225-0.236-0.365-0.452l-0.125-0.19c-0.067-0.104-0.148-0.19-0.241-0.261
			c-0.092-0.071-0.222-0.106-0.387-0.106c-0.371,0-0.622,0.184-0.754,0.551c-0.072,0.196-0.109,0.453-0.109,0.771v1.741h1.83v0.492
			h-1.83v4.717c0,0.554,0.075,0.908,0.225,1.062s0.54,0.253,1.172,0.297v0.206h-3.924V717.133z"/>
		<path fill="#300063" d="M94.577,711.457c0.619-0.673,1.417-1.01,2.392-1.01c0.97,0,1.773,0.318,2.41,0.955
			s0.955,1.484,0.955,2.542c0,0.975-0.309,1.822-0.926,2.542c-0.617,0.721-1.416,1.08-2.396,1.08c-0.94,0-1.736-0.345-2.388-1.036
			c-0.651-0.69-0.978-1.558-0.978-2.601C93.647,712.955,93.957,712.131,94.577,711.457z M95.75,711.27
			c-0.49,0.446-0.735,1.215-0.735,2.308c0,0.872,0.197,1.685,0.592,2.439c0.396,0.754,0.944,1.131,1.646,1.131
			c0.55,0,0.973-0.252,1.27-0.757c0.297-0.504,0.445-1.165,0.445-1.983c0-0.848-0.188-1.646-0.566-2.396
			c-0.378-0.749-0.925-1.124-1.642-1.124C96.371,710.888,96.035,711.016,95.75,711.27z"/>
		<path fill="#300063" d="M100.855,717.097c0.45-0.039,0.749-0.119,0.896-0.239c0.146-0.12,0.22-0.376,0.22-0.768v-3.313
			c0-0.485-0.045-0.832-0.136-1.04s-0.256-0.312-0.496-0.312c-0.049,0-0.113,0.007-0.194,0.019
			c-0.081,0.013-0.165,0.028-0.254,0.048v-0.242c0.278-0.099,0.564-0.198,0.857-0.302c0.293-0.103,0.495-0.176,0.607-0.22
			c0.244-0.094,0.496-0.199,0.755-0.316c0.034,0,0.055,0.013,0.062,0.037c0.008,0.024,0.012,0.075,0.012,0.154v1.205
			c0.314-0.437,0.617-0.776,0.909-1.021c0.293-0.245,0.596-0.367,0.91-0.367c0.251,0,0.455,0.074,0.611,0.224
			c0.157,0.149,0.236,0.337,0.236,0.562c0,0.2-0.061,0.369-0.18,0.507c-0.12,0.137-0.271,0.205-0.452,0.205
			c-0.187,0-0.374-0.085-0.562-0.257c-0.188-0.171-0.337-0.257-0.444-0.257c-0.172,0-0.382,0.139-0.632,0.415
			s-0.375,0.562-0.375,0.855v3.314c0,0.421,0.099,0.714,0.294,0.878c0.196,0.164,0.521,0.241,0.978,0.231v0.242h-3.622V717.097z"/>
		<path fill="#300063" d="M109.613,707.993v-0.25c0.56-0.127,1.063-0.27,1.511-0.426c0.447-0.157,0.688-0.235,0.723-0.235
			c0.01,0.029,0.015,0.059,0.015,0.088v4.475c0.127-0.235,0.317-0.458,0.572-0.669c0.45-0.367,0.968-0.551,1.555-0.551
			c0.72,0,1.333,0.304,1.842,0.911s0.763,1.396,0.763,2.366c0,1.038-0.33,1.928-0.991,2.667c-0.662,0.739-1.531,1.109-2.608,1.109
			c-0.544,0-1.078-0.107-1.603-0.323c-0.523-0.216-0.786-0.431-0.786-0.646v-7.767c0-0.284-0.039-0.486-0.117-0.606
			c-0.078-0.119-0.26-0.18-0.544-0.18L109.613,707.993z M112.41,716.807c0.336,0.109,0.631,0.165,0.885,0.165
			c0.684,0,1.189-0.257,1.519-0.771s0.494-1.135,0.494-1.864c0-0.729-0.154-1.402-0.461-2.021c-0.308-0.618-0.806-0.928-1.493-0.928
			c-0.346,0-0.686,0.106-1.017,0.319c-0.332,0.213-0.498,0.482-0.498,0.811v3.742C111.883,716.514,112.073,716.696,112.41,716.807z"
			/>
		<path fill="#300063" d="M117.292,710.587h3.101v0.205c-0.245,0.005-0.427,0.027-0.544,0.068c-0.226,0.064-0.338,0.192-0.338,0.383
			c0,0.07,0.012,0.142,0.036,0.214c0.025,0.073,0.069,0.182,0.133,0.327l1.7,3.678l1.4-3.707c0.015-0.04,0.038-0.131,0.069-0.271
			c0.032-0.141,0.048-0.236,0.048-0.286c0-0.13-0.044-0.226-0.132-0.286c-0.088-0.06-0.201-0.095-0.338-0.104l-0.228-0.016v-0.205
			h2.021v0.205c-0.201,0.025-0.352,0.097-0.452,0.213s-0.188,0.278-0.261,0.485l-2.314,6.128c-0.402,1.058-0.786,1.824-1.153,2.3
			c-0.368,0.475-0.833,0.713-1.396,0.713c-0.274,0-0.531-0.069-0.771-0.206s-0.36-0.355-0.36-0.654c0-0.195,0.071-0.356,0.215-0.48
			c0.143-0.125,0.322-0.188,0.54-0.188c0.126,0,0.313,0.046,0.562,0.14c0.249,0.093,0.427,0.14,0.533,0.14
			c0.271,0,0.557-0.333,0.856-0.998s0.45-1.104,0.45-1.317c0-0.044-0.007-0.097-0.021-0.159c-0.015-0.063-0.031-0.119-0.05-0.168
			l-2.315-5.007c-0.166-0.362-0.312-0.601-0.437-0.716s-0.311-0.19-0.555-0.225V710.587z"/>
		<path fill="#300063" d="M129.341,714.312c0.255,0.676,0.553,1.215,0.896,1.616c0.597,0.701,1.337,1.051,2.223,1.051
			c0.479,0,0.894-0.151,1.243-0.455s0.524-0.728,0.524-1.271c0-0.489-0.176-0.916-0.527-1.278c-0.229-0.23-0.714-0.575-1.452-1.036
			l-1.283-0.801c-0.387-0.245-0.694-0.492-0.925-0.742c-0.426-0.475-0.64-0.999-0.64-1.572c0-0.759,0.253-1.391,0.757-1.896
			c0.505-0.505,1.174-0.757,2.006-0.757c0.343,0,0.756,0.085,1.238,0.254s0.758,0.253,0.826,0.253c0.187,0,0.315-0.044,0.386-0.132
			c0.071-0.089,0.127-0.213,0.166-0.375h0.309l0.33,3.203h-0.359c-0.245-0.965-0.639-1.638-1.18-2.021
			c-0.541-0.382-1.076-0.572-1.605-0.572c-0.411,0-0.771,0.121-1.076,0.363c-0.307,0.242-0.459,0.579-0.459,1.01
			c0,0.388,0.117,0.718,0.352,0.992c0.234,0.279,0.6,0.571,1.094,0.875l1.321,0.815c0.827,0.509,1.41,0.977,1.75,1.403
			c0.334,0.431,0.501,0.94,0.501,1.528c0,0.788-0.297,1.447-0.893,1.977c-0.595,0.528-1.355,0.793-2.281,0.793
			c-0.465,0-0.951-0.088-1.458-0.265c-0.507-0.176-0.798-0.265-0.871-0.265c-0.176,0-0.295,0.055-0.356,0.162
			s-0.102,0.223-0.121,0.346h-0.331l-0.447-3.204H129.341z"/>
		<path fill="#300063" d="M139.069,710.535v4.702c0,0.333,0.047,0.601,0.14,0.801c0.182,0.373,0.515,0.559,0.999,0.559
			c0.333,0,0.659-0.11,0.978-0.33c0.181-0.123,0.365-0.292,0.551-0.508v-4.026c0-0.377-0.073-0.624-0.221-0.742
			c-0.146-0.117-0.44-0.188-0.881-0.213v-0.242h2.373v5.173c0,0.333,0.06,0.562,0.18,0.687s0.374,0.181,0.761,0.165v0.206
			c-0.27,0.073-0.468,0.129-0.596,0.165c-0.127,0.037-0.34,0.104-0.639,0.202c-0.128,0.044-0.407,0.149-0.838,0.316
			c-0.024,0-0.039-0.011-0.044-0.033s-0.008-0.048-0.008-0.077v-1.183c-0.333,0.396-0.637,0.69-0.91,0.882
			c-0.417,0.293-0.857,0.44-1.323,0.44c-0.426,0-0.827-0.152-1.205-0.456c-0.382-0.299-0.573-0.802-0.573-1.508v-3.818
			c0-0.389-0.083-0.649-0.249-0.78c-0.108-0.083-0.338-0.141-0.691-0.175v-0.206H139.069z"/>
		<path fill="#300063" d="M144.337,720.373c0.457-0.029,0.748-0.127,0.872-0.294c0.124-0.166,0.187-0.429,0.187-0.786v-7.054
			c0-0.372-0.046-0.61-0.137-0.716c-0.09-0.105-0.261-0.158-0.51-0.158c-0.055,0-0.104,0.003-0.151,0.008
			c-0.046,0.005-0.113,0.015-0.202,0.029v-0.243l0.698-0.228c0.024-0.005,0.517-0.174,1.477-0.507c0.025,0,0.043,0.011,0.056,0.033
			c0.012,0.022,0.019,0.048,0.019,0.077v0.991c0.323-0.323,0.607-0.562,0.852-0.72c0.441-0.274,0.895-0.411,1.359-0.411
			c0.677,0,1.258,0.287,1.745,0.862s0.731,1.361,0.731,2.36c0,0.979-0.293,1.866-0.878,2.664c-0.586,0.798-1.321,1.196-2.208,1.196
			c-0.274,0-0.512-0.034-0.713-0.103c-0.313-0.104-0.603-0.292-0.867-0.565v2.409c0,0.495,0.081,0.799,0.243,0.911
			c0.161,0.112,0.514,0.188,1.058,0.228v0.258h-3.63V720.373z M147.235,716.726c0.253,0.164,0.55,0.246,0.894,0.246
			c0.528,0,0.98-0.263,1.355-0.789c0.374-0.525,0.562-1.259,0.562-2.197c0-0.9-0.194-1.573-0.584-2.019s-0.841-0.668-1.355-0.668
			c-0.362,0-0.693,0.111-0.992,0.334s-0.448,0.441-0.448,0.657v3.69C146.794,716.313,146.983,716.562,147.235,716.726z"/>
		<path fill="#300063" d="M151.861,720.373c0.457-0.029,0.748-0.127,0.872-0.294c0.124-0.166,0.187-0.429,0.187-0.786v-7.054
			c0-0.372-0.046-0.61-0.137-0.716c-0.09-0.105-0.261-0.158-0.51-0.158c-0.055,0-0.104,0.003-0.151,0.008
			c-0.046,0.005-0.113,0.015-0.202,0.029v-0.243l0.698-0.228c0.024-0.005,0.517-0.174,1.477-0.507c0.025,0,0.043,0.011,0.056,0.033
			c0.012,0.022,0.019,0.048,0.019,0.077v0.991c0.323-0.323,0.607-0.562,0.852-0.72c0.441-0.274,0.895-0.411,1.359-0.411
			c0.677,0,1.258,0.287,1.745,0.862s0.731,1.361,0.731,2.36c0,0.979-0.293,1.866-0.878,2.664c-0.586,0.798-1.321,1.196-2.208,1.196
			c-0.274,0-0.512-0.034-0.713-0.103c-0.313-0.104-0.603-0.292-0.867-0.565v2.409c0,0.495,0.081,0.799,0.243,0.911
			c0.161,0.112,0.514,0.188,1.058,0.228v0.258h-3.63V720.373z M154.76,716.726c0.253,0.164,0.55,0.246,0.894,0.246
			c0.528,0,0.98-0.263,1.355-0.789c0.374-0.525,0.562-1.259,0.562-2.197c0-0.9-0.194-1.573-0.584-2.019s-0.841-0.668-1.355-0.668
			c-0.362,0-0.693,0.111-0.992,0.334s-0.448,0.441-0.448,0.657v3.69C154.318,716.313,154.508,716.562,154.76,716.726z"/>
		<path fill="#300063" d="M160.623,711.457c0.619-0.673,1.417-1.01,2.392-1.01c0.97,0,1.773,0.318,2.41,0.955
			s0.955,1.484,0.955,2.542c0,0.975-0.309,1.822-0.926,2.542c-0.617,0.721-1.416,1.08-2.396,1.08c-0.94,0-1.736-0.345-2.388-1.036
			c-0.651-0.69-0.978-1.558-0.978-2.601C159.693,712.955,160.003,712.131,160.623,711.457z M161.796,711.27
			c-0.49,0.446-0.735,1.215-0.735,2.308c0,0.872,0.197,1.685,0.592,2.439c0.396,0.754,0.944,1.131,1.646,1.131
			c0.55,0,0.973-0.252,1.27-0.757c0.297-0.504,0.445-1.165,0.445-1.983c0-0.848-0.188-1.646-0.566-2.396
			c-0.378-0.749-0.925-1.124-1.642-1.124C162.417,710.888,162.081,711.016,161.796,711.27z"/>
		<path fill="#300063" d="M166.902,717.097c0.45-0.039,0.749-0.119,0.896-0.239c0.146-0.12,0.22-0.376,0.22-0.768v-3.313
			c0-0.485-0.045-0.832-0.136-1.04s-0.256-0.312-0.496-0.312c-0.049,0-0.113,0.007-0.194,0.019
			c-0.081,0.013-0.165,0.028-0.254,0.048v-0.242c0.278-0.099,0.564-0.198,0.857-0.302c0.293-0.103,0.495-0.176,0.607-0.22
			c0.244-0.094,0.496-0.199,0.755-0.316c0.034,0,0.055,0.013,0.062,0.037c0.008,0.024,0.012,0.075,0.012,0.154v1.205
			c0.314-0.437,0.617-0.776,0.909-1.021c0.293-0.245,0.596-0.367,0.91-0.367c0.251,0,0.455,0.074,0.611,0.224
			c0.157,0.149,0.236,0.337,0.236,0.562c0,0.2-0.061,0.369-0.18,0.507c-0.12,0.137-0.271,0.205-0.452,0.205
			c-0.187,0-0.374-0.085-0.562-0.257c-0.188-0.171-0.337-0.257-0.444-0.257c-0.172,0-0.382,0.139-0.632,0.415
			s-0.375,0.562-0.375,0.855v3.314c0,0.421,0.099,0.714,0.294,0.878c0.196,0.164,0.521,0.241,0.978,0.231v0.242h-3.622V717.097z"/>
		<path fill="#300063" d="M175.675,710.564v0.529h-1.499l-0.015,4.231c0,0.373,0.032,0.654,0.096,0.846
			c0.117,0.338,0.348,0.507,0.69,0.507c0.177,0,0.329-0.042,0.459-0.125s0.278-0.216,0.444-0.396l0.191,0.161l-0.161,0.221
			c-0.255,0.343-0.524,0.585-0.809,0.728c-0.284,0.142-0.559,0.213-0.823,0.213c-0.578,0-0.97-0.257-1.176-0.771
			c-0.112-0.279-0.169-0.666-0.169-1.161v-4.452h-0.801c-0.024-0.015-0.043-0.029-0.055-0.044c-0.013-0.015-0.019-0.034-0.019-0.06
			c0-0.049,0.011-0.087,0.033-0.113c0.022-0.027,0.092-0.09,0.209-0.188c0.338-0.279,0.582-0.506,0.731-0.68
			s0.501-0.633,1.055-1.378c0.063,0,0.102,0.005,0.113,0.015c0.013,0.01,0.019,0.047,0.019,0.11v1.808H175.675z"/>
		<path fill="#300063" d="M181.288,711.163c0.52,0.478,0.779,1.155,0.779,2.032h-4.666c0.049,1.134,0.306,1.96,0.771,2.478
			c0.465,0.518,1.017,0.777,1.653,0.777c0.514,0,0.947-0.135,1.301-0.403c0.353-0.269,0.678-0.65,0.977-1.144l0.258,0.088
			c-0.201,0.623-0.577,1.199-1.128,1.729c-0.552,0.529-1.227,0.795-2.024,0.795c-0.921,0-1.633-0.349-2.135-1.044
			s-0.753-1.496-0.753-2.402c0-0.984,0.291-1.834,0.874-2.55c0.583-0.715,1.343-1.072,2.278-1.072
			C180.164,710.447,180.769,710.686,181.288,711.163z M177.769,711.726c-0.156,0.265-0.27,0.598-0.338,0.999h3.101
			c-0.054-0.489-0.146-0.854-0.279-1.095c-0.24-0.431-0.642-0.646-1.205-0.646C178.488,710.983,178.062,711.23,177.769,711.726z"/>
		<path fill="#300063" d="M182.772,717.097c0.45-0.039,0.749-0.119,0.896-0.239c0.146-0.12,0.22-0.376,0.22-0.768v-3.313
			c0-0.485-0.045-0.832-0.136-1.04s-0.256-0.312-0.496-0.312c-0.049,0-0.113,0.007-0.194,0.019
			c-0.081,0.013-0.165,0.028-0.254,0.048v-0.242c0.278-0.099,0.564-0.198,0.857-0.302c0.293-0.103,0.495-0.176,0.607-0.22
			c0.244-0.094,0.496-0.199,0.755-0.316c0.034,0,0.055,0.013,0.062,0.037c0.008,0.024,0.012,0.075,0.012,0.154v1.205
			c0.314-0.437,0.617-0.776,0.909-1.021c0.293-0.245,0.596-0.367,0.91-0.367c0.251,0,0.455,0.074,0.611,0.224
			c0.157,0.149,0.236,0.337,0.236,0.562c0,0.2-0.061,0.369-0.18,0.507c-0.12,0.137-0.271,0.205-0.452,0.205
			c-0.187,0-0.374-0.085-0.562-0.257c-0.188-0.171-0.337-0.257-0.444-0.257c-0.172,0-0.382,0.139-0.632,0.415
			s-0.375,0.562-0.375,0.855v3.314c0,0.421,0.099,0.714,0.294,0.878c0.196,0.164,0.521,0.241,0.978,0.231v0.242h-3.622V717.097z"/>
		<path fill="#300063" d="M188.503,715.024h0.242c0.112,0.559,0.265,0.987,0.455,1.286c0.342,0.548,0.843,0.822,1.502,0.822
			c0.367,0,0.656-0.102,0.869-0.305s0.319-0.467,0.319-0.79c0-0.205-0.062-0.404-0.185-0.595c-0.122-0.191-0.338-0.377-0.646-0.559
			l-0.822-0.47c-0.603-0.324-1.046-0.649-1.33-0.978s-0.427-0.715-0.427-1.161c0-0.549,0.196-0.999,0.588-1.352
			c0.393-0.353,0.885-0.529,1.478-0.529c0.259,0,0.545,0.049,0.855,0.146c0.312,0.099,0.486,0.147,0.525,0.147
			c0.088,0,0.152-0.013,0.191-0.037s0.073-0.063,0.103-0.117h0.177l0.051,2.05h-0.228c-0.098-0.475-0.23-0.845-0.396-1.109
			c-0.304-0.49-0.742-0.734-1.315-0.734c-0.343,0-0.612,0.105-0.809,0.315c-0.195,0.211-0.294,0.458-0.294,0.742
			c0,0.451,0.339,0.853,1.015,1.205l0.97,0.521c1.043,0.568,1.564,1.229,1.564,1.984c0,0.577-0.216,1.05-0.648,1.418
			c-0.434,0.367-0.999,0.551-1.698,0.551c-0.294,0-0.626-0.049-0.997-0.147c-0.372-0.098-0.592-0.146-0.66-0.146
			c-0.06,0-0.11,0.021-0.154,0.062s-0.078,0.092-0.103,0.15h-0.191V715.024z"/>
		<path fill="#300063" d="M198.646,711.457c0.619-0.673,1.417-1.01,2.392-1.01c0.97,0,1.773,0.318,2.41,0.955
			s0.955,1.484,0.955,2.542c0,0.975-0.309,1.822-0.926,2.542c-0.617,0.721-1.416,1.08-2.396,1.08c-0.94,0-1.736-0.345-2.388-1.036
			c-0.651-0.69-0.978-1.558-0.978-2.601C197.717,712.955,198.026,712.131,198.646,711.457z M199.819,711.27
			c-0.49,0.446-0.735,1.215-0.735,2.308c0,0.872,0.197,1.685,0.592,2.439c0.396,0.754,0.944,1.131,1.646,1.131
			c0.55,0,0.973-0.252,1.27-0.757c0.297-0.504,0.445-1.165,0.445-1.983c0-0.848-0.188-1.646-0.566-2.396
			c-0.378-0.749-0.925-1.124-1.642-1.124C200.44,710.888,200.104,711.016,199.819,711.27z"/>
		<path fill="#300063" d="M205.152,717.133c0.52-0.024,0.86-0.121,1.025-0.29c0.164-0.169,0.246-0.525,0.246-1.069v-4.717h-1.257
			v-0.492h1.257c0-0.773,0.105-1.428,0.316-1.962c0.402-1.023,1.141-1.535,2.215-1.535c0.432,0,0.818,0.086,1.159,0.257
			c0.342,0.172,0.512,0.401,0.512,0.69c0,0.162-0.059,0.307-0.176,0.434c-0.116,0.128-0.258,0.191-0.424,0.191
			c-0.142,0-0.263-0.043-0.365-0.129s-0.225-0.236-0.365-0.452l-0.125-0.19c-0.067-0.104-0.148-0.19-0.241-0.261
			c-0.092-0.071-0.222-0.106-0.387-0.106c-0.371,0-0.622,0.184-0.754,0.551c-0.072,0.196-0.109,0.453-0.109,0.771v1.741h1.83v0.492
			h-1.83v4.717c0,0.554,0.075,0.908,0.225,1.062s0.54,0.253,1.172,0.297v0.206h-3.924V717.133z"/>
		<path fill="#300063" d="M213.801,717.06c0.554-0.059,0.912-0.157,1.076-0.296s0.246-0.491,0.246-1.056v-6.693
			c0-0.534-0.08-0.884-0.242-1.048c-0.161-0.164-0.521-0.266-1.08-0.305v-0.279h7.994l0.052,2.153h-0.383
			c-0.127-0.663-0.318-1.093-0.572-1.287c-0.255-0.195-0.823-0.293-1.705-0.293h-2.049c-0.221,0-0.357,0.036-0.408,0.106
			c-0.052,0.071-0.078,0.205-0.078,0.4v3.358h2.322c0.642,0,1.051-0.096,1.227-0.285c0.177-0.19,0.318-0.575,0.427-1.155h0.353
			v3.476h-0.353c-0.113-0.583-0.258-0.969-0.434-1.157c-0.177-0.188-0.583-0.283-1.22-0.283h-2.322v3.726
			c0,0.299,0.095,0.475,0.283,0.528c0.189,0.055,0.755,0.081,1.696,0.081c1.021,0,1.773-0.111,2.259-0.334
			c0.486-0.223,0.922-0.763,1.31-1.62h0.419l-0.684,2.542h-8.134V717.06z"/>
		<path fill="#300063" d="M224.216,714.084c-0.248-0.377-0.371-0.801-0.371-1.271c0-0.573,0.228-1.116,0.684-1.631
			c0.455-0.515,1.1-0.771,1.932-0.771c0.357,0,0.752,0.085,1.184,0.254c0.431,0.169,0.845,0.253,1.241,0.253
			c0.103,0,0.259-0.004,0.467-0.011c0.208-0.008,0.358-0.011,0.452-0.011h0.088v0.595h-1.271c0.089,0.206,0.157,0.385,0.206,0.536
			c0.083,0.284,0.125,0.554,0.125,0.809c0,0.559-0.231,1.071-0.694,1.539s-1.086,0.702-1.87,0.702c-0.122,0-0.343-0.022-0.661-0.066
			c-0.143,0-0.331,0.12-0.565,0.36c-0.235,0.239-0.354,0.436-0.354,0.588c0,0.156,0.172,0.271,0.516,0.345
			c0.226,0.049,0.476,0.073,0.75,0.073c1.261,0,2.117,0.071,2.568,0.214c0.741,0.229,1.111,0.725,1.111,1.483
			c0,0.774-0.433,1.392-1.297,1.852c-0.864,0.461-1.737,0.691-2.619,0.691c-0.804,0-1.44-0.163-1.91-0.489
			c-0.471-0.325-0.706-0.667-0.706-1.024c0-0.177,0.062-0.35,0.187-0.519c0.125-0.169,0.37-0.42,0.736-0.753l0.482-0.434
			l0.088-0.088c-0.224-0.088-0.392-0.174-0.503-0.257c-0.194-0.152-0.292-0.326-0.292-0.522c0-0.181,0.085-0.381,0.254-0.599
			s0.53-0.571,1.083-1.062C224.81,714.724,224.463,714.461,224.216,714.084z M224.994,719.551c0.463,0.156,0.993,0.234,1.591,0.234
			c0.813,0,1.475-0.141,1.984-0.422c0.509-0.282,0.764-0.628,0.764-1.04c0-0.328-0.206-0.546-0.618-0.653
			c-0.256-0.064-0.739-0.101-1.45-0.11c-0.182-0.005-0.373-0.012-0.574-0.019c-0.202-0.008-0.386-0.016-0.553-0.025
			c-0.107-0.005-0.282-0.025-0.522-0.06s-0.42-0.063-0.537-0.088c-0.06,0-0.202,0.154-0.43,0.463
			c-0.232,0.313-0.349,0.603-0.349,0.867C224.3,719.109,224.531,719.394,224.994,719.551z M227.327,714.503
			c0.294-0.235,0.441-0.645,0.441-1.228c0-0.465-0.119-0.989-0.356-1.572c-0.238-0.583-0.634-0.874-1.187-0.874
			c-0.48,0-0.812,0.228-0.992,0.684c-0.094,0.239-0.14,0.536-0.14,0.889c0,0.598,0.145,1.134,0.434,1.609
			c0.289,0.475,0.663,0.713,1.124,0.713C226.921,714.724,227.146,714.649,227.327,714.503z"/>
		<path fill="#300063" d="M231.739,714.084c-0.248-0.377-0.371-0.801-0.371-1.271c0-0.573,0.228-1.116,0.684-1.631
			c0.455-0.515,1.1-0.771,1.932-0.771c0.357,0,0.752,0.085,1.184,0.254c0.431,0.169,0.845,0.253,1.241,0.253
			c0.103,0,0.259-0.004,0.467-0.011c0.208-0.008,0.358-0.011,0.452-0.011h0.088v0.595h-1.271c0.089,0.206,0.157,0.385,0.206,0.536
			c0.083,0.284,0.125,0.554,0.125,0.809c0,0.559-0.231,1.071-0.694,1.539s-1.086,0.702-1.87,0.702c-0.122,0-0.343-0.022-0.661-0.066
			c-0.143,0-0.331,0.12-0.565,0.36c-0.235,0.239-0.354,0.436-0.354,0.588c0,0.156,0.172,0.271,0.516,0.345
			c0.226,0.049,0.476,0.073,0.75,0.073c1.261,0,2.117,0.071,2.568,0.214c0.741,0.229,1.111,0.725,1.111,1.483
			c0,0.774-0.433,1.392-1.297,1.852c-0.864,0.461-1.737,0.691-2.619,0.691c-0.804,0-1.44-0.163-1.91-0.489
			c-0.471-0.325-0.706-0.667-0.706-1.024c0-0.177,0.062-0.35,0.187-0.519c0.125-0.169,0.37-0.42,0.736-0.753l0.482-0.434
			l0.088-0.088c-0.224-0.088-0.392-0.174-0.503-0.257c-0.194-0.152-0.292-0.326-0.292-0.522c0-0.181,0.085-0.381,0.254-0.599
			s0.53-0.571,1.083-1.062C232.333,714.724,231.986,714.461,231.739,714.084z M232.518,719.551c0.463,0.156,0.993,0.234,1.591,0.234
			c0.813,0,1.475-0.141,1.984-0.422c0.509-0.282,0.764-0.628,0.764-1.04c0-0.328-0.206-0.546-0.618-0.653
			c-0.256-0.064-0.739-0.101-1.45-0.11c-0.182-0.005-0.373-0.012-0.574-0.019c-0.202-0.008-0.386-0.016-0.553-0.025
			c-0.107-0.005-0.282-0.025-0.522-0.06s-0.42-0.063-0.537-0.088c-0.06,0-0.202,0.154-0.43,0.463
			c-0.232,0.313-0.349,0.603-0.349,0.867C231.823,719.109,232.055,719.394,232.518,719.551z M234.851,714.503
			c0.294-0.235,0.441-0.645,0.441-1.228c0-0.465-0.119-0.989-0.356-1.572c-0.238-0.583-0.634-0.874-1.187-0.874
			c-0.48,0-0.812,0.228-0.992,0.684c-0.094,0.239-0.14,0.536-0.14,0.889c0,0.598,0.145,1.134,0.434,1.609
			c0.289,0.475,0.663,0.713,1.124,0.713C234.444,714.724,234.669,714.649,234.851,714.503z"/>
		<path fill="#300063" d="M237.944,720.373c0.457-0.029,0.748-0.127,0.872-0.294c0.124-0.166,0.187-0.429,0.187-0.786v-7.054
			c0-0.372-0.046-0.61-0.137-0.716c-0.09-0.105-0.261-0.158-0.51-0.158c-0.055,0-0.104,0.003-0.151,0.008
			c-0.046,0.005-0.113,0.015-0.202,0.029v-0.243l0.698-0.228c0.024-0.005,0.517-0.174,1.477-0.507c0.025,0,0.043,0.011,0.056,0.033
			c0.012,0.022,0.019,0.048,0.019,0.077v0.991c0.323-0.323,0.607-0.562,0.852-0.72c0.441-0.274,0.895-0.411,1.359-0.411
			c0.677,0,1.258,0.287,1.745,0.862s0.731,1.361,0.731,2.36c0,0.979-0.293,1.866-0.878,2.664c-0.586,0.798-1.321,1.196-2.208,1.196
			c-0.274,0-0.512-0.034-0.713-0.103c-0.313-0.104-0.603-0.292-0.867-0.565v2.409c0,0.495,0.081,0.799,0.243,0.911
			c0.161,0.112,0.514,0.188,1.058,0.228v0.258h-3.63V720.373z M240.843,716.726c0.253,0.164,0.55,0.246,0.894,0.246
			c0.528,0,0.98-0.263,1.355-0.789c0.374-0.525,0.562-1.259,0.562-2.197c0-0.9-0.194-1.573-0.584-2.019s-0.841-0.668-1.355-0.668
			c-0.362,0-0.693,0.111-0.992,0.334s-0.448,0.441-0.448,0.657v3.69C240.401,716.313,240.591,716.562,240.843,716.726z"/>
		<path fill="#300063" d="M245.703,717.133c0.455-0.044,0.764-0.136,0.926-0.275s0.242-0.412,0.242-0.819v-7.178
			c0-0.324-0.026-0.547-0.08-0.669c-0.099-0.206-0.297-0.309-0.596-0.309c-0.068,0-0.144,0.007-0.224,0.021
			c-0.081,0.015-0.183,0.037-0.306,0.066v-0.242c0.662-0.177,1.458-0.411,2.389-0.705c0.034,0,0.055,0.015,0.062,0.044
			c0.007,0.029,0.011,0.093,0.011,0.19v8.81c0,0.427,0.073,0.702,0.221,0.827c0.146,0.125,0.45,0.204,0.911,0.238v0.206h-3.557
			V717.133z"/>
		<path fill="#300063" d="M251.191,714.099c0.451-0.294,1.35-0.693,2.696-1.197v-0.625c0-0.5-0.049-0.848-0.146-1.043
			c-0.167-0.328-0.512-0.492-1.036-0.492c-0.25,0-0.487,0.063-0.713,0.19c-0.225,0.133-0.338,0.313-0.338,0.544
			c0,0.059,0.013,0.158,0.037,0.298s0.036,0.229,0.036,0.268c0,0.274-0.09,0.466-0.271,0.573c-0.103,0.063-0.226,0.096-0.367,0.096
			c-0.221,0-0.39-0.072-0.507-0.217c-0.118-0.145-0.177-0.305-0.177-0.481c0-0.343,0.212-0.701,0.636-1.076s1.045-0.562,1.862-0.562
			c0.95,0,1.595,0.309,1.933,0.926c0.182,0.339,0.271,0.831,0.271,1.478v2.946c0,0.284,0.02,0.479,0.06,0.588
			c0.063,0.19,0.195,0.286,0.396,0.286c0.112,0,0.206-0.017,0.279-0.052c0.073-0.034,0.2-0.117,0.382-0.249v0.382
			c-0.157,0.19-0.326,0.348-0.507,0.47c-0.274,0.187-0.554,0.279-0.838,0.279c-0.333,0-0.574-0.107-0.724-0.323
			c-0.149-0.215-0.231-0.473-0.246-0.771c-0.372,0.323-0.69,0.563-0.955,0.721c-0.446,0.264-0.869,0.396-1.271,0.396
			c-0.421,0-0.786-0.148-1.095-0.444c-0.309-0.297-0.463-0.673-0.463-1.128C250.126,715.167,250.481,714.574,251.191,714.099z
			 M253.888,713.269c-0.562,0.186-1.028,0.392-1.396,0.617c-0.705,0.436-1.058,0.931-1.058,1.484c0,0.445,0.146,0.773,0.44,0.984
			c0.191,0.137,0.404,0.205,0.64,0.205c0.323,0,0.633-0.09,0.929-0.271c0.297-0.181,0.444-0.411,0.444-0.69V713.269z"/>
		<path fill="#300063" d="M256.525,717.133c0.348-0.044,0.592-0.131,0.731-0.261s0.209-0.42,0.209-0.87v-3.732
			c0-0.312-0.029-0.53-0.088-0.656c-0.093-0.185-0.284-0.277-0.573-0.277c-0.044,0-0.089,0.003-0.136,0.008
			s-0.104,0.012-0.173,0.021v-0.257c0.201-0.059,0.676-0.211,1.426-0.456l0.69-0.228c0.034,0,0.056,0.013,0.062,0.037
			c0.008,0.024,0.011,0.059,0.011,0.103v1.08c0.45-0.421,0.802-0.71,1.057-0.867c0.381-0.239,0.777-0.359,1.188-0.359
			c0.333,0,0.636,0.095,0.91,0.286c0.527,0.372,0.792,1.036,0.792,1.991v3.432c0,0.353,0.07,0.607,0.211,0.764
			c0.141,0.157,0.377,0.237,0.707,0.242v0.206h-3.138v-0.206c0.358-0.049,0.607-0.147,0.75-0.297
			c0.142-0.149,0.213-0.475,0.213-0.974v-3.138c0-0.421-0.078-0.771-0.233-1.047c-0.156-0.276-0.443-0.415-0.862-0.415
			c-0.287,0-0.58,0.098-0.877,0.294c-0.166,0.112-0.38,0.299-0.643,0.559v4.114c0,0.353,0.078,0.589,0.234,0.709
			c0.157,0.12,0.404,0.185,0.742,0.194v0.206h-3.211V717.133z"/>
		<path fill="#300063" d="M267.606,710.564v0.529h-1.499l-0.015,4.231c0,0.373,0.032,0.654,0.096,0.846
			c0.117,0.338,0.348,0.507,0.69,0.507c0.177,0,0.329-0.042,0.459-0.125s0.278-0.216,0.444-0.396l0.191,0.161l-0.161,0.221
			c-0.255,0.343-0.524,0.585-0.809,0.728c-0.284,0.142-0.559,0.213-0.823,0.213c-0.578,0-0.97-0.257-1.176-0.771
			c-0.112-0.279-0.169-0.666-0.169-1.161v-4.452h-0.801c-0.024-0.015-0.043-0.029-0.055-0.044c-0.013-0.015-0.019-0.034-0.019-0.06
			c0-0.049,0.011-0.087,0.033-0.113c0.022-0.027,0.092-0.09,0.209-0.188c0.338-0.279,0.582-0.506,0.731-0.68
			s0.501-0.633,1.055-1.378c0.063,0,0.102,0.005,0.113,0.015c0.013,0.01,0.019,0.047,0.019,0.11v1.808H267.606z"/>
		<path fill="#300063" d="M272.015,717.133c0.52-0.024,0.86-0.121,1.025-0.29c0.164-0.169,0.246-0.525,0.246-1.069v-4.717h-1.257
			v-0.492h1.257c0-0.773,0.105-1.428,0.316-1.962c0.402-1.023,1.141-1.535,2.215-1.535c0.432,0,0.818,0.086,1.159,0.257
			c0.342,0.172,0.512,0.401,0.512,0.69c0,0.162-0.059,0.307-0.176,0.434c-0.116,0.128-0.258,0.191-0.424,0.191
			c-0.142,0-0.263-0.043-0.365-0.129s-0.225-0.236-0.365-0.452l-0.125-0.19c-0.067-0.104-0.148-0.19-0.241-0.261
			c-0.092-0.071-0.222-0.106-0.387-0.106c-0.371,0-0.622,0.184-0.754,0.551c-0.072,0.196-0.109,0.453-0.109,0.771v1.741h1.83v0.492
			h-1.83v4.717c0,0.554,0.075,0.908,0.225,1.062s0.54,0.253,1.172,0.297v0.206h-3.924V717.133z"/>
		<path fill="#300063" d="M278.043,711.457c0.619-0.673,1.417-1.01,2.392-1.01c0.97,0,1.773,0.318,2.41,0.955
			s0.955,1.484,0.955,2.542c0,0.975-0.309,1.822-0.926,2.542c-0.617,0.721-1.416,1.08-2.396,1.08c-0.94,0-1.736-0.345-2.388-1.036
			c-0.651-0.69-0.978-1.558-0.978-2.601C277.113,712.955,277.423,712.131,278.043,711.457z M279.216,711.27
			c-0.49,0.446-0.735,1.215-0.735,2.308c0,0.872,0.197,1.685,0.592,2.439c0.396,0.754,0.944,1.131,1.646,1.131
			c0.55,0,0.973-0.252,1.27-0.757c0.297-0.504,0.445-1.165,0.445-1.983c0-0.848-0.188-1.646-0.566-2.396
			c-0.378-0.749-0.925-1.124-1.642-1.124C279.837,710.888,279.501,711.016,279.216,711.27z"/>
		<path fill="#300063" d="M284.322,717.097c0.45-0.039,0.749-0.119,0.896-0.239c0.146-0.12,0.22-0.376,0.22-0.768v-3.313
			c0-0.485-0.045-0.832-0.136-1.04s-0.256-0.312-0.496-0.312c-0.049,0-0.113,0.007-0.194,0.019
			c-0.081,0.013-0.165,0.028-0.254,0.048v-0.242c0.278-0.099,0.564-0.198,0.857-0.302c0.293-0.103,0.495-0.176,0.607-0.22
			c0.244-0.094,0.496-0.199,0.755-0.316c0.034,0,0.055,0.013,0.062,0.037c0.008,0.024,0.012,0.075,0.012,0.154v1.205
			c0.314-0.437,0.617-0.776,0.909-1.021c0.293-0.245,0.596-0.367,0.91-0.367c0.251,0,0.455,0.074,0.611,0.224
			c0.157,0.149,0.236,0.337,0.236,0.562c0,0.2-0.061,0.369-0.18,0.507c-0.12,0.137-0.271,0.205-0.452,0.205
			c-0.187,0-0.374-0.085-0.562-0.257c-0.188-0.171-0.337-0.257-0.444-0.257c-0.172,0-0.382,0.139-0.632,0.415
			s-0.375,0.562-0.375,0.855v3.314c0,0.421,0.099,0.714,0.294,0.878c0.196,0.164,0.521,0.241,0.978,0.231v0.242h-3.622V717.097z"/>
		<path fill="#300063" d="M293.271,717.06c0.573-0.054,0.931-0.167,1.073-0.34c0.142-0.173,0.213-0.569,0.213-1.188v-6.517
			c0-0.524-0.08-0.87-0.239-1.036c-0.159-0.167-0.508-0.272-1.047-0.316v-0.279h3.968c1.273,0,2.248,0.248,2.925,0.742
			c0.676,0.495,1.014,1.146,1.014,1.954c0,1.024-0.375,1.767-1.124,2.227c-0.75,0.461-1.688,0.69-2.814,0.69
			c-0.161,0-0.368-0.003-0.621-0.011c-0.252-0.007-0.439-0.011-0.562-0.011v2.733c0,0.564,0.087,0.921,0.261,1.066
			c0.174,0.146,0.562,0.241,1.164,0.285v0.279h-4.21V717.06z M298.348,708.221c-0.426-0.187-0.965-0.279-1.616-0.279
			c-0.309,0-0.498,0.03-0.569,0.092s-0.106,0.197-0.106,0.408v3.923c0.27,0.025,0.445,0.04,0.529,0.045
			c0.083,0.005,0.164,0.007,0.242,0.007c0.69,0,1.234-0.098,1.631-0.294c0.72-0.357,1.08-1.026,1.08-2.006
			C299.538,709.195,299.142,708.563,298.348,708.221z"/>
		<path fill="#300063" d="M301.464,717.097c0.45-0.039,0.749-0.119,0.896-0.239c0.146-0.12,0.22-0.376,0.22-0.768v-3.313
			c0-0.485-0.045-0.832-0.136-1.04s-0.256-0.312-0.496-0.312c-0.049,0-0.113,0.007-0.194,0.019
			c-0.081,0.013-0.165,0.028-0.254,0.048v-0.242c0.278-0.099,0.564-0.198,0.857-0.302c0.293-0.103,0.495-0.176,0.607-0.22
			c0.244-0.094,0.496-0.199,0.755-0.316c0.034,0,0.055,0.013,0.062,0.037c0.008,0.024,0.012,0.075,0.012,0.154v1.205
			c0.314-0.437,0.617-0.776,0.909-1.021c0.293-0.245,0.596-0.367,0.91-0.367c0.251,0,0.455,0.074,0.611,0.224
			c0.157,0.149,0.236,0.337,0.236,0.562c0,0.2-0.061,0.369-0.18,0.507c-0.12,0.137-0.271,0.205-0.452,0.205
			c-0.187,0-0.374-0.085-0.562-0.257c-0.188-0.171-0.337-0.257-0.444-0.257c-0.172,0-0.382,0.139-0.632,0.415
			s-0.375,0.562-0.375,0.855v3.314c0,0.421,0.099,0.714,0.294,0.878c0.196,0.164,0.521,0.241,0.978,0.231v0.242h-3.622V717.097z"/>
		<path fill="#300063" d="M311.669,711.163c0.52,0.478,0.779,1.155,0.779,2.032h-4.666c0.049,1.134,0.306,1.96,0.771,2.478
			c0.465,0.518,1.017,0.777,1.653,0.777c0.514,0,0.947-0.135,1.301-0.403c0.353-0.269,0.678-0.65,0.977-1.144l0.258,0.088
			c-0.201,0.623-0.577,1.199-1.128,1.729c-0.552,0.529-1.227,0.795-2.024,0.795c-0.921,0-1.633-0.349-2.135-1.044
			s-0.753-1.496-0.753-2.402c0-0.984,0.291-1.834,0.874-2.55c0.583-0.715,1.343-1.072,2.278-1.072
			C310.545,710.447,311.149,710.686,311.669,711.163z M308.149,711.726c-0.156,0.265-0.27,0.598-0.338,0.999h3.101
			c-0.054-0.489-0.146-0.854-0.279-1.095c-0.24-0.431-0.642-0.646-1.205-0.646C308.869,710.983,308.443,711.23,308.149,711.726z"/>
		<path fill="#300063" d="M313.873,715.024h0.242c0.112,0.559,0.265,0.987,0.455,1.286c0.342,0.548,0.843,0.822,1.502,0.822
			c0.367,0,0.656-0.102,0.869-0.305s0.319-0.467,0.319-0.79c0-0.205-0.062-0.404-0.185-0.595c-0.122-0.191-0.338-0.377-0.646-0.559
			l-0.822-0.47c-0.603-0.324-1.046-0.649-1.33-0.978s-0.427-0.715-0.427-1.161c0-0.549,0.196-0.999,0.588-1.352
			c0.393-0.353,0.885-0.529,1.478-0.529c0.259,0,0.545,0.049,0.855,0.146c0.312,0.099,0.486,0.147,0.525,0.147
			c0.088,0,0.152-0.013,0.191-0.037s0.073-0.063,0.103-0.117h0.177l0.051,2.05h-0.228c-0.098-0.475-0.23-0.845-0.396-1.109
			c-0.304-0.49-0.742-0.734-1.315-0.734c-0.343,0-0.612,0.105-0.809,0.315c-0.195,0.211-0.294,0.458-0.294,0.742
			c0,0.451,0.339,0.853,1.015,1.205l0.97,0.521c1.043,0.568,1.564,1.229,1.564,1.984c0,0.577-0.216,1.05-0.648,1.418
			c-0.434,0.367-0.999,0.551-1.698,0.551c-0.294,0-0.626-0.049-0.997-0.147c-0.372-0.098-0.592-0.146-0.66-0.146
			c-0.06,0-0.11,0.021-0.154,0.062s-0.078,0.092-0.103,0.15h-0.191V715.024z"/>
		<path fill="#300063" d="M319.237,717.133c0.524-0.049,0.854-0.138,0.992-0.268c0.137-0.13,0.205-0.481,0.205-1.055v-3.505
			c0-0.318-0.021-0.539-0.065-0.661c-0.074-0.201-0.229-0.301-0.463-0.301c-0.055,0-0.106,0.005-0.158,0.015s-0.2,0.049-0.444,0.117
			v-0.228l0.315-0.104c0.857-0.278,1.455-0.489,1.793-0.632c0.137-0.059,0.226-0.088,0.265-0.088c0.01,0.034,0.015,0.071,0.015,0.11
			v5.275c0,0.559,0.067,0.909,0.202,1.051s0.439,0.232,0.915,0.271v0.206h-3.571V717.133z M320.405,707.309
			c0.147-0.151,0.328-0.227,0.544-0.227c0.211,0,0.391,0.074,0.54,0.223s0.224,0.33,0.224,0.545c0,0.21-0.074,0.389-0.224,0.537
			c-0.149,0.149-0.329,0.224-0.54,0.224c-0.216,0-0.396-0.074-0.544-0.224c-0.146-0.148-0.22-0.327-0.22-0.537
			S320.259,707.46,320.405,707.309z"/>
		<path fill="#300063" d="M327.672,710.631c0.196,0.103,0.385,0.245,0.566,0.426v-2.336c0-0.299-0.033-0.505-0.1-0.617
			c-0.066-0.113-0.224-0.169-0.474-0.169c-0.059,0-0.11,0.002-0.154,0.007s-0.143,0.015-0.294,0.029v-0.242l0.603-0.154
			c0.22-0.059,0.44-0.12,0.661-0.184s0.414-0.125,0.58-0.184c0.078-0.024,0.208-0.071,0.39-0.14l0.044,0.015l-0.015,0.771
			c-0.005,0.279-0.01,0.566-0.015,0.863c-0.005,0.296-0.007,0.589-0.007,0.878l-0.016,6.003c0,0.318,0.04,0.541,0.118,0.669
			c0.078,0.127,0.286,0.19,0.624,0.19c0.055,0,0.108-0.001,0.162-0.004c0.054-0.002,0.107-0.008,0.161-0.018v0.242
			c-0.029,0.01-0.384,0.132-1.065,0.367l-1.153,0.434l-0.051-0.066v-0.903c-0.274,0.299-0.513,0.512-0.713,0.639
			c-0.357,0.221-0.771,0.331-1.242,0.331c-0.833,0-1.507-0.322-2.024-0.966c-0.517-0.645-0.774-1.391-0.774-2.237
			c0-1.063,0.31-1.976,0.929-2.737c0.62-0.762,1.378-1.143,2.274-1.143C327.045,710.396,327.373,710.474,327.672,710.631z
			 M327.885,716.347c0.235-0.225,0.354-0.438,0.354-0.639v-3.152c0-0.637-0.171-1.086-0.511-1.349
			c-0.341-0.262-0.673-0.393-0.996-0.393c-0.617,0-1.097,0.273-1.439,0.819c-0.344,0.546-0.515,1.219-0.515,2.017
			c0,0.789,0.183,1.491,0.547,2.108c0.365,0.617,0.91,0.926,1.635,0.926C327.342,716.685,327.65,716.572,327.885,716.347z"/>
		<path fill="#300063" d="M335.908,711.163c0.52,0.478,0.779,1.155,0.779,2.032h-4.666c0.049,1.134,0.306,1.96,0.771,2.478
			c0.465,0.518,1.017,0.777,1.653,0.777c0.514,0,0.947-0.135,1.301-0.403c0.353-0.269,0.678-0.65,0.977-1.144l0.258,0.088
			c-0.201,0.623-0.577,1.199-1.128,1.729c-0.552,0.529-1.227,0.795-2.024,0.795c-0.921,0-1.633-0.349-2.135-1.044
			s-0.753-1.496-0.753-2.402c0-0.984,0.291-1.834,0.874-2.55c0.583-0.715,1.343-1.072,2.278-1.072
			C334.784,710.447,335.389,710.686,335.908,711.163z M332.389,711.726c-0.156,0.265-0.27,0.598-0.338,0.999h3.101
			c-0.054-0.489-0.146-0.854-0.279-1.095c-0.24-0.431-0.642-0.646-1.205-0.646C333.108,710.983,332.683,711.23,332.389,711.726z"/>
		<path fill="#300063" d="M337.598,717.133c0.348-0.044,0.592-0.131,0.731-0.261s0.209-0.42,0.209-0.87v-3.732
			c0-0.312-0.029-0.53-0.088-0.656c-0.093-0.185-0.284-0.277-0.573-0.277c-0.044,0-0.089,0.003-0.136,0.008
			s-0.104,0.012-0.173,0.021v-0.257c0.201-0.059,0.676-0.211,1.426-0.456l0.69-0.228c0.034,0,0.056,0.013,0.062,0.037
			c0.008,0.024,0.011,0.059,0.011,0.103v1.08c0.45-0.421,0.802-0.71,1.057-0.867c0.381-0.239,0.777-0.359,1.188-0.359
			c0.333,0,0.636,0.095,0.91,0.286c0.527,0.372,0.792,1.036,0.792,1.991v3.432c0,0.353,0.07,0.607,0.211,0.764
			c0.141,0.157,0.377,0.237,0.707,0.242v0.206h-3.138v-0.206c0.358-0.049,0.607-0.147,0.75-0.297
			c0.142-0.149,0.213-0.475,0.213-0.974v-3.138c0-0.421-0.078-0.771-0.233-1.047c-0.156-0.276-0.443-0.415-0.862-0.415
			c-0.287,0-0.58,0.098-0.877,0.294c-0.166,0.112-0.38,0.299-0.643,0.559v4.114c0,0.353,0.078,0.589,0.234,0.709
			c0.157,0.12,0.404,0.185,0.742,0.194v0.206h-3.211V717.133z"/>
		<path fill="#300063" d="M348.679,710.564v0.529h-1.499l-0.015,4.231c0,0.373,0.032,0.654,0.096,0.846
			c0.117,0.338,0.348,0.507,0.69,0.507c0.177,0,0.329-0.042,0.459-0.125s0.278-0.216,0.444-0.396l0.191,0.161l-0.161,0.221
			c-0.255,0.343-0.524,0.585-0.809,0.728c-0.284,0.142-0.559,0.213-0.823,0.213c-0.578,0-0.97-0.257-1.176-0.771
			c-0.112-0.279-0.169-0.666-0.169-1.161v-4.452h-0.801c-0.024-0.015-0.043-0.029-0.055-0.044c-0.013-0.015-0.019-0.034-0.019-0.06
			c0-0.049,0.011-0.087,0.033-0.113c0.022-0.027,0.092-0.09,0.209-0.188c0.338-0.279,0.582-0.506,0.731-0.68
			s0.501-0.633,1.055-1.378c0.063,0,0.102,0.005,0.113,0.015c0.013,0.01,0.019,0.047,0.019,0.11v1.808H348.679z"/>
	</g>
</g>
</svg>
