<?xml version="1.0" encoding="utf-8"?>
<!-- Generator: Adobe Illustrator 16.0.4, SVG Export Plug-In . SVG Version: 6.00 Build 0)  -->
<!DOCTYPE svg PUBLIC "-//W3C//DTD SVG 1.1//EN" "http://www.w3.org/Graphics/SVG/1.1/DTD/svg11.dtd">
<svg version="1.1" xmlns="http://www.w3.org/2000/svg" xmlns:xlink="http://www.w3.org/1999/xlink" x="0px" y="0px" width="800px"
	 height="1000px" viewBox="0 0 800 1000" enable-background="new 0 0 800 1000" xml:space="preserve">
<g id="Layer_1">
	<rect fill="#FFFFA8" width="800" height="1000"/>
</g>
<g id="Layer_2">
	<rect x="30" y="21.152" fill="#0095A1" width="370" height="782.75"/>
	<rect x="400" y="21.152" fill="#E4002A" width="370" height="782.75"/>
	<rect x="30" y="803.901" fill="#000337" width="740" height="166.103"/>
</g>
<g id="Layer_5">
	<g>
		<path fill="#FFFFA8" d="M600.358,421.896c-71.25-85.312-182.812-96.562-286.875-197.812
			c-62.812-60.938-173.438,60-143.438,118.125c40.312,76.875,133.125,224.062,216.562,288.75
			C565.671,768.771,744.733,594.396,600.358,421.896"/>
		<path opacity="0.15" enable-background="new    " d="M193.483,360.959c20.625-24.375,15-64.688,15-64.688
			s15.938,18.75,39.375,18.75l1.875-41.25c0,0,35.625-0.938,66.562-35.625l-105-3.75l-36.562,60L193.483,360.959"/>
		<g>
			<path fill="#FFE631" d="M201.92,216.584l-8.438,15c-22.5-15-54.375-56.25-22.5-113.438l14.062,9.375
				C155.983,179.084,197.233,212.834,201.92,216.584"/>
			<path fill="#FFE631" d="M260.983,251.271c35.625,3.75,68.438-24.375,68.438-24.375s-24.375-33.75-60.938-37.5
				c-35.625-3.75-66.562,6.562-68.438,23.438C198.17,230.646,225.358,247.521,260.983,251.271"/>
			<path fill="#FFE631" d="M147.545,288.771c-4.688,37.5,18.75,70.312,18.75,70.312s30-27.188,34.688-64.688
				s-3.75-68.438-18.75-70.312C167.233,223.146,152.233,252.209,147.545,288.771"/>
		</g>
		<path fill="#FCDB1A" d="M181.295,268.146c23.438,32.812,74.062,32.812,74.062,32.812s11.25-53.438-12.188-87.188
			c-23.438-32.812-57.188-47.812-74.062-32.812C151.295,195.959,156.92,234.396,181.295,268.146"/>
	</g>
</g>
<g id="Layer_4">
	<g>
		<path fill="#FFFFA8" d="M71.711,839.324H59.017v7.608h12.325v4.491H59.017v10.582h12.694v4.491H54.238v-31.664h17.473V839.324z"/>
		<path fill="#FFFFA8" d="M94.27,850.009h13.084v1.046c0,2.379-0.28,4.484-0.841,6.316c-0.547,1.695-1.47,3.281-2.769,4.758
			c-2.939,3.309-6.679,4.963-11.218,4.963c-4.43,0-8.224-1.6-11.382-4.799c-3.158-3.213-4.737-7.068-4.737-11.566
			c0-4.594,1.606-8.49,4.819-11.689c3.213-3.213,7.123-4.819,11.73-4.819c2.475,0,4.785,0.506,6.932,1.518
			c2.051,1.012,4.067,2.652,6.05,4.922l-3.404,3.261c-2.598-3.459-5.763-5.188-9.495-5.188c-3.35,0-6.159,1.155-8.429,3.466
			c-2.27,2.27-3.404,5.113-3.404,8.531c0,3.527,1.265,6.433,3.794,8.716c2.365,2.119,4.929,3.179,7.69,3.179
			c2.352,0,4.464-0.793,6.337-2.379c1.873-1.6,2.919-3.514,3.138-5.742H94.27V850.009z"/>
		<path fill="#FFFFA8" d="M129.646,850.009h13.084v1.046c0,2.379-0.28,4.484-0.841,6.316c-0.547,1.695-1.47,3.281-2.769,4.758
			c-2.939,3.309-6.679,4.963-11.218,4.963c-4.43,0-8.224-1.6-11.382-4.799c-3.158-3.213-4.737-7.068-4.737-11.566
			c0-4.594,1.606-8.49,4.819-11.689c3.213-3.213,7.123-4.819,11.73-4.819c2.475,0,4.785,0.506,6.932,1.518
			c2.051,1.012,4.067,2.652,6.05,4.922l-3.404,3.261c-2.598-3.459-5.763-5.188-9.495-5.188c-3.35,0-6.159,1.155-8.429,3.466
			c-2.27,2.27-3.404,5.113-3.404,8.531c0,3.527,1.265,6.433,3.794,8.716c2.365,2.119,4.929,3.179,7.69,3.179
			c2.352,0,4.464-0.793,6.337-2.379c1.873-1.6,2.919-3.514,3.138-5.742h-7.896V850.009z"/>
		<path fill="#FFFFA8" d="M153.517,853.639v12.858h-4.778v-31.664h5.414c2.652,0,4.655,0.185,6.009,0.554
			c1.367,0.369,2.57,1.066,3.609,2.092c1.818,1.777,2.728,4.02,2.728,6.727c0,2.898-0.971,5.195-2.912,6.891
			s-4.56,2.543-7.854,2.543H153.517z M153.517,849.209h1.784c4.389,0,6.583-1.688,6.583-5.065c0-3.268-2.263-4.901-6.788-4.901
			h-1.579V849.209z"/>
		<path fill="#FFFFA8" d="M176.198,834.833v27.173h9.311v4.491H171.42v-31.664H176.198z"/>
		<path fill="#FFFFA8" d="M210.405,858.807H196.85l-3.527,7.69h-5.147l15.668-33.653l15.114,33.653h-5.229L210.405,858.807z
			 M208.457,854.315l-4.696-10.767l-4.922,10.767H208.457z"/>
		<path fill="#FFFFA8" d="M222.915,866.497V832.68l23.092,24.158v-22.005h4.778v33.592l-23.092-24.097v22.169H222.915z"/>
		<path fill="#FFFFA8" d="M267.109,839.324v27.173h-4.778v-27.173h-7.28v-4.491h19.318v4.491H267.109z"/>
		<path fill="#FFFFA8" d="M309.068,839.324h-12.694v7.608h12.325v4.491h-12.325v10.582h12.694v4.491h-17.473v-31.664h17.473V839.324
			z"/>
		<path fill="#FFFFA8" d="M331.627,850.009h13.084v1.046c0,2.379-0.28,4.484-0.841,6.316c-0.547,1.695-1.47,3.281-2.769,4.758
			c-2.939,3.309-6.679,4.963-11.218,4.963c-4.43,0-8.224-1.6-11.382-4.799c-3.158-3.213-4.737-7.068-4.737-11.566
			c0-4.594,1.606-8.49,4.819-11.689c3.213-3.213,7.123-4.819,11.73-4.819c2.475,0,4.785,0.506,6.932,1.518
			c2.051,1.012,4.067,2.652,6.05,4.922l-3.404,3.261c-2.598-3.459-5.763-5.188-9.495-5.188c-3.35,0-6.159,1.155-8.429,3.466
			c-2.27,2.27-3.404,5.113-3.404,8.531c0,3.527,1.265,6.433,3.794,8.716c2.365,2.119,4.929,3.179,7.69,3.179
			c2.352,0,4.464-0.793,6.337-2.379c1.873-1.6,2.919-3.514,3.138-5.742h-7.896V850.009z"/>
		<path fill="#FFFFA8" d="M367.003,850.009h13.084v1.046c0,2.379-0.28,4.484-0.841,6.316c-0.547,1.695-1.47,3.281-2.769,4.758
			c-2.939,3.309-6.679,4.963-11.218,4.963c-4.43,0-8.224-1.6-11.382-4.799c-3.158-3.213-4.737-7.068-4.737-11.566
			c0-4.594,1.606-8.49,4.819-11.689c3.213-3.213,7.123-4.819,11.73-4.819c2.475,0,4.785,0.506,6.932,1.518
			c2.051,1.012,4.067,2.652,6.05,4.922l-3.404,3.261c-2.598-3.459-5.763-5.188-9.495-5.188c-3.35,0-6.159,1.155-8.429,3.466
			c-2.27,2.27-3.404,5.113-3.404,8.531c0,3.527,1.265,6.433,3.794,8.716c2.365,2.119,4.929,3.179,7.69,3.179
			c2.352,0,4.464-0.793,6.337-2.379c1.873-1.6,2.919-3.514,3.138-5.742h-7.896V850.009z"/>
		<path fill="#FFFFA8" d="M390.874,853.639v12.858h-4.778v-31.664h5.414c2.652,0,4.655,0.185,6.009,0.554
			c1.367,0.369,2.57,1.066,3.609,2.092c1.818,1.777,2.728,4.02,2.728,6.727c0,2.898-0.971,5.195-2.912,6.891
			s-4.56,2.543-7.854,2.543H390.874z M390.874,849.209h1.784c4.389,0,6.583-1.688,6.583-5.065c0-3.268-2.263-4.901-6.788-4.901
			h-1.579V849.209z"/>
		<path fill="#FFFFA8" d="M413.556,834.833v27.173h9.311v4.491h-14.089v-31.664H413.556z"/>
		<path fill="#FFFFA8" d="M447.763,858.807h-13.556l-3.527,7.69h-5.147l15.668-33.653l15.114,33.653h-5.229L447.763,858.807z
			 M445.814,854.315l-4.696-10.767l-4.922,10.767H445.814z"/>
		<path fill="#FFFFA8" d="M460.272,866.497V832.68l23.092,24.158v-22.005h4.778v33.592l-23.092-24.097v22.169H460.272z"/>
		<path fill="#FFFFA8" d="M504.467,839.324v27.173h-4.778v-27.173h-7.28v-4.491h19.318v4.491H504.467z"/>
		<path fill="#FFFFA8" d="M546.426,839.324h-12.694v7.608h12.325v4.491h-12.325v10.582h12.694v4.491h-17.473v-31.664h17.473V839.324
			z"/>
		<path fill="#FFFFA8" d="M568.984,850.009h13.084v1.046c0,2.379-0.28,4.484-0.841,6.316c-0.547,1.695-1.47,3.281-2.769,4.758
			c-2.939,3.309-6.679,4.963-11.218,4.963c-4.43,0-8.224-1.6-11.382-4.799c-3.158-3.213-4.737-7.068-4.737-11.566
			c0-4.594,1.606-8.49,4.819-11.689c3.213-3.213,7.123-4.819,11.73-4.819c2.475,0,4.785,0.506,6.932,1.518
			c2.051,1.012,4.067,2.652,6.05,4.922l-3.404,3.261c-2.598-3.459-5.763-5.188-9.495-5.188c-3.35,0-6.159,1.155-8.429,3.466
			c-2.27,2.27-3.404,5.113-3.404,8.531c0,3.527,1.265,6.433,3.794,8.716c2.365,2.119,4.929,3.179,7.69,3.179
			c2.352,0,4.464-0.793,6.337-2.379c1.873-1.6,2.919-3.514,3.138-5.742h-7.896V850.009z"/>
		<path fill="#FFFFA8" d="M604.36,850.009h13.084v1.046c0,2.379-0.28,4.484-0.841,6.316c-0.547,1.695-1.47,3.281-2.769,4.758
			c-2.939,3.309-6.679,4.963-11.218,4.963c-4.43,0-8.224-1.6-11.382-4.799c-3.158-3.213-4.737-7.068-4.737-11.566
			c0-4.594,1.606-8.49,4.819-11.689c3.213-3.213,7.123-4.819,11.73-4.819c2.475,0,4.785,0.506,6.932,1.518
			c2.051,1.012,4.067,2.652,6.05,4.922l-3.404,3.261c-2.598-3.459-5.763-5.188-9.495-5.188c-3.35,0-6.159,1.155-8.429,3.466
			c-2.27,2.27-3.404,5.113-3.404,8.531c0,3.527,1.265,6.433,3.794,8.716c2.365,2.119,4.929,3.179,7.69,3.179
			c2.352,0,4.464-0.793,6.337-2.379c1.873-1.6,2.919-3.514,3.138-5.742h-7.896V850.009z"/>
		<path fill="#FFFFA8" d="M628.231,853.639v12.858h-4.778v-31.664h5.414c2.652,0,4.655,0.185,6.009,0.554
			c1.367,0.369,2.57,1.066,3.609,2.092c1.818,1.777,2.728,4.02,2.728,6.727c0,2.898-0.971,5.195-2.912,6.891
			s-4.56,2.543-7.854,2.543H628.231z M628.231,849.209h1.784c4.389,0,6.583-1.688,6.583-5.065c0-3.268-2.263-4.901-6.788-4.901
			h-1.579V849.209z"/>
		<path fill="#FFFFA8" d="M650.913,834.833v27.173h9.311v4.491h-14.089v-31.664H650.913z"/>
		<path fill="#FFFFA8" d="M685.12,858.807h-13.556l-3.527,7.69h-5.147l15.668-33.653l15.114,33.653h-5.229L685.12,858.807z
			 M683.172,854.315l-4.696-10.767l-4.922,10.767H683.172z"/>
		<path fill="#FFFFA8" d="M697.63,866.497V832.68l23.092,24.158v-22.005h4.778v33.592l-23.092-24.097v22.169H697.63z"/>
		<path fill="#FFFFA8" d="M741.824,839.324v27.173h-4.778v-27.173h-7.28v-4.491h19.318v4.491H741.824z"/>
	</g>
	<g>
		<path fill="#E4002A" d="M189.894,900.142l10.008,25.078l10.148-25.078h5.977l-16.242,38.906l-15.867-38.906H189.894z"/>
		<path fill="#E4002A" d="M215.511,924.751c0-3.297,1.18-6.102,3.539-8.414s5.234-3.469,8.625-3.469
			c3.406,0,6.297,1.164,8.672,3.492c2.344,2.328,3.516,5.188,3.516,8.578c0,3.422-1.18,6.289-3.539,8.602
			c-2.375,2.297-5.289,3.445-8.742,3.445c-3.422,0-6.289-1.172-8.602-3.516C216.667,931.157,215.511,928.251,215.511,924.751z
			 M220.902,924.845c0,2.281,0.609,4.086,1.828,5.414c1.25,1.344,2.898,2.016,4.945,2.016c2.062,0,3.711-0.664,4.945-1.992
			s1.852-3.102,1.852-5.32s-0.617-3.992-1.852-5.32c-1.25-1.344-2.898-2.016-4.945-2.016c-2.016,0-3.648,0.672-4.898,2.016
			S220.902,922.72,220.902,924.845z"/>
		<path fill="#E4002A" d="M251.16,918.423v17.906h-5.273v-17.906h-2.25v-4.922h2.25v-8.367h5.273v8.367h4.102v4.922H251.16z"/>
		<path fill="#E4002A" d="M280.058,926.157h-16.359c0.141,1.875,0.75,3.367,1.828,4.477c1.078,1.094,2.461,1.641,4.148,1.641
			c1.312,0,2.398-0.312,3.258-0.938c0.844-0.625,1.805-1.781,2.883-3.469l4.453,2.484c-0.688,1.172-1.414,2.176-2.18,3.012
			s-1.586,1.523-2.461,2.062s-1.82,0.934-2.836,1.184s-2.117,0.375-3.305,0.375c-3.406,0-6.141-1.094-8.203-3.281
			c-2.062-2.203-3.094-5.125-3.094-8.766c0-3.609,1-6.531,3-8.766c2.016-2.203,4.688-3.305,8.016-3.305
			c3.359,0,6.016,1.07,7.969,3.211c1.938,2.125,2.906,5.07,2.906,8.836L280.058,926.157z M274.644,921.845
			c-0.734-2.812-2.508-4.219-5.32-4.219c-0.641,0-1.242,0.098-1.805,0.293s-1.074,0.477-1.535,0.844s-0.855,0.809-1.184,1.324
			s-0.578,1.102-0.75,1.758H274.644z"/>
		<path fill="#E4002A" d="M321.613,905.274h-14.508v8.695h14.086v5.133h-14.086v12.094h14.508v5.133h-19.969v-36.188h19.969V905.274
			z"/>
		<path fill="#E4002A" d="M349.855,935.79c0,1.078-0.035,2.027-0.105,2.848s-0.168,1.543-0.293,2.168
			c-0.375,1.719-1.109,3.195-2.203,4.43c-2.062,2.375-4.898,3.562-8.508,3.562c-3.047,0-5.555-0.82-7.523-2.461
			c-2.031-1.688-3.203-4.023-3.516-7.008h5.297c0.203,1.125,0.539,1.992,1.008,2.602c1.094,1.422,2.688,2.133,4.781,2.133
			c3.859,0,5.789-2.367,5.789-7.102v-3.188c-2.094,2.141-4.508,3.211-7.242,3.211c-3.109,0-5.656-1.125-7.641-3.375
			c-2-2.281-3-5.133-3-8.555c0-3.328,0.93-6.156,2.789-8.484c2-2.469,4.641-3.703,7.922-3.703c2.875,0,5.266,1.07,7.172,3.211
			v-2.578h5.273V935.79z M344.792,924.962c0-2.219-0.594-3.992-1.781-5.32c-1.203-1.359-2.742-2.039-4.617-2.039
			c-2,0-3.578,0.742-4.734,2.227c-1.047,1.328-1.57,3.047-1.57,5.156c0,2.078,0.523,3.781,1.57,5.109
			c1.141,1.453,2.719,2.18,4.734,2.18s3.609-0.734,4.781-2.203C344.253,928.743,344.792,927.04,344.792,924.962z"/>
		<path fill="#E4002A" d="M378.589,935.79c0,1.078-0.035,2.027-0.105,2.848s-0.168,1.543-0.293,2.168
			c-0.375,1.719-1.109,3.195-2.203,4.43c-2.062,2.375-4.898,3.562-8.508,3.562c-3.047,0-5.555-0.82-7.523-2.461
			c-2.031-1.688-3.203-4.023-3.516-7.008h5.297c0.203,1.125,0.539,1.992,1.008,2.602c1.094,1.422,2.688,2.133,4.781,2.133
			c3.859,0,5.789-2.367,5.789-7.102v-3.188c-2.094,2.141-4.508,3.211-7.242,3.211c-3.109,0-5.656-1.125-7.641-3.375
			c-2-2.281-3-5.133-3-8.555c0-3.328,0.93-6.156,2.789-8.484c2-2.469,4.641-3.703,7.922-3.703c2.875,0,5.266,1.07,7.172,3.211
			v-2.578h5.273V935.79z M373.527,924.962c0-2.219-0.594-3.992-1.781-5.32c-1.203-1.359-2.742-2.039-4.617-2.039
			c-2,0-3.578,0.742-4.734,2.227c-1.047,1.328-1.57,3.047-1.57,5.156c0,2.078,0.523,3.781,1.57,5.109
			c1.141,1.453,2.719,2.18,4.734,2.18s3.609-0.734,4.781-2.203C372.988,928.743,373.527,927.04,373.527,924.962z"/>
		<path fill="#E4002A" d="M390.519,948.751h-5.273v-35.25h5.273v2.484c2.078-2.078,4.438-3.117,7.078-3.117
			c3.141,0,5.727,1.156,7.758,3.469c2.062,2.297,3.094,5.195,3.094,8.695c0,3.422-1.023,6.273-3.07,8.555
			c-2.031,2.266-4.594,3.398-7.688,3.398c-2.672,0-5.062-1.07-7.172-3.211V948.751z M403.059,925.056
			c0-2.188-0.594-3.969-1.781-5.344c-1.204-1.391-2.719-2.086-4.547-2.086c-1.938,0-3.508,0.672-4.711,2.016
			s-1.805,3.109-1.805,5.297c0,2.141,0.602,3.906,1.805,5.297c1.188,1.359,2.75,2.039,4.688,2.039c1.828,0,3.336-0.688,4.524-2.062
			C402.449,928.837,403.059,927.118,403.059,925.056z"/>
		<path fill="#E4002A" d="M419.301,896.743v39.586h-5.273v-39.586H419.301z"/>
		<path fill="#E4002A" d="M442.809,913.501h5.297v22.828h-5.297v-2.391c-2.172,2.031-4.508,3.047-7.008,3.047
			c-3.156,0-5.766-1.141-7.828-3.422c-2.047-2.328-3.07-5.234-3.07-8.719c0-3.422,1.023-6.273,3.07-8.555s4.609-3.422,7.688-3.422
			c2.656,0,5.039,1.094,7.148,3.281V913.501z M430.293,924.845c0,2.188,0.586,3.969,1.758,5.344
			c1.203,1.391,2.719,2.086,4.547,2.086c1.953,0,3.531-0.672,4.734-2.016c1.203-1.391,1.805-3.156,1.805-5.297
			s-0.602-3.906-1.805-5.297c-1.203-1.359-2.766-2.039-4.688-2.039c-1.812,0-3.328,0.688-4.547,2.062
			C430.895,921.079,430.293,922.798,430.293,924.845z"/>
		<path fill="#E4002A" d="M454.762,913.501h5.297v2.109c1.844-1.828,3.922-2.742,6.234-2.742c2.656,0,4.727,0.836,6.211,2.508
			c1.281,1.422,1.922,3.742,1.922,6.961v13.992h-5.297v-12.75c0-2.25-0.312-3.805-0.938-4.664c-0.609-0.875-1.719-1.312-3.328-1.312
			c-1.75,0-2.992,0.578-3.727,1.734c-0.719,1.141-1.078,3.133-1.078,5.977v11.016h-5.297V913.501z"/>
		<path fill="#E4002A" d="M486.52,918.423v17.906h-5.273v-17.906h-2.25v-4.922h2.25v-8.367h5.273v8.367h4.102v4.922H486.52z"/>
		<path fill="#E4002A" d="M517.715,931.196h13.477v5.133h-24.305l12.562-15.211c1.234-1.516,2.27-2.828,3.105-3.938
			s1.473-2.039,1.91-2.789c0.891-1.469,1.336-2.789,1.336-3.961c0-1.688-0.594-3.102-1.781-4.242s-2.656-1.711-4.406-1.711
			c-3.656,0-5.75,2.164-6.281,6.492h-5.438c0.875-7.625,4.727-11.438,11.555-11.438c3.297,0,6.062,1.047,8.297,3.141
			c2.25,2.094,3.375,4.688,3.375,7.781c0,1.969-0.523,3.898-1.57,5.789c-0.531,0.984-1.309,2.152-2.332,3.504
			s-2.316,2.949-3.879,4.793L517.715,931.196z"/>
		<path fill="#E4002A" d="M537.355,918.001c0-5.766,1.344-10.367,4.031-13.805c2.406-3.109,5.32-4.664,8.742-4.664
			s6.336,1.555,8.742,4.664c2.688,3.438,4.031,8.117,4.031,14.039c0,5.906-1.344,10.578-4.031,14.016
			c-2.406,3.109-5.312,4.664-8.719,4.664s-6.328-1.555-8.766-4.664C538.699,928.813,537.355,924.063,537.355,918.001z
			 M542.723,918.024c0,4.016,0.695,7.352,2.086,10.008c1.391,2.609,3.164,3.914,5.32,3.914c2.141,0,3.914-1.305,5.32-3.914
			c1.406-2.594,2.109-5.867,2.109-9.82s-0.703-7.234-2.109-9.844c-1.406-2.594-3.18-3.891-5.32-3.891
			c-2.125,0-3.891,1.297-5.297,3.891C543.426,910.946,542.723,914.165,542.723,918.024z"/>
		<path fill="#E4002A" d="M574.246,905.251h-6.258l3-5.109h8.719v36.188h-5.461V905.251z"/>
		<path fill="#E4002A" d="M605.488,898.876l4.008,3l-8.648,11.766c0.469-0.062,0.867-0.109,1.195-0.141s0.586-0.047,0.773-0.047
			c2.938,0,5.477,1.125,7.617,3.375c2.125,2.219,3.188,4.891,3.188,8.016c0,3.312-1.188,6.156-3.562,8.531
			c-2.359,2.359-5.195,3.539-8.508,3.539c-3.281,0-6.156-1.164-8.625-3.492c-2.422-2.328-3.633-5.086-3.633-8.273
			c0-2.859,1.18-5.891,3.539-9.094L605.488,898.876z M608.301,925.196c0-1.922-0.664-3.547-1.992-4.875
			c-1.344-1.344-2.961-2.016-4.852-2.016c-1.906,0-3.523,0.664-4.852,1.992s-1.992,2.938-1.992,4.828s0.664,3.5,1.992,4.828
			s2.953,1.992,4.875,1.992c1.875,0,3.477-0.664,4.805-1.992C607.629,928.61,608.301,927.024,608.301,925.196z"/>
	</g>
</g>
<g id="Layer_3">
</g>
</svg>
