<?xml version="1.0" encoding="utf-8"?>
<!-- Generator: Adobe Illustrator 23.0.2, SVG Export Plug-In . SVG Version: 6.00 Build 0)  -->
<svg version="1.1" id="Layer_1" xmlns="http://www.w3.org/2000/svg" xmlns:xlink="http://www.w3.org/1999/xlink" x="0px" y="0px"
	 viewBox="0 0 383.45 354.59" style="enable-background:new 0 0 383.45 354.59;" xml:space="preserve">
<style type="text/css">
	.st0{fill:#DCDBDB;}
	.st1{fill:#333333;}
	.st2{font-family:'HelveticaNeue-Italic';}
	.st3{font-size:20.0186px;}
	.st4{font-family:'HelveticaNeue';}
	.st5{font-size:8.7393px;}
</style>
<circle class="st0" cx="352.72" cy="57.47" r="16.11"/>
<circle class="st0" cx="315.86" cy="57.47" r="16.11"/>
<circle class="st0" cx="205.29" cy="57.47" r="16.11"/>
<circle class="st0" cx="94.72" cy="57.47" r="16.11"/>
<ellipse transform="matrix(0.1602 -0.9871 0.9871 0.1602 146.634 287.2876)" class="st0" cx="242.15" cy="57.47" rx="16.11" ry="16.11"/>
<circle class="st0" cx="131.58" cy="57.47" r="16.11"/>
<circle class="st1" cx="279" cy="57.47" r="16.11"/>
<circle class="st0" cx="57.87" cy="57.47" r="16.11"/>
<circle class="st0" cx="168.44" cy="57.47" r="7.29"/>
<circle class="st0" cx="353.46" cy="101.85" r="16.11"/>
<circle class="st0" cx="316.6" cy="101.85" r="16.11"/>
<circle class="st0" cx="206.03" cy="101.85" r="16.11"/>
<circle class="st1" cx="95.47" cy="101.85" r="16.11"/>
<circle class="st0" cx="242.89" cy="101.85" r="16.11"/>
<circle class="st0" cx="132.32" cy="101.85" r="16.11"/>
<circle class="st0" cx="279.75" cy="101.85" r="16.11"/>
<circle class="st0" cx="58.61" cy="101.85" r="16.11"/>
<circle class="st0" cx="169.18" cy="101.85" r="7.29"/>
<circle class="st1" cx="353.46" cy="146.23" r="16.11"/>
<circle class="st0" cx="316.6" cy="146.23" r="16.11"/>
<circle class="st0" cx="206.03" cy="146.23" r="16.11"/>
<circle class="st0" cx="95.47" cy="146.23" r="16.11"/>
<circle class="st0" cx="242.89" cy="146.23" r="16.11"/>
<circle class="st0" cx="132.32" cy="146.23" r="16.11"/>
<circle class="st0" cx="279.75" cy="146.23" r="16.11"/>
<circle class="st0" cx="58.61" cy="146.23" r="16.11"/>
<circle class="st0" cx="169.18" cy="146.23" r="7.29"/>
<circle class="st1" cx="353.46" cy="190.61" r="16.11"/>
<circle class="st0" cx="316.6" cy="190.61" r="16.11"/>
<circle class="st0" cx="206.03" cy="190.61" r="16.11"/>
<circle class="st0" cx="95.47" cy="190.61" r="16.11"/>
<circle class="st0" cx="242.89" cy="190.61" r="16.11"/>
<circle class="st0" cx="132.32" cy="190.61" r="16.11"/>
<circle class="st0" cx="279.75" cy="190.61" r="16.11"/>
<circle class="st0" cx="58.61" cy="190.61" r="16.11"/>
<circle class="st0" cx="169.18" cy="190.61" r="7.29"/>
<circle class="st0" cx="353.46" cy="234.99" r="16.11"/>
<circle class="st0" cx="316.6" cy="234.99" r="16.11"/>
<circle class="st0" cx="206.03" cy="234.99" r="16.11"/>
<circle class="st1" cx="95.47" cy="234.99" r="16.11"/>
<circle class="st0" cx="242.89" cy="234.99" r="16.11"/>
<circle class="st0" cx="132.32" cy="234.99" r="16.11"/>
<circle class="st0" cx="279.75" cy="234.99" r="16.11"/>
<circle class="st0" cx="58.61" cy="234.99" r="16.11"/>
<circle class="st0" cx="169.18" cy="234.99" r="7.29"/>
<circle class="st0" cx="353.46" cy="279.37" r="16.11"/>
<circle class="st0" cx="316.6" cy="279.37" r="16.11"/>
<circle class="st1" cx="206.03" cy="279.37" r="16.11"/>
<circle class="st0" cx="95.47" cy="279.37" r="16.11"/>
<circle class="st0" cx="242.89" cy="279.37" r="16.11"/>
<circle class="st0" cx="132.32" cy="279.37" r="16.11"/>
<circle class="st0" cx="279.75" cy="279.37" r="16.11"/>
<circle class="st0" cx="58.61" cy="279.37" r="16.11"/>
<circle class="st0" cx="169.18" cy="279.37" r="7.29"/>
<circle class="st0" cx="353.46" cy="323.76" r="16.11"/>
<circle class="st0" cx="316.6" cy="323.76" r="16.11"/>
<circle class="st0" cx="206.03" cy="323.76" r="16.11"/>
<circle class="st1" cx="95.47" cy="323.76" r="16.11"/>
<circle class="st0" cx="242.89" cy="323.76" r="16.11"/>
<circle class="st0" cx="132.32" cy="323.76" r="16.11"/>
<circle class="st0" cx="279.75" cy="323.76" r="16.11"/>
<circle class="st0" cx="58.61" cy="323.76" r="16.11"/>
<circle class="st0" cx="169.18" cy="323.76" r="7.29"/>
<g>
	<text transform="matrix(1 0 0 1 14.21 64.7505)" class="st2 st3">G</text>
	<text transform="matrix(1 0 0 1 14.2102 153.5137)" class="st2 st3">T</text>
	<text transform="matrix(1 0 0 1 14.2101 109.1322)" class="st2 st3">A</text>
	<text transform="matrix(1 0 0 1 14.2098 197.8956)" class="st2 st3">T</text>
	<text transform="matrix(1 0 0 1 14.21 242.2773)" class="st2 st3">A</text>
	<text transform="matrix(1 0 0 1 14.2098 331.0407)" class="st2 st3">A</text>
	<text transform="matrix(1 0 0 1 14.2103 286.6591)" class="st2 st3">C</text>
	<text transform="matrix(1 0 0 1 50.1713 29.1973)" class="st4 st3">1</text>
	<text transform="matrix(1 0 0 1 88.0722 29.1972)" class="st4 st3">2</text>
	<text transform="matrix(1 0 0 1 126.2719 29.1972)" class="st4 st3">3</text>
	<text transform="matrix(1 0 0 1 199.1001 29.1971)" class="st4 st3">4</text>
	<text transform="matrix(1 0 0 1 235.3029 29.1971)" class="st4 st3">5</text>
	<text transform="matrix(1 0 0 1 271.9717 29.1969)" class="st4 st3">6</text>
	<text transform="matrix(1 0 0 1 310.0484 29.1971)" class="st4 st3">7</text>
	<text transform="matrix(1 0 0 1 347.043 29.1975)" class="st4 st3">8</text>
</g>
<text transform="matrix(0.9912 0 0 1 152.2529 20.1724)" class="st4 st5">sprocket</text>
<text transform="matrix(0.9912 0 0 1 160.9951 30.6626)" class="st4 st5">hole</text>
</svg>
