<svg enable-background="new 0 0 383.45 307.27" viewBox="0 0 383.45 307.27" xmlns="http://www.w3.org/2000/svg"><circle cx="352.72" cy="57.47" fill="#dcdbdb" r="16.11"/><circle cx="315.86" cy="57.47" fill="#dcdbdb" r="16.11"/><circle cx="205.29" cy="57.47" fill="#333" r="16.11"/><circle cx="94.72" cy="57.47" fill="#dcdbdb" r="16.11"/><ellipse cx="242.15" cy="57.47" fill="#dcdbdb" rx="16.11" ry="16.11" transform="matrix(.1602 -.9871 .9871 .1602 146.634 287.2876)"/><circle cx="131.58" cy="57.47" fill="#dcdbdb" r="16.11"/><circle cx="279" cy="57.47" fill="#dcdbdb" r="16.11"/><circle cx="57.87" cy="57.47" fill="#dcdbdb" r="16.11"/><circle cx="168.44" cy="57.47" fill="#dcdbdb" r="7.29"/><circle cx="353.46" cy="101.85" fill="#333" r="16.11"/><circle cx="316.6" cy="101.85" fill="#dcdbdb" r="16.11"/><circle cx="206.03" cy="101.85" fill="#dcdbdb" r="16.11"/><circle cx="95.47" cy="101.85" fill="#dcdbdb" r="16.11"/><circle cx="242.89" cy="101.85" fill="#dcdbdb" r="16.11"/><circle cx="132.32" cy="101.85" fill="#dcdbdb" r="16.11"/><circle cx="279.75" cy="101.85" fill="#333" r="16.11"/><circle cx="58.61" cy="101.85" fill="#dcdbdb" r="16.11"/><circle cx="169.18" cy="101.85" fill="#dcdbdb" r="7.29"/><circle cx="353.46" cy="146.23" fill="#333" r="16.11"/><circle cx="316.6" cy="146.23" fill="#dcdbdb" r="16.11"/><circle cx="206.03" cy="146.23" fill="#dcdbdb" r="16.11"/><circle cx="95.47" cy="146.23" fill="#dcdbdb" r="16.11"/><circle cx="242.89" cy="146.23" fill="#dcdbdb" r="16.11"/><circle cx="132.32" cy="146.23" fill="#dcdbdb" r="16.11"/><circle cx="279.75" cy="146.23" fill="#dcdbdb" r="16.11"/><circle cx="58.61" cy="146.23" fill="#dcdbdb" r="16.11"/><circle cx="169.18" cy="146.23" fill="#dcdbdb" r="7.29"/><circle cx="353.46" cy="190.61" fill="#333" r="16.11"/><circle cx="316.6" cy="190.61" fill="#dcdbdb" r="16.11"/><circle cx="206.03" cy="190.61" fill="#333" r="16.11"/><circle cx="95.47" cy="190.61" fill="#dcdbdb" r="16.11"/><circle cx="242.89" cy="190.61" fill="#dcdbdb" r="16.11"/><circle cx="132.32" cy="190.61" fill="#dcdbdb" r="16.11"/><circle cx="279.75" cy="190.61" fill="#dcdbdb" r="16.11"/><circle cx="58.61" cy="190.61" fill="#dcdbdb" r="16.11"/><circle cx="169.18" cy="190.61" fill="#dcdbdb" r="7.29"/><circle cx="353.46" cy="234.99" fill="#dcdbdb" r="16.11"/><circle cx="316.6" cy="234.99" fill="#dcdbdb" r="16.11"/><circle cx="206.03" cy="234.99" fill="#dcdbdb" r="16.11"/><circle cx="95.47" cy="234.99" fill="#dcdbdb" r="16.11"/><circle cx="242.89" cy="234.99" fill="#dcdbdb" r="16.11"/><circle cx="132.32" cy="234.99" fill="#dcdbdb" r="16.11"/><circle cx="279.75" cy="234.99" fill="#333" r="16.11"/><circle cx="58.61" cy="234.99" fill="#dcdbdb" r="16.11"/><circle cx="169.18" cy="234.99" fill="#dcdbdb" r="7.29"/><circle cx="353.46" cy="279.37" fill="#333" r="16.11"/><circle cx="316.6" cy="279.37" fill="#dcdbdb" r="16.11"/><circle cx="206.03" cy="279.37" fill="#333" r="16.11"/><circle cx="95.47" cy="279.37" fill="#333" r="16.11"/><circle cx="242.89" cy="279.37" fill="#dcdbdb" r="16.11"/><circle cx="132.32" cy="279.37" fill="#dcdbdb" r="16.11"/><circle cx="279.75" cy="279.37" fill="#333" r="16.11"/><circle cx="58.61" cy="279.37" fill="#dcdbdb" r="16.11"/><circle cx="169.18" cy="279.37" fill="#dcdbdb" r="7.29"/><g font-size="20.0186"><text font-family="'HelveticaNeue-Italic'" transform="translate(14.21 64.7505)">C</text><text font-family="'HelveticaNeue-Italic'" transform="translate(14.2102 153.5137)">T</text><text font-family="'HelveticaNeue-Italic'" transform="translate(14.2101 109.1322)">K</text><text font-family="'HelveticaNeue-Italic'" transform="translate(14.2098 197.8956)">Y</text><text font-family="'HelveticaNeue-Italic'" transform="translate(14.21 242.2773)">G</text><text font-family="'HelveticaNeue-Italic'" transform="translate(14.2103 286.6591)">N</text><text font-family="'HelveticaNeue'" transform="translate(50.1713 29.1973)">1</text><text font-family="'HelveticaNeue'" transform="translate(88.0722 29.1972)">2</text><text font-family="'HelveticaNeue'" transform="translate(126.2719 29.1972)">3</text><text font-family="'HelveticaNeue'" transform="translate(199.1001 29.1971)">4</text><text font-family="'HelveticaNeue'" transform="translate(235.3029 29.1971)">5</text><text font-family="'HelveticaNeue'" transform="translate(271.9717 29.1969)">6</text><text font-family="'HelveticaNeue'" transform="translate(310.0484 29.1971)">7</text><text font-family="'HelveticaNeue'" transform="translate(347.043 29.1975)">8</text></g><text font-family="'HelveticaNeue'" font-size="8.7393" transform="matrix(.9912 0 0 1 152.2529 20.1724)">sprocket</text><text font-family="'HelveticaNeue'" font-size="8.7393" transform="matrix(.9912 0 0 1 160.9951 30.6626)">hole</text></svg>