<?xml version="1.0" encoding="utf-8"?>
<!-- Generator: Adobe Illustrator 25.0.1, SVG Export Plug-In . SVG Version: 6.00 Build 0)  -->
<svg version="1.1" id="Layer_1" xmlns="http://www.w3.org/2000/svg" xmlns:xlink="http://www.w3.org/1999/xlink" x="0px" y="0px"
	 viewBox="0 0 216 216" style="enable-background:new 0 0 216 216;" xml:space="preserve">
<style type="text/css">
	.st0{fill:#FFFFFF;}
	.st1{fill:#F9386A;}
	.st2{fill:none;stroke:#FFFFFF;stroke-width:6;stroke-miterlimit:10;}
	.st3{fill:#FF99BB;}
</style>
<g>
	<path class="st0" d="M79.2,216c-5.08,0-10.08-0.65-14.85-2.63c-9.75-4.04-16.17-12.33-22.37-20.35c-2.92-3.77-5.67-7.33-8.67-10.33
		c-3-3-6.56-5.76-10.33-8.67c-8.01-6.2-16.3-12.62-20.35-22.37c-3.89-9.38-2.64-19.68-1.42-29.64c0.57-4.67,1.16-9.5,1.16-14.01
		S1.77,98.66,1.2,93.99c-1.21-9.96-2.47-20.25,1.42-29.64c4.04-9.75,12.33-16.17,20.35-22.37c3.77-2.92,7.33-5.67,10.33-8.67
		c3-3,5.76-6.56,8.67-10.33c6.2-8.01,12.62-16.3,22.37-20.35c9.38-3.89,19.68-2.64,29.64-1.42c4.67,0.57,9.5,1.16,14.01,1.16
		c4.51,0,9.34-0.59,14.01-1.16c9.96-1.21,20.25-2.47,29.64,1.42c9.75,4.04,16.17,12.33,22.37,20.35c2.92,3.77,5.67,7.33,8.67,10.33
		c3,3,6.56,5.76,10.33,8.67c8.01,6.2,16.3,12.62,20.35,22.37c3.89,9.39,2.64,19.68,1.42,29.64c-0.57,4.67-1.16,9.5-1.16,14.01
		s0.59,9.34,1.16,14.01c1.21,9.96,2.47,20.25-1.42,29.64c-4.04,9.75-12.33,16.17-20.35,22.37c-3.77,2.92-7.33,5.67-10.33,8.67
		s-5.76,6.56-8.67,10.33c-6.2,8.01-12.62,16.3-22.37,20.35c-9.38,3.89-19.68,2.64-29.64,1.42c-4.67-0.57-9.5-1.16-14.01-1.16
		s-9.34,0.59-14.01,1.16C89.09,215.39,84.11,216,79.2,216z"/>
</g>
<g>
	<path class="st1" d="M81.11,208.85c-4.74,0-9.41-0.61-13.87-2.45c-9.11-3.78-15.1-11.52-20.89-19c-2.72-3.52-5.3-6.84-8.1-9.65
		c-2.8-2.8-6.13-5.38-9.65-8.1c-7.48-5.79-15.22-11.78-19-20.89c-3.63-8.76-2.46-18.38-1.33-27.68c0.53-4.36,1.08-8.87,1.08-13.09
		S8.8,99.28,8.27,94.91C7.14,85.62,5.96,76,9.6,67.24c3.78-9.11,11.52-15.1,19-20.89c3.52-2.72,6.84-5.3,9.65-8.1
		c2.8-2.8,5.38-6.13,8.1-9.65c5.79-7.48,11.78-15.22,20.89-19C76,5.96,85.62,7.14,94.91,8.27c4.36,0.53,8.87,1.08,13.09,1.08
		c4.21,0,8.72-0.55,13.09-1.08c9.3-1.13,18.91-2.31,27.68,1.33c9.11,3.78,15.1,11.52,20.89,19c2.72,3.52,5.3,6.84,8.1,9.65
		c2.8,2.8,6.13,5.38,9.65,8.1c7.48,5.79,15.22,11.78,19,20.89c3.63,8.76,2.46,18.38,1.33,27.68c-0.53,4.36-1.08,8.87-1.08,13.09
		s0.55,8.72,1.08,13.09c1.13,9.3,2.31,18.91-1.33,27.68c-3.78,9.11-11.52,15.1-19,20.89c-3.52,2.72-6.84,5.3-9.65,8.1
		c-2.8,2.8-5.38,6.13-8.1,9.65c-5.79,7.48-11.78,15.22-20.89,19c-8.76,3.63-18.38,2.46-27.68,1.33c-4.36-0.53-8.87-1.08-13.09-1.08
		c-4.21,0-8.72,0.55-13.09,1.08C90.34,208.29,85.69,208.85,81.11,208.85z"/>
</g>
<g>
	<path class="st2" d="M85.89,190.91c-3.9,0-7.74-0.5-11.4-2.02c-7.49-3.11-12.41-9.47-17.18-15.62c-2.24-2.89-4.35-5.63-6.66-7.93
		c-2.3-2.3-5.04-4.42-7.93-6.66c-6.15-4.76-12.52-9.69-15.62-17.18c-2.99-7.2-2.02-15.11-1.09-22.75c0.44-3.59,0.89-7.3,0.89-10.76
		c0-3.46-0.45-7.17-0.89-10.76c-0.93-7.64-1.9-15.55,1.09-22.75c3.11-7.49,9.47-12.41,15.62-17.18c2.89-2.24,5.63-4.35,7.93-6.66
		c2.3-2.3,4.42-5.04,6.66-7.93C62.07,36.57,67,30.21,74.49,27.1c7.2-2.99,15.11-2.02,22.75-1.09c3.59,0.44,7.3,0.89,10.76,0.89
		c3.46,0,7.17-0.45,10.76-0.89c7.64-0.93,15.55-1.9,22.75,1.09c7.49,3.11,12.41,9.47,17.18,15.62c2.24,2.89,4.35,5.63,6.66,7.93
		c2.3,2.3,5.04,4.42,7.93,6.66c6.15,4.76,12.51,9.69,15.62,17.18c2.99,7.21,2.02,15.11,1.09,22.75c-0.44,3.59-0.89,7.3-0.89,10.76
		c0,3.46,0.45,7.17,0.89,10.76c0.93,7.64,1.9,15.55-1.09,22.75c-3.11,7.49-9.47,12.41-15.62,17.18c-2.89,2.24-5.63,4.35-7.93,6.66
		c-2.3,2.3-4.42,5.04-6.66,7.93c-4.76,6.15-9.69,12.51-17.18,15.62c-7.2,2.99-15.11,2.02-22.75,1.09c-3.59-0.44-7.3-0.89-10.76-0.89
		s-7.17,0.45-10.76,0.89C93.48,190.45,89.66,190.91,85.89,190.91z"/>
</g>
<rect x="71.1" y="180.87" class="st1" width="73.81" height="19.43"/>
<g>
	<path class="st0" d="M86.07,189.57c0,0.86-0.15,1.64-0.44,2.34s-0.69,1.31-1.19,1.82s-1.09,0.9-1.77,1.18s-1.4,0.42-2.17,0.42
		c-0.77,0-1.49-0.14-2.17-0.43c-0.68-0.29-1.27-0.68-1.77-1.19c-0.51-0.51-0.91-1.12-1.2-1.82s-0.44-1.48-0.44-2.32v-9.7h2.79v5.09
		c0.15-0.19,0.33-0.36,0.54-0.51s0.44-0.27,0.69-0.37c0.25-0.09,0.5-0.17,0.77-0.22c0.26-0.05,0.52-0.08,0.77-0.08
		c0.77,0,1.5,0.14,2.17,0.43c0.68,0.29,1.27,0.69,1.77,1.21c0.5,0.52,0.9,1.13,1.19,1.83C85.92,187.96,86.07,188.73,86.07,189.57z
		 M83.26,189.57c0-0.42-0.07-0.81-0.22-1.18s-0.34-0.68-0.6-0.94c-0.25-0.27-0.55-0.47-0.88-0.62c-0.34-0.15-0.69-0.22-1.07-0.22
		s-0.74,0.08-1.08,0.25c-0.34,0.17-0.63,0.39-0.88,0.66c-0.25,0.28-0.45,0.59-0.59,0.95c-0.14,0.36-0.21,0.72-0.21,1.1
		c0,0.42,0.07,0.81,0.21,1.17c0.14,0.36,0.34,0.67,0.59,0.94c0.25,0.26,0.54,0.47,0.88,0.63c0.34,0.15,0.69,0.23,1.08,0.23
		s0.74-0.08,1.07-0.23c0.34-0.15,0.63-0.36,0.88-0.63c0.25-0.26,0.45-0.58,0.6-0.94C83.19,190.38,83.26,189.99,83.26,189.57z"/>
	<path class="st0" d="M91.94,192.45c0.11,0.03,0.22,0.06,0.33,0.07c0.11,0.01,0.22,0.01,0.33,0.01c0.27,0,0.53-0.04,0.78-0.11
		c0.25-0.07,0.49-0.18,0.71-0.32c0.22-0.14,0.42-0.31,0.59-0.51c0.17-0.2,0.31-0.42,0.42-0.67l2.04,2.05
		c-0.26,0.37-0.56,0.7-0.89,0.99c-0.34,0.29-0.7,0.54-1.09,0.74c-0.39,0.2-0.8,0.36-1.23,0.46s-0.87,0.16-1.33,0.16
		c-0.77,0-1.49-0.14-2.16-0.43c-0.68-0.29-1.27-0.68-1.77-1.19s-0.9-1.12-1.2-1.82s-0.44-1.48-0.44-2.32c0-0.86,0.15-1.65,0.44-2.36
		s0.69-1.32,1.2-1.82s1.1-0.89,1.77-1.17s1.4-0.42,2.16-0.42c0.46,0,0.9,0.05,1.33,0.16c0.43,0.11,0.85,0.27,1.24,0.47
		c0.39,0.2,0.76,0.45,1.1,0.75c0.34,0.3,0.64,0.63,0.9,0.99L91.94,192.45z M93.37,186.72c-0.13-0.05-0.26-0.08-0.38-0.09
		c-0.13-0.01-0.26-0.02-0.39-0.02c-0.38,0-0.74,0.07-1.07,0.21c-0.34,0.14-0.63,0.34-0.88,0.6s-0.44,0.57-0.59,0.93
		c-0.14,0.36-0.21,0.77-0.21,1.23c0,0.1,0,0.22,0.02,0.35s0.03,0.26,0.05,0.39c0.02,0.13,0.05,0.26,0.09,0.38
		c0.03,0.12,0.08,0.23,0.13,0.33L93.37,186.72z"/>
	<path class="st0" d="M109.04,195.12h-0.67l-1.08-1.5c-0.27,0.24-0.55,0.46-0.84,0.67s-0.61,0.39-0.93,0.54
		c-0.33,0.15-0.66,0.27-1,0.36c-0.34,0.09-0.69,0.13-1.04,0.13c-0.77,0-1.49-0.13-2.16-0.39s-1.27-0.63-1.77-1.13
		c-0.51-0.49-0.9-1.09-1.2-1.81c-0.29-0.71-0.44-1.52-0.44-2.44c0-0.85,0.15-1.63,0.44-2.34c0.29-0.71,0.69-1.32,1.2-1.83
		c0.51-0.51,1.1-0.91,1.77-1.19c0.68-0.28,1.4-0.42,2.16-0.42c0.35,0,0.7,0.04,1.05,0.13c0.35,0.09,0.68,0.21,1.01,0.37
		s0.64,0.34,0.93,0.55s0.57,0.44,0.83,0.68l1.08-1.29h0.67V195.12z M106.24,189.57c0-0.38-0.07-0.75-0.22-1.1
		c-0.15-0.36-0.34-0.67-0.6-0.95c-0.25-0.27-0.54-0.5-0.88-0.66c-0.34-0.17-0.69-0.25-1.08-0.25s-0.74,0.06-1.07,0.19
		c-0.34,0.13-0.63,0.32-0.88,0.57s-0.44,0.56-0.59,0.93s-0.21,0.79-0.21,1.27c0,0.48,0.07,0.9,0.21,1.27s0.34,0.68,0.59,0.93
		s0.54,0.44,0.88,0.57c0.34,0.13,0.69,0.19,1.07,0.19s0.74-0.08,1.08-0.25c0.34-0.17,0.63-0.39,0.88-0.66
		c0.25-0.28,0.45-0.59,0.6-0.95S106.24,189.95,106.24,189.57z"/>
	<path class="st0" d="M116.63,195.12c-0.67,0-1.3-0.13-1.89-0.38s-1.11-0.6-1.55-1.05c-0.45-0.44-0.79-0.96-1.05-1.55
		s-0.38-1.22-0.38-1.89V187h-1.35v-2.77h1.35v-4.36h2.77v4.36h4.22V187h-4.22v3.24c0,0.29,0.05,0.57,0.16,0.82
		c0.11,0.25,0.26,0.48,0.45,0.67c0.19,0.19,0.41,0.34,0.67,0.45c0.26,0.11,0.53,0.17,0.83,0.17h2.11v2.77H116.63z"/>
	<path class="st0" d="M126.29,195.12h-6.36v-2.77h6.36c0.19,0,0.35-0.07,0.49-0.2s0.2-0.3,0.2-0.49c0-0.2-0.07-0.33-0.2-0.39
		c-0.14-0.06-0.3-0.09-0.49-0.09h-2.89c-0.48,0-0.93-0.09-1.35-0.28s-0.79-0.43-1.1-0.75c-0.31-0.32-0.56-0.68-0.74-1.11
		c-0.18-0.42-0.27-0.87-0.27-1.35s0.09-0.93,0.27-1.36c0.18-0.42,0.43-0.79,0.74-1.1c0.31-0.31,0.68-0.56,1.1-0.74
		c0.42-0.18,0.87-0.27,1.35-0.27h5.63V187h-5.63c-0.19,0-0.35,0.07-0.49,0.2c-0.14,0.14-0.2,0.3-0.2,0.49c0,0.2,0.07,0.37,0.2,0.5
		c0.14,0.14,0.3,0.21,0.49,0.21h2.89c0.48,0,0.92,0.08,1.34,0.24c0.42,0.16,0.79,0.38,1.1,0.67s0.56,0.63,0.74,1.03
		c0.18,0.4,0.28,0.84,0.28,1.31c0,0.48-0.09,0.93-0.28,1.35c-0.18,0.42-0.43,0.79-0.74,1.1s-0.68,0.56-1.1,0.74
		C127.21,195.03,126.76,195.12,126.29,195.12z"/>
	<path class="st0" d="M133.86,199.28v-2.8l1.55,0.02c0.27,0,0.53-0.04,0.78-0.13c0.25-0.09,0.48-0.21,0.7-0.37s0.4-0.34,0.57-0.55
		s0.3-0.45,0.4-0.7c-0.31,0.13-0.62,0.26-0.93,0.39c-0.32,0.13-0.63,0.19-0.95,0.19c-0.67,0-1.3-0.12-1.89-0.36
		c-0.59-0.24-1.11-0.58-1.55-1.01c-0.45-0.44-0.79-0.97-1.05-1.6c-0.25-0.63-0.38-1.33-0.38-2.11v-6.03h2.77v6.03
		c0,0.39,0.06,0.72,0.17,1.01c0.11,0.29,0.26,0.53,0.45,0.72c0.19,0.19,0.41,0.34,0.67,0.43c0.25,0.1,0.53,0.14,0.82,0.14
		c0.29,0,0.55-0.07,0.81-0.2c0.25-0.13,0.48-0.31,0.67-0.53c0.19-0.22,0.34-0.46,0.45-0.74c0.11-0.28,0.16-0.56,0.16-0.85v-6.03h2.8
		v9.54c-0.01,0.77-0.16,1.49-0.45,2.16c-0.29,0.67-0.69,1.26-1.2,1.76c-0.51,0.5-1.1,0.9-1.77,1.19c-0.67,0.29-1.39,0.44-2.16,0.44
		L133.86,199.28z"/>
</g>
<g id="default_2_">
	<g id="Background_2_">
		<circle class="st1" cx="108" cy="108" r="64.8"/>
	</g>
	<g id="Markers_3_">
		<g transform="rotate(-78 400 400)">
			<g>
				<path class="st0" d="M650.94,60.85c-0.06-0.27-0.06-0.56,0.01-0.84c0.23-0.93,0.41-1.89,0.53-2.84
					c0.14-1.04,1.09-1.78,2.14-1.64c1.04,0.14,1.78,1.09,1.64,2.14c-0.14,1.09-0.35,2.18-0.61,3.24c-0.25,1.02-1.28,1.65-2.3,1.4
					C651.62,62.13,651.09,61.55,650.94,60.85z"/>
			</g>
			<g>
				<path class="st3" d="M646.6,70.47c-0.11-0.5-0.01-1.03,0.3-1.48c0.55-0.79,1.06-1.61,1.52-2.46c0.5-0.92,1.66-1.26,2.58-0.76
					c0.92,0.5,1.26,1.66,0.76,2.58c-0.53,0.96-1.11,1.91-1.74,2.8c-0.6,0.86-1.79,1.08-2.65,0.47
					C646.97,71.35,646.7,70.93,646.6,70.47z"/>
			</g>
			<g>
				<path class="st0" d="M629.4,82.06c-0.22-1.02,0.42-2.02,1.44-2.25c4.16-0.94,8.08-2.9,11.35-5.65c0.8-0.68,2-0.58,2.68,0.23
					c0.68,0.8,0.58,2-0.23,2.68c-3.72,3.14-8.21,5.37-12.96,6.45c-1.03,0.23-2.04-0.41-2.28-1.43
					C629.41,82.08,629.41,82.07,629.4,82.06z"/>
			</g>
			<g>
				<path class="st3" d="M618.86,82.47c-0.05-0.22-0.05-0.44-0.02-0.67c0.15-1.04,1.12-1.76,2.16-1.61
					c0.95,0.14,1.92,0.23,2.88,0.27c1.05,0.04,1.87,0.92,1.83,1.98c-0.04,1.05-0.93,1.87-1.98,1.83c-1.1-0.04-2.2-0.14-3.28-0.3
					C619.64,83.83,619.02,83.22,618.86,82.47z"/>
			</g>
			<g>
				<path class="st0" d="M608.89,79.04c-0.09-0.44-0.03-0.91,0.21-1.33c0.52-0.91,1.68-1.24,2.59-0.72
					c0.84,0.47,1.71,0.91,2.59,1.29c0.97,0.42,1.41,1.54,0.99,2.5c-0.42,0.96-1.54,1.41-2.5,0.99c-1.01-0.43-2-0.93-2.95-1.47
					C609.31,80.02,608.99,79.55,608.89,79.04z"/>
			</g>
			<g>
				<path class="st0" d="M595.76,62.98c-0.2-0.94,0.34-1.9,1.27-2.2c1-0.33,2.07,0.22,2.4,1.22c1.32,4.06,3.63,7.78,6.67,10.78
					c0.75,0.74,0.76,1.94,0.02,2.69c-0.74,0.75-1.94,0.76-2.69,0.02c-3.47-3.42-6.11-7.67-7.62-12.31
					C595.79,63.11,595.77,63.04,595.76,62.98z"/>
			</g>
			<g>
				<path class="st3" d="M594.38,55.62c-0.02-0.1-0.03-0.19-0.04-0.3c-0.26-4.87,0.66-9.79,2.66-14.23
					c0.43-0.96,1.56-1.39,2.52-0.95c0.96,0.43,1.39,1.56,0.95,2.52c-1.75,3.89-2.56,8.2-2.33,12.46c0.06,1.05-0.75,1.95-1.8,2
					C595.4,57.17,594.57,56.52,594.38,55.62z"/>
			</g>
			<g>
				<path class="st0" d="M600.82,35.9c-0.12-0.55,0.01-1.14,0.39-1.6c5.55-6.79,13.76-10.88,22.52-11.21
					c1.05-0.04,1.93,0.78,1.98,1.83c0.04,1.05-0.78,1.93-1.83,1.98c-7.67,0.3-14.86,3.87-19.72,9.82c-0.67,0.81-1.86,0.93-2.68,0.27
					C601.13,36.69,600.91,36.31,600.82,35.9z"/>
			</g>
			<g>
				<path class="st3" d="M629.4,26.07c-0.06-0.26-0.06-0.54,0.01-0.82c0.23-1.03,1.25-1.67,2.28-1.43c1.07,0.24,2.14,0.55,3.17,0.9
					c0.99,0.34,1.52,1.42,1.18,2.42c-0.34,0.99-1.42,1.52-2.42,1.18c-0.91-0.31-1.84-0.58-2.78-0.79
					C630.1,27.36,629.55,26.77,629.4,26.07z"/>
			</g>
			<g>
				<path class="st3" d="M639.09,30.26c-0.1-0.49-0.02-1.01,0.28-1.46c0.59-0.87,1.77-1.1,2.64-0.52c0.91,0.61,1.79,1.28,2.63,1.99
					c0.8,0.68,0.91,1.88,0.23,2.68c-0.68,0.8-1.88,0.91-2.68,0.23c-0.73-0.62-1.51-1.2-2.3-1.74
					C639.46,31.15,639.19,30.73,639.09,30.26z"/>
			</g>
			<g>
				<path class="st0" d="M646.6,37.66c-0.15-0.73,0.13-1.51,0.77-1.96c0.86-0.6,2.05-0.39,2.65,0.47c0.63,0.9,1.21,1.84,1.74,2.8
					c0.51,0.92,0.17,2.08-0.76,2.58c-0.92,0.5-2.08,0.17-2.58-0.76c-0.46-0.84-0.97-1.67-1.52-2.46
					C646.75,38.14,646.65,37.9,646.6,37.66z"/>
			</g>
			<g>
				<path class="st3" d="M651.51,50.32c-0.01-0.05-0.02-0.1-0.03-0.15c-0.13-0.95-0.3-1.91-0.53-2.84c-0.25-1.02,0.38-2.05,1.4-2.3
					c1.02-0.25,2.05,0.38,2.3,1.4c0.26,1.06,0.46,2.16,0.61,3.24c0.14,1.04-0.6,2-1.64,2.14C652.63,51.94,651.71,51.28,651.51,50.32
					z"/>
			</g>
		</g>
		<g transform="rotate(-85 400 400)">
			<g>
				<path class="st0" d="M690.79,107.82c-0.04-0.5,0.11-1.02,0.47-1.42c0.59-0.67,1.15-1.36,1.69-2.07
					c0.63-0.84,1.82-1.01,2.67-0.38c0.84,0.63,1.01,1.82,0.38,2.67c-0.59,0.79-1.22,1.56-1.87,2.3c-0.69,0.79-1.9,0.87-2.69,0.17
					C691.05,108.74,690.83,108.29,690.79,107.82z"/>
			</g>
			<g>
				<path class="st0" d="M683.31,114.28c-0.06-0.68,0.25-1.37,0.86-1.76c0.74-0.48,1.48-1,2.18-1.54c0.83-0.64,2.03-0.48,2.67,0.35
					c0.64,0.83,0.48,2.03-0.35,2.67c-0.78,0.6-1.6,1.18-2.42,1.71c-0.88,0.57-2.06,0.32-2.63-0.56
					C683.44,114.88,683.34,114.58,683.31,114.28z"/>
			</g>
			<g>
				<path class="st3" d="M654.78,119.06c-0.02-0.2,0-0.42,0.05-0.63c0.25-1.02,1.29-1.64,2.31-1.39c7.04,1.75,14.33,1.25,21.07-1.44
					c0.98-0.39,2.08,0.08,2.47,1.06c0.39,0.98-0.08,2.08-1.06,2.47c-7.49,2.99-15.58,3.55-23.4,1.6
					C655.41,120.54,654.85,119.85,654.78,119.06z"/>
			</g>
			<g>
				<path class="st0" d="M637.75,109.38c-0.05-0.54,0.14-1.1,0.56-1.52c0.75-0.74,1.95-0.73,2.69,0.01c2.85,2.87,6.15,5.2,9.81,6.93
					c0.95,0.45,1.36,1.58,0.91,2.53c-0.45,0.95-1.58,1.36-2.53,0.91c-4.07-1.91-7.73-4.5-10.9-7.69
					C637.97,110.22,637.79,109.81,637.75,109.38z"/>
			</g>
			<g>
				<path class="st3" d="M631.81,101.47c-0.06-0.73,0.29-1.45,0.97-1.83c0.92-0.51,2.08-0.18,2.59,0.74
					c0.43,0.78,0.9,1.54,1.39,2.28c0.58,0.88,0.34,2.06-0.53,2.64c-0.88,0.58-2.06,0.34-2.64-0.53c-0.54-0.82-1.06-1.67-1.54-2.54
					C631.91,101.99,631.84,101.73,631.81,101.47z"/>
			</g>
			<g>
				<path class="st3" d="M628.23,92.25c-0.08-0.92,0.53-1.79,1.45-2.02c1.02-0.24,2.05,0.39,2.29,1.41
					c0.21,0.86,0.45,1.73,0.72,2.57c0.32,1-0.23,2.07-1.23,2.4c-1,0.32-2.07-0.23-2.4-1.23c-0.3-0.94-0.57-1.9-0.8-2.86
					C628.25,92.44,628.24,92.35,628.23,92.25z"/>
			</g>
			<g>
				<path class="st0" d="M627.27,85.24c0-0.03,0-0.06-0.01-0.09c-0.04-0.99-0.04-1.98,0-2.97c0.04-1.05,0.93-1.87,1.98-1.83
					c1.05,0.04,1.87,0.92,1.83,1.98c-0.03,0.89-0.03,1.78,0,2.67c0.04,1.05-0.78,1.94-1.83,1.98
					C628.22,87.01,627.35,86.24,627.27,85.24z"/>
			</g>
			<g>
				<path class="st3" d="M628.23,75.4c-0.02-0.2,0-0.4,0.05-0.61c0.23-0.96,0.5-1.92,0.8-2.86c0.32-1,1.4-1.55,2.4-1.23
					c1,0.32,1.55,1.4,1.23,2.4c-0.27,0.85-0.52,1.71-0.72,2.57c-0.24,1.02-1.27,1.65-2.29,1.41
					C628.87,76.89,628.3,76.19,628.23,75.4z"/>
			</g>
			<g>
				<path class="st0" d="M631.81,66.18c-0.03-0.37,0.04-0.74,0.23-1.09c0.48-0.86,1-1.71,1.54-2.54c0.58-0.88,1.76-1.12,2.64-0.54
					c0.88,0.58,1.12,1.76,0.54,2.64c-0.49,0.74-0.96,1.51-1.39,2.28c-0.51,0.92-1.67,1.25-2.59,0.74
					C632.21,67.36,631.87,66.79,631.81,66.18z"/>
			</g>
			<g>
				<path class="st0" d="M637.75,58.28c-0.05-0.54,0.13-1.09,0.54-1.51c5.67-5.73,12.88-9.46,20.83-10.79
					c1.04-0.17,2.02,0.53,2.19,1.56c0.17,1.04-0.53,2.02-1.56,2.19c-7.16,1.2-13.64,4.56-18.75,9.72c-0.74,0.75-1.95,0.75-2.69,0.01
					C637.97,59.13,637.79,58.71,637.75,58.28z"/>
			</g>
			<g>
				<path class="st3" d="M664.61,47.54c-0.01-0.07-0.01-0.15-0.01-0.22c0.03-1.05,0.91-1.88,1.96-1.85
					c4.49,0.13,8.89,1.05,13.06,2.71c0.98,0.39,1.45,1.5,1.06,2.47c-0.39,0.98-1.5,1.45-2.47,1.06c-3.76-1.5-7.71-2.32-11.76-2.44
					C665.48,49.25,664.69,48.49,664.61,47.54z"/>
			</g>
			<g>
				<path class="st0" d="M683.31,53.38c-0.04-0.41,0.06-0.83,0.3-1.2c0.57-0.88,1.75-1.13,2.63-0.56c3.77,2.45,7.05,5.51,9.75,9.1
					c0.63,0.84,0.46,2.03-0.38,2.67c-0.84,0.63-2.03,0.46-2.67-0.38c-2.43-3.24-5.38-5.99-8.78-8.2
					C683.66,54.48,683.36,53.94,683.31,53.38z"/>
			</g>
			<g>
				<path class="st3" d="M696.25,68.08c-0.07-0.77,0.34-1.53,1.07-1.88c0.95-0.46,2.08-0.06,2.54,0.89c0.43,0.89,0.83,1.8,1.18,2.72
					c0.38,0.98-0.1,2.08-1.08,2.46c-0.98,0.38-2.08-0.1-2.46-1.08c-0.32-0.83-0.68-1.65-1.06-2.45
					C696.33,68.53,696.27,68.3,696.25,68.08z"/>
			</g>
			<g>
				<path class="st3" d="M696.25,99.57c-0.03-0.33,0.03-0.67,0.18-0.99c3.15-6.54,4.14-13.78,2.88-20.93
					c-0.18-1.03,0.51-2.02,1.54-2.21s2.02,0.51,2.21,1.54c1.41,7.94,0.3,15.98-3.19,23.24c-0.46,0.95-1.59,1.35-2.54,0.89
					C696.7,100.82,696.31,100.22,696.25,99.57z"/>
			</g>
		</g>
		<g transform="rotate(-70 400 400)">
			<g>
				<path class="st0" d="M616.11,33.14c-0.11-0.29-0.14-0.61-0.09-0.94c0.14-0.92,0.26-1.87,0.34-2.8c0.09-1.05,1.01-1.82,2.06-1.73
					c1.05,0.09,1.82,1.01,1.73,2.06c-0.09,1.02-0.21,2.04-0.37,3.05c-0.16,1.04-1.13,1.75-2.17,1.59
					C616.9,34.26,616.34,33.77,616.11,33.14z"/>
			</g>
			<g>
				<path class="st3" d="M613.23,43.33c-0.16-0.43-0.16-0.93,0.03-1.38c0.36-0.86,0.7-1.75,1-2.64c0.34-0.99,1.42-1.53,2.42-1.19
					c1,0.34,1.53,1.42,1.19,2.42c-0.33,0.96-0.7,1.93-1.09,2.87c-0.41,0.97-1.52,1.43-2.49,1.02
					C613.78,44.22,613.41,43.81,613.23,43.33z"/>
			</g>
			<g>
				<path class="st0" d="M608.01,52.53c-0.21-0.58-0.14-1.25,0.26-1.79c0.56-0.75,1.1-1.53,1.6-2.32c0.57-0.88,1.75-1.14,2.63-0.57
					c0.88,0.57,1.14,1.75,0.57,2.63c-0.55,0.86-1.14,1.71-1.75,2.53c-0.63,0.84-1.82,1.02-2.66,0.4
					C608.35,53.18,608.13,52.87,608.01,52.53z"/>
			</g>
			<g>
				<path class="st0" d="M600.72,60.21c-0.27-0.74-0.06-1.59,0.58-2.12c0.72-0.6,1.43-1.23,2.11-1.87c0.76-0.72,1.97-0.69,2.69,0.07
					c0.72,0.76,0.69,1.97-0.07,2.69c-0.74,0.7-1.51,1.39-2.3,2.04c-0.81,0.67-2.01,0.56-2.68-0.25
					C600.9,60.6,600.8,60.41,600.72,60.21z"/>
			</g>
			<g>
				<path class="st3" d="M560.8,68.64c-0.13-0.36-0.16-0.77-0.04-1.17c0.29-1.01,1.34-1.6,2.35-1.31
					c5.38,1.52,10.92,1.95,16.48,1.27c5.55-0.67,10.83-2.42,15.69-5.18c0.91-0.52,2.08-0.2,2.6,0.71c0.52,0.92,0.2,2.08-0.71,2.6
					c-5.3,3.01-11.06,4.91-17.11,5.65c-6.05,0.74-12.1,0.27-17.97-1.39C561.46,69.65,561,69.2,560.8,68.64z"/>
			</g>
			<g>
				<path class="st0" d="M551.04,64.56c-0.18-0.51-0.15-1.09,0.13-1.59c0.52-0.91,1.68-1.23,2.6-0.71c0.81,0.46,1.65,0.9,2.5,1.31
					c0.95,0.46,1.34,1.6,0.89,2.54c-0.46,0.95-1.6,1.34-2.54,0.89c-0.92-0.44-1.83-0.92-2.72-1.43
					C551.48,65.33,551.19,64.97,551.04,64.56z"/>
			</g>
			<g>
				<path class="st3" d="M542.53,58.26c-0.24-0.66-0.11-1.42,0.41-1.96c0.72-0.76,1.93-0.8,2.69-0.07c0.68,0.64,1.39,1.27,2.11,1.87
					c0.81,0.67,0.92,1.87,0.25,2.68c-0.67,0.81-1.87,0.92-2.68,0.25c-0.79-0.65-1.56-1.34-2.3-2.04
					C542.79,58.78,542.63,58.53,542.53,58.26z"/>
			</g>
			<g>
				<path class="st3" d="M531.48,41.4c-1.19-3.27-2.01-6.67-2.43-10.14c-0.95-7.86,0.16-15.88,3.21-23.19
					c0.41-0.97,1.52-1.43,2.49-1.02c0.97,0.41,1.43,1.52,1.02,2.49c-2.8,6.7-3.82,14.05-2.94,21.26c0.88,7.21,3.62,14.11,7.95,19.94
					c0.63,0.84,0.45,2.04-0.4,2.66c-0.84,0.63-2.04,0.45-2.66-0.4C535.08,49.45,532.98,45.54,531.48,41.4z"/>
			</g>
			<g>
				<path class="st0" d="M535.78,2.68c-0.2-0.54-0.15-1.16,0.19-1.68c2.56-3.98,5.7-7.53,9.34-10.55c0.81-0.67,2.01-0.56,2.68,0.25
					c0.67,0.81,0.56,2.01-0.25,2.68c-3.34,2.77-6.22,6.02-8.57,9.67c-0.57,0.88-1.75,1.14-2.63,0.57
					C536.18,3.4,535.92,3.06,535.78,2.68z"/>
			</g>
			<g>
				<path class="st3" d="M551.04-11.78c-0.31-0.86,0.03-1.84,0.85-2.3c4.11-2.34,8.54-4.02,13.17-5c1.03-0.22,2.04,0.44,2.26,1.47
					c0.22,1.03-0.44,2.04-1.47,2.26c-4.24,0.9-8.31,2.44-12.08,4.58c-0.91,0.52-2.08,0.2-2.6-0.71
					C551.12-11.58,551.07-11.68,551.04-11.78z"/>
			</g>
			<g>
				<path class="st0" d="M571.26-17.49c-0.07-0.18-0.11-0.38-0.11-0.59c-0.04-1.05,0.79-1.93,1.84-1.97c1.02-0.03,2.05-0.03,3.07,0
					c1.05,0.04,1.87,0.92,1.84,1.97c-0.04,1.05-0.92,1.87-1.97,1.84c-0.94-0.03-1.88-0.03-2.82,0
					C572.27-16.21,571.53-16.73,571.26-17.49z"/>
			</g>
			<g>
				<path class="st0" d="M581.8-16.57c-0.12-0.32-0.15-0.68-0.07-1.04c0.22-1.03,1.23-1.69,2.26-1.47c4.63,0.98,9.06,2.66,13.17,5
					c0.91,0.52,1.23,1.68,0.71,2.6c-0.52,0.91-1.68,1.23-2.6,0.71c-3.77-2.14-7.83-3.68-12.08-4.58
					C582.53-15.49,582.02-15.97,581.8-16.57z"/>
			</g>
			<g>
				<path class="st3" d="M600.73-7.43c-0.22-0.61-0.12-1.33,0.32-1.87c0.67-0.81,1.87-0.92,2.68-0.25c4.7,3.89,8.52,8.6,11.35,14
					c2.83,5.4,4.54,11.22,5.07,17.29c0.09,1.05-0.68,1.97-1.73,2.06c-1.05,0.09-1.97-0.68-2.06-1.73
					c-0.49-5.57-2.05-10.91-4.65-15.86c-2.6-4.95-6.1-9.27-10.41-12.84C601.03-6.84,600.84-7.12,600.73-7.43z"/>
			</g>
		</g>
		<g transform="rotate(-63 400 400)">
			<g>
				<path class="st0" d="M569.08,36.21c-0.3-0.59-0.28-1.31,0.1-1.9c2.59-3.98,4.59-8.31,5.95-12.86c0.3-1.01,1.36-1.58,2.37-1.28
					c1.01,0.3,1.58,1.36,1.28,2.37c-1.46,4.9-3.62,9.56-6.41,13.85c-0.57,0.88-1.75,1.13-2.63,0.56
					C569.45,36.75,569.23,36.49,569.08,36.21z"/>
			</g>
			<g>
				<path class="st3" d="M562.04,44.83c-0.37-0.72-0.25-1.62,0.36-2.22c0.82-0.81,1.63-1.66,2.39-2.52c0.7-0.79,1.9-0.86,2.69-0.17
					c0.79,0.7,0.86,1.9,0.17,2.69c-0.82,0.93-1.69,1.84-2.57,2.72c-0.75,0.74-1.95,0.73-2.69-0.02
					C562.24,45.16,562.12,45,562.04,44.83z"/>
			</g>
			<g>
				<path class="st0" d="M543.29,56.61c-0.04-0.07-0.07-0.15-0.1-0.22c-0.35-0.99,0.16-2.08,1.15-2.43
					c4.47-1.6,8.68-3.84,12.52-6.64c0.85-0.62,2.04-0.43,2.66,0.41c0.62,0.85,0.43,2.04-0.41,2.66c-4.13,3.02-8.67,5.42-13.48,7.15
					C544.71,57.86,543.72,57.45,543.29,56.61z"/>
			</g>
			<g>
				<path class="st3" d="M532.46,59.21c-0.1-0.19-0.16-0.4-0.19-0.62c-0.13-1.04,0.6-2,1.65-2.13c1.14-0.15,2.3-0.34,3.43-0.56
					c1.03-0.21,2.03,0.46,2.24,1.49c0.21,1.03-0.46,2.03-1.49,2.24c-1.22,0.24-2.46,0.45-3.69,0.61
					C533.58,60.34,532.81,59.9,532.46,59.21z"/>
			</g>
			<g>
				<path class="st3" d="M500.21,52.75c-0.28-0.55-0.29-1.24,0.05-1.82c0.52-0.91,1.69-1.22,2.6-0.7c7.23,4.16,15.46,6.45,23.8,6.61
					c1.05,0.02,1.89,0.89,1.87,1.94c-0.02,1.05-0.89,1.89-1.94,1.87c-8.98-0.17-17.84-2.63-25.63-7.12
					C500.63,53.35,500.37,53.07,500.21,52.75z"/>
			</g>
			<g>
				<path class="st3" d="M491.22,46.19c-0.35-0.69-0.26-1.54,0.29-2.15c0.71-0.78,1.91-0.83,2.69-0.12
					c0.85,0.78,1.74,1.53,2.65,2.25c0.82,0.65,0.96,1.85,0.31,2.67s-1.85,0.96-2.67,0.31c-0.97-0.77-1.93-1.58-2.85-2.42
					C491.46,46.57,491.32,46.38,491.22,46.19z"/>
			</g>
			<g>
				<path class="st0" d="M480.02,31.5c-4.08-8.02-6.1-16.99-5.78-26.11c0.04-1.05,0.92-1.87,1.97-1.84
					c1.05,0.04,1.87,0.92,1.84,1.97c-0.42,12.03,3.54,23.79,11.16,33.12c0.67,0.81,0.54,2.01-0.27,2.68s-2.01,0.54-2.68-0.27
					C483.82,38.08,481.74,34.87,480.02,31.5z"/>
			</g>
			<g>
				<path class="st3" d="M475.26-1.18c-0.18-0.36-0.25-0.78-0.18-1.21c0.22-1.22,0.49-2.45,0.8-3.65c0.26-1.02,1.3-1.63,2.32-1.37
					c1.02,0.26,1.63,1.3,1.37,2.32c-0.29,1.12-0.54,2.26-0.75,3.39c-0.19,1.03-1.18,1.72-2.22,1.53
					C476.01-0.28,475.52-0.67,475.26-1.18z"/>
			</g>
			<g>
				<path class="st0" d="M478.44-11.85c-0.25-0.48-0.29-1.07-0.06-1.6c0.48-1.14,1.01-2.29,1.57-3.39c0.47-0.94,1.62-1.31,2.56-0.84
					c0.94,0.47,1.31,1.62,0.84,2.56c-0.52,1.03-1.01,2.09-1.46,3.15c-0.41,0.97-1.52,1.42-2.49,1.02
					C478.97-11.14,478.64-11.46,478.44-11.85z"/>
			</g>
			<g>
				<path class="st0" d="M483.85-21.58c-0.31-0.61-0.28-1.37,0.14-1.96c5.18-7.34,12.19-13.29,20.27-17.22
					c0.95-0.46,2.09-0.06,2.54,0.88c0.46,0.95,0.07,2.08-0.88,2.54c-7.5,3.65-14.01,9.18-18.83,15.99
					c-0.61,0.86-1.79,1.06-2.65,0.46C484.18-21.08,483.98-21.32,483.85-21.58z"/>
			</g>
			<g>
				<path class="st3" d="M510.41-40.98c-0.05-0.09-0.09-0.19-0.12-0.29c-0.32-1,0.24-2.07,1.24-2.39c1.18-0.37,2.4-0.71,3.6-1
					c1.02-0.25,2.05,0.38,2.3,1.41c0.25,1.02-0.38,2.05-1.41,2.3c-1.12,0.27-2.25,0.58-3.35,0.93
					C511.77-39.75,510.82-40.17,510.41-40.98z"/>
			</g>
			<g>
				<path class="st0" d="M521.32-43.17c-0.11-0.21-0.18-0.44-0.2-0.69c-0.09-1.05,0.68-1.97,1.73-2.07
					c8.95-0.8,18.02,0.69,26.25,4.3c0.96,0.42,1.4,1.55,0.98,2.51c-0.42,0.96-1.55,1.4-2.51,0.98c-7.64-3.36-16.07-4.74-24.38-4
					C522.39-42.07,521.67-42.5,521.32-43.17z"/>
			</g>
			<g>
				<path class="st3" d="M553.3-35.48c-0.29-0.58-0.29-1.29,0.08-1.88c0.56-0.89,1.73-1.16,2.62-0.6
					c7.61,4.78,13.93,11.46,18.29,19.31c0.51,0.92,0.18,2.08-0.74,2.59c-0.92,0.51-2.08,0.18-2.59-0.74
					c-4.05-7.3-9.92-13.5-16.99-17.93C553.68-34.93,553.45-35.19,553.3-35.48z"/>
			</g>
			<g>
				<path class="st0" d="M576.88,15.48c-0.17-0.34-0.25-0.73-0.19-1.13c1.19-8.26,0.27-16.75-2.67-24.56
					c-0.37-0.98,0.13-2.08,1.11-2.45c0.98-0.37,2.08,0.13,2.45,1.11c3.16,8.41,4.16,17.55,2.88,26.44
					c-0.15,1.04-1.12,1.76-2.16,1.61C577.67,16.41,577.15,16.01,576.88,15.48z"/>
			</g>
		</g>
		<g transform="rotate(-70 400 400)">
			<g>
				<path class="st3" d="M631.33,34.01c-0.1-0.28-0.14-0.58-0.1-0.9c0.17-1.28,0.29-2.59,0.37-3.88c0.06-1.05,0.97-1.85,2.02-1.78
					s1.85,0.97,1.78,2.02c-0.08,1.38-0.22,2.77-0.4,4.14c-0.14,1.04-1.09,1.78-2.13,1.64C632.15,35.15,631.57,34.66,631.33,34.01z"
					/>
			</g>
			<g>
				<path class="st3" d="M628.83,44.96c-0.14-0.39-0.16-0.83-0.02-1.25c0.41-1.23,0.78-2.49,1.1-3.74c0.26-1.02,1.3-1.63,2.32-1.37
					c1.02,0.26,1.63,1.3,1.37,2.32c-0.34,1.34-0.74,2.68-1.17,3.99c-0.33,1-1.41,1.54-2.41,1.21
					C629.45,45.93,629.03,45.49,628.83,44.96z"/>
			</g>
			<g>
				<path class="st3" d="M624.31,55.25c-0.18-0.5-0.15-1.08,0.13-1.58c0.63-1.13,1.23-2.3,1.79-3.47c0.45-0.95,1.58-1.36,2.53-0.91
					c0.95,0.45,1.36,1.58,0.91,2.53c-0.59,1.25-1.23,2.49-1.91,3.7c-0.51,0.92-1.67,1.25-2.59,0.73
					C624.75,56.03,624.46,55.66,624.31,55.25z"/>
			</g>
			<g>
				<path class="st0" d="M617.91,64.49c-0.23-0.62-0.12-1.34,0.33-1.88c0.83-0.99,1.65-2.02,2.41-3.07
					c0.62-0.85,1.81-1.03,2.66-0.41c0.85,0.62,1.03,1.81,0.41,2.66c-0.82,1.11-1.68,2.22-2.57,3.27c-0.68,0.8-1.88,0.91-2.68,0.23
					C618.21,65.07,618.02,64.79,617.91,64.49z"/>
			</g>
			<g>
				<path class="st3" d="M609.89,72.35c-0.27-0.74-0.06-1.61,0.59-2.13c1.01-0.81,2-1.67,2.95-2.55c0.77-0.72,1.98-0.67,2.69,0.1
					c0.72,0.77,0.67,1.97-0.1,2.69c-1.01,0.94-2.07,1.86-3.14,2.72c-0.82,0.66-2.02,0.53-2.68-0.28
					C610.06,72.73,609.96,72.54,609.89,72.35z"/>
			</g>
			<g>
				<path class="st0" d="M567.91,85.29c-0.09-0.25-0.13-0.52-0.11-0.81c0.09-1.05,1-1.83,2.05-1.74c6.1,0.5,12.21,0.02,18.15-1.42
					c5.95-1.44,11.59-3.82,16.79-7.05c0.89-0.56,2.07-0.28,2.62,0.61c0.56,0.89,0.28,2.07-0.61,2.62
					c-5.54,3.45-11.56,5.99-17.9,7.52c-6.34,1.54-12.86,2.05-19.36,1.52C568.78,86.47,568.15,85.97,567.91,85.29z"/>
			</g>
			<g>
				<path class="st3" d="M556.85,83.31c-0.13-0.36-0.16-0.76-0.04-1.16c0.28-1.01,1.33-1.6,2.35-1.32c1.25,0.35,2.52,0.66,3.79,0.92
					c1.03,0.21,1.69,1.22,1.48,2.25c-0.21,1.03-1.22,1.69-2.25,1.48c-1.35-0.28-2.71-0.61-4.04-0.98
					C557.51,84.32,557.05,83.87,556.85,83.31z"/>
			</g>
			<g>
				<path class="st3" d="M528.59,65.69c-0.26-0.71-0.08-1.54,0.52-2.07c0.79-0.7,1.99-0.63,2.69,0.16
					c5.68,6.38,12.86,11.49,20.74,14.77c0.97,0.4,1.43,1.52,1.03,2.49c-0.4,0.97-1.52,1.43-2.49,1.03
					c-8.41-3.5-16.06-8.95-22.13-15.76C528.8,66.12,528.67,65.91,528.59,65.69z"/>
			</g>
			<g>
				<path class="st3" d="M521.95,56.63c-0.31-0.84,0.02-1.81,0.82-2.28c0.9-0.54,2.07-0.24,2.61,0.66c0.66,1.11,1.37,2.22,2.11,3.28
					c0.6,0.86,0.38,2.05-0.48,2.65c-0.86,0.6-2.05,0.38-2.65-0.48c-0.79-1.14-1.54-2.31-2.25-3.5
					C522.05,56.85,521.99,56.74,521.95,56.63z"/>
			</g>
			<g>
				<path class="st3" d="M517.2,46.61c-1.34-3.68-2.33-7.49-2.94-11.37c-0.16-1.04,0.55-2.01,1.58-2.18s2.01,0.55,2.18,1.58
					c0.77,4.88,2.17,9.64,4.16,14.15c0.42,0.96-0.01,2.09-0.97,2.51c-0.96,0.42-2.09-0.01-2.51-0.97
					C518.16,49.11,517.66,47.86,517.2,46.61z"/>
			</g>
			<g>
				<path class="st3" d="M513.67,28.41c-0.07-0.18-0.11-0.38-0.11-0.59c-0.31-9.11,1.47-18.33,5.14-26.67
					c0.42-0.96,1.55-1.4,2.51-0.97c0.96,0.42,1.4,1.55,0.97,2.51c-3.44,7.82-5.11,16.47-4.82,25.01c0.04,1.05-0.79,1.93-1.84,1.97
					C514.68,29.69,513.94,29.16,513.67,28.41z"/>
			</g>
			<g>
				<path class="st0" d="M521.96-3.84c-0.19-0.52-0.15-1.11,0.15-1.63c0.71-1.19,1.46-2.36,2.25-3.5c0.6-0.86,1.78-1.08,2.65-0.48
					c0.86,0.6,1.08,1.78,0.48,2.65c-0.74,1.07-1.45,2.17-2.11,3.28c-0.54,0.9-1.71,1.2-2.61,0.66
					C522.38-3.09,522.1-3.45,521.96-3.84z"/>
			</g>
			<g>
				<path class="st3" d="M528.59-12.91c-0.23-0.64-0.12-1.38,0.37-1.92c3.5-3.93,7.5-7.4,11.89-10.3c0.88-0.58,2.06-0.34,2.64,0.54
					c0.58,0.88,0.34,2.06-0.54,2.64c-4.12,2.72-7.87,5.97-11.15,9.66c-0.7,0.79-1.9,0.85-2.69,0.16
					C528.87-12.35,528.7-12.62,528.59-12.91z"/>
			</g>
			<g>
				<path class="st3" d="M546.36-26.5c-0.33-0.9,0.07-1.92,0.94-2.35c4.71-2.35,9.71-4.08,14.87-5.15c1.03-0.21,2.04,0.45,2.25,1.48
					c0.21,1.03-0.45,2.04-1.48,2.25c-4.83,1-9.52,2.62-13.94,4.82c-0.94,0.47-2.08,0.09-2.55-0.85
					C546.41-26.37,546.39-26.43,546.36-26.5z"/>
			</g>
			<g>
				<path class="st3" d="M567.91-32.51c-0.06-0.16-0.09-0.32-0.11-0.5c-0.09-1.05,0.69-1.97,1.74-2.05c1.38-0.11,2.78-0.18,4.16-0.2
					c1.05-0.01,1.91,0.83,1.93,1.88c0.01,1.05-0.83,1.91-1.88,1.93c-1.29,0.02-2.61,0.08-3.9,0.19
					C568.98-31.19,568.19-31.72,567.91-32.51z"/>
			</g>
			<g>
				<path class="st3" d="M579.14-32.36c-0.1-0.27-0.14-0.56-0.1-0.86c0.11-1.05,1.05-1.8,2.1-1.69c1.37,0.15,2.76,0.35,4.12,0.59
					c1.03,0.18,1.72,1.17,1.54,2.21c-0.19,1.03-1.17,1.72-2.21,1.54c-1.28-0.23-2.57-0.41-3.86-0.56
					C579.98-31.2,579.38-31.7,579.14-32.36z"/>
			</g>
			<g>
				<path class="st0" d="M590.14-30.08c-0.14-0.38-0.16-0.8-0.03-1.21c0.31-1,1.38-1.57,2.38-1.26c5.03,1.55,9.84,3.75,14.31,6.54
					c0.89,0.56,1.16,1.73,0.61,2.62c-0.56,0.89-1.73,1.16-2.62,0.61c-4.19-2.61-8.7-4.67-13.42-6.13
					C590.78-29.1,590.34-29.54,590.14-30.08z"/>
			</g>
			<g>
				<path class="st3" d="M609.89-19.56c-0.22-0.61-0.13-1.31,0.31-1.85c0.66-0.82,1.86-0.94,2.68-0.28
					c1.07,0.87,2.13,1.79,3.14,2.72c0.77,0.72,0.82,1.92,0.1,2.69c-0.72,0.77-1.92,0.82-2.69,0.1c-0.95-0.88-1.94-1.74-2.95-2.55
					C610.2-18.96,610-19.25,609.89-19.56z"/>
			</g>
			<g>
				<path class="st3" d="M617.91-11.7c-0.27-0.73-0.07-1.58,0.56-2.11c0.8-0.68,2-0.58,2.68,0.23c3.39,4.02,6.25,8.48,8.51,13.24
					c0.45,0.95,0.04,2.09-0.91,2.53c-0.95,0.45-2.09,0.04-2.53-0.91c-2.11-4.46-4.79-8.64-7.97-12.41
					C618.1-11.3,617.99-11.5,617.91-11.7z"/>
			</g>
			<g>
				<path class="st0" d="M631.72,22.78c-0.06-0.17-0.1-0.35-0.11-0.54c-0.3-4.93-1.24-9.8-2.79-14.48c-0.33-1,0.21-2.07,1.21-2.41
					c1-0.33,2.08,0.22,2.41,1.21c1.65,5,2.66,10.19,2.98,15.45c0.06,1.05-0.73,1.95-1.78,2.02C632.76,24.08,632,23.56,631.72,22.78z
					"/>
			</g>
		</g>
	</g>
	<g id="Logo_3_" transform="translate(293.275699 293.275699) scale(1.874000 1.874000)">
		<g>
			<path class="st0" d="M-98.87-101.46c-1.44,0-2.6,1.16-2.6,2.61c0,1.44,1.16,2.6,2.6,2.6s2.6-1.16,2.6-2.6
				C-96.27-100.31-97.42-101.46-98.87-101.46z M-98.87-97.12c-0.95,0-1.73-0.77-1.73-1.73c0-0.97,0.77-1.74,1.73-1.74
				c0.96,0,1.73,0.77,1.73,1.74C-97.14-97.89-97.91-97.12-98.87-97.12z"/>
		</g>
		<g>
			<path class="st0" d="M-95.31-101.27c-0.35,0-0.65,0.3-0.65,0.64c0,0.36,0.29,0.64,0.65,0.64c0.35-0.01,0.64-0.29,0.64-0.64
				C-94.67-100.97-94.96-101.27-95.31-101.27z"/>
		</g>
		<g>
			<path class="st0" d="M-98.86-108.09C-98.86-108.09-98.87-108.09-98.86-108.09c-5.11,0-9.23,4.13-9.23,9.23
				c0,5.1,4.13,9.23,9.23,9.23c5.1,0,9.23-4.13,9.23-9.23C-89.64-103.95-93.77-108.08-98.86-108.09z M-92.91-96.31
				c0,1.03-0.55,1.57-1.59,1.57h-8.75c-1.05,0-1.59-0.54-1.59-1.57v-5.06c0-1.03,0.54-1.57,1.59-1.57h1.26
				c0.38,0,0.5-0.07,0.73-0.31l0.38-0.41c0.25-0.27,0.51-0.4,1-0.4h1.98c0.49,0,0.75,0.13,1,0.4l0.38,0.41
				c0.23,0.24,0.35,0.31,0.73,0.31h1.28c1.05,0,1.59,0.54,1.59,1.57L-92.91-96.31L-92.91-96.31z"/>
		</g>
	</g>
</g>
</svg>
