<?xml version="1.0" encoding="utf-8"?>
<!-- Generator: Adobe Illustrator 23.0.6, SVG Export Plug-In . SVG Version: 6.00 Build 0)  -->
<svg version="1.1" id="Layer_1" xmlns="http://www.w3.org/2000/svg" xmlns:xlink="http://www.w3.org/1999/xlink" x="0px" y="0px"
	 viewBox="0 0 300 300" style="enable-background:new 0 0 300 300;" xml:space="preserve">
<style type="text/css">
	.st0{fill:#EE2155;}
	.st1{fill:#F7F7F7;}
</style>
<path class="st0" d="M287.8,245c0-2.4,0.3-5.4,0.8-9c1.1-7,1.1-8,1.1-9.1c0-8.1-4.3-12.4-6.9-14.2c-3.2-2.2-7-3.3-11.5-3.3
	c-0.7,0-1.6,0-3,0.1c-1.9,0.1-3.7,0.7-5.3,1.5c-2.6-0.9-5.7-1.3-9.3-1.3c-2.3,0-4.5,0.6-6.5,1.7c-2.5-1.2-5.2-1.7-8.1-1.8
	c-11.7-0.7-13-23.1-13-30.2c0-4.6,0.7-14.8,3.9-37c3.7-25.4,4.2-31.6,4.2-34.4c0-3.6-0.1-6-0.3-7.7c-0.3-2.7-1.1-5.5-2.5-8.3
	c-1.9-3.9-4.8-7-8.5-9c-3.5-1.9-7.6-3.2-12.8-4c-10.3-17.1-27.1-29.8-46.9-34.7c0.8-2.3,1.4-4.7,1.8-7.3l2.5-18.7l-18.6,3.5
	c-9.5,1.8-19.4,2.7-29.6,2.7c-10.4,0-20.1-0.6-28.8-1.7l-11.7-1.5l-3.2,11.3c-0.6,2.1-1,5-1.5,9.8L74.4,43v0.6
	c0,4.9,0.6,12,5.5,17.1c1,1.1,2.2,2,3.4,2.7c-0.3,3.2-0.6,6.5-1.1,10c-5.6,4.4-8.7,11.1-8.8,19.2c-2.8,8-4.4,16.6-4.4,25.6
	c0,22,15.1,37.6,24.4,55.8c2,3.9,4.1,13.6,2.1,17.5c-4.4,8.4-33.3,17.8-33.3,17.8c0,0-0.1,0-0.1,0c-0.6-4.4-2.8-8.5-6.3-11.5
	c-3.7-3.2-8.3-4.9-13.4-4.9c-4.2,0-10.6,1.2-16.9,7c-2.7,2.4-4.9,5.5-6.8,9.5c-0.5,1.1-1,2.3-1.5,3.5c-0.3,0.2-0.6,0.3-0.9,0.5
	c-5.2,3-8.2,8.5-8.2,15c0,0.8,0,1.7,0.2,2.9c0.3,3.2,1.7,6.1,4,8.2c-0.3,3.2-0.5,6-0.5,8.3c0,5,1.3,9.5,3.9,13.4
	c2.8,4.2,7,7.3,12.3,9c1.3,0.4,2.6,0.6,4,0.6c3.1,0,6.1-1.1,8.5-3.2c1.2-1,2.2-2.3,2.9-3.7c2,0.7,4.1,1.1,6.4,1.1
	c2.8,0,5.4-0.6,7.9-1.9c1.6,0.9,3.4,1.7,5.3,2.3c1.3,0.4,2.6,0.6,4,0.6c2.1,0,4.2-0.5,6-1.5c2,1.2,4.4,2.2,7,2.9
	c1.1,0.3,2.2,0.4,3.3,0.4c3.7,0,7.3-1.6,9.7-4.4c2.3,1,4.8,1.5,7.5,1.5c2.8,0,5.4-0.6,7.9-1.9c1.6,0.9,3.4,1.7,5.3,2.3
	c1.3,0.4,2.6,0.6,4,0.6c2.4,0,4.7-0.7,6.7-1.9c2,0.6,4.2,0.9,6.6,0.9c0.5,0,1.2,0,2.9-0.1c3.4-0.2,6.7-1.8,8.9-4.4
	c0.2-0.2,0.4-0.5,0.6-0.8c4.4,3.9,9.7,5.9,15.5,5.9c9.1,0,17.1-4.5,22.5-12.8c1.4-2.1,4.1-3.8,4.4-2c-2.5,5.5-3.5,9.3-3.5,12.7
	c0,4.7,1.8,9.2,5.2,12.7c2.9,3,7,4.9,12.5,5.9c0.8,0.1,1.6,0.2,2.4,0.2c3.4,0,6.7-1.3,9.1-3.7c3-3,4.4-7.2,3.7-11.4
	c-0.1-0.7-0.2-1.4-0.2-2.2c0-1.7,0.2-3.4,0.6-5.2c4.4,3.8,9.7,5.8,15.4,5.8c3.9,0,7.6-0.8,11-2.3c1.6-0.7,3.2-1.6,4.6-2.6
	c3.2,2.7,7.3,4.1,11.8,4.1c2.8,0,5.4-0.6,7.9-1.9c1.6,0.9,3.4,1.7,5.3,2.3c1.3,0.4,2.6,0.6,4,0.6c3.3,0,6.6-1.3,9-3.6
	c3.4-3.3,4.8-8.2,3.5-12.8C288.1,248.7,287.8,247.2,287.8,245z"/>
<g>
	<g>
		<path class="st1" d="M40.4,222.1c0.1,0.7,0.1,1.2,0.1,1.5c0,1.6-0.3,2.8-0.9,3.4c-0.6,0.6-1.6,0.9-3,0.9c-1.5,0-2.6,0-3.3,0
			c-1.3,9.7-2,16.6-2,20.8c0,2,0,3.5,0.1,4.4c0.1,0.9,0.3,2.4,0.7,4.6c-2.5-0.8-4.3-2.1-5.4-3.8c-1.2-1.8-1.7-3.8-1.7-6.2
			c0-3.6,0.5-8.9,1.5-15.8c0.2-1.8,0.4-2.9,0.5-3.5c-1.8,0.3-3.6,0.9-5.5,1.7c-0.1-0.7-0.1-1.3-0.1-1.7c0-1.8,0.6-3.1,1.7-3.7
			c1.1-0.6,2.7-1,4.9-1c0.7-3.3,1.6-6.2,2.7-8.6c1.1-2.4,2.4-4.2,3.8-5.5c2.6-2.4,5.3-3.6,8.1-3.6c1.9,0,3.5,0.6,4.8,1.7
			c1.3,1.1,2,2.5,2,4.2c0,1.7-0.6,3.1-1.7,4.3c-1.1,1.2-2.6,1.8-4.4,1.8c-0.7,0-1.4-0.1-2.1-0.4c0.5-0.4,1.1-1.1,1.6-2.1
			c0.5-1,0.8-2,0.8-2.9s-0.2-1.6-0.6-2.1c-0.4-0.5-0.9-0.8-1.6-0.8c-1.4,0-2.8,1.2-4.3,3.5c-1.4,2.3-2.5,5.9-3.2,10.6
			C36.8,223.7,39,223.2,40.4,222.1z"/>
	</g>
	<g>
		<path class="st1" d="M60.4,222.4c1-0.1,1.7-0.1,2.1-0.1c1.8,0,3.1,0.3,4,1c0.9,0.6,1.4,1.8,1.4,3.6c0,0.5-0.3,2.9-1,7.2
			s-1,7.9-1,10.9c0,3,0.3,5.7,1,8c-2.6-0.8-4.3-2-5.3-3.5s-1.5-3.4-1.5-5.6c0-0.8,0.2-2.8,0.6-5.8c-1.1,3.9-2.7,7.2-4.8,9.8
			c-2.2,2.6-4.2,4-6.1,4c-3.9,0-5.9-2.8-5.9-8.5c0-1.9,0.3-4.5,0.8-7.8c0.6-3.4,0.8-5.9,0.8-7.6c0-1.7-0.2-3.5-0.7-5.3
			c2.8,0,4.9,0.4,6.2,1.1c1.3,0.7,1.9,2.2,1.9,4.4c0,1.2-0.4,3.5-1.1,6.9c-0.7,3.4-1.1,6-1.1,7.8c0,2.5,0.7,3.8,2,3.8
			c0.7,0,1.5-0.5,2.3-1.4c0.9-0.9,1.7-2.2,2.6-3.7s1.5-3.5,2.1-5.8c0.6-2.3,0.8-4.7,0.8-7.1C60.7,226.1,60.6,224.1,60.4,222.4z"/>
	</g>
	<g>
		<path class="st1" d="M85.4,227.9c-0.2,1.2-0.5,3.4-1.1,6.4c-1.2,6.4-1.7,11.2-1.7,14.3s0.2,5.2,0.7,6.2c-2.6-0.7-4.4-1.7-5.4-3.1
			c-1-1.4-1.5-3.4-1.5-6c0-2.3,0.4-5.4,1.1-9.4c0.7-4,1.2-6.7,1.4-8c-1.8,0.3-3.7,0.9-5.7,1.8c-0.1-0.7-0.1-1.3-0.1-1.7
			c0-1.8,0.5-3,1.6-3.7c1.1-0.7,2.7-1,4.7-1c0.2-2.6,0.4-4.4,0.4-5.5c0-1.1,0-2.1,0-2.8c0-0.7,0-1.3,0-1.7c2.2,0.2,3.9,0.9,4.9,2
			s1.5,2.7,1.5,4.7c0,0.8-0.1,2-0.3,3.4c2.9-0.1,5-0.6,6.3-1.7c0.1,0.7,0.1,1.2,0.1,1.5c0,1.6-0.3,2.8-0.9,3.4
			c-0.6,0.6-1.6,0.9-2.9,0.9C87.2,227.9,86.2,227.9,85.4,227.9z"/>
	</g>
	<g>
		<path class="st1" d="M111.1,222.4c1-0.1,1.7-0.1,2.1-0.1c1.8,0,3.1,0.3,4,1c0.9,0.6,1.4,1.8,1.4,3.6c0,0.5-0.3,2.9-1,7.2
			s-1,7.9-1,10.9c0,3,0.3,5.7,1,8c-2.6-0.8-4.3-2-5.3-3.5s-1.5-3.4-1.5-5.6c0-0.8,0.2-2.8,0.6-5.8c-1.1,3.9-2.7,7.2-4.8,9.8
			c-2.2,2.6-4.2,4-6.1,4c-3.9,0-5.9-2.8-5.9-8.5c0-1.9,0.3-4.5,0.8-7.8c0.6-3.4,0.8-5.9,0.8-7.6c0-1.7-0.2-3.5-0.7-5.3
			c2.8,0,4.9,0.4,6.2,1.1c1.3,0.7,1.9,2.2,1.9,4.4c0,1.2-0.4,3.5-1.1,6.9c-0.7,3.4-1.1,6-1.1,7.8c0,2.5,0.7,3.8,2,3.8
			c0.7,0,1.5-0.5,2.3-1.4c0.9-0.9,1.7-2.2,2.6-3.7s1.5-3.5,2.1-5.8c0.6-2.3,0.8-4.7,0.8-7.1C111.5,226.1,111.4,224.1,111.1,222.4z"
			/>
	</g>
	<g>
		<path class="st1" d="M133.1,235.3c1.2-4.4,2.7-7.7,4.4-9.8c1.7-2.1,3.3-3.1,4.8-3.1c1.5,0,2.6,0.6,3.3,1.7
			c0.7,1.1,1.1,2.5,1.1,4.3c0,1.8-0.5,3.4-1.6,4.8c-1,1.5-2.5,2.2-4.3,2.2c-0.5,0-1-0.1-1.7-0.4c1.1-1.3,1.6-2.9,1.6-4.8
			c0-1.1-0.4-1.6-1.3-1.6c-0.6,0-1.3,0.5-2.1,1.4c-0.7,0.9-1.5,2.1-2.1,3.7c-0.7,1.6-1.3,3.6-1.7,6.1c-0.5,2.5-0.7,5.1-0.7,7.9
			c0,0.3,0.1,1.8,0.3,4.3c-1.1,0.1-1.8,0.1-2.1,0.1c-1.9,0-3.3-0.3-4.2-1c-0.8-0.7-1.3-1.8-1.3-3.4c0-0.7,0.4-3.3,1.1-7.9
			c0.7-4.6,1.1-8.2,1.1-10.9c0-2.7-0.3-5.2-0.9-7.5c2.5,0.8,4.2,1.9,5.2,3.3c1,1.4,1.5,3.1,1.5,5.1S133.4,233.5,133.1,235.3z"/>
	</g>
	<g>
		<path class="st1" d="M160.6,239.3c-1.6,0-3.2-0.2-4.8-0.6c0,0.3,0,0.9,0,1.6c0,2.8,0.5,5,1.6,6.4c1.1,1.4,2.3,2.1,3.8,2.1
			c1.5,0,2.9-0.4,4.2-1.3s2.5-2.1,3.5-3.7c1.2,0.3,1.8,0.9,1.8,1.9c-3,4.6-6.9,6.9-11.6,6.9c-2.9,0-5.4-1.1-7.5-3.3
			c-2.1-2.2-3.2-5.3-3.2-9.2c0-2.9,0.6-5.7,1.7-8.4s2.9-4.9,5.4-6.7c2.5-1.8,5.2-2.7,8.2-2.7c3,0,5.2,0.7,6.6,2
			c1.4,1.4,2.1,3.2,2.1,5.4c0,3.2-1.1,5.6-3.3,7.2C166.5,238.5,163.8,239.3,160.6,239.3z M162.7,225.6c-1.7,0-3.2,1.1-4.4,3.2
			c-1.2,2.1-2,4.8-2.3,7.8h0.8c3,0,5.2-0.8,6.6-2.3c1.4-1.5,2.1-3.4,2.1-5.5c0-0.9-0.2-1.6-0.7-2.3
			C164.3,225.9,163.6,225.6,162.7,225.6z"/>
	</g>
	<g>
		<path class="st1" d="M217.1,225.9c0,1.2-0.5,2.8-1.5,4.8c-1,2-2.3,4.3-3.7,6.7c-1.5,2.5-2.9,5.1-4.4,7.8c-1.5,2.8-2.7,5.9-3.7,9.4
			c-1,3.5-1.5,6.9-1.5,10.2c0,1.5,0.1,3,0.4,4.4c-2.8-0.5-4.6-1.3-5.6-2.3c-1-1-1.5-2.2-1.5-3.6c0-1.9,1.4-5.6,4.1-11.1
			c-0.5-2.1-1.1-5.4-1.9-9.9c-0.7-4.5-1.5-8.4-2.3-11.8c-0.8-3.3-1.6-5.8-2.6-7.5c1.9-0.9,3.4-1.3,4.5-1.3c1.1,0,2,0.3,2.6,0.8
			c0.6,0.5,1.1,1.5,1.5,3s0.7,2.8,0.8,3.8c0.5,3.3,0.7,5.1,0.7,5.5c0,0.4,0.1,1.9,0.4,4.6s0.5,4.4,0.6,5.3
			c6.1-11.8,9.1-19.6,9.1-23.6C215.7,222.7,217.1,224.3,217.1,225.9z"/>
	</g>
	<g>
		<path class="st1" d="M231.7,221.7c0.4,0,0.7,0.1,1,0.3c0.3,0.2,0.5,0.5,0.5,0.7c-3.4,2.4-5.5,5.7-6.2,10c0.7-1.9,1.6-3.6,2.6-5
			c1-1.4,2.1-2.5,3.2-3.2c2.1-1.3,4.2-2,6.3-2c2,0,3.8,1,5.2,3c1.4,2,2.1,4.7,2.1,8.1c0,3.8-0.8,7.3-2.3,10.4
			c-1.7,3.6-4.1,6-7.3,7.4c-1.8,0.8-3.7,1.2-5.8,1.2c-3,0-5.5-1.2-7.7-3.5c-2.2-2.3-3.3-5.6-3.3-9.9c0-4.3,1.1-8.1,3.2-11.4
			C225.4,224.6,228.2,222.6,231.7,221.7z M236,226.3c-2.2,0-4.2,1.5-5.9,4.5c-1.7,3-2.6,6-2.6,8.9c0,6.2,1.6,9.3,4.8,9.3
			c2.3,0,4.1-1.5,5.6-4.5c1.4-3,2.1-6.3,2.1-10C240,229,238.7,226.3,236,226.3z"/>
	</g>
	<g>
		<path class="st1" d="M269.2,222.4c1-0.1,1.7-0.1,2.1-0.1c1.8,0,3.1,0.3,4,1c0.9,0.6,1.4,1.8,1.4,3.6c0,0.5-0.3,2.9-1,7.2
			s-1,7.9-1,10.9c0,3,0.3,5.7,1,8c-2.6-0.8-4.3-2-5.3-3.5s-1.5-3.4-1.5-5.6c0-0.8,0.2-2.8,0.6-5.8c-1.1,3.9-2.7,7.2-4.8,9.8
			c-2.2,2.6-4.2,4-6.1,4c-3.9,0-5.9-2.8-5.9-8.5c0-1.9,0.3-4.5,0.8-7.8c0.6-3.4,0.8-5.9,0.8-7.6c0-1.7-0.2-3.5-0.7-5.3
			c2.8,0,4.9,0.4,6.2,1.1c1.3,0.7,1.9,2.2,1.9,4.4c0,1.2-0.4,3.5-1.1,6.9c-0.7,3.4-1.1,6-1.1,7.8c0,2.5,0.7,3.8,2,3.8
			c0.7,0,1.5-0.5,2.3-1.4c0.9-0.9,1.7-2.2,2.6-3.7c0.8-1.5,1.5-3.5,2.1-5.8c0.6-2.3,0.8-4.7,0.8-7.1
			C269.5,226.1,269.4,224.1,269.2,222.4z"/>
	</g>
</g>
<path class="st1" d="M89,36.3c-0.3,1.2-0.7,3.6-1,7.3c0,3.9,0.6,6.5,1.7,7.6c1.1,1.2,3.8,1.7,7.9,1.7c-0.3,8.2-1.3,17.9-2.8,29.2
	c-5.2,1.4-7.8,4.9-7.8,10.6c0,0.9,0.1,2.3,0.2,4.1c1.2-0.6,3.2-1.3,5.8-2.1c-2.3,15.8-3.4,25.7-3.4,29.9c0,4.1,1,7,3.1,8.7
	c2.1,1.6,5.4,2.5,10.1,2.5c0.8,0,2.5-0.1,5.2-0.2c-0.5-2.9-0.7-7.9-0.7-15c0-7.1,0.7-16.5,2-28c1.8-0.1,4.4-0.1,7.8-0.1l11.8,0.1
	c5.6,0,8.4-3.7,8.4-11.2c0-0.8-0.1-2.1-0.2-3.7c-3.3,2.7-8.8,4.1-16.6,4.1c-1.7,0-5-0.1-9.7-0.2c2.3-18.1,3.5-27.6,3.6-28.7
	c9.4-0.3,16.7-1,21.8-2c9.4-1.7,14.6-6.9,15.8-15.5c-10.3,2-21.1,3-32.1,3C108.5,38.2,98.3,37.6,89,36.3z"/>
<path class="st1" d="M220.7,108c0-3-0.1-5.1-0.2-6.3c-0.1-1.2-0.5-2.4-1.2-3.8c-0.7-1.4-1.6-2.4-2.8-3c-2.9-1.6-7.4-2.6-13.7-3
	c0.3,4.3,0.5,9.1,0.5,14.4c0,5.3-0.7,13.7-2,25.1v0.2c-2.5,21.7-7.7,36.3-15.8,44c-3.9,3.7-8,5.5-12.2,5.5c-3.5,0-6.3-1.4-8.3-4.3
	c-2-2.9-3-7.7-3-14.6c0-6.9,0.8-15.9,2.5-27.1c1.6-11.2,2.5-19.4,2.5-24.5c0-5.1-1.3-9.1-3.9-11.9s-7.3-5.1-14.1-6.8
	c0.9,2.5,1.4,6,1.4,10.5c0,4.6-0.9,14.4-2.8,29.6c-1.8,15.2-2.8,25.7-2.8,31.5c0,10.3,1.7,17.8,5.2,22.5c3.4,4.7,8.6,7.1,15.5,7.1
	c13,0,23.2-7.4,30.7-22.2c-0.1,0.9-0.1,2.2-0.1,3.8c0,5.3,1.3,9.5,3.8,12.5c2.5,3,7.3,5.4,14.3,7.2c-1.2-2.7-1.7-7.8-1.7-15.2
	s1.4-20.4,4.1-39C219.4,121.8,220.7,111,220.7,108z"/>
</svg>
