<?xml version="1.0" encoding="utf-8"?>
<!-- Generator: Adobe Illustrator 16.0.4, SVG Export Plug-In . SVG Version: 6.00 Build 0)  -->
<!DOCTYPE svg PUBLIC "-//W3C//DTD SVG 1.1//EN" "http://www.w3.org/Graphics/SVG/1.1/DTD/svg11.dtd">
<svg version="1.1" id="Layer_1" xmlns="http://www.w3.org/2000/svg" xmlns:xlink="http://www.w3.org/1999/xlink" x="0px" y="0px"
	 width="512px" height="64px" viewBox="0 0 512 64" enable-background="new 0 0 512 64" xml:space="preserve">
<g id="Layer_1_1_">
	<rect x="12" y="10" fill="#484848" width="45" height="45"/>
	<rect x="67.363" y="10" fill="#484848" width="45" height="45"/>
	<rect x="399.541" y="10" fill="#484848" width="45" height="45"/>
	<rect x="454.902" y="10" fill="#484848" width="45" height="45"/>
	<rect x="344.178" y="10" fill="#484848" width="45" height="45"/>
	<rect x="288.814" y="10" fill="#484848" width="45" height="45"/>
	<rect x="233.452" y="10" fill="#3377FF" width="45" height="45"/>
	<rect x="178.088" y="10" fill="#484848" width="45" height="45"/>
	<rect x="122.726" y="10" fill="#484848" width="45" height="45"/>
</g>
<g id="Layer_2">
	<path fill="#FFFFFF" d="M22.574,17.023h12.695c1.894,0,3.477,0.236,4.75,0.71c1.272,0.474,2.293,1.095,3.063,1.865
		c0.769,0.771,1.324,1.65,1.665,2.642c0.34,0.992,0.51,1.991,0.51,2.996c0,0.859-0.148,1.672-0.444,2.441
		c-0.296,0.771-0.717,1.45-1.265,2.042c-0.548,0.593-1.198,1.088-1.953,1.487c-0.755,0.399-1.591,0.659-2.508,0.777l0.089,0.088
		c0.207-0.029,0.695,0.06,1.465,0.267c0.769,0.207,1.576,0.6,2.419,1.176c0.844,0.577,1.598,1.377,2.264,2.396
		s0.999,2.33,0.999,3.929c0,1.45-0.267,2.724-0.799,3.817c-0.533,1.096-1.28,2.021-2.242,2.773
		c-0.962,0.756-2.124,1.325-3.484,1.709c-1.362,0.385-2.871,0.577-4.528,0.577H22.574V17.023z M35.269,31.405
		c2.693,0,4.706-0.598,6.037-1.798c1.332-1.197,1.998-2.774,1.998-4.727c0-1.154-0.222-2.123-0.666-2.908
		c-0.444-0.784-1.036-1.42-1.776-1.909c-0.74-0.488-1.591-0.835-2.552-1.042c-0.962-0.207-1.976-0.311-3.041-0.311H24.527v12.695
		H35.269z M35.269,47.031c2.842,0,5.067-0.6,6.681-1.797c1.612-1.198,2.419-2.998,2.419-5.395c0-1.359-0.281-2.479-0.843-3.352
		s-1.28-1.562-2.153-2.063c-0.874-0.503-1.85-0.851-2.93-1.044c-1.081-0.191-2.139-0.288-3.174-0.288H24.527v13.938H35.269z"/>
	<path fill="#FFFFFF" d="M79.758,17.023h1.953V47.03h17.978v1.687H79.758V17.023z"/>
	<path fill="#FFFFFF" d="M134.834,17.065v19c0,0.621,0.029,1.346,0.088,2.176c0.06,0.828,0.207,1.679,0.444,2.552
		c0.237,0.873,0.569,1.729,0.999,2.574c0.429,0.844,1.013,1.599,1.753,2.266c0.739,0.665,1.649,1.197,2.73,1.597
		c1.08,0.399,2.39,0.6,3.929,0.6c1.953,0,3.587-0.273,4.905-0.821c1.317-0.548,2.382-1.333,3.196-2.353
		c0.813-1.021,1.398-2.256,1.753-3.707s0.533-3.078,0.533-4.883v-19h1.953v19c0,1.894-0.199,3.654-0.599,5.281
		s-1.073,3.049-2.02,4.262c-0.947,1.213-2.212,2.168-3.795,2.863s-3.559,1.043-5.926,1.043c-1.864,0-3.463-0.236-4.794-0.709
		c-1.332-0.475-2.435-1.088-3.307-1.843c-0.873-0.755-1.561-1.621-2.064-2.598c-0.503-0.976-0.888-1.959-1.154-2.952
		c-0.266-0.991-0.429-1.953-0.488-2.885c-0.059-0.932-0.088-1.754-0.088-2.463v-19H134.834z"/>
	<path fill="#FFFFFF" d="M189.511,17.023h21.307v1.687h-19.354v12.695h18.2v1.688h-18.2v13.938h19.576v1.687h-21.529L189.511,17.023
		L189.511,17.023z"/>
	<path fill="#FFFFFF" d="M245.607,17.023h19.889v1.687H247.56v12.695h16.161v1.688H247.56v15.625h-1.953V17.023z"/>
	<path fill="#FFFFFF" d="M298.977,17.023h13.228c1.391,0,2.691,0.141,3.906,0.422c1.213,0.281,2.278,0.74,3.195,1.375
		c0.917,0.637,1.635,1.473,2.153,2.509c0.518,1.036,0.776,2.323,0.776,3.862c0,2.13-0.6,3.929-1.797,5.393
		c-1.199,1.465-2.864,2.375-4.994,2.73v0.088c1.448,0.178,2.596,0.562,3.438,1.154s1.474,1.316,1.887,2.174
		c0.415,0.858,0.682,1.805,0.801,2.842c0.117,1.035,0.178,2.07,0.178,3.107c0,0.62,0,1.228,0,1.819s0.028,1.147,0.088,1.665
		c0.061,0.518,0.156,0.999,0.289,1.443c0.133,0.442,0.317,0.814,0.555,1.108h-2.176c-0.414-0.739-0.643-1.604-0.688-2.597
		c-0.044-0.991-0.065-2.021-0.065-3.085c0-1.065-0.044-2.124-0.134-3.175c-0.089-1.049-0.37-1.988-0.844-2.818
		c-0.474-0.829-1.221-1.494-2.241-1.998c-1.021-0.503-2.464-0.755-4.328-0.755H300.93v14.427h-1.951V17.023H298.977z
		 M312.203,32.604c1.154,0,2.227-0.14,3.218-0.42c0.992-0.282,1.843-0.717,2.554-1.31c0.71-0.592,1.271-1.347,1.687-2.265
		c0.415-0.916,0.622-2.012,0.622-3.284c0-1.184-0.223-2.198-0.666-3.042c-0.442-0.844-1.035-1.532-1.775-2.063
		c-0.74-0.533-1.598-0.917-2.575-1.154c-0.976-0.237-1.997-0.355-3.062-0.355H300.93v13.894H312.203z"/>
	<path fill="#FFFFFF" d="M365.148,17.023h2.131l12.518,31.694h-2.086l-3.995-10.166h-15.182l-4.039,10.166h-2.086L365.148,17.023z
		 M373.095,36.866l-6.792-17.933h-0.089l-7.059,17.933H373.095z"/>
	<path fill="#FFFFFF" d="M406.222,17.023h2.796l12.385,29.52h0.088l12.252-29.52h2.796v31.694h-1.952V19.42h-0.088l-12.075,29.297
		h-1.952L408.263,19.42h-0.089v29.297h-1.952V17.023L406.222,17.023z"/>
	<path fill="#FFFFFF" d="M465.891,17.023h21.308v1.687h-19.354v12.695h18.199v1.688h-18.199v13.938h19.575v1.687h-21.528V17.023z"/>
</g>
</svg>
