<?xml version="1.0" encoding="utf-8"?>
<!-- Generator: Adobe Illustrator 16.0.4, SVG Export Plug-In . SVG Version: 6.00 Build 0)  -->
<!DOCTYPE svg PUBLIC "-//W3C//DTD SVG 1.1//EN" "http://www.w3.org/Graphics/SVG/1.1/DTD/svg11.dtd">
<svg version="1.1" xmlns="http://www.w3.org/2000/svg" xmlns:xlink="http://www.w3.org/1999/xlink" x="0px" y="0px" width="400px"
	 height="600px" viewBox="0 0 400 600" enable-background="new 0 0 400 600" xml:space="preserve">
<g id="Layer_2">
	<rect fill="#333333" stroke="#FFFFFF" stroke-width="0.1867" stroke-miterlimit="10" width="400" height="600"/>
</g>
<g id="Layer_1">
	<circle fill="#FFFFFF" stroke="#333333" stroke-miterlimit="10" cx="200" cy="201.182" r="45.455"/>
	<circle fill="#333333" stroke="#FFFFFF" stroke-width="0.1867" stroke-miterlimit="10" cx="200" cy="201.182" r="17.283"/>
	<g>
		<path fill="#FFFFFF" stroke="#333333" stroke-miterlimit="10" d="M84.951,311.59H73.332l-3.023,6.592h-4.412l13.43-28.846
			l12.955,28.846h-4.482L84.951,311.59z M83.281,307.74l-4.025-9.229l-4.219,9.229H83.281z"/>
		<path fill="#FFFFFF" stroke="#333333" stroke-miterlimit="10" d="M95.674,318.182v-28.987l19.793,20.708v-18.862h4.096v28.793
			L99.77,299.179v19.002H95.674z"/>
		<path fill="#FFFFFF" stroke="#333333" stroke-miterlimit="10" d="M141.412,295.083l-3.322,1.969
			c-0.621-1.078-1.213-1.781-1.775-2.109c-0.586-0.375-1.342-0.562-2.268-0.562c-1.137,0-2.08,0.322-2.83,0.967
			c-0.75,0.633-1.125,1.43-1.125,2.391c0,1.324,0.984,2.391,2.953,3.199l2.707,1.108c2.203,0.891,3.814,1.977,4.834,3.26
			s1.529,2.857,1.529,4.721c0,2.496-0.832,4.559-2.496,6.188c-1.676,1.641-3.756,2.461-6.24,2.461c-2.355,0-4.301-0.697-5.836-2.092
			c-1.512-1.395-2.455-3.357-2.83-5.889l4.148-0.914c0.188,1.594,0.516,2.695,0.984,3.305c0.844,1.172,2.074,1.758,3.691,1.758
			c1.277,0,2.338-0.428,3.182-1.283s1.266-1.939,1.266-3.252c0-0.527-0.073-1.012-0.22-1.451s-0.375-0.844-0.686-1.213
			s-0.712-0.715-1.204-1.037s-1.078-0.629-1.758-0.922l-2.619-1.09c-3.715-1.57-5.572-3.868-5.572-6.891
			c0-2.039,0.779-3.744,2.338-5.115c1.559-1.383,3.498-2.074,5.818-2.074C137.211,290.513,139.654,292.037,141.412,295.083z"/>
		<path fill="#FFFFFF" stroke="#333333" stroke-miterlimit="10" d="M167.111,292.5v4.852c-2.367-1.98-4.816-2.971-7.348-2.971
			c-2.789,0-5.139,1.002-7.049,3.006c-1.922,1.992-2.883,4.43-2.883,7.313c0,2.848,0.961,5.25,2.883,7.207s4.277,2.936,7.066,2.936
			c1.441,0,2.666-0.234,3.674-0.703c0.562-0.234,1.146-0.551,1.749-0.949s1.239-0.879,1.907-1.441v4.939
			c-2.344,1.324-4.805,1.986-7.383,1.986c-3.879,0-7.189-1.354-9.932-4.061c-2.73-2.73-4.096-6.023-4.096-9.879
			c0-3.457,1.143-6.54,3.428-9.247c2.812-3.316,6.451-4.975,10.916-4.975C162.482,290.513,164.838,291.175,167.111,292.5z"/>
		<path fill="#FFFFFF" stroke="#333333" stroke-miterlimit="10" d="M177.131,301.658h11.707v-10.618h4.096v27.141h-4.096v-12.674
			h-11.707v12.674h-4.096v-27.141h4.096V301.658z"/>
		<path fill="#FFFFFF" stroke="#333333" stroke-miterlimit="10" d="M215.381,311.59h-11.619l-3.023,6.592h-4.412l13.43-28.846
			l12.955,28.846h-4.482L215.381,311.59z M213.711,307.74l-4.025-9.229l-4.219,9.229H213.711z"/>
		<path fill="#FFFFFF" stroke="#333333" stroke-miterlimit="10" d="M229.162,291.041v16.348c0,2.332,0.381,4.037,1.143,5.115
			c1.137,1.559,2.736,2.338,4.799,2.338c2.074,0,3.68-0.779,4.816-2.338c0.762-1.043,1.143-2.748,1.143-5.115v-16.348h4.096v17.473
			c0,2.859-0.891,5.215-2.672,7.066c-2.004,2.062-4.465,3.094-7.383,3.094s-5.373-1.031-7.365-3.094
			c-1.781-1.852-2.672-4.207-2.672-7.066v-17.473H229.162z"/>
		<path fill="#FFFFFF" stroke="#333333" stroke-miterlimit="10" d="M255.758,291.041v16.348c0,2.332,0.381,4.037,1.143,5.115
			c1.137,1.559,2.736,2.338,4.799,2.338c2.074,0,3.68-0.779,4.816-2.338c0.762-1.043,1.143-2.748,1.143-5.115v-16.348h4.096v17.473
			c0,2.859-0.891,5.215-2.672,7.066c-2.004,2.062-4.465,3.094-7.383,3.094s-5.373-1.031-7.365-3.094
			c-1.781-1.852-2.672-4.207-2.672-7.066v-17.473H255.758z"/>
		<path fill="#FFFFFF" stroke="#333333" stroke-miterlimit="10" d="M278.258,318.182v-28.987l19.793,20.708v-18.862h4.096v28.793
			l-19.793-20.655v19.002H278.258z"/>
		<path fill="#FFFFFF" stroke="#333333" stroke-miterlimit="10" d="M322.889,304.049h11.215v0.896c0,2.039-0.24,3.844-0.721,5.414
			c-0.469,1.453-1.26,2.812-2.373,4.078c-2.52,2.836-5.725,4.254-9.615,4.254c-3.797,0-7.049-1.371-9.756-4.113
			c-2.707-2.754-4.061-6.059-4.061-9.914c0-3.938,1.377-7.278,4.131-10.02c2.754-2.754,6.105-4.131,10.055-4.131
			c2.121,0,4.102,0.434,5.941,1.301c1.758,0.867,3.486,2.273,5.186,4.219l-2.918,2.795c-2.227-2.965-4.939-4.447-8.139-4.447
			c-2.871,0-5.279,0.99-7.225,2.971c-1.945,1.945-2.918,4.383-2.918,7.313c0,3.023,1.084,5.514,3.252,7.471
			c2.027,1.816,4.225,2.725,6.592,2.725c2.016,0,3.826-0.68,5.432-2.039c1.605-1.371,2.502-3.012,2.689-4.922h-6.768V304.049z"/>
	</g>
</g>
</svg>
