<?xml version="1.0" encoding="utf-8"?>
<!-- Generator: Adobe Illustrator 16.0.4, SVG Export Plug-In . SVG Version: 6.00 Build 0)  -->
<!DOCTYPE svg PUBLIC "-//W3C//DTD SVG 1.1//EN" "http://www.w3.org/Graphics/SVG/1.1/DTD/svg11.dtd">
<svg version="1.1" id="Layer_1" xmlns="http://www.w3.org/2000/svg" xmlns:xlink="http://www.w3.org/1999/xlink" x="0px" y="0px"
	 width="200px" height="75px" viewBox="0 0 200 75" enable-background="new 0 0 200 75" xml:space="preserve">
<path fill="#FFFFFF" d="M183.891,42.104c-1.15-1.765-2.455-3.146-3.914-4.143c-1.457-0.998-2.853-1.675-4.182-2.034
	c-1.331-0.357-2.175-0.511-2.531-0.46l-0.154-0.154c1.586-0.203,3.031-0.652,4.336-1.342s2.43-1.547,3.375-2.571
	c0.947-1.022,1.676-2.199,2.188-3.529c0.511-1.329,0.769-2.736,0.769-4.22c0-1.739-0.297-3.464-0.883-5.179
	c-0.588-1.713-1.549-3.234-2.879-4.565c-1.33-1.33-3.096-2.404-5.293-3.223c-2.201-0.818-4.938-1.228-8.209-1.228h-48.009
	l-14.04,51.179h-0.154l-14.731-49.9h-4.22l-14.501,49.9h-0.154L56.431,9.456h-0.153h-3.299h-0.077v32.84
	c0,3.121-0.307,5.935-0.92,8.44c-0.614,2.507-1.625,4.642-3.031,6.406c-1.407,1.767-3.249,3.121-5.524,4.066
	c-2.277,0.947-5.103,1.422-8.479,1.422c-2.66,0-4.923-0.348-6.791-1.037c-1.868-0.691-3.44-1.611-4.719-2.764
	c-1.279-1.15-2.29-2.455-3.03-3.912c-0.743-1.459-1.305-2.941-1.688-4.451c-0.383-1.507-0.64-2.979-0.768-4.412
	c-0.128-1.431-0.191-2.685-0.191-3.76V9.456h-3.376v32.84c0,1.228,0.051,2.647,0.154,4.259c0.102,1.611,0.384,3.274,0.844,4.987
	c0.46,1.715,1.125,3.416,1.995,5.104c0.87,1.688,2.058,3.184,3.568,4.487c1.508,1.306,3.414,2.367,5.716,3.185
	c2.302,0.817,5.064,1.229,8.287,1.229c4.092,0,7.506-0.602,10.244-1.803c2.736-1.203,4.922-2.852,6.56-4.949
	c1.637-2.098,2.801-4.553,3.491-7.367c0.691-2.812,1.036-5.855,1.036-9.13V20.892L68.784,64.24h3.761l14.807-50.59h0.154
	l15.04,50.59h3.837l14.893-51.869h18.562V64.24h3.377V12.371h23.3c1.842,0,3.594,0.18,5.256,0.537
	c1.662,0.358,3.133,0.959,4.412,1.803c1.276,0.844,2.301,1.945,3.068,3.3c0.768,1.355,1.15,3.031,1.15,5.025
	c0,3.376-1.164,6.1-3.49,8.171c-2.329,2.072-5.794,3.108-10.396,3.108v2.916c1.789,0,3.617,0.167,5.485,0.499
	c1.866,0.333,3.556,0.934,5.063,1.803c1.508,0.871,2.75,2.06,3.722,3.568c0.972,1.508,1.458,3.439,1.458,5.793
	c0,4.092-1.407,7.188-4.221,9.282c-2.813,2.101-6.65,3.146-11.508,3.146h-5.781h-3.377v2.916h9.158c2.862,0,5.471-0.332,7.824-0.998
	c2.354-0.664,4.359-1.648,6.021-2.953c1.664-1.306,2.955-2.902,3.877-4.795c0.92-1.894,1.381-4.093,1.381-6.601
	C185.617,46.132,185.041,43.869,183.891,42.104z"/>
</svg>
