<?xml version="1.0" encoding="utf-8"?>
<!-- Generator: Adobe Illustrator 16.0.4, SVG Export Plug-In . SVG Version: 6.00 Build 0)  -->
<!DOCTYPE svg PUBLIC "-//W3C//DTD SVG 1.1//EN" "http://www.w3.org/Graphics/SVG/1.1/DTD/svg11.dtd">
<svg version="1.1" id="Layer_1" xmlns="http://www.w3.org/2000/svg" xmlns:xlink="http://www.w3.org/1999/xlink" x="0px" y="0px"
	 width="200px" height="75px" viewBox="0 0 200 75" enable-background="new 0 0 200 75" xml:space="preserve">
<path fill="#333333" d="M184.505,39.805c-1.681-2.207-4.104-3.646-7.271-4.319v-0.145c2.447-0.96,4.33-2.436,5.651-4.428
	c1.319-1.991,1.979-4.356,1.979-7.092c0-2.593-0.588-4.776-1.764-6.553c-1.178-1.774-2.604-3.168-4.285-4.176
	c-0.769-0.479-1.691-0.839-2.771-1.08c-1.08-0.239-2.244-0.419-3.49-0.54c-1.25-0.119-2.51-0.191-3.781-0.216
	c-1.271-0.023-2.461-0.036-3.563-0.036h-53.294L101.477,53.99h-0.146L89.955,11.221h-7.416L71.019,53.99h-0.144l-10.08-42.769H56.62
	h-2.809H49.78v32.832c0,4.609-1.141,8.103-3.42,10.478c-2.28,2.377-5.605,3.563-9.972,3.563c-4.608,0-8.136-1.188-10.584-3.563
	c-2.448-2.375-3.672-5.867-3.672-10.478V11.221h-6.84v32.832c0,6.865,1.859,11.869,5.58,15.012
	c3.719,3.146,8.892,4.718,15.516,4.718c6.48,0,11.472-1.644,14.976-4.933c3.503-3.287,5.256-8.219,5.256-14.797V22.181
	l10.367,40.448h7.128l11.88-43.2h0.144l11.735,43.2h7.129l12.211-45.648h16.685v45.648h6.84V16.981h26.344
	c1.486,0,2.893,0.085,4.212,0.252c1.32,0.169,2.483,0.54,3.492,1.116c1.008,0.576,1.8,1.393,2.376,2.448
	c0.576,1.057,0.863,2.496,0.863,4.32c0,2.735-0.853,4.788-2.555,6.155c-1.705,1.368-4.5,2.053-8.39,2.053h-3.521v5.76h5.465
	c1.438,0,2.832,0.133,4.176,0.396c1.344,0.266,2.531,0.721,3.564,1.369c1.03,0.647,1.858,1.522,2.482,2.627s0.938,2.498,0.938,4.178
	c0,2.879-0.854,5.137-2.558,6.768c-1.704,1.633-4.067,2.447-7.092,2.447h-14.976v5.76h15.84c2.543,0,4.787-0.42,6.731-1.26
	c1.943-0.84,3.575-1.943,4.896-3.312c1.32-1.367,2.315-2.938,2.988-4.715c0.672-1.775,1.008-3.6,1.008-5.473
	C187.025,44.701,186.186,42.014,184.505,39.805z"/>
</svg>
