<?xml version="1.0" encoding="utf-8"?>
<!-- Generator: Adobe Illustrator 16.0.4, SVG Export Plug-In . SVG Version: 6.00 Build 0)  -->
<!DOCTYPE svg PUBLIC "-//W3C//DTD SVG 1.1//EN" "http://www.w3.org/Graphics/SVG/1.1/DTD/svg11.dtd">
<svg version="1.1" xmlns="http://www.w3.org/2000/svg" xmlns:xlink="http://www.w3.org/1999/xlink" x="0px" y="0px" width="512px"
	 height="115px" viewBox="0 0 512 115" enable-background="new 0 0 512 115" xml:space="preserve">
<g id="Layer_5">
	<g>
		<rect x="7.583" y="18.563" fill="#7DC9EA" width="24.331" height="78.714"/>
		<polygon fill="#6ACEA7" points="32.243,30.802 31.915,30.802 31.915,87.384 32.243,87.384 62.632,87.384 62.632,30.802 		"/>
		<polygon fill="#6ACEA7" points="136.56,29.63 135.866,29.63 135.866,86.211 136.56,86.211 173.696,86.211 173.696,29.63 		"/>
		<polygon fill="#FF8885" points="63.166,7.732 62.632,7.732 62.632,108.11 63.166,108.11 85.206,108.11 85.206,7.732 		"/>
		<polygon fill="#7DC9EA" points="86.206,18.563 85.206,18.563 85.206,97.277 86.206,97.277 136.569,97.277 136.569,18.563 		"/>
		<polygon fill="#7DC9EA" points="220.408,18.563 220.08,18.563 220.08,97.277 220.408,97.277 252.101,97.277 252.101,18.563 		"/>
		<polygon fill="#6ACEA7" points="252.521,30.802 252.101,30.802 252.101,87.384 252.521,87.384 298.736,87.384 298.736,30.802 		
			"/>
		<polygon fill="#7DC9EA" points="431.271,18.563 430.613,18.563 430.613,97.277 431.271,97.277 469.431,97.277 469.431,18.563 		
			"/>
		<polygon fill="#FF8885" points="173.705,7.732 173.038,7.732 173.038,108.11 173.705,108.11 222.053,108.11 222.053,7.732 		"/>
		<polygon fill="#6ACEA7" points="353.324,30.802 352.979,30.802 352.979,87.384 353.324,87.384 400.748,87.384 400.748,30.802 		
			"/>
		<polygon fill="#7DC9EA" points="320.785,18.563 320.083,18.563 320.083,97.277 320.785,97.277 355.193,97.277 355.193,18.563 		
			"/>
		<polygon fill="#FF8885" points="297.676,7.732 296.082,7.732 296.082,108.11 297.676,108.11 320.625,108.11 320.625,7.732 		"/>
		<rect x="467.059" y="30.802" fill="#6ACEA7" width="39.806" height="56.582"/>
		<polygon fill="#FF8885" points="398.712,7.732 398.376,7.732 398.376,108.11 398.712,108.11 431.404,108.11 431.404,7.732 		"/>
	</g>
</g>
<g id="Layer_4">
	<g>
		<path fill="#FFFFFF" d="M22.285,40.412v35.712h-5.389V40.412H22.285z"/>
		<path fill="#FFFFFF" d="M45.73,40.412v30.647h10.501v5.065h-15.89V40.412H45.73z"/>
		<path fill="#FFFFFF" d="M70.631,73.533c0-0.863,0.316-1.611,0.948-2.243s1.388-0.948,2.267-0.948c0.879,0,1.634,0.316,2.267,0.948
			s0.948,1.388,0.948,2.267c0,0.895-0.316,1.657-0.948,2.29c-0.617,0.617-1.373,0.925-2.267,0.925c-0.91,0-1.673-0.308-2.29-0.925
			S70.631,74.459,70.631,73.533z"/>
		<path fill="#FFFFFF" d="M94.909,76.124V37.983l26.044,27.247V40.412h5.389v37.886l-26.044-27.177v25.003H94.909z"/>
		<path fill="#FFFFFF" d="M164.081,45.477h-14.317v8.581h13.901v5.065h-13.901v11.935h14.317v5.065h-19.707V40.412h19.707V45.477z"
			/>
		<path fill="#FFFFFF" d="M198.999,57.528h14.757v1.179c0,2.683-0.316,5.058-0.948,7.124c-0.617,1.912-1.658,3.701-3.123,5.366
			c-3.315,3.731-7.533,5.598-12.652,5.598c-4.996,0-9.275-1.804-12.837-5.412c-3.562-3.624-5.343-7.973-5.343-13.046
			c0-5.181,1.812-9.576,5.436-13.184c3.624-3.624,8.034-5.436,13.23-5.436c2.791,0,5.397,0.57,7.818,1.711
			c2.313,1.141,4.587,2.991,6.823,5.551l-3.839,3.678c-2.93-3.901-6.5-5.852-10.709-5.852c-3.778,0-6.947,1.303-9.506,3.909
			c-2.56,2.56-3.839,5.768-3.839,9.622c0,3.979,1.426,7.256,4.279,9.83c2.668,2.391,5.559,3.586,8.674,3.586
			c2.652,0,5.035-0.895,7.147-2.684c2.113-1.804,3.292-3.963,3.539-6.476h-8.905V57.528z"/>
		<path fill="#FFFFFF" d="M239.768,45.477v30.647h-5.389V45.477h-8.211v-5.065h21.789v5.065H239.768z"/>
		<path fill="#FFFFFF" d="M281.276,67.45h-15.289l-3.979,8.674h-5.806l17.672-37.956l17.046,37.956h-5.897L281.276,67.45z
			 M279.079,62.385l-5.297-12.143l-5.552,12.143H279.079z"/>
		<path fill="#FFFFFF" d="M310.248,40.412v35.712h-5.39V40.412H310.248z"/>
		<path fill="#FFFFFF" d="M348.012,45.477h-14.317v8.581h13.9v5.065h-13.9v11.935h14.317v5.065h-19.707V40.412h19.707V45.477z"/>
		<path fill="#FFFFFF" d="M366.366,40.412l9.877,24.749l10.015-24.749h5.898l-16.029,38.396l-15.659-38.396H366.366z"/>
		<path fill="#FFFFFF" d="M423.906,45.477h-12.444v8.581h12.005v5.065h-12.005v17h-5.389V40.412h17.833V45.477z"/>
		<path fill="#FFFFFF" d="M451.721,60.905l11.057,15.219h-6.592l-10.201-14.618h-0.971v14.618h-5.39V40.412h6.314
			c4.719,0,8.126,0.886,10.224,2.66c2.312,1.974,3.47,4.58,3.47,7.818c0,2.529-0.725,4.703-2.175,6.523
			C456.008,59.231,454.096,60.396,451.721,60.905z M445.014,56.811h1.711c5.104,0,7.656-1.951,7.656-5.852
			c0-3.654-2.482-5.481-7.447-5.481h-1.92V56.811z"/>
		<path fill="#FFFFFF" d="M497.323,45.477h-14.317v8.581h13.901v5.065h-13.901v11.935h14.317v5.065h-19.707V40.412h19.707V45.477z"
			/>
	</g>
</g>
</svg>
