<?xml version="1.0" encoding="utf-8"?>
<!-- Generator: Adobe Illustrator 22.1.0, SVG Export Plug-In . SVG Version: 6.00 Build 0)  -->
<svg version="1.1" id="Layer_1" xmlns="http://www.w3.org/2000/svg" xmlns:xlink="http://www.w3.org/1999/xlink" x="0px" y="0px"
	 viewBox="0 0 600 600" style="enable-background:new 0 0 600 600;" xml:space="preserve">
<style type="text/css">
	.st0{fill:none;}
	.st1{fill:#FFE3F8;}
	.st2{fill:#FFA6D3;}
	.st3{fill:#6CD9FF;}
	.st4{fill:#4C494C;}
</style>
<g>
	<g>
		<polygon class="st0" points="208.8,209.3 224.7,301.2 391.2,252.7 375.1,160.8 		"/>
		<g>
			<polygon class="st1" points="224.7,301.2 224.7,301.2 208.8,209.3 			"/>
			<polygon class="st1" points="375.1,160.8 208.8,209.3 375.1,160.8 			"/>
			<polygon class="st1" points="375.1,160.8 208.8,209.3 224.7,301.2 391.2,252.7 			"/>
		</g>
	</g>
	<g>
		<path class="st2" d="M533.7,90.5c-9.1-9.1-21.2-14.1-34-14.1c-12.9,0-24.9,5-34,14.1c-18.8,18.8-18.8,49.3,0,68
			c9.4,9.4,21.7,14.1,34,14.1c12.3,0,24.6-4.7,34-14.1C552.5,139.8,552.5,109.3,533.7,90.5z"/>
		<g>
			<path class="st3" d="M458.6,165.6c-7.2-7.2-12.1-15.7-14.7-24.8L384.7,158l0.2,1.1l16.2,91.9l1.6,8.8l-175.1,51l-1.1,0.3
				l12.8,73.8L415,415.4l68.5-235.1C474.3,177.7,465.8,172.8,458.6,165.6z"/>
		</g>
		<path class="st3" d="M148.4,337.5c0-12.9-5-24.9-14.1-34c-9.4-9.4-21.7-14.1-34-14.1s-24.6,4.7-34,14.1
			c-9.1,9.1-14.1,21.2-14.1,34c0,12.9,5,24.9,14.1,34c18.8,18.8,49.3,18.8,68,0C143.4,362.4,148.4,350.3,148.4,337.5z"/>
		<g>
			<path class="st2" d="M372.3,151.2l1.1-0.3l-12.9-73.5L185,46.5l-68.5,235.1c9.1,2.6,17.7,7.5,24.8,14.7c7,7,12,15.5,14.7,24.8
				l58.9-17.2l-0.2-1.1l-15.9-92l-1.5-8.8l8.6-2.5L372.3,151.2z"/>
		</g>
	</g>
</g>
<g>
	<path class="st4" d="M181.1,494.1l-6.9,3.7c-1.1-2.2-2.4-3.3-4-3.3c-0.8,0-1.4,0.3-2,0.8c-0.5,0.5-0.8,1.2-0.8,1.9
		c0,1.4,1.6,2.8,4.8,4.1c4.4,1.9,7.4,3.7,8.9,5.3c1.5,1.6,2.3,3.8,2.3,6.5c0,3.5-1.3,6.4-3.9,8.8c-2.5,2.2-5.5,3.3-9.1,3.3
		c-6.1,0-10.4-3-12.9-8.9l7.1-3.3c1,1.7,1.7,2.8,2.3,3.3c1,0.9,2.2,1.4,3.6,1.4c2.8,0,4.2-1.3,4.2-3.9c0-1.5-1.1-2.9-3.3-4.2
		c-0.8-0.4-1.7-0.8-2.5-1.2c-0.8-0.4-1.7-0.8-2.6-1.2c-2.4-1.2-4.1-2.4-5.1-3.6c-1.3-1.5-1.9-3.5-1.9-5.8c0-3.1,1.1-5.7,3.2-7.8
		c2.2-2.1,4.9-3.1,8-3.1C175.4,487,178.9,489.4,181.1,494.1z"/>
	<path class="st4" d="M195.5,488l9.5,20.6l10.2-23.9l10.3,23.9l9.4-20.6h9.4l-18.9,38.9l-10.1-23.3L205,526.8L186.1,488H195.5z"/>
	<path class="st4" d="M275.2,488h8.4v36.1h-8.4v-3.8c-3.4,3.2-7.1,4.8-11.1,4.8c-5,0-9.1-1.8-12.4-5.4c-3.2-3.7-4.9-8.3-4.9-13.8
		c0-5.4,1.6-9.9,4.9-13.5c3.2-3.6,7.3-5.4,12.2-5.4c4.2,0,8,1.7,11.3,5.2V488z M255.4,505.9c0,3.5,0.9,6.3,2.8,8.5
		c1.9,2.2,4.3,3.3,7.2,3.3c3.1,0,5.6-1.1,7.5-3.2c1.9-2.2,2.9-5,2.9-8.4c0-3.4-1-6.2-2.9-8.4c-1.9-2.2-4.4-3.2-7.4-3.2
		c-2.9,0-5.3,1.1-7.2,3.3C256.3,500,255.4,502.7,255.4,505.9z"/>
	<path class="st4" d="M302.5,543.8h-8.3V488h8.3v3.9c3.3-3.3,7-4.9,11.2-4.9c5,0,9.1,1.8,12.3,5.5c3.3,3.6,4.9,8.2,4.9,13.8
		c0,5.4-1.6,9.9-4.9,13.5c-3.2,3.6-7.3,5.4-12.2,5.4c-4.2,0-8-1.7-11.4-5.1V543.8z M322.3,506.3c0-3.5-0.9-6.3-2.8-8.5
		c-1.9-2.2-4.3-3.3-7.2-3.3c-3.1,0-5.6,1.1-7.5,3.2c-1.9,2.1-2.9,4.9-2.9,8.4c0,3.4,1,6.2,2.9,8.4c1.9,2.2,4.4,3.2,7.4,3.2
		c2.9,0,5.3-1.1,7.2-3.3C321.4,512.3,322.3,509.5,322.3,506.3z"/>
	<path class="st4" d="M338.4,473c0-1.5,0.5-2.7,1.6-3.8c1.1-1.1,2.3-1.6,3.8-1.6c1.5,0,2.8,0.5,3.9,1.6c1.1,1,1.6,2.3,1.6,3.8
		c0,1.5-0.5,2.8-1.6,3.9c-1,1.1-2.3,1.6-3.8,1.6c-1.5,0-2.8-0.5-3.9-1.6C339,475.8,338.4,474.5,338.4,473z M348,488v36.1h-8.3V488
		H348z"/>
	<path class="st4" d="M357.4,473c0-1.5,0.5-2.7,1.6-3.8c1.1-1.1,2.3-1.6,3.8-1.6c1.5,0,2.8,0.5,3.9,1.6c1.1,1,1.6,2.3,1.6,3.8
		c0,1.5-0.5,2.8-1.6,3.9c-1,1.1-2.3,1.6-3.8,1.6c-1.5,0-2.8-0.5-3.9-1.6C357.9,475.8,357.4,474.5,357.4,473z M367,488v36.1h-8.3V488
		H367z"/>
	<path class="st4" d="M410.5,508h-25.9c0.2,3,1.2,5.3,2.9,7.1c1.7,1.7,3.9,2.6,6.6,2.6c2.1,0,3.8-0.5,5.2-1.5c1.3-1,2.9-2.8,4.6-5.5
		l7.1,3.9c-1.1,1.9-2.2,3.4-3.5,4.8c-1.2,1.3-2.5,2.4-3.9,3.3c-1.4,0.9-2.9,1.5-4.5,1.9c-1.6,0.4-3.4,0.6-5.2,0.6
		c-5.4,0-9.7-1.7-13-5.2c-3.3-3.5-4.9-8.1-4.9-13.9c0-5.7,1.6-10.3,4.8-13.9c3.2-3.5,7.4-5.2,12.7-5.2c5.3,0,9.5,1.7,12.6,5.1
		c3.1,3.4,4.6,8,4.6,14L410.5,508z M401.9,501.2c-1.2-4.5-4-6.7-8.4-6.7c-1,0-2,0.2-2.9,0.5c-0.9,0.3-1.7,0.8-2.4,1.3
		c-0.7,0.6-1.4,1.3-1.9,2.1s-0.9,1.7-1.2,2.8H401.9z"/>
	<path class="st4" d="M440.6,494.1l-6.9,3.7c-1.1-2.2-2.4-3.3-4-3.3c-0.8,0-1.4,0.3-2,0.8c-0.5,0.5-0.8,1.2-0.8,1.9
		c0,1.4,1.6,2.8,4.8,4.1c4.4,1.9,7.4,3.7,8.9,5.3c1.5,1.6,2.3,3.8,2.3,6.5c0,3.5-1.3,6.4-3.9,8.8c-2.5,2.2-5.5,3.3-9.1,3.3
		c-6.1,0-10.4-3-12.9-8.9l7.1-3.3c1,1.7,1.7,2.8,2.3,3.3c1,0.9,2.2,1.4,3.6,1.4c2.8,0,4.2-1.3,4.2-3.9c0-1.5-1.1-2.9-3.3-4.2
		c-0.8-0.4-1.7-0.8-2.5-1.2c-0.8-0.4-1.7-0.8-2.6-1.2c-2.4-1.2-4.1-2.4-5.1-3.6c-1.3-1.5-1.9-3.5-1.9-5.8c0-3.1,1.1-5.7,3.2-7.8
		c2.2-2.1,4.9-3.1,8-3.1C434.9,487,438.3,489.4,440.6,494.1z"/>
</g>
</svg>
