<?xml version="1.0" encoding="utf-8"?>
<!-- Generator: Adobe Illustrator 22.1.0, SVG Export Plug-In . SVG Version: 6.00 Build 0)  -->
<svg version="1.1" xmlns="http://www.w3.org/2000/svg" xmlns:xlink="http://www.w3.org/1999/xlink" x="0px" y="0px"
	 viewBox="0 0 1100 650" style="enable-background:new 0 0 1100 650;" xml:space="preserve">
<style type="text/css">
	.st0{fill:#ffffff;}
	.st1{fill:#333333;}
	.st2{fill:#BCBCBC;}
	.st3{fill:#CC2031;}
	.st4{fill:#253572;}
</style>
<g id="bg">
	<g>
		<rect x="1" y="1" style="fill:#f7f7f7;" width="1098" height="648"/>
		<path class="st1" d="M1098,2v646H2V2H1098 M1100,0H0v650h1100V0L1100,0z"/>
	</g>
</g>
<g id="Layer_4">
	<polyline class="st2" points="550,180.3 625.3,583.6 707.6,583.6 685.3,66.4 414.7,66.4 392.4,583.6 474.7,583.6 550,180.3 	"/>
	<path class="st2" d="M406.6,575.6"/>
</g>
<g id="Layer_1">
	<g>
		<rect x="498" y="100.9" class="st0" width="104" height="54.8"/>
	</g>
	<rect x="498" y="100.9" class="st3" width="104" height="4.2"/>
	<rect x="498" y="109.3" class="st3" width="104" height="4.2"/>
	<rect x="498" y="117.7" class="st3" width="104" height="4.2"/>
	<rect x="498" y="126.1" class="st3" width="104" height="4.2"/>
	<rect x="498" y="134.6" class="st3" width="104" height="4.2"/>
	<rect x="498" y="151.4" class="st3" width="104" height="4.2"/>
	<rect x="498" y="100.9" class="st4" width="41.6" height="29.5"/>
	<polygon class="st0" points="508.4,102.1 508.1,103.3 506.8,103.3 507.8,104 507.4,105.2 508.4,104.4 509.4,105.2 509.1,104 
		510,103.3 508.8,103.3 	"/>
	<polygon class="st0" points="515.3,102.1 515,103.3 513.7,103.3 514.7,104 514.3,105.2 515.3,104.4 516.3,105.2 516,104 
		516.9,103.3 515.7,103.3 	"/>
	<polygon class="st0" points="522.2,102.1 521.9,103.3 520.6,103.3 521.6,104 521.2,105.2 522.2,104.4 523.2,105.2 522.9,104 
		523.8,103.3 522.6,103.3 	"/>
	<polygon class="st0" points="529.1,102.1 528.8,103.3 527.5,103.3 528.5,104 528.1,105.2 529.1,104.4 530.1,105.2 529.8,104 
		530.7,103.3 529.5,103.3 	"/>
	<polygon class="st0" points="535.4,104 535,105.2 536,104.4 537,105.2 536.7,104 537.6,103.3 536.4,103.3 536,102.1 535.7,103.3 
		534.4,103.3 	"/>
	<polygon class="st0" points="505,105.1 504.6,106.2 503.4,106.2 504.4,106.9 504,108.1 505,107.4 506,108.1 505.6,106.9 
		506.6,106.2 505.4,106.2 	"/>
	<polygon class="st0" points="511.9,105.1 511.5,106.2 510.3,106.2 511.3,106.9 510.9,108.1 511.9,107.4 512.9,108.1 512.5,106.9 
		513.5,106.2 512.3,106.2 	"/>
	<path class="st0" d="M518.8,105.1l-0.4,1.2h-1.2l1,0.7l-0.4,1.2l1-0.7l1,0.7l-0.4-1.2l1-0.7h-1.2L518.8,105.1z M518.8,106.7
		L518.8,106.7L518.8,106.7L518.8,106.7L518.8,106.7z"/>
	<polygon class="st0" points="525.7,105.1 525.3,106.2 524.1,106.2 525.1,106.9 524.7,108.1 525.7,107.4 526.7,108.1 526.3,106.9 
		527.3,106.2 526.1,106.2 	"/>
	<polygon class="st0" points="532.6,105.1 532.2,106.2 531,106.2 532,106.9 531.6,108.1 532.6,107.4 533.6,108.1 533.2,106.9 
		534.2,106.2 533,106.2 	"/>
	<polygon class="st0" points="501.5,108 501.2,109.2 499.9,109.2 500.9,109.9 500.6,111.1 501.5,110.4 502.5,111.1 502.2,109.9 
		503.1,109.2 501.9,109.2 	"/>
	<polygon class="st0" points="508.4,108 508.1,109.2 506.8,109.2 507.8,109.9 507.4,111.1 508.4,110.4 509.4,111.1 509.1,109.9 
		510,109.2 508.8,109.2 	"/>
	<polygon class="st0" points="515.3,108 515,109.2 513.7,109.2 514.7,109.9 514.3,111.1 515.3,110.4 516.3,111.1 516,109.9 
		516.9,109.2 515.7,109.2 	"/>
	<polygon class="st0" points="522.2,108 521.9,109.2 520.6,109.2 521.6,109.9 521.2,111.1 522.2,110.4 523.2,111.1 522.9,109.9 
		523.8,109.2 522.6,109.2 	"/>
	<polygon class="st0" points="529.1,108 528.8,109.2 527.5,109.2 528.5,109.9 528.1,111.1 529.1,110.4 530.1,111.1 529.8,109.9 
		530.7,109.2 529.5,109.2 	"/>
	<polygon class="st0" points="536,108 535.7,109.2 534.4,109.2 535.4,109.9 535,111.1 536,110.4 537,111.1 536.7,109.9 537.6,109.2 
		536.4,109.2 	"/>
	<polygon class="st0" points="505,111 504.6,112.1 503.4,112.1 504.4,112.9 504,114 505,113.3 506,114 505.6,112.9 506.6,112.1 
		505.4,112.1 	"/>
	<polygon class="st0" points="511.9,111 511.5,112.1 510.3,112.1 511.3,112.9 510.9,114 511.9,113.3 512.9,114 512.5,112.9 
		513.5,112.1 512.3,112.1 	"/>
	<path class="st0" d="M518.8,111l-0.4,1.2h-1.2l1,0.7l-0.4,1.2l1-0.7l1,0.7l-0.4-1.2l1-0.7h-1.2L518.8,111z M518.8,112.7
		L518.8,112.7L518.8,112.7L518.8,112.7z"/>
	<polygon class="st0" points="525.7,111 525.3,112.1 524.1,112.1 525.1,112.9 524.7,114 525.7,113.3 526.7,114 526.3,112.9 
		527.3,112.1 526.1,112.1 	"/>
	<polygon class="st0" points="532.6,111 532.2,112.1 531,112.1 532,112.9 531.6,114 532.6,113.3 533.6,114 533.2,112.9 534.2,112.1 
		533,112.1 	"/>
	<polygon class="st0" points="501.5,113.9 501.2,115.1 499.9,115.1 500.9,115.8 500.6,117 501.5,116.3 502.5,117 502.2,115.8 
		503.1,115.1 501.9,115.1 	"/>
	<polygon class="st0" points="508.4,113.9 508.1,115.1 506.8,115.1 507.8,115.8 507.4,117 508.4,116.3 509.4,117 509.1,115.8 
		510,115.1 508.8,115.1 	"/>
	<polygon class="st0" points="515.3,113.9 515,115.1 513.7,115.1 514.7,115.8 514.3,117 515.3,116.3 516.3,117 516,115.8 
		516.9,115.1 515.7,115.1 	"/>
	<polygon class="st0" points="522.2,113.9 521.9,115.1 520.6,115.1 521.6,115.8 521.2,117 522.2,116.3 523.2,117 522.9,115.8 
		523.8,115.1 522.6,115.1 	"/>
	<polygon class="st0" points="529.1,113.9 528.8,115.1 527.5,115.1 528.5,115.8 528.1,117 529.1,116.3 530.1,117 529.8,115.8 
		530.7,115.1 529.5,115.1 	"/>
	<polygon class="st0" points="536,113.9 535.7,115.1 534.4,115.1 535.4,115.8 535,117 536,116.3 537,117 536.7,115.8 537.6,115.1 
		536.4,115.1 	"/>
	<polygon class="st0" points="505,116.9 504.6,118.1 503.4,118.1 504.4,118.8 504,119.9 505,119.2 506,119.9 505.6,118.8 
		506.6,118.1 505.4,118.1 	"/>
	<polygon class="st0" points="511.9,116.9 511.5,118.1 510.3,118.1 511.3,118.8 510.9,119.9 511.9,119.2 512.9,119.9 512.5,118.8 
		513.5,118.1 512.3,118.1 	"/>
	<polygon class="st0" points="518.8,116.9 518.4,118.1 517.2,118.1 518.2,118.8 517.8,119.9 518.8,119.2 519.8,119.9 519.4,118.8 
		520.4,118.1 519.2,118.1 	"/>
	<polygon class="st0" points="525.7,116.9 525.3,118.1 524.1,118.1 525.1,118.8 524.7,119.9 525.7,119.2 526.7,119.9 526.3,118.8 
		527.3,118.1 526.1,118.1 	"/>
	<polygon class="st0" points="532.6,116.9 532.2,118.1 531,118.1 532,118.8 531.6,119.9 532.6,119.2 533.6,119.9 533.2,118.8 
		534.2,118.1 533,118.1 	"/>
	<path class="st0" d="M501.5,119.8l-0.4,1.2h-1.2l1,0.7l-0.4,1.2l1-0.7l1,0.7l-0.4-1.2l1-0.7h-1.2L501.5,119.8z M501.5,121.5
		L501.5,121.5L501.5,121.5L501.5,121.5L501.5,121.5z"/>
	<polygon class="st0" points="508.4,119.8 508.1,121 506.8,121 507.8,121.7 507.4,122.9 508.4,122.2 509.4,122.9 509.1,121.7 
		510,121 508.8,121 	"/>
	<polygon class="st0" points="515.3,119.8 515,121 513.7,121 514.7,121.7 514.3,122.9 515.3,122.2 516.3,122.9 516,121.7 516.9,121 
		515.7,121 	"/>
	<polygon class="st0" points="522.2,119.8 521.9,121 520.6,121 521.6,121.7 521.2,122.9 522.2,122.2 523.2,122.9 522.9,121.7 
		523.8,121 522.6,121 	"/>
	<polygon class="st0" points="529.1,119.8 528.8,121 527.5,121 528.5,121.7 528.1,122.9 529.1,122.2 530.1,122.9 529.8,121.7 
		530.7,121 529.5,121 	"/>
	<polygon class="st0" points="536,119.8 535.7,121 534.4,121 535.4,121.7 535,122.9 536,122.2 537,122.9 536.7,121.7 537.6,121 
		536.4,121 	"/>
	<polygon class="st0" points="505.4,124 505,122.8 504.6,124 503.4,124 504.4,124.7 504,125.9 505,125.1 506,125.9 505.6,124.7 
		506.6,124 	"/>
	<polygon class="st0" points="512.3,124 511.9,122.8 511.5,124 510.3,124 511.3,124.7 510.9,125.9 511.9,125.1 512.9,125.9 
		512.5,124.7 513.5,124 	"/>
	<polygon class="st0" points="519.2,124 518.8,122.8 518.4,124 517.2,124 518.2,124.7 517.8,125.9 518.8,125.1 519.8,125.9 
		519.4,124.7 520.4,124 	"/>
	<polygon class="st0" points="526.1,124 525.7,122.8 525.3,124 524.1,124 525.1,124.7 524.7,125.9 525.7,125.1 526.7,125.9 
		526.3,124.7 527.3,124 	"/>
	<polygon class="st0" points="533,124 532.6,122.8 532.2,124 531,124 532,124.7 531.6,125.9 532.6,125.1 533.6,125.9 533.2,124.7 
		534.2,124 	"/>
	<path class="st0" d="M501.9,126.9l-0.4-1.2l-0.4,1.2h-1.2l1,0.7l-0.4,1.2l1-0.7l1,0.7l-0.4-1.2l1-0.7H501.9z M501.5,127.4
		L501.5,127.4L501.5,127.4L501.5,127.4z"/>
	<polygon class="st0" points="508.8,126.9 508.4,125.8 508.1,126.9 506.8,126.9 507.8,127.6 507.4,128.8 508.4,128.1 509.4,128.8 
		509.1,127.6 510,126.9 	"/>
	<polygon class="st0" points="515.7,126.9 515.3,125.8 515,126.9 513.7,126.9 514.7,127.6 514.3,128.8 515.3,128.1 516.3,128.8 
		516,127.6 516.9,126.9 	"/>
	<polygon class="st0" points="522.6,126.9 522.2,125.8 521.9,126.9 520.6,126.9 521.6,127.6 521.2,128.8 522.2,128.1 523.2,128.8 
		522.9,127.6 523.8,126.9 	"/>
	<polygon class="st0" points="529.5,126.9 529.1,125.8 528.8,126.9 527.5,126.9 528.5,127.6 528.1,128.8 529.1,128.1 530.1,128.8 
		529.8,127.6 530.7,126.9 	"/>
	<polygon class="st0" points="536.4,126.9 536,125.8 535.7,126.9 534.4,126.9 535.4,127.6 535,128.8 536,128.1 537,128.8 
		536.7,127.6 537.6,126.9 	"/>
	<polygon class="st0" points="501.5,102.1 501.2,103.3 499.9,103.3 500.9,104 500.6,105.2 501.5,104.4 502.5,105.2 502.2,104 
		503.1,103.3 501.9,103.3 	"/>
	<rect x="498" y="143" class="st3" width="104" height="4.2"/>
</g>
<g id="Layer_3">
</g>
</svg>
