<?xml version="1.0" encoding="utf-8"?>
<!-- Generator: Adobe Illustrator 22.1.0, SVG Export Plug-In . SVG Version: 6.00 Build 0)  -->
<svg version="1.1" xmlns="http://www.w3.org/2000/svg" xmlns:xlink="http://www.w3.org/1999/xlink" x="0px" y="0px"
	 viewBox="0 0 1100 650" style="enable-background:new 0 0 1100 650;" xml:space="preserve">
<style type="text/css">
	.st0{fill:#ffffff;}
	.st1{fill:#333333;}
	.st2{fill:#515151;}
	.st3{fill:#CC2031;}
	.st4{fill:#253572;}
</style>
<g id="bg">
	<g>
		<rect x="1" y="1" style="fill:#f7f7f7;" width="1098" height="648"/>
		<path class="st1" d="M1098,2v646H2V2H1098 M1100,0H0v650h1100V0L1100,0z"/>
	</g>
</g>
<g id="Layer_4">
	<g>
		<path class="st2" d="M815.9,482.8c0,1.7,0,3.4,0,5.1c-0.1,0.2-0.3,0.3-0.4,0.5c-2.5,10.2-10.5,16.6-20.9,17.1
			c-8.3,0.4-16.1-1.6-23.6-4.6c-30.7-12-61.5-23.9-92.5-35.1c-30.2-10.9-60.3-22.3-91.5-30.4c-16.3-4.2-32.7-7.7-49.6-8
			c-59.4-1.2-118.8-2.6-178.1-6.5c-16.7-1.1-33.2-3.6-49.5-7.5c-6.5-1.6-12.9-3.7-18.4-7.8c-6.2-4.6-8.5-10.7-7-18.3
			c1.1-5.6,3.3-7.8,9-9c11.1-2.3,21.9-5.5,32.3-10.1c11.3-5.1,19.6-12.7,23.4-24.9c3.6-11.7,7.6-23.2,11.2-34.9
			c6.7-21.6,13.1-43.3,21.7-64.2c6.3-15.4,13.7-30.1,24.7-42.8c31.4-36.3,70.2-61,116.2-74.4c30.3-8.9,61.2-10.8,92.4-6
			c31.5,4.9,61.2,15.2,88.8,31.1c41.1,23.7,69.9,57.8,86.3,102.3c10.5,28.4,15,57.9,15.9,88c0.9,30.2-2.1,60.2-7,89.9
			c-1.2,7.4-2.3,14.9-3.5,22.4c-0.3,1.8,0.3,2.9,1.7,4.1C805.9,465.1,813.6,471.9,815.9,482.8z"/>
	</g>
</g>
<g id="Layer_1">
	<g>
		<rect x="447.7" y="203.1" class="st0" width="206.7" height="108.8"/>
	</g>
	<rect x="447.7" y="203.1" class="st3" width="206.7" height="8.4"/>
	<rect x="447.7" y="219.8" class="st3" width="206.7" height="8.4"/>
	<rect x="447.7" y="236.6" class="st3" width="206.7" height="8.4"/>
	<rect x="447.7" y="253.3" class="st3" width="206.7" height="8.4"/>
	<rect x="447.7" y="270.1" class="st3" width="206.7" height="8.4"/>
	<rect x="447.7" y="303.5" class="st3" width="206.7" height="8.4"/>
	<rect x="447.7" y="203.1" class="st4" width="82.7" height="58.6"/>
	<polygon class="st0" points="468.5,205.5 467.7,207.9 465.3,207.9 467.3,209.3 466.5,211.6 468.5,210.2 470.5,211.6 469.7,209.3 
		471.7,207.9 469.2,207.9 	"/>
	<polygon class="st0" points="482.2,205.5 481.4,207.9 479,207.9 481,209.3 480.2,211.6 482.2,210.2 484.2,211.6 483.4,209.3 
		485.4,207.9 483,207.9 	"/>
	<polygon class="st0" points="495.9,205.5 495.2,207.9 492.7,207.9 494.7,209.3 493.9,211.6 495.9,210.2 497.9,211.6 497.1,209.3 
		499.1,207.9 496.7,207.9 	"/>
	<polygon class="st0" points="509.6,205.5 508.9,207.9 506.4,207.9 508.4,209.3 507.6,211.6 509.6,210.2 511.6,211.6 510.8,209.3 
		512.8,207.9 510.4,207.9 	"/>
	<polygon class="st0" points="522.1,209.3 521.4,211.6 523.3,210.2 525.3,211.6 524.5,209.3 526.5,207.9 524.1,207.9 523.3,205.5 
		522.6,207.9 520.1,207.9 	"/>
	<polygon class="st0" points="461.6,211.4 460.9,213.7 458.4,213.7 460.4,215.2 459.7,217.5 461.6,216.1 463.6,217.5 462.9,215.2 
		464.8,213.7 462.4,213.7 	"/>
	<polygon class="st0" points="475.3,211.4 474.6,213.7 472.2,213.7 474.1,215.2 473.4,217.5 475.3,216.1 477.3,217.5 476.6,215.2 
		478.5,213.7 476.1,213.7 	"/>
	<path class="st0" d="M489.1,211.4l-0.8,2.3h-2.4l2,1.4l-0.8,2.3l2-1.4l2,1.4l-0.8-2.3l2-1.4h-2.4L489.1,211.4z M489.1,214.8
		L489.1,214.8L489.1,214.8L489.1,214.8L489.1,214.8z"/>
	<polygon class="st0" points="502.8,211.4 502,213.7 499.6,213.7 501.5,215.2 500.8,217.5 502.8,216.1 504.7,217.5 504,215.2 
		506,213.7 503.5,213.7 	"/>
	<polygon class="st0" points="516.5,211.4 515.7,213.7 513.3,213.7 515.3,215.2 514.5,217.5 516.5,216.1 518.4,217.5 517.7,215.2 
		519.7,213.7 517.2,213.7 	"/>
	<polygon class="st0" points="454.8,217.3 454,219.6 451.6,219.6 453.6,221 452.8,223.4 454.8,221.9 456.7,223.4 456,221 458,219.6 
		455.5,219.6 	"/>
	<polygon class="st0" points="468.5,217.3 467.7,219.6 465.3,219.6 467.3,221 466.5,223.4 468.5,221.9 470.5,223.4 469.7,221 
		471.7,219.6 469.2,219.6 	"/>
	<polygon class="st0" points="482.2,217.3 481.4,219.6 479,219.6 481,221 480.2,223.4 482.2,221.9 484.2,223.4 483.4,221 
		485.4,219.6 483,219.6 	"/>
	<polygon class="st0" points="495.9,217.3 495.2,219.6 492.7,219.6 494.7,221 493.9,223.4 495.9,221.9 497.9,223.4 497.1,221 
		499.1,219.6 496.7,219.6 	"/>
	<polygon class="st0" points="509.6,217.3 508.9,219.6 506.4,219.6 508.4,221 507.6,223.4 509.6,221.9 511.6,223.4 510.8,221 
		512.8,219.6 510.4,219.6 	"/>
	<polygon class="st0" points="523.3,217.3 522.6,219.6 520.1,219.6 522.1,221 521.4,223.4 523.3,221.9 525.3,223.4 524.5,221 
		526.5,219.6 524.1,219.6 	"/>
	<polygon class="st0" points="461.6,223.2 460.9,225.5 458.4,225.5 460.4,226.9 459.7,229.2 461.6,227.8 463.6,229.2 462.9,226.9 
		464.8,225.5 462.4,225.5 	"/>
	<polygon class="st0" points="475.3,223.2 474.6,225.5 472.2,225.5 474.1,226.9 473.4,229.2 475.3,227.8 477.3,229.2 476.6,226.9 
		478.5,225.5 476.1,225.5 	"/>
	<path class="st0" d="M489.1,223.2l-0.8,2.3h-2.4l2,1.4l-0.8,2.3l2-1.4l2,1.4l-0.8-2.3l2-1.4h-2.4L489.1,223.2z M489.1,226.5
		L489.1,226.5L489.1,226.5L489.1,226.5z"/>
	<polygon class="st0" points="502.8,223.2 502,225.5 499.6,225.5 501.5,226.9 500.8,229.2 502.8,227.8 504.7,229.2 504,226.9 
		506,225.5 503.5,225.5 	"/>
	<polygon class="st0" points="516.5,223.2 515.7,225.5 513.3,225.5 515.3,226.9 514.5,229.2 516.5,227.8 518.4,229.2 517.7,226.9 
		519.7,225.5 517.2,225.5 	"/>
	<polygon class="st0" points="454.8,229 454,231.4 451.6,231.4 453.6,232.8 452.8,235.1 454.8,233.7 456.7,235.1 456,232.8 
		458,231.4 455.5,231.4 	"/>
	<polygon class="st0" points="468.5,229 467.7,231.4 465.3,231.4 467.3,232.8 466.5,235.1 468.5,233.7 470.5,235.1 469.7,232.8 
		471.7,231.4 469.2,231.4 	"/>
	<polygon class="st0" points="482.2,229 481.4,231.4 479,231.4 481,232.8 480.2,235.1 482.2,233.7 484.2,235.1 483.4,232.8 
		485.4,231.4 483,231.4 	"/>
	<polygon class="st0" points="495.9,229 495.2,231.4 492.7,231.4 494.7,232.8 493.9,235.1 495.9,233.7 497.9,235.1 497.1,232.8 
		499.1,231.4 496.7,231.4 	"/>
	<polygon class="st0" points="509.6,229 508.9,231.4 506.4,231.4 508.4,232.8 507.6,235.1 509.6,233.7 511.6,235.1 510.8,232.8 
		512.8,231.4 510.4,231.4 	"/>
	<polygon class="st0" points="523.3,229 522.6,231.4 520.1,231.4 522.1,232.8 521.4,235.1 523.3,233.7 525.3,235.1 524.5,232.8 
		526.5,231.4 524.1,231.4 	"/>
	<polygon class="st0" points="461.6,234.9 460.9,237.2 458.4,237.2 460.4,238.7 459.7,241 461.6,239.6 463.6,241 462.9,238.7 
		464.8,237.2 462.4,237.2 	"/>
	<polygon class="st0" points="475.3,234.9 474.6,237.2 472.2,237.2 474.1,238.7 473.4,241 475.3,239.6 477.3,241 476.6,238.7 
		478.5,237.2 476.1,237.2 	"/>
	<polygon class="st0" points="489.1,234.9 488.3,237.2 485.9,237.2 487.8,238.7 487.1,241 489.1,239.6 491,241 490.3,238.7 
		492.2,237.2 489.8,237.2 	"/>
	<polygon class="st0" points="502.8,234.9 502,237.2 499.6,237.2 501.5,238.7 500.8,241 502.8,239.6 504.7,241 504,238.7 506,237.2 
		503.5,237.2 	"/>
	<polygon class="st0" points="516.5,234.9 515.7,237.2 513.3,237.2 515.3,238.7 514.5,241 516.5,239.6 518.4,241 517.7,238.7 
		519.7,237.2 517.2,237.2 	"/>
	<path class="st0" d="M454.8,240.8l-0.8,2.3h-2.4l2,1.4l-0.8,2.3l2-1.4l2,1.4l-0.8-2.3l2-1.4h-2.4L454.8,240.8z M454.8,244.2
		L454.8,244.2L454.8,244.2L454.8,244.2L454.8,244.2z"/>
	<polygon class="st0" points="468.5,240.8 467.7,243.1 465.3,243.1 467.3,244.5 466.5,246.9 468.5,245.4 470.5,246.9 469.7,244.5 
		471.7,243.1 469.2,243.1 	"/>
	<polygon class="st0" points="482.2,240.8 481.4,243.1 479,243.1 481,244.5 480.2,246.9 482.2,245.4 484.2,246.9 483.4,244.5 
		485.4,243.1 483,243.1 	"/>
	<polygon class="st0" points="495.9,240.8 495.2,243.1 492.7,243.1 494.7,244.5 493.9,246.9 495.9,245.4 497.9,246.9 497.1,244.5 
		499.1,243.1 496.7,243.1 	"/>
	<polygon class="st0" points="509.6,240.8 508.9,243.1 506.4,243.1 508.4,244.5 507.6,246.9 509.6,245.4 511.6,246.9 510.8,244.5 
		512.8,243.1 510.4,243.1 	"/>
	<polygon class="st0" points="523.3,240.8 522.6,243.1 520.1,243.1 522.1,244.5 521.4,246.9 523.3,245.4 525.3,246.9 524.5,244.5 
		526.5,243.1 524.1,243.1 	"/>
	<polygon class="st0" points="462.4,249 461.6,246.7 460.9,249 458.4,249 460.4,250.4 459.7,252.7 461.6,251.3 463.6,252.7 
		462.9,250.4 464.8,249 	"/>
	<polygon class="st0" points="476.1,249 475.3,246.7 474.6,249 472.2,249 474.1,250.4 473.4,252.7 475.3,251.3 477.3,252.7 
		476.6,250.4 478.5,249 	"/>
	<polygon class="st0" points="489.8,249 489.1,246.7 488.3,249 485.9,249 487.8,250.4 487.1,252.7 489.1,251.3 491,252.7 
		490.3,250.4 492.2,249 	"/>
	<polygon class="st0" points="503.5,249 502.8,246.7 502,249 499.6,249 501.5,250.4 500.8,252.7 502.8,251.3 504.7,252.7 504,250.4 
		506,249 	"/>
	<polygon class="st0" points="517.2,249 516.5,246.7 515.7,249 513.3,249 515.3,250.4 514.5,252.7 516.5,251.3 518.4,252.7 
		517.7,250.4 519.7,249 	"/>
	<path class="st0" d="M455.5,254.9l-0.8-2.3l-0.8,2.3h-2.4l2,1.4l-0.8,2.3l2-1.4l2,1.4l-0.8-2.3l2-1.4H455.5z M454.8,255.9
		L454.8,255.9L454.8,255.9L454.8,255.9z"/>
	<polygon class="st0" points="469.2,254.9 468.5,252.6 467.7,254.9 465.3,254.9 467.3,256.3 466.5,258.6 468.5,257.2 470.5,258.6 
		469.7,256.3 471.7,254.9 	"/>
	<polygon class="st0" points="483,254.9 482.2,252.6 481.4,254.9 479,254.9 481,256.3 480.2,258.6 482.2,257.2 484.2,258.6 
		483.4,256.3 485.4,254.9 	"/>
	<polygon class="st0" points="496.7,254.9 495.9,252.6 495.2,254.9 492.7,254.9 494.7,256.3 493.9,258.6 495.9,257.2 497.9,258.6 
		497.1,256.3 499.1,254.9 	"/>
	<polygon class="st0" points="510.4,254.9 509.6,252.6 508.9,254.9 506.4,254.9 508.4,256.3 507.6,258.6 509.6,257.2 511.6,258.6 
		510.8,256.3 512.8,254.9 	"/>
	<polygon class="st0" points="524.1,254.9 523.3,252.6 522.6,254.9 520.1,254.9 522.1,256.3 521.4,258.6 523.3,257.2 525.3,258.6 
		524.5,256.3 526.5,254.9 	"/>
	<polygon class="st0" points="454.8,205.5 454,207.9 451.6,207.9 453.6,209.3 452.8,211.6 454.8,210.2 456.7,211.6 456,209.3 
		458,207.9 455.5,207.9 	"/>
	<rect x="447.7" y="286.8" class="st3" width="206.7" height="8.4"/>
</g>
<g id="Layer_3">
</g>
</svg>
