<svg enable-background="new 0 0 1100 650" viewBox="0 0 1100 650" xmlns="http://www.w3.org/2000/svg"><path d="m1 1h1098v648h-1098z" fill="#f7f7f7"/><path d="m1098 2v646h-1096v-646zm2-2h-1100v650h1100z" fill="#333"/><path d="m591.1 116.7v41.2h-82.2v-41.2h-255.9v382.3h94.1v-284.4h60.8v324.4h289.7v-324.4h60.8v284.4h88.6v-382.3z" fill="#355629"/><path d="m455.5 236h205v107.9h-205z" fill="#fff"/><path d="m455.5 236h205v8.3h-205z" fill="#cc2031"/><path d="m455.5 252.6h205v8.3h-205z" fill="#cc2031"/><path d="m455.5 269.2h205v8.3h-205z" fill="#cc2031"/><path d="m455.5 285.8h205v8.3h-205z" fill="#cc2031"/><path d="m455.5 302.3h205v8.3h-205z" fill="#cc2031"/><path d="m455.5 335.5h205v8.3h-205z" fill="#cc2031"/><path d="m455.5 236h82v58.1h-82z" fill="#253572"/><g fill="#fff"><path d="m476.1 238.4-.7 2.3h-2.4l1.9 1.4-.7 2.3 1.9-1.4 2 1.4-.8-2.3 2-1.4h-2.4z"/><path d="m489.7 238.4-.7 2.3h-2.4l1.9 1.4-.7 2.3 1.9-1.4 2 1.4-.8-2.3 2-1.4h-2.4z"/><path d="m503.3 238.4-.7 2.3h-2.5l2 1.4-.7 2.3 1.9-1.4 2 1.4-.8-2.3 2-1.4h-2.4z"/><path d="m516.9 238.4-.7 2.3h-2.5l2 1.4-.8 2.3 2-1.4 2 1.4-.8-2.3 2-1.4h-2.5z"/><path d="m529.3 242.1-.8 2.3 2-1.4 1.9 1.4-.7-2.3 2-1.4h-2.5l-.7-2.3-.8 2.3h-2.4z"/><path d="m469.3 244.2-.7 2.3h-2.4l1.9 1.4-.7 2.3 1.9-1.4 2 1.4-.8-2.3 2-1.4h-2.4z"/><path d="m482.9 244.2-.7 2.3h-2.4l1.9 1.4-.7 2.3 1.9-1.4 2 1.4-.8-2.3 2-1.4h-2.4z"/><path d="m496.5 244.2-.7 2.3h-2.4l2 1.4-.7 2.3 2-1.4 2 1.4-.7-2.3 2-1.4h-2.4z"/><path d="m510.1 244.2-.7 2.3h-2.5l2 1.4-.7 2.3 1.9-1.4 2 1.4-.8-2.3 2-1.4h-2.4z"/><path d="m523.7 244.2-.7 2.3h-2.5l2 1.4-.8 2.3 2-1.4 1.9 1.4-.7-2.3 2-1.4h-2.5z"/><path d="m462.5 250-.7 2.3h-2.4l1.9 1.4-.7 2.3 1.9-1.4 2 1.4-.8-2.3 2-1.4h-2.4z"/><path d="m476.1 250-.7 2.3h-2.4l1.9 1.4-.7 2.3 1.9-1.4 2 1.4-.8-2.3 2-1.4h-2.4z"/><path d="m489.7 250-.7 2.3h-2.4l1.9 1.4-.7 2.3 1.9-1.4 2 1.4-.8-2.3 2-1.4h-2.4z"/><path d="m503.3 250-.7 2.3h-2.5l2 1.4-.7 2.3 1.9-1.4 2 1.4-.8-2.3 2-1.4h-2.4z"/><path d="m516.9 250-.7 2.3h-2.5l2 1.4-.8 2.3 2-1.4 2 1.4-.8-2.3 2-1.4h-2.5z"/><path d="m530.5 250-.8 2.3h-2.4l2 1.4-.8 2.3 2-1.4 1.9 1.4-.7-2.3 2-1.4h-2.5z"/><path d="m469.3 255.9-.7 2.3h-2.4l1.9 1.4-.7 2.3 1.9-1.4 2 1.4-.8-2.3 2-1.4h-2.4z"/><path d="m482.9 255.9-.7 2.3h-2.4l1.9 1.4-.7 2.3 1.9-1.4 2 1.4-.8-2.3 2-1.4h-2.4z"/><path d="m496.5 255.9-.7 2.3h-2.4l2 1.4-.7 2.3 2-1.4 2 1.4-.7-2.3 2-1.4h-2.4z"/><path d="m510.1 255.9-.7 2.3h-2.5l2 1.4-.7 2.3 1.9-1.4 2 1.4-.8-2.3 2-1.4h-2.4z"/><path d="m523.7 255.9-.7 2.3h-2.5l2 1.4-.8 2.3 2-1.4 1.9 1.4-.7-2.3 2-1.4h-2.5z"/><path d="m462.5 261.7-.7 2.3h-2.4l1.9 1.4-.7 2.3 1.9-1.4 2 1.4-.8-2.3 2-1.4h-2.4z"/><path d="m476.1 261.7-.7 2.3h-2.4l1.9 1.4-.7 2.3 1.9-1.4 2 1.4-.8-2.3 2-1.4h-2.4z"/><path d="m489.7 261.7-.7 2.3h-2.4l1.9 1.4-.7 2.3 1.9-1.4 2 1.4-.8-2.3 2-1.4h-2.4z"/><path d="m503.3 261.7-.7 2.3h-2.5l2 1.4-.7 2.3 1.9-1.4 2 1.4-.8-2.3 2-1.4h-2.4z"/><path d="m516.9 261.7-.7 2.3h-2.5l2 1.4-.8 2.3 2-1.4 2 1.4-.8-2.3 2-1.4h-2.5z"/><path d="m530.5 261.7-.8 2.3h-2.4l2 1.4-.8 2.3 2-1.4 1.9 1.4-.7-2.3 2-1.4h-2.5z"/><path d="m469.3 267.5-.7 2.3h-2.4l1.9 1.4-.7 2.3 1.9-1.4 2 1.4-.8-2.3 2-1.4h-2.4z"/><path d="m482.9 267.5-.7 2.3h-2.4l1.9 1.4-.7 2.3 1.9-1.4 2 1.4-.8-2.3 2-1.4h-2.4z"/><path d="m496.5 267.5-.7 2.3h-2.4l1.9 1.4-.7 2.3 1.9-1.4 2 1.4-.8-2.3 2-1.4h-2.4z"/><path d="m510.1 267.5-.7 2.3h-2.5l2 1.4-.7 2.3 1.9-1.4 2 1.4-.8-2.3 2-1.4h-2.4z"/><path d="m523.7 267.5-.7 2.3h-2.5l2 1.4-.8 2.3 2-1.4 1.9 1.4-.7-2.3 2-1.4h-2.5z"/><path d="m462.5 273.3-.7 2.3h-2.4l2 1.4-.7 2.3 2-1.4 2 1.4-.7-2.3 2-1.4h-2.4z"/><path d="m476.1 273.3-.7 2.3h-2.4l1.9 1.4-.7 2.3 1.9-1.4 2 1.4-.8-2.3 2-1.4h-2.4z"/><path d="m489.7 273.3-.7 2.3h-2.4l1.9 1.4-.7 2.3 1.9-1.4 2 1.4-.8-2.3 2-1.4h-2.4z"/><path d="m503.3 273.3-.7 2.3h-2.5l2 1.4-.7 2.3 1.9-1.4 2 1.4-.8-2.3 2-1.4h-2.4z"/><path d="m516.9 273.3-.7 2.3h-2.5l2 1.4-.8 2.3 2-1.4 2 1.4-.8-2.3 2-1.4h-2.5z"/><path d="m530.5 273.3-.8 2.3h-2.4l2 1.4-.8 2.3 2-1.4 1.9 1.4-.7-2.3 2-1.4h-2.5z"/><path d="m470.1 281.5-.8-2.3-.7 2.3h-2.4l1.9 1.4-.7 2.3 1.9-1.4 2 1.4-.8-2.3 2-1.4z"/><path d="m483.7 281.5-.8-2.3-.7 2.3h-2.4l1.9 1.4-.7 2.3 1.9-1.4 2 1.4-.8-2.3 2-1.4z"/><path d="m497.3 281.5-.8-2.3-.7 2.3h-2.4l1.9 1.4-.7 2.3 1.9-1.4 2 1.4-.8-2.3 2-1.4z"/><path d="m510.9 281.5-.8-2.3-.7 2.3h-2.5l2 1.4-.7 2.3 1.9-1.4 2 1.4-.8-2.3 2-1.4z"/><path d="m524.4 281.5-.7-2.3-.7 2.3h-2.5l2 1.4-.8 2.3 2-1.4 1.9 1.4-.7-2.3 2-1.4z"/><path d="m463.3 287.3-.7-2.3-.7 2.3h-2.4l2 1.4-.7 2.3 2-1.4 2 1.4-.7-2.3 2-1.4z"/><path d="m476.9 287.3-.8-2.3-.7 2.3h-2.4l1.9 1.4-.7 2.3 1.9-1.4 2 1.4-.8-2.3 2-1.4z"/><path d="m490.5 287.3-.8-2.3-.7 2.3h-2.4l1.9 1.4-.7 2.3 1.9-1.4 2 1.4-.8-2.3 2-1.4z"/><path d="m504.1 287.3-.8-2.3-.7 2.3h-2.5l2 1.4-.7 2.3 1.9-1.4 2 1.4-.8-2.3 2-1.4z"/><path d="m517.6 287.3-.7-2.3-.7 2.3h-2.5l2 1.4-.8 2.3 2-1.4 2 1.4-.8-2.3 2-1.4z"/><path d="m531.2 287.3-.7-2.3-.8 2.3h-2.4l2 1.4-.8 2.3 2-1.4 1.9 1.4-.7-2.3 2-1.4z"/><path d="m462.5 238.4-.7 2.3h-2.4l1.9 1.4-.7 2.3 1.9-1.4 2 1.4-.8-2.3 2-1.4h-2.4z"/></g><path d="m455.5 318.9h205v8.3h-205z" fill="#cc2031"/></svg>