<?xml version="1.0" encoding="utf-8"?>
<!-- Generator: Adobe Illustrator 22.1.0, SVG Export Plug-In . SVG Version: 6.00 Build 0)  -->
<svg version="1.1" xmlns="http://www.w3.org/2000/svg" xmlns:xlink="http://www.w3.org/1999/xlink" x="0px" y="0px"
	 viewBox="0 0 1100 650" style="enable-background:new 0 0 1100 650;" xml:space="preserve">
<style type="text/css">
	.st0{fill:#ffffff;}
	.st1{fill:#333333;}
	.st2{fill:#CECECE;}
	.st3{fill:#CC2031;}
	.st4{fill:#253572;}
</style>
<g id="bg">
	<g>
		<rect x="1" y="1" style="fill:#f7f7f7;" width="1098" height="648"/>
		<path class="st1" d="M1098,2v646H2V2H1098 M1100,0H0v650h1100V0L1100,0z"/>
	</g>
</g>
<g id="Layer_4">
	<polygon class="st2" points="591.1,116.7 591.1,157.9 508.9,157.9 508.9,116.7 253,116.7 253,499 347.1,499 347.1,214.6 
		407.9,214.6 407.9,539 697.6,539 697.6,214.6 758.4,214.6 758.4,499 847,499 847,116.7 	"/>
</g>
<g id="Layer_1">
	<g>
		<rect x="455.5" y="236" class="st0" width="205" height="107.9"/>
	</g>
	<rect x="455.5" y="236" class="st3" width="205" height="8.3"/>
	<rect x="455.5" y="252.6" class="st3" width="205" height="8.3"/>
	<rect x="455.5" y="269.2" class="st3" width="205" height="8.3"/>
	<rect x="455.5" y="285.8" class="st3" width="205" height="8.3"/>
	<rect x="455.5" y="302.3" class="st3" width="205" height="8.3"/>
	<rect x="455.5" y="335.5" class="st3" width="205" height="8.3"/>
	<rect x="455.5" y="236" class="st4" width="82" height="58.1"/>
	<polygon class="st0" points="476.1,238.4 475.4,240.7 473,240.7 474.9,242.1 474.2,244.4 476.1,243 478.1,244.4 477.3,242.1 
		479.3,240.7 476.9,240.7 	"/>
	<polygon class="st0" points="489.7,238.4 489,240.7 486.6,240.7 488.5,242.1 487.8,244.4 489.7,243 491.7,244.4 490.9,242.1 
		492.9,240.7 490.5,240.7 	"/>
	<polygon class="st0" points="503.3,238.4 502.6,240.7 500.1,240.7 502.1,242.1 501.4,244.4 503.3,243 505.3,244.4 504.5,242.1 
		506.5,240.7 504.1,240.7 	"/>
	<polygon class="st0" points="516.9,238.4 516.2,240.7 513.7,240.7 515.7,242.1 514.9,244.4 516.9,243 518.9,244.4 518.1,242.1 
		520.1,240.7 517.6,240.7 	"/>
	<polygon class="st0" points="529.3,242.1 528.5,244.4 530.5,243 532.4,244.4 531.7,242.1 533.7,240.7 531.2,240.7 530.5,238.4 
		529.7,240.7 527.3,240.7 	"/>
	<polygon class="st0" points="469.3,244.2 468.6,246.5 466.2,246.5 468.1,247.9 467.4,250.2 469.3,248.8 471.3,250.2 470.5,247.9 
		472.5,246.5 470.1,246.5 	"/>
	<polygon class="st0" points="482.9,244.2 482.2,246.5 479.8,246.5 481.7,247.9 481,250.2 482.9,248.8 484.9,250.2 484.1,247.9 
		486.1,246.5 483.7,246.5 	"/>
	<path class="st0" d="M496.5,244.2l-0.7,2.3h-2.4l2,1.4l-0.7,2.3l2-1.4l2,1.4l-0.7-2.3l2-1.4h-2.4L496.5,244.2z M496.5,247.5
		L496.5,247.5L496.5,247.5L496.5,247.5L496.5,247.5z"/>
	<polygon class="st0" points="510.1,244.2 509.4,246.5 506.9,246.5 508.9,247.9 508.2,250.2 510.1,248.8 512.1,250.2 511.3,247.9 
		513.3,246.5 510.9,246.5 	"/>
	<polygon class="st0" points="523.7,244.2 523,246.5 520.5,246.5 522.5,247.9 521.7,250.2 523.7,248.8 525.6,250.2 524.9,247.9 
		526.9,246.5 524.4,246.5 	"/>
	<polygon class="st0" points="462.5,250 461.8,252.3 459.4,252.3 461.3,253.7 460.6,256 462.5,254.6 464.5,256 463.7,253.7 
		465.7,252.3 463.3,252.3 	"/>
	<polygon class="st0" points="476.1,250 475.4,252.3 473,252.3 474.9,253.7 474.2,256 476.1,254.6 478.1,256 477.3,253.7 
		479.3,252.3 476.9,252.3 	"/>
	<polygon class="st0" points="489.7,250 489,252.3 486.6,252.3 488.5,253.7 487.8,256 489.7,254.6 491.7,256 490.9,253.7 
		492.9,252.3 490.5,252.3 	"/>
	<polygon class="st0" points="503.3,250 502.6,252.3 500.1,252.3 502.1,253.7 501.4,256 503.3,254.6 505.3,256 504.5,253.7 
		506.5,252.3 504.1,252.3 	"/>
	<polygon class="st0" points="516.9,250 516.2,252.3 513.7,252.3 515.7,253.7 514.9,256 516.9,254.6 518.9,256 518.1,253.7 
		520.1,252.3 517.6,252.3 	"/>
	<polygon class="st0" points="530.5,250 529.7,252.3 527.3,252.3 529.3,253.7 528.5,256 530.5,254.6 532.4,256 531.7,253.7 
		533.7,252.3 531.2,252.3 	"/>
	<polygon class="st0" points="469.3,255.9 468.6,258.2 466.2,258.2 468.1,259.6 467.4,261.9 469.3,260.5 471.3,261.9 470.5,259.6 
		472.5,258.2 470.1,258.2 	"/>
	<polygon class="st0" points="482.9,255.9 482.2,258.2 479.8,258.2 481.7,259.6 481,261.9 482.9,260.5 484.9,261.9 484.1,259.6 
		486.1,258.2 483.7,258.2 	"/>
	<path class="st0" d="M496.5,255.9l-0.7,2.3h-2.4l2,1.4l-0.7,2.3l2-1.4l2,1.4l-0.7-2.3l2-1.4h-2.4L496.5,255.9z M496.5,259.2
		L496.5,259.2L496.5,259.2L496.5,259.2z"/>
	<polygon class="st0" points="510.1,255.9 509.4,258.2 506.9,258.2 508.9,259.6 508.2,261.9 510.1,260.5 512.1,261.9 511.3,259.6 
		513.3,258.2 510.9,258.2 	"/>
	<polygon class="st0" points="523.7,255.9 523,258.2 520.5,258.2 522.5,259.6 521.7,261.9 523.7,260.5 525.6,261.9 524.9,259.6 
		526.9,258.2 524.4,258.2 	"/>
	<polygon class="st0" points="462.5,261.7 461.8,264 459.4,264 461.3,265.4 460.6,267.7 462.5,266.3 464.5,267.7 463.7,265.4 
		465.7,264 463.3,264 	"/>
	<polygon class="st0" points="476.1,261.7 475.4,264 473,264 474.9,265.4 474.2,267.7 476.1,266.3 478.1,267.7 477.3,265.4 
		479.3,264 476.9,264 	"/>
	<polygon class="st0" points="489.7,261.7 489,264 486.6,264 488.5,265.4 487.8,267.7 489.7,266.3 491.7,267.7 490.9,265.4 
		492.9,264 490.5,264 	"/>
	<polygon class="st0" points="503.3,261.7 502.6,264 500.1,264 502.1,265.4 501.4,267.7 503.3,266.3 505.3,267.7 504.5,265.4 
		506.5,264 504.1,264 	"/>
	<polygon class="st0" points="516.9,261.7 516.2,264 513.7,264 515.7,265.4 514.9,267.7 516.9,266.3 518.9,267.7 518.1,265.4 
		520.1,264 517.6,264 	"/>
	<polygon class="st0" points="530.5,261.7 529.7,264 527.3,264 529.3,265.4 528.5,267.7 530.5,266.3 532.4,267.7 531.7,265.4 
		533.7,264 531.2,264 	"/>
	<polygon class="st0" points="469.3,267.5 468.6,269.8 466.2,269.8 468.1,271.2 467.4,273.5 469.3,272.1 471.3,273.5 470.5,271.2 
		472.5,269.8 470.1,269.8 	"/>
	<polygon class="st0" points="482.9,267.5 482.2,269.8 479.8,269.8 481.7,271.2 481,273.5 482.9,272.1 484.9,273.5 484.1,271.2 
		486.1,269.8 483.7,269.8 	"/>
	<polygon class="st0" points="496.5,267.5 495.8,269.8 493.4,269.8 495.3,271.2 494.6,273.5 496.5,272.1 498.5,273.5 497.7,271.2 
		499.7,269.8 497.3,269.8 	"/>
	<polygon class="st0" points="510.1,267.5 509.4,269.8 506.9,269.8 508.9,271.2 508.2,273.5 510.1,272.1 512.1,273.5 511.3,271.2 
		513.3,269.8 510.9,269.8 	"/>
	<polygon class="st0" points="523.7,267.5 523,269.8 520.5,269.8 522.5,271.2 521.7,273.5 523.7,272.1 525.6,273.5 524.9,271.2 
		526.9,269.8 524.4,269.8 	"/>
	<path class="st0" d="M462.5,273.3l-0.7,2.3h-2.4l2,1.4l-0.7,2.3l2-1.4l2,1.4l-0.7-2.3l2-1.4h-2.4L462.5,273.3z M462.5,276.7
		L462.5,276.7L462.5,276.7L462.5,276.7L462.5,276.7z"/>
	<polygon class="st0" points="476.1,273.3 475.4,275.6 473,275.6 474.9,277 474.2,279.3 476.1,277.9 478.1,279.3 477.3,277 
		479.3,275.6 476.9,275.6 	"/>
	<polygon class="st0" points="489.7,273.3 489,275.6 486.6,275.6 488.5,277 487.8,279.3 489.7,277.9 491.7,279.3 490.9,277 
		492.9,275.6 490.5,275.6 	"/>
	<polygon class="st0" points="503.3,273.3 502.6,275.6 500.1,275.6 502.1,277 501.4,279.3 503.3,277.9 505.3,279.3 504.5,277 
		506.5,275.6 504.1,275.6 	"/>
	<polygon class="st0" points="516.9,273.3 516.2,275.6 513.7,275.6 515.7,277 514.9,279.3 516.9,277.9 518.9,279.3 518.1,277 
		520.1,275.6 517.6,275.6 	"/>
	<polygon class="st0" points="530.5,273.3 529.7,275.6 527.3,275.6 529.3,277 528.5,279.3 530.5,277.9 532.4,279.3 531.7,277 
		533.7,275.6 531.2,275.6 	"/>
	<polygon class="st0" points="470.1,281.5 469.3,279.2 468.6,281.5 466.2,281.5 468.1,282.9 467.4,285.2 469.3,283.8 471.3,285.2 
		470.5,282.9 472.5,281.5 	"/>
	<polygon class="st0" points="483.7,281.5 482.9,279.2 482.2,281.5 479.8,281.5 481.7,282.9 481,285.2 482.9,283.8 484.9,285.2 
		484.1,282.9 486.1,281.5 	"/>
	<polygon class="st0" points="497.3,281.5 496.5,279.2 495.8,281.5 493.4,281.5 495.3,282.9 494.6,285.2 496.5,283.8 498.5,285.2 
		497.7,282.9 499.7,281.5 	"/>
	<polygon class="st0" points="510.9,281.5 510.1,279.2 509.4,281.5 506.9,281.5 508.9,282.9 508.2,285.2 510.1,283.8 512.1,285.2 
		511.3,282.9 513.3,281.5 	"/>
	<polygon class="st0" points="524.4,281.5 523.7,279.2 523,281.5 520.5,281.5 522.5,282.9 521.7,285.2 523.7,283.8 525.6,285.2 
		524.9,282.9 526.9,281.5 	"/>
	<path class="st0" d="M463.3,287.3l-0.7-2.3l-0.7,2.3h-2.4l2,1.4l-0.7,2.3l2-1.4l2,1.4l-0.7-2.3l2-1.4H463.3z M462.5,288.3
		L462.5,288.3L462.5,288.3L462.5,288.3z"/>
	<polygon class="st0" points="476.9,287.3 476.1,285 475.4,287.3 473,287.3 474.9,288.7 474.2,291 476.1,289.6 478.1,291 
		477.3,288.7 479.3,287.3 	"/>
	<polygon class="st0" points="490.5,287.3 489.7,285 489,287.3 486.6,287.3 488.5,288.7 487.8,291 489.7,289.6 491.7,291 
		490.9,288.7 492.9,287.3 	"/>
	<polygon class="st0" points="504.1,287.3 503.3,285 502.6,287.3 500.1,287.3 502.1,288.7 501.4,291 503.3,289.6 505.3,291 
		504.5,288.7 506.5,287.3 	"/>
	<polygon class="st0" points="517.6,287.3 516.9,285 516.2,287.3 513.7,287.3 515.7,288.7 514.9,291 516.9,289.6 518.9,291 
		518.1,288.7 520.1,287.3 	"/>
	<polygon class="st0" points="531.2,287.3 530.5,285 529.7,287.3 527.3,287.3 529.3,288.7 528.5,291 530.5,289.6 532.4,291 
		531.7,288.7 533.7,287.3 	"/>
	<polygon class="st0" points="462.5,238.4 461.8,240.7 459.4,240.7 461.3,242.1 460.6,244.4 462.5,243 464.5,244.4 463.7,242.1 
		465.7,240.7 463.3,240.7 	"/>
	<rect x="455.5" y="318.9" class="st3" width="205" height="8.3"/>
</g>
<g id="Layer_3">
</g>
</svg>
