<?xml version="1.0" encoding="utf-8"?>
<!-- Generator: Adobe Illustrator 22.1.0, SVG Export Plug-In . SVG Version: 6.00 Build 0)  -->
<svg version="1.1" xmlns="http://www.w3.org/2000/svg" xmlns:xlink="http://www.w3.org/1999/xlink" x="0px" y="0px"
	 viewBox="0 0 1100 650" style="enable-background:new 0 0 1100 650;" xml:space="preserve">
<style type="text/css">
	.st0{fill:#ffffff;}
	.st1{fill:#333333;}
	.st2{fill:#BCBCBC;}
	.st3{fill:#CC2031;}
	.st4{fill:#253572;}
</style>
<g id="bg">
	<g>
		<rect x="1" y="1" style="fill:#f7f7f7;" width="1098" height="648"/>
		<path class="st1" d="M1098,2v646H2V2H1098 M1100,0H0v650h1100V0L1100,0z"/>
	</g>
</g>
<g id="Layer_4">
	<polygon class="st2" points="550,502 550,502 187.8,148 912.2,148 	"/>
</g>
<g id="Layer_1">
	<g>
		<rect x="402.4" y="172.3" class="st0" width="295.3" height="155.4"/>
	</g>
	<rect x="402.4" y="172.3" class="st3" width="295.3" height="12"/>
	<rect x="402.4" y="196.2" class="st3" width="295.3" height="12"/>
	<rect x="402.4" y="220.1" class="st3" width="295.3" height="12"/>
	<rect x="402.4" y="244" class="st3" width="295.3" height="12"/>
	<rect x="402.4" y="267.9" class="st3" width="295.3" height="12"/>
	<rect x="402.4" y="315.8" class="st3" width="295.3" height="12"/>
	<rect x="402.4" y="172.3" class="st4" width="118.1" height="83.7"/>
	<polygon class="st0" points="432,175.8 431,179.1 427.5,179.1 430.3,181.1 429.2,184.4 432,182.4 434.9,184.4 433.8,181.1 
		436.6,179.1 433.1,179.1 	"/>
	<polygon class="st0" points="451.6,175.8 450.5,179.1 447.1,179.1 449.9,181.1 448.8,184.4 451.6,182.4 454.4,184.4 453.4,181.1 
		456.2,179.1 452.7,179.1 	"/>
	<polygon class="st0" points="471.2,175.8 470.1,179.1 466.7,179.1 469.5,181.1 468.4,184.4 471.2,182.4 474,184.4 472.9,181.1 
		475.8,179.1 472.3,179.1 	"/>
	<polygon class="st0" points="490.8,175.8 489.7,179.1 486.2,179.1 489,181.1 488,184.4 490.8,182.4 493.6,184.4 492.5,181.1 
		495.3,179.1 491.9,179.1 	"/>
	<polygon class="st0" points="508.6,181.1 507.6,184.4 510.4,182.4 513.2,184.4 512.1,181.1 514.9,179.1 511.4,179.1 510.4,175.8 
		509.3,179.1 505.8,179.1 	"/>
	<polygon class="st0" points="422.2,184.2 421.2,187.5 417.7,187.5 420.5,189.5 419.4,192.8 422.2,190.8 425.1,192.8 424,189.5 
		426.8,187.5 423.3,187.5 	"/>
	<polygon class="st0" points="441.8,184.2 440.8,187.5 437.3,187.5 440.1,189.5 439,192.8 441.8,190.8 444.6,192.8 443.6,189.5 
		446.4,187.5 442.9,187.5 	"/>
	<path class="st0" d="M461.4,184.2l-1.1,3.3h-3.5l2.8,2l-1.1,3.3l2.8-2l2.8,2l-1.1-3.3l2.8-2h-3.5L461.4,184.2z M461.4,189
		L461.4,189L461.4,189L461.4,189L461.4,189z"/>
	<polygon class="st0" points="481,184.2 479.9,187.5 476.4,187.5 479.3,189.5 478.2,192.8 481,190.8 483.8,192.8 482.7,189.5 
		485.5,187.5 482.1,187.5 	"/>
	<polygon class="st0" points="500.6,184.2 499.5,187.5 496,187.5 498.8,189.5 497.8,192.8 500.6,190.8 503.4,192.8 502.3,189.5 
		505.1,187.5 501.7,187.5 	"/>
	<polygon class="st0" points="412.5,192.6 411.4,195.9 407.9,195.9 410.7,197.9 409.6,201.2 412.5,199.2 415.3,201.2 414.2,197.9 
		417,195.9 413.5,195.9 	"/>
	<polygon class="st0" points="432,192.6 431,195.9 427.5,195.9 430.3,197.9 429.2,201.2 432,199.2 434.9,201.2 433.8,197.9 
		436.6,195.9 433.1,195.9 	"/>
	<polygon class="st0" points="451.6,192.6 450.5,195.9 447.1,195.9 449.9,197.9 448.8,201.2 451.6,199.2 454.4,201.2 453.4,197.9 
		456.2,195.9 452.7,195.9 	"/>
	<polygon class="st0" points="471.2,192.6 470.1,195.9 466.7,195.9 469.5,197.9 468.4,201.2 471.2,199.2 474,201.2 472.9,197.9 
		475.8,195.9 472.3,195.9 	"/>
	<polygon class="st0" points="490.8,192.6 489.7,195.9 486.2,195.9 489,197.9 488,201.2 490.8,199.2 493.6,201.2 492.5,197.9 
		495.3,195.9 491.9,195.9 	"/>
	<polygon class="st0" points="510.4,192.6 509.3,195.9 505.8,195.9 508.6,197.9 507.6,201.2 510.4,199.2 513.2,201.2 512.1,197.9 
		514.9,195.9 511.4,195.9 	"/>
	<polygon class="st0" points="422.2,201 421.2,204.3 417.7,204.3 420.5,206.3 419.4,209.6 422.2,207.6 425.1,209.6 424,206.3 
		426.8,204.3 423.3,204.3 	"/>
	<polygon class="st0" points="441.8,201 440.8,204.3 437.3,204.3 440.1,206.3 439,209.6 441.8,207.6 444.6,209.6 443.6,206.3 
		446.4,204.3 442.9,204.3 	"/>
	<path class="st0" d="M461.4,201l-1.1,3.3h-3.5l2.8,2l-1.1,3.3l2.8-2l2.8,2l-1.1-3.3l2.8-2h-3.5L461.4,201z M461.4,205.7
		L461.4,205.7L461.4,205.7L461.4,205.7z"/>
	<polygon class="st0" points="481,201 479.9,204.3 476.4,204.3 479.3,206.3 478.2,209.6 481,207.6 483.8,209.6 482.7,206.3 
		485.5,204.3 482.1,204.3 	"/>
	<polygon class="st0" points="500.6,201 499.5,204.3 496,204.3 498.8,206.3 497.8,209.6 500.6,207.6 503.4,209.6 502.3,206.3 
		505.1,204.3 501.7,204.3 	"/>
	<polygon class="st0" points="412.5,209.3 411.4,212.7 407.9,212.7 410.7,214.7 409.6,218 412.5,216 415.3,218 414.2,214.7 
		417,212.7 413.5,212.7 	"/>
	<polygon class="st0" points="432,209.3 431,212.7 427.5,212.7 430.3,214.7 429.2,218 432,216 434.9,218 433.8,214.7 436.6,212.7 
		433.1,212.7 	"/>
	<polygon class="st0" points="451.6,209.3 450.5,212.7 447.1,212.7 449.9,214.7 448.8,218 451.6,216 454.4,218 453.4,214.7 
		456.2,212.7 452.7,212.7 	"/>
	<polygon class="st0" points="471.2,209.3 470.1,212.7 466.7,212.7 469.5,214.7 468.4,218 471.2,216 474,218 472.9,214.7 
		475.8,212.7 472.3,212.7 	"/>
	<polygon class="st0" points="490.8,209.3 489.7,212.7 486.2,212.7 489,214.7 488,218 490.8,216 493.6,218 492.5,214.7 495.3,212.7 
		491.9,212.7 	"/>
	<polygon class="st0" points="510.4,209.3 509.3,212.7 505.8,212.7 508.6,214.7 507.6,218 510.4,216 513.2,218 512.1,214.7 
		514.9,212.7 511.4,212.7 	"/>
	<polygon class="st0" points="422.2,217.7 421.2,221 417.7,221 420.5,223.1 419.4,226.4 422.2,224.4 425.1,226.4 424,223.1 
		426.8,221 423.3,221 	"/>
	<polygon class="st0" points="441.8,217.7 440.8,221 437.3,221 440.1,223.1 439,226.4 441.8,224.4 444.6,226.4 443.6,223.1 
		446.4,221 442.9,221 	"/>
	<polygon class="st0" points="461.4,217.7 460.3,221 456.9,221 459.7,223.1 458.6,226.4 461.4,224.4 464.2,226.4 463.1,223.1 
		466,221 462.5,221 	"/>
	<polygon class="st0" points="481,217.7 479.9,221 476.4,221 479.3,223.1 478.2,226.4 481,224.4 483.8,226.4 482.7,223.1 485.5,221 
		482.1,221 	"/>
	<polygon class="st0" points="500.6,217.7 499.5,221 496,221 498.8,223.1 497.8,226.4 500.6,224.4 503.4,226.4 502.3,223.1 
		505.1,221 501.7,221 	"/>
	<path class="st0" d="M412.5,226.1l-1.1,3.3h-3.5l2.8,2l-1.1,3.3l2.8-2l2.8,2l-1.1-3.3l2.8-2h-3.5L412.5,226.1z M412.5,230.9
		L412.5,230.9L412.5,230.9L412.5,230.9L412.5,230.9z"/>
	<polygon class="st0" points="432,226.1 431,229.4 427.5,229.4 430.3,231.5 429.2,234.8 432,232.7 434.9,234.8 433.8,231.5 
		436.6,229.4 433.1,229.4 	"/>
	<polygon class="st0" points="451.6,226.1 450.5,229.4 447.1,229.4 449.9,231.5 448.8,234.8 451.6,232.7 454.4,234.8 453.4,231.5 
		456.2,229.4 452.7,229.4 	"/>
	<polygon class="st0" points="471.2,226.1 470.1,229.4 466.7,229.4 469.5,231.5 468.4,234.8 471.2,232.7 474,234.8 472.9,231.5 
		475.8,229.4 472.3,229.4 	"/>
	<polygon class="st0" points="490.8,226.1 489.7,229.4 486.2,229.4 489,231.5 488,234.8 490.8,232.7 493.6,234.8 492.5,231.5 
		495.3,229.4 491.9,229.4 	"/>
	<polygon class="st0" points="510.4,226.1 509.3,229.4 505.8,229.4 508.6,231.5 507.6,234.8 510.4,232.7 513.2,234.8 512.1,231.5 
		514.9,229.4 511.4,229.4 	"/>
	<polygon class="st0" points="423.3,237.8 422.2,234.5 421.2,237.8 417.7,237.8 420.5,239.9 419.4,243.2 422.2,241.1 425.1,243.2 
		424,239.9 426.8,237.8 	"/>
	<polygon class="st0" points="442.9,237.8 441.8,234.5 440.8,237.8 437.3,237.8 440.1,239.9 439,243.2 441.8,241.1 444.6,243.2 
		443.6,239.9 446.4,237.8 	"/>
	<polygon class="st0" points="462.5,237.8 461.4,234.5 460.3,237.8 456.9,237.8 459.7,239.9 458.6,243.2 461.4,241.1 464.2,243.2 
		463.2,239.9 466,237.8 	"/>
	<polygon class="st0" points="482.1,237.8 481,234.5 479.9,237.8 476.4,237.8 479.3,239.9 478.2,243.2 481,241.1 483.8,243.2 
		482.7,239.9 485.5,237.8 	"/>
	<polygon class="st0" points="501.7,237.8 500.6,234.5 499.5,237.8 496,237.8 498.8,239.9 497.8,243.2 500.6,241.1 503.4,243.2 
		502.3,239.9 505.1,237.8 	"/>
	<path class="st0" d="M413.5,246.2l-1.1-3.3l-1.1,3.3h-3.5l2.8,2l-1.1,3.3l2.8-2l2.8,2l-1.1-3.3l2.8-2H413.5z M412.5,247.7
		L412.5,247.7L412.5,247.7L412.5,247.7z"/>
	<polygon class="st0" points="433.1,246.2 432,242.9 431,246.2 427.5,246.2 430.3,248.3 429.2,251.6 432,249.5 434.9,251.6 
		433.8,248.3 436.6,246.2 	"/>
	<polygon class="st0" points="452.7,246.2 451.6,242.9 450.5,246.2 447.1,246.2 449.9,248.3 448.8,251.6 451.6,249.5 454.4,251.6 
		453.4,248.3 456.2,246.2 	"/>
	<polygon class="st0" points="472.3,246.2 471.2,242.9 470.1,246.2 466.7,246.2 469.5,248.3 468.4,251.6 471.2,249.5 474,251.6 
		472.9,248.3 475.8,246.2 	"/>
	<polygon class="st0" points="491.9,246.2 490.8,242.9 489.7,246.2 486.2,246.2 489,248.3 488,251.6 490.8,249.5 493.6,251.6 
		492.5,248.3 495.3,246.2 	"/>
	<polygon class="st0" points="511.4,246.2 510.4,242.9 509.3,246.2 505.8,246.2 508.6,248.3 507.6,251.6 510.4,249.5 513.2,251.6 
		512.1,248.3 514.9,246.2 	"/>
	<polygon class="st0" points="412.5,175.8 411.4,179.1 407.9,179.1 410.7,181.1 409.6,184.4 412.5,182.4 415.3,184.4 414.2,181.1 
		417,179.1 413.5,179.1 	"/>
	<rect x="402.4" y="291.8" class="st3" width="295.3" height="12"/>
</g>
<g id="Layer_3">
</g>
</svg>
