<?xml version="1.0" encoding="utf-8"?>
<!-- Generator: Adobe Illustrator 22.1.0, SVG Export Plug-In . SVG Version: 6.00 Build 0)  -->
<svg version="1.1" xmlns="http://www.w3.org/2000/svg" xmlns:xlink="http://www.w3.org/1999/xlink" x="0px" y="0px"
	 viewBox="0 0 1100 650" style="enable-background:new 0 0 1100 650;" xml:space="preserve">
<style type="text/css">
	.st0{fill:#ffffff;}
	.st1{fill:#333333;}
	.st2{fill:#BCBCBC;}
	.st3{fill:#CC2031;}
	.st4{fill:#253572;}
</style>
<g id="bg">
	<g>
		<rect x="1" y="1" style="fill:#f7f7f7;" width="1098" height="648"/>
		<path class="st1" d="M1098,2v646H2V2H1098 M1100,0H0v650h1100V0L1100,0z"/>
	</g>
</g>
<g id="Layer_4">
	<g>
		<path class="st2" d="M829.1,360.5c-0.4,6.8-0.9,13.5-0.9,20.3c0,3.4-1.3,5-4.2,6.7c-20.5,11.5-40.6,23.7-61.5,34.6
			c-6.3,3.3-14.4,3.7-21.8,4.4c-50.8,5.2-101.7,7.3-152.7,4.6c-51.9-2.8-103.4-9-152.9-25.4c-17.4-5.8-33.9-14-50.9-20.9
			c-3.1-1.3-3.6-3.3-3.6-6.4c0-19.1,0-38.2-0.4-57.3c-0.6-29.8,1.4-59.2,11.2-87.6c14.6-42.7,44-71.3,84.8-89
			c25.5-11.1,52.4-16.8,79.9-20.1c1.3-0.2,45.8-6.8,79.9-3.8c18.5,1.6,36.3,6.2,53.9,10.7c33.1,8.4,63.2,22.9,88.2,46.8
			c25,23.9,40.1,53.3,46.6,87.1c2.2,11.5,3.1,23.2,4.5,34.9C829.1,320,829.1,340.3,829.1,360.5z"/>
		<path class="st2" d="M736.4,443.5c-8.5,5.3-16.9,10.9-25.5,15.9c-39.4,22.9-80.3,42.8-125,52.6c-35.3,7.7-71,14.3-106.8,19
			c-36.1,4.8-72.3,1.9-108.1-5.2c-34.4-6.8-67.4-17.8-99.7-31.3c-1.5-0.6-3.1-2-3.8-3.5c-7-13.9-2.5-27.2,7-36.7
			c13.4-13.4,29.9-22.6,46.2-31.8c15.8-8.9,32.1-17.1,48.3-25.3c2-1,5.5-1,7.5,0c37.9,20.2,78.8,30.9,120.8,38.4
			c52.5,9.3,105.6,12.2,158.8,10.9c23.3-0.6,46.6-2.6,69.9-3.9c3.3-0.2,6.5-0.4,9.8-0.6C736,442.5,736.2,443,736.4,443.5z"/>
	</g>
</g>
<g id="Layer_1">
	<g>
		<rect x="467.7" y="263.1" class="st0" width="206.7" height="108.8"/>
	</g>
	<rect x="467.7" y="263.1" class="st3" width="206.7" height="8.4"/>
	<rect x="467.7" y="279.8" class="st3" width="206.7" height="8.4"/>
	<rect x="467.7" y="296.6" class="st3" width="206.7" height="8.4"/>
	<rect x="467.7" y="313.3" class="st3" width="206.7" height="8.4"/>
	<rect x="467.7" y="330.1" class="st3" width="206.7" height="8.4"/>
	<rect x="467.7" y="363.5" class="st3" width="206.7" height="8.4"/>
	<rect x="467.7" y="263.1" class="st4" width="82.7" height="58.6"/>
	<polygon class="st0" points="488.5,265.5 487.7,267.9 485.3,267.9 487.3,269.3 486.5,271.6 488.5,270.2 490.5,271.6 489.7,269.3 
		491.7,267.9 489.2,267.9 	"/>
	<polygon class="st0" points="502.2,265.5 501.4,267.9 499,267.9 501,269.3 500.2,271.6 502.2,270.2 504.2,271.6 503.4,269.3 
		505.4,267.9 503,267.9 	"/>
	<polygon class="st0" points="515.9,265.5 515.2,267.9 512.7,267.9 514.7,269.3 513.9,271.6 515.9,270.2 517.9,271.6 517.1,269.3 
		519.1,267.9 516.7,267.9 	"/>
	<polygon class="st0" points="529.6,265.5 528.9,267.9 526.4,267.9 528.4,269.3 527.7,271.6 529.6,270.2 531.6,271.6 530.8,269.3 
		532.8,267.9 530.4,267.9 	"/>
	<polygon class="st0" points="542.1,269.3 541.4,271.6 543.3,270.2 545.3,271.6 544.5,269.3 546.5,267.9 544.1,267.9 543.3,265.5 
		542.6,267.9 540.1,267.9 	"/>
	<polygon class="st0" points="481.6,271.4 480.9,273.7 478.4,273.7 480.4,275.2 479.7,277.5 481.6,276.1 483.6,277.5 482.9,275.2 
		484.8,273.7 482.4,273.7 	"/>
	<polygon class="st0" points="495.3,271.4 494.6,273.7 492.2,273.7 494.1,275.2 493.4,277.5 495.3,276.1 497.3,277.5 496.6,275.2 
		498.5,273.7 496.1,273.7 	"/>
	<path class="st0" d="M509.1,271.4l-0.8,2.3h-2.4l2,1.4l-0.8,2.3l2-1.4l2,1.4l-0.8-2.3l2-1.4h-2.4L509.1,271.4z M509.1,274.8
		L509.1,274.8L509.1,274.8L509.1,274.8L509.1,274.8z"/>
	<polygon class="st0" points="522.8,271.4 522,273.7 519.6,273.7 521.5,275.2 520.8,277.5 522.8,276.1 524.7,277.5 524,275.2 
		526,273.7 523.5,273.7 	"/>
	<polygon class="st0" points="536.5,271.4 535.7,273.7 533.3,273.7 535.3,275.2 534.5,277.5 536.5,276.1 538.4,277.5 537.7,275.2 
		539.7,273.7 537.2,273.7 	"/>
	<polygon class="st0" points="474.8,277.3 474,279.6 471.6,279.6 473.6,281 472.8,283.4 474.8,281.9 476.7,283.4 476,281 478,279.6 
		475.5,279.6 	"/>
	<polygon class="st0" points="488.5,277.3 487.7,279.6 485.3,279.6 487.3,281 486.5,283.4 488.5,281.9 490.5,283.4 489.7,281 
		491.7,279.6 489.2,279.6 	"/>
	<polygon class="st0" points="502.2,277.3 501.4,279.6 499,279.6 501,281 500.2,283.4 502.2,281.9 504.2,283.4 503.4,281 
		505.4,279.6 503,279.6 	"/>
	<polygon class="st0" points="515.9,277.3 515.2,279.6 512.7,279.6 514.7,281 513.9,283.4 515.9,281.9 517.9,283.4 517.1,281 
		519.1,279.6 516.7,279.6 	"/>
	<polygon class="st0" points="529.6,277.3 528.9,279.6 526.4,279.6 528.4,281 527.7,283.4 529.6,281.9 531.6,283.4 530.8,281 
		532.8,279.6 530.4,279.6 	"/>
	<polygon class="st0" points="543.3,277.3 542.6,279.6 540.1,279.6 542.1,281 541.4,283.4 543.3,281.9 545.3,283.4 544.5,281 
		546.5,279.6 544.1,279.6 	"/>
	<polygon class="st0" points="481.6,283.2 480.9,285.5 478.4,285.5 480.4,286.9 479.7,289.2 481.6,287.8 483.6,289.2 482.9,286.9 
		484.8,285.5 482.4,285.5 	"/>
	<polygon class="st0" points="495.3,283.2 494.6,285.5 492.2,285.5 494.1,286.9 493.4,289.2 495.3,287.8 497.3,289.2 496.6,286.9 
		498.5,285.5 496.1,285.5 	"/>
	<path class="st0" d="M509.1,283.2l-0.8,2.3h-2.4l2,1.4l-0.8,2.3l2-1.4l2,1.4l-0.8-2.3l2-1.4h-2.4L509.1,283.2z M509.1,286.5
		L509.1,286.5L509.1,286.5L509.1,286.5z"/>
	<polygon class="st0" points="522.8,283.2 522,285.5 519.6,285.5 521.5,286.9 520.8,289.2 522.8,287.8 524.7,289.2 524,286.9 
		526,285.5 523.5,285.5 	"/>
	<polygon class="st0" points="536.5,283.2 535.7,285.5 533.3,285.5 535.3,286.9 534.5,289.2 536.5,287.8 538.4,289.2 537.7,286.9 
		539.7,285.5 537.2,285.5 	"/>
	<polygon class="st0" points="474.8,289 474,291.4 471.6,291.4 473.6,292.8 472.8,295.1 474.8,293.7 476.7,295.1 476,292.8 
		478,291.4 475.5,291.4 	"/>
	<polygon class="st0" points="488.5,289 487.7,291.4 485.3,291.4 487.3,292.8 486.5,295.1 488.5,293.7 490.5,295.1 489.7,292.8 
		491.7,291.4 489.2,291.4 	"/>
	<polygon class="st0" points="502.2,289 501.4,291.4 499,291.4 501,292.8 500.2,295.1 502.2,293.7 504.2,295.1 503.4,292.8 
		505.4,291.4 503,291.4 	"/>
	<polygon class="st0" points="515.9,289 515.2,291.4 512.7,291.4 514.7,292.8 513.9,295.1 515.9,293.7 517.9,295.1 517.1,292.8 
		519.1,291.4 516.7,291.4 	"/>
	<polygon class="st0" points="529.6,289 528.9,291.4 526.4,291.4 528.4,292.8 527.7,295.1 529.6,293.7 531.6,295.1 530.8,292.8 
		532.8,291.4 530.4,291.4 	"/>
	<polygon class="st0" points="543.3,289 542.6,291.4 540.1,291.4 542.1,292.8 541.4,295.1 543.3,293.7 545.3,295.1 544.5,292.8 
		546.5,291.4 544.1,291.4 	"/>
	<polygon class="st0" points="481.6,294.9 480.9,297.2 478.4,297.2 480.4,298.7 479.7,301 481.6,299.6 483.6,301 482.9,298.7 
		484.8,297.2 482.4,297.2 	"/>
	<polygon class="st0" points="495.3,294.9 494.6,297.2 492.2,297.2 494.1,298.7 493.4,301 495.3,299.6 497.3,301 496.6,298.7 
		498.5,297.2 496.1,297.2 	"/>
	<polygon class="st0" points="509.1,294.9 508.3,297.2 505.9,297.2 507.8,298.7 507.1,301 509.1,299.6 511,301 510.3,298.7 
		512.2,297.2 509.8,297.2 	"/>
	<polygon class="st0" points="522.8,294.9 522,297.2 519.6,297.2 521.5,298.7 520.8,301 522.8,299.6 524.7,301 524,298.7 526,297.2 
		523.5,297.2 	"/>
	<polygon class="st0" points="536.5,294.9 535.7,297.2 533.3,297.2 535.3,298.7 534.5,301 536.5,299.6 538.4,301 537.7,298.7 
		539.7,297.2 537.2,297.2 	"/>
	<path class="st0" d="M474.8,300.8l-0.8,2.3h-2.4l2,1.4l-0.8,2.3l2-1.4l2,1.4l-0.8-2.3l2-1.4h-2.4L474.8,300.8z M474.8,304.2
		L474.8,304.2L474.8,304.2L474.8,304.2L474.8,304.2z"/>
	<polygon class="st0" points="488.5,300.8 487.7,303.1 485.3,303.1 487.3,304.5 486.5,306.9 488.5,305.4 490.5,306.9 489.7,304.5 
		491.7,303.1 489.2,303.1 	"/>
	<polygon class="st0" points="502.2,300.8 501.4,303.1 499,303.1 501,304.5 500.2,306.9 502.2,305.4 504.2,306.9 503.4,304.5 
		505.4,303.1 503,303.1 	"/>
	<polygon class="st0" points="515.9,300.8 515.2,303.1 512.7,303.1 514.7,304.5 513.9,306.9 515.9,305.4 517.9,306.9 517.1,304.5 
		519.1,303.1 516.7,303.1 	"/>
	<polygon class="st0" points="529.6,300.8 528.9,303.1 526.4,303.1 528.4,304.5 527.7,306.9 529.6,305.4 531.6,306.9 530.8,304.5 
		532.8,303.1 530.4,303.1 	"/>
	<polygon class="st0" points="543.3,300.8 542.6,303.1 540.1,303.1 542.1,304.5 541.4,306.9 543.3,305.4 545.3,306.9 544.5,304.5 
		546.5,303.1 544.1,303.1 	"/>
	<polygon class="st0" points="482.4,309 481.6,306.7 480.9,309 478.4,309 480.4,310.4 479.7,312.7 481.6,311.3 483.6,312.7 
		482.9,310.4 484.8,309 	"/>
	<polygon class="st0" points="496.1,309 495.3,306.7 494.6,309 492.2,309 494.1,310.4 493.4,312.7 495.3,311.3 497.3,312.7 
		496.6,310.4 498.5,309 	"/>
	<polygon class="st0" points="509.8,309 509.1,306.7 508.3,309 505.9,309 507.8,310.4 507.1,312.7 509.1,311.3 511,312.7 
		510.3,310.4 512.2,309 	"/>
	<polygon class="st0" points="523.5,309 522.8,306.7 522,309 519.6,309 521.5,310.4 520.8,312.7 522.8,311.3 524.7,312.7 524,310.4 
		526,309 	"/>
	<polygon class="st0" points="537.2,309 536.5,306.7 535.7,309 533.3,309 535.3,310.4 534.5,312.7 536.5,311.3 538.4,312.7 
		537.7,310.4 539.7,309 	"/>
	<path class="st0" d="M475.5,314.9l-0.8-2.3l-0.8,2.3h-2.4l2,1.4l-0.8,2.3l2-1.4l2,1.4l-0.8-2.3l2-1.4H475.5z M474.8,315.9
		L474.8,315.9L474.8,315.9L474.8,315.9z"/>
	<polygon class="st0" points="489.2,314.9 488.5,312.6 487.7,314.9 485.3,314.9 487.3,316.3 486.5,318.6 488.5,317.2 490.5,318.6 
		489.7,316.3 491.7,314.9 	"/>
	<polygon class="st0" points="503,314.9 502.2,312.6 501.4,314.9 499,314.9 501,316.3 500.2,318.6 502.2,317.2 504.2,318.6 
		503.4,316.3 505.4,314.9 	"/>
	<polygon class="st0" points="516.7,314.9 515.9,312.6 515.2,314.9 512.7,314.9 514.7,316.3 513.9,318.6 515.9,317.2 517.9,318.6 
		517.1,316.3 519.1,314.9 	"/>
	<polygon class="st0" points="530.4,314.9 529.6,312.6 528.9,314.9 526.4,314.9 528.4,316.3 527.7,318.6 529.6,317.2 531.6,318.6 
		530.8,316.3 532.8,314.9 	"/>
	<polygon class="st0" points="544.1,314.9 543.3,312.6 542.6,314.9 540.1,314.9 542.1,316.3 541.4,318.6 543.3,317.2 545.3,318.6 
		544.5,316.3 546.5,314.9 	"/>
	<polygon class="st0" points="474.8,265.5 474,267.9 471.6,267.9 473.6,269.3 472.8,271.6 474.8,270.2 476.7,271.6 476,269.3 
		478,267.9 475.5,267.9 	"/>
	<rect x="467.7" y="346.8" class="st3" width="206.7" height="8.4"/>
</g>
<g id="Layer_3">
</g>
</svg>
