<?xml version="1.0" encoding="utf-8"?>
<!-- Generator: Adobe Illustrator 22.1.0, SVG Export Plug-In . SVG Version: 6.00 Build 0)  -->
<svg version="1.1" id="Layer_1" xmlns="http://www.w3.org/2000/svg" xmlns:xlink="http://www.w3.org/1999/xlink" x="0px" y="0px"
	 viewBox="0 0 1100 650" style="enable-background:new 0 0 1100 650;" xml:space="preserve">
<style type="text/css">
	.st0{fill:#ffffff;}
	.st1{fill:#333333;}
	.st2{fill:#C4B5A3;}
	.st3{fill:#CC2031;}
	.st4{fill:#253572;}
</style>
<path class="st0" d="M1,1h1098v648H1V1z"/>
<path class="st1" d="M1098,2v646H2V2H1098z M1100,0H0v650h1100V0z"/>
<path class="st2" d="M591.1,116.7v41.2h-82.2v-41.2H253V499h94.1V214.6h60.8V539h289.7V214.6h60.8V499H847V116.7L591.1,116.7z"/>
<path class="st0" d="M455.5,236h205v107.9h-205V236z"/>
<path class="st3" d="M455.5,236h205v8.3h-205V236z"/>
<path class="st3" d="M455.5,252.6h205v8.3h-205V252.6z"/>
<path class="st3" d="M455.5,269.2h205v8.3h-205V269.2z"/>
<path class="st3" d="M455.5,285.8h205v8.3h-205V285.8z"/>
<path class="st3" d="M455.5,302.3h205v8.3h-205V302.3z"/>
<path class="st3" d="M455.5,335.5h205v8.3h-205V335.5z"/>
<path class="st4" d="M455.5,236h82v58.1h-82V236z"/>
<g>
	<path class="st0" d="M476.1,238.4l-0.7,2.3H473l1.9,1.4l-0.7,2.3l1.9-1.4l2,1.4l-0.8-2.3l2-1.4h-2.4L476.1,238.4z"/>
	<path class="st0" d="M489.7,238.4l-0.7,2.3h-2.4l1.9,1.4l-0.7,2.3l1.9-1.4l2,1.4l-0.8-2.3l2-1.4h-2.4L489.7,238.4z"/>
	<path class="st0" d="M503.3,238.4l-0.7,2.3h-2.5l2,1.4l-0.7,2.3l1.9-1.4l2,1.4l-0.8-2.3l2-1.4h-2.4L503.3,238.4z"/>
	<path class="st0" d="M516.9,238.4l-0.7,2.3h-2.5l2,1.4l-0.8,2.3l2-1.4l2,1.4l-0.8-2.3l2-1.4h-2.5L516.9,238.4z"/>
	<path class="st0" d="M529.3,242.1l-0.8,2.3l2-1.4l1.9,1.4l-0.7-2.3l2-1.4h-2.5l-0.7-2.3l-0.8,2.3h-2.4L529.3,242.1z"/>
	<path class="st0" d="M469.3,244.2l-0.7,2.3h-2.4l1.9,1.4l-0.7,2.3l1.9-1.4l2,1.4l-0.8-2.3l2-1.4h-2.4L469.3,244.2z"/>
	<path class="st0" d="M482.9,244.2l-0.7,2.3h-2.4l1.9,1.4l-0.7,2.3l1.9-1.4l2,1.4l-0.8-2.3l2-1.4h-2.4L482.9,244.2z"/>
	<path class="st0" d="M496.5,244.2l-0.7,2.3h-2.4l2,1.4l-0.7,2.3l2-1.4l2,1.4l-0.7-2.3l2-1.4h-2.4L496.5,244.2z"/>
	<path class="st0" d="M510.1,244.2l-0.7,2.3h-2.5l2,1.4l-0.7,2.3l1.9-1.4l2,1.4l-0.8-2.3l2-1.4h-2.4L510.1,244.2z"/>
	<path class="st0" d="M523.7,244.2l-0.7,2.3h-2.5l2,1.4l-0.8,2.3l2-1.4l1.9,1.4l-0.7-2.3l2-1.4h-2.5L523.7,244.2z"/>
	<path class="st0" d="M462.5,250l-0.7,2.3h-2.4l1.9,1.4l-0.7,2.3l1.9-1.4l2,1.4l-0.8-2.3l2-1.4h-2.4L462.5,250z"/>
	<path class="st0" d="M476.1,250l-0.7,2.3H473l1.9,1.4l-0.7,2.3l1.9-1.4l2,1.4l-0.8-2.3l2-1.4h-2.4L476.1,250z"/>
	<path class="st0" d="M489.7,250l-0.7,2.3h-2.4l1.9,1.4l-0.7,2.3l1.9-1.4l2,1.4l-0.8-2.3l2-1.4h-2.4L489.7,250z"/>
	<path class="st0" d="M503.3,250l-0.7,2.3h-2.5l2,1.4l-0.7,2.3l1.9-1.4l2,1.4l-0.8-2.3l2-1.4h-2.4L503.3,250z"/>
	<path class="st0" d="M516.9,250l-0.7,2.3h-2.5l2,1.4l-0.8,2.3l2-1.4l2,1.4l-0.8-2.3l2-1.4h-2.5L516.9,250z"/>
	<path class="st0" d="M530.5,250l-0.8,2.3h-2.4l2,1.4l-0.8,2.3l2-1.4l1.9,1.4l-0.7-2.3l2-1.4h-2.5L530.5,250z"/>
	<path class="st0" d="M469.3,255.9l-0.7,2.3h-2.4l1.9,1.4l-0.7,2.3l1.9-1.4l2,1.4l-0.8-2.3l2-1.4h-2.4L469.3,255.9z"/>
	<path class="st0" d="M482.9,255.9l-0.7,2.3h-2.4l1.9,1.4l-0.7,2.3l1.9-1.4l2,1.4l-0.8-2.3l2-1.4h-2.4L482.9,255.9z"/>
	<path class="st0" d="M496.5,255.9l-0.7,2.3h-2.4l2,1.4l-0.7,2.3l2-1.4l2,1.4l-0.7-2.3l2-1.4h-2.4L496.5,255.9z"/>
	<path class="st0" d="M510.1,255.9l-0.7,2.3h-2.5l2,1.4l-0.7,2.3l1.9-1.4l2,1.4l-0.8-2.3l2-1.4h-2.4L510.1,255.9z"/>
	<path class="st0" d="M523.7,255.9l-0.7,2.3h-2.5l2,1.4l-0.8,2.3l2-1.4l1.9,1.4l-0.7-2.3l2-1.4h-2.5L523.7,255.9z"/>
	<path class="st0" d="M462.5,261.7l-0.7,2.3h-2.4l1.9,1.4l-0.7,2.3l1.9-1.4l2,1.4l-0.8-2.3l2-1.4h-2.4L462.5,261.7z"/>
	<path class="st0" d="M476.1,261.7l-0.7,2.3H473l1.9,1.4l-0.7,2.3l1.9-1.4l2,1.4l-0.8-2.3l2-1.4h-2.4L476.1,261.7z"/>
	<path class="st0" d="M489.7,261.7L489,264h-2.4l1.9,1.4l-0.7,2.3l1.9-1.4l2,1.4l-0.8-2.3l2-1.4h-2.4L489.7,261.7z"/>
	<path class="st0" d="M503.3,261.7l-0.7,2.3h-2.5l2,1.4l-0.7,2.3l1.9-1.4l2,1.4l-0.8-2.3l2-1.4h-2.4L503.3,261.7z"/>
	<path class="st0" d="M516.9,261.7l-0.7,2.3h-2.5l2,1.4l-0.8,2.3l2-1.4l2,1.4l-0.8-2.3l2-1.4h-2.5L516.9,261.7z"/>
	<path class="st0" d="M530.5,261.7l-0.8,2.3h-2.4l2,1.4l-0.8,2.3l2-1.4l1.9,1.4l-0.7-2.3l2-1.4h-2.5L530.5,261.7z"/>
	<path class="st0" d="M469.3,267.5l-0.7,2.3h-2.4l1.9,1.4l-0.7,2.3l1.9-1.4l2,1.4l-0.8-2.3l2-1.4h-2.4L469.3,267.5z"/>
	<path class="st0" d="M482.9,267.5l-0.7,2.3h-2.4l1.9,1.4l-0.7,2.3l1.9-1.4l2,1.4l-0.8-2.3l2-1.4h-2.4L482.9,267.5z"/>
	<path class="st0" d="M496.5,267.5l-0.7,2.3h-2.4l1.9,1.4l-0.7,2.3l1.9-1.4l2,1.4l-0.8-2.3l2-1.4h-2.4L496.5,267.5z"/>
	<path class="st0" d="M510.1,267.5l-0.7,2.3h-2.5l2,1.4l-0.7,2.3l1.9-1.4l2,1.4l-0.8-2.3l2-1.4h-2.4L510.1,267.5z"/>
	<path class="st0" d="M523.7,267.5l-0.7,2.3h-2.5l2,1.4l-0.8,2.3l2-1.4l1.9,1.4l-0.7-2.3l2-1.4h-2.5L523.7,267.5z"/>
	<path class="st0" d="M462.5,273.3l-0.7,2.3h-2.4l2,1.4l-0.7,2.3l2-1.4l2,1.4L464,277l2-1.4h-2.4L462.5,273.3z"/>
	<path class="st0" d="M476.1,273.3l-0.7,2.3H473l1.9,1.4l-0.7,2.3l1.9-1.4l2,1.4l-0.8-2.3l2-1.4h-2.4L476.1,273.3z"/>
	<path class="st0" d="M489.7,273.3l-0.7,2.3h-2.4l1.9,1.4l-0.7,2.3l1.9-1.4l2,1.4l-0.8-2.3l2-1.4h-2.4L489.7,273.3z"/>
	<path class="st0" d="M503.3,273.3l-0.7,2.3h-2.5l2,1.4l-0.7,2.3l1.9-1.4l2,1.4l-0.8-2.3l2-1.4h-2.4L503.3,273.3z"/>
	<path class="st0" d="M516.9,273.3l-0.7,2.3h-2.5l2,1.4l-0.8,2.3l2-1.4l2,1.4l-0.8-2.3l2-1.4h-2.5L516.9,273.3z"/>
	<path class="st0" d="M530.5,273.3l-0.8,2.3h-2.4l2,1.4l-0.8,2.3l2-1.4l1.9,1.4l-0.7-2.3l2-1.4h-2.5L530.5,273.3z"/>
	<path class="st0" d="M470.1,281.5l-0.8-2.3l-0.7,2.3h-2.4l1.9,1.4l-0.7,2.3l1.9-1.4l2,1.4l-0.8-2.3l2-1.4H470.1z"/>
	<path class="st0" d="M483.7,281.5l-0.8-2.3l-0.7,2.3h-2.4l1.9,1.4l-0.7,2.3l1.9-1.4l2,1.4l-0.8-2.3l2-1.4H483.7z"/>
	<path class="st0" d="M497.3,281.5l-0.8-2.3l-0.7,2.3h-2.4l1.9,1.4l-0.7,2.3l1.9-1.4l2,1.4l-0.8-2.3l2-1.4H497.3z"/>
	<path class="st0" d="M510.9,281.5l-0.8-2.3l-0.7,2.3h-2.5l2,1.4l-0.7,2.3l1.9-1.4l2,1.4l-0.8-2.3l2-1.4H510.9z"/>
	<path class="st0" d="M524.4,281.5l-0.7-2.3l-0.7,2.3h-2.5l2,1.4l-0.8,2.3l2-1.4l1.9,1.4l-0.7-2.3l2-1.4H524.4z"/>
	<path class="st0" d="M463.3,287.3l-0.7-2.3l-0.7,2.3h-2.4l2,1.4l-0.7,2.3l2-1.4l2,1.4l-0.7-2.3l2-1.4H463.3z"/>
	<path class="st0" d="M476.9,287.3l-0.8-2.3l-0.7,2.3H473l1.9,1.4l-0.7,2.3l1.9-1.4l2,1.4l-0.8-2.3l2-1.4H476.9z"/>
	<path class="st0" d="M490.5,287.3l-0.8-2.3l-0.7,2.3h-2.4l1.9,1.4l-0.7,2.3l1.9-1.4l2,1.4l-0.8-2.3l2-1.4H490.5z"/>
	<path class="st0" d="M504.1,287.3l-0.8-2.3l-0.7,2.3h-2.5l2,1.4l-0.7,2.3l1.9-1.4l2,1.4l-0.8-2.3l2-1.4H504.1z"/>
	<path class="st0" d="M517.6,287.3l-0.7-2.3l-0.7,2.3h-2.5l2,1.4l-0.8,2.3l2-1.4l2,1.4l-0.8-2.3l2-1.4H517.6z"/>
	<path class="st0" d="M531.2,287.3l-0.7-2.3l-0.8,2.3h-2.4l2,1.4l-0.8,2.3l2-1.4l1.9,1.4l-0.7-2.3l2-1.4H531.2z"/>
	<path class="st0" d="M462.5,238.4l-0.7,2.3h-2.4l1.9,1.4l-0.7,2.3l1.9-1.4l2,1.4l-0.8-2.3l2-1.4h-2.4L462.5,238.4z"/>
</g>
<path class="st3" d="M455.5,318.9h205v8.3h-205V318.9z"/>
</svg>
