<?xml version="1.0" encoding="utf-8"?>
<!-- Generator: Adobe Illustrator 22.1.0, SVG Export Plug-In . SVG Version: 6.00 Build 0)  -->
<svg version="1.1" xmlns="http://www.w3.org/2000/svg" xmlns:xlink="http://www.w3.org/1999/xlink" x="0px" y="0px"
	 viewBox="0 0 1100 650" style="enable-background:new 0 0 1100 650;" xml:space="preserve">
<style type="text/css">
	.st0{fill:#ffffff;}
	.st1{fill:#333333;}
	.st2{fill:#BCBCBC;}
	.st3{fill:#CC2031;}
	.st4{fill:#253572;}
</style>
<g id="bg">
	<g>
		<rect x="1" y="1" style="fill:#f7f7f7;" width="1098" height="648"/>
		<path class="st1" d="M1098,2v646H2V2H1098 M1100,0H0v650h1100V0L1100,0z"/>
	</g>
</g>
<g id="Layer_4">
	<polyline class="st2" points="550,180.3 625.3,583.6 707.6,583.6 685.3,66.4 414.7,66.4 392.4,583.6 474.7,583.6 550,180.3 	"/>
	<path class="st2" d="M406.6,575.6"/>
</g>
<g id="Layer_1">
	<g>
		<rect x="422" y="219.2" class="st0" width="104" height="54.8"/>
	</g>
	<rect x="422" y="219.2" class="st3" width="104" height="4.2"/>
	<rect x="422" y="227.7" class="st3" width="104" height="4.2"/>
	<rect x="422" y="236.1" class="st3" width="104" height="4.2"/>
	<rect x="422" y="244.5" class="st3" width="104" height="4.2"/>
	<rect x="422" y="252.9" class="st3" width="104" height="4.2"/>
	<rect x="422" y="269.8" class="st3" width="104" height="4.2"/>
	<rect x="422" y="219.2" class="st4" width="41.6" height="29.5"/>
	<polygon class="st0" points="432.4,220.5 432,221.6 430.8,221.6 431.8,222.3 431.4,223.5 432.4,222.8 433.4,223.5 433,222.3 
		434,221.6 432.8,221.6 	"/>
	<polygon class="st0" points="439.3,220.5 438.9,221.6 437.7,221.6 438.7,222.3 438.3,223.5 439.3,222.8 440.3,223.5 439.9,222.3 
		440.9,221.6 439.7,221.6 	"/>
	<polygon class="st0" points="446.2,220.5 445.8,221.6 444.6,221.6 445.6,222.3 445.2,223.5 446.2,222.8 447.2,223.5 446.8,222.3 
		447.8,221.6 446.6,221.6 	"/>
	<polygon class="st0" points="453.1,220.5 452.7,221.6 451.5,221.6 452.5,222.3 452.1,223.5 453.1,222.8 454.1,223.5 453.7,222.3 
		454.7,221.6 453.5,221.6 	"/>
	<polygon class="st0" points="459.4,222.3 459,223.5 460,222.8 461,223.5 460.6,222.3 461.6,221.6 460.4,221.6 460,220.5 
		459.6,221.6 458.4,221.6 	"/>
	<polygon class="st0" points="429,223.4 428.6,224.6 427.4,224.6 428.4,225.3 428,226.5 429,225.8 430,226.5 429.6,225.3 
		430.6,224.6 429.3,224.6 	"/>
	<polygon class="st0" points="435.9,223.4 435.5,224.6 434.3,224.6 435.3,225.3 434.9,226.5 435.9,225.8 436.9,226.5 436.5,225.3 
		437.5,224.6 436.2,224.6 	"/>
	<path class="st0" d="M442.8,223.4l-0.4,1.2h-1.2l1,0.7l-0.4,1.2l1-0.7l1,0.7l-0.4-1.2l1-0.7h-1.2L442.8,223.4z M442.8,225.1
		L442.8,225.1L442.8,225.1L442.8,225.1L442.8,225.1z"/>
	<polygon class="st0" points="449.7,223.4 449.3,224.6 448.1,224.6 449.1,225.3 448.7,226.5 449.7,225.8 450.7,226.5 450.3,225.3 
		451.3,224.6 450,224.6 	"/>
	<polygon class="st0" points="456.6,223.4 456.2,224.6 455,224.6 456,225.3 455.6,226.5 456.6,225.8 457.6,226.5 457.2,225.3 
		458.2,224.6 456.9,224.6 	"/>
	<polygon class="st0" points="425.5,226.4 425.1,227.5 423.9,227.5 424.9,228.3 424.5,229.4 425.5,228.7 426.5,229.4 426.1,228.3 
		427.1,227.5 425.9,227.5 	"/>
	<polygon class="st0" points="432.4,226.4 432,227.5 430.8,227.5 431.8,228.3 431.4,229.4 432.4,228.7 433.4,229.4 433,228.3 
		434,227.5 432.8,227.5 	"/>
	<polygon class="st0" points="439.3,226.4 438.9,227.5 437.7,227.5 438.7,228.3 438.3,229.4 439.3,228.7 440.3,229.4 439.9,228.3 
		440.9,227.5 439.7,227.5 	"/>
	<polygon class="st0" points="446.2,226.4 445.8,227.5 444.6,227.5 445.6,228.3 445.2,229.4 446.2,228.7 447.2,229.4 446.8,228.3 
		447.8,227.5 446.6,227.5 	"/>
	<polygon class="st0" points="453.1,226.4 452.7,227.5 451.5,227.5 452.5,228.3 452.1,229.4 453.1,228.7 454.1,229.4 453.7,228.3 
		454.7,227.5 453.5,227.5 	"/>
	<polygon class="st0" points="460,226.4 459.6,227.5 458.4,227.5 459.4,228.3 459,229.4 460,228.7 461,229.4 460.6,228.3 
		461.6,227.5 460.4,227.5 	"/>
	<polygon class="st0" points="429,229.3 428.6,230.5 427.4,230.5 428.4,231.2 428,232.4 429,231.7 430,232.4 429.6,231.2 
		430.6,230.5 429.3,230.5 	"/>
	<polygon class="st0" points="435.9,229.3 435.5,230.5 434.3,230.5 435.3,231.2 434.9,232.4 435.9,231.7 436.9,232.4 436.5,231.2 
		437.5,230.5 436.2,230.5 	"/>
	<path class="st0" d="M442.8,229.3l-0.4,1.2h-1.2l1,0.7l-0.4,1.2l1-0.7l1,0.7l-0.4-1.2l1-0.7h-1.2L442.8,229.3z M442.8,231
		L442.8,231L442.8,231L442.8,231z"/>
	<polygon class="st0" points="449.7,229.3 449.3,230.5 448.1,230.5 449.1,231.2 448.7,232.4 449.7,231.7 450.7,232.4 450.3,231.2 
		451.3,230.5 450,230.5 	"/>
	<polygon class="st0" points="456.6,229.3 456.2,230.5 455,230.5 456,231.2 455.6,232.4 456.6,231.7 457.6,232.4 457.2,231.2 
		458.2,230.5 456.9,230.5 	"/>
	<polygon class="st0" points="425.5,232.3 425.1,233.5 423.9,233.5 424.9,234.2 424.5,235.3 425.5,234.6 426.5,235.3 426.1,234.2 
		427.1,233.5 425.9,233.5 	"/>
	<polygon class="st0" points="432.4,232.3 432,233.5 430.8,233.5 431.8,234.2 431.4,235.3 432.4,234.6 433.4,235.3 433,234.2 
		434,233.5 432.8,233.5 	"/>
	<polygon class="st0" points="439.3,232.3 438.9,233.5 437.7,233.5 438.7,234.2 438.3,235.3 439.3,234.6 440.3,235.3 439.9,234.2 
		440.9,233.5 439.7,233.5 	"/>
	<polygon class="st0" points="446.2,232.3 445.8,233.5 444.6,233.5 445.6,234.2 445.2,235.3 446.2,234.6 447.2,235.3 446.8,234.2 
		447.8,233.5 446.6,233.5 	"/>
	<polygon class="st0" points="453.1,232.3 452.7,233.5 451.5,233.5 452.5,234.2 452.1,235.3 453.1,234.6 454.1,235.3 453.7,234.2 
		454.7,233.5 453.5,233.5 	"/>
	<polygon class="st0" points="460,232.3 459.6,233.5 458.4,233.5 459.4,234.2 459,235.3 460,234.6 461,235.3 460.6,234.2 
		461.6,233.5 460.4,233.5 	"/>
	<polygon class="st0" points="429,235.2 428.6,236.4 427.4,236.4 428.4,237.1 428,238.3 429,237.6 430,238.3 429.6,237.1 
		430.6,236.4 429.3,236.4 	"/>
	<polygon class="st0" points="435.9,235.2 435.5,236.4 434.3,236.4 435.3,237.1 434.9,238.3 435.9,237.6 436.9,238.3 436.5,237.1 
		437.5,236.4 436.2,236.4 	"/>
	<polygon class="st0" points="442.8,235.2 442.4,236.4 441.2,236.4 442.2,237.1 441.8,238.3 442.8,237.6 443.8,238.3 443.4,237.1 
		444.4,236.4 443.1,236.4 	"/>
	<polygon class="st0" points="449.7,235.2 449.3,236.4 448.1,236.4 449.1,237.1 448.7,238.3 449.7,237.6 450.7,238.3 450.3,237.1 
		451.3,236.4 450,236.4 	"/>
	<polygon class="st0" points="456.6,235.2 456.2,236.4 455,236.4 456,237.1 455.6,238.3 456.6,237.6 457.6,238.3 457.2,237.1 
		458.2,236.4 456.9,236.4 	"/>
	<path class="st0" d="M425.5,238.2l-0.4,1.2h-1.2l1,0.7l-0.4,1.2l1-0.7l1,0.7l-0.4-1.2l1-0.7h-1.2L425.5,238.2z M425.5,239.9
		L425.5,239.9L425.5,239.9L425.5,239.9L425.5,239.9z"/>
	<polygon class="st0" points="432.4,238.2 432,239.4 430.8,239.4 431.8,240.1 431.4,241.3 432.4,240.5 433.4,241.3 433,240.1 
		434,239.4 432.8,239.4 	"/>
	<polygon class="st0" points="439.3,238.2 438.9,239.4 437.7,239.4 438.7,240.1 438.3,241.3 439.3,240.5 440.3,241.3 439.9,240.1 
		440.9,239.4 439.7,239.4 	"/>
	<polygon class="st0" points="446.2,238.2 445.8,239.4 444.6,239.4 445.6,240.1 445.2,241.3 446.2,240.5 447.2,241.3 446.8,240.1 
		447.8,239.4 446.6,239.4 	"/>
	<polygon class="st0" points="453.1,238.2 452.7,239.4 451.5,239.4 452.5,240.1 452.1,241.3 453.1,240.5 454.1,241.3 453.7,240.1 
		454.7,239.4 453.5,239.4 	"/>
	<polygon class="st0" points="460,238.2 459.6,239.4 458.4,239.4 459.4,240.1 459,241.3 460,240.5 461,241.3 460.6,240.1 
		461.6,239.4 460.4,239.4 	"/>
	<polygon class="st0" points="429.3,242.3 429,241.2 428.6,242.3 427.4,242.3 428.4,243 428,244.2 429,243.5 430,244.2 429.6,243 
		430.6,242.3 	"/>
	<polygon class="st0" points="436.2,242.3 435.9,241.2 435.5,242.3 434.3,242.3 435.3,243 434.9,244.2 435.9,243.5 436.9,244.2 
		436.5,243 437.5,242.3 	"/>
	<polygon class="st0" points="443.1,242.3 442.8,241.2 442.4,242.3 441.2,242.3 442.2,243 441.8,244.2 442.8,243.5 443.8,244.2 
		443.4,243 444.4,242.3 	"/>
	<polygon class="st0" points="450,242.3 449.7,241.2 449.3,242.3 448.1,242.3 449.1,243 448.7,244.2 449.7,243.5 450.7,244.2 
		450.3,243 451.3,242.3 	"/>
	<polygon class="st0" points="456.9,242.3 456.6,241.2 456.2,242.3 455,242.3 456,243 455.6,244.2 456.6,243.5 457.6,244.2 
		457.2,243 458.2,242.3 	"/>
	<path class="st0" d="M425.9,245.3l-0.4-1.2l-0.4,1.2h-1.2l1,0.7l-0.4,1.2l1-0.7l1,0.7l-0.4-1.2l1-0.7H425.9z M425.5,245.8
		L425.5,245.8L425.5,245.8L425.5,245.8z"/>
	<polygon class="st0" points="432.8,245.3 432.4,244.1 432,245.3 430.8,245.3 431.8,246 431.4,247.2 432.4,246.4 433.4,247.2 
		433,246 434,245.3 	"/>
	<polygon class="st0" points="439.7,245.3 439.3,244.1 438.9,245.3 437.7,245.3 438.7,246 438.3,247.2 439.3,246.4 440.3,247.2 
		439.9,246 440.9,245.3 	"/>
	<polygon class="st0" points="446.6,245.3 446.2,244.1 445.8,245.3 444.6,245.3 445.6,246 445.2,247.2 446.2,246.4 447.2,247.2 
		446.8,246 447.8,245.3 	"/>
	<polygon class="st0" points="453.5,245.3 453.1,244.1 452.7,245.3 451.5,245.3 452.5,246 452.1,247.2 453.1,246.4 454.1,247.2 
		453.7,246 454.7,245.3 	"/>
	<polygon class="st0" points="460.4,245.3 460,244.1 459.6,245.3 458.4,245.3 459.4,246 459,247.2 460,246.4 461,247.2 460.6,246 
		461.6,245.3 	"/>
	<polygon class="st0" points="425.5,220.5 425.1,221.6 423.9,221.6 424.9,222.3 424.5,223.5 425.5,222.8 426.5,223.5 426.1,222.3 
		427.1,221.6 425.9,221.6 	"/>
	<rect x="422" y="261.4" class="st3" width="104" height="4.2"/>
</g>
<g id="Layer_3">
</g>
</svg>
