<?xml version="1.0" encoding="utf-8"?>
<!-- Generator: Adobe Illustrator 22.1.0, SVG Export Plug-In . SVG Version: 6.00 Build 0)  -->
<svg version="1.1" id="Layer_1" xmlns="http://www.w3.org/2000/svg" xmlns:xlink="http://www.w3.org/1999/xlink" x="0px" y="0px"
	 viewBox="0 0 1100 650" style="enable-background:new 0 0 1100 650;" xml:space="preserve">
<style type="text/css">
	.st0{fill:#F7F7F7;}
	.st1{fill:#333333;}
	.st2{fill:#282828;}
</style>
<g id="bg">
	<g>
		<rect x="1" y="1" class="st0" width="1098" height="648"/>
		<path class="st1" d="M1098,2v646H2V2H1098 M1100,0H0v650h1100V0L1100,0z"/>
	</g>
</g>
<g>
	<path class="st2" d="M736.4,279.2c-13.9,17.7-28.2,33.7-49.8,39.2c-27.6,7-55.5,13.2-83.5,18c-36.9,6.4-74.1,11.4-111.2,16.7
		c-44.7,6.3-85.5,21.5-116.3,55.7c-12.2,13.5-21.3,30-30.9,45.7c-3.7,6-7,8.1-13.9,7.1c-31.7-4.6-61.2-15.3-89.3-30.1
		c-20.2-10.7-40-22.1-56.3-38.6c-3.6-3.7-4.2-7.2-4-12.2c0.8-19.5,10.9-30.8,28.9-37.2c13.3-4.7,26.7-8.1,40.7-6.1
		c18.8,2.6,36.8-0.2,54.7-5.6c21.9-6.6,44-12.6,65.6-20.1c9.2-3.2,18-8.5,26-14.3c9.3-6.8,18.7-12.2,30.4-13.7
		c4.6-0.6,9.7-3.5,13.1-6.9c8.4-8.4,16.9-15.5,29.4-16.7c2.9-0.3,6.4-3.5,8.2-6.2c6.4-9.7,15.2-14.9,26.3-17
		c7.7-1.4,15.4-4,19.3-11.3c9.5-17.4,25.7-19.6,42.5-17.9c23.7,2.5,46.1,10.6,66.5,23c13.5,8.3,26.4,17.7,39.4,26.9
		c16.8,11.8,35.6,18.1,55.8,20.6C730.2,278.4,732.7,278.7,736.4,279.2z"/>
	<path class="st2" d="M906.8,401.9c-14.1,9.3-27.6,19.7-44.6,21.9c-19.8,2.5-39.9,5.2-59.7,4.5c-62.1-2.2-123.7,2.8-185.2,9.6
		c-62.3,6.8-124.4,14.8-186.7,21.8c-17,1.9-34.2,2.2-52.1,3.3c16-31.6,39.6-53.6,69.7-68.9c22-11.2,45.8-16.4,70-20.2
		c56.3-9,112.4-19,168.7-27.8c38.2-5.9,64-28.3,83.6-59.6c3.4-5.4,6.8-9.1,13.8-10.4c11.6-2.2,18.5-11.4,24.6-20.8
		c6.7-10.3,12.9-21,19.9-31.2c8-11.7,12.3-12.1,23.9-4.3c11.3,7.6,18.3,17.6,19.6,31.5c0.4,3.8,1.2,7.7,2.6,11.2
		c12.9,31.7,15.4,65.3,18.2,98.9c0.3,3.8,0.6,7.7,0.9,11.5c0.6,9,0.8,18.1,9.6,23.8C905.1,397.6,905.6,399.7,906.8,401.9z"/>
	<path class="st2" d="M180.6,400.7C204.7,423,233.2,438,263,451c32.5,14.2,66.2,21.2,101.8,20.5c64.8-1.3,129-8.8,193.1-17.8
		c68.7-9.6,137.6-16.5,207-17.5c21.8-0.3,43.6,0.6,65.4,0.2c27-0.5,52.5-6.5,74.6-22.9c1-0.7,2.2-1.2,3-1.6
		c4.3,7.3,8.7,14.1,12.4,21.2c1.2,2.4,1.7,6.3,0.6,8.5c-2.7,5.7-5.6,12-10.1,16.1c-16.6,15.3-35,27.8-57.8,32.2
		c-32.4,6.2-65.3,9.7-98.1,6.6c-90.2-8.4-179.9-4.1-269.6,5.6c-47.5,5.1-95.2,5.6-143,1.9c-24.4-1.9-47.9-7.1-69.1-19.4
		c-23.5-13.6-47-27.3-69.3-42.9c-9-6.3-15-17.2-21.6-26.6c-2.6-3.7-2.7-9-3.9-13.6C179.2,401.2,179.9,401,180.6,400.7z"/>
	<path class="st2" d="M768,280.7c-10.8,12.2-21.2,24.9-32.5,36.6c-8.5,8.8-19.5,14-31.4,17.1c-54.8,14.2-110.8,21.7-166.7,30.1
		c-22.5,3.4-45.4,6.7-67.1,13.3c-41.9,12.7-74.5,38.4-95.6,77.5c-3.1,5.7-6.7,8.5-13.3,7.6c-4-0.6-8.1-0.2-14.1-0.3
		c6.8-11.3,12.4-21.8,19.1-31.6c25.6-37.6,62.3-58.4,105.9-67.1c28.2-5.6,56.9-8.2,85.3-13c38.7-6.7,77.3-14.3,115.9-21.4
		c26.3-4.9,47.2-18.7,63.1-39.6c6.3-8.2,12.8-12.5,22.9-11.1c2.2,0.3,4.6-0.1,6.9-0.2C766.9,279.4,767.4,280.1,768,280.7z"/>
	<path class="st2" d="M652.8,231.9c-30.3-19.1-63.3-34.2-102.4-34c6.5-14.3,15.7-26.2,27.3-35.6c8.3-6.7,18.1-11.5,27.2-17.2
		c4.5-2.8,8.4-1.7,11.4,2.4c2.9,3.9,6.2,7.7,8,12.1C634.2,183.8,643.5,208,652.8,231.9z"/>
</g>
<g id="Layer_3">
</g>
</svg>
