<?xml version="1.0" encoding="utf-8"?>
<!-- Generator: Adobe Illustrator 22.1.0, SVG Export Plug-In . SVG Version: 6.00 Build 0)  -->
<svg version="1.1" id="Layer_1" xmlns="http://www.w3.org/2000/svg" xmlns:xlink="http://www.w3.org/1999/xlink" x="0px" y="0px"
	 viewBox="0 0 1100 650" style="enable-background:new 0 0 1100 650;" xml:space="preserve">
<style type="text/css">
	.st0{fill:#F7F7F7;}
	.st1{fill:#333333;}
	.st2{fill:#282828;}
	.st3{fill:#FFFFFF;}
	.st4{fill:#CC2031;}
	.st5{fill:#253572;}
</style>
<g id="bg">
	<g>
		<rect x="1" y="1" class="st0" width="1098" height="648"/>
		<path class="st1" d="M1098,2v646H2V2H1098 M1100,0H0v650h1100V0L1100,0z"/>
	</g>
</g>
<g>
	<path class="st2" d="M736.4,279.2c-13.9,17.7-28.2,33.7-49.8,39.2c-27.6,7-55.5,13.2-83.5,18c-36.9,6.4-74.1,11.4-111.2,16.7
		c-44.7,6.3-85.5,21.5-116.3,55.7c-12.2,13.5-21.3,30-30.9,45.7c-3.7,6-7,8.1-13.9,7.1c-31.7-4.6-61.2-15.3-89.3-30.1
		c-20.2-10.7-40-22.1-56.3-38.6c-3.6-3.7-4.2-7.2-4-12.2c0.8-19.5,10.9-30.8,28.9-37.2c13.3-4.7,26.7-8.1,40.7-6.1
		c18.8,2.6,36.8-0.2,54.7-5.6c21.9-6.6,44-12.6,65.6-20.1c9.2-3.2,18-8.5,26-14.3c9.3-6.8,18.7-12.2,30.4-13.7
		c4.6-0.6,9.7-3.5,13.1-6.9c8.4-8.4,16.9-15.5,29.4-16.7c2.9-0.3,6.4-3.5,8.2-6.2c6.4-9.7,15.2-14.9,26.3-17
		c7.7-1.4,15.4-4,19.3-11.3c9.5-17.4,25.7-19.6,42.5-17.9c23.7,2.5,46.1,10.6,66.5,23c13.5,8.3,26.4,17.7,39.4,26.9
		c16.8,11.8,35.6,18.1,55.8,20.6C730.2,278.4,732.7,278.7,736.4,279.2z"/>
	<path class="st2" d="M906.8,401.9c-14.1,9.3-27.6,19.7-44.6,21.9c-19.8,2.5-39.9,5.2-59.7,4.5c-62.1-2.2-123.7,2.8-185.2,9.6
		c-62.3,6.8-124.4,14.8-186.7,21.8c-17,1.9-34.2,2.2-52.1,3.3c16-31.6,39.6-53.6,69.7-68.9c22-11.2,45.8-16.4,70-20.2
		c56.3-9,112.4-19,168.7-27.8c38.2-5.9,64-28.3,83.6-59.6c3.4-5.4,6.8-9.1,13.8-10.4c11.6-2.2,18.5-11.4,24.6-20.8
		c6.7-10.3,12.9-21,19.9-31.2c8-11.7,12.3-12.1,23.9-4.3c11.3,7.6,18.3,17.6,19.6,31.5c0.4,3.8,1.2,7.7,2.6,11.2
		c12.9,31.7,15.4,65.3,18.2,98.9c0.3,3.8,0.6,7.7,0.9,11.5c0.6,9,0.8,18.1,9.6,23.8C905.1,397.6,905.6,399.7,906.8,401.9z"/>
	<path class="st2" d="M180.6,400.7C204.7,423,233.2,438,263,451c32.5,14.2,66.2,21.2,101.8,20.5c64.8-1.3,129-8.8,193.1-17.8
		c68.7-9.6,137.6-16.5,207-17.5c21.8-0.3,43.6,0.6,65.4,0.2c27-0.5,52.5-6.5,74.6-22.9c1-0.7,2.2-1.2,3-1.6
		c4.3,7.3,8.7,14.1,12.4,21.2c1.2,2.4,1.7,6.3,0.6,8.5c-2.7,5.7-5.6,12-10.1,16.1c-16.6,15.3-35,27.8-57.8,32.2
		c-32.4,6.2-65.3,9.7-98.1,6.6c-90.2-8.4-179.9-4.1-269.6,5.6c-47.5,5.1-95.2,5.6-143,1.9c-24.4-1.9-47.9-7.1-69.1-19.4
		c-23.5-13.6-47-27.3-69.3-42.9c-9-6.3-15-17.2-21.6-26.6c-2.6-3.7-2.7-9-3.9-13.6C179.2,401.2,179.9,401,180.6,400.7z"/>
	<path class="st2" d="M768,280.7c-10.8,12.2-21.2,24.9-32.5,36.6c-8.5,8.8-19.5,14-31.4,17.1c-54.8,14.2-110.8,21.7-166.7,30.1
		c-22.5,3.4-45.4,6.7-67.1,13.3c-41.9,12.7-74.5,38.4-95.6,77.5c-3.1,5.7-6.7,8.5-13.3,7.6c-4-0.6-8.1-0.2-14.1-0.3
		c6.8-11.3,12.4-21.8,19.1-31.6c25.6-37.6,62.3-58.4,105.9-67.1c28.2-5.6,56.9-8.2,85.3-13c38.7-6.7,77.3-14.3,115.9-21.4
		c26.3-4.9,47.2-18.7,63.1-39.6c6.3-8.2,12.8-12.5,22.9-11.1c2.2,0.3,4.6-0.1,6.9-0.2C766.9,279.4,767.4,280.1,768,280.7z"/>
	<path class="st2" d="M652.8,231.9c-30.3-19.1-63.3-34.2-102.4-34c6.5-14.3,15.7-26.2,27.3-35.6c8.3-6.7,18.1-11.5,27.2-17.2
		c4.5-2.8,8.4-1.7,11.4,2.4c2.9,3.9,6.2,7.7,8,12.1C634.2,183.8,643.5,208,652.8,231.9z"/>
</g>
<g id="Layer_1_1_">
	<g>
		<rect x="472.8" y="293" class="st3" width="230" height="121.1"/>
	</g>
	<rect x="472.8" y="293" class="st4" width="230" height="9.3"/>
	<rect x="472.8" y="311.6" class="st4" width="230" height="9.3"/>
	<rect x="472.8" y="330.3" class="st4" width="230" height="9.3"/>
	<rect x="472.8" y="348.8" class="st4" width="230" height="9.3"/>
	<rect x="472.8" y="367.5" class="st4" width="230" height="9.3"/>
	<rect x="472.8" y="404.7" class="st4" width="230" height="9.3"/>
	<rect x="472.8" y="293" class="st5" width="92" height="65.2"/>
	<polygon class="st3" points="495.9,295.6 495,298.3 492.4,298.3 494.6,299.9 493.7,302.4 495.9,300.9 498.1,302.4 497.3,299.9 
		499.5,298.3 496.7,298.3 	"/>
	<polygon class="st3" points="511.2,295.6 510.3,298.3 507.6,298.3 509.8,299.9 508.9,302.4 511.2,300.9 513.4,302.4 512.5,299.9 
		514.7,298.3 512.1,298.3 	"/>
	<polygon class="st3" points="526.4,295.6 525.6,298.3 522.8,298.3 525.1,299.9 524.2,302.4 526.4,300.9 528.6,302.4 527.7,299.9 
		530,298.3 527.3,298.3 	"/>
	<polygon class="st3" points="541.7,295.6 540.9,298.3 538.1,298.3 540.3,299.9 539.5,302.4 541.7,300.9 543.9,302.4 543,299.9 
		545.2,298.3 542.5,298.3 	"/>
	<polygon class="st3" points="555.6,299.9 554.8,302.4 556.9,300.9 559.1,302.4 558.2,299.9 560.5,298.3 557.8,298.3 556.9,295.6 
		556.1,298.3 553.3,298.3 	"/>
	<polygon class="st3" points="488.2,302.2 487.5,304.8 484.7,304.8 486.9,306.4 486.1,309 488.2,307.4 490.5,309 489.7,306.4 
		491.8,304.8 489.1,304.8 	"/>
	<polygon class="st3" points="503.5,302.2 502.7,304.8 500,304.8 502.1,306.4 501.4,309 503.5,307.4 505.7,309 504.9,306.4 
		507,304.8 504.4,304.8 	"/>
	<path class="st3" d="M518.8,302.2l-0.9,2.6h-2.7l2.2,1.6l-0.9,2.6l2.2-1.6l2.2,1.6l-0.9-2.6l2.2-1.6h-2.7L518.8,302.2z M518.8,306
		L518.8,306L518.8,306L518.8,306L518.8,306z"/>
	<polygon class="st3" points="534.1,302.2 533.2,304.8 530.5,304.8 532.6,306.4 531.9,309 534.1,307.4 536.2,309 535.4,306.4 
		537.6,304.8 534.9,304.8 	"/>
	<polygon class="st3" points="549.3,302.2 548.4,304.8 545.8,304.8 548,306.4 547.1,309 549.3,307.4 551.4,309 550.7,306.4 
		552.9,304.8 550.1,304.8 	"/>
	<polygon class="st3" points="480.7,308.8 479.8,311.3 477.1,311.3 479.3,312.9 478.4,315.6 480.7,313.9 482.8,315.6 482,312.9 
		484.2,311.3 481.4,311.3 	"/>
	<polygon class="st3" points="495.9,308.8 495,311.3 492.4,311.3 494.6,312.9 493.7,315.6 495.9,313.9 498.1,315.6 497.3,312.9 
		499.5,311.3 496.7,311.3 	"/>
	<polygon class="st3" points="511.2,308.8 510.3,311.3 507.6,311.3 509.8,312.9 508.9,315.6 511.2,313.9 513.4,315.6 512.5,312.9 
		514.7,311.3 512.1,311.3 	"/>
	<polygon class="st3" points="526.4,308.8 525.6,311.3 522.8,311.3 525.1,312.9 524.2,315.6 526.4,313.9 528.6,315.6 527.7,312.9 
		530,311.3 527.3,311.3 	"/>
	<polygon class="st3" points="541.7,308.8 540.9,311.3 538.1,311.3 540.3,312.9 539.5,315.6 541.7,313.9 543.9,315.6 543,312.9 
		545.2,311.3 542.5,311.3 	"/>
	<polygon class="st3" points="556.9,308.8 556.1,311.3 553.3,311.3 555.6,312.9 554.8,315.6 556.9,313.9 559.1,315.6 558.2,312.9 
		560.5,311.3 557.8,311.3 	"/>
	<polygon class="st3" points="488.2,315.3 487.5,317.9 484.7,317.9 486.9,319.5 486.1,322 488.2,320.5 490.5,322 489.7,319.5 
		491.8,317.9 489.1,317.9 	"/>
	<polygon class="st3" points="503.5,315.3 502.7,317.9 500,317.9 502.1,319.5 501.4,322 503.5,320.5 505.7,322 504.9,319.5 
		507,317.9 504.4,317.9 	"/>
	<path class="st3" d="M518.8,315.3l-0.9,2.6h-2.7l2.2,1.6l-0.9,2.6l2.2-1.6l2.2,1.6l-0.9-2.6l2.2-1.6h-2.7L518.8,315.3z M518.8,319
		L518.8,319L518.8,319L518.8,319z"/>
	<polygon class="st3" points="534.1,315.3 533.2,317.9 530.5,317.9 532.6,319.5 531.9,322 534.1,320.5 536.2,322 535.4,319.5 
		537.6,317.9 534.9,317.9 	"/>
	<polygon class="st3" points="549.3,315.3 548.4,317.9 545.8,317.9 548,319.5 547.1,322 549.3,320.5 551.4,322 550.7,319.5 
		552.9,317.9 550.1,317.9 	"/>
	<polygon class="st3" points="480.7,321.8 479.8,324.5 477.1,324.5 479.3,326 478.4,328.6 480.7,327 482.8,328.6 482,326 
		484.2,324.5 481.4,324.5 	"/>
	<polygon class="st3" points="495.9,321.8 495,324.5 492.4,324.5 494.6,326 493.7,328.6 495.9,327 498.1,328.6 497.3,326 
		499.5,324.5 496.7,324.5 	"/>
	<polygon class="st3" points="511.2,321.8 510.3,324.5 507.6,324.5 509.8,326 508.9,328.6 511.2,327 513.4,328.6 512.5,326 
		514.7,324.5 512.1,324.5 	"/>
	<polygon class="st3" points="526.4,321.8 525.6,324.5 522.8,324.5 525.1,326 524.2,328.6 526.4,327 528.6,328.6 527.7,326 
		530,324.5 527.3,324.5 	"/>
	<polygon class="st3" points="541.7,321.8 540.9,324.5 538.1,324.5 540.3,326 539.5,328.6 541.7,327 543.9,328.6 543,326 
		545.2,324.5 542.5,324.5 	"/>
	<polygon class="st3" points="556.9,321.8 556.1,324.5 553.3,324.5 555.6,326 554.8,328.6 556.9,327 559.1,328.6 558.2,326 
		560.5,324.5 557.8,324.5 	"/>
	<polygon class="st3" points="488.2,328.4 487.5,330.9 484.7,330.9 486.9,332.6 486.1,335.2 488.2,333.6 490.5,335.2 489.7,332.6 
		491.8,330.9 489.1,330.9 	"/>
	<polygon class="st3" points="503.5,328.4 502.7,330.9 500,330.9 502.1,332.6 501.4,335.2 503.5,333.6 505.7,335.2 504.9,332.6 
		507,330.9 504.4,330.9 	"/>
	<polygon class="st3" points="518.8,328.4 518,330.9 515.3,330.9 517.4,332.6 516.6,335.2 518.8,333.6 521,335.2 520.2,332.6 
		522.3,330.9 519.6,330.9 	"/>
	<polygon class="st3" points="534.1,328.4 533.2,330.9 530.5,330.9 532.6,332.6 531.9,335.2 534.1,333.6 536.2,335.2 535.4,332.6 
		537.6,330.9 534.9,330.9 	"/>
	<polygon class="st3" points="549.3,328.4 548.4,330.9 545.8,330.9 548,332.6 547.1,335.2 549.3,333.6 551.4,335.2 550.7,332.6 
		552.9,330.9 550.1,330.9 	"/>
	<path class="st3" d="M480.7,334.9l-0.9,2.6h-2.7l2.2,1.6l-0.9,2.6l2.2-1.6l2.2,1.6L482,339l2.2-1.6h-2.7L480.7,334.9z M480.7,338.7
		L480.7,338.7L480.7,338.7L480.7,338.7L480.7,338.7z"/>
	<polygon class="st3" points="495.9,334.9 495,337.5 492.4,337.5 494.6,339 493.7,341.7 495.9,340.1 498.1,341.7 497.3,339 
		499.5,337.5 496.7,337.5 	"/>
	<polygon class="st3" points="511.2,334.9 510.3,337.5 507.6,337.5 509.8,339 508.9,341.7 511.2,340.1 513.4,341.7 512.5,339 
		514.7,337.5 512.1,337.5 	"/>
	<polygon class="st3" points="526.4,334.9 525.6,337.5 522.8,337.5 525.1,339 524.2,341.7 526.4,340.1 528.6,341.7 527.7,339 
		530,337.5 527.3,337.5 	"/>
	<polygon class="st3" points="541.7,334.9 540.9,337.5 538.1,337.5 540.3,339 539.5,341.7 541.7,340.1 543.9,341.7 543,339 
		545.2,337.5 542.5,337.5 	"/>
	<polygon class="st3" points="556.9,334.9 556.1,337.5 553.3,337.5 555.6,339 554.8,341.7 556.9,340.1 559.1,341.7 558.2,339 
		560.5,337.5 557.8,337.5 	"/>
	<polygon class="st3" points="489.1,344.1 488.2,341.5 487.5,344.1 484.7,344.1 486.9,345.6 486.1,348.2 488.2,346.6 490.5,348.2 
		489.7,345.6 491.8,344.1 	"/>
	<polygon class="st3" points="504.4,344.1 503.5,341.5 502.7,344.1 500,344.1 502.1,345.6 501.4,348.2 503.5,346.6 505.7,348.2 
		504.9,345.6 507,344.1 	"/>
	<polygon class="st3" points="519.6,344.1 518.8,341.5 518,344.1 515.3,344.1 517.4,345.6 516.6,348.2 518.8,346.6 521,348.2 
		520.2,345.6 522.3,344.1 	"/>
	<polygon class="st3" points="534.9,344.1 534.1,341.5 533.2,344.1 530.5,344.1 532.6,345.6 531.9,348.2 534.1,346.6 536.2,348.2 
		535.4,345.6 537.6,344.1 	"/>
	<polygon class="st3" points="550.1,344.1 549.3,341.5 548.4,344.1 545.8,344.1 548,345.6 547.1,348.2 549.3,346.6 551.4,348.2 
		550.7,345.6 552.9,344.1 	"/>
	<path class="st3" d="M481.4,350.6l-0.9-2.6l-0.9,2.6H477l2.2,1.6l-0.9,2.6l2.2-1.6l2.2,1.6l-0.9-2.6l2.2-1.6H481.4z M480.7,351.7
		L480.7,351.7L480.7,351.7L480.7,351.7z"/>
	<polygon class="st3" points="496.7,350.6 495.9,348.1 495,350.6 492.4,350.6 494.6,352.2 493.7,354.7 495.9,353.2 498.1,354.7 
		497.3,352.2 499.5,350.6 	"/>
	<polygon class="st3" points="512.1,350.6 511.2,348.1 510.3,350.6 507.6,350.6 509.8,352.2 508.9,354.7 511.2,353.2 513.4,354.7 
		512.5,352.2 514.7,350.6 	"/>
	<polygon class="st3" points="527.3,350.6 526.4,348.1 525.6,350.6 522.8,350.6 525.1,352.2 524.2,354.7 526.4,353.2 528.6,354.7 
		527.7,352.2 530,350.6 	"/>
	<polygon class="st3" points="542.5,350.6 541.7,348.1 540.9,350.6 538.1,350.6 540.3,352.2 539.5,354.7 541.7,353.2 543.9,354.7 
		543,352.2 545.2,350.6 	"/>
	<polygon class="st3" points="557.8,350.6 556.9,348.1 556.1,350.6 553.3,350.6 555.6,352.2 554.8,354.7 556.9,353.2 559.1,354.7 
		558.2,352.2 560.5,350.6 	"/>
	<polygon class="st3" points="480.7,295.6 479.8,298.3 477.1,298.3 479.3,299.9 478.4,302.4 480.7,300.9 482.8,302.4 482,299.9 
		484.2,298.3 481.4,298.3 	"/>
	<rect x="472.8" y="386.1" class="st4" width="230" height="9.3"/>
</g>
<g id="Layer_3">
</g>
</svg>
