<?xml version="1.0" encoding="utf-8"?>
<!-- Generator: Adobe Illustrator 22.1.0, SVG Export Plug-In . SVG Version: 6.00 Build 0)  -->
<svg version="1.1" xmlns="http://www.w3.org/2000/svg" xmlns:xlink="http://www.w3.org/1999/xlink" x="0px" y="0px"
	 viewBox="0 0 1100 650" style="enable-background:new 0 0 1100 650;" xml:space="preserve">
<style type="text/css">
	.st0{fill:#f7f7f7;}
	.st1{fill:#333333;}
	.st2{fill:#FFFFFF;}
	.st3{fill:#005293;}
	.st4{fill:#D21034;}
</style>
<g id="Layer_1">
	<g id="Layer_2_1_">
		<g>
			<rect x="1" y="1" style="fill:#f7f7f7;" width="1098" height="648"/>
			<path class="st1" d="M1098,2v646H2V2H1098 M1100,0H0v650h1100V0L1100,0z"/>
		</g>
	</g>
</g>
<g id="Layer_2">
	<rect x="175" y="75" class="st2" width="750" height="500"/>
	<g>
		<g>
			<polygon class="st3" points="385.2,207.4 421.9,180.7 376.5,180.7 362.5,137.5 348.5,180.7 303.1,180.7 339.8,207.4 325.8,250.6 
				362.5,223.9 399.2,250.6 			"/>
			<rect x="175" y="325" class="st3" width="375" height="250"/>
		</g>
		<g>
			<rect x="550" y="75" class="st4" width="375" height="250"/>
			<polygon class="st4" points="760.2,457.4 796.9,430.7 751.5,430.7 737.5,387.5 723.5,430.7 678.1,430.7 714.8,457.4 700.8,500.6 
				737.5,473.9 774.2,500.6 			"/>
		</g>
	</g>
</g>
</svg>
