<?xml version="1.0" encoding="utf-8"?>
<!-- Generator: Adobe Illustrator 22.1.0, SVG Export Plug-In . SVG Version: 6.00 Build 0)  -->
<svg version="1.1" id="Layer_1" xmlns="http://www.w3.org/2000/svg" xmlns:xlink="http://www.w3.org/1999/xlink" x="0px" y="0px"
	 viewBox="0 0 1100 650" style="enable-background:new 0 0 1100 650;" xml:space="preserve">
<style type="text/css">
	.st0{fill:#ffffff;}
	.st1{fill:#333333;}
	.st2{fill:#CD2031;}
	.st3{fill:#243672;}
</style>
<g id="Layer_1_1_">
	<g id="Layer_2_1_">
		<g>
			<rect x="1" y="1" style="fill:#f7f7f7;" width="1098" height="648"/>
			<path class="st1" d="M1098,2v646H2V2H1098 M1100,0H0v650h1100V0L1100,0z"/>
		</g>
	</g>
</g>
<rect x="55" y="50" class="st2" width="990" height="550"/>
<rect x="55" y="233.3" class="st0" width="990" height="183.3"/>
<rect x="55" y="50" class="st3" width="366.7" height="366.7"/>
<polyline class="st0" points="238.3,78.1 230,103.7 242.8,107.8 "/>
<polyline class="st0" points="238.3,78.1 246.6,103.7 233.9,107.8 "/>
<polyline class="st0" points="263.9,96.7 237,96.7 237,110.1 "/>
<polyline class="st0" points="263.9,96.7 242.2,112.5 234.3,101.6 "/>
<polyline class="st0" points="254.1,126.8 245.8,101.2 233,105.3 "/>
<polyline class="st0" points="254.1,126.8 232.4,110.9 240.3,100.1 "/>
<polyline class="st0" points="222.5,126.8 244.3,110.9 236.4,100.1 "/>
<polyline class="st0" points="222.5,126.8 230.8,101.2 243.6,105.3 "/>
<polyline class="st0" points="212.8,96.7 234.5,112.5 242.4,101.6 "/>
<polyline class="st0" points="212.8,96.7 239.7,96.7 239.7,110.1 "/>
<polyline class="st0" points="310.5,95.9 291.2,114.7 300.6,124.3 "/>
<polyline class="st0" points="310.5,95.9 305.9,122.4 292.7,120.1 "/>
<polyline class="st0" points="324.5,124.2 300.7,111.7 294.4,123.6 "/>
<polyline class="st0" points="324.5,124.2 297.9,128.1 295.9,114.8 "/>
<polyline class="st0" points="301.9,146.3 306.4,119.8 293.1,117.5 "/>
<polyline class="st0" points="301.9,146.3 289.9,122.2 302,116.2 "/>
<polyline class="st0" points="273.9,131.6 300.5,127.7 298.5,114.4 "/>
<polyline class="st0" points="273.9,131.6 293.1,112.8 302.5,122.5 "/>
<polyline class="st0" points="279.2,100.5 291.1,124.6 303.2,118.6 "/>
<polyline class="st0" points="279.2,100.5 303,113 296.8,124.9 "/>
<polyline class="st0" points="366.1,145.2 340.3,152.8 344.2,165.7 "/>
<polyline class="st0" points="366.1,145.2 349.8,166.5 339.1,158.4 "/>
<polyline class="st0" points="365.3,176.8 350,154.6 339,162.3 "/>
<polyline class="st0" points="365.3,176.8 339.9,167.8 344.4,155.1 "/>
<polyline class="st0" points="335,185.8 351.4,164.4 340.7,156.3 "/>
<polyline class="st0" points="335,185.8 335.7,158.9 349.1,159.2 "/>
<polyline class="st0" points="317.1,159.8 342.4,168.7 346.9,156 "/>
<polyline class="st0" points="317.1,159.8 342.8,152.1 346.7,165 "/>
<polyline class="st0" points="336.3,134.7 335.6,161.5 349.1,161.9 "/>
<polyline class="st0" points="336.3,134.7 351.5,156.8 340.5,164.4 "/>
<polyline class="st0" points="392.4,214.6 366,209.5 363.5,222.7 "/>
<polyline class="st0" points="392.4,214.6 368,226 362.4,213.8 "/>
<polyline class="st0" points="377.1,242.3 373.8,215.6 360.5,217.2 "/>
<polyline class="st0" points="377.1,242.3 358.7,222.6 368.6,213.4 "/>
<polyline class="st0" points="346,236.2 370.4,224.8 364.8,212.7 "/>
<polyline class="st0" points="346,236.2 359.1,212.7 370.9,219.2 "/>
<polyline class="st0" points="342.2,204.8 360.5,224.5 370.4,215.3 "/>
<polyline class="st0" points="342.2,204.8 368.6,210 366,223.2 "/>
<polyline class="st0" points="370.9,191.5 357.8,215 369.6,221.5 "/>
<polyline class="st0" points="370.9,191.5 374.1,218.2 360.8,219.8 "/>
<polyline class="st0" points="383.5,288.4 362.5,271.5 354.1,282 "/>
<polyline class="st0" points="383.5,288.4 356.6,287.1 357.3,273.6 "/>
<polyline class="st0" points="357,305.7 366.6,280.6 354,275.8 "/>
<polyline class="st0" points="357,305.7 350,279.8 362.9,276.2 "/>
<polyline class="st0" points="332.4,285.9 359.2,287.2 359.9,273.8 "/>
<polyline class="st0" points="332.4,285.9 354.9,271.2 362.2,282.4 "/>
<polyline class="st0" points="343.6,256.4 350.7,282.3 363.6,278.8 "/>
<polyline class="st0" points="343.6,256.4 364.6,273.2 356.1,283.7 "/>
<polyline class="st0" points="375.2,257.9 352.7,272.6 360,283.9 "/>
<polyline class="st0" points="375.2,257.9 365.6,283 353.1,278.2 "/>
<polyline class="st0" points="341.3,349.5 330.5,324.9 318.2,330.2 "/>
<polyline class="st0" points="341.3,349.5 318.1,335.9 324.9,324.3 "/>
<polyline class="st0" points="309.8,352.6 329.9,334.7 321,324.7 "/>
<polyline class="st0" points="309.8,352.6 315.6,326.3 328.7,329.2 "/>
<polyline class="st0" points="297.2,323.6 320.4,337.2 327.2,325.6 "/>
<polyline class="st0" points="297.2,323.6 323.9,321 325.2,334.4 "/>
<polyline class="st0" points="320.8,302.6 315,328.9 328.2,331.8 "/>
<polyline class="st0" points="320.8,302.6 331.6,327.3 319.3,332.7 "/>
<polyline class="st0" points="348.1,318.7 321.3,321.3 322.6,334.6 "/>
<polyline class="st0" points="348.1,318.7 328,336.5 319,326.4 "/>
<polyline class="st0" points="275.5,384 277.4,357.2 264,356.3 "/>
<polyline class="st0" points="275.5,384 261.3,361.2 272.7,354.1 "/>
<polyline class="st0" points="246.2,372.1 272.3,365.7 269.1,352.6 "/>
<polyline class="st0" points="246.2,372.1 263.5,351.6 273.8,360.2 "/>
<polyline class="st0" points="248.5,340.6 262.7,363.4 274.1,356.3 "/>
<polyline class="st0" points="248.5,340.6 273.4,350.7 268.3,363.2 "/>
<polyline class="st0" points="279.2,333 261.8,353.6 272.1,362.3 "/>
<polyline class="st0" points="279.2,333 277.2,359.9 263.8,358.9 "/>
<polyline class="st0" points="295.9,359.9 271,349.7 265.9,362.2 "/>
<polyline class="st0" points="295.9,359.9 269.8,366.3 266.5,353.3 "/>
<polyline class="st0" points="201.2,384 215.4,361.2 204,354.1 "/>
<polyline class="st0" points="201.2,384 199.2,357.2 212.6,356.3 "/>
<polyline class="st0" points="180.8,359.9 206.9,366.3 210.1,353.3 "/>
<polyline class="st0" points="180.8,359.9 205.7,349.7 210.8,362.2 "/>
<polyline class="st0" points="197.5,333 199.4,359.9 212.8,358.9 "/>
<polyline class="st0" points="197.5,333 214.8,353.6 204.5,362.3 "/>
<polyline class="st0" points="228.2,340.6 203.3,350.7 208.3,363.2 "/>
<polyline class="st0" points="228.2,340.6 214,363.4 202.6,356.3 "/>
<polyline class="st0" points="230.5,372.1 213.1,351.6 202.9,360.2 "/>
<polyline class="st0" points="230.5,372.1 204.4,365.7 207.6,352.6 "/>
<polyline class="st0" points="135.4,349.5 158.6,335.9 151.8,324.3 "/>
<polyline class="st0" points="135.4,349.5 146.1,324.9 158.5,330.2 "/>
<polyline class="st0" points="128.6,318.7 148.7,336.5 157.6,326.4 "/>
<polyline class="st0" points="128.6,318.7 155.3,321.3 154,334.6 "/>
<polyline class="st0" points="155.8,302.6 145.1,327.3 157.4,332.7 "/>
<polyline class="st0" points="155.8,302.6 161.6,328.9 148.5,331.8 "/>
<polyline class="st0" points="179.5,323.6 152.7,321 151.4,334.4 "/>
<polyline class="st0" points="179.5,323.6 156.3,337.2 149.5,325.6 "/>
<polyline class="st0" points="166.9,352.6 161.1,326.3 147.9,329.2 "/>
<polyline class="st0" points="166.9,352.6 146.7,334.7 155.7,324.7 "/>
<polyline class="st0" points="93.2,288.4 120.1,287.1 119.4,273.6 "/>
<polyline class="st0" points="93.2,288.4 114.2,271.5 122.6,282 "/>
<polyline class="st0" points="101.5,257.9 111,283 123.6,278.2 "/>
<polyline class="st0" points="101.5,257.9 124,272.6 116.6,283.9 "/>
<polyline class="st0" points="133.1,256.4 112.1,273.2 120.5,283.7 "/>
<polyline class="st0" points="133.1,256.4 126,282.3 113,278.8 "/>
<polyline class="st0" points="144.3,285.9 121.8,271.2 114.4,282.4 "/>
<polyline class="st0" points="144.3,285.9 117.4,287.2 116.8,273.8 "/>
<polyline class="st0" points="119.6,305.7 126.7,279.8 113.7,276.2 "/>
<polyline class="st0" points="119.6,305.7 110.1,280.6 122.7,275.8 "/>
<polyline class="st0" points="84.2,214.6 108.6,226 114.3,213.8 "/>
<polyline class="st0" points="84.2,214.6 110.6,209.5 113.2,222.7 "/>
<polyline class="st0" points="105.8,191.5 102.5,218.2 115.9,219.8 "/>
<polyline class="st0" points="105.8,191.5 118.8,215 107.1,221.5 "/>
<polyline class="st0" points="134.4,204.8 108,210 110.6,223.2 "/>
<polyline class="st0" points="134.4,204.8 116.1,224.5 106.3,215.3 "/>
<polyline class="st0" points="130.6,236.2 117.6,212.7 105.8,219.2 "/>
<polyline class="st0" points="130.6,236.2 106.2,224.8 111.9,212.7 "/>
<polyline class="st0" points="99.6,242.3 117.9,222.6 108.1,213.4 "/>
<polyline class="st0" points="99.6,242.3 102.8,215.6 116.2,217.2 "/>
<polyline class="st0" points="110.6,145.2 126.9,166.5 137.6,158.4 "/>
<polyline class="st0" points="110.6,145.2 136.4,152.8 132.5,165.7 "/>
<polyline class="st0" points="140.4,134.7 125.1,156.8 136.2,164.4 "/>
<polyline class="st0" points="140.4,134.7 141.1,161.5 127.6,161.9 "/>
<polyline class="st0" points="159.6,159.8 133.8,152.1 130,165 "/>
<polyline class="st0" points="159.6,159.8 134.2,168.7 129.8,156 "/>
<polyline class="st0" points="141.6,185.8 141,158.9 127.6,159.2 "/>
<polyline class="st0" points="141.6,185.8 125.3,164.4 136,156.3 "/>
<polyline class="st0" points="111.3,176.8 136.7,167.8 132.3,155.1 "/>
<polyline class="st0" points="111.3,176.8 126.6,154.6 137.7,162.3 "/>
<polyline class="st0" points="166.2,95.9 170.7,122.4 184,120.1 "/>
<polyline class="st0" points="166.2,95.9 185.4,114.7 176.1,124.3 "/>
<polyline class="st0" points="197.5,100.5 173.7,113 179.9,124.9 "/>
<polyline class="st0" points="197.5,100.5 185.6,124.6 173.5,118.6 "/>
<polyline class="st0" points="202.8,131.6 183.6,112.8 174.2,122.5 "/>
<polyline class="st0" points="202.8,131.6 176.2,127.7 178.1,114.4 "/>
<polyline class="st0" points="174.8,146.3 186.7,122.2 174.7,116.2 "/>
<polyline class="st0" points="174.8,146.3 170.3,119.8 183.5,117.5 "/>
<polyline class="st0" points="152.2,124.2 178.8,128.1 180.7,114.8 "/>
<polyline class="st0" points="152.2,124.2 176,111.7 182.2,123.6 "/>
</svg>
