<?xml version="1.0" encoding="utf-8"?>
<!-- Generator: Adobe Illustrator 22.1.0, SVG Export Plug-In . SVG Version: 6.00 Build 0)  -->
<svg version="1.1" xmlns="http://www.w3.org/2000/svg" xmlns:xlink="http://www.w3.org/1999/xlink" x="0px" y="0px"
	 viewBox="0 0 1100 650" style="enable-background:new 0 0 1100 650;" xml:space="preserve">
<style type="text/css">
	.st0{fill:#ffffff;}
	.st1{fill:#333333;}
	.st2{fill:#CD2031;}
	.st3{fill:#FFFFFF;}
	.st4{fill:#243672;}
</style>
<g id="Layer_1">
	<g id="Layer_2_1_">
		<g>
			<rect x="1" y="1" style="fill:#f7f7f7;" width="1098" height="648"/>
			<path class="st1" d="M1098,2v646H2V2H1098 M1100,0H0v650h1100V0L1100,0z"/>
		</g>
	</g>
</g>
<g id="Layer_2">
	<polygon id="polygon10" class="st2" points="75,575 75,75 1025,75 1025,575 	"/>
	<g id="g3087" transform="translate(0.5681103,0)">
		<polygon id="polygon12" class="st3" points="74.4,498.1 1024.4,498.1 1024.4,536.5 74.4,536.5 		"/>
		<polygon id="polygon14" class="st3" points="74.4,113.5 1024.4,113.5 1024.4,151.9 74.4,151.9 		"/>
		<polygon id="polygon16" class="st3" points="74.4,190.4 1024.4,190.4 1024.4,228.8 74.4,228.8 		"/>
		<polygon id="polygon18" class="st3" points="74.4,267.3 1024.4,267.3 1024.4,305.8 74.4,305.8 		"/>
		<polygon id="polygon20" class="st3" points="74.4,344.2 1024.4,344.2 1024.4,382.7 74.4,382.7 		"/>
		<polygon id="polygon22" class="st3" points="74.4,421.2 1024.4,421.2 1024.4,459.6 74.4,459.6 		"/>
	</g>
	<polygon id="polygon24" class="st4" points="75,75 75,344.2 454.9,344.2 454.9,75 	"/>
	<g id="g3015" transform="translate(-1.77e-4,6.4055e-4)">
		<polygon id="_293568424" class="st3" points="402.1,124.3 393,117.7 404.2,117.7 407.7,106.9 411.2,117.7 422.5,117.7 
			413.3,124.3 416.8,135 407.7,128.4 398.6,135 		"/>
		<polygon id="_293566480" class="st3" points="345,124.3 335.9,117.7 347.1,117.7 350.6,106.9 354.1,117.7 365.3,117.7 
			356.2,124.3 359.7,135 350.6,128.4 341.5,135 		"/>
		<polygon id="_293560936" class="st3" points="287.9,124.3 278.8,117.7 290,117.7 293.5,106.9 297,117.7 308.2,117.7 299.1,124.3 
			302.6,135 293.5,128.4 284.4,135 		"/>
		<polygon id="_293566384" class="st3" points="230.8,124.3 221.6,117.7 232.9,117.7 236.4,106.9 239.9,117.7 251.1,117.7 
			242,124.3 245.5,135 236.4,128.4 227.3,135 		"/>
		<polygon id="_293566312" class="st3" points="173.6,124.3 164.5,117.7 175.8,117.7 179.3,106.9 182.8,117.7 194,117.7 
			184.9,124.3 188.4,135 179.3,128.4 170.2,135 		"/>
		<polygon id="_293566264" class="st3" points="116.5,124.3 107.4,117.7 118.7,117.7 122.2,106.9 125.6,117.7 136.9,117.7 
			127.8,124.3 131.3,135 122.2,128.4 113,135 		"/>
		<polygon id="_293564440" class="st3" points="402.1,183.4 393,176.8 404.2,176.8 407.7,166 411.2,176.8 422.5,176.8 413.3,183.4 
			416.8,194.1 407.7,187.5 398.6,194.1 		"/>
		<polygon id="_293564512" class="st3" points="345,183.4 335.9,176.8 347.1,176.8 350.6,166 354.1,176.8 365.3,176.8 356.2,183.4 
			359.7,194.1 350.6,187.5 341.5,194.1 		"/>
		<polygon id="_293566408" class="st3" points="287.9,183.4 278.8,176.8 290,176.8 293.5,166 297,176.8 308.2,176.8 299.1,183.4 
			302.6,194.1 293.5,187.5 284.4,194.1 		"/>
		<polygon id="_293560696" class="st3" points="230.8,183.4 221.6,176.8 232.9,176.8 236.4,166 239.9,176.8 251.1,176.8 242,183.4 
			245.5,194.1 236.4,187.5 227.3,194.1 		"/>
		<polygon id="_293560120" class="st3" points="173.6,183.4 164.5,176.8 175.8,176.8 179.3,166 182.8,176.8 194,176.8 184.9,183.4 
			188.4,194.1 179.3,187.5 170.2,194.1 		"/>
		<polygon id="_293560144" class="st3" points="116.5,183.4 107.4,176.8 118.7,176.8 122.2,166 125.6,176.8 136.9,176.8 
			127.8,183.4 131.3,194.1 122.2,187.5 113,194.1 		"/>
		<polygon id="_293566216" class="st3" points="402.1,242.5 393,235.9 404.2,235.9 407.7,225.1 411.2,235.9 422.5,235.9 
			413.3,242.5 416.8,253.2 407.7,246.6 398.6,253.2 		"/>
		<polygon id="_293564464" class="st3" points="345,242.5 335.9,235.9 347.1,235.9 350.6,225.1 354.1,235.9 365.3,235.9 
			356.2,242.5 359.7,253.2 350.6,246.6 341.5,253.2 		"/>
		<polygon id="_293562856" class="st3" points="287.9,242.5 278.8,235.9 290,235.9 293.5,225.1 297,235.9 308.2,235.9 299.1,242.5 
			302.6,253.2 293.5,246.6 284.4,253.2 		"/>
		<polygon id="_293566456" class="st3" points="230.8,242.5 221.6,235.9 232.9,235.9 236.4,225.1 239.9,235.9 251.1,235.9 
			242,242.5 245.5,253.2 236.4,246.6 227.3,253.2 		"/>
		<polygon id="_293566528" class="st3" points="173.6,242.5 164.5,235.9 175.8,235.9 179.3,225.1 182.8,235.9 194,235.9 
			184.9,242.5 188.4,253.2 179.3,246.6 170.2,253.2 		"/>
		<polygon id="_293562088" class="st3" points="116.5,242.5 107.4,235.9 118.7,235.9 122.2,225.1 125.6,235.9 136.9,235.9 
			127.8,242.5 131.3,253.2 122.2,246.6 113,253.2 		"/>
		<polygon id="_293565784" class="st3" points="402.1,301.6 393,295 404.2,295 407.7,284.2 411.2,295 422.5,295 413.3,301.6 
			416.8,312.3 407.7,305.7 398.6,312.3 		"/>
		<polygon id="_293566432" class="st3" points="345,301.6 335.9,295 347.1,295 350.6,284.2 354.1,295 365.3,295 356.2,301.6 
			359.7,312.3 350.6,305.7 341.5,312.3 		"/>
		<polygon id="_293561032" class="st3" points="287.9,301.6 278.8,295 290,295 293.5,284.2 297,295 308.2,295 299.1,301.6 
			302.6,312.3 293.5,305.7 284.4,312.3 		"/>
		<polygon id="_293563120" class="st3" points="230.8,301.6 221.6,295 232.9,295 236.4,284.2 239.9,295 251.1,295 242,301.6 
			245.5,312.3 236.4,305.7 227.3,312.3 		"/>
		<polygon id="_293563216" class="st3" points="173.6,301.6 164.5,295 175.8,295 179.3,284.2 182.8,295 194,295 184.9,301.6 
			188.4,312.3 179.3,305.7 170.2,312.3 		"/>
		<polygon id="_293562904" class="st3" points="116.5,301.6 107.4,295 118.7,295 122.2,284.2 125.6,295 136.9,295 127.8,301.6 
			131.3,312.3 122.2,305.7 113,312.3 		"/>
	</g>
</g>
</svg>
