<?xml version="1.0" encoding="utf-8"?>
<!-- Generator: Adobe Illustrator 22.1.0, SVG Export Plug-In . SVG Version: 6.00 Build 0)  -->
<svg version="1.1" id="Layer_1" xmlns="http://www.w3.org/2000/svg" xmlns:xlink="http://www.w3.org/1999/xlink" x="0px" y="0px"
	 viewBox="0 0 1100 650" style="enable-background:new 0 0 1100 650;" xml:space="preserve">
<style type="text/css">
	.st0{fill:#F7F7F7;}
	.st1{fill:#333333;}
	.st2{fill:#CD2031;}
	.st3{fill:#FFFFFF;}
	.st4{fill:#243672;}
</style>
<g id="Layer_1_1_">
	<g id="Layer_2_1_">
		<g>
			<rect x="1" y="1" class="st0" width="1098" height="648"/>
			<path class="st1" d="M1098,2v646H2V2H1098 M1100,0H0v650h1100V0L1100,0z"/>
		</g>
	</g>
</g>
<g>
	<rect x="75" y="75" class="st2" width="950" height="500"/>
</g>
<g>
	<path d="M75,132.7h950 M75,209.6h950 M75,286.5h950 M75,363.5h950 M75,440.4h950 M75,517.3h950"/>
	<path class="st3" d="M1025,536.5H75v-38.5h950V536.5z M1025,459.6H75v-38.5h950V459.6z M1025,382.7H75v-38.5h950V382.7z
		 M1025,305.8H75v-38.5h950V305.8z M1025,228.8H75v-38.5h950V228.8z M1025,151.9H75v-38.5h950V151.9z"/>
</g>
<g>
	<rect x="75" y="75" class="st4" width="380" height="269.2"/>
</g>
<g>
	<polygon class="st3" points="112.7,93.3 109.2,103.9 98.1,103.9 107.1,110.5 103.6,121.1 112.7,114.5 121.7,121.1 118.3,110.5 
		127.3,103.9 116.1,103.9 	"/>
	<polygon class="st3" points="163.5,93.3 160,103.9 148.8,103.9 157.9,110.5 154.4,121.1 163.5,114.5 172.5,121.1 169.1,110.5 
		178.1,103.9 166.9,103.9 	"/>
	<polygon class="st3" points="214.2,93.3 210.8,103.9 199.6,103.9 208.6,110.5 205.2,121.1 214.2,114.5 223.3,121.1 219.8,110.5 
		228.9,103.9 217.7,103.9 	"/>
	<polygon class="st3" points="265,93.3 261.5,103.9 250.4,103.9 259.4,110.5 256,121.1 265,114.5 274,121.1 270.6,110.5 
		279.6,103.9 268.5,103.9 	"/>
	<polygon class="st3" points="315.8,93.3 312.3,103.9 301.1,103.9 310.2,110.5 306.7,121.1 315.8,114.5 324.8,121.1 321.4,110.5 
		330.4,103.9 319.2,103.9 	"/>
	<polygon class="st3" points="366.5,93.3 363.1,103.9 351.9,103.9 360.9,110.5 357.5,121.1 366.5,114.5 375.6,121.1 372.1,110.5 
		381.2,103.9 370,103.9 	"/>
	<polygon class="st3" points="411.7,110.5 408.3,121.1 417.3,114.5 426.4,121.1 422.9,110.5 431.9,103.9 420.8,103.9 417.3,93.3 
		413.9,103.9 402.7,103.9 	"/>
	<polygon class="st3" points="112.7,143.8 109.2,154.4 98.1,154.4 107.1,161 103.6,171.6 112.7,165 121.7,171.6 118.3,161 
		127.3,154.4 116.1,154.4 	"/>
	<polygon class="st3" points="163.5,143.8 160,154.4 148.8,154.4 157.9,161 154.4,171.6 163.5,165 172.5,171.6 169.1,161 
		178.1,154.4 166.9,154.4 	"/>
	<polygon class="st3" points="214.2,143.8 210.8,154.4 199.6,154.4 208.6,161 205.2,171.6 214.2,165 223.3,171.6 219.8,161 
		228.9,154.4 217.7,154.4 	"/>
	<polygon class="st3" points="265,143.8 261.5,154.4 250.4,154.4 259.4,161 256,171.6 265,165 274,171.6 270.6,161 279.6,154.4 
		268.5,154.4 	"/>
	<polygon class="st3" points="315.8,143.8 312.3,154.4 301.1,154.4 310.2,161 306.7,171.6 315.8,165 324.8,171.6 321.4,161 
		330.4,154.4 319.2,154.4 	"/>
	<polygon class="st3" points="366.5,143.8 363.1,154.4 351.9,154.4 360.9,161 357.5,171.6 366.5,165 375.6,171.6 372.1,161 
		381.2,154.4 370,154.4 	"/>
	<polygon class="st3" points="417.3,143.8 413.9,154.4 402.7,154.4 411.7,161 408.3,171.6 417.3,165 426.4,171.6 422.9,161 
		431.9,154.4 420.8,154.4 	"/>
	<polygon class="st3" points="112.7,194.2 109.2,204.9 98.1,204.9 107.1,211.4 103.6,222.1 112.7,215.5 121.7,222.1 118.3,211.4 
		127.3,204.9 116.1,204.9 	"/>
	<polygon class="st3" points="163.5,194.2 160,204.9 148.8,204.9 157.9,211.4 154.4,222.1 163.5,215.5 172.5,222.1 169.1,211.4 
		178.1,204.9 166.9,204.9 	"/>
	<polygon class="st3" points="214.2,194.2 210.8,204.9 199.6,204.9 208.6,211.4 205.2,222.1 214.2,215.5 223.3,222.1 219.8,211.4 
		228.9,204.9 217.7,204.9 	"/>
	<polygon class="st3" points="265,194.2 261.5,204.9 250.4,204.9 259.4,211.4 256,222.1 265,215.5 274,222.1 270.6,211.4 
		279.6,204.9 268.5,204.9 	"/>
	<polygon class="st3" points="315.8,194.2 312.3,204.9 301.1,204.9 310.2,211.4 306.7,222.1 315.8,215.5 324.8,222.1 321.4,211.4 
		330.4,204.9 319.2,204.9 	"/>
	<polygon class="st3" points="366.5,194.2 363.1,204.9 351.9,204.9 360.9,211.4 357.5,222.1 366.5,215.5 375.6,222.1 372.1,211.4 
		381.2,204.9 370,204.9 	"/>
	<polygon class="st3" points="417.3,194.2 413.9,204.9 402.7,204.9 411.7,211.4 408.3,222.1 417.3,215.5 426.4,222.1 422.9,211.4 
		431.9,204.9 420.8,204.9 	"/>
	<polygon class="st3" points="112.7,244.7 109.2,255.3 98.1,255.3 107.1,261.9 103.6,272.5 112.7,266 121.7,272.5 118.3,261.9 
		127.3,255.3 116.1,255.3 	"/>
	<polygon class="st3" points="163.5,244.7 160,255.3 148.8,255.3 157.9,261.9 154.4,272.5 163.5,266 172.5,272.5 169.1,261.9 
		178.1,255.3 166.9,255.3 	"/>
	<polygon class="st3" points="214.2,244.7 210.8,255.3 199.6,255.3 208.6,261.9 205.2,272.5 214.2,266 223.3,272.5 219.8,261.9 
		228.9,255.3 217.7,255.3 	"/>
	<polygon class="st3" points="265,244.7 261.5,255.3 250.4,255.3 259.4,261.9 256,272.5 265,266 274,272.5 270.6,261.9 279.6,255.3 
		268.5,255.3 	"/>
	<polygon class="st3" points="315.8,244.7 312.3,255.3 301.1,255.3 310.2,261.9 306.7,272.5 315.8,266 324.8,272.5 321.4,261.9 
		330.4,255.3 319.2,255.3 	"/>
	<polygon class="st3" points="366.5,244.7 363.1,255.3 351.9,255.3 360.9,261.9 357.5,272.5 366.5,266 375.6,272.5 372.1,261.9 
		381.2,255.3 370,255.3 	"/>
	<polygon class="st3" points="417.3,244.7 413.9,255.3 402.7,255.3 411.7,261.9 408.3,272.5 417.3,266 426.4,272.5 422.9,261.9 
		431.9,255.3 420.8,255.3 	"/>
	<polygon class="st3" points="116.1,305.8 112.7,295.2 109.2,305.8 98.1,305.8 107.1,312.4 103.6,323 112.7,316.5 121.7,323 
		118.3,312.4 127.3,305.8 	"/>
	<polygon class="st3" points="166.9,305.8 163.5,295.2 160,305.8 148.8,305.8 157.9,312.4 154.4,323 163.5,316.5 172.5,323 
		169.1,312.4 178.1,305.8 	"/>
	<polygon class="st3" points="217.7,305.8 214.2,295.2 210.8,305.8 199.6,305.8 208.6,312.4 205.2,323 214.2,316.5 223.3,323 
		219.8,312.4 228.9,305.8 	"/>
	<polygon class="st3" points="268.5,305.8 265,295.2 261.5,305.8 250.4,305.8 259.4,312.4 256,323 265,316.5 274,323 270.6,312.4 
		279.6,305.8 	"/>
	<polygon class="st3" points="319.2,305.8 315.8,295.2 312.3,305.8 301.1,305.8 310.2,312.4 306.7,323 315.8,316.5 324.8,323 
		321.4,312.4 330.4,305.8 	"/>
	<polygon class="st3" points="370,305.8 366.5,295.2 363.1,305.8 351.9,305.8 360.9,312.4 357.5,323 366.5,316.5 375.6,323 
		372.1,312.4 381.2,305.8 	"/>
	<polygon class="st3" points="420.8,305.8 417.3,295.2 413.9,305.8 402.7,305.8 411.7,312.4 408.3,323 417.3,316.5 426.4,323 
		422.9,312.4 431.9,305.8 	"/>
</g>
</svg>
