<?xml version="1.0" encoding="utf-8"?>
<!-- Generator: Adobe Illustrator 22.1.0, SVG Export Plug-In . SVG Version: 6.00 Build 0)  -->
<svg version="1.1" id="Layer_1" xmlns="http://www.w3.org/2000/svg" xmlns:xlink="http://www.w3.org/1999/xlink" x="0px" y="0px"
	 viewBox="0 0 1100 650" style="enable-background:new 0 0 1100 650;" xml:space="preserve">
<style type="text/css">
	.st0{fill:#F7F7F7;}
	.st1{fill:#333333;}
	.st2{fill:#CD2031;}
	.st3{fill:#243672;}
	.st4{fill:none;}
	.st5{fill:#FFFFFF;}
</style>
<g id="Layer_1_1_">
	<g id="Layer_2_1_">
		<g>
			<rect x="1" y="1" class="st0" width="1098" height="648"/>
			<path class="st1" d="M1098,2v646H2V2H1098 M1100,0H0v650h1100V0L1100,0z"/>
		</g>
	</g>
</g>
<g>
	<rect x="175" y="75" class="st2" width="750" height="500"/>
</g>
<g>
	<polygon class="st3" points="384.6,225 525,104.6 525,75 490.4,75 350,195.4 209.6,75 175,75 175,104.6 315.4,225 175,345.4 
		175,375 209.6,375 350,254.6 490.4,375 525,375 525,345.4 	"/>
	<polygon class="st4" points="525,335.5 525,114.5 396.1,225 	"/>
	<polygon class="st4" points="221.1,375 478.9,375 350,264.5 	"/>
	<polygon class="st4" points="478.9,75 221.1,75 350,185.5 	"/>
	<polygon class="st4" points="175,114.5 175,335.5 303.9,225 	"/>
	<polygon class="st5" points="175,104.6 175,114.5 303.9,225 175,335.5 175,345.4 315.4,225 	"/>
	<polygon class="st5" points="209.6,375 221.1,375 350,264.5 478.9,375 490.4,375 350,254.6 	"/>
	<polygon class="st5" points="525,345.4 525,335.5 396.1,225 525,114.5 525,104.6 384.6,225 	"/>
	<polygon class="st5" points="490.4,75 478.9,75 350,185.5 221.1,75 209.6,75 350,195.4 	"/>
</g>
<g>
	<path d="M525,75 M175,375 M525,375 M175,75"/>
</g>
<g>
	<path d="M525,75 M175,375 M525,375 M175,75"/>
</g>
<polygon class="st5" points="215.4,106.8 224.3,100.4 213.4,100.4 210,90 206.6,100.4 195.7,100.4 204.6,106.8 201.2,117.1 
	210,110.7 218.8,117.1 "/>
<g>
	<polygon class="st5" points="353.4,220.4 350,210 346.6,220.4 335.7,220.4 344.6,226.8 341.2,237.1 350,230.7 358.8,237.1 
		355.4,226.8 364.3,220.4 	"/>
	<polygon class="st5" points="303.3,170 300,180.4 289.1,180.4 297.9,186.8 294.5,197.1 303.3,190.7 312.2,197.1 308.8,186.8 
		317.6,180.4 306.7,180.4 	"/>
	<polygon class="st5" points="256.7,130 253.3,140.4 242.4,140.4 251.2,146.8 247.8,157.1 256.7,150.7 265.5,157.1 262.1,146.8 
		270.9,140.4 260,140.4 	"/>
	<polygon class="st5" points="306.7,260.4 303.3,250 300,260.4 289.1,260.4 297.9,266.8 294.5,277.1 303.3,270.7 312.2,277.1 
		308.8,266.8 317.6,260.4 	"/>
	<polygon class="st5" points="260,300.4 256.7,290 253.3,300.4 242.4,300.4 251.2,306.8 247.8,317.1 256.7,310.7 265.5,317.1 
		262.1,306.8 270.9,300.4 	"/>
	<polygon class="st5" points="213.4,340.4 210,330 206.6,340.4 195.7,340.4 204.6,346.8 201.2,357.1 210,350.7 218.8,357.1 
		215.4,346.8 224.3,340.4 	"/>
	<polygon class="st5" points="396.7,170 393.3,180.4 382.4,180.4 391.2,186.8 387.8,197.1 396.7,190.7 405.5,197.1 402.1,186.8 
		410.9,180.4 400,180.4 	"/>
	<polygon class="st5" points="443.3,130 440,140.4 429.1,140.4 437.9,146.8 434.5,157.1 443.3,150.7 452.2,157.1 448.8,146.8 
		457.6,140.4 446.7,140.4 	"/>
	<polygon class="st5" points="484.6,106.8 481.2,117.1 490,110.7 498.8,117.1 495.4,106.8 504.3,100.4 493.4,100.4 490,90 
		486.6,100.4 475.7,100.4 	"/>
	<polygon class="st5" points="400,260.4 396.7,250 393.3,260.4 382.4,260.4 391.2,266.8 387.8,277.1 396.7,270.7 405.5,277.1 
		402.1,266.8 410.9,260.4 	"/>
	<polygon class="st5" points="446.7,300.4 443.3,290 440,300.4 429.1,300.4 437.9,306.8 434.5,317.1 443.3,310.7 452.2,317.1 
		448.8,306.8 457.6,300.4 	"/>
	<polygon class="st5" points="493.4,340.4 490,330 486.6,340.4 475.7,340.4 484.6,346.8 481.2,357.1 490,350.7 498.8,357.1 
		495.4,346.8 504.3,340.4 	"/>
</g>
<g>
	<polygon class="st5" points="525,75 725,75 725,575 175,575 175,375 525,375 	"/>
</g>
</svg>
