<?xml version="1.0" encoding="utf-8"?>
<!-- Generator: Adobe Illustrator 22.1.0, SVG Export Plug-In . SVG Version: 6.00 Build 0)  -->
<svg version="1.1" xmlns="http://www.w3.org/2000/svg" xmlns:xlink="http://www.w3.org/1999/xlink" x="0px" y="0px"
	 viewBox="0 0 1100 650" style="enable-background:new 0 0 1100 650;" xml:space="preserve">
<style type="text/css">
	.st0{fill:#ffffff;}
	.st1{fill:#333333;}
	.st2{fill:#CD2031;}
	.st3{fill:#FFFFFF;}
	.st4{fill:#243672;}
</style>
<g id="Layer_1">
	<g id="Layer_2_1_">
		<g>
			<rect x="1" y="1" style="fill:#f7f7f7;" width="1098" height="648"/>
			<path class="st1" d="M1098,2v646H2V2H1098 M1100,0H0v650h1100V0L1100,0z"/>
		</g>
	</g>
</g>
<g id="Layer_2">
	<rect x="75" y="75" class="st2" width="950" height="500"/>
	<g>
		<g id="Stripes3">
			<rect id="Stripe" x="75" y="113.5" class="st3" width="950" height="38.5"/>
			<g>
				<rect id="Stripe_1_" x="75" y="190.4" class="st3" width="950" height="38.5"/>
			</g>
			<g>
				<rect id="Stripe_2_" x="75" y="267.3" class="st3" width="950" height="38.5"/>
			</g>
		</g>
		<g>
			<g id="Stripes3_1_">
				<rect id="Stripe_3_" x="75" y="344.2" class="st3" width="950" height="38.5"/>
				<g>
					<rect id="Stripe_4_" x="75" y="421.2" class="st3" width="950" height="38.5"/>
				</g>
				<g>
					<rect id="Stripe_5_" x="75" y="498.1" class="st3" width="950" height="38.5"/>
				</g>
			</g>
			<rect x="75" y="75" class="st4" width="316.7" height="269.2"/>
			<g>
				<polygon class="st3" points="226.8,122.1 222.7,134.6 233.3,126.9 244,134.6 239.9,122.1 250.5,114.4 237.4,114.4 233.3,101.9 
					229.3,114.4 216.1,114.4 				"/>
				<polygon class="st3" points="271.8,136.4 277.6,148.2 279.8,135.2 292.8,133.3 281.2,127.2 283.4,114.3 274,123.4 262.4,117.3 
					268.2,129.1 258.8,138.3 				"/>
				<polygon class="st3" points="301.6,154.5 289,158.3 301.4,162.6 301.1,175.8 309.1,165.3 321.4,169.7 314,158.9 322,148.4 
					309.4,152.2 301.9,141.4 				"/>
				<polygon class="st3" points="319.4,192.6 306.5,190 315.4,199.6 309.1,211.1 321,205.6 329.9,215.2 328.3,202.2 340.2,196.6 
					327.4,194.1 325.8,181.1 				"/>
				<polygon class="st3" points="323.8,239.6 328.4,227.3 317.5,234.5 307.2,226.3 310.7,238.9 299.7,246.1 312.8,246.8 
					316.3,259.4 320.9,247.2 334,247.8 				"/>
				<polygon class="st3" points="296.3,270.7 291,258.7 288.2,271.5 275.1,272.8 286.4,279.5 283.6,292.3 293.4,283.6 304.7,290.2 
					299.5,278.2 309.3,269.5 				"/>
				<polygon class="st3" points="260.6,293 261.6,279.9 253.1,289.9 241,285 247.9,296.1 239.4,306.2 252.2,303 259.1,314.2 
					260.1,301.1 272.8,297.9 				"/>
				<polygon class="st3" points="218.8,296.1 225.7,285 213.5,289.9 205.1,279.9 206,293 193.9,297.9 206.6,301.1 207.6,314.2 
					214.5,303 227.2,306.2 				"/>
				<polygon class="st3" points="178.5,271.5 175.7,258.7 170.4,270.7 157.3,269.5 167.2,278.2 161.9,290.2 173.2,283.6 
					183.1,292.3 180.2,279.5 191.6,272.8 				"/>
				<polygon class="st3" points="153.9,246.8 167,246.1 156,238.9 159.4,226.3 149.2,234.5 138.2,227.3 142.9,239.6 132.6,247.8 
					145.8,247.2 150.4,259.4 				"/>
				<polygon class="st3" points="138.3,202.2 136.8,215.2 145.7,205.6 157.6,211.1 151.2,199.6 160.2,190 147.3,192.6 140.9,181.1 
					139.3,194.1 126.4,196.6 				"/>
				<polygon class="st3" points="152.7,158.9 145.2,169.7 157.6,165.3 165.6,175.8 165.3,162.6 177.7,158.3 165.1,154.5 
					164.8,141.4 157.3,152.2 144.7,148.4 				"/>
				<polygon class="st3" points="186.9,135.2 189.1,148.2 194.9,136.4 207.9,138.3 198.5,129.1 204.3,117.3 192.7,123.4 
					183.3,114.3 185.5,127.2 173.9,133.3 				"/>
			</g>
		</g>
	</g>
</g>
</svg>
