<?xml version="1.0" encoding="utf-8"?>
<!-- Generator: Adobe Illustrator 22.1.0, SVG Export Plug-In . SVG Version: 6.00 Build 0)  -->
<svg version="1.1" xmlns="http://www.w3.org/2000/svg" xmlns:xlink="http://www.w3.org/1999/xlink" x="0px" y="0px"
	 viewBox="0 0 1100 650" style="enable-background:new 0 0 1100 650;" xml:space="preserve">
<style type="text/css">
	.st0{fill:#ffffff;}
	.st1{fill:#333333;}
	.st2{fill:#CD2031;}
	.st3{fill:#FFFFFF;}
	.st4{fill:#243672;}
</style>
<g id="Layer_1">
	<g id="Layer_2_1_">
		<g>
			<rect x="1" y="1" style="fill:#f7f7f7;" width="1098" height="648"/>
			<path class="st1" d="M1098,2v646H2V2H1098 M1100,0H0v650h1100V0L1100,0z"/>
		</g>
	</g>
</g>
<g id="Layer_2">
	<g>
		<rect x="75" y="75" class="st2" width="950" height="500"/>
	</g>
	<g>
		<path d="M75,132.7h950 M75,209.6h950 M75,286.5h950 M75,363.5h950 M75,440.4h950 M75,517.3h950"/>
		<path class="st3" d="M1025,536.5H75v-38.5h950V536.5z M1025,459.6H75v-38.5h950V459.6z M1025,382.7H75v-38.5h950V382.7z
			 M1025,305.8H75v-38.5h950V305.8z M1025,228.8H75v-38.5h950V228.8z M1025,151.9H75v-38.5h950V151.9z"/>
	</g>
	<g>
		<rect x="75" y="75" class="st4" width="380" height="269.2"/>
	</g>
	<g>
		<g>
			<polygon class="st3" points="96.4,104.8 92.9,115.5 102,108.9 111.1,115.5 107.6,104.8 116.6,98.2 105.5,98.2 102,87.6 
				98.5,98.2 87.4,98.2 			"/>
		</g>
		<g>
			<polygon class="st3" points="146.4,104.8 142.9,115.5 152,108.9 161.1,115.5 157.6,104.8 166.6,98.2 155.5,98.2 152,87.6 
				148.5,98.2 137.4,98.2 			"/>
		</g>
		<g>
			<polygon class="st3" points="196.4,104.8 192.9,115.5 202,108.9 211.1,115.5 207.6,104.8 216.6,98.2 205.5,98.2 202,87.6 
				198.5,98.2 187.4,98.2 			"/>
		</g>
		<g>
			<polygon class="st3" points="246.4,104.8 242.9,115.5 252,108.9 261.1,115.5 257.6,104.8 266.6,98.2 255.5,98.2 252,87.6 
				248.5,98.2 237.4,98.2 			"/>
		</g>
		<g>
			<polygon class="st3" points="296.4,104.8 292.9,115.5 302,108.9 311.1,115.5 307.6,104.8 316.6,98.2 305.5,98.2 302,87.6 
				298.5,98.2 287.4,98.2 			"/>
		</g>
		<g>
			<polygon class="st3" points="346.4,104.8 342.9,115.5 352,108.9 361.1,115.5 357.6,104.8 366.6,98.2 355.5,98.2 352,87.6 
				348.5,98.2 337.4,98.2 			"/>
		</g>
		<g>
			<polygon class="st3" points="396.4,104.8 392.9,115.5 402,108.9 411.1,115.5 407.6,104.8 416.6,98.2 405.5,98.2 402,87.6 
				398.5,98.2 387.4,98.2 			"/>
		</g>
		<g>
			<polygon class="st3" points="123.5,133.7 112.4,133.7 121.4,140.3 117.9,151 127,144.4 136.1,151 132.6,140.3 141.6,133.7 
				130.5,133.7 127,123.1 			"/>
		</g>
		<g>
			<polygon class="st3" points="173.5,133.7 162.4,133.7 171.4,140.3 167.9,151 177,144.4 186.1,151 182.6,140.3 191.6,133.7 
				180.5,133.7 177,123.1 			"/>
		</g>
		<g>
			<polygon class="st3" points="223.5,133.7 212.4,133.7 221.4,140.3 217.9,151 227,144.4 236.1,151 232.6,140.3 241.6,133.7 
				230.5,133.7 227,123.1 			"/>
		</g>
		<g>
			<polygon class="st3" points="273.5,133.7 262.4,133.7 271.4,140.3 267.9,151 277,144.4 286.1,151 282.6,140.3 291.6,133.7 
				280.5,133.7 277,123.1 			"/>
		</g>
		<g>
			<polygon class="st3" points="323.5,133.7 312.4,133.7 321.4,140.3 317.9,151 327,144.4 336.1,151 332.6,140.3 341.6,133.7 
				330.5,133.7 327,123.1 			"/>
		</g>
		<g>
			<polygon class="st3" points="373.5,133.7 362.4,133.7 371.4,140.3 367.9,151 377,144.4 386.1,151 382.6,140.3 391.6,133.7 
				380.5,133.7 377,123.1 			"/>
		</g>
		<g>
			<polygon class="st3" points="423.5,133.7 412.4,133.7 421.4,140.3 417.9,151 427,144.4 436.1,151 432.6,140.3 441.6,133.7 
				430.5,133.7 427,123.1 			"/>
		</g>
		<g>
			<polygon class="st3" points="92.9,186.5 102,179.9 111.1,186.5 107.6,175.8 116.6,169.2 105.5,169.2 102,158.6 98.5,169.2 
				87.4,169.2 96.4,175.8 			"/>
		</g>
		<g>
			<polygon class="st3" points="155.5,169.2 152,158.6 148.5,169.2 137.4,169.2 146.4,175.8 142.9,186.5 152,179.9 161.1,186.5 
				157.6,175.8 166.6,169.2 			"/>
		</g>
		<g>
			<polygon class="st3" points="205.5,169.2 202,158.6 198.5,169.2 187.4,169.2 196.4,175.8 192.9,186.5 202,179.9 211.1,186.5 
				207.6,175.8 216.6,169.2 			"/>
		</g>
		<g>
			<polygon class="st3" points="255.5,169.2 252,158.6 248.5,169.2 237.4,169.2 246.4,175.8 242.9,186.5 252,179.9 261.1,186.5 
				257.6,175.8 266.6,169.2 			"/>
		</g>
		<g>
			<polygon class="st3" points="305.5,169.2 302,158.6 298.5,169.2 287.4,169.2 296.4,175.8 292.9,186.5 302,179.9 311.1,186.5 
				307.6,175.8 316.6,169.2 			"/>
		</g>
		<g>
			<polygon class="st3" points="355.5,169.2 352,158.6 348.5,169.2 337.4,169.2 346.4,175.8 342.9,186.5 352,179.9 361.1,186.5 
				357.6,175.8 366.6,169.2 			"/>
		</g>
		<g>
			<polygon class="st3" points="405.5,169.2 402,158.6 398.5,169.2 387.4,169.2 396.4,175.8 392.9,186.5 402,179.9 411.1,186.5 
				407.6,175.8 416.6,169.2 			"/>
		</g>
		<g>
			<polygon class="st3" points="130.5,204.7 127,194.1 123.5,204.7 112.4,204.7 121.4,211.3 117.9,222 127,215.4 136.1,222 
				132.6,211.3 141.6,204.7 			"/>
		</g>
		<g>
			<polygon class="st3" points="180.5,204.7 177,194.1 173.5,204.7 162.4,204.7 171.4,211.3 167.9,222 177,215.4 186.1,222 
				182.6,211.3 191.6,204.7 			"/>
		</g>
		<g>
			<polygon class="st3" points="230.5,204.7 227,194.1 223.5,204.7 212.4,204.7 221.4,211.3 217.9,222 227,215.4 236.1,222 
				232.6,211.3 241.6,204.7 			"/>
		</g>
		<g>
			<polygon class="st3" points="280.5,204.7 277,194.1 273.5,204.7 262.4,204.7 271.4,211.3 267.9,222 277,215.4 286.1,222 
				282.6,211.3 291.6,204.7 			"/>
		</g>
		<g>
			<polygon class="st3" points="330.5,204.7 327,194.1 323.5,204.7 312.4,204.7 321.4,211.3 317.9,222 327,215.4 336.1,222 
				332.6,211.3 341.6,204.7 			"/>
		</g>
		<g>
			<polygon class="st3" points="380.5,204.7 377,194.1 373.5,204.7 362.4,204.7 371.4,211.3 367.9,222 377,215.4 386.1,222 
				382.6,211.3 391.6,204.7 			"/>
		</g>
		<g>
			<polygon class="st3" points="427,194.1 423.5,204.7 412.4,204.7 421.4,211.3 417.9,222 427,215.4 436.1,222 432.6,211.3 
				441.6,204.7 430.5,204.7 			"/>
		</g>
		<g>
			<polygon class="st3" points="92.9,257.5 102,250.9 111.1,257.5 107.6,246.8 116.6,240.2 105.5,240.2 102,229.6 98.5,240.2 
				87.4,240.2 96.4,246.8 			"/>
		</g>
		<g>
			<polygon class="st3" points="155.5,240.2 152,229.6 148.5,240.2 137.4,240.2 146.4,246.8 142.9,257.5 152,250.9 161.1,257.5 
				157.6,246.8 166.6,240.2 			"/>
		</g>
		<g>
			<polygon class="st3" points="205.5,240.2 202,229.6 198.5,240.2 187.4,240.2 196.4,246.8 192.9,257.5 202,250.9 211.1,257.5 
				207.6,246.8 216.6,240.2 			"/>
		</g>
		<g>
			<polygon class="st3" points="255.5,240.2 252,229.6 248.5,240.2 237.4,240.2 246.4,246.8 242.9,257.5 252,250.9 261.1,257.5 
				257.6,246.8 266.6,240.2 			"/>
		</g>
		<g>
			<polygon class="st3" points="305.5,240.2 302,229.6 298.5,240.2 287.4,240.2 296.4,246.8 292.9,257.5 302,250.9 311.1,257.5 
				307.6,246.8 316.6,240.2 			"/>
		</g>
		<g>
			<polygon class="st3" points="355.5,240.2 352,229.6 348.5,240.2 337.4,240.2 346.4,246.8 342.9,257.5 352,250.9 361.1,257.5 
				357.6,246.8 366.6,240.2 			"/>
		</g>
		<g>
			<polygon class="st3" points="405.5,240.2 402,229.6 398.5,240.2 387.4,240.2 396.4,246.8 392.9,257.5 402,250.9 411.1,257.5 
				407.6,246.8 416.6,240.2 			"/>
		</g>
		<g>
			<polygon class="st3" points="132.6,282.3 141.6,275.7 130.5,275.7 127,265.1 123.5,275.7 112.4,275.7 121.4,282.3 117.9,293 
				127,286.4 136.1,293 			"/>
		</g>
		<g>
			<polygon class="st3" points="182.6,282.3 191.6,275.7 180.5,275.7 177,265.1 173.5,275.7 162.4,275.7 171.4,282.3 167.9,293 
				177,286.4 186.1,293 			"/>
		</g>
		<g>
			<polygon class="st3" points="232.6,282.3 241.6,275.7 230.5,275.7 227,265.1 223.5,275.7 212.4,275.7 221.4,282.3 217.9,293 
				227,286.4 236.1,293 			"/>
		</g>
		<g>
			<polygon class="st3" points="282.6,282.3 291.6,275.7 280.5,275.7 277,265.1 273.5,275.7 262.4,275.7 271.4,282.3 267.9,293 
				277,286.4 286.1,293 			"/>
		</g>
		<g>
			<polygon class="st3" points="332.6,282.3 341.6,275.7 330.5,275.7 327,265.1 323.5,275.7 312.4,275.7 321.4,282.3 317.9,293 
				327,286.4 336.1,293 			"/>
		</g>
		<g>
			<polygon class="st3" points="382.6,282.3 391.6,275.7 380.5,275.7 377,265.1 373.5,275.7 362.4,275.7 371.4,282.3 367.9,293 
				377,286.4 386.1,293 			"/>
		</g>
		<g>
			<polygon class="st3" points="430.5,275.7 427,265.1 423.5,275.7 412.4,275.7 421.4,282.3 417.9,293 427,286.4 436.1,293 
				432.6,282.3 441.6,275.7 			"/>
		</g>
		<g>
			<polygon class="st3" points="105.5,311.2 102,300.6 98.5,311.2 87.4,311.2 96.4,317.8 92.9,328.5 102,321.9 111.1,328.5 
				107.6,317.8 116.6,311.2 			"/>
		</g>
		<g>
			<polygon class="st3" points="155.5,311.2 152,300.6 148.5,311.2 137.4,311.2 146.4,317.8 142.9,328.5 152,321.9 161.1,328.5 
				157.6,317.8 166.6,311.2 			"/>
		</g>
		<g>
			<polygon class="st3" points="205.5,311.2 202,300.6 198.5,311.2 187.4,311.2 196.4,317.8 192.9,328.5 202,321.9 211.1,328.5 
				207.6,317.8 216.6,311.2 			"/>
		</g>
		<g>
			<polygon class="st3" points="255.5,311.2 252,300.6 248.5,311.2 237.4,311.2 246.4,317.8 242.9,328.5 252,321.9 261.1,328.5 
				257.6,317.8 266.6,311.2 			"/>
		</g>
		<g>
			<polygon class="st3" points="305.5,311.2 302,300.6 298.5,311.2 287.4,311.2 296.4,317.8 292.9,328.5 302,321.9 311.1,328.5 
				307.6,317.8 316.6,311.2 			"/>
		</g>
		<g>
			<polygon class="st3" points="355.5,311.2 352,300.6 348.5,311.2 337.4,311.2 346.4,317.8 342.9,328.5 352,321.9 361.1,328.5 
				357.6,317.8 366.6,311.2 			"/>
		</g>
		<g>
			<polygon class="st3" points="405.5,311.2 402,300.6 398.5,311.2 387.4,311.2 396.4,317.8 392.9,328.5 402,321.9 411.1,328.5 
				407.6,317.8 416.6,311.2 			"/>
		</g>
	</g>
</g>
</svg>
