<?xml version="1.0" encoding="utf-8"?>
<!-- Generator: Adobe Illustrator 22.1.0, SVG Export Plug-In . SVG Version: 6.00 Build 0)  -->
<svg version="1.1" id="Layer_1" xmlns="http://www.w3.org/2000/svg" xmlns:xlink="http://www.w3.org/1999/xlink" x="0px" y="0px"
	 viewBox="0 0 1100 650" style="enable-background:new 0 0 1100 650;" xml:space="preserve">
<style type="text/css">
	.st0{fill:#F7F7F7;}
	.st1{fill:#333333;}
	.st2{fill:#CD2031;}
	.st3{fill:#FFFFFF;}
	.st4{fill:#243672;}
	.st5{fill:#FEFEFE;}
</style>
<g id="Layer_1_1_">
	<g id="Layer_2_1_">
		<g>
			<rect x="1" y="1" class="st0" width="1098" height="648"/>
			<path class="st1" d="M1098,2v646H2V2H1098 M1100,0H0v650h1100V0L1100,0z"/>
		</g>
	</g>
</g>
<polygon id="polygon10" class="st2" points="75,575 75,75 1025,75 1025,575 "/>
<g id="g3104" transform="translate(4e-8,-9.891036e-6)">
	<polygon id="polygon12" class="st3" points="75,536.5 75,498.1 1025,498.1 1025,536.5 	"/>
	<polygon id="polygon14" class="st3" points="75,151.9 75,113.5 1025,113.5 1025,151.9 	"/>
	<polygon id="polygon16" class="st3" points="75,228.8 75,190.4 1025,190.4 1025,228.8 	"/>
	<polygon id="polygon18" class="st3" points="75,305.8 75,267.3 1025,267.3 1025,305.8 	"/>
	<polygon id="polygon20" class="st3" points="75,382.7 75,344.2 1025,344.2 1025,382.7 	"/>
	<polygon id="polygon22" class="st3" points="75,459.6 75,421.2 1025,421.2 1025,459.6 	"/>
</g>
<g id="g3069" transform="translate(-0.852756,0)">
	<polygon id="polygon24" class="st4" points="455.7,75 75.9,75 75.9,344.2 455.7,344.2 	"/>
	<g id="g3029" transform="translate(4.23e-4,0.00134055)">
		<polygon id="_293560120" class="st3" points="413.6,107.6 404.5,114.3 408,125 398.9,118.4 389.8,125 393.3,114.3 384.1,107.6 
			395.4,107.6 398.9,96.9 402.4,107.6 		"/>
		<polygon id="_293560144" class="st3" points="369.3,107.6 360.2,114.3 363.6,125 354.5,118.4 345.4,125 348.9,114.3 339.8,107.6 
			351,107.6 354.5,96.9 358,107.6 		"/>
		<polygon id="_293566216" class="st3" points="324.9,107.6 315.8,114.3 319.3,125 310.2,118.4 301,125 304.5,114.3 295.4,107.6 
			306.7,107.6 310.2,96.9 313.6,107.6 		"/>
		<polygon id="_293564464" class="st3" points="280.5,107.6 271.4,114.3 274.9,125 265.8,118.4 256.7,125 260.2,114.3 251,107.6 
			262.3,107.6 265.8,96.9 269.3,107.6 		"/>
		<polygon id="_293562856" class="st3" points="236.2,107.6 227.1,114.3 230.5,125 221.4,118.4 212.3,125 215.8,114.3 206.7,107.6 
			217.9,107.6 221.4,96.9 224.9,107.6 		"/>
		<polygon id="_293568424" class="st3" points="191.8,107.6 182.7,114.3 186.2,125 177.1,118.4 167.9,125 171.4,114.3 162.3,107.6 
			173.6,107.6 177.1,96.9 180.5,107.6 		"/>
		<polygon id="_293566480" class="st3" points="147.4,107.6 138.3,114.3 141.8,125 132.7,118.4 123.6,125 127.1,114.3 118,107.6 
			129.2,107.6 132.7,96.9 136.2,107.6 		"/>
		<polygon id="_293560120_0" class="st3" points="435.8,255.6 426.7,262.3 430.2,273 421.1,266.3 412,273 415.4,262.3 406.3,255.6 
			417.6,255.6 421.1,244.9 424.5,255.6 		"/>
		<polygon id="_293560144_1" class="st3" points="391.4,255.6 382.3,262.3 385.8,273 376.7,266.3 367.6,273 371.1,262.3 362,255.6 
			373.2,255.6 376.7,244.9 380.2,255.6 		"/>
		<polygon id="_293566216_2" class="st3" points="347.1,255.6 338,262.3 341.4,273 332.3,266.3 323.2,273 326.7,262.3 317.6,255.6 
			328.9,255.6 332.3,244.9 335.8,255.6 		"/>
		<polygon id="_293564464_3" class="st3" points="302.7,255.6 293.6,262.3 297.1,273 288,266.3 278.9,273 282.3,262.3 273.2,255.6 
			284.5,255.6 288,244.9 291.5,255.6 		"/>
		<polygon id="_293562856_4" class="st3" points="258.3,255.6 249.2,262.3 252.7,273 243.6,266.3 234.5,273 238,262.3 228.9,255.6 
			240.1,255.6 243.6,244.9 247.1,255.6 		"/>
		<polygon id="_293568424_5" class="st3" points="214,255.6 204.9,262.3 208.4,273 199.2,266.3 190.1,273 193.6,262.3 184.5,255.6 
			195.8,255.6 199.2,244.9 202.7,255.6 		"/>
		<polygon id="_293566480_6" class="st3" points="169.6,255.6 160.5,262.3 164,273 154.9,266.3 145.8,273 149.2,262.3 140.1,255.6 
			151.4,255.6 154.9,244.9 158.4,255.6 		"/>
		<polygon id="_293560936" class="st3" points="125.3,255.6 116.1,262.3 119.6,273 110.5,266.3 101.4,273 104.9,262.3 95.8,255.6 
			107,255.6 110.5,244.9 114,255.6 		"/>
		<polygon id="_293560120_7" class="st5" points="435.8,206.3 426.7,212.9 430.2,223.6 421.1,217 412,223.6 415.4,212.9 
			406.3,206.3 417.6,206.3 421.1,195.6 424.5,206.3 		"/>
		<polygon id="_293560144_8" class="st5" points="391.4,206.3 382.3,212.9 385.8,223.6 376.7,217 367.6,223.6 371.1,212.9 
			362,206.3 373.2,206.3 376.7,195.6 380.2,206.3 		"/>
		<polygon id="_293566216_9" class="st5" points="347.1,206.3 338,212.9 341.4,223.6 332.3,217 323.2,223.6 326.7,212.9 
			317.6,206.3 328.9,206.3 332.3,195.6 335.8,206.3 		"/>
		<polygon id="_293564464_10" class="st5" points="302.7,206.3 293.6,212.9 297.1,223.6 288,217 278.9,223.6 282.3,212.9 
			273.2,206.3 284.5,206.3 288,195.6 291.5,206.3 		"/>
		<polygon id="_293562856_11" class="st5" points="258.3,206.3 249.2,212.9 252.7,223.6 243.6,217 234.5,223.6 238,212.9 
			228.9,206.3 240.1,206.3 243.6,195.6 247.1,206.3 		"/>
		<polygon id="_293568424_12" class="st5" points="214,206.3 204.9,212.9 208.4,223.6 199.2,217 190.1,223.6 193.6,212.9 
			184.5,206.3 195.8,206.3 199.2,195.6 202.7,206.3 		"/>
		<polygon id="_293566480_13" class="st5" points="169.6,206.3 160.5,212.9 164,223.6 154.9,217 145.8,223.6 149.2,212.9 
			140.1,206.3 151.4,206.3 154.9,195.6 158.4,206.3 		"/>
		<polygon id="_293560936_14" class="st5" points="125.3,206.3 116.1,212.9 119.6,223.6 110.5,217 101.4,223.6 104.9,212.9 
			95.8,206.3 107,206.3 110.5,195.6 114,206.3 		"/>
		<polygon id="_293560120_15" class="st3" points="435.8,157 426.7,163.6 430.2,174.3 421.1,167.7 412,174.3 415.4,163.6 406.3,157 
			417.6,157 421.1,146.3 424.5,157 		"/>
		<polygon id="_293560144_16" class="st3" points="391.4,157 382.3,163.6 385.8,174.3 376.7,167.7 367.6,174.3 371.1,163.6 362,157 
			373.2,157 376.7,146.3 380.2,157 		"/>
		<polygon id="_293566216_17" class="st3" points="347.1,157 338,163.6 341.4,174.3 332.3,167.7 323.2,174.3 326.7,163.6 317.6,157 
			328.9,157 332.3,146.3 335.8,157 		"/>
		<polygon id="_293564464_18" class="st3" points="302.7,157 293.6,163.6 297.1,174.3 288,167.7 278.9,174.3 282.3,163.6 273.2,157 
			284.5,157 288,146.3 291.5,157 		"/>
		<polygon id="_293562856_19" class="st3" points="258.3,157 249.2,163.6 252.7,174.3 243.6,167.7 234.5,174.3 238,163.6 228.9,157 
			240.1,157 243.6,146.3 247.1,157 		"/>
		<polygon id="_293568424_20" class="st3" points="214,157 204.9,163.6 208.4,174.3 199.2,167.7 190.1,174.3 193.6,163.6 184.5,157 
			195.8,157 199.2,146.3 202.7,157 		"/>
		<polygon id="_293566480_21" class="st3" points="169.6,157 160.5,163.6 164,174.3 154.9,167.7 145.8,174.3 149.2,163.6 140.1,157 
			151.4,157 154.9,146.3 158.4,157 		"/>
		<polygon id="_293560936_22" class="st3" points="125.3,157 116.1,163.6 119.6,174.3 110.5,167.7 101.4,174.3 104.9,163.6 
			95.8,157 107,157 110.5,146.3 114,157 		"/>
		<polygon id="_96273624" class="st3" points="413.6,305 404.5,311.6 408,322.3 398.9,315.7 389.8,322.3 393.3,311.6 384.1,305 
			395.4,305 398.9,294.2 402.4,305 		"/>
		<polygon id="_96273672" class="st3" points="369.3,305 360.2,311.6 363.6,322.3 354.5,315.7 345.4,322.3 348.9,311.6 339.8,305 
			351,305 354.5,294.2 358,305 		"/>
		<polygon id="_253570544" class="st3" points="324.9,305 315.8,311.6 319.3,322.3 310.2,315.7 301,322.3 304.5,311.6 295.4,305 
			306.7,305 310.2,294.2 313.6,305 		"/>
		<polygon id="_253570568" class="st3" points="280.5,305 271.4,311.6 274.9,322.3 265.8,315.7 256.7,322.3 260.2,311.6 251,305 
			262.3,305 265.8,294.2 269.3,305 		"/>
		<polygon id="_301857664" class="st3" points="236.2,305 227.1,311.6 230.5,322.3 221.4,315.7 212.3,322.3 215.8,311.6 206.7,305 
			217.9,305 221.4,294.2 224.9,305 		"/>
		<polygon id="_295315704" class="st3" points="191.8,305 182.7,311.6 186.2,322.3 177.1,315.7 167.9,322.3 171.4,311.6 162.3,305 
			173.6,305 177.1,294.2 180.5,305 		"/>
		<polygon id="_302831920" class="st3" points="147.4,305 138.3,311.6 141.8,322.3 132.7,315.7 123.6,322.3 127.1,311.6 118,305 
			129.2,305 132.7,294.2 136.2,305 		"/>
	</g>
</g>
</svg>
