<?xml version="1.0" encoding="utf-8"?>
<!-- Generator: Adobe Illustrator 22.1.0, SVG Export Plug-In . SVG Version: 6.00 Build 0)  -->
<svg version="1.1" xmlns="http://www.w3.org/2000/svg" xmlns:xlink="http://www.w3.org/1999/xlink" x="0px" y="0px"
	 viewBox="0 0 1100 650" style="enable-background:new 0 0 1100 650;" xml:space="preserve">
<style type="text/css">
	.st0{fill:#ffffff;}
	.st1{fill:#333333;}
	.st2{fill:#CD2031;}
	.st3{fill:#FFFFFF;}
	.st4{fill:#243672;}
</style>
<g id="Layer_1">
	<g id="Layer_2_1_">
		<g>
			<rect x="1" y="1" style="fill:#f7f7f7;" width="1098" height="648"/>
			<path class="st1" d="M1098,2v646H2V2H1098 M1100,0H0v650h1100V0L1100,0z"/>
		</g>
	</g>
</g>
<g id="Layer_2">
	<g>
		<rect x="175" y="75" class="st2" width="750" height="500"/>
	</g>
	<g>
		<path d="M175,132.7h750 M175,209.6h750 M175,286.5h750 M175,363.5h750 M175,440.4h750 M175,517.3h750"/>
		<path class="st3" d="M925,536.5H175v-38.5h750V536.5z M925,459.6H175v-38.5h750V459.6z M925,382.7H175v-38.5h750V382.7z
			 M925,305.8H175v-38.5h750V305.8z M925,228.8H175v-38.5h750V228.8z M925,151.9H175v-38.5h750V151.9z"/>
	</g>
	<g>
		<polygon class="st4" points="175,102.2 175,177.6 250.4,177.6 		"/>
		<polygon class="st4" points="444.2,177.6 444.2,102.2 368.9,177.6 		"/>
		<polygon class="st4" points="202.2,344.2 277.6,344.2 277.6,268.9 		"/>
		<polygon class="st4" points="175,241.7 175,317 250.4,241.7 		"/>
		<polygon class="st4" points="417,75 341.7,75 341.7,150.4 		"/>
		<polygon class="st4" points="444.2,317 444.2,241.7 368.9,241.7 		"/>
		<polygon class="st4" points="277.6,75 202.2,75 277.6,150.4 		"/>
		<polygon class="st4" points="341.7,344.2 417,344.2 341.7,268.9 		"/>
		<polygon class="st3" points="309.6,182.4 309.6,75 277.6,75 277.6,150.4 		"/>
		<polygon class="st3" points="368.9,241.7 444.2,241.7 444.2,209.6 336.8,209.6 		"/>
		<polygon class="st3" points="341.7,150.4 341.7,75 309.6,75 309.6,182.4 		"/>
		<polygon class="st3" points="336.8,209.6 444.2,209.6 444.2,177.6 368.9,177.6 		"/>
		<polygon class="st3" points="250.4,177.6 175,177.6 175,209.6 282.4,209.6 		"/>
		<polygon class="st3" points="309.6,236.8 309.6,344.2 341.7,344.2 341.7,268.9 		"/>
		<polygon class="st3" points="277.6,268.9 277.6,344.2 309.6,344.2 309.6,236.8 		"/>
		<polygon class="st3" points="282.4,209.6 175,209.6 175,241.7 250.4,241.7 		"/>
		<line class="st3" x1="417" y1="75" x2="444.2" y2="75"/>
		<line class="st3" x1="202.2" y1="344.2" x2="175" y2="344.2"/>
		<polygon class="st3" points="341.7,268.9 417,344.2 444.2,344.2 341.7,241.7 		"/>
		<polygon class="st3" points="368.9,177.6 444.2,102.2 444.2,75 341.7,177.6 		"/>
		<polygon class="st3" points="277.6,150.4 202.2,75 175,75 277.6,177.6 		"/>
		<polygon class="st3" points="368.9,241.7 341.7,241.7 444.2,344.2 444.2,317 		"/>
		<polygon class="st3" points="250.4,241.7 175,317 175,344.2 277.6,241.7 		"/>
		<polygon class="st3" points="277.6,241.7 175,344.2 202.2,344.2 277.6,268.9 		"/>
		<polygon class="st3" points="341.7,177.6 444.2,75 417,75 341.7,150.4 		"/>
		<polygon class="st3" points="277.6,177.6 175,75 175,102.2 250.4,177.6 		"/>
		<polygon class="st3" points="341.7,177.6 341.7,150.4 309.6,182.4 309.6,209.6 		"/>
		<polygon class="st3" points="282.4,209.6 250.4,241.7 277.6,241.7 309.6,209.6 		"/>
		<polygon class="st3" points="277.6,241.7 277.6,268.9 309.6,236.8 309.6,209.6 		"/>
		<polygon class="st3" points="336.8,209.6 368.9,177.6 341.7,177.6 309.6,209.6 		"/>
		<polygon class="st3" points="309.6,236.8 341.7,268.9 341.7,241.7 309.6,209.6 		"/>
		<polygon class="st3" points="309.6,209.6 341.7,241.7 368.9,241.7 336.8,209.6 		"/>
		<polygon class="st3" points="309.6,182.4 277.6,150.4 277.6,177.6 309.6,209.6 		"/>
		<polygon class="st3" points="277.6,177.6 250.4,177.6 282.4,209.6 309.6,209.6 		"/>
	</g>
	<g>
		<path d="M175,209.6h269.2 M309.6,75v269.2"/>
		<polygon class="st2" points="328.8,344.2 290.4,344.2 290.4,228.8 175,228.8 175,190.4 290.4,190.4 290.4,75 328.8,75 
			328.8,190.4 444.2,190.4 444.2,228.8 328.8,228.8 		"/>
	</g>
</g>
</svg>
