<?xml version="1.0" encoding="utf-8"?>
<!-- Generator: Adobe Illustrator 22.1.0, SVG Export Plug-In . SVG Version: 6.00 Build 0)  -->
<svg version="1.1" id="Layer_1" xmlns="http://www.w3.org/2000/svg" xmlns:xlink="http://www.w3.org/1999/xlink" x="0px" y="0px"
	 viewBox="0 0 1100 650" style="enable-background:new 0 0 1100 650;" xml:space="preserve">
<style type="text/css">
	.st0{fill:#F7F7F7;}
	.st1{fill:#333333;}
	.st2{fill:#CD2031;}
	.st3{fill:#FFFFFF;}
	.st4{fill:#243672;}
</style>
<g id="Layer_1_1_">
	<g id="Layer_2_1_">
		<g>
			<rect x="1" y="1" class="st0" width="1098" height="648"/>
			<path class="st1" d="M1098,2v646H2V2H1098 M1100,0H0v650h1100V0L1100,0z"/>
		</g>
	</g>
</g>
<rect x="75" y="75" class="st2" width="950" height="500"/>
<g>
	<path d="M75,132.7h950 M75,209.6h950 M75,286.5h950 M75,363.5h950 M75,440.4h950 M75,517.3h950"/>
	<path class="st3" d="M1025,536.5H75v-38.5h950V536.5z M1025,459.6H75v-38.5h950V459.6z M1025,382.7H75v-38.5h950V382.7z
		 M1025,305.8H75v-38.5h950V305.8z M1025,228.8H75v-38.5h950V228.8z M1025,151.9H75v-38.5h950V151.9z"/>
</g>
<g>
	<rect x="75" y="75" class="st4" width="380" height="269.2"/>
</g>
<g>
	<g>
		<g>
			<g id="s7">
				<g id="s6">
					<g>
						<g id="s">
							<path class="st3" d="M112.7,93.3l9,27.8l-23.7-17.2h29.3l-23.7,17.2L112.7,93.3z"/>
						</g>
					</g>
					<g>
						<g id="s_1_">
							<path class="st3" d="M163.5,93.3l9,27.8l-23.7-17.2h29.3l-23.7,17.2L163.5,93.3z"/>
						</g>
					</g>
					<g>
						<g id="s_2_">
							<path class="st3" d="M214.2,93.3l9,27.8l-23.7-17.2h29.3l-23.7,17.2L214.2,93.3z"/>
						</g>
					</g>
					<g>
						<g id="s_3_">
							<path class="st3" d="M265,93.3l9,27.8l-23.7-17.2h29.3L256,121.1L265,93.3z"/>
						</g>
					</g>
					<g>
						<g id="s_4_">
							<path class="st3" d="M315.8,93.3l9,27.8l-23.7-17.2h29.3l-23.7,17.2L315.8,93.3z"/>
						</g>
					</g>
					<g>
						<g id="s_5_">
							<path class="st3" d="M366.5,93.3l9,27.8l-23.7-17.2h29.3l-23.7,17.2L366.5,93.3z"/>
						</g>
					</g>
				</g>
				<g>
					<g id="s_6_">
						<path class="st3" d="M417.3,93.3l9,27.8l-23.7-17.2h29.3l-23.7,17.2L417.3,93.3z"/>
					</g>
				</g>
			</g>
			<g>
				<g id="s7_1_">
					<g id="s6_1_">
						<g>
							<g id="s_7_">
								<path class="st3" d="M112.7,143.8l9,27.8l-23.7-17.2h29.3l-23.7,17.2L112.7,143.8z"/>
							</g>
						</g>
						<g>
							<g id="s_8_">
								<path class="st3" d="M163.5,143.8l9,27.8l-23.7-17.2h29.3l-23.7,17.2L163.5,143.8z"/>
							</g>
						</g>
						<g>
							<g id="s_9_">
								<path class="st3" d="M214.2,143.8l9,27.8l-23.7-17.2h29.3l-23.7,17.2L214.2,143.8z"/>
							</g>
						</g>
						<g>
							<g id="s_10_">
								<path class="st3" d="M265,143.8l9,27.8l-23.7-17.2h29.3L256,171.6L265,143.8z"/>
							</g>
						</g>
						<g>
							<g id="s_11_">
								<path class="st3" d="M315.8,143.8l9,27.8l-23.7-17.2h29.3l-23.7,17.2L315.8,143.8z"/>
							</g>
						</g>
						<g>
							<g id="s_12_">
								<path class="st3" d="M366.5,143.8l9,27.8l-23.7-17.2h29.3l-23.7,17.2L366.5,143.8z"/>
							</g>
						</g>
					</g>
					<g>
						<g id="s_13_">
							<path class="st3" d="M417.3,143.8l9,27.8l-23.7-17.2h29.3l-23.7,17.2L417.3,143.8z"/>
						</g>
					</g>
				</g>
				<g>
					<g id="s6_2_">
						<g>
							<g id="s_14_">
								<path class="st3" d="M138.1,194.2l9,27.8l-23.7-17.2h29.3L129,222.1L138.1,194.2z"/>
							</g>
						</g>
						<g>
							<g id="s_15_">
								<path class="st3" d="M188.8,194.2l9,27.8l-23.7-17.2h29.3l-23.7,17.2L188.8,194.2z"/>
							</g>
						</g>
						<g>
							<g id="s_16_">
								<path class="st3" d="M239.6,194.2l9,27.8L225,204.9h29.3l-23.7,17.2L239.6,194.2z"/>
							</g>
						</g>
						<g>
							<g id="s_17_">
								<path class="st3" d="M290.4,194.2l9,27.8l-23.7-17.2H305l-23.7,17.2L290.4,194.2z"/>
							</g>
						</g>
						<g>
							<g id="s_18_">
								<path class="st3" d="M341.2,194.2l9,27.8l-23.7-17.2h29.3l-23.7,17.2L341.2,194.2z"/>
							</g>
						</g>
						<g>
							<g id="s_19_">
								<path class="st3" d="M391.9,194.2l9,27.8l-23.7-17.2h29.3l-23.7,17.2L391.9,194.2z"/>
							</g>
						</g>
					</g>
					<g>
						<g id="s7_2_">
							<g id="s6_3_">
								<g>
									<g id="s_20_">
										<path class="st3" d="M112.7,244.7l9,27.8l-23.7-17.2h29.3l-23.7,17.2L112.7,244.7z"/>
									</g>
								</g>
								<g>
									<g id="s_21_">
										<path class="st3" d="M163.5,244.7l9,27.8l-23.7-17.2h29.3l-23.7,17.2L163.5,244.7z"/>
									</g>
								</g>
								<g>
									<g id="s_22_">
										<path class="st3" d="M214.2,244.7l9,27.8l-23.7-17.2h29.3l-23.7,17.2L214.2,244.7z"/>
									</g>
								</g>
								<g>
									<g id="s_23_">
										<path class="st3" d="M265,244.7l9,27.8l-23.7-17.2h29.3L256,272.5L265,244.7z"/>
									</g>
								</g>
								<g>
									<g id="s_24_">
										<path class="st3" d="M315.8,244.7l9,27.8l-23.7-17.2h29.3l-23.7,17.2L315.8,244.7z"/>
									</g>
								</g>
								<g>
									<g id="s_25_">
										<path class="st3" d="M366.5,244.7l9,27.8l-23.7-17.2h29.3l-23.7,17.2L366.5,244.7z"/>
									</g>
								</g>
							</g>
							<g>
								<g id="s_26_">
									<path class="st3" d="M417.3,244.7l9,27.8l-23.7-17.2h29.3l-23.7,17.2L417.3,244.7z"/>
								</g>
							</g>
						</g>
						<g id="u">
							<g id="s7_3_">
								<g id="s6_4_">
									<g>
										<g id="s_27_">
											<path class="st3" d="M112.7,295.2l9,27.8l-23.7-17.2h29.3L103.6,323L112.7,295.2z"/>
										</g>
									</g>
									<g>
										<g id="s_28_">
											<path class="st3" d="M163.5,295.2l9,27.8l-23.7-17.2h29.3L154.4,323L163.5,295.2z"/>
										</g>
									</g>
									<g>
										<g id="s_29_">
											<path class="st3" d="M214.2,295.2l9,27.8l-23.7-17.2h29.3L205.2,323L214.2,295.2z"/>
										</g>
									</g>
									<g>
										<g id="s_30_">
											<path class="st3" d="M265,295.2l9,27.8l-23.7-17.2h29.3L256,323L265,295.2z"/>
										</g>
									</g>
									<g>
										<g id="s_31_">
											<path class="st3" d="M315.8,295.2l9,27.8l-23.7-17.2h29.3L306.7,323L315.8,295.2z"/>
										</g>
									</g>
									<g>
										<g id="s_32_">
											<path class="st3" d="M366.5,295.2l9,27.8l-23.7-17.2h29.3L357.5,323L366.5,295.2z"/>
										</g>
									</g>
								</g>
								<g>
									<g id="s_33_">
										<path class="st3" d="M417.3,295.2l9,27.8l-23.7-17.2h29.3L408.3,323L417.3,295.2z"/>
									</g>
								</g>
							</g>
						</g>
					</g>
				</g>
			</g>
		</g>
	</g>
</g>
</svg>
