<?xml version="1.0" encoding="utf-8"?>
<!-- Generator: Adobe Illustrator 22.1.0, SVG Export Plug-In . SVG Version: 6.00 Build 0)  -->
<svg version="1.1" id="Layer_1" xmlns="http://www.w3.org/2000/svg" xmlns:xlink="http://www.w3.org/1999/xlink" x="0px" y="0px"
	 viewBox="0 0 1100 650" style="enable-background:new 0 0 1100 650;" xml:space="preserve">
<style type="text/css">
	.st0{fill:#F7F7F7;}
	.st1{fill:#333333;}
	.st2{fill:#FFFFFF;}
	.st3{fill:#CD2031;}
	.st4{fill:#243672;}
</style>
<g id="Layer_1_1_">
	<g id="Layer_2_1_">
		<g>
			<rect x="1" y="1" class="st0" width="1098" height="648"/>
			<path class="st1" d="M1098,2v646H2V2H1098 M1100,0H0v650h1100V0L1100,0z"/>
		</g>
	</g>
</g>
<g id="Layer_x0020_1">
	<polygon class="st2" points="75,75 1025,75 1025,575 75,575 	"/>
	<polygon class="st3" points="75,536.5 1025,536.5 1025,575 75,575 	"/>
	<polygon class="st3" points="75,459.6 1025,459.6 1025,498.1 75,498.1 	"/>
	<polygon class="st3" points="75,382.7 1025,382.7 1025,421.2 75,421.2 	"/>
	<polygon class="st3" points="75,305.8 1025,305.8 1025,344.2 75,344.2 	"/>
	<polygon class="st3" points="75,228.8 1025,228.8 1025,267.3 75,267.3 	"/>
	<polygon class="st3" points="75,151.9 1025,151.9 1025,190.4 75,190.4 	"/>
	<polygon class="st3" points="75,75 1025,75 1025,113.5 75,113.5 	"/>
	<polygon class="st4" points="75,344.2 455.3,344.2 455.3,75 75,75 	"/>
</g>
<g>
	<polygon class="st2" points="411,125 420.1,118.4 429.2,125 425.7,114.3 434.8,107.6 423.6,107.6 420.1,96.9 416.6,107.6 
		405.3,107.6 414.5,114.3 	"/>
	<polygon class="st2" points="375.7,96.9 372.2,107.6 361,107.6 370.1,114.3 366.6,125 375.7,118.4 384.8,125 381.4,114.3 
		390.5,107.6 379.2,107.6 	"/>
	<polygon class="st2" points="331.4,96.9 327.9,107.6 316.6,107.6 325.7,114.3 322.2,125 331.4,118.4 340.5,125 337,114.3 
		346.1,107.6 334.8,107.6 	"/>
	<polygon class="st2" points="287,96.9 283.5,107.6 272.2,107.6 281.4,114.3 277.9,125 287,118.4 296.1,125 292.6,114.3 
		301.7,107.6 290.5,107.6 	"/>
	<polygon class="st2" points="242.6,96.9 239.1,107.6 227.9,107.6 237,114.3 233.5,125 242.6,118.4 251.7,125 248.3,114.3 
		257.4,107.6 246.1,107.6 	"/>
	<polygon class="st2" points="198.3,96.9 194.8,107.6 183.5,107.6 192.6,114.3 189.2,125 198.3,118.4 207.4,125 203.9,114.3 
		213,107.6 201.7,107.6 	"/>
	<polygon class="st2" points="153.9,96.9 150.4,107.6 139.2,107.6 148.3,114.3 144.8,125 153.9,118.4 163,125 159.5,114.3 
		168.6,107.6 157.4,107.6 	"/>
	<polygon class="st2" points="420.1,244.9 416.6,255.6 405.3,255.6 414.5,262.3 411,273 420.1,266.3 429.2,273 425.7,262.3 
		434.8,255.6 423.6,255.6 	"/>
	<polygon class="st2" points="375.7,244.9 372.2,255.6 361,255.6 370.1,262.3 366.6,273 375.7,266.3 384.8,273 381.4,262.3 
		390.5,255.6 379.2,255.6 	"/>
	<polygon class="st2" points="331.4,244.9 327.9,255.6 316.6,255.6 325.7,262.3 322.2,273 331.4,266.3 340.5,273 337,262.3 
		346.1,255.6 334.8,255.6 	"/>
	<polygon class="st2" points="287,244.9 283.5,255.6 272.2,255.6 281.4,262.3 277.9,273 287,266.3 296.1,273 292.6,262.3 
		301.7,255.6 290.5,255.6 	"/>
	<polygon class="st2" points="242.6,244.9 239.1,255.6 227.9,255.6 237,262.3 233.5,273 242.6,266.3 251.7,273 248.3,262.3 
		257.4,255.6 246.1,255.6 	"/>
	<polygon class="st2" points="198.3,244.9 194.8,255.6 183.5,255.6 192.6,262.3 189.2,273 198.3,266.3 207.4,273 203.9,262.3 
		213,255.6 201.7,255.6 	"/>
	<polygon class="st2" points="153.9,244.9 150.4,255.6 139.2,255.6 148.3,262.3 144.8,273 153.9,266.3 163,273 159.5,262.3 
		168.6,255.6 157.4,255.6 	"/>
	<polygon class="st2" points="113,255.6 109.5,244.9 106.1,255.6 94.8,255.6 103.9,262.3 100.4,273 109.5,266.3 118.6,273 
		115.2,262.3 124.3,255.6 	"/>
	<polygon class="st2" points="420.1,195.6 416.6,206.3 405.3,206.3 414.5,212.9 411,223.6 420.1,217 429.2,223.6 425.7,212.9 
		434.8,206.3 423.6,206.3 	"/>
	<polygon class="st2" points="375.7,195.6 372.2,206.3 361,206.3 370.1,212.9 366.6,223.6 375.7,217 384.8,223.6 381.4,212.9 
		390.5,206.3 379.2,206.3 	"/>
	<polygon class="st2" points="331.4,195.6 327.9,206.3 316.6,206.3 325.7,212.9 322.2,223.6 331.4,217 340.5,223.6 337,212.9 
		346.1,206.3 334.8,206.3 	"/>
	<polygon class="st2" points="287,195.6 283.5,206.3 272.2,206.3 281.4,212.9 277.9,223.6 287,217 296.1,223.6 292.6,212.9 
		301.7,206.3 290.5,206.3 	"/>
	<polygon class="st2" points="242.6,195.6 239.1,206.3 227.9,206.3 237,212.9 233.5,223.6 242.6,217 251.7,223.6 248.3,212.9 
		257.4,206.3 246.1,206.3 	"/>
	<polygon class="st2" points="198.3,195.6 194.8,206.3 183.5,206.3 192.6,212.9 189.2,223.6 198.3,217 207.4,223.6 203.9,212.9 
		213,206.3 201.7,206.3 	"/>
	<polygon class="st2" points="153.9,195.6 150.4,206.3 139.2,206.3 148.3,212.9 144.8,223.6 153.9,217 163,223.6 159.5,212.9 
		168.6,206.3 157.4,206.3 	"/>
	<polygon class="st2" points="420.1,146.3 416.6,157 405.3,157 414.5,163.6 411,174.3 420.1,167.7 429.2,174.3 425.7,163.6 
		434.8,157 423.6,157 	"/>
	<polygon class="st2" points="375.7,146.3 372.2,157 361,157 370.1,163.6 366.6,174.3 375.7,167.7 384.8,174.3 381.4,163.6 
		390.5,157 379.2,157 	"/>
	<polygon class="st2" points="331.4,146.3 327.9,157 316.6,157 325.7,163.6 322.2,174.3 331.4,167.7 340.5,174.3 337,163.6 
		346.1,157 334.8,157 	"/>
	<polygon class="st2" points="287,146.3 283.5,157 272.2,157 281.4,163.6 277.9,174.3 287,167.7 296.1,174.3 292.6,163.6 301.7,157 
		290.5,157 	"/>
	<polygon class="st2" points="242.6,146.3 239.1,157 227.9,157 237,163.6 233.5,174.3 242.6,167.7 251.7,174.3 248.3,163.6 
		257.4,157 246.1,157 	"/>
	<polygon class="st2" points="198.3,146.3 194.8,157 183.5,157 192.6,163.6 189.2,174.3 198.3,167.7 207.4,174.3 203.9,163.6 
		213,157 201.7,157 	"/>
	<polygon class="st2" points="153.9,146.3 150.4,157 139.2,157 148.3,163.6 144.8,174.3 153.9,167.7 163,174.3 159.5,163.6 
		168.6,157 157.4,157 	"/>
	<polygon class="st2" points="109.5,146.3 106.1,157 94.8,157 103.9,163.6 100.4,174.3 109.5,167.7 118.6,174.3 115.2,163.6 
		124.3,157 113,157 	"/>
	<polygon class="st2" points="423.6,305 420.1,294.2 416.6,305 405.3,305 414.5,311.6 411,322.3 420.1,315.7 429.2,322.3 
		425.7,311.6 434.8,305 	"/>
	<polygon class="st2" points="379.2,305 375.7,294.2 372.2,305 361,305 370.1,311.6 366.6,322.3 375.7,315.7 384.8,322.3 
		381.4,311.6 390.5,305 	"/>
	<polygon class="st2" points="334.8,305 331.4,294.2 327.9,305 316.6,305 325.7,311.6 322.2,322.3 331.4,315.7 340.5,322.3 
		337,311.6 346.1,305 	"/>
	<polygon class="st2" points="290.5,305 287,294.2 283.5,305 272.2,305 281.4,311.6 277.9,322.3 287,315.7 296.1,322.3 292.6,311.6 
		301.7,305 	"/>
	<polygon class="st2" points="246.1,305 242.6,294.2 239.1,305 227.9,305 237,311.6 233.5,322.3 242.6,315.7 251.7,322.3 
		248.3,311.6 257.4,305 	"/>
	<polygon class="st2" points="201.7,305 198.3,294.2 194.8,305 183.5,305 192.6,311.6 189.2,322.3 198.3,315.7 207.4,322.3 
		203.9,311.6 213,305 	"/>
	<polygon class="st2" points="157.4,305 153.9,294.2 150.4,305 139.2,305 148.3,311.6 144.8,322.3 153.9,315.7 163,322.3 
		159.5,311.6 168.6,305 	"/>
</g>
</svg>
