<?xml version="1.0" encoding="utf-8"?>
<!-- Generator: Adobe Illustrator 22.1.0, SVG Export Plug-In . SVG Version: 6.00 Build 0)  -->
<svg version="1.1" id="Layer_1" xmlns="http://www.w3.org/2000/svg" xmlns:xlink="http://www.w3.org/1999/xlink" x="0px" y="0px"
	 viewBox="0 0 1100 650" style="enable-background:new 0 0 1100 650;" xml:space="preserve">
<style type="text/css">
	.st0{fill:#ffffff;}
	.st1{fill:#333333;}
	.st2{fill:#CD2031;}
	.st3{fill:#FFFFFF;}
	.st4{fill:#243672;}
</style>
<g id="Layer_1_1_">
	<g id="Layer_2_1_">
		<g>
			<rect x="1" y="1" style="fill:#f7f7f7;" width="1098" height="648"/>
			<path class="st1" d="M1098,2v646H2V2H1098 M1100,0H0v650h1100V0L1100,0z"/>
		</g>
	</g>
</g>
<rect x="75" y="75" class="st2" width="950" height="500"/>
<g id="s3_3_">
	<rect id="Ws_11_" x="75" y="113.5" class="st3" width="950" height="38.5"/>
	<g>
		<rect id="Ws_10_" x="75" y="190.4" class="st3" width="950" height="38.5"/>
	</g>
	<g>
		<rect id="Ws_9_" x="75" y="267.3" class="st3" width="950" height="38.5"/>
	</g>
</g>
<g id="s3_2_">
	<rect id="Ws_8_" x="75" y="344.2" class="st3" width="950" height="38.5"/>
	<g>
		<rect id="Ws_7_" x="75" y="421.2" class="st3" width="950" height="38.5"/>
	</g>
	<g>
		<rect id="Ws_6_" x="75" y="498.1" class="st3" width="950" height="38.5"/>
	</g>
</g>
<rect x="75" y="75" class="st4" width="380" height="269.2"/>
<polygon class="st3" points="99.2,85.3 95.4,97.1 83,97.1 93,104.4 89.2,116.1 99.2,108.9 109.2,116.1 105.4,104.4 115.4,97.1 
	103,97.1 "/>
<polygon class="st3" points="146.6,85.3 142.8,97.1 130.4,97.1 140.4,104.4 136.6,116.1 146.6,108.9 156.6,116.1 152.8,104.4 
	162.8,97.1 150.4,97.1 "/>
<polygon class="st3" points="193.9,85.3 190.1,97.1 177.8,97.1 187.8,104.4 183.9,116.1 193.9,108.9 204,116.1 200.1,104.4 
	210.1,97.1 197.8,97.1 "/>
<polygon class="st3" points="241.3,85.3 237.5,97.1 225.1,97.1 235.1,104.4 231.3,116.1 241.3,108.9 251.3,116.1 247.5,104.4 
	257.5,97.1 245.1,97.1 "/>
<polygon class="st3" points="288.7,85.3 284.9,97.1 272.5,97.1 282.5,104.4 278.7,116.1 288.7,108.9 298.7,116.1 294.9,104.4 
	304.9,97.1 292.5,97.1 "/>
<polygon class="st3" points="336.1,85.3 332.2,97.1 319.9,97.1 329.9,104.4 326,116.1 336.1,108.9 346.1,116.1 342.2,104.4 
	352.2,97.1 339.9,97.1 "/>
<polygon class="st3" points="383.4,85.3 379.6,97.1 367.2,97.1 377.2,104.4 373.4,116.1 383.4,108.9 393.4,116.1 389.6,104.4 
	399.6,97.1 387.2,97.1 "/>
<polygon class="st3" points="424.6,104.4 420.8,116.1 430.8,108.9 440.8,116.1 437,104.4 447,97.1 434.6,97.1 430.8,85.3 427,97.1 
	414.6,97.1 "/>
<polygon class="st3" points="99.2,128.8 95.4,140.6 83,140.6 93,147.9 89.2,159.6 99.2,152.4 109.2,159.6 105.4,147.9 115.4,140.6 
	103,140.6 "/>
<polygon class="st3" points="146.6,128.8 142.8,140.6 130.4,140.6 140.4,147.9 136.6,159.6 146.6,152.4 156.6,159.6 152.8,147.9 
	162.8,140.6 150.4,140.6 "/>
<polygon class="st3" points="193.9,128.8 190.1,140.6 177.8,140.6 187.8,147.9 183.9,159.6 193.9,152.4 204,159.6 200.1,147.9 
	210.1,140.6 197.8,140.6 "/>
<polygon class="st3" points="241.3,128.8 237.5,140.6 225.1,140.6 235.1,147.9 231.3,159.6 241.3,152.4 251.3,159.6 247.5,147.9 
	257.5,140.6 245.1,140.6 "/>
<polygon class="st3" points="288.7,128.8 284.9,140.6 272.5,140.6 282.5,147.9 278.7,159.6 288.7,152.4 298.7,159.6 294.9,147.9 
	304.9,140.6 292.5,140.6 "/>
<polygon class="st3" points="336.1,128.8 332.2,140.6 319.9,140.6 329.9,147.9 326,159.6 336.1,152.4 346.1,159.6 342.2,147.9 
	352.2,140.6 339.9,140.6 "/>
<polygon class="st3" points="383.4,128.8 379.6,140.6 367.2,140.6 377.2,147.9 373.4,159.6 383.4,152.4 393.4,159.6 389.6,147.9 
	399.6,140.6 387.2,140.6 "/>
<polygon class="st3" points="430.8,128.8 427,140.6 414.6,140.6 424.6,147.9 420.8,159.6 430.8,152.4 440.8,159.6 437,147.9 
	447,140.6 434.6,140.6 "/>
<polygon class="st3" points="99.2,172.3 95.4,184.1 83,184.1 93,191.4 89.2,203.1 99.2,195.9 109.2,203.1 105.4,191.4 115.4,184.1 
	103,184.1 "/>
<polygon class="st3" points="146.6,172.3 142.8,184.1 130.4,184.1 140.4,191.4 136.6,203.1 146.6,195.9 156.6,203.1 152.8,191.4 
	162.8,184.1 150.4,184.1 "/>
<polygon class="st3" points="193.9,172.3 190.1,184.1 177.8,184.1 187.8,191.4 183.9,203.1 193.9,195.9 204,203.1 200.1,191.4 
	210.1,184.1 197.8,184.1 "/>
<polygon class="st3" points="241.3,172.3 237.5,184.1 225.1,184.1 235.1,191.4 231.3,203.1 241.3,195.9 251.3,203.1 247.5,191.4 
	257.5,184.1 245.1,184.1 "/>
<polygon class="st3" points="288.7,172.3 284.9,184.1 272.5,184.1 282.5,191.4 278.7,203.1 288.7,195.9 298.7,203.1 294.9,191.4 
	304.9,184.1 292.5,184.1 "/>
<polygon class="st3" points="336.1,172.3 332.2,184.1 319.9,184.1 329.9,191.4 326,203.1 336.1,195.9 346.1,203.1 342.2,191.4 
	352.2,184.1 339.9,184.1 "/>
<polygon class="st3" points="383.4,172.3 379.6,184.1 367.2,184.1 377.2,191.4 373.4,203.1 383.4,195.9 393.4,203.1 389.6,191.4 
	399.6,184.1 387.2,184.1 "/>
<polygon class="st3" points="430.8,172.3 427,184.1 414.6,184.1 424.6,191.4 420.8,203.1 430.8,195.9 440.8,203.1 437,191.4 
	447,184.1 434.6,184.1 "/>
<polygon class="st3" points="99.2,215.8 95.4,227.6 83,227.6 93,234.9 89.2,246.6 99.2,239.4 109.2,246.6 105.4,234.9 115.4,227.6 
	103,227.6 "/>
<polygon class="st3" points="146.6,215.8 142.8,227.6 130.4,227.6 140.4,234.9 136.6,246.6 146.6,239.4 156.6,246.6 152.8,234.9 
	162.8,227.6 150.4,227.6 "/>
<polygon class="st3" points="193.9,215.8 190.1,227.6 177.8,227.6 187.8,234.9 183.9,246.6 193.9,239.4 204,246.6 200.1,234.9 
	210.1,227.6 197.8,227.6 "/>
<polygon class="st3" points="241.3,215.8 237.5,227.6 225.1,227.6 235.1,234.9 231.3,246.6 241.3,239.4 251.3,246.6 247.5,234.9 
	257.5,227.6 245.1,227.6 "/>
<polygon class="st3" points="288.7,215.8 284.9,227.6 272.5,227.6 282.5,234.9 278.7,246.6 288.7,239.4 298.7,246.6 294.9,234.9 
	304.9,227.6 292.5,227.6 "/>
<polygon class="st3" points="336.1,215.8 332.2,227.6 319.9,227.6 329.9,234.9 326,246.6 336.1,239.4 346.1,246.6 342.2,234.9 
	352.2,227.6 339.9,227.6 "/>
<polygon class="st3" points="383.4,215.8 379.6,227.6 367.2,227.6 377.2,234.9 373.4,246.6 383.4,239.4 393.4,246.6 389.6,234.9 
	399.6,227.6 387.2,227.6 "/>
<polygon class="st3" points="430.8,215.8 427,227.6 414.6,227.6 424.6,234.9 420.8,246.6 430.8,239.4 440.8,246.6 437,234.9 
	447,227.6 434.6,227.6 "/>
<polygon class="st3" points="99.2,259.3 95.4,271.1 83,271.1 93,278.4 89.2,290.1 99.2,282.9 109.2,290.1 105.4,278.4 115.4,271.1 
	103,271.1 "/>
<polygon class="st3" points="146.6,259.3 142.8,271.1 130.4,271.1 140.4,278.4 136.6,290.1 146.6,282.9 156.6,290.1 152.8,278.4 
	162.8,271.1 150.4,271.1 "/>
<polygon class="st3" points="193.9,259.3 190.1,271.1 177.8,271.1 187.8,278.4 183.9,290.1 193.9,282.9 204,290.1 200.1,278.4 
	210.1,271.1 197.8,271.1 "/>
<polygon class="st3" points="241.3,259.3 237.5,271.1 225.1,271.1 235.1,278.4 231.3,290.1 241.3,282.9 251.3,290.1 247.5,278.4 
	257.5,271.1 245.1,271.1 "/>
<polygon class="st3" points="288.7,259.3 284.9,271.1 272.5,271.1 282.5,278.4 278.7,290.1 288.7,282.9 298.7,290.1 294.9,278.4 
	304.9,271.1 292.5,271.1 "/>
<polygon class="st3" points="336.1,259.3 332.2,271.1 319.9,271.1 329.9,278.4 326,290.1 336.1,282.9 346.1,290.1 342.2,278.4 
	352.2,271.1 339.9,271.1 "/>
<polygon class="st3" points="383.4,259.3 379.6,271.1 367.2,271.1 377.2,278.4 373.4,290.1 383.4,282.9 393.4,290.1 389.6,278.4 
	399.6,271.1 387.2,271.1 "/>
<polygon class="st3" points="430.8,259.3 427,271.1 414.6,271.1 424.6,278.4 420.8,290.1 430.8,282.9 440.8,290.1 437,278.4 
	447,271.1 434.6,271.1 "/>
<polygon class="st3" points="103,314.6 99.2,302.8 95.4,314.6 83,314.6 93,321.9 89.2,333.6 99.2,326.4 109.2,333.6 105.4,321.9 
	115.4,314.6 "/>
<polygon class="st3" points="150.4,314.6 146.6,302.8 142.8,314.6 130.4,314.6 140.4,321.9 136.6,333.6 146.6,326.4 156.6,333.6 
	152.8,321.9 162.8,314.6 "/>
<polygon class="st3" points="197.8,314.6 193.9,302.8 190.1,314.6 177.8,314.6 187.8,321.9 183.9,333.6 193.9,326.4 204,333.6 
	200.1,321.9 210.1,314.6 "/>
<polygon class="st3" points="245.1,314.6 241.3,302.8 237.5,314.6 225.1,314.6 235.1,321.9 231.3,333.6 241.3,326.4 251.3,333.6 
	247.5,321.9 257.5,314.6 "/>
<polygon class="st3" points="292.5,314.6 288.7,302.8 284.9,314.6 272.5,314.6 282.5,321.9 278.7,333.6 288.7,326.4 298.7,333.6 
	294.9,321.9 304.9,314.6 "/>
<polygon class="st3" points="339.9,314.6 336.1,302.8 332.2,314.6 319.9,314.6 329.9,321.9 326,333.6 336.1,326.4 346.1,333.6 
	342.2,321.9 352.2,314.6 "/>
<polygon class="st3" points="387.2,314.6 383.4,302.8 379.6,314.6 367.2,314.6 377.2,321.9 373.4,333.6 383.4,326.4 393.4,333.6 
	389.6,321.9 399.6,314.6 "/>
<polygon class="st3" points="434.6,314.6 430.8,302.8 427,314.6 414.6,314.6 424.6,321.9 420.8,333.6 430.8,326.4 440.8,333.6 
	437,321.9 447,314.6 "/>
</svg>
