<?xml version="1.0" encoding="utf-8"?>
<!-- Generator: Adobe Illustrator 22.1.0, SVG Export Plug-In . SVG Version: 6.00 Build 0)  -->
<svg version="1.1" xmlns="http://www.w3.org/2000/svg" xmlns:xlink="http://www.w3.org/1999/xlink" x="0px" y="0px"
	 viewBox="0 0 1100 650" style="enable-background:new 0 0 1100 650;" xml:space="preserve">
<style type="text/css">
	.st0{fill:#ffffff;}
	.st1{fill:#333333;}
	.st2{fill:#CD2031;}
	.st3{fill:#243672;}
</style>
<g id="Layer_2">
	<g id="bg">
		<g>
			<rect x="1" y="1" style="fill:#f7f7f7;" width="1098" height="648"/>
			<path class="st1" d="M1098,2v646H2V2H1098 M1100,0H0v650h1100V0L1100,0z"/>
		</g>
	</g>
</g>
<g id="Layer_1">
	<g id="Layer_1_1_">
		<rect x="418.4" y="75" class="st0" width="263.2" height="500"/>
		<rect x="418.4" y="75" class="st2" width="20.3" height="500"/>
		<rect x="458.9" y="75" class="st2" width="20.3" height="500"/>
		<rect x="499.4" y="75" class="st2" width="20.3" height="500"/>
		<rect x="539.9" y="75" class="st2" width="20.3" height="500"/>
		<rect x="580.4" y="75" class="st2" width="20.3" height="500"/>
		<rect x="620.8" y="75" class="st2" width="20.3" height="500"/>
		<rect x="661.3" y="75" class="st2" width="20.3" height="500"/>
		<rect x="418.4" y="375" class="st3" width="141.7" height="200"/>
		<polygon class="st0" points="424.3,524.7 429.9,526.6 429.9,532.4 433.4,527.7 439,529.5 435.5,524.7 439,519.9 433.4,521.8 
			429.9,517.1 429.9,522.9 		"/>
		<polygon class="st0" points="424.3,491.6 429.9,493.4 429.9,499.3 433.4,494.5 439,496.4 435.5,491.6 439,486.8 433.4,488.6 
			429.9,483.9 429.9,489.7 		"/>
		<polygon class="st0" points="424.3,458.4 429.9,460.3 429.9,466.1 433.4,461.4 439,463.2 435.5,458.4 439,453.6 433.4,455.5 
			429.9,450.7 429.9,456.6 		"/>
		<polygon class="st0" points="424.3,425.3 429.9,427.1 429.9,432.9 433.4,428.2 439,430.1 435.5,425.3 439,420.5 433.4,422.3 
			429.9,417.6 429.9,423.4 		"/>
		<polygon class="st0" points="433.4,395.1 439,396.9 435.5,392.1 439,387.3 433.4,389.2 429.9,384.4 429.9,390.3 424.3,392.1 
			429.9,393.9 429.9,399.8 		"/>
		<polygon class="st0" points="438.5,541.3 444.2,543.2 444.2,549 447.6,544.3 453.2,546.1 449.7,541.3 453.2,536.5 447.6,538.4 
			444.2,533.6 444.2,539.5 		"/>
		<polygon class="st0" points="438.5,508.2 444.2,510 444.2,515.8 447.6,511.1 453.2,512.9 449.7,508.2 453.2,503.4 447.6,505.2 
			444.2,500.5 444.2,506.3 		"/>
		<path class="st0" d="M438.5,475l5.6,1.8v5.9l3.5-4.8l5.6,1.8l-3.5-4.8l3.5-4.8l-5.6,1.8l-3.5-4.8v5.9L438.5,475z M446.6,475
			L446.6,475L446.6,475L446.6,475L446.6,475z"/>
		<polygon class="st0" points="438.5,441.8 444.2,443.7 444.2,449.5 447.6,444.8 453.2,446.6 449.7,441.8 453.2,437.1 447.6,438.9 
			444.2,434.2 444.2,440 		"/>
		<polygon class="st0" points="438.5,408.7 444.2,410.5 444.2,416.4 447.6,411.6 453.2,413.5 449.7,408.7 453.2,403.9 447.6,405.7 
			444.2,401 444.2,406.8 		"/>
		<polygon class="st0" points="452.7,557.9 458.4,559.7 458.4,565.6 461.8,560.8 467.4,562.7 463.9,557.9 467.4,553.1 461.8,554.9 
			458.4,550.2 458.4,556.1 		"/>
		<polygon class="st0" points="452.7,524.7 458.4,526.6 458.4,532.4 461.8,527.7 467.4,529.5 463.9,524.7 467.4,519.9 461.8,521.8 
			458.4,517.1 458.4,522.9 		"/>
		<polygon class="st0" points="452.7,491.6 458.4,493.4 458.4,499.3 461.8,494.5 467.4,496.4 463.9,491.6 467.4,486.8 461.8,488.6 
			458.4,483.9 458.4,489.7 		"/>
		<polygon class="st0" points="452.7,458.4 458.4,460.3 458.4,466.1 461.8,461.4 467.4,463.2 463.9,458.4 467.4,453.6 461.8,455.5 
			458.4,450.7 458.4,456.6 		"/>
		<polygon class="st0" points="452.7,425.3 458.4,427.1 458.4,432.9 461.8,428.2 467.4,430.1 463.9,425.3 467.4,420.5 461.8,422.3 
			458.4,417.6 458.4,423.4 		"/>
		<polygon class="st0" points="452.7,392.1 458.4,393.9 458.4,399.8 461.8,395.1 467.4,396.9 463.9,392.1 467.4,387.3 461.8,389.2 
			458.4,384.4 458.4,390.3 		"/>
		<polygon class="st0" points="466.9,541.3 472.6,543.2 472.6,549 476,544.3 481.6,546.1 478.2,541.3 481.6,536.5 476,538.4 
			472.6,533.6 472.6,539.5 		"/>
		<polygon class="st0" points="466.9,508.2 472.6,510 472.6,515.8 476,511.1 481.6,512.9 478.2,508.2 481.6,503.4 476,505.2 
			472.6,500.5 472.6,506.3 		"/>
		<path class="st0" d="M466.9,475l5.6,1.8v5.9l3.5-4.8l5.6,1.8l-3.5-4.8l3.5-4.8l-5.6,1.8l-3.5-4.8v5.9L466.9,475z M475.1,475
			L475.1,475L475.1,475L475.1,475z"/>
		<polygon class="st0" points="466.9,441.8 472.6,443.7 472.6,449.5 476,444.8 481.6,446.6 478.2,441.8 481.6,437.1 476,438.9 
			472.6,434.2 472.6,440 		"/>
		<polygon class="st0" points="466.9,408.7 472.6,410.5 472.6,416.4 476,411.6 481.6,413.5 478.2,408.7 481.6,403.9 476,405.7 
			472.6,401 472.6,406.8 		"/>
		<polygon class="st0" points="481.2,557.9 486.8,559.7 486.8,565.6 490.2,560.8 495.8,562.7 492.4,557.9 495.8,553.1 490.2,554.9 
			486.8,550.2 486.8,556.1 		"/>
		<polygon class="st0" points="481.2,524.7 486.8,526.6 486.8,532.4 490.2,527.7 495.8,529.5 492.4,524.7 495.8,519.9 490.2,521.8 
			486.8,517.1 486.8,522.9 		"/>
		<polygon class="st0" points="481.2,491.6 486.8,493.4 486.8,499.3 490.2,494.5 495.8,496.4 492.4,491.6 495.8,486.8 490.2,488.6 
			486.8,483.9 486.8,489.7 		"/>
		<polygon class="st0" points="481.2,458.4 486.8,460.3 486.8,466.1 490.2,461.4 495.8,463.2 492.4,458.4 495.8,453.6 490.2,455.5 
			486.8,450.7 486.8,456.6 		"/>
		<polygon class="st0" points="481.2,425.3 486.8,427.1 486.8,432.9 490.2,428.2 495.8,430.1 492.4,425.3 495.8,420.5 490.2,422.3 
			486.8,417.6 486.8,423.4 		"/>
		<polygon class="st0" points="481.2,392.1 486.8,393.9 486.8,399.8 490.2,395.1 495.8,396.9 492.4,392.1 495.8,387.3 490.2,389.2 
			486.8,384.4 486.8,390.3 		"/>
		<polygon class="st0" points="495.4,541.3 501,543.2 501,549 504.4,544.3 510.1,546.1 506.6,541.3 510.1,536.5 504.4,538.4 
			501,533.6 501,539.5 		"/>
		<polygon class="st0" points="495.4,508.2 501,510 501,515.8 504.4,511.1 510.1,512.9 506.6,508.2 510.1,503.4 504.4,505.2 
			501,500.5 501,506.3 		"/>
		<polygon class="st0" points="495.4,475 501,476.8 501,482.7 504.4,477.9 510.1,479.8 506.6,475 510.1,470.2 504.4,472.1 
			501,467.3 501,473.2 		"/>
		<polygon class="st0" points="495.4,441.8 501,443.7 501,449.5 504.4,444.8 510.1,446.6 506.6,441.8 510.1,437.1 504.4,438.9 
			501,434.2 501,440 		"/>
		<polygon class="st0" points="495.4,408.7 501,410.5 501,416.4 504.4,411.6 510.1,413.5 506.6,408.7 510.1,403.9 504.4,405.7 
			501,401 501,406.8 		"/>
		<path class="st0" d="M509.6,557.9l5.6,1.8v5.9l3.5-4.8l5.6,1.8l-3.5-4.8l3.5-4.8l-5.6,1.8l-3.5-4.8v5.9L509.6,557.9z M517.7,557.9
			L517.7,557.9L517.7,557.9L517.7,557.9L517.7,557.9z"/>
		<polygon class="st0" points="509.6,524.7 515.2,526.6 515.2,532.4 518.6,527.7 524.3,529.5 520.8,524.7 524.3,519.9 518.6,521.8 
			515.2,517.1 515.2,522.9 		"/>
		<polygon class="st0" points="509.6,491.6 515.2,493.4 515.2,499.3 518.6,494.5 524.3,496.4 520.8,491.6 524.3,486.8 518.6,488.6 
			515.2,483.9 515.2,489.7 		"/>
		<polygon class="st0" points="509.6,458.4 515.2,460.3 515.2,466.1 518.6,461.4 524.3,463.2 520.8,458.4 524.3,453.6 518.6,455.5 
			515.2,450.7 515.2,456.6 		"/>
		<polygon class="st0" points="509.6,425.3 515.2,427.1 515.2,432.9 518.6,428.2 524.3,430.1 520.8,425.3 524.3,420.5 518.6,422.3 
			515.2,417.6 515.2,423.4 		"/>
		<polygon class="st0" points="509.6,392.1 515.2,393.9 515.2,399.8 518.6,395.1 524.3,396.9 520.8,392.1 524.3,387.3 518.6,389.2 
			515.2,384.4 515.2,390.3 		"/>
		<polygon class="st0" points="529.4,539.5 523.8,541.3 529.4,543.2 529.4,549 532.8,544.3 538.5,546.1 535,541.3 538.5,536.5 
			532.8,538.4 529.4,533.6 		"/>
		<polygon class="st0" points="529.4,506.3 523.8,508.2 529.4,510 529.4,515.8 532.8,511.1 538.5,512.9 535,508.2 538.5,503.4 
			532.8,505.2 529.4,500.5 		"/>
		<polygon class="st0" points="529.4,473.2 523.8,475 529.4,476.8 529.4,482.7 532.8,477.9 538.5,479.8 535,475 538.5,470.2 
			532.8,472.1 529.4,467.3 		"/>
		<polygon class="st0" points="529.4,440 523.8,441.8 529.4,443.7 529.4,449.5 532.8,444.8 538.5,446.6 535,441.8 538.5,437.1 
			532.8,438.9 529.4,434.2 		"/>
		<polygon class="st0" points="529.4,406.8 523.8,408.7 529.4,410.5 529.4,416.4 532.8,411.6 538.5,413.5 535,408.7 538.5,403.9 
			532.8,405.7 529.4,401 		"/>
		<path class="st0" d="M543.6,556.1l-5.6,1.8l5.6,1.8v5.9l3.5-4.8l5.6,1.8l-3.5-4.8l3.5-4.8l-5.6,1.8l-3.5-4.8V556.1z M546.1,557.9
			L546.1,557.9L546.1,557.9L546.1,557.9z"/>
		<polygon class="st0" points="543.6,522.9 538,524.7 543.6,526.6 543.6,532.4 547.1,527.7 552.7,529.5 549.2,524.7 552.7,519.9 
			547.1,521.8 543.6,517.1 		"/>
		<polygon class="st0" points="543.6,489.7 538,491.6 543.6,493.4 543.6,499.3 547.1,494.5 552.7,496.4 549.2,491.6 552.7,486.8 
			547.1,488.6 543.6,483.9 		"/>
		<polygon class="st0" points="543.6,456.6 538,458.4 543.6,460.3 543.6,466.1 547.1,461.4 552.7,463.2 549.2,458.4 552.7,453.6 
			547.1,455.5 543.6,450.7 		"/>
		<polygon class="st0" points="543.6,423.4 538,425.3 543.6,427.1 543.6,432.9 547.1,428.2 552.7,430.1 549.2,425.3 552.7,420.5 
			547.1,422.3 543.6,417.6 		"/>
		<polygon class="st0" points="543.6,390.3 538,392.1 543.6,393.9 543.6,399.8 547.1,395.1 552.7,396.9 549.2,392.1 552.7,387.3 
			547.1,389.2 543.6,384.4 		"/>
		<polygon class="st0" points="424.3,557.9 429.9,559.7 429.9,565.6 433.4,560.8 439,562.7 435.5,557.9 439,553.1 433.4,554.9 
			429.9,550.2 429.9,556.1 		"/>
	</g>
</g>
</svg>
