<?xml version="1.0" encoding="utf-8"?>
<!-- Generator: Adobe Illustrator 22.1.0, SVG Export Plug-In . SVG Version: 6.00 Build 0)  -->
<svg version="1.1" xmlns="http://www.w3.org/2000/svg" xmlns:xlink="http://www.w3.org/1999/xlink" x="0px" y="0px"
	 viewBox="0 0 1100 650" style="enable-background:new 0 0 1100 650;" xml:space="preserve">
<style type="text/css">
	.st0{fill:#ffffff;}
	.st1{fill:#333333;}
	.st2{fill:#CD2031;}
	.st3{fill:#243672;}
</style>
<g id="Layer_2">
	<g>
		<rect x="1" y="1" style="fill:#f7f7f7;" width="1098" height="648"/>
		<path class="st1" d="M1098,2v646H2V2H1098 M1100,0H0v650h1100V0L1100,0z"/>
	</g>
</g>
<g id="Layer_1">
	<rect x="75" y="75" class="st0" width="950" height="500"/>
	<rect x="75" y="75" class="st2" width="950" height="38.5"/>
	<rect x="75" y="151.9" class="st2" width="950" height="38.5"/>
	<rect x="75" y="228.8" class="st2" width="950" height="38.5"/>
	<rect x="75" y="305.8" class="st2" width="950" height="38.5"/>
	<rect x="75" y="382.7" class="st2" width="950" height="38.5"/>
	<rect x="75" y="459.6" class="st2" width="950" height="38.5"/>
	<rect x="75" y="536.5" class="st2" width="950" height="38.5"/>
	<rect x="645" y="75" class="st3" width="380" height="269.2"/>
	<polygon class="st0" points="929.5,86.2 933,96.9 944.1,96.9 935.1,103.4 938.6,114.1 929.5,107.5 920.4,114.1 923.9,103.4 
		914.9,96.9 926,96.9 	"/>
	<polygon class="st0" points="866.5,86.2 870,96.9 881.1,96.9 872.1,103.4 875.6,114.1 866.5,107.5 857.4,114.1 860.9,103.4 
		851.9,96.9 863,96.9 	"/>
	<polygon class="st0" points="803.5,86.2 807,96.9 818.1,96.9 809.1,103.4 812.6,114.1 803.5,107.5 794.4,114.1 797.9,103.4 
		788.9,96.9 800,96.9 	"/>
	<polygon class="st0" points="740.5,86.2 744,96.9 755.1,96.9 746.1,103.4 749.6,114.1 740.5,107.5 731.4,114.1 734.9,103.4 
		725.9,96.9 737,96.9 	"/>
	<polygon class="st0" points="683.1,103.4 686.6,114.1 677.5,107.5 668.4,114.1 671.9,103.4 662.9,96.9 674,96.9 677.5,86.2 
		681,96.9 692.1,96.9 	"/>
	<polygon class="st0" points="961,113.2 964.5,123.9 975.6,123.9 966.6,130.4 970.1,141.1 961,134.5 951.9,141.1 955.4,130.4 
		946.4,123.9 957.5,123.9 	"/>
	<polygon class="st0" points="898,113.2 901.5,123.9 912.6,123.9 903.6,130.4 907.1,141.1 898,134.5 888.9,141.1 892.4,130.4 
		883.4,123.9 894.5,123.9 	"/>
	<path class="st0" d="M831.5,123.9h-11.2l9.1,6.6l-3.5,10.6l9.1-6.6l9.1,6.6l-3.5-10.6l9.1-6.6h-11.2l-3.5-10.6L831.5,123.9z
		 M835,128.6L835,128.6L835,128.6L835,128.6L835,128.6z"/>
	<polygon class="st0" points="772,113.2 775.5,123.9 786.6,123.9 777.6,130.4 781.1,141.1 772,134.5 762.9,141.1 766.4,130.4 
		757.4,123.9 768.5,123.9 	"/>
	<polygon class="st0" points="709,113.2 712.5,123.9 723.6,123.9 714.6,130.4 718.1,141.1 709,134.5 699.9,141.1 703.4,130.4 
		694.4,123.9 705.5,123.9 	"/>
	<polygon class="st0" points="992.5,140.2 996,150.9 1007.1,150.9 998.1,157.4 1001.6,168.1 992.5,161.5 983.4,168.1 986.9,157.4 
		977.9,150.9 989,150.9 	"/>
	<polygon class="st0" points="929.5,140.2 933,150.9 944.1,150.9 935.1,157.4 938.6,168.1 929.5,161.5 920.4,168.1 923.9,157.4 
		914.9,150.9 926,150.9 	"/>
	<polygon class="st0" points="866.5,140.2 870,150.9 881.1,150.9 872.1,157.4 875.6,168.1 866.5,161.5 857.4,168.1 860.9,157.4 
		851.9,150.9 863,150.9 	"/>
	<polygon class="st0" points="803.5,140.2 807,150.9 818.1,150.9 809.1,157.4 812.6,168.1 803.5,161.5 794.4,168.1 797.9,157.4 
		788.9,150.9 800,150.9 	"/>
	<polygon class="st0" points="740.5,140.2 744,150.9 755.1,150.9 746.1,157.4 749.6,168.1 740.5,161.5 731.4,168.1 734.9,157.4 
		725.9,150.9 737,150.9 	"/>
	<polygon class="st0" points="677.5,140.2 681,150.9 692.1,150.9 683.1,157.4 686.6,168.1 677.5,161.5 668.4,168.1 671.9,157.4 
		662.9,150.9 674,150.9 	"/>
	<polygon class="st0" points="961,167.2 964.5,177.9 975.6,177.9 966.6,184.4 970.1,195.1 961,188.5 951.9,195.1 955.4,184.4 
		946.4,177.9 957.5,177.9 	"/>
	<polygon class="st0" points="898,167.2 901.5,177.9 912.6,177.9 903.6,184.4 907.1,195.1 898,188.5 888.9,195.1 892.4,184.4 
		883.4,177.9 894.5,177.9 	"/>
	<path class="st0" d="M831.5,177.9h-11.2l9.1,6.6l-3.5,10.6l9.1-6.6l9.1,6.6l-3.5-10.6l9.1-6.6h-11.2l-3.5-10.6L831.5,177.9z
		 M835,182.6L835,182.6L835,182.6L835,182.6z"/>
	<polygon class="st0" points="772,167.2 775.5,177.9 786.6,177.9 777.6,184.4 781.1,195.1 772,188.5 762.9,195.1 766.4,184.4 
		757.4,177.9 768.5,177.9 	"/>
	<polygon class="st0" points="709,167.2 712.5,177.9 723.6,177.9 714.6,184.4 718.1,195.1 709,188.5 699.9,195.1 703.4,184.4 
		694.4,177.9 705.5,177.9 	"/>
	<polygon class="st0" points="992.5,194.2 996,204.9 1007.1,204.9 998.1,211.4 1001.6,222.1 992.5,215.5 983.4,222.1 986.9,211.4 
		977.9,204.9 989,204.9 	"/>
	<polygon class="st0" points="929.5,194.2 933,204.9 944.1,204.9 935.1,211.4 938.6,222.1 929.5,215.5 920.4,222.1 923.9,211.4 
		914.9,204.9 926,204.9 	"/>
	<polygon class="st0" points="866.5,194.2 870,204.9 881.1,204.9 872.1,211.4 875.6,222.1 866.5,215.5 857.4,222.1 860.9,211.4 
		851.9,204.9 863,204.9 	"/>
	<polygon class="st0" points="803.5,194.2 807,204.9 818.1,204.9 809.1,211.4 812.6,222.1 803.5,215.5 794.4,222.1 797.9,211.4 
		788.9,204.9 800,204.9 	"/>
	<polygon class="st0" points="740.5,194.2 744,204.9 755.1,204.9 746.1,211.4 749.6,222.1 740.5,215.5 731.4,222.1 734.9,211.4 
		725.9,204.9 737,204.9 	"/>
	<polygon class="st0" points="677.5,194.2 681,204.9 692.1,204.9 683.1,211.4 686.6,222.1 677.5,215.5 668.4,222.1 671.9,211.4 
		662.9,204.9 674,204.9 	"/>
	<polygon class="st0" points="961,221.2 964.5,231.9 975.6,231.9 966.6,238.4 970.1,249.1 961,242.5 951.9,249.1 955.4,238.4 
		946.4,231.9 957.5,231.9 	"/>
	<polygon class="st0" points="898,221.2 901.5,231.9 912.6,231.9 903.6,238.4 907.1,249.1 898,242.5 888.9,249.1 892.4,238.4 
		883.4,231.9 894.5,231.9 	"/>
	<polygon class="st0" points="835,221.2 838.5,231.9 849.6,231.9 840.6,238.4 844.1,249.1 835,242.5 825.9,249.1 829.4,238.4 
		820.4,231.9 831.5,231.9 	"/>
	<polygon class="st0" points="772,221.2 775.5,231.9 786.6,231.9 777.6,238.4 781.1,249.1 772,242.5 762.9,249.1 766.4,238.4 
		757.4,231.9 768.5,231.9 	"/>
	<polygon class="st0" points="709,221.2 712.5,231.9 723.6,231.9 714.6,238.4 718.1,249.1 709,242.5 699.9,249.1 703.4,238.4 
		694.4,231.9 705.5,231.9 	"/>
	<path class="st0" d="M989,258.9h-11.2l9.1,6.6l-3.5,10.6l9.1-6.6l9.1,6.6l-3.5-10.6l9.1-6.6H996l-3.5-10.6L989,258.9z M992.5,263.6
		L992.5,263.6L992.5,263.6L992.5,263.6L992.5,263.6z"/>
	<polygon class="st0" points="929.5,248.2 933,258.9 944.1,258.9 935.1,265.4 938.6,276.1 929.5,269.5 920.4,276.1 923.9,265.4 
		914.9,258.9 926,258.9 	"/>
	<polygon class="st0" points="866.5,248.2 870,258.9 881.1,258.9 872.1,265.4 875.6,276.1 866.5,269.5 857.4,276.1 860.9,265.4 
		851.9,258.9 863,258.9 	"/>
	<polygon class="st0" points="803.5,248.2 807,258.9 818.1,258.9 809.1,265.4 812.6,276.1 803.5,269.5 794.4,276.1 797.9,265.4 
		788.9,258.9 800,258.9 	"/>
	<polygon class="st0" points="740.5,248.2 744,258.9 755.1,258.9 746.1,265.4 749.6,276.1 740.5,269.5 731.4,276.1 734.9,265.4 
		725.9,258.9 737,258.9 	"/>
	<polygon class="st0" points="677.5,248.2 681,258.9 692.1,258.9 683.1,265.4 686.6,276.1 677.5,269.5 668.4,276.1 671.9,265.4 
		662.9,258.9 674,258.9 	"/>
	<polygon class="st0" points="957.5,285.9 961,275.2 964.5,285.9 975.6,285.9 966.6,292.4 970.1,303.1 961,296.5 951.9,303.1 
		955.4,292.4 946.4,285.9 	"/>
	<polygon class="st0" points="894.5,285.9 898,275.2 901.5,285.9 912.6,285.9 903.6,292.4 907.1,303.1 898,296.5 888.9,303.1 
		892.4,292.4 883.4,285.9 	"/>
	<polygon class="st0" points="831.5,285.9 835,275.2 838.5,285.9 849.6,285.9 840.6,292.4 844.1,303.1 835,296.5 825.9,303.1 
		829.4,292.4 820.4,285.9 	"/>
	<polygon class="st0" points="768.5,285.9 772,275.2 775.5,285.9 786.6,285.9 777.6,292.4 781.1,303.1 772,296.5 762.9,303.1 
		766.4,292.4 757.4,285.9 	"/>
	<polygon class="st0" points="705.5,285.9 709,275.2 712.5,285.9 723.6,285.9 714.6,292.4 718.1,303.1 709,296.5 699.9,303.1 
		703.4,292.4 694.4,285.9 	"/>
	<path class="st0" d="M977.9,312.9l9.1,6.6l-3.5,10.6l9.1-6.6l9.1,6.6l-3.5-10.6l9.1-6.6H996l-3.5-10.6l-3.5,10.6H977.9z
		 M992.5,317.6L992.5,317.6L992.5,317.6L992.5,317.6z"/>
	<polygon class="st0" points="926,312.9 929.5,302.2 933,312.9 944.1,312.9 935.1,319.4 938.6,330.1 929.5,323.5 920.4,330.1 
		923.9,319.4 914.9,312.9 	"/>
	<polygon class="st0" points="863,312.9 866.5,302.2 870,312.9 881.1,312.9 872.1,319.4 875.6,330.1 866.5,323.5 857.4,330.1 
		860.9,319.4 851.9,312.9 	"/>
	<polygon class="st0" points="800,312.9 803.5,302.2 807,312.9 818.1,312.9 809.1,319.4 812.6,330.1 803.5,323.5 794.4,330.1 
		797.9,319.4 788.9,312.9 	"/>
	<polygon class="st0" points="737,312.9 740.5,302.2 744,312.9 755.1,312.9 746.1,319.4 749.6,330.1 740.5,323.5 731.4,330.1 
		734.9,319.4 725.9,312.9 	"/>
	<polygon class="st0" points="674,312.9 677.5,302.2 681,312.9 692.1,312.9 683.1,319.4 686.6,330.1 677.5,323.5 668.4,330.1 
		671.9,319.4 662.9,312.9 	"/>
	<polygon class="st0" points="992.5,86.2 996,96.9 1007.1,96.9 998.1,103.4 1001.6,114.1 992.5,107.5 983.4,114.1 986.9,103.4 
		977.9,96.9 989,96.9 	"/>
</g>
</svg>
