<?xml version="1.0" encoding="utf-8"?>
<!-- Generator: Adobe Illustrator 22.1.0, SVG Export Plug-In . SVG Version: 6.00 Build 0)  -->
<svg version="1.1" xmlns="http://www.w3.org/2000/svg" xmlns:xlink="http://www.w3.org/1999/xlink" x="0px" y="0px"
	 viewBox="0 0 1100 650" style="enable-background:new 0 0 1100 650;" xml:space="preserve">
<style type="text/css">
	.st0{fill:#ffffff;}
	.st1{fill:#333333;}
	.st2{fill:#CD2031;}
	.st3{fill:#243672;}
</style>
<g id="Layer_2">
	<g id="bg">
		<g>
			<rect x="1" y="1" style="fill:#f7f7f7;" width="1098" height="648"/>
			<path class="st1" d="M1098,2v646H2V2H1098 M1100,0H0v650h1100V0L1100,0z"/>
		</g>
	</g>
</g>
<g id="Layer_1">
	<g id="Layer_1_1_">
		<rect x="418.4" y="75" class="st0" width="263.2" height="500"/>
		<rect x="418.4" y="75" class="st2" width="20.3" height="500"/>
		<rect x="458.9" y="75" class="st2" width="20.3" height="500"/>
		<rect x="499.4" y="75" class="st2" width="20.3" height="500"/>
		<rect x="539.9" y="75" class="st2" width="20.3" height="500"/>
		<rect x="580.4" y="75" class="st2" width="20.3" height="500"/>
		<rect x="620.8" y="75" class="st2" width="20.3" height="500"/>
		<rect x="661.3" y="75" class="st2" width="20.3" height="500"/>
		<rect x="418.4" y="75" class="st3" width="141.7" height="200"/>
		<polygon class="st0" points="424.3,125.3 429.9,123.4 429.9,117.6 433.4,122.3 439,120.5 435.5,125.3 439,130.1 433.4,128.2 
			429.9,132.9 429.9,127.1 		"/>
		<polygon class="st0" points="424.3,158.4 429.9,156.6 429.9,150.7 433.4,155.5 439,153.6 435.5,158.4 439,163.2 433.4,161.4 
			429.9,166.1 429.9,160.3 		"/>
		<polygon class="st0" points="424.3,191.6 429.9,189.7 429.9,183.9 433.4,188.6 439,186.8 435.5,191.6 439,196.4 433.4,194.5 
			429.9,199.3 429.9,193.4 		"/>
		<polygon class="st0" points="424.3,224.7 429.9,222.9 429.9,217.1 433.4,221.8 439,219.9 435.5,224.7 439,229.5 433.4,227.7 
			429.9,232.4 429.9,226.6 		"/>
		<polygon class="st0" points="433.4,254.9 439,253.1 435.5,257.9 439,262.7 433.4,260.8 429.9,265.6 429.9,259.7 424.3,257.9 
			429.9,256.1 429.9,250.2 		"/>
		<polygon class="st0" points="438.5,108.7 444.2,106.8 444.2,101 447.6,105.7 453.2,103.9 449.7,108.7 453.2,113.5 447.6,111.6 
			444.2,116.4 444.2,110.5 		"/>
		<polygon class="st0" points="438.5,141.8 444.2,140 444.2,134.2 447.6,138.9 453.2,137.1 449.7,141.8 453.2,146.6 447.6,144.8 
			444.2,149.5 444.2,143.7 		"/>
		<path class="st0" d="M444.2,176.8v5.9l3.5-4.8l5.6,1.8l-3.5-4.8l3.5-4.8l-5.6,1.8l-3.5-4.8v5.9l-5.6,1.8L444.2,176.8z M446.6,175
			L446.6,175L446.6,175L446.6,175L446.6,175z"/>
		<polygon class="st0" points="438.5,208.2 444.2,206.3 444.2,200.5 447.6,205.2 453.2,203.4 449.7,208.2 453.2,212.9 447.6,211.1 
			444.2,215.8 444.2,210 		"/>
		<polygon class="st0" points="438.5,241.3 444.2,239.5 444.2,233.6 447.6,238.4 453.2,236.5 449.7,241.3 453.2,246.1 447.6,244.3 
			444.2,249 444.2,243.2 		"/>
		<polygon class="st0" points="452.7,92.1 458.4,90.3 458.4,84.4 461.8,89.2 467.4,87.3 463.9,92.1 467.4,96.9 461.8,95.1 
			458.4,99.8 458.4,93.9 		"/>
		<polygon class="st0" points="452.7,125.3 458.4,123.4 458.4,117.6 461.8,122.3 467.4,120.5 463.9,125.3 467.4,130.1 461.8,128.2 
			458.4,132.9 458.4,127.1 		"/>
		<polygon class="st0" points="452.7,158.4 458.4,156.6 458.4,150.7 461.8,155.5 467.4,153.6 463.9,158.4 467.4,163.2 461.8,161.4 
			458.4,166.1 458.4,160.3 		"/>
		<polygon class="st0" points="452.7,191.6 458.4,189.7 458.4,183.9 461.8,188.6 467.4,186.8 463.9,191.6 467.4,196.4 461.8,194.5 
			458.4,199.3 458.4,193.4 		"/>
		<polygon class="st0" points="452.7,224.7 458.4,222.9 458.4,217.1 461.8,221.8 467.4,219.9 463.9,224.7 467.4,229.5 461.8,227.7 
			458.4,232.4 458.4,226.6 		"/>
		<polygon class="st0" points="452.7,257.9 458.4,256.1 458.4,250.2 461.8,254.9 467.4,253.1 463.9,257.9 467.4,262.7 461.8,260.8 
			458.4,265.6 458.4,259.7 		"/>
		<polygon class="st0" points="466.9,108.7 472.6,106.8 472.6,101 476,105.7 481.6,103.9 478.2,108.7 481.6,113.5 476,111.6 
			472.6,116.4 472.6,110.5 		"/>
		<polygon class="st0" points="466.9,141.8 472.6,140 472.6,134.2 476,138.9 481.6,137.1 478.2,141.8 481.6,146.6 476,144.8 
			472.6,149.5 472.6,143.7 		"/>
		<path class="st0" d="M472.6,176.8v5.9l3.5-4.8l5.6,1.8l-3.5-4.8l3.5-4.8l-5.6,1.8l-3.5-4.8v5.9l-5.6,2L472.6,176.8z M475.1,175
			L475.1,175L475.1,175L475.1,175z"/>
		<polygon class="st0" points="466.9,208.2 472.6,206.3 472.6,200.5 476,205.2 481.6,203.4 478.2,208.2 481.6,212.9 476,211.1 
			472.6,215.8 472.6,210 		"/>
		<polygon class="st0" points="466.9,241.3 472.6,239.5 472.6,233.6 476,238.4 481.6,236.5 478.2,241.3 481.6,246.1 476,244.3 
			472.6,249 472.6,243.2 		"/>
		<polygon class="st0" points="481.2,92.1 486.8,90.3 486.8,84.4 490.2,89.2 495.8,87.3 492.4,92.1 495.8,96.9 490.2,95.1 
			486.8,99.8 486.8,93.9 		"/>
		<polygon class="st0" points="481.2,125.3 486.8,123.4 486.8,117.6 490.2,122.3 495.8,120.5 492.4,125.3 495.8,130.1 490.2,128.2 
			486.8,132.9 486.8,127.1 		"/>
		<polygon class="st0" points="481.2,158.4 486.8,156.6 486.8,150.7 490.2,155.5 495.8,153.6 492.4,158.4 495.8,163.2 490.2,161.4 
			486.8,166.1 486.8,160.3 		"/>
		<polygon class="st0" points="481.2,191.6 486.8,189.7 486.8,183.9 490.2,188.6 495.8,186.8 492.4,191.6 495.8,196.4 490.2,194.5 
			486.8,199.3 486.8,193.4 		"/>
		<polygon class="st0" points="481.2,224.7 486.8,222.9 486.8,217.1 490.2,221.8 495.8,219.9 492.4,224.7 495.8,229.5 490.2,227.7 
			486.8,232.4 486.8,226.6 		"/>
		<polygon class="st0" points="481.2,257.9 486.8,256.1 486.8,250.2 490.2,254.9 495.8,253.1 492.4,257.9 495.8,262.7 490.2,260.8 
			486.8,265.6 486.8,259.7 		"/>
		<polygon class="st0" points="495.4,108.7 501,106.8 501,101 504.4,105.7 510.1,103.9 506.6,108.7 510.1,113.5 504.4,111.6 
			501,116.4 501,110.5 		"/>
		<polygon class="st0" points="495.4,141.8 501,140 501,134.2 504.4,138.9 510.1,137.1 506.6,141.8 510.1,146.6 504.4,144.8 
			501,149.5 501,143.7 		"/>
		<polygon class="st0" points="495.4,175 501,173.2 501,167.3 504.4,172.1 510.1,170.2 506.6,175 510.1,179.8 504.4,177.9 
			501,182.7 501,176.8 		"/>
		<polygon class="st0" points="495.4,208.2 501,206.3 501,200.5 504.4,205.2 510.1,203.4 506.6,208.2 510.1,212.9 504.4,211.1 
			501,215.8 501,210 		"/>
		<polygon class="st0" points="495.4,241.3 501,239.5 501,233.6 504.4,238.4 510.1,236.5 506.6,241.3 510.1,246.1 504.4,244.3 
			501,249 501,243.2 		"/>
		<path class="st0" d="M515.2,93.9v5.9l3.5-4.8l5.6,1.8l-3.5-4.8l3.5-4.8l-5.6,1.8l-3.5-4.8v5.9l-5.6,1.8L515.2,93.9z M517.7,92.1
			L517.7,92.1L517.7,92.1L517.7,92.1L517.7,92.1z"/>
		<polygon class="st0" points="509.6,125.3 515.2,123.4 515.2,117.6 518.6,122.3 524.3,120.5 520.8,125.3 524.3,130.1 518.6,128.2 
			515.2,132.9 515.2,127.1 		"/>
		<polygon class="st0" points="509.6,158.4 515.2,156.6 515.2,150.7 518.6,155.5 524.3,153.6 520.8,158.4 524.3,163.2 518.6,161.4 
			515.2,166.1 515.2,160.3 		"/>
		<polygon class="st0" points="509.6,191.6 515.2,189.7 515.2,183.9 518.6,188.6 524.3,186.8 520.8,191.6 524.3,196.4 518.6,194.5 
			515.2,199.3 515.2,193.4 		"/>
		<polygon class="st0" points="509.6,224.7 515.2,222.9 515.2,217.1 518.6,221.8 524.3,219.9 520.8,224.7 524.3,229.5 518.6,227.7 
			515.2,232.4 515.2,226.6 		"/>
		<polygon class="st0" points="509.6,257.9 515.2,256.1 515.2,250.2 518.6,254.9 524.3,253.1 520.8,257.9 524.3,262.7 518.6,260.8 
			515.2,265.6 515.2,259.7 		"/>
		<polygon class="st0" points="529.4,110.5 523.8,108.7 529.4,106.8 529.4,101 532.8,105.7 538.5,103.9 535,108.7 538.5,113.5 
			532.8,111.6 529.4,116.4 		"/>
		<polygon class="st0" points="529.4,143.7 523.8,141.8 529.4,140 529.4,134.2 532.8,138.9 538.5,137.1 535,141.8 538.5,146.6 
			532.8,144.8 529.4,149.5 		"/>
		<polygon class="st0" points="529.4,176.8 523.8,175 529.4,173.2 529.4,167.3 532.8,172.1 538.5,170.2 535,175 538.5,179.8 
			532.8,177.9 529.4,182.7 		"/>
		<polygon class="st0" points="529.4,210 523.8,208.2 529.4,206.3 529.4,200.5 532.8,205.2 538.5,203.4 535,208.2 538.5,212.9 
			532.8,211.1 529.4,215.8 		"/>
		<polygon class="st0" points="529.4,243.2 523.8,241.3 529.4,239.5 529.4,233.6 532.8,238.4 538.5,236.5 535,241.3 538.5,246.1 
			532.8,244.3 529.4,249 		"/>
		<path class="st0" d="M543.6,99.8l3.5-4.8l5.6,1.8l-3.5-4.8l3.5-4.8l-5.6,1.8l-3.5-4.8v5.9l-5.6,1.8l5.6,1.8V99.8z M546.1,92.1
			L546.1,92.1L546.1,92.1L546.1,92.1z"/>
		<polygon class="st0" points="543.6,127.1 538,125.3 543.6,123.4 543.6,117.6 547.1,122.3 552.7,120.5 549.2,125.3 552.7,130.1 
			547.1,128.2 543.6,132.9 		"/>
		<polygon class="st0" points="543.6,160.3 538,158.4 543.6,156.6 543.6,150.7 547.1,155.5 552.7,153.6 549.2,158.4 552.7,163.2 
			547.1,161.4 543.6,166.1 		"/>
		<polygon class="st0" points="543.6,193.4 538,191.6 543.6,189.7 543.6,183.9 547.1,188.6 552.7,186.8 549.2,191.6 552.7,196.4 
			547.1,194.5 543.6,199.3 		"/>
		<polygon class="st0" points="543.6,226.6 538,224.7 543.6,222.9 543.6,217.1 547.1,221.8 552.7,219.9 549.2,224.7 552.7,229.5 
			547.1,227.7 543.6,232.4 		"/>
		<polygon class="st0" points="543.6,259.7 538,257.9 543.6,256.1 543.6,250.2 547.1,254.9 552.7,253.1 549.2,257.9 552.7,262.7 
			547.1,260.8 543.6,265.6 		"/>
		<polygon class="st0" points="424.3,92.1 429.9,90.3 429.9,84.4 433.4,89.2 439,87.3 435.5,92.1 439,96.9 433.4,95.1 429.9,99.8 
			429.9,93.9 		"/>
	</g>
</g>
</svg>
