<?xml version="1.0" encoding="utf-8"?>
<!-- Generator: Adobe Illustrator 22.1.0, SVG Export Plug-In . SVG Version: 6.00 Build 0)  -->
<svg version="1.1" xmlns="http://www.w3.org/2000/svg" xmlns:xlink="http://www.w3.org/1999/xlink" x="0px" y="0px"
	 viewBox="0 0 1100 650" style="enable-background:new 0 0 1100 650;" xml:space="preserve">
<style type="text/css">
	.st0{fill:#ffffff;}
	.st1{fill:#333333;}
	.st2{fill:#CD2031;}
	.st3{fill:#243672;}
</style>
<g id="Layer_2">
	<g>
		<rect x="1" y="1" style="fill:#f7f7f7;" width="1098" height="648"/>
		<path class="st1" d="M1098,2v646H2V2H1098 M1100,0H0v650h1100V0L1100,0z"/>
	</g>
</g>
<g id="Layer_1">
	<rect x="75" y="75" class="st0" width="950" height="500"/>
	<rect x="75" y="536.5" class="st2" width="950" height="38.5"/>
	<rect x="75" y="459.6" class="st2" width="950" height="38.5"/>
	<rect x="75" y="382.7" class="st2" width="950" height="38.5"/>
	<rect x="75" y="305.8" class="st2" width="950" height="38.5"/>
	<rect x="75" y="228.8" class="st2" width="950" height="38.5"/>
	<rect x="75" y="151.9" class="st2" width="950" height="38.5"/>
	<rect x="75" y="75" class="st2" width="950" height="38.5"/>
	<rect x="75" y="305.8" class="st3" width="380" height="269.2"/>
	<polygon class="st0" points="170.5,563.8 167,553.1 155.9,553.1 164.9,546.6 161.4,535.9 170.5,542.5 179.6,535.9 176.1,546.6 
		185.1,553.1 174,553.1 	"/>
	<polygon class="st0" points="233.5,563.8 230,553.1 218.9,553.1 227.9,546.6 224.4,535.9 233.5,542.5 242.6,535.9 239.1,546.6 
		248.1,553.1 237,553.1 	"/>
	<polygon class="st0" points="296.5,563.8 293,553.1 281.9,553.1 290.9,546.6 287.4,535.9 296.5,542.5 305.6,535.9 302.1,546.6 
		311.1,553.1 300,553.1 	"/>
	<polygon class="st0" points="359.5,563.8 356,553.1 344.9,553.1 353.9,546.6 350.4,535.9 359.5,542.5 368.6,535.9 365.1,546.6 
		374.1,553.1 363,553.1 	"/>
	<polygon class="st0" points="416.9,546.6 413.4,535.9 422.5,542.5 431.6,535.9 428.1,546.6 437.1,553.1 426,553.1 422.5,563.8 
		419,553.1 407.9,553.1 	"/>
	<polygon class="st0" points="139,536.8 135.5,526.1 124.4,526.1 133.4,519.6 129.9,508.9 139,515.5 148.1,508.9 144.6,519.6 
		153.6,526.1 142.5,526.1 	"/>
	<polygon class="st0" points="202,536.8 198.5,526.1 187.4,526.1 196.4,519.6 192.9,508.9 202,515.5 211.1,508.9 207.6,519.6 
		216.6,526.1 205.5,526.1 	"/>
	<path class="st0" d="M268.5,526.1h11.2l-9.1-6.6l3.5-10.6l-9.1,6.6l-9.1-6.6l3.5,10.6l-9.1,6.6h11.2l3.5,10.6L268.5,526.1z
		 M265,521.4L265,521.4L265,521.4L265,521.4L265,521.4z"/>
	<polygon class="st0" points="328,536.8 324.5,526.1 313.4,526.1 322.4,519.6 318.9,508.9 328,515.5 337.1,508.9 333.6,519.6 
		342.6,526.1 331.5,526.1 	"/>
	<polygon class="st0" points="391,536.8 387.5,526.1 376.4,526.1 385.4,519.6 381.9,508.9 391,515.5 400.1,508.9 396.6,519.6 
		405.6,526.1 394.5,526.1 	"/>
	<polygon class="st0" points="107.5,509.8 104,499.1 92.9,499.1 101.9,492.6 98.4,481.9 107.5,488.5 116.6,481.9 113.1,492.6 
		122.1,499.1 111,499.1 	"/>
	<polygon class="st0" points="170.5,509.8 167,499.1 155.9,499.1 164.9,492.6 161.4,481.9 170.5,488.5 179.6,481.9 176.1,492.6 
		185.1,499.1 174,499.1 	"/>
	<polygon class="st0" points="233.5,509.8 230,499.1 218.9,499.1 227.9,492.6 224.4,481.9 233.5,488.5 242.6,481.9 239.1,492.6 
		248.1,499.1 237,499.1 	"/>
	<polygon class="st0" points="296.5,509.8 293,499.1 281.9,499.1 290.9,492.6 287.4,481.9 296.5,488.5 305.6,481.9 302.1,492.6 
		311.1,499.1 300,499.1 	"/>
	<polygon class="st0" points="359.5,509.8 356,499.1 344.9,499.1 353.9,492.6 350.4,481.9 359.5,488.5 368.6,481.9 365.1,492.6 
		374.1,499.1 363,499.1 	"/>
	<polygon class="st0" points="422.5,509.8 419,499.1 407.9,499.1 416.9,492.6 413.4,481.9 422.5,488.5 431.6,481.9 428.1,492.6 
		437.1,499.1 426,499.1 	"/>
	<polygon class="st0" points="139,482.8 135.5,472.1 124.4,472.1 133.4,465.6 129.9,454.9 139,461.5 148.1,454.9 144.6,465.6 
		153.6,472.1 142.5,472.1 	"/>
	<polygon class="st0" points="202,482.8 198.5,472.1 187.4,472.1 196.4,465.6 192.9,454.9 202,461.5 211.1,454.9 207.6,465.6 
		216.6,472.1 205.5,472.1 	"/>
	<path class="st0" d="M268.5,472.1h11.2l-9.1-6.6l3.5-10.6l-9.1,6.6l-9.1-6.6l3.5,10.6l-9.1,6.6h11.2l3.5,10.6L268.5,472.1z
		 M265,467.4L265,467.4L265,467.4L265,467.4z"/>
	<polygon class="st0" points="328,482.8 324.5,472.1 313.4,472.1 322.4,465.6 318.9,454.9 328,461.5 337.1,454.9 333.6,465.6 
		342.6,472.1 331.5,472.1 	"/>
	<polygon class="st0" points="391,482.8 387.5,472.1 376.4,472.1 385.4,465.6 381.9,454.9 391,461.5 400.1,454.9 396.6,465.6 
		405.6,472.1 394.5,472.1 	"/>
	<polygon class="st0" points="107.5,455.8 104,445.1 92.9,445.1 101.9,438.6 98.4,427.9 107.5,434.5 116.6,427.9 113.1,438.6 
		122.1,445.1 111,445.1 	"/>
	<polygon class="st0" points="170.5,455.8 167,445.1 155.9,445.1 164.9,438.6 161.4,427.9 170.5,434.5 179.6,427.9 176.1,438.6 
		185.1,445.1 174,445.1 	"/>
	<polygon class="st0" points="233.5,455.8 230,445.1 218.9,445.1 227.9,438.6 224.4,427.9 233.5,434.5 242.6,427.9 239.1,438.6 
		248.1,445.1 237,445.1 	"/>
	<polygon class="st0" points="296.5,455.8 293,445.1 281.9,445.1 290.9,438.6 287.4,427.9 296.5,434.5 305.6,427.9 302.1,438.6 
		311.1,445.1 300,445.1 	"/>
	<polygon class="st0" points="359.5,455.8 356,445.1 344.9,445.1 353.9,438.6 350.4,427.9 359.5,434.5 368.6,427.9 365.1,438.6 
		374.1,445.1 363,445.1 	"/>
	<polygon class="st0" points="422.5,455.8 419,445.1 407.9,445.1 416.9,438.6 413.4,427.9 422.5,434.5 431.6,427.9 428.1,438.6 
		437.1,445.1 426,445.1 	"/>
	<polygon class="st0" points="139,428.8 135.5,418.1 124.4,418.1 133.4,411.6 129.9,400.9 139,407.5 148.1,400.9 144.6,411.6 
		153.6,418.1 142.5,418.1 	"/>
	<polygon class="st0" points="202,428.8 198.5,418.1 187.4,418.1 196.4,411.6 192.9,400.9 202,407.5 211.1,400.9 207.6,411.6 
		216.6,418.1 205.5,418.1 	"/>
	<polygon class="st0" points="265,428.8 261.5,418.1 250.4,418.1 259.4,411.6 255.9,400.9 265,407.5 274.1,400.9 270.6,411.6 
		279.6,418.1 268.5,418.1 	"/>
	<polygon class="st0" points="328,428.8 324.5,418.1 313.4,418.1 322.4,411.6 318.9,400.9 328,407.5 337.1,400.9 333.6,411.6 
		342.6,418.1 331.5,418.1 	"/>
	<polygon class="st0" points="391,428.8 387.5,418.1 376.4,418.1 385.4,411.6 381.9,400.9 391,407.5 400.1,400.9 396.6,411.6 
		405.6,418.1 394.5,418.1 	"/>
	<path class="st0" d="M111,391.1h11.2l-9.1-6.6l3.5-10.6l-9.1,6.6l-9.1-6.6l3.5,10.6l-9.1,6.6H104l3.5,10.6L111,391.1z M107.5,386.4
		L107.5,386.4L107.5,386.4L107.5,386.4L107.5,386.4z"/>
	<polygon class="st0" points="170.5,401.8 167,391.1 155.9,391.1 164.9,384.6 161.4,373.9 170.5,380.5 179.6,373.9 176.1,384.6 
		185.1,391.1 174,391.1 	"/>
	<polygon class="st0" points="233.5,401.8 230,391.1 218.9,391.1 227.9,384.6 224.4,373.9 233.5,380.5 242.6,373.9 239.1,384.6 
		248.1,391.1 237,391.1 	"/>
	<polygon class="st0" points="296.5,401.8 293,391.1 281.9,391.1 290.9,384.6 287.4,373.9 296.5,380.5 305.6,373.9 302.1,384.6 
		311.1,391.1 300,391.1 	"/>
	<polygon class="st0" points="359.5,401.8 356,391.1 344.9,391.1 353.9,384.6 350.4,373.9 359.5,380.5 368.6,373.9 365.1,384.6 
		374.1,391.1 363,391.1 	"/>
	<polygon class="st0" points="422.5,401.8 419,391.1 407.9,391.1 416.9,384.6 413.4,373.9 422.5,380.5 431.6,373.9 428.1,384.6 
		437.1,391.1 426,391.1 	"/>
	<polygon class="st0" points="142.5,364.1 139,374.8 135.5,364.1 124.4,364.1 133.4,357.6 129.9,346.9 139,353.5 148.1,346.9 
		144.6,357.6 153.6,364.1 	"/>
	<polygon class="st0" points="205.5,364.1 202,374.8 198.5,364.1 187.4,364.1 196.4,357.6 192.9,346.9 202,353.5 211.1,346.9 
		207.6,357.6 216.6,364.1 	"/>
	<polygon class="st0" points="268.5,364.1 265,374.8 261.5,364.1 250.4,364.1 259.4,357.6 255.9,346.9 265,353.5 274.1,346.9 
		270.6,357.6 279.6,364.1 	"/>
	<polygon class="st0" points="331.5,364.1 328,374.8 324.5,364.1 313.4,364.1 322.4,357.6 318.9,346.9 328,353.5 337.1,346.9 
		333.6,357.6 342.6,364.1 	"/>
	<polygon class="st0" points="394.5,364.1 391,374.8 387.5,364.1 376.4,364.1 385.4,357.6 381.9,346.9 391,353.5 400.1,346.9 
		396.6,357.6 405.6,364.1 	"/>
	<path class="st0" d="M122.1,337.1l-9.1-6.6l3.5-10.6l-9.1,6.6l-9.1-6.6l3.5,10.6l-9.1,6.6H104l3.5,10.6l3.5-10.6H122.1z
		 M107.5,332.4L107.5,332.4L107.5,332.4L107.5,332.4z"/>
	<polygon class="st0" points="174,337.1 170.5,347.8 167,337.1 155.9,337.1 164.9,330.6 161.4,319.9 170.5,326.5 179.6,319.9 
		176.1,330.6 185.1,337.1 	"/>
	<polygon class="st0" points="237,337.1 233.5,347.8 230,337.1 218.9,337.1 227.9,330.6 224.4,319.9 233.5,326.5 242.6,319.9 
		239.1,330.6 248.1,337.1 	"/>
	<polygon class="st0" points="300,337.1 296.5,347.8 293,337.1 281.9,337.1 290.9,330.6 287.4,319.9 296.5,326.5 305.6,319.9 
		302.1,330.6 311.1,337.1 	"/>
	<polygon class="st0" points="363,337.1 359.5,347.8 356,337.1 344.9,337.1 353.9,330.6 350.4,319.9 359.5,326.5 368.6,319.9 
		365.1,330.6 374.1,337.1 	"/>
	<polygon class="st0" points="426,337.1 422.5,347.8 419,337.1 407.9,337.1 416.9,330.6 413.4,319.9 422.5,326.5 431.6,319.9 
		428.1,330.6 437.1,337.1 	"/>
	<polygon class="st0" points="107.5,563.8 104,553.1 92.9,553.1 101.9,546.6 98.4,535.9 107.5,542.5 116.6,535.9 113.1,546.6 
		122.1,553.1 111,553.1 	"/>
</g>
</svg>
