<?xml version="1.0" encoding="utf-8"?>
<!-- Generator: Adobe Illustrator 22.1.0, SVG Export Plug-In . SVG Version: 6.00 Build 0)  -->
<svg version="1.1" xmlns="http://www.w3.org/2000/svg" xmlns:xlink="http://www.w3.org/1999/xlink" x="0px" y="0px"
	 viewBox="0 0 1100 650" style="enable-background:new 0 0 1100 650;" xml:space="preserve">
<style type="text/css">
	.st0{fill:#ffffff;}
	.st1{fill:#333333;}
	.st2{fill:#CD2031;}
	.st3{fill:#243672;}
</style>
<g id="Layer_2">
	<g id="bg">
		<g>
			<rect x="1" y="1" style="fill:#f7f7f7;" width="1098" height="648"/>
			<path class="st1" d="M1098,2v646H2V2H1098 M1100,0H0v650h1100V0L1100,0z"/>
		</g>
	</g>
</g>
<g id="Layer_1">
	<g id="Layer_1_1_">
		<rect x="75" y="75" class="st0" width="950" height="500"/>
		<rect x="75" y="536.5" class="st2" width="950" height="38.5"/>
		<rect x="75" y="459.6" class="st2" width="950" height="38.5"/>
		<rect x="75" y="382.7" class="st2" width="950" height="38.5"/>
		<rect x="75" y="305.7" class="st2" width="950" height="38.5"/>
		<rect x="75" y="228.8" class="st2" width="950" height="38.5"/>
		<rect x="75" y="151.9" class="st2" width="950" height="38.5"/>
		<rect x="75" y="75" class="st2" width="950" height="38.5"/>
		<rect x="645" y="305.8" class="st3" width="380" height="269.2"/>
		<polygon class="st0" points="929.5,563.8 933,553.1 944.1,553.1 935.1,546.6 938.6,535.9 929.5,542.5 920.4,535.9 923.9,546.6 
			914.9,553.1 926,553.1 		"/>
		<polygon class="st0" points="866.5,563.8 870,553.1 881.1,553.1 872.1,546.6 875.6,535.9 866.5,542.5 857.4,535.9 860.9,546.6 
			851.9,553.1 863,553.1 		"/>
		<polygon class="st0" points="803.5,563.8 807,553.1 818.1,553.1 809.1,546.6 812.6,535.9 803.5,542.5 794.4,535.9 797.9,546.6 
			788.9,553.1 800,553.1 		"/>
		<polygon class="st0" points="740.5,563.8 744,553.1 755.1,553.1 746.1,546.6 749.6,535.9 740.5,542.5 731.4,535.9 734.9,546.6 
			725.9,553.1 737,553.1 		"/>
		<polygon class="st0" points="683.1,546.6 686.6,535.9 677.5,542.5 668.4,535.9 671.9,546.6 662.9,553.1 674,553.1 677.5,563.8 
			681,553.1 692.1,553.1 		"/>
		<polygon class="st0" points="961,536.8 964.5,526.1 975.6,526.1 966.6,519.6 970.1,508.9 961,515.5 951.9,508.9 955.4,519.6 
			946.4,526.1 957.5,526.1 		"/>
		<polygon class="st0" points="898,536.8 901.5,526.1 912.6,526.1 903.6,519.6 907.1,508.9 898,515.5 888.9,508.9 892.4,519.6 
			883.4,526.1 894.5,526.1 		"/>
		<path class="st0" d="M835,536.8l3.5-10.6h11.2l-9.1-6.6l3.5-10.6l-9.1,6.6l-9.1-6.6l3.5,10.6l-9.1,6.6h11.2L835,536.8z M835,521.4
			L835,521.4L835,521.4L835,521.4L835,521.4z"/>
		<polygon class="st0" points="772,536.8 775.5,526.1 786.6,526.1 777.6,519.6 781.1,508.9 772,515.5 762.9,508.9 766.4,519.6 
			757.4,526.1 768.5,526.1 		"/>
		<polygon class="st0" points="709,536.8 712.5,526.1 723.6,526.1 714.6,519.6 718.1,508.9 709,515.5 699.9,508.9 703.4,519.6 
			694.4,526.1 705.5,526.1 		"/>
		<polygon class="st0" points="992.5,509.8 996,499.1 1007.1,499.1 998.1,492.6 1001.6,481.9 992.5,488.5 983.4,481.9 986.9,492.6 
			977.9,499.1 989,499.1 		"/>
		<polygon class="st0" points="929.5,509.8 933,499.1 944.1,499.1 935.1,492.6 938.6,481.9 929.5,488.5 920.4,481.9 923.9,492.6 
			914.9,499.1 926,499.1 		"/>
		<polygon class="st0" points="866.5,509.8 870,499.1 881.1,499.1 872.1,492.6 875.6,481.9 866.5,488.5 857.4,481.9 860.9,492.6 
			851.9,499.1 863,499.1 		"/>
		<polygon class="st0" points="803.5,509.8 807,499.1 818.1,499.1 809.1,492.6 812.6,481.9 803.5,488.5 794.4,481.9 797.9,492.6 
			788.9,499.1 800,499.1 		"/>
		<polygon class="st0" points="740.5,509.8 744,499.1 755.1,499.1 746.1,492.6 749.6,481.9 740.5,488.5 731.4,481.9 734.9,492.6 
			725.9,499.1 737,499.1 		"/>
		<polygon class="st0" points="677.5,509.8 681,499.1 692.1,499.1 683.1,492.6 686.6,481.9 677.5,488.5 668.4,481.9 671.9,492.6 
			662.9,499.1 674,499.1 		"/>
		<polygon class="st0" points="961,482.8 964.5,472.1 975.6,472.1 966.6,465.6 970.1,454.9 961,461.5 951.9,454.9 955.4,465.6 
			946.4,472.1 957.5,472.1 		"/>
		<polygon class="st0" points="898,482.8 901.5,472.1 912.6,472.1 903.6,465.6 907.1,454.9 898,461.5 888.9,454.9 892.4,465.6 
			883.4,472.1 894.5,472.1 		"/>
		<path class="st0" d="M835,482.8l3.5-10.6h11.2l-9.1-6.6l3.5-10.6l-9.1,6.6l-9.1-6.6l3.5,10.6l-9.1,6.6h11.2L835,482.8z M835,467.4
			L835,467.4L835,467.4L835,467.4z"/>
		<polygon class="st0" points="772,482.8 775.5,472.1 786.6,472.1 777.6,465.6 781.1,454.9 772,461.5 762.9,454.9 766.4,465.6 
			757.4,472.1 768.5,472.1 		"/>
		<polygon class="st0" points="709,482.8 712.5,472.1 723.6,472.1 714.6,465.6 718.1,454.9 709,461.5 699.9,454.9 703.4,465.6 
			694.4,472.1 705.5,472.1 		"/>
		<polygon class="st0" points="992.5,455.8 996,445.1 1007.1,445.1 998.1,438.6 1001.6,427.9 992.5,434.5 983.4,427.9 986.9,438.6 
			977.9,445.1 989,445.1 		"/>
		<polygon class="st0" points="929.5,455.8 933,445.1 944.1,445.1 935.1,438.6 938.6,427.9 929.5,434.5 920.4,427.9 923.9,438.6 
			914.9,445.1 926,445.1 		"/>
		<polygon class="st0" points="866.5,455.8 870,445.1 881.1,445.1 872.1,438.6 875.6,427.9 866.5,434.5 857.4,427.9 860.9,438.6 
			851.9,445.1 863,445.1 		"/>
		<polygon class="st0" points="803.5,455.8 807,445.1 818.1,445.1 809.1,438.6 812.6,427.9 803.5,434.5 794.4,427.9 797.9,438.6 
			788.9,445.1 800,445.1 		"/>
		<polygon class="st0" points="740.5,455.8 744,445.1 755.1,445.1 746.1,438.6 749.6,427.9 740.5,434.5 731.4,427.9 734.9,438.6 
			725.9,445.1 737,445.1 		"/>
		<polygon class="st0" points="677.5,455.8 681,445.1 692.1,445.1 683.1,438.6 686.6,427.9 677.5,434.5 668.4,427.9 671.9,438.6 
			662.9,445.1 674,445.1 		"/>
		<polygon class="st0" points="961,428.8 964.5,418.1 975.6,418.1 966.6,411.6 970.1,400.9 961,407.5 951.9,400.9 955.4,411.6 
			946.4,418.1 957.5,418.1 		"/>
		<polygon class="st0" points="898,428.8 901.5,418.1 912.6,418.1 903.6,411.6 907.1,400.9 898,407.5 888.9,400.9 892.4,411.6 
			883.4,418.1 894.5,418.1 		"/>
		<polygon class="st0" points="835,428.8 838.5,418.1 849.6,418.1 840.6,411.6 844.1,400.9 835,407.5 825.9,400.9 829.4,411.6 
			820.4,418.1 831.5,418.1 		"/>
		<polygon class="st0" points="772,428.8 775.5,418.1 786.6,418.1 777.6,411.6 781.1,400.9 772,407.5 762.9,400.9 766.4,411.6 
			757.4,418.1 768.5,418.1 		"/>
		<polygon class="st0" points="709,428.8 712.5,418.1 723.6,418.1 714.6,411.6 718.1,400.9 709,407.5 699.9,400.9 703.4,411.6 
			694.4,418.1 705.5,418.1 		"/>
		<path class="st0" d="M992.5,401.8l3.5-10.6h11.2l-9.1-6.6l3.5-10.6l-9.1,6.6l-9.1-6.6l3.5,10.6l-9.1,6.6H989L992.5,401.8z
			 M992.5,386.4L992.5,386.4L992.5,386.4L992.5,386.4L992.5,386.4z"/>
		<polygon class="st0" points="929.5,401.8 933,391.1 944.1,391.1 935.1,384.6 938.6,373.9 929.5,380.5 920.4,373.9 923.9,384.6 
			914.9,391.1 926,391.1 		"/>
		<polygon class="st0" points="866.5,401.8 870,391.1 881.1,391.1 872.1,384.6 875.6,373.9 866.5,380.5 857.4,373.9 860.9,384.6 
			851.9,391.1 863,391.1 		"/>
		<polygon class="st0" points="803.5,401.8 807,391.1 818.1,391.1 809.1,384.6 812.6,373.9 803.5,380.5 794.4,373.9 797.9,384.6 
			788.9,391.1 800,391.1 		"/>
		<polygon class="st0" points="740.5,401.8 744,391.1 755.1,391.1 746.1,384.6 749.6,373.9 740.5,380.5 731.4,373.9 734.9,384.6 
			725.9,391.1 737,391.1 		"/>
		<polygon class="st0" points="677.5,401.8 681,391.1 692.1,391.1 683.1,384.6 686.6,373.9 677.5,380.5 668.4,373.9 671.9,384.6 
			662.9,391.1 674,391.1 		"/>
		<polygon class="st0" points="957.5,364.1 961,374.8 964.5,364.1 975.6,364.1 966.6,357.6 970.1,346.9 961,353.5 951.9,346.9 
			955.4,357.6 946.4,364.1 		"/>
		<polygon class="st0" points="894.5,364.1 898,374.8 901.5,364.1 912.6,364.1 903.6,357.6 907.1,346.9 898,353.5 888.9,346.9 
			892.4,357.6 883.4,364.1 		"/>
		<polygon class="st0" points="831.5,364.1 835,374.8 838.5,364.1 849.6,364.1 840.6,357.6 844.1,346.9 835,353.5 825.9,346.9 
			829.4,357.6 820.4,364.1 		"/>
		<polygon class="st0" points="768.5,364.1 772,374.8 775.5,364.1 786.6,364.1 777.6,357.6 781.1,346.9 772,353.5 762.9,346.9 
			766.4,357.6 757.4,364.1 		"/>
		<polygon class="st0" points="705.5,364.1 709,374.8 712.5,364.1 723.6,364.1 714.6,357.6 718.1,346.9 709,353.5 699.9,346.9 
			703.4,357.6 694.4,364.1 		"/>
		<path class="st0" d="M989,337.1l3.5,10.6l3.5-10.6h11.2l-9.1-6.6l3.5-10.6l-9.1,6.6l-9.1-6.6l3.5,10.6l-9.1,6.6H989z M992.5,332.4
			L992.5,332.4L992.5,332.4L992.5,332.4z"/>
		<polygon class="st0" points="926,337.1 929.5,347.8 933,337.1 944.1,337.1 935.1,330.6 938.6,319.9 929.5,326.5 920.4,319.9 
			923.9,330.6 914.9,337.1 		"/>
		<polygon class="st0" points="863,337.1 866.5,347.8 870,337.1 881.1,337.1 872.1,330.6 875.6,319.9 866.5,326.5 857.4,319.9 
			860.9,330.6 851.9,337.1 		"/>
		<polygon class="st0" points="800,337.1 803.5,347.8 807,337.1 818.1,337.1 809.1,330.6 812.6,319.9 803.5,326.5 794.4,319.9 
			797.9,330.6 788.9,337.1 		"/>
		<polygon class="st0" points="737,337.1 740.5,347.8 744,337.1 755.1,337.1 746.1,330.6 749.6,319.9 740.5,326.5 731.4,319.9 
			734.9,330.6 725.9,337.1 		"/>
		<polygon class="st0" points="674,337.1 677.5,347.8 681,337.1 692.1,337.1 683.1,330.6 686.6,319.9 677.5,326.5 668.4,319.9 
			671.9,330.6 662.9,337.1 		"/>
		<polygon class="st0" points="992.5,563.8 996,553.1 1007.1,553.1 998.1,546.6 1001.6,535.9 992.5,542.5 983.4,535.9 986.9,546.6 
			977.9,553.1 989,553.1 		"/>
	</g>
</g>
</svg>
