<?xml version="1.0" encoding="utf-8"?>
<!-- Generator: Adobe Illustrator 22.1.0, SVG Export Plug-In . SVG Version: 6.00 Build 0)  -->
<svg version="1.1" xmlns="http://www.w3.org/2000/svg" xmlns:xlink="http://www.w3.org/1999/xlink" x="0px" y="0px"
	 viewBox="0 0 1100 650" style="enable-background:new 0 0 1100 650;" xml:space="preserve">
<style type="text/css">
	.st0{fill:#ffffff;}
	.st1{fill:#333333;}
	.st2{fill:#CD2031;}
	.st3{fill:#243672;}
</style>
<g id="Layer_2">
	<rect x="1" y="1" style="fill:#f7f7f7;" width="1098" height="648"/>
	<g id="bg">
		<g>
			<rect x="1" y="1" style="fill:#f7f7f7;" width="1098" height="648"/>
			<path class="st1" d="M1098,2v646H2V2H1098 M1100,0H0v650h1100V0L1100,0z"/>
		</g>
	</g>
</g>
<g id="Layer_1">
	<g id="Layer_1_1_">
		<rect x="418.4" y="75" class="st0" width="263.2" height="500"/>
		<rect x="661.3" y="75" class="st2" width="20.3" height="500"/>
		<rect x="620.8" y="75" class="st2" width="20.3" height="500"/>
		<rect x="580.4" y="75" class="st2" width="20.3" height="500"/>
		<rect x="539.9" y="75" class="st2" width="20.3" height="500"/>
		<rect x="499.4" y="75" class="st2" width="20.3" height="500"/>
		<rect x="458.9" y="75" class="st2" width="20.3" height="500"/>
		<rect x="418.4" y="75" class="st2" width="20.3" height="500"/>
		<rect x="539.9" y="75" class="st3" width="141.7" height="200"/>
		<polygon class="st0" points="675.7,125.3 670.1,123.4 670.1,117.6 666.6,122.3 661,120.5 664.5,125.3 661,130.1 666.6,128.2 
			670.1,132.9 670.1,127.1 		"/>
		<polygon class="st0" points="675.7,158.4 670.1,156.6 670.1,150.7 666.6,155.5 661,153.6 664.5,158.4 661,163.2 666.6,161.4 
			670.1,166.1 670.1,160.3 		"/>
		<polygon class="st0" points="675.7,191.6 670.1,189.7 670.1,183.9 666.6,188.6 661,186.8 664.5,191.6 661,196.4 666.6,194.5 
			670.1,199.3 670.1,193.4 		"/>
		<polygon class="st0" points="675.7,224.7 670.1,222.9 670.1,217.1 666.6,221.8 661,219.9 664.5,224.7 661,229.5 666.6,227.7 
			670.1,232.4 670.1,226.6 		"/>
		<polygon class="st0" points="666.6,254.9 661,253.1 664.5,257.9 661,262.7 666.6,260.8 670.1,265.6 670.1,259.7 675.7,257.9 
			670.1,256.1 670.1,250.2 		"/>
		<polygon class="st0" points="661.5,108.7 655.8,106.8 655.8,101 652.4,105.7 646.8,103.9 650.3,108.7 646.8,113.5 652.4,111.6 
			655.8,116.4 655.8,110.5 		"/>
		<polygon class="st0" points="661.5,141.8 655.8,140 655.8,134.2 652.4,138.9 646.8,137.1 650.3,141.8 646.8,146.6 652.4,144.8 
			655.8,149.5 655.8,143.7 		"/>
		<path class="st0" d="M661.5,175l-5.6-1.8v-5.9l-3.5,4.8l-5.6-1.8l3.5,4.8l-3.5,4.8l5.6-1.8l3.5,4.8V177L661.5,175z M653.4,175
			L653.4,175L653.4,175L653.4,175L653.4,175z"/>
		<polygon class="st0" points="661.5,208.2 655.8,206.3 655.8,200.5 652.4,205.2 646.8,203.4 650.3,208.2 646.8,212.9 652.4,211.1 
			655.8,215.8 655.8,210 		"/>
		<polygon class="st0" points="661.5,241.3 655.8,239.5 655.8,233.6 652.4,238.4 646.8,236.5 650.3,241.3 646.8,246.1 652.4,244.3 
			655.8,249 655.8,243.2 		"/>
		<polygon class="st0" points="647.3,92.1 641.6,90.3 641.6,84.4 638.2,89.2 632.6,87.3 636.1,92.1 632.6,96.9 638.2,95.1 
			641.6,99.8 641.6,93.9 		"/>
		<polygon class="st0" points="647.3,125.3 641.6,123.4 641.6,117.6 638.2,122.3 632.6,120.5 636.1,125.3 632.6,130.1 638.2,128.2 
			641.6,132.9 641.6,127.1 		"/>
		<polygon class="st0" points="647.3,158.4 641.6,156.6 641.6,150.7 638.2,155.5 632.6,153.6 636.1,158.4 632.6,163.2 638.2,161.4 
			641.6,166.1 641.6,160.3 		"/>
		<polygon class="st0" points="647.3,191.6 641.6,189.7 641.6,183.9 638.2,188.6 632.6,186.8 636.1,191.6 632.6,196.4 638.2,194.5 
			641.6,199.3 641.6,193.4 		"/>
		<polygon class="st0" points="647.3,224.7 641.6,222.9 641.6,217.1 638.2,221.8 632.6,219.9 636.1,224.7 632.6,229.5 638.2,227.7 
			641.6,232.4 641.6,226.6 		"/>
		<polygon class="st0" points="647.3,257.9 641.6,256.1 641.6,250.2 638.2,254.9 632.6,253.1 636.1,257.9 632.6,262.7 638.2,260.8 
			641.6,265.6 641.6,259.7 		"/>
		<polygon class="st0" points="633.1,108.7 627.4,106.8 627.4,101 624,105.7 618.4,103.9 621.8,108.7 618.4,113.5 624,111.6 
			627.4,116.4 627.4,110.5 		"/>
		<polygon class="st0" points="633.1,141.8 627.4,140 627.4,134.2 624,138.9 618.4,137.1 621.8,141.8 618.4,146.6 624,144.8 
			627.4,149.5 627.4,143.7 		"/>
		<path class="st0" d="M633.1,175l-5.6-1.8v-5.9l-3.5,4.8l-5.6-1.8l3.5,4.8l-3.5,4.8l5.6-1.8l3.5,4.8V177L633.1,175z M624.9,175
			L624.9,175L624.9,175L624.9,175z"/>
		<polygon class="st0" points="633.1,208.2 627.4,206.3 627.4,200.5 624,205.2 618.4,203.4 621.8,208.2 618.4,212.9 624,211.1 
			627.4,215.8 627.4,210 		"/>
		<polygon class="st0" points="633.1,241.3 627.4,239.5 627.4,233.6 624,238.4 618.4,236.5 621.8,241.3 618.4,246.1 624,244.3 
			627.4,249 627.4,243.2 		"/>
		<polygon class="st0" points="618.8,92.1 613.2,90.3 613.2,84.4 609.8,89.2 604.2,87.3 607.6,92.1 604.2,96.9 609.8,95.1 
			613.2,99.8 613.2,93.9 		"/>
		<polygon class="st0" points="618.8,125.3 613.2,123.4 613.2,117.6 609.8,122.3 604.2,120.5 607.6,125.3 604.2,130.1 609.8,128.2 
			613.2,132.9 613.2,127.1 		"/>
		<polygon class="st0" points="618.8,158.4 613.2,156.6 613.2,150.7 609.8,155.5 604.2,153.6 607.6,158.4 604.2,163.2 609.8,161.4 
			613.2,166.1 613.2,160.3 		"/>
		<polygon class="st0" points="618.8,191.6 613.2,189.7 613.2,183.9 609.8,188.6 604.2,186.8 607.6,191.6 604.2,196.4 609.8,194.5 
			613.2,199.3 613.2,193.4 		"/>
		<polygon class="st0" points="618.8,224.7 613.2,222.9 613.2,217.1 609.8,221.8 604.2,219.9 607.6,224.7 604.2,229.5 609.8,227.7 
			613.2,232.4 613.2,226.6 		"/>
		<polygon class="st0" points="618.8,257.9 613.2,256.1 613.2,250.2 609.8,254.9 604.2,253.1 607.6,257.9 604.2,262.7 609.8,260.8 
			613.2,265.6 613.2,259.7 		"/>
		<polygon class="st0" points="604.6,108.7 599,106.8 599,101 595.6,105.7 589.9,103.9 593.4,108.7 589.9,113.5 595.6,111.6 
			599,116.4 599,110.5 		"/>
		<polygon class="st0" points="604.6,141.8 599,140 599,134.2 595.6,138.9 589.9,137.1 593.4,141.8 589.9,146.6 595.6,144.8 
			599,149.5 599,143.7 		"/>
		<polygon class="st0" points="604.6,175 599,173.2 599,167.3 595.6,172.1 589.9,170.2 593.4,175 589.9,179.8 595.6,177.9 
			599,182.7 599,176.8 		"/>
		<polygon class="st0" points="604.6,208.2 599,206.3 599,200.5 595.6,205.2 589.9,203.4 593.4,208.2 589.9,212.9 595.6,211.1 
			599,215.8 599,210 		"/>
		<polygon class="st0" points="604.6,241.3 599,239.5 599,233.6 595.6,238.4 589.9,236.5 593.4,241.3 589.9,246.1 595.6,244.3 
			599,249 599,243.2 		"/>
		<path class="st0" d="M590.4,92.1l-5.6-1.8v-5.8l-3.5,4.8l-5.6-1.8l3.5,4.8l-3.5,4.8l5.6-1.8l3.5,4.8v-5.9L590.4,92.1z M582.3,92.1
			L582.3,92.1L582.3,92.1L582.3,92.1L582.3,92.1z"/>
		<polygon class="st0" points="590.4,125.3 584.8,123.4 584.8,117.6 581.4,122.3 575.7,120.5 579.2,125.3 575.7,130.1 581.4,128.2 
			584.8,132.9 584.8,127.1 		"/>
		<polygon class="st0" points="590.4,158.4 584.8,156.6 584.8,150.7 581.4,155.5 575.7,153.6 579.2,158.4 575.7,163.2 581.4,161.4 
			584.8,166.1 584.8,160.3 		"/>
		<polygon class="st0" points="590.4,191.6 584.8,189.7 584.8,183.9 581.4,188.6 575.7,186.8 579.2,191.6 575.7,196.4 581.4,194.5 
			584.8,199.3 584.8,193.4 		"/>
		<polygon class="st0" points="590.4,224.7 584.8,222.9 584.8,217.1 581.4,221.8 575.7,219.9 579.2,224.7 575.7,229.5 581.4,227.7 
			584.8,232.4 584.8,226.6 		"/>
		<polygon class="st0" points="590.4,257.9 584.8,256.1 584.8,250.2 581.4,254.9 575.7,253.1 579.2,257.9 575.7,262.7 581.4,260.8 
			584.8,265.6 584.8,259.7 		"/>
		<polygon class="st0" points="570.6,110.5 576.2,108.7 570.6,106.8 570.6,101 567.2,105.7 561.5,103.9 565,108.7 561.5,113.5 
			567.2,111.6 570.6,116.4 		"/>
		<polygon class="st0" points="570.6,143.7 576.2,141.8 570.6,140 570.6,134.2 567.2,138.9 561.5,137.1 565,141.8 561.5,146.6 
			567.2,144.8 570.6,149.5 		"/>
		<polygon class="st0" points="570.6,176.8 576.2,175 570.6,173.2 570.6,167.3 567.2,172.1 561.5,170.2 565,175 561.5,179.8 
			567.2,177.9 570.6,182.7 		"/>
		<polygon class="st0" points="570.6,210 576.2,208.2 570.6,206.3 570.6,200.5 567.2,205.2 561.5,203.4 565,208.2 561.5,212.9 
			567.2,211.1 570.6,215.8 		"/>
		<polygon class="st0" points="570.6,243.2 576.2,241.3 570.6,239.5 570.6,233.6 567.2,238.4 561.5,236.5 565,241.3 561.5,246.1 
			567.2,244.3 570.6,249 		"/>
		<path class="st0" d="M556.4,93.9l5.6-1.8l-5.6-1.8v-5.8l-3.5,4.8l-5.6-1.8l3.5,4.8l-3.5,4.8l5.6-1.8l3.5,4.8V93.9z M553.9,92.1
			L553.9,92.1L553.9,92.1L553.9,92.1z"/>
		<polygon class="st0" points="556.4,127.1 562,125.3 556.4,123.4 556.4,117.6 552.9,122.3 547.3,120.5 550.8,125.3 547.3,130.1 
			552.9,128.2 556.4,132.9 		"/>
		<polygon class="st0" points="556.4,160.3 562,158.4 556.4,156.6 556.4,150.7 552.9,155.5 547.3,153.6 550.8,158.4 547.3,163.2 
			552.9,161.4 556.4,166.1 		"/>
		<polygon class="st0" points="556.4,193.4 562,191.6 556.4,189.7 556.4,183.9 552.9,188.6 547.3,186.8 550.8,191.6 547.3,196.4 
			552.9,194.5 556.4,199.3 		"/>
		<polygon class="st0" points="556.4,226.6 562,224.7 556.4,222.9 556.4,217.1 552.9,221.8 547.3,219.9 550.8,224.7 547.3,229.5 
			552.9,227.7 556.4,232.4 		"/>
		<polygon class="st0" points="556.4,259.7 562,257.9 556.4,256.1 556.4,250.2 552.9,254.9 547.3,253.1 550.8,257.9 547.3,262.7 
			552.9,260.8 556.4,265.6 		"/>
		<polygon class="st0" points="675.7,92.1 670.1,90.3 670.1,84.4 666.6,89.2 661,87.3 664.5,92.1 661,96.9 666.6,95.1 670.1,99.8 
			670.1,93.9 		"/>
	</g>
</g>
</svg>
