<?xml version="1.0" encoding="utf-8"?>
<!-- Generator: Adobe Illustrator 22.1.0, SVG Export Plug-In . SVG Version: 6.00 Build 0)  -->
<svg version="1.1" id="Layer_1" xmlns="http://www.w3.org/2000/svg" xmlns:xlink="http://www.w3.org/1999/xlink" x="0px" y="0px"
	 viewBox="0 0 1100 650" style="enable-background:new 0 0 1100 650;" xml:space="preserve">
<style type="text/css">
	.st0{fill:#FFFFFF;}
	.st1{fill:#CD2031;}
	.st2{fill:#243672;}
	.st3{fill:#333333;}
</style>
<g id="Layer_1_1_">
	<rect x="-400" y="-175" class="st0" width="1900" height="1000"/>
	<rect x="-400" y="-175" class="st1" width="1900" height="77"/>
	<rect x="-400" y="-21.2" class="st1" width="1900" height="77"/>
	<rect x="-400" y="132.6" class="st1" width="1900" height="77"/>
	<rect x="-400" y="286.6" class="st1" width="1900" height="77"/>
	<rect x="-400" y="440.4" class="st1" width="1900" height="77"/>
	<rect x="-400" y="594.2" class="st1" width="1900" height="77"/>
	<rect x="-400" y="748" class="st1" width="1900" height="77"/>
	<rect x="-400" y="-175" class="st2" width="760" height="538.4"/>
	<polygon class="st0" points="-209,-152.6 -216,-131.2 -238.2,-131.2 -220.2,-118.2 -227.2,-96.8 -209,-110 -190.8,-96.8 
		-197.8,-118.2 -179.8,-131.2 -202,-131.2 	"/>
	<polygon class="st0" points="-83,-152.6 -90,-131.2 -112.2,-131.2 -94.2,-118.2 -101.2,-96.8 -83,-110 -64.8,-96.8 -71.8,-118.2 
		-53.8,-131.2 -76,-131.2 	"/>
	<polygon class="st0" points="43,-152.6 36,-131.2 13.8,-131.2 31.8,-118.2 24.8,-96.8 43,-110 61.2,-96.8 54.2,-118.2 72.2,-131.2 
		50,-131.2 	"/>
	<polygon class="st0" points="169,-152.6 162,-131.2 139.8,-131.2 157.8,-118.2 150.8,-96.8 169,-110 187.2,-96.8 180.2,-118.2 
		198.2,-131.2 176,-131.2 	"/>
	<polygon class="st0" points="283.8,-118.2 276.8,-96.8 295,-110 313.2,-96.8 306.2,-118.2 324.2,-131.2 302,-131.2 295,-152.6 
		288,-131.2 265.8,-131.2 	"/>
	<polygon class="st0" points="-272,-98.6 -279,-77.2 -301.2,-77.2 -283.2,-64.2 -290.2,-42.8 -272,-56 -253.8,-42.8 -260.8,-64.2 
		-242.8,-77.2 -265,-77.2 	"/>
	<polygon class="st0" points="-146,-98.6 -153,-77.2 -175.2,-77.2 -157.2,-64.2 -164.2,-42.8 -146,-56 -127.8,-42.8 -134.8,-64.2 
		-116.8,-77.2 -139,-77.2 	"/>
	<path class="st0" d="M-20-98.6l-7,21.2h-22.4l18.2,13.2l-7,21.2L-20-56.2L-1.8-43l-7-21.2L9.4-77.4H-13L-20-98.6z M-20-67.8
		L-20-67.8L-20-67.8L-20-67.8L-20-67.8z"/>
	<polygon class="st0" points="106,-98.6 99,-77.2 76.8,-77.2 94.8,-64.2 87.8,-42.8 106,-56 124.2,-42.8 117.2,-64.2 135.2,-77.2 
		113,-77.2 	"/>
	<polygon class="st0" points="232,-98.6 225,-77.2 202.8,-77.2 220.8,-64.2 213.8,-42.8 232,-56 250.2,-42.8 243.2,-64.2 
		261.2,-77.2 239,-77.2 	"/>
	<polygon class="st0" points="-335,-44.6 -342,-23.2 -364.2,-23.2 -346.2,-10.2 -353.2,11.2 -335,-2 -316.8,11.2 -323.8,-10.2 
		-305.8,-23.2 -328,-23.2 	"/>
	<polygon class="st0" points="-209,-44.6 -216,-23.2 -238.2,-23.2 -220.2,-10.2 -227.2,11.2 -209,-2 -190.8,11.2 -197.8,-10.2 
		-179.8,-23.2 -202,-23.2 	"/>
	<polygon class="st0" points="-83,-44.6 -90,-23.2 -112.2,-23.2 -94.2,-10.2 -101.2,11.2 -83,-2 -64.8,11.2 -71.8,-10.2 
		-53.8,-23.2 -76,-23.2 	"/>
	<polygon class="st0" points="43,-44.6 36,-23.2 13.8,-23.2 31.8,-10.2 24.8,11.2 43,-2 61.2,11.2 54.2,-10.2 72.2,-23.2 50,-23.2 	
		"/>
	<polygon class="st0" points="169,-44.6 162,-23.2 139.8,-23.2 157.8,-10.2 150.8,11.2 169,-2 187.2,11.2 180.2,-10.2 198.2,-23.2 
		176,-23.2 	"/>
	<polygon class="st0" points="295,-44.6 288,-23.2 265.8,-23.2 283.8,-10.2 276.8,11.2 295,-2 313.2,11.2 306.2,-10.2 324.2,-23.2 
		302,-23.2 	"/>
	<polygon class="st0" points="-272,9.4 -279,30.8 -301.2,30.8 -283.2,43.8 -290.2,65.2 -272,52 -253.8,65.2 -260.8,43.8 
		-242.8,30.8 -265,30.8 	"/>
	<polygon class="st0" points="-146,9.4 -153,30.8 -175.2,30.8 -157.2,43.8 -164.2,65.2 -146,52 -127.8,65.2 -134.8,43.8 
		-116.8,30.8 -139,30.8 	"/>
	<path class="st0" d="M-20,9.4l-7,21.2h-22.4l18.2,13.2l-7,21.2L-20,51.8L-1.8,65l-7-21.2L9.4,30.6H-13L-20,9.4z M-20,40.2L-20,40.2
		L-20,40.2L-20,40.2z"/>
	<polygon class="st0" points="106,9.4 99,30.8 76.8,30.8 94.8,43.8 87.8,65.2 106,52 124.2,65.2 117.2,43.8 135.2,30.8 113,30.8 	
		"/>
	<polygon class="st0" points="232,9.4 225,30.8 202.8,30.8 220.8,43.8 213.8,65.2 232,52 250.2,65.2 243.2,43.8 261.2,30.8 
		239,30.8 	"/>
	<polygon class="st0" points="-335,63.4 -342,84.8 -364.2,84.8 -346.2,97.8 -353.2,119.2 -335,106 -316.8,119.2 -323.8,97.8 
		-305.8,84.8 -328,84.8 	"/>
	<polygon class="st0" points="-209,63.4 -216,84.8 -238.2,84.8 -220.2,97.8 -227.2,119.2 -209,106 -190.8,119.2 -197.8,97.8 
		-179.8,84.8 -202,84.8 	"/>
	<polygon class="st0" points="-83,63.4 -90,84.8 -112.2,84.8 -94.2,97.8 -101.2,119.2 -83,106 -64.8,119.2 -71.8,97.8 -53.8,84.8 
		-76,84.8 	"/>
	<polygon class="st0" points="43,63.4 36,84.8 13.8,84.8 31.8,97.8 24.8,119.2 43,106 61.2,119.2 54.2,97.8 72.2,84.8 50,84.8 	"/>
	<polygon class="st0" points="169,63.4 162,84.8 139.8,84.8 157.8,97.8 150.8,119.2 169,106 187.2,119.2 180.2,97.8 198.2,84.8 
		176,84.8 	"/>
	<polygon class="st0" points="295,63.4 288,84.8 265.8,84.8 283.8,97.8 276.8,119.2 295,106 313.2,119.2 306.2,97.8 324.2,84.8 
		302,84.8 	"/>
	<polygon class="st0" points="-272,117.4 -279,138.8 -301.2,138.8 -283.2,151.8 -290.2,173.2 -272,160 -253.8,173.2 -260.8,151.8 
		-242.8,138.8 -265,138.8 	"/>
	<polygon class="st0" points="-146,117.4 -153,138.8 -175.2,138.8 -157.2,151.8 -164.2,173.2 -146,160 -127.8,173.2 -134.8,151.8 
		-116.8,138.8 -139,138.8 	"/>
	<polygon class="st0" points="-20,117.4 -27,138.8 -49.2,138.8 -31.2,151.8 -38.2,173.2 -20,160 -1.8,173.2 -8.8,151.8 9.2,138.8 
		-13,138.8 	"/>
	<polygon class="st0" points="106,117.4 99,138.8 76.8,138.8 94.8,151.8 87.8,173.2 106,160 124.2,173.2 117.2,151.8 135.2,138.8 
		113,138.8 	"/>
	<polygon class="st0" points="232,117.4 225,138.8 202.8,138.8 220.8,151.8 213.8,173.2 232,160 250.2,173.2 243.2,151.8 
		261.2,138.8 239,138.8 	"/>
	<path class="st0" d="M-335,171.4l-7,21.2h-22.2l18.2,13.2l-7,21.2l18.2-13.2l18.2,13.2l-7-21.2l18.2-13.2H-328L-335,171.4z
		 M-335,202.2L-335,202.2L-335,202.2L-335,202.2L-335,202.2z"/>
	<polygon class="st0" points="-209,171.4 -216,192.8 -238.2,192.8 -220.2,205.8 -227.2,227.2 -209,214 -190.8,227.2 -197.8,205.8 
		-179.8,192.8 -202,192.8 	"/>
	<polygon class="st0" points="-83,171.4 -90,192.8 -112.2,192.8 -94.2,205.8 -101.2,227.2 -83,214 -64.8,227.2 -71.8,205.8 
		-53.8,192.8 -76,192.8 	"/>
	<polygon class="st0" points="43,171.4 36,192.8 13.8,192.8 31.8,205.8 24.8,227.2 43,214 61.2,227.2 54.2,205.8 72.2,192.8 
		50,192.8 	"/>
	<polygon class="st0" points="169,171.4 162,192.8 139.8,192.8 157.8,205.8 150.8,227.2 169,214 187.2,227.2 180.2,205.8 
		198.2,192.8 176,192.8 	"/>
	<polygon class="st0" points="295,171.4 288,192.8 265.8,192.8 283.8,205.8 276.8,227.2 295,214 313.2,227.2 306.2,205.8 
		324.2,192.8 302,192.8 	"/>
	<polygon class="st0" points="-265,246.8 -272,225.4 -279,246.8 -301.2,246.8 -283.2,259.8 -290.2,281.2 -272,268 -253.8,281.2 
		-260.8,259.8 -242.8,246.8 	"/>
	<polygon class="st0" points="-139,246.8 -146,225.4 -153,246.8 -175.2,246.8 -157.2,259.8 -164.2,281.2 -146,268 -127.8,281.2 
		-134.8,259.8 -116.8,246.8 	"/>
	<polygon class="st0" points="-13,246.8 -20,225.4 -27,246.8 -49.2,246.8 -31.2,259.8 -38.2,281.2 -20,268 -1.8,281.2 -8.8,259.8 
		9.2,246.8 	"/>
	<polygon class="st0" points="113,246.8 106,225.4 99,246.8 76.8,246.8 94.8,259.8 87.8,281.2 106,268 124.2,281.2 117.2,259.8 
		135.2,246.8 	"/>
	<polygon class="st0" points="239,246.8 232,225.4 225,246.8 202.8,246.8 220.8,259.8 213.8,281.2 232,268 250.2,281.2 243.2,259.8 
		261.2,246.8 	"/>
	<path class="st0" d="M-328,300.8l-7-21.2l-7,21.2h-22.2L-346,314l-7,21.2l18.2-13.2l18.2,13.2l-7-21.2l18.2-13.2H-328z M-335,310.2
		L-335,310.2L-335,310.2L-335,310.2z"/>
	<polygon class="st0" points="-202,300.8 -209,279.4 -216,300.8 -238.2,300.8 -220.2,313.8 -227.2,335.2 -209,322 -190.8,335.2 
		-197.8,313.8 -179.8,300.8 	"/>
	<polygon class="st0" points="-76,300.8 -83,279.4 -90,300.8 -112.2,300.8 -94.2,313.8 -101.2,335.2 -83,322 -64.8,335.2 
		-71.8,313.8 -53.8,300.8 	"/>
	<polygon class="st0" points="50,300.8 43,279.4 36,300.8 13.8,300.8 31.8,313.8 24.8,335.2 43,322 61.2,335.2 54.2,313.8 
		72.2,300.8 	"/>
	<polygon class="st0" points="176,300.8 169,279.4 162,300.8 139.8,300.8 157.8,313.8 150.8,335.2 169,322 187.2,335.2 180.2,313.8 
		198.2,300.8 	"/>
	<polygon class="st0" points="302,300.8 295,279.4 288,300.8 265.8,300.8 283.8,313.8 276.8,335.2 295,322 313.2,335.2 306.2,313.8 
		324.2,300.8 	"/>
	<polygon class="st0" points="-335,-152.6 -342,-131.2 -364.2,-131.2 -346.2,-118.2 -353.2,-96.8 -335,-110 -316.8,-96.8 
		-323.8,-118.2 -305.8,-131.2 -328,-131.2 	"/>
</g>
<g id="Layer_2_1_">
	<g>
		<path class="st3" d="M1098,2v646H2V2H1098 M1100,0H0v650h1100V0L1100,0z"/>
	</g>
</g>
</svg>
