<?xml version="1.0" encoding="utf-8"?>
<!-- Generator: Adobe Illustrator 22.1.0, SVG Export Plug-In . SVG Version: 6.00 Build 0)  -->
<svg version="1.1" id="Layer_1" xmlns="http://www.w3.org/2000/svg" xmlns:xlink="http://www.w3.org/1999/xlink" x="0px" y="0px"
	 viewBox="0 0 1100 650" style="enable-background:new 0 0 1100 650;" xml:space="preserve">
<style type="text/css">
	.st0{fill:#F7F7F7;}
	.st1{fill:#333333;}
	.st2{fill:#FFFFFF;}
	.st3{fill:#CD2031;}
	.st4{fill:#243672;}
</style>
<g id="Layer_2_1_">
	<g>
		<rect x="1" y="1" class="st0" width="1098" height="648"/>
		<path class="st1" d="M1098,2v646H2V2H1098 M1100,0H0v650h1100V0L1100,0z"/>
	</g>
</g>
<g id="Layer_1_1_">
	<rect x="312.5" y="200" class="st2" width="475" height="250"/>
	<rect x="312.5" y="200" class="st3" width="475" height="19.2"/>
	<rect x="312.5" y="238.4" class="st3" width="475" height="19.2"/>
	<rect x="312.5" y="276.9" class="st3" width="475" height="19.2"/>
	<rect x="312.5" y="315.4" class="st3" width="475" height="19.2"/>
	<rect x="312.5" y="353.9" class="st3" width="475" height="19.2"/>
	<rect x="312.5" y="392.3" class="st3" width="475" height="19.2"/>
	<rect x="312.5" y="430.8" class="st3" width="475" height="19.2"/>
	<rect x="312.5" y="200" class="st4" width="190" height="134.6"/>
	<polygon class="st2" points="360.2,205.6 358.5,210.9 353,210.9 357.5,214.2 355.7,219.6 360.2,216.2 364.8,219.6 363,214.2 
		367.5,210.9 362,210.9 	"/>
	<polygon class="st2" points="391.8,205.6 390,210.9 384.5,210.9 389,214.2 387.2,219.6 391.8,216.2 396.3,219.6 394.5,214.2 
		399,210.9 393.5,210.9 	"/>
	<polygon class="st2" points="423.2,205.6 421.5,210.9 416,210.9 420.5,214.2 418.7,219.6 423.2,216.2 427.8,219.6 426,214.2 
		430.5,210.9 425,210.9 	"/>
	<polygon class="st2" points="454.8,205.6 453,210.9 447.5,210.9 452,214.2 450.2,219.6 454.8,216.2 459.3,219.6 457.5,214.2 
		462,210.9 456.5,210.9 	"/>
	<polygon class="st2" points="483.5,214.2 481.7,219.6 486.2,216.2 490.8,219.6 489,214.2 493.5,210.9 488,210.9 486.2,205.6 
		484.5,210.9 479,210.9 	"/>
	<polygon class="st2" points="344.5,219.1 342.8,224.4 337.2,224.4 341.7,227.7 340,233.1 344.5,229.8 349,233.1 347.3,227.7 
		351.8,224.4 346.2,224.4 	"/>
	<polygon class="st2" points="376,219.1 374.2,224.4 368.7,224.4 373.2,227.7 371.5,233.1 376,229.8 380.5,233.1 378.8,227.7 
		383.3,224.4 377.8,224.4 	"/>
	<path class="st2" d="M407.5,219.1l-1.8,5.3h-5.6l4.6,3.3L403,233l4.5-3.3l4.5,3.3l-1.8-5.3l4.6-3.3h-5.6L407.5,219.1z M407.5,226.8
		L407.5,226.8L407.5,226.8L407.5,226.8L407.5,226.8z"/>
	<polygon class="st2" points="439,219.1 437.2,224.4 431.7,224.4 436.2,227.7 434.5,233.1 439,229.8 443.5,233.1 441.8,227.7 
		446.3,224.4 440.8,224.4 	"/>
	<polygon class="st2" points="470.5,219.1 468.8,224.4 463.2,224.4 467.7,227.7 466,233.1 470.5,229.8 475,233.1 473.3,227.7 
		477.8,224.4 472.2,224.4 	"/>
	<polygon class="st2" points="328.8,232.6 327,237.9 321.5,237.9 326,241.2 324.2,246.6 328.8,243.2 333.3,246.6 331.5,241.2 
		336,237.9 330.5,237.9 	"/>
	<polygon class="st2" points="360.2,232.6 358.5,237.9 353,237.9 357.5,241.2 355.7,246.6 360.2,243.2 364.8,246.6 363,241.2 
		367.5,237.9 362,237.9 	"/>
	<polygon class="st2" points="391.8,232.6 390,237.9 384.5,237.9 389,241.2 387.2,246.6 391.8,243.2 396.3,246.6 394.5,241.2 
		399,237.9 393.5,237.9 	"/>
	<polygon class="st2" points="423.2,232.6 421.5,237.9 416,237.9 420.5,241.2 418.7,246.6 423.2,243.2 427.8,246.6 426,241.2 
		430.5,237.9 425,237.9 	"/>
	<polygon class="st2" points="454.8,232.6 453,237.9 447.5,237.9 452,241.2 450.2,246.6 454.8,243.2 459.3,246.6 457.5,241.2 
		462,237.9 456.5,237.9 	"/>
	<polygon class="st2" points="486.2,232.6 484.5,237.9 479,237.9 483.5,241.2 481.7,246.6 486.2,243.2 490.8,246.6 489,241.2 
		493.5,237.9 488,237.9 	"/>
	<polygon class="st2" points="344.5,246.1 342.8,251.4 337.2,251.4 341.7,254.7 340,260 344.5,256.8 349,260 347.3,254.7 
		351.8,251.4 346.2,251.4 	"/>
	<polygon class="st2" points="376,246.1 374.2,251.4 368.7,251.4 373.2,254.7 371.5,260 376,256.8 380.5,260 378.8,254.7 
		383.3,251.4 377.8,251.4 	"/>
	<path class="st2" d="M407.5,246.1l-1.8,5.3h-5.6l4.6,3.3L403,260l4.5-3.3l4.5,3.3l-1.8-5.3l4.6-3.3h-5.6L407.5,246.1z M407.5,253.8
		L407.5,253.8L407.5,253.8L407.5,253.8z"/>
	<polygon class="st2" points="439,246.1 437.2,251.4 431.7,251.4 436.2,254.7 434.5,260 439,256.8 443.5,260 441.8,254.7 
		446.3,251.4 440.8,251.4 	"/>
	<polygon class="st2" points="470.5,246.1 468.8,251.4 463.2,251.4 467.7,254.7 466,260 470.5,256.8 475,260 473.3,254.7 
		477.8,251.4 472.2,251.4 	"/>
	<polygon class="st2" points="328.8,259.6 327,265 321.5,265 326,268.2 324.2,273.5 328.8,270.2 333.3,273.5 331.5,268.2 336,265 
		330.5,265 	"/>
	<polygon class="st2" points="360.2,259.6 358.5,265 353,265 357.5,268.2 355.7,273.5 360.2,270.2 364.8,273.5 363,268.2 367.5,265 
		362,265 	"/>
	<polygon class="st2" points="391.8,259.6 390,265 384.5,265 389,268.2 387.2,273.5 391.8,270.2 396.3,273.5 394.5,268.2 399,265 
		393.5,265 	"/>
	<polygon class="st2" points="423.2,259.6 421.5,265 416,265 420.5,268.2 418.7,273.5 423.2,270.2 427.8,273.5 426,268.2 430.5,265 
		425,265 	"/>
	<polygon class="st2" points="454.8,259.6 453,265 447.5,265 452,268.2 450.2,273.5 454.8,270.2 459.3,273.5 457.5,268.2 462,265 
		456.5,265 	"/>
	<polygon class="st2" points="486.2,259.6 484.5,265 479,265 483.5,268.2 481.7,273.5 486.2,270.2 490.8,273.5 489,268.2 493.5,265 
		488,265 	"/>
	<polygon class="st2" points="344.5,273.1 342.8,278.5 337.2,278.5 341.7,281.7 340,287 344.5,283.8 349,287 347.3,281.7 
		351.8,278.5 346.2,278.5 	"/>
	<polygon class="st2" points="376,273.1 374.2,278.5 368.7,278.5 373.2,281.7 371.5,287 376,283.8 380.5,287 378.8,281.7 
		383.3,278.5 377.8,278.5 	"/>
	<polygon class="st2" points="407.5,273.1 405.8,278.5 400.2,278.5 404.7,281.7 403,287 407.5,283.8 412,287 410.3,281.7 
		414.8,278.5 409.2,278.5 	"/>
	<polygon class="st2" points="439,273.1 437.2,278.5 431.7,278.5 436.2,281.7 434.5,287 439,283.8 443.5,287 441.8,281.7 
		446.3,278.5 440.8,278.5 	"/>
	<polygon class="st2" points="470.5,273.1 468.8,278.5 463.2,278.5 467.7,281.7 466,287 470.5,283.8 475,287 473.3,281.7 
		477.8,278.5 472.2,278.5 	"/>
	<path class="st2" d="M328.8,286.6l-1.8,5.3h-5.5l4.5,3.3l-1.8,5.3l4.5-3.3l4.6,3.3l-1.8-5.3l4.5-3.3h-5.6L328.8,286.6z
		 M328.8,294.3L328.8,294.3L328.8,294.3L328.8,294.3L328.8,294.3z"/>
	<polygon class="st2" points="360.2,286.6 358.5,292 353,292 357.5,295.2 355.7,300.5 360.2,297.2 364.8,300.5 363,295.2 367.5,292 
		362,292 	"/>
	<polygon class="st2" points="391.8,286.6 390,292 384.5,292 389,295.2 387.2,300.5 391.8,297.2 396.3,300.5 394.5,295.2 399,292 
		393.5,292 	"/>
	<polygon class="st2" points="423.2,286.6 421.5,292 416,292 420.5,295.2 418.7,300.5 423.2,297.2 427.8,300.5 426,295.2 430.5,292 
		425,292 	"/>
	<polygon class="st2" points="454.8,286.6 453,292 447.5,292 452,295.2 450.2,300.5 454.8,297.2 459.3,300.5 457.5,295.2 462,292 
		456.5,292 	"/>
	<polygon class="st2" points="486.2,286.6 484.5,292 479,292 483.5,295.2 481.7,300.5 486.2,297.2 490.8,300.5 489,295.2 493.5,292 
		488,292 	"/>
	<polygon class="st2" points="346.2,305.5 344.5,300.1 342.8,305.5 337.2,305.5 341.7,308.7 340,314 344.5,310.8 349,314 
		347.3,308.7 351.8,305.5 	"/>
	<polygon class="st2" points="377.8,305.5 376,300.1 374.2,305.5 368.7,305.5 373.2,308.7 371.5,314 376,310.8 380.5,314 
		378.8,308.7 383.3,305.5 	"/>
	<polygon class="st2" points="409.2,305.5 407.5,300.1 405.8,305.5 400.2,305.5 404.7,308.7 403,314 407.5,310.8 412,314 
		410.3,308.7 414.8,305.5 	"/>
	<polygon class="st2" points="440.8,305.5 439,300.1 437.2,305.5 431.7,305.5 436.2,308.7 434.5,314 439,310.8 443.5,314 
		441.8,308.7 446.3,305.5 	"/>
	<polygon class="st2" points="472.2,305.5 470.5,300.1 468.8,305.5 463.2,305.5 467.7,308.7 466,314 470.5,310.8 475,314 
		473.3,308.7 477.8,305.5 	"/>
	<path class="st2" d="M330.5,319l-1.8-5.3L327,319h-5.5l4.5,3.3l-1.8,5.3l4.5-3.3l4.6,3.3l-1.8-5.3l4.5-3.3H330.5z M328.8,321.3
		L328.8,321.3L328.8,321.3L328.8,321.3z"/>
	<polygon class="st2" points="362,319 360.2,313.6 358.5,319 353,319 357.5,322.2 355.7,327.5 360.2,324.2 364.8,327.5 363,322.2 
		367.5,319 	"/>
	<polygon class="st2" points="393.5,319 391.8,313.6 390,319 384.5,319 389,322.2 387.2,327.5 391.8,324.2 396.3,327.5 394.5,322.2 
		399,319 	"/>
	<polygon class="st2" points="425,319 423.2,313.6 421.5,319 416,319 420.5,322.2 418.7,327.5 423.2,324.2 427.8,327.5 426,322.2 
		430.5,319 	"/>
	<polygon class="st2" points="456.5,319 454.8,313.6 453,319 447.5,319 452,322.2 450.2,327.5 454.8,324.2 459.3,327.5 457.5,322.2 
		462,319 	"/>
	<polygon class="st2" points="488,319 486.2,313.6 484.5,319 479,319 483.5,322.2 481.7,327.5 486.2,324.2 490.8,327.5 489,322.2 
		493.5,319 	"/>
	<polygon class="st2" points="328.8,205.6 327,210.9 321.5,210.9 326,214.2 324.2,219.6 328.8,216.2 333.3,219.6 331.5,214.2 
		336,210.9 330.5,210.9 	"/>
</g>
</svg>
