<?xml version="1.0" encoding="utf-8"?>
<!-- Generator: Adobe Illustrator 22.1.0, SVG Export Plug-In . SVG Version: 6.00 Build 0)  -->
<svg version="1.1" id="Layer_1" xmlns="http://www.w3.org/2000/svg" xmlns:xlink="http://www.w3.org/1999/xlink" x="0px" y="0px"
	 viewBox="0 0 1100 650" style="enable-background:new 0 0 1100 650;" xml:space="preserve">
<style type="text/css">
	.st0{fill:#FFFFFF;}
	.st1{fill:#CD2031;}
	.st2{fill:#243672;}
	.st3{fill:#333333;}
</style>
<g id="Layer_1_1_">
	<rect x="490.6" y="293.8" class="st0" width="118.8" height="62.5"/>
	<rect x="490.6" y="293.8" class="st1" width="118.8" height="4.8"/>
	<rect x="490.6" y="303.4" class="st1" width="118.8" height="4.8"/>
	<rect x="490.6" y="313" class="st1" width="118.8" height="4.8"/>
	<rect x="490.6" y="322.6" class="st1" width="118.8" height="4.8"/>
	<rect x="490.6" y="332.2" class="st1" width="118.8" height="4.8"/>
	<rect x="490.6" y="341.8" class="st1" width="118.8" height="4.8"/>
	<rect x="490.6" y="351.4" class="st1" width="118.8" height="4.8"/>
	<rect x="490.6" y="293.8" class="st2" width="47.5" height="33.7"/>
	<polygon class="st0" points="502.6,295.1 502.1,296.5 500.7,296.5 501.9,297.3 501.4,298.6 502.6,297.8 503.7,298.6 503.3,297.3 
		504.4,296.5 503,296.5 	"/>
	<polygon class="st0" points="510.4,295.1 510,296.5 508.6,296.5 509.7,297.3 509.3,298.6 510.4,297.8 511.6,298.6 511.1,297.3 
		512.3,296.5 510.9,296.5 	"/>
	<polygon class="st0" points="518.3,295.1 517.9,296.5 516.5,296.5 517.6,297.3 517.2,298.6 518.3,297.8 519.5,298.6 519,297.3 
		520.1,296.5 518.8,296.5 	"/>
	<polygon class="st0" points="526.2,295.1 525.8,296.5 524.4,296.5 525.5,297.3 525,298.6 526.2,297.8 527.3,298.6 526.9,297.3 
		528,296.5 526.6,296.5 	"/>
	<polygon class="st0" points="533.4,297.3 532.9,298.6 534.1,297.8 535.2,298.6 534.8,297.3 535.9,296.5 534.5,296.5 534.1,295.1 
		533.6,296.5 532.2,296.5 	"/>
	<polygon class="st0" points="498.6,298.5 498.2,299.9 496.8,299.9 497.9,300.7 497.5,302 498.6,301.2 499.8,302 499.3,300.7 
		500.5,299.9 499.1,299.9 	"/>
	<polygon class="st0" points="506.5,298.5 506.1,299.9 504.7,299.9 505.8,300.7 505.4,302 506.5,301.2 507.6,302 507.2,300.7 
		508.3,299.9 506.9,299.9 	"/>
	<path class="st0" d="M514.4,298.5l-0.4,1.3h-1.4l1.1,0.8l-0.4,1.3l1.1-0.8l1.1,0.8l-0.4-1.3l1.1-0.8h-1.4L514.4,298.5z
		 M514.4,300.5L514.4,300.5L514.4,300.5L514.4,300.5L514.4,300.5z"/>
	<polygon class="st0" points="522.2,298.5 521.8,299.9 520.4,299.9 521.5,300.7 521.1,302 522.2,301.2 523.4,302 523,300.7 
		524.1,299.9 522.7,299.9 	"/>
	<polygon class="st0" points="530.1,298.5 529.7,299.9 528.3,299.9 529.4,300.7 529,302 530.1,301.2 531.3,302 530.8,300.7 
		532,299.9 530.6,299.9 	"/>
	<polygon class="st0" points="494.7,301.9 494.2,303.2 492.9,303.2 494,304 493.5,305.4 494.7,304.6 495.8,305.4 495.4,304 
		496.5,303.2 495.1,303.2 	"/>
	<polygon class="st0" points="502.6,301.9 502.1,303.2 500.7,303.2 501.9,304 501.4,305.4 502.6,304.6 503.7,305.4 503.3,304 
		504.4,303.2 503,303.2 	"/>
	<polygon class="st0" points="510.4,301.9 510,303.2 508.6,303.2 509.7,304 509.3,305.4 510.4,304.6 511.6,305.4 511.1,304 
		512.3,303.2 510.9,303.2 	"/>
	<polygon class="st0" points="518.3,301.9 517.9,303.2 516.5,303.2 517.6,304 517.2,305.4 518.3,304.6 519.5,305.4 519,304 
		520.1,303.2 518.8,303.2 	"/>
	<polygon class="st0" points="526.2,301.9 525.8,303.2 524.4,303.2 525.5,304 525,305.4 526.2,304.6 527.3,305.4 526.9,304 
		528,303.2 526.6,303.2 	"/>
	<polygon class="st0" points="534.1,301.9 533.6,303.2 532.2,303.2 533.4,304 532.9,305.4 534.1,304.6 535.2,305.4 534.8,304 
		535.9,303.2 534.5,303.2 	"/>
	<polygon class="st0" points="498.6,305.3 498.2,306.6 496.8,306.6 497.9,307.4 497.5,308.8 498.6,307.9 499.8,308.8 499.3,307.4 
		500.5,306.6 499.1,306.6 	"/>
	<polygon class="st0" points="506.5,305.3 506.1,306.6 504.7,306.6 505.8,307.4 505.4,308.8 506.5,307.9 507.6,308.8 507.2,307.4 
		508.3,306.6 506.9,306.6 	"/>
	<path class="st0" d="M514.4,305.3l-0.4,1.3h-1.4l1.1,0.8l-0.4,1.3l1.1-0.8l1.1,0.8l-0.4-1.3l1.1-0.8h-1.4L514.4,305.3z
		 M514.4,307.2L514.4,307.2L514.4,307.2L514.4,307.2z"/>
	<polygon class="st0" points="522.2,305.3 521.8,306.6 520.4,306.6 521.5,307.4 521.1,308.8 522.2,307.9 523.4,308.8 523,307.4 
		524.1,306.6 522.7,306.6 	"/>
	<polygon class="st0" points="530.1,305.3 529.7,306.6 528.3,306.6 529.4,307.4 529,308.8 530.1,307.9 531.3,308.8 530.8,307.4 
		532,306.6 530.6,306.6 	"/>
	<polygon class="st0" points="494.7,308.6 494.2,310 492.9,310 494,310.8 493.5,312.1 494.7,311.3 495.8,312.1 495.4,310.8 
		496.5,310 495.1,310 	"/>
	<polygon class="st0" points="502.6,308.6 502.1,310 500.7,310 501.9,310.8 501.4,312.1 502.6,311.3 503.7,312.1 503.3,310.8 
		504.4,310 503,310 	"/>
	<polygon class="st0" points="510.4,308.6 510,310 508.6,310 509.7,310.8 509.3,312.1 510.4,311.3 511.6,312.1 511.1,310.8 
		512.3,310 510.9,310 	"/>
	<polygon class="st0" points="518.3,308.6 517.9,310 516.5,310 517.6,310.8 517.2,312.1 518.3,311.3 519.5,312.1 519,310.8 
		520.1,310 518.8,310 	"/>
	<polygon class="st0" points="526.2,308.6 525.8,310 524.4,310 525.5,310.8 525,312.1 526.2,311.3 527.3,312.1 526.9,310.8 528,310 
		526.6,310 	"/>
	<polygon class="st0" points="534.1,308.6 533.6,310 532.2,310 533.4,310.8 532.9,312.1 534.1,311.3 535.2,312.1 534.8,310.8 
		535.9,310 534.5,310 	"/>
	<polygon class="st0" points="498.6,312 498.2,313.4 496.8,313.4 497.9,314.2 497.5,315.5 498.6,314.7 499.8,315.5 499.3,314.2 
		500.5,313.4 499.1,313.4 	"/>
	<polygon class="st0" points="506.5,312 506.1,313.4 504.7,313.4 505.8,314.2 505.4,315.5 506.5,314.7 507.6,315.5 507.2,314.2 
		508.3,313.4 506.9,313.4 	"/>
	<polygon class="st0" points="514.4,312 513.9,313.4 512.5,313.4 513.7,314.2 513.2,315.5 514.4,314.7 515.5,315.5 515.1,314.2 
		516.2,313.4 514.8,313.4 	"/>
	<polygon class="st0" points="522.2,312 521.8,313.4 520.4,313.4 521.5,314.2 521.1,315.5 522.2,314.7 523.4,315.5 523,314.2 
		524.1,313.4 522.7,313.4 	"/>
	<polygon class="st0" points="530.1,312 529.7,313.4 528.3,313.4 529.4,314.2 529,315.5 530.1,314.7 531.3,315.5 530.8,314.2 
		532,313.4 530.6,313.4 	"/>
	<path class="st0" d="M494.7,315.4l-0.4,1.3h-1.4l1.1,0.8l-0.4,1.3l1.1-0.8l1.1,0.8l-0.4-1.3l1.1-0.8h-1.4L494.7,315.4z
		 M494.7,317.3L494.7,317.3L494.7,317.3L494.7,317.3L494.7,317.3z"/>
	<polygon class="st0" points="502.6,315.4 502.1,316.7 500.7,316.7 501.9,317.5 501.4,318.9 502.6,318.1 503.7,318.9 503.3,317.5 
		504.4,316.7 503,316.7 	"/>
	<polygon class="st0" points="510.4,315.4 510,316.7 508.6,316.7 509.7,317.5 509.3,318.9 510.4,318.1 511.6,318.9 511.1,317.5 
		512.3,316.7 510.9,316.7 	"/>
	<polygon class="st0" points="518.3,315.4 517.9,316.7 516.5,316.7 517.6,317.5 517.2,318.9 518.3,318.1 519.5,318.9 519,317.5 
		520.1,316.7 518.8,316.7 	"/>
	<polygon class="st0" points="526.2,315.4 525.8,316.7 524.4,316.7 525.5,317.5 525,318.9 526.2,318.1 527.3,318.9 526.9,317.5 
		528,316.7 526.6,316.7 	"/>
	<polygon class="st0" points="534.1,315.4 533.6,316.7 532.2,316.7 533.4,317.5 532.9,318.9 534.1,318.1 535.2,318.9 534.8,317.5 
		535.9,316.7 534.5,316.7 	"/>
	<polygon class="st0" points="499.1,320.1 498.6,318.8 498.2,320.1 496.8,320.1 497.9,320.9 497.5,322.3 498.6,321.4 499.8,322.3 
		499.3,320.9 500.5,320.1 	"/>
	<polygon class="st0" points="506.9,320.1 506.5,318.8 506.1,320.1 504.7,320.1 505.8,320.9 505.4,322.3 506.5,321.4 507.6,322.3 
		507.2,320.9 508.3,320.1 	"/>
	<polygon class="st0" points="514.8,320.1 514.4,318.8 513.9,320.1 512.5,320.1 513.7,320.9 513.2,322.3 514.4,321.4 515.5,322.3 
		515.1,320.9 516.2,320.1 	"/>
	<polygon class="st0" points="522.7,320.1 522.2,318.8 521.8,320.1 520.4,320.1 521.5,320.9 521.1,322.3 522.2,321.4 523.4,322.3 
		523,320.9 524.1,320.1 	"/>
	<polygon class="st0" points="530.6,320.1 530.1,318.8 529.7,320.1 528.3,320.1 529.4,320.9 529,322.3 530.1,321.4 531.3,322.3 
		530.8,320.9 532,320.1 	"/>
	<path class="st0" d="M495.1,323.5l-0.4-1.3l-0.4,1.3h-1.4l1.1,0.8l-0.4,1.3l1.1-0.8l1.1,0.8l-0.4-1.3l1.1-0.8H495.1z M494.7,324.1
		L494.7,324.1L494.7,324.1L494.7,324.1z"/>
	<polygon class="st0" points="503,323.5 502.6,322.1 502.1,323.5 500.7,323.5 501.9,324.3 501.4,325.6 502.6,324.8 503.7,325.6 
		503.3,324.3 504.4,323.5 	"/>
	<polygon class="st0" points="510.9,323.5 510.4,322.1 510,323.5 508.6,323.5 509.7,324.3 509.3,325.6 510.4,324.8 511.6,325.6 
		511.1,324.3 512.3,323.5 	"/>
	<polygon class="st0" points="518.8,323.5 518.3,322.1 517.9,323.5 516.5,323.5 517.6,324.3 517.2,325.6 518.3,324.8 519.5,325.6 
		519,324.3 520.1,323.5 	"/>
	<polygon class="st0" points="526.6,323.5 526.2,322.1 525.8,323.5 524.4,323.5 525.5,324.3 525,325.6 526.2,324.8 527.3,325.6 
		526.9,324.3 528,323.5 	"/>
	<polygon class="st0" points="534.5,323.5 534.1,322.1 533.6,323.5 532.2,323.5 533.4,324.3 532.9,325.6 534.1,324.8 535.2,325.6 
		534.8,324.3 535.9,323.5 	"/>
	<polygon class="st0" points="494.7,295.1 494.2,296.5 492.9,296.5 494,297.3 493.5,298.6 494.7,297.8 495.8,298.6 495.4,297.3 
		496.5,296.5 495.1,296.5 	"/>
</g>
<g id="Layer_2_1_">
	<g>
		<path class="st3" d="M1098,2v646H2V2H1098 M1100,0H0v650h1100V0L1100,0z"/>
	</g>
</g>
</svg>
