<?xml version="1.0" encoding="utf-8"?>
<!-- Generator: Adobe Illustrator 22.1.0, SVG Export Plug-In . SVG Version: 6.00 Build 0)  -->
<svg version="1.1" id="Layer_1" xmlns="http://www.w3.org/2000/svg" xmlns:xlink="http://www.w3.org/1999/xlink" x="0px" y="0px"
	 viewBox="0 0 1100 650" style="enable-background:new 0 0 1100 650;" xml:space="preserve">
<style type="text/css">
	.st0{fill:#FFFFFF;}
	.st1{fill:#CD2031;}
	.st2{fill:#243672;}
	.st3{fill:#333333;}
</style>
<g id="Layer_1_1_">
	<rect x="-3250" y="-1675" class="st0" width="7600" height="4000"/>
	<rect x="-3250" y="-1675" class="st1" width="7600" height="308"/>
	<rect x="-3250" y="-1059.8" class="st1" width="7600" height="308"/>
	<rect x="-3250" y="-444.6" class="st1" width="7600" height="308"/>
	<rect x="-3250" y="171.4" class="st1" width="7600" height="308"/>
	<rect x="-3250" y="786.6" class="st1" width="7600" height="308"/>
	<rect x="-3250" y="1401.8" class="st1" width="7600" height="308"/>
	<rect x="-3250" y="2017" class="st1" width="7600" height="308"/>
	<rect x="-3250" y="-1675" class="st2" width="3040" height="2153.6"/>
	<polygon class="st0" points="-2486,-1585.4 -2514,-1499.8 -2602.8,-1499.8 -2530.8,-1447.8 -2558.8,-1362.2 -2486,-1415 
		-2413.2,-1362.2 -2441.2,-1447.8 -2369.2,-1499.8 -2458,-1499.8 	"/>
	<polygon class="st0" points="-1982,-1585.4 -2010,-1499.8 -2098.8,-1499.8 -2026.8,-1447.8 -2054.8,-1362.2 -1982,-1415 
		-1909.2,-1362.2 -1937.2,-1447.8 -1865.2,-1499.8 -1954,-1499.8 	"/>
	<polygon class="st0" points="-1478,-1585.4 -1506,-1499.8 -1594.8,-1499.8 -1522.8,-1447.8 -1550.8,-1362.2 -1478,-1415 
		-1405.2,-1362.2 -1433.2,-1447.8 -1361.2,-1499.8 -1450,-1499.8 	"/>
	<polygon class="st0" points="-974,-1585.4 -1002,-1499.8 -1090.8,-1499.8 -1018.8,-1447.8 -1046.8,-1362.2 -974,-1415 
		-901.2,-1362.2 -929.2,-1447.8 -857.2,-1499.8 -946,-1499.8 	"/>
	<polygon class="st0" points="-514.8,-1447.8 -542.8,-1362.2 -470,-1415 -397.2,-1362.2 -425.2,-1447.8 -353.2,-1499.8 
		-442,-1499.8 -470,-1585.4 -498,-1499.8 -586.8,-1499.8 	"/>
	<polygon class="st0" points="-2738,-1369.4 -2766,-1283.8 -2854.8,-1283.8 -2782.8,-1231.8 -2810.8,-1146.2 -2738,-1199 
		-2665.2,-1146.2 -2693.2,-1231.8 -2621.2,-1283.8 -2710,-1283.8 	"/>
	<polygon class="st0" points="-2234,-1369.4 -2262,-1283.8 -2350.8,-1283.8 -2278.8,-1231.8 -2306.8,-1146.2 -2234,-1199 
		-2161.2,-1146.2 -2189.2,-1231.8 -2117.2,-1283.8 -2206,-1283.8 	"/>
	<path class="st0" d="M-1730-1369.4l-28,84.8h-89.6l72.8,52.8l-28,84.8l72.8-52.8l72.8,52.8l-28-84.8l72.8-52.8h-89.6L-1730-1369.4z
		 M-1730-1246.2L-1730-1246.2L-1730-1246.2L-1730-1246.2L-1730-1246.2z"/>
	<polygon class="st0" points="-1226,-1369.4 -1254,-1283.8 -1342.8,-1283.8 -1270.8,-1231.8 -1298.8,-1146.2 -1226,-1199 
		-1153.2,-1146.2 -1181.2,-1231.8 -1109.2,-1283.8 -1198,-1283.8 	"/>
	<polygon class="st0" points="-722,-1369.4 -750,-1283.8 -838.8,-1283.8 -766.8,-1231.8 -794.8,-1146.2 -722,-1199 -649.2,-1146.2 
		-677.2,-1231.8 -605.2,-1283.8 -694,-1283.8 	"/>
	<polygon class="st0" points="-2990,-1153.4 -3018,-1067.8 -3106.8,-1067.8 -3034.8,-1015.8 -3062.8,-930.2 -2990,-983 
		-2917.2,-930.2 -2945.2,-1015.8 -2873.2,-1067.8 -2962,-1067.8 	"/>
	<polygon class="st0" points="-2486,-1153.4 -2514,-1067.8 -2602.8,-1067.8 -2530.8,-1015.8 -2558.8,-930.2 -2486,-983 
		-2413.2,-930.2 -2441.2,-1015.8 -2369.2,-1067.8 -2458,-1067.8 	"/>
	<polygon class="st0" points="-1982,-1153.4 -2010,-1067.8 -2098.8,-1067.8 -2026.8,-1015.8 -2054.8,-930.2 -1982,-983 
		-1909.2,-930.2 -1937.2,-1015.8 -1865.2,-1067.8 -1954,-1067.8 	"/>
	<polygon class="st0" points="-1478,-1153.4 -1506,-1067.8 -1594.8,-1067.8 -1522.8,-1015.8 -1550.8,-930.2 -1478,-983 
		-1405.2,-930.2 -1433.2,-1015.8 -1361.2,-1067.8 -1450,-1067.8 	"/>
	<polygon class="st0" points="-974,-1153.4 -1002,-1067.8 -1090.8,-1067.8 -1018.8,-1015.8 -1046.8,-930.2 -974,-983 -901.2,-930.2 
		-929.2,-1015.8 -857.2,-1067.8 -946,-1067.8 	"/>
	<polygon class="st0" points="-470,-1153.4 -498,-1067.8 -586.8,-1067.8 -514.8,-1015.8 -542.8,-930.2 -470,-983 -397.2,-930.2 
		-425.2,-1015.8 -353.2,-1067.8 -442,-1067.8 	"/>
	<polygon class="st0" points="-2738,-937.4 -2766,-851.8 -2854.8,-851.8 -2782.8,-799.8 -2810.8,-714.2 -2738,-767 -2665.2,-714.2 
		-2693.2,-799.8 -2621.2,-851.8 -2710,-851.8 	"/>
	<polygon class="st0" points="-2234,-937.4 -2262,-851.8 -2350.8,-851.8 -2278.8,-799.8 -2306.8,-714.2 -2234,-767 -2161.2,-714.2 
		-2189.2,-799.8 -2117.2,-851.8 -2206,-851.8 	"/>
	<path class="st0" d="M-1730-937.4l-28,84.8h-89.6l72.8,52.8l-28,84.8l72.8-52.8l72.8,52.8l-28-84.8l72.8-52.8h-89.6L-1730-937.4z
		 M-1730-814.2L-1730-814.2L-1730-814.2L-1730-814.2z"/>
	<polygon class="st0" points="-1226,-937.4 -1254,-851.8 -1342.8,-851.8 -1270.8,-799.8 -1298.8,-714.2 -1226,-767 -1153.2,-714.2 
		-1181.2,-799.8 -1109.2,-851.8 -1198,-851.8 	"/>
	<polygon class="st0" points="-722,-937.4 -750,-851.8 -838.8,-851.8 -766.8,-799.8 -794.8,-714.2 -722,-767 -649.2,-714.2 
		-677.2,-799.8 -605.2,-851.8 -694,-851.8 	"/>
	<polygon class="st0" points="-2990,-721.4 -3018,-635.8 -3106.8,-635.8 -3034.8,-583.8 -3062.8,-498.2 -2990,-551 -2917.2,-498.2 
		-2945.2,-583.8 -2873.2,-635.8 -2962,-635.8 	"/>
	<polygon class="st0" points="-2486,-721.4 -2514,-635.8 -2602.8,-635.8 -2530.8,-583.8 -2558.8,-498.2 -2486,-551 -2413.2,-498.2 
		-2441.2,-583.8 -2369.2,-635.8 -2458,-635.8 	"/>
	<polygon class="st0" points="-1982,-721.4 -2010,-635.8 -2098.8,-635.8 -2026.8,-583.8 -2054.8,-498.2 -1982,-551 -1909.2,-498.2 
		-1937.2,-583.8 -1865.2,-635.8 -1954,-635.8 	"/>
	<polygon class="st0" points="-1478,-721.4 -1506,-635.8 -1594.8,-635.8 -1522.8,-583.8 -1550.8,-498.2 -1478,-551 -1405.2,-498.2 
		-1433.2,-583.8 -1361.2,-635.8 -1450,-635.8 	"/>
	<polygon class="st0" points="-974,-721.4 -1002,-635.8 -1090.8,-635.8 -1018.8,-583.8 -1046.8,-498.2 -974,-551 -901.2,-498.2 
		-929.2,-583.8 -857.2,-635.8 -946,-635.8 	"/>
	<polygon class="st0" points="-470,-721.4 -498,-635.8 -586.8,-635.8 -514.8,-583.8 -542.8,-498.2 -470,-551 -397.2,-498.2 
		-425.2,-583.8 -353.2,-635.8 -442,-635.8 	"/>
	<polygon class="st0" points="-2738,-505.4 -2766,-419.8 -2854.8,-419.8 -2782.8,-367.8 -2810.8,-282.2 -2738,-335 -2665.2,-282.2 
		-2693.2,-367.8 -2621.2,-419.8 -2710,-419.8 	"/>
	<polygon class="st0" points="-2234,-505.4 -2262,-419.8 -2350.8,-419.8 -2278.8,-367.8 -2306.8,-282.2 -2234,-335 -2161.2,-282.2 
		-2189.2,-367.8 -2117.2,-419.8 -2206,-419.8 	"/>
	<polygon class="st0" points="-1730,-505.4 -1758,-419.8 -1846.8,-419.8 -1774.8,-367.8 -1802.8,-282.2 -1730,-335 -1657.2,-282.2 
		-1685.2,-367.8 -1613.2,-419.8 -1702,-419.8 	"/>
	<polygon class="st0" points="-1226,-505.4 -1254,-419.8 -1342.8,-419.8 -1270.8,-367.8 -1298.8,-282.2 -1226,-335 -1153.2,-282.2 
		-1181.2,-367.8 -1109.2,-419.8 -1198,-419.8 	"/>
	<polygon class="st0" points="-722,-505.4 -750,-419.8 -838.8,-419.8 -766.8,-367.8 -794.8,-282.2 -722,-335 -649.2,-282.2 
		-677.2,-367.8 -605.2,-419.8 -694,-419.8 	"/>
	<path class="st0" d="M-2990-289.4l-28,84.8h-88.8l72.8,52.8l-28,84.8l72.8-52.8l72.8,52.8l-28-84.8l72.8-52.8h-90.4L-2990-289.4z
		 M-2990-166.2L-2990-166.2L-2990-166.2L-2990-166.2L-2990-166.2z"/>
	<polygon class="st0" points="-2486,-289.4 -2514,-203.8 -2602.8,-203.8 -2530.8,-151.8 -2558.8,-66.2 -2486,-119 -2413.2,-66.2 
		-2441.2,-151.8 -2369.2,-203.8 -2458,-203.8 	"/>
	<polygon class="st0" points="-1982,-289.4 -2010,-203.8 -2098.8,-203.8 -2026.8,-151.8 -2054.8,-66.2 -1982,-119 -1909.2,-66.2 
		-1937.2,-151.8 -1865.2,-203.8 -1954,-203.8 	"/>
	<polygon class="st0" points="-1478,-289.4 -1506,-203.8 -1594.8,-203.8 -1522.8,-151.8 -1550.8,-66.2 -1478,-119 -1405.2,-66.2 
		-1433.2,-151.8 -1361.2,-203.8 -1450,-203.8 	"/>
	<polygon class="st0" points="-974,-289.4 -1002,-203.8 -1090.8,-203.8 -1018.8,-151.8 -1046.8,-66.2 -974,-119 -901.2,-66.2 
		-929.2,-151.8 -857.2,-203.8 -946,-203.8 	"/>
	<polygon class="st0" points="-470,-289.4 -498,-203.8 -586.8,-203.8 -514.8,-151.8 -542.8,-66.2 -470,-119 -397.2,-66.2 
		-425.2,-151.8 -353.2,-203.8 -442,-203.8 	"/>
	<polygon class="st0" points="-2710,12.2 -2738,-73.4 -2766,12.2 -2854.8,12.2 -2782.8,64.2 -2810.8,149.8 -2738,97 -2665.2,149.8 
		-2693.2,64.2 -2621.2,12.2 	"/>
	<polygon class="st0" points="-2206,12.2 -2234,-73.4 -2262,12.2 -2350.8,12.2 -2278.8,64.2 -2306.8,149.8 -2234,97 -2161.2,149.8 
		-2189.2,64.2 -2117.2,12.2 	"/>
	<polygon class="st0" points="-1702,12.2 -1730,-73.4 -1758,12.2 -1846.8,12.2 -1774.8,64.2 -1802.8,149.8 -1730,97 -1657.2,149.8 
		-1685.2,64.2 -1613.2,12.2 	"/>
	<polygon class="st0" points="-1198,12.2 -1226,-73.4 -1254,12.2 -1342.8,12.2 -1270.8,64.2 -1298.8,149.8 -1226,97 -1153.2,149.8 
		-1181.2,64.2 -1109.2,12.2 	"/>
	<polygon class="st0" points="-694,12.2 -722,-73.4 -750,12.2 -838.8,12.2 -766.8,64.2 -794.8,149.8 -722,97 -649.2,149.8 
		-677.2,64.2 -605.2,12.2 	"/>
	<path class="st0" d="M-2962,228.2l-28-84.8l-28,84.8h-88.8l72.8,52.8l-28,84.8l72.8-52.8l72.8,52.8l-28-84.8l72.8-52.8H-2962z
		 M-2990,265.8L-2990,265.8L-2990,265.8L-2990,265.8z"/>
	<polygon class="st0" points="-2458,228.2 -2486,142.6 -2514,228.2 -2602.8,228.2 -2530.8,280.2 -2558.8,365.8 -2486,313 
		-2413.2,365.8 -2441.2,280.2 -2369.2,228.2 	"/>
	<polygon class="st0" points="-1954,228.2 -1982,142.6 -2010,228.2 -2098.8,228.2 -2026.8,280.2 -2054.8,365.8 -1982,313 
		-1909.2,365.8 -1937.2,280.2 -1865.2,228.2 	"/>
	<polygon class="st0" points="-1450,228.2 -1478,142.6 -1506,228.2 -1594.8,228.2 -1522.8,280.2 -1550.8,365.8 -1478,313 
		-1405.2,365.8 -1433.2,280.2 -1361.2,228.2 	"/>
	<polygon class="st0" points="-946,228.2 -974,142.6 -1002,228.2 -1090.8,228.2 -1018.8,280.2 -1046.8,365.8 -974,313 -901.2,365.8 
		-929.2,280.2 -857.2,228.2 	"/>
	<polygon class="st0" points="-442,228.2 -470,142.6 -498,228.2 -586.8,228.2 -514.8,280.2 -542.8,365.8 -470,313 -397.2,365.8 
		-425.2,280.2 -353.2,228.2 	"/>
	<polygon class="st0" points="-2990,-1585.4 -3018,-1499.8 -3106.8,-1499.8 -3034.8,-1447.8 -3062.8,-1362.2 -2990,-1415 
		-2917.2,-1362.2 -2945.2,-1447.8 -2873.2,-1499.8 -2962,-1499.8 	"/>
</g>
<g id="Layer_2_1_">
	<g>
		<path class="st3" d="M1098,2v646H2V2H1098 M1100,0H0v650h1100V0L1100,0z"/>
	</g>
</g>
</svg>
