<?xml version="1.0" encoding="utf-8"?>
<!-- Generator: Adobe Illustrator 22.1.0, SVG Export Plug-In . SVG Version: 6.00 Build 0)  -->
<svg version="1.1" id="Layer_1" xmlns="http://www.w3.org/2000/svg" xmlns:xlink="http://www.w3.org/1999/xlink" x="0px" y="0px"
	 viewBox="0 0 1100 650" style="enable-background:new 0 0 1100 650;" xml:space="preserve">
<style type="text/css">
	.st0{fill:#F7F7F7;}
	.st1{fill:#333333;}
	.st2{fill:#FFFFFF;}
	.st3{fill:#CD2031;}
	.st4{fill:none;}
</style>
<g id="Layer_2_1_">
	<g>
		<rect x="1" y="1" class="st0" width="1098" height="648"/>
		<path class="st1" d="M1098,2v646H2V2H1098 M1100,0H0v650h1100V0L1100,0z"/>
	</g>
</g>
<rect x="550" y="75" class="st2" width="475" height="500"/>
<g id="Layer_1_2_">
	<g id="Layer_1_1_">
		<g>
			<rect x="550" y="75" class="st3" width="475" height="38.5"/>
			<rect x="550" y="151.9" class="st3" width="475" height="38.5"/>
			<rect x="550" y="228.8" class="st3" width="475" height="38.5"/>
			<rect x="550" y="305.8" class="st3" width="475" height="38.5"/>
			<rect x="550" y="382.7" class="st3" width="475" height="38.5"/>
			<rect x="550" y="536.5" class="st3" width="475" height="38.5"/>
			<rect x="550" y="459.6" class="st3" width="475" height="38.5"/>
			<line class="st4" x1="550" y1="305.8" x2="550" y2="267.3"/>
			<line class="st4" x1="550" y1="228.8" x2="550" y2="190.4"/>
			<line class="st4" x1="550" y1="382.7" x2="550" y2="344.2"/>
			<line class="st4" x1="550" y1="536.5" x2="550" y2="498.1"/>
			<line class="st4" x1="550" y1="459.6" x2="550" y2="421.2"/>
			<line class="st4" x1="550" y1="151.9" x2="550" y2="113.5"/>
			<line class="st4" x1="550" y1="113.5" x2="550" y2="75"/>
			<line class="st4" x1="550" y1="190.4" x2="550" y2="151.9"/>
			<line class="st4" x1="550" y1="267.3" x2="550" y2="228.8"/>
			<line class="st4" x1="550" y1="344.2" x2="550" y2="305.8"/>
			<line class="st4" x1="550" y1="421.2" x2="550" y2="382.7"/>
			<line class="st4" x1="550" y1="575" x2="550" y2="536.5"/>
			<line class="st4" x1="550" y1="498.1" x2="550" y2="459.6"/>
		</g>
	</g>
</g>
</svg>
