<?xml version="1.0" encoding="utf-8"?>
<!-- Generator: Adobe Illustrator 22.1.0, SVG Export Plug-In . SVG Version: 6.00 Build 0)  -->
<svg version="1.1" id="Layer_1" xmlns="http://www.w3.org/2000/svg" xmlns:xlink="http://www.w3.org/1999/xlink" x="0px" y="0px"
	 viewBox="0 0 1100 650" style="enable-background:new 0 0 1100 650;" xml:space="preserve">
<style type="text/css">
	.st0{fill:#F7F7F7;}
	.st1{fill:#333333;}
	.st2{fill:#FFFFFF;}
	.st3{fill:#CD2031;}
	.st4{fill:#243672;}
</style>
<g id="Layer_2_1_">
	<g>
		<rect x="1" y="1" class="st0" width="1098" height="648"/>
		<path class="st1" d="M1098,2v646H2V2H1098 M1100,0H0v650h1100V0L1100,0z"/>
	</g>
</g>
<rect x="75" y="325" class="st2" width="950" height="250"/>
<g id="Layer_1_2_">
	<g id="Layer_1_1_">
		<g>
			<rect x="455" y="325" class="st3" width="570" height="19.2"/>
			<rect x="75" y="382.7" class="st3" width="950" height="38.5"/>
			<rect x="75" y="536.5" class="st3" width="950" height="38.5"/>
			<polygon class="st4" points="429.9,325 431.6,330.1 424.6,325 420.4,325 413.4,330.1 415.1,325 366.9,325 368.6,330.1 361.6,325 
				357.4,325 350.4,330.1 352.1,325 303.9,325 305.6,330.1 298.6,325 294.4,325 287.4,330.1 289.1,325 240.9,325 242.6,330.1 
				235.6,325 231.4,325 224.4,330.1 226.1,325 177.9,325 179.6,330.1 172.6,325 168.4,325 161.4,330.1 163.1,325 114.9,325 
				116.6,330.1 109.6,325 105.4,325 98.4,330.1 100.1,325 75,325 75,344.2 455,344.2 455,325 			"/>
			<polygon class="st2" points="98.4,330.1 105.4,325 100.1,325 			"/>
			<polygon class="st2" points="116.6,330.1 114.9,325 109.6,325 			"/>
			<polygon class="st2" points="161.4,330.1 168.4,325 163.1,325 			"/>
			<polygon class="st2" points="179.6,330.1 177.9,325 172.6,325 			"/>
			<polygon class="st2" points="242.6,330.1 240.9,325 235.6,325 			"/>
			<polygon class="st2" points="224.4,330.1 231.4,325 226.1,325 			"/>
			<polygon class="st2" points="287.4,330.1 294.4,325 289.1,325 			"/>
			<polygon class="st2" points="305.6,330.1 303.9,325 298.6,325 			"/>
			<polygon class="st2" points="368.6,330.1 366.9,325 361.6,325 			"/>
			<polygon class="st2" points="350.4,330.1 357.4,325 352.1,325 			"/>
			<polygon class="st2" points="413.4,330.1 420.4,325 415.1,325 			"/>
			<polygon class="st2" points="431.6,330.1 429.9,325 424.6,325 			"/>
			<rect x="75" y="459.6" class="st3" width="950" height="38.5"/>
			<polygon class="st2" points="357.4,325 361.6,325 359.5,323.5 			"/>
			<polygon class="st2" points="231.4,325 235.6,325 233.5,323.5 			"/>
			<polygon class="st2" points="294.4,325 298.6,325 296.5,323.5 			"/>
			<polygon class="st2" points="420.4,325 424.6,325 422.5,323.5 			"/>
			<polygon class="st2" points="105.4,325 109.6,325 107.5,323.5 			"/>
			<polygon class="st2" points="168.4,325 172.6,325 170.5,323.5 			"/>
			<path class="st2" d="M107.5,317.6L107.5,317.6L107.5,317.6L107.5,317.6L107.5,317.6z"/>
		</g>
	</g>
</g>
</svg>
