<?xml version="1.0" encoding="utf-8"?>
<!-- Generator: Adobe Illustrator 22.1.0, SVG Export Plug-In . SVG Version: 6.00 Build 0)  -->
<svg version="1.1" id="Layer_1" xmlns="http://www.w3.org/2000/svg" xmlns:xlink="http://www.w3.org/1999/xlink" x="0px" y="0px"
	 viewBox="0 0 1100 650" style="enable-background:new 0 0 1100 650;" xml:space="preserve">
<style type="text/css">
	.st0{fill:#333333;}
	.st1{fill:#F7F7F7;}
	.st2{fill:#FFFFFF;}
	.st3{fill:#CD2031;}
	.st4{fill:#243672;}
</style>
<g id="Layer_2_1_">
	<g>
		<path class="st0" d="M1098,2v646H2V2H1098 M1100,0H0v650h1100V0L1100,0z"/>
		<rect x="1" y="1" class="st1" width="1098" height="648"/>
	</g>
</g>
<rect x="75" y="75" class="st2" width="946" height="500"/>
<g id="Layer_1_2_">
	<g id="Layer_1_1_">
		<g>
			<path class="st3" d="M550,75h-95v18.7C484.3,81.7,516.4,75,550,75z"/>
			<path class="st3" d="M1025,75H550c49,0,94.7,14.1,133.3,38.5H1025V75z"/>
			<path class="st3" d="M1025,190.4v-38.5H730.4c11.3,11.8,21.5,24.7,30.3,38.5H1025z"/>
			<path class="st3" d="M1025,267.3v-38.5H780.8c5.2,12.4,9.3,25.2,12.5,38.5H1025z"/>
			<path class="st3" d="M799.3,344.2H1025v-38.5H799.3c0.5,6.3,0.7,12.8,0.7,19.2S799.8,337.9,799.3,344.2z"/>
			<path class="st3" d="M75,382.7v38.5h244.2c-5.2-12.4-9.3-25.2-12.5-38.5H75z"/>
			<path class="st3" d="M1025,421.2v-38.5H793.3c-3.1,13.3-7.3,26.1-12.5,38.5H1025z"/>
			<path class="st3" d="M1025,575v-38.5H683.3C644.7,560.9,599,575,550,575H1025z"/>
			<path class="st3" d="M75,536.5V575h475c-49,0-94.7-14.1-133.3-38.5H75z"/>
			<path class="st4" d="M139,221.2l2.5,7.6h58l2.5-7.6l2.5,7.6h58l2.5-7.6l2.5,7.6h51.7c4.9-11.9,10.8-23.3,17.4-34.1l-6-4.4h-5.2
				l-6.5,4.7l1.5-4.7h-47.9l1.5,4.7l-6.5-4.7h-5.2l-6.5,4.7l1.5-4.7h-47.9l1.5,4.7l-6.5-4.7h-5.2l-6.5,4.7l1.5-4.7h-47.9l1.5,4.7
				l-6.5-4.7h-5.2l-6.5,4.7l1.5-4.7H75v38.5h61.5L139,221.2z M293,204.9l3.5-10.6l3.5,10.6h11.2l-9.1,6.6l3.5,10.6l-9.1-6.6
				l-9.1,6.6l3.5-10.6l-9.1-6.6H293z M230,204.9l3.5-10.6l3.5,10.6h11.2l-9.1,6.6l3.5,10.6l-9.1-6.6l-9.1,6.6l3.5-10.6l-9.1-6.6H230
				z M167,204.9l3.5-10.6l3.5,10.6h11.2l-9.1,6.6l3.5,10.6l-9.1-6.6l-9.1,6.6l3.5-10.6l-9.1-6.6H167z M116.6,222.1l-9.1-6.6
				l-9.1,6.6l3.5-10.6l-9.1-6.6H104l3.5-10.6l3.5,10.6h11.2l-9.1,6.6L116.6,222.1z"/>
			<path class="st4" d="M339.3,190.4h-3.8l1.3,4C337.6,193,338.5,191.7,339.3,190.4z"/>
			<path class="st4" d="M92.9,150.9H104l3.5-10.6l3.5,10.6h11.2l-1.5,1.1h36.6l-1.5-1.1H167l3.5-10.6l3.5,10.6h11.2l-1.5,1.1h36.6
				l-1.5-1.1H230l3.5-10.6l3.5,10.6h11.2l-1.5,1.1h36.6l-1.5-1.1H293l3.5-10.6l3.5,10.6h11.2l-1.5,1.1h36.6l-1.5-1.1H356l3.5-10.6
				l3.5,10.6h7.7c3.8-3.9,7.8-7.7,11.8-11.4l2.9-9l-9.1-6.6h11.2l3.4-10.4h-22.6l0.2,0.6l-0.8-0.6h-16.4l-0.8,0.6l0.2-0.6h-22.6
				l3.4,10.4h11.2l-9.1,6.6l3.5,10.6l-9.1-6.6l-9.1,6.6l3.5-10.6l-9.1-6.6h11.2l3.4-10.4h-22.6l0.2,0.6l-0.8-0.6h-16.4l-0.8,0.6
				l0.2-0.6h-22.6l3.4,10.4h11.2l-9.1,6.6l3.5,10.6l-9.1-6.6l-9.1,6.6l3.5-10.6l-9.1-6.6h11.2l3.4-10.4h-22.6l0.2,0.6l-0.8-0.6
				h-16.4l-0.8,0.6l0.2-0.6h-22.6l3.4,10.4h11.2l-9.1,6.6l3.5,10.6l-9.1-6.6l-9.1,6.6l3.5-10.6l-9.1-6.6h11.2l3.4-10.4h-22.6
				l0.2,0.6l-0.8-0.6h-16.4l-0.8,0.6l0.2-0.6h-22.6l3.4,10.4h11.2l-9.1,6.6l3.5,10.6l-9.1-6.6l-9.1,6.6l3.5-10.6l-9.1-6.6h11.2
				l3.4-10.4h-22.6l0.2,0.6l-0.8-0.6H99.3l-0.8,0.6l0.2-0.6H75V152h19.3L92.9,150.9z"/>
			<path class="st4" d="M305.1,274.6c0.5-2.5,1.1-4.9,1.6-7.3h-4L305.1,274.6z"/>
			<path class="st4" d="M401.5,123.9c4.9-3.6,10-7.1,15.2-10.4h-2.4l-0.8,0.6l0.2-0.6h-22.6l3.4,10.4H401.5z"/>
			<path class="st4" d="M107.5,302.2l1.2,3.6h60.7l1.2-3.6l1.2,3.6h60.7l1.2-3.6l1.2,3.6h60.7l1.2-3.6l1.2,3.6h3.1
				c0.8-10.2,2.2-20.3,4.2-30.2l-8.4-6.1l-9.1,6.6l2.8-8.8H240l2.8,8.8l-9.1-6.6l-9.1,6.6l2.8-8.8h-50.6l2.8,8.8l-9.1-6.6l-9.1,6.6
				l2.8-8.8h-50.6l2.8,8.8l-9.1-6.6l-9.1,6.6l2.8-8.8H75v38.5h31.3L107.5,302.2z M261.5,285.9l3.5-10.6l3.5,10.6h11.2l-9.1,6.6
				l3.5,10.6l-9.1-6.6l-9.1,6.6l3.5-10.6l-9.1-6.6H261.5z M198.5,285.9l3.5-10.6l3.5,10.6h11.2l-9.1,6.6l3.5,10.6l-9.1-6.6l-9.1,6.6
				l3.5-10.6l-9.1-6.6H198.5z M135.5,285.9l3.5-10.6l3.5,10.6h11.2l-9.1,6.6l3.5,10.6l-9.1-6.6l-9.1,6.6l3.5-10.6l-9.1-6.6H135.5z"
				/>
			<polygon class="st4" points="99.3,113.5 115.7,113.5 107.5,107.5 			"/>
			<polygon class="st4" points="162.3,113.5 178.7,113.5 170.5,107.5 			"/>
			<polygon class="st4" points="351.3,113.5 367.7,113.5 359.5,107.5 			"/>
			<path class="st4" d="M101.9,103.4l-9.1-6.6H104l3.5-10.6l3.5,10.6h11.2l-9.1,6.6l3.3,10H139l0.1-0.2l0.1,0.2h22.6l3.3-10
				l-9.1-6.6h11l3.5-10.6l3.5,10.6h11.2l-9.1,6.6l3.3,10H202l0.1-0.2l0.1,0.2h22.6l3.3-10l-9.1-6.6h11l3.5-10.6l3.5,10.6h11.2
				l-9.1,6.6l3.3,10H265l0.1-0.2l0.1,0.2h22.6l3.3-10l-9.1-6.6h11l3.5-10.6l3.5,10.6h11.2l-9.1,6.6l3.3,10H328l0.1-0.2l0.1,0.2h22.6
				l3.3-10l-9.1-6.6h11l3.5-10.6l3.5,10.6h11.2l-9.1,6.6l3.3,10H391l0.1-0.2l0.1,0.2h22.6l3.3-10l-9.1-6.6h11l3.5-10.6l3.5,10.6
				h11.2l-9.1,6.6l0.9,2.8c8.4-4.6,17.1-8.8,26-12.5V75H75v38.5h23.6L101.9,103.4z"/>
			<path class="st4" d="M422.5,107.5l-8.2,6h2.4c2.5-1.6,5-3.1,7.6-4.6L422.5,107.5z"/>
			<polygon class="st4" points="225.3,113.5 241.7,113.5 233.5,107.5 			"/>
			<polygon class="st4" points="288.3,113.5 304.7,113.5 296.5,107.5 			"/>
			<polygon class="st4" points="325.4,190.4 330.6,190.4 328,188.5 			"/>
			<polygon class="st4" points="262.4,190.4 267.6,190.4 265,188.5 			"/>
			<path class="st4" d="M133.4,184.4l-9.1-6.6h11.2l3.5-10.6l3.5,10.6h11.2l-9.1,6.6l1.9,6h47.9l1.9-5.9l-9.1-6.6h11.2l3.5-10.6
				l3.5,10.6h11.2l-9.1,6.6l1.9,6h47.9l1.9-5.9l-9.1-6.6h11.2l3.5-10.6l3.5,10.6h11.2l-9.1,6.6l1.9,5.9h47.9l1.9-6l-9.1-6.6h11.2
				l3.5-10.6l3.5,10.6h11.2l-9.1,6.6l1.9,5.9h3.8c6.4-9.9,13.4-19.4,21-28.3l-0.9-0.6l-9.1,6.6l3.5-10.6l-7.6-5.5h-36.6l-7.6,5.5
				l3.5,10.6l-9.1-6.6l-9.1,6.6l3.5-10.6l-7.6-5.5h-36.6l-7.6,5.5l3.5,10.6l-9.1-6.6l-9.1,6.6l3.5-10.6l-7.6-5.5h-36.6l-7.6,5.5
				l3.5,10.6l-9.1-6.6l-9.1,6.6l3.5-10.6l-7.6-5.5h-36.6l-7.6,5.5l3.5,10.6l-9.1-6.6l-9.1,6.6l3.5-10.6l-7.6-5.5H75v38.5h56.5
				L133.4,184.4z"/>
			<polygon class="st4" points="136.4,190.4 141.6,190.4 139,188.5 			"/>
			<polygon class="st4" points="199.4,190.4 204.6,190.4 202,188.5 			"/>
			<path class="st4" d="M302.7,267.3h4c0.5-2.1,1-4.3,1.6-6.4l-6.2,4.5L302.7,267.3z"/>
			<path class="st4" d="M101.9,265.4l-9.1-6.6H104l3.5-10.6l3.5,10.6h11.2l-9.1,6.6l0.6,1.9h50.6l0.6-1.9l-9.1-6.6H167l3.5-10.6
				l3.5,10.6h11.2l-9.1,6.6l0.6,1.9h50.6l0.6-1.9l-9.1-6.6H230l3.5-10.6l3.5,10.6h11.2l-9.1,6.6l0.6,1.9h50.6l0.6-1.9l-9.1-6.6H293
				l3.5-10.6l3.5,10.6h8.9c2.3-8.3,5-16.5,8.1-24.4l-3.6-2.6h4.6c0.4-1,0.8-2,1.2-3h-51.7l1,3h11.2l-9.1,6.6l3.5,10.6l-9.1-6.6
				l-9.1,6.6l3.5-10.6l-9.1-6.6h11.2l1-3h-58l1,3h11.2l-9.1,6.6l3.5,10.6l-9.1-6.6l-9.1,6.6l3.5-10.6l-9.1-6.6h11.2l1-3h-58l1,3
				h11.2l-9.1,6.6l3.5,10.6l-9.1-6.6l-9.1,6.6l3.5-10.6l-9.1-6.6h11.2l1-3H75v38.5h26.3L101.9,265.4z"/>
			<path class="st4" d="M296.5,323.5l-9.1,6.6l3.5-10.6l-9.1-6.6H293l2.3-7.1h-60.7l2.3,7.1h11.2l-9.1,6.6l3.5,10.6l-9.1-6.6
				l-9.1,6.6l3.5-10.6l-9.1-6.6H230l2.3-7.1h-60.7l2.3,7.1h11.2l-9.1,6.6l3.5,10.6l-9.1-6.6l-9.1,6.6l3.5-10.6l-9.1-6.6H167l2.3-7.1
				h-60.7l2.3,7.1h11.2l-9.1,6.6l3.5,10.6l-9.1-6.6l-9.1,6.6l3.5-10.6l-9.1-6.6H104l2.3-7.1H75v38.5h225.7c-0.5-6-0.7-12.1-0.7-18.2
				L296.5,323.5z"/>
			<path class="st4" d="M300,312.9h0.3c0.1-2.4,0.3-4.7,0.4-7.1h-3.1L300,312.9z"/>
			<polygon class="st2" points="179.6,114.1 179.4,113.5 178.7,113.5 			"/>
			<polygon class="st2" points="161.4,114.1 162.3,113.5 161.6,113.5 			"/>
			<polygon class="st2" points="185.1,96.9 174,96.9 170.5,86.2 167,96.9 155.9,96.9 164.9,103.4 161.6,113.5 162.3,113.5 
				170.5,107.5 178.7,113.5 179.4,113.5 176.1,103.4 			"/>
			<polygon class="st2" points="224.4,114.1 225.3,113.5 224.6,113.5 			"/>
			<polygon class="st2" points="242.6,114.1 242.4,113.5 241.7,113.5 			"/>
			<polygon class="st2" points="248.1,96.9 237,96.9 233.5,86.2 230,96.9 218.9,96.9 227.9,103.4 224.6,113.5 225.3,113.5 
				233.5,107.5 241.7,113.5 242.4,113.5 239.1,103.4 			"/>
			<polygon class="st2" points="287.4,114.1 288.3,113.5 287.6,113.5 			"/>
			<polygon class="st2" points="305.6,114.1 305.4,113.5 304.7,113.5 			"/>
			<polygon class="st2" points="311.1,96.9 300,96.9 296.5,86.2 293,96.9 281.9,96.9 290.9,103.4 287.6,113.5 288.3,113.5 
				296.5,107.5 304.7,113.5 305.4,113.5 302.1,103.4 			"/>
			<polygon class="st2" points="368.6,114.1 368.4,113.5 367.7,113.5 			"/>
			<polygon class="st2" points="350.4,114.1 351.3,113.5 350.6,113.5 			"/>
			<polygon class="st2" points="374.1,96.9 363,96.9 359.5,86.2 356,96.9 344.9,96.9 353.9,103.4 350.6,113.5 351.3,113.5 
				359.5,107.5 367.7,113.5 368.4,113.5 365.1,103.4 			"/>
			<polygon class="st2" points="414.3,113.5 413.6,113.5 413.4,114.1 			"/>
			<path class="st2" d="M422.5,107.5l1.8,1.3c1.5-0.9,3.1-1.8,4.6-2.6l-0.9-2.8l9.1-6.6H426l-3.5-10.6L419,96.9h-11.2l9.1,6.6
				l-3.3,10h0.6L422.5,107.5z"/>
			<polygon class="st2" points="135.5,123.9 124.4,123.9 133.4,130.4 129.9,141.1 139,134.5 148.1,141.1 144.6,130.4 153.6,123.9 
				142.5,123.9 139.1,113.5 138.9,113.5 			"/>
			<polygon class="st2" points="138.9,113.5 139.1,113.5 139,113.2 			"/>
			<polygon class="st2" points="198.5,123.9 187.4,123.9 196.4,130.4 192.9,141.1 202,134.5 211.1,141.1 207.6,130.4 216.6,123.9 
				205.5,123.9 202.1,113.5 201.9,113.5 			"/>
			<polygon class="st2" points="201.9,113.5 202.1,113.5 202,113.2 			"/>
			<path class="st2" d="M261.5,123.9h-11.2l9.1,6.6l-3.5,10.6l9.1-6.6l9.1,6.6l-3.5-10.6l9.1-6.6h-11.2l-3.4-10.4h-0.2L261.5,123.9z
				 M265,128.6L265,128.6L265,128.6z"/>
			<polygon class="st2" points="264.9,113.5 265.1,113.5 265,113.2 			"/>
			<polygon class="st2" points="324.5,123.9 313.4,123.9 322.4,130.4 318.9,141.1 328,134.5 337.1,141.1 333.6,130.4 342.6,123.9 
				331.5,123.9 328.1,113.5 327.9,113.5 			"/>
			<polygon class="st2" points="327.9,113.5 328.1,113.5 328,113.2 			"/>
			<path class="st2" d="M394.5,123.9l-3.4-10.4h-0.2l-3.4,10.4h-11.2l9.1,6.6l-2.9,9c6.1-5.5,12.4-10.7,19-15.6H394.5z"/>
			<polygon class="st2" points="391,113.2 390.9,113.5 391.1,113.5 			"/>
			<polygon class="st2" points="111,150.9 107.5,140.2 104,150.9 92.9,150.9 94.3,151.9 120.7,151.9 122.1,150.9 			"/>
			<polygon class="st2" points="101.9,157.4 98.4,168.1 107.5,161.5 116.6,168.1 113.1,157.4 120.7,151.9 94.3,151.9 			"/>
			<polygon class="st2" points="174,150.9 170.5,140.2 167,150.9 155.9,150.9 157.3,151.9 183.7,151.9 185.1,150.9 			"/>
			<polygon class="st2" points="164.9,157.4 161.4,168.1 170.5,161.5 179.6,168.1 176.1,157.4 183.7,151.9 157.3,151.9 			"/>
			<polygon class="st2" points="237,150.9 233.5,140.2 230,150.9 218.9,150.9 220.3,151.9 246.7,151.9 248.1,150.9 			"/>
			<polygon class="st2" points="227.9,157.4 224.4,168.1 233.5,161.5 242.6,168.1 239.1,157.4 246.7,151.9 220.3,151.9 			"/>
			<polygon class="st2" points="300,150.9 296.5,140.2 293,150.9 281.9,150.9 283.3,151.9 309.7,151.9 311.1,150.9 			"/>
			<polygon class="st2" points="290.9,157.4 287.4,168.1 296.5,161.5 305.6,168.1 302.1,157.4 309.7,151.9 283.3,151.9 			"/>
			<path class="st2" d="M370.7,150.9H363l-3.5-10.6l-3.5,10.6h-11.2l1.5,1.1h23.3C370,151.6,370.3,151.2,370.7,150.9z"/>
			<path class="st2" d="M346.3,151.9l7.6,5.5l-3.5,10.6l9.1-6.6l0.9,0.6c3-3.5,6.1-6.9,9.3-10.2L346.3,151.9L346.3,151.9z"/>
			<polygon class="st2" points="129.9,195.1 136.4,190.4 131.5,190.4 			"/>
			<polygon class="st2" points="148.1,195.1 146.5,190.4 141.6,190.4 			"/>
			<polygon class="st2" points="153.6,177.9 142.5,177.9 139,167.2 135.5,177.9 124.4,177.9 133.4,184.4 131.5,190.4 136.4,190.4 
				139,188.5 141.6,190.4 146.5,190.4 144.6,184.4 			"/>
			<polygon class="st2" points="211.1,195.1 209.5,190.4 204.6,190.4 			"/>
			<polygon class="st2" points="192.9,195.1 199.4,190.4 194.5,190.4 			"/>
			<polygon class="st2" points="216.6,177.9 205.5,177.9 202,167.2 198.5,177.9 187.4,177.9 196.4,184.4 194.5,190.4 199.4,190.4 
				202,188.5 204.6,190.4 209.5,190.4 207.6,184.4 			"/>
			<polygon class="st2" points="274.1,195.1 272.5,190.4 267.6,190.4 			"/>
			<polygon class="st2" points="255.9,195.1 262.4,190.4 257.5,190.4 			"/>
			<path class="st2" d="M279.6,177.9h-11.2l-3.5-10.6l-3.5,10.6h-11.2l9.1,6.6l-1.9,5.9h4.9l2.6-1.9l2.6,1.9h4.9l-1.9-5.9
				L279.6,177.9z M265,182.6L265,182.6L265,182.6L265,182.6L265,182.6z"/>
			<path class="st2" d="M335.5,190.4h-4.9l6,4.4c0.1-0.1,0.2-0.2,0.2-0.4L335.5,190.4z"/>
			<polygon class="st2" points="318.9,195.1 325.4,190.4 320.5,190.4 			"/>
			<polygon class="st2" points="333.6,184.4 342.6,177.9 331.5,177.9 328,167.2 324.5,177.9 313.4,177.9 322.4,184.4 320.5,190.4 
				325.4,190.4 328,188.5 330.6,190.4 335.5,190.4 			"/>
			<polygon class="st2" points="111,204.9 107.5,194.2 104,204.9 92.9,204.9 101.9,211.4 98.4,222.1 107.5,215.5 116.6,222.1 
				113.1,211.4 122.1,204.9 			"/>
			<polygon class="st2" points="161.4,222.1 170.5,215.5 179.6,222.1 176.1,211.4 185.1,204.9 174,204.9 170.5,194.2 167,204.9 
				155.9,204.9 164.9,211.4 			"/>
			<polygon class="st2" points="224.4,222.1 233.5,215.5 242.6,222.1 239.1,211.4 248.1,204.9 237,204.9 233.5,194.2 230,204.9 
				218.9,204.9 227.9,211.4 			"/>
			<polygon class="st2" points="287.4,222.1 296.5,215.5 305.6,222.1 302.1,211.4 311.1,204.9 300,204.9 296.5,194.2 293,204.9 
				281.9,204.9 290.9,211.4 			"/>
			<polygon class="st2" points="136.5,228.8 141.5,228.8 139,221.2 			"/>
			<polygon class="st2" points="135.5,231.9 124.4,231.9 133.4,238.4 129.9,249.1 139,242.5 148.1,249.1 144.6,238.4 153.6,231.9 
				142.5,231.9 141.5,228.8 136.5,228.8 			"/>
			<polygon class="st2" points="199.5,228.8 204.5,228.8 202,221.2 			"/>
			<polygon class="st2" points="198.5,231.9 187.4,231.9 196.4,238.4 192.9,249.1 202,242.5 211.1,249.1 207.6,238.4 216.6,231.9 
				205.5,231.9 204.5,228.8 199.5,228.8 			"/>
			<polygon class="st2" points="262.5,228.8 267.5,228.8 265,221.2 			"/>
			<polygon class="st2" points="261.5,231.9 250.4,231.9 259.4,238.4 255.9,249.1 265,242.5 274.1,249.1 270.6,238.4 279.6,231.9 
				268.5,231.9 267.5,228.8 262.5,228.8 			"/>
			<path class="st2" d="M313.4,231.9l3.6,2.6c0.3-0.9,0.7-1.7,1-2.6H313.4z"/>
			<polygon class="st2" points="98.4,276.1 107.5,269.5 116.6,276.1 113.7,267.3 101.3,267.3 			"/>
			<path class="st2" d="M122.1,258.9H111l-3.5-10.6l-3.5,10.6H92.9l9.1,6.6l-0.6,1.9h12.4l-0.6-1.9L122.1,258.9z M107.5,263.6
				L107.5,263.6L107.5,263.6z"/>
			<polygon class="st2" points="161.4,276.1 170.5,269.5 179.6,276.1 176.7,267.3 164.3,267.3 			"/>
			<polygon class="st2" points="185.1,258.9 174,258.9 170.5,248.2 167,258.9 155.9,258.9 164.9,265.4 164.3,267.3 176.7,267.3 
				176.1,265.4 			"/>
			<polygon class="st2" points="224.4,276.1 233.5,269.5 242.6,276.1 239.7,267.3 227.3,267.3 			"/>
			<polygon class="st2" points="248.1,258.9 237,258.9 233.5,248.2 230,258.9 218.9,258.9 227.9,265.4 227.3,267.3 239.7,267.3 
				239.1,265.4 			"/>
			<path class="st2" d="M302.7,267.3h-12.4l-2.8,8.8l9.1-6.6l8.4,6.1c0.1-0.3,0.1-0.7,0.2-1L302.7,267.3z"/>
			<path class="st2" d="M302.1,265.4l6.2-4.5c0.2-0.7,0.4-1.4,0.6-2.1H300l-3.5-10.6l-3.5,10.6h-11.2l9.1,6.6l-0.6,1.9h12.4
				L302.1,265.4z"/>
			<polygon class="st2" points="129.9,303.1 139,296.5 148.1,303.1 144.6,292.4 153.6,285.9 142.5,285.9 139,275.2 135.5,285.9 
				124.4,285.9 133.4,292.4 			"/>
			<polygon class="st2" points="192.9,303.1 202,296.5 211.1,303.1 207.6,292.4 216.6,285.9 205.5,285.9 202,275.2 198.5,285.9 
				187.4,285.9 196.4,292.4 			"/>
			<polygon class="st2" points="255.9,303.1 265,296.5 274.1,303.1 270.6,292.4 279.6,285.9 268.5,285.9 265,275.2 261.5,285.9 
				250.4,285.9 259.4,292.4 			"/>
			<polygon class="st2" points="106.3,305.8 108.7,305.8 107.5,302.2 			"/>
			<path class="st2" d="M104,312.9H92.9l9.1,6.6l-3.5,10.6l9.1-6.6l9.1,6.6l-3.5-10.6l9.1-6.6H111l-2.3-7.1h-2.3L104,312.9z
				 M107.5,317.6L107.5,317.6L107.5,317.6L107.5,317.6L107.5,317.6z"/>
			<polygon class="st2" points="169.3,305.8 171.7,305.8 170.5,302.2 			"/>
			<polygon class="st2" points="167,312.9 155.9,312.9 164.9,319.4 161.4,330.1 170.5,323.5 179.6,330.1 176.1,319.4 185.1,312.9 
				174,312.9 171.7,305.8 169.3,305.8 			"/>
			<polygon class="st2" points="232.3,305.8 234.7,305.8 233.5,302.2 			"/>
			<polygon class="st2" points="230,312.9 218.9,312.9 227.9,319.4 224.4,330.1 233.5,323.5 242.6,330.1 239.1,319.4 248.1,312.9 
				237,312.9 234.7,305.8 232.3,305.8 			"/>
			<polygon class="st2" points="296.5,302.2 295.3,305.8 297.7,305.8 			"/>
			<path class="st2" d="M297.7,305.8h-2.3l-2.3,7.1h-11.2l9.1,6.6l-3.5,10.6l9.1-6.6l3.5,2.6c0-0.4,0-0.7,0-1.1
				c0-4.1,0.1-8.1,0.3-12.1H300L297.7,305.8z"/>
			<polygon class="st2" points="98.4,114.1 99.3,113.5 98.6,113.5 			"/>
			<polygon class="st2" points="116.6,114.1 116.4,113.5 115.7,113.5 			"/>
			<polygon class="st2" points="122.1,96.9 111,96.9 107.5,86.2 104,96.9 92.9,96.9 101.9,103.4 98.6,113.5 99.3,113.5 107.5,107.5 
				115.7,113.5 116.4,113.5 113.1,103.4 			"/>
			<path class="st3" d="M1025,498.1v-38.5H760.7c-8.8,13.8-19,26.7-30.3,38.5H1025z"/>
			<path class="st3" d="M75,459.6v38.5h294.6c-11.3-11.8-21.5-24.7-30.3-38.5H75z"/>
			<path class="st2" d="M372.7,151.9l1.5-1.1h-3.5c-0.3,0.4-0.7,0.7-1,1.1H372.7z"/>
			<path class="st2" d="M336.8,194.4c-0.1,0.1-0.2,0.2-0.2,0.4l0.5,0.3L336.8,194.4z"/>
			<path class="st2" d="M305.1,274.6c-0.1,0.3-0.1,0.7-0.2,1l0.7,0.5L305.1,274.6z"/>
			<path class="st2" d="M311.1,258.9h-2.3c-0.2,0.7-0.4,1.4-0.6,2.1L311.1,258.9z"/>
		</g>
	</g>
</g>
<circle class="st1" cx="548" cy="325" r="250"/>
</svg>
