<?xml version="1.0" encoding="utf-8"?>
<!-- Generator: Adobe Illustrator 22.1.0, SVG Export Plug-In . SVG Version: 6.00 Build 0)  -->
<svg version="1.1" id="Layer_1" xmlns="http://www.w3.org/2000/svg" xmlns:xlink="http://www.w3.org/1999/xlink" x="0px" y="0px"
	 viewBox="0 0 1100 650" style="enable-background:new 0 0 1100 650;" xml:space="preserve">
<style type="text/css">
	.st0{fill:#F7F7F7;}
	.st1{fill:#333333;}
	.st2{fill:#FFFFFF;}
	.st3{fill:none;}
	.st4{fill:#CD2031;}
	.st5{fill:#243672;}
</style>
<g id="Layer_2_1_">
	<g>
		<rect x="1" y="1" class="st0" width="1098" height="648"/>
		<path class="st1" d="M1098,2v646H2V2H1098 M1100,0H0v650h1100V0L1100,0z"/>
	</g>
</g>
<rect x="75" y="325" class="st2" width="475" height="250"/>
<g id="Layer_1_2_">
	<g id="Layer_1_1_">
		<g>
			<polygon class="st3" points="550,344.2 455,344.2 75,344.2 75,382.7 550,382.7 			"/>
			<rect x="75" y="498.1" class="st3" width="475" height="38.5"/>
			<rect x="75" y="421.2" class="st3" width="475" height="38.5"/>
			<rect x="455" y="325" class="st4" width="95" height="19.2"/>
			<rect x="75" y="382.7" class="st4" width="475" height="38.5"/>
			<rect x="75" y="536.5" class="st4" width="475" height="38.5"/>
			<polygon class="st5" points="455,325 429.9,325 431.6,330.1 424.6,325 420.4,325 413.4,330.1 415.1,325 366.9,325 368.6,330.1 
				361.6,325 357.4,325 350.4,330.1 352.1,325 303.9,325 305.6,330.1 298.6,325 294.4,325 287.4,330.1 289.1,325 240.9,325 
				242.6,330.1 235.6,325 231.4,325 224.4,330.1 226.1,325 177.9,325 179.6,330.1 172.6,325 168.4,325 161.4,330.1 163.1,325 
				114.9,325 116.6,330.1 109.6,325 105.4,325 98.4,330.1 100.1,325 75,325 75,344.2 455,344.2 			"/>
			<polygon class="st2" points="114.9,325 109.6,325 116.6,330.1 			"/>
			<polygon class="st2" points="105.4,325 100.1,325 98.4,330.1 			"/>
			<polygon class="st2" points="168.4,325 163.1,325 161.4,330.1 			"/>
			<polygon class="st2" points="177.9,325 172.6,325 179.6,330.1 			"/>
			<polygon class="st2" points="240.9,325 235.6,325 242.6,330.1 			"/>
			<polygon class="st2" points="231.4,325 226.1,325 224.4,330.1 			"/>
			<polygon class="st2" points="303.9,325 298.6,325 305.6,330.1 			"/>
			<polygon class="st2" points="294.4,325 289.1,325 287.4,330.1 			"/>
			<polygon class="st2" points="366.9,325 361.6,325 368.6,330.1 			"/>
			<polygon class="st2" points="357.4,325 352.1,325 350.4,330.1 			"/>
			<polygon class="st2" points="420.4,325 415.1,325 413.4,330.1 			"/>
			<polygon class="st2" points="429.9,325 424.6,325 431.6,330.1 			"/>
			<rect x="75" y="459.6" class="st4" width="475" height="38.5"/>
		</g>
	</g>
</g>
</svg>
