<?xml version="1.0" encoding="utf-8"?>
<!-- Generator: Adobe Illustrator 22.1.0, SVG Export Plug-In . SVG Version: 6.00 Build 0)  -->
<svg version="1.1" id="Layer_1" xmlns="http://www.w3.org/2000/svg" xmlns:xlink="http://www.w3.org/1999/xlink" x="0px" y="0px"
	 viewBox="0 0 1100 650" style="enable-background:new 0 0 1100 650;" xml:space="preserve">
<style type="text/css">
	.st0{fill:#FFFFFF;}
	.st1{fill:#333333;}
	.st2{fill:none;}
	.st3{fill:#CD2031;}
	.st4{fill:#243672;}
</style>
<g id="Layer_2_1_">
	<g>
		<rect x="1" y="1" class="st0" width="1100" height="648"/>
		<path class="st1" d="M1099,2v646H2V2H1099 M1101,0H0v650h1101V0L1101,0z"/>
	</g>
</g>
<rect x="75" y="75" class="st0" width="475" height="250"/>
<g id="Layer_1_2_">
	<g id="Layer_1_1_">
		<g>
			<rect x="455" y="113.5" class="st2" width="95" height="38.5"/>
			<rect x="455" y="267.3" class="st2" width="95" height="38.5"/>
			<rect x="455" y="190.4" class="st2" width="95" height="38.5"/>
			<rect x="455" y="75" class="st3" width="95" height="38.5"/>
			<rect x="455" y="151.9" class="st3" width="95" height="38.5"/>
			<rect x="455" y="228.8" class="st3" width="95" height="38.5"/>
			<rect x="455" y="305.8" class="st3" width="95" height="19.2"/>
			<polygon class="st4" points="420.4,325 424.6,325 422.5,323.5 			"/>
			<polygon class="st4" points="294.4,325 298.6,325 296.5,323.5 			"/>
			<polygon class="st4" points="357.4,325 361.6,325 359.5,323.5 			"/>
			<polygon class="st4" points="168.4,325 172.6,325 170.5,323.5 			"/>
			<polygon class="st4" points="105.4,325 109.6,325 107.5,323.5 			"/>
			<path class="st4" d="M101.9,319.4l-9.1-6.6H104l3.5-10.6l3.5,10.6h11.2l-9.1,6.6l1.8,5.6h48.2l1.8-5.6l-9.1-6.6H167l3.5-10.6
				l3.5,10.6h11.2l-9.1,6.6l1.8,5.6h48.2l1.8-5.6l-9.1-6.6H230l3.5-10.6l3.5,10.6h11.2l-9.1,6.6l1.8,5.6h48.2l1.8-5.6l-9.1-6.6H293
				l3.5-10.6l3.5,10.6h11.2l-9.1,6.6l1.8,5.6h48.2l1.8-5.6l-9.1-6.6H356l3.5-10.6l3.5,10.6h11.2l-9.1,6.6l1.8,5.6h48.2l1.8-5.6
				l-9.1-6.6H419l3.5-10.6l3.5,10.6h11.2l-9.1,6.6l1.8,5.6H455v-19.2v-38.5v-38.5v-38.5v-38.5v-38.5V75H75v38.5V152v38.5V229v38.5
				V306v19h25.1L101.9,319.4z M135.5,285.9l3.5-10.6l3.5,10.6h11.2l-9.1,6.6l3.5,10.6l-9.1-6.6l-9.1,6.6l3.5-10.6l-9.1-6.6H135.5z
				 M170.5,269.5l-9.1,6.6l3.5-10.6l-9.1-6.6H167l3.5-10.6l3.5,10.6h11.2l-9.1,6.6l3.5,10.6L170.5,269.5z M155.9,150.9H167l3.5-10.6
				l3.5,10.6h11.2l-9.1,6.6l3.5,10.6l-9.1-6.6l-9.1,6.6l3.5-10.6L155.9,150.9z M218.9,150.9H230l3.5-10.6l3.5,10.6h11.2l-9.1,6.6
				l3.5,10.6l-9.1-6.6l-9.1,6.6l3.5-10.6L218.9,150.9z M281.9,150.9H293l3.5-10.6l3.5,10.6h11.2l-9.1,6.6l3.5,10.6l-9.1-6.6
				l-9.1,6.6l3.5-10.6L281.9,150.9z M344.9,150.9H356l3.5-10.6l3.5,10.6h11.2l-9.1,6.6l3.5,10.6l-9.1-6.6l-9.1,6.6l3.5-10.6
				L344.9,150.9z M331.5,231.9h11.2l-9.1,6.6l3.5,10.6l-9.1-6.6l-9.1,6.6l3.5-10.6l-9.1-6.6h11.2l3.5-10.6L331.5,231.9z
				 M337.1,303.1l-9.1-6.6l-9.1,6.6l3.5-10.6l-9.1-6.6h11.2l3.5-10.6l3.5,10.6h11.2l-9.1,6.6L337.1,303.1z M268.5,231.9h11.2
				l-9.1,6.6l3.5,10.6l-9.1-6.6l-9.1,6.6l3.5-10.6l-9.1-6.6h11.2l3.5-10.6L268.5,231.9z M274.1,303.1l-9.1-6.6l-9.1,6.6l3.5-10.6
				l-9.1-6.6h11.2l3.5-10.6l3.5,10.6h11.2l-9.1,6.6L274.1,303.1z M250.4,177.9h11.2l3.5-10.6l3.5,10.6h11.2l-9.1,6.6l3.5,10.6
				l-9.1-6.6l-9.1,6.6l3.5-10.6L250.4,177.9z M305.6,222.1l-9.1-6.6l-9.1,6.6l3.5-10.6l-9.1-6.6H293l3.5-10.6l3.5,10.6h11.2
				l-9.1,6.6L305.6,222.1z M230,204.9l3.5-10.6l3.5,10.6h11.2l-9.1,6.6l3.5,10.6l-9.1-6.6l-9.1,6.6l3.5-10.6l-9.1-6.6H230z
				 M368.6,222.1l-9.1-6.6l-9.1,6.6l3.5-10.6l-9.1-6.6H356l3.5-10.6l3.5,10.6h11.2l-9.1,6.6L368.6,222.1z M337.1,195.1l-9.1-6.6
				l-9.1,6.6l3.5-10.6l-9.1-6.6h11.2l3.5-10.6l3.5,10.6h11.2l-9.1,6.6L337.1,195.1z M187.4,177.9h11.2l3.5-10.6l3.5,10.6h11.2
				l-9.1,6.6l3.5,10.6l-9.1-6.6l-9.1,6.6l3.5-10.6L187.4,177.9z M167,204.9l3.5-10.6l3.5,10.6h11.2l-9.1,6.6l3.5,10.6l-9.1-6.6
				l-9.1,6.6l3.5-10.6l-9.1-6.6H167z M202,221.2l3.5,10.6h11.2l-9.1,6.6l3.5,10.6l-9.1-6.6l-9.1,6.6l3.5-10.6l-9.1-6.6h11.2
				L202,221.2z M211.1,303.1l-9.1-6.6l-9.1,6.6l3.5-10.6l-9.1-6.6h11.2l3.5-10.6l3.5,10.6h11.2l-9.1,6.6L211.1,303.1z M233.5,269.5
				l-9.1,6.6l3.5-10.6l-9.1-6.6H230l3.5-10.6l3.5,10.6h11.2l-9.1,6.6l3.5,10.6L233.5,269.5z M287.4,276.1l3.5-10.6l-9.1-6.6H293
				l3.5-10.6l3.5,10.6h11.2l-9.1,6.6l3.5,10.6l-9.1-6.6L287.4,276.1z M350.4,276.1l3.5-10.6l-9.1-6.6H356l3.5-10.6l3.5,10.6h11.2
				l-9.1,6.6l3.5,10.6l-9.1-6.6L350.4,276.1z M400.1,303.1l-9.1-6.6l-9.1,6.6l3.5-10.6l-9.1-6.6h11.2l3.5-10.6l3.5,10.6h11.2
				l-9.1,6.6L400.1,303.1z M431.6,276.1l-9.1-6.6l-9.1,6.6l3.5-10.6l-9.1-6.6H419l3.5-10.6l3.5,10.6h11.2l-9.1,6.6L431.6,276.1z
				 M394.5,231.9h11.2l-9.1,6.6l3.5,10.6l-9.1-6.6l-9.1,6.6l3.5-10.6l-9.1-6.6h11.2l3.5-10.6L394.5,231.9z M431.6,222.1l-9.1-6.6
				l-9.1,6.6l3.5-10.6l-9.1-6.6H419l3.5-10.6l3.5,10.6h11.2l-9.1,6.6L431.6,222.1z M400.1,195.1l-9.1-6.6l-9.1,6.6l3.5-10.6
				l-9.1-6.6h11.2l3.5-10.6l3.5,10.6h11.2l-9.1,6.6L400.1,195.1z M431.6,168.1l-9.1-6.6l-9.1,6.6l3.5-10.6l-9.1-6.6H419l3.5-10.6
				l3.5,10.6h11.2l-9.1,6.6L431.6,168.1z M419,96.9l3.5-10.6l3.5,10.6h11.2l-9.1,6.6l3.5,10.6l-9.1-6.6l-9.1,6.6l3.5-10.6l-9.1-6.6
				H419z M394.5,123.9h11.2l-9.1,6.6l3.5,10.6l-9.1-6.6l-9.1,6.6l3.5-10.6l-9.1-6.6h11.2l3.5-10.6L394.5,123.9z M356,96.9l3.5-10.6
				l3.5,10.6h11.2l-9.1,6.6l3.5,10.6l-9.1-6.6l-9.1,6.6l3.5-10.6l-9.1-6.6H356z M331.5,123.9h11.2l-9.1,6.6l3.5,10.6l-9.1-6.6
				l-9.1,6.6l3.5-10.6l-9.1-6.6h11.2l3.5-10.6L331.5,123.9z M293,96.9l3.5-10.6l3.5,10.6h11.2l-9.1,6.6l3.5,10.6l-9.1-6.6l-9.1,6.6
				l3.5-10.6l-9.1-6.6H293z M268.5,123.9h11.2l-9.1,6.6l3.5,10.6l-9.1-6.6l-9.1,6.6l3.5-10.6l-9.1-6.6h11.2l3.5-10.6L268.5,123.9z
				 M230,96.9l3.5-10.6l3.5,10.6h11.2l-9.1,6.6l3.5,10.6l-9.1-6.6l-9.1,6.6l3.5-10.6l-9.1-6.6H230z M205.5,123.9h11.2l-9.1,6.6
				l3.5,10.6l-9.1-6.6l-9.1,6.6l3.5-10.6l-9.1-6.6h11.2l3.5-10.6L205.5,123.9z M167,96.9l3.5-10.6l3.5,10.6h11.2l-9.1,6.6l3.5,10.6
				l-9.1-6.6l-9.1,6.6l3.5-10.6l-9.1-6.6H167z M142.5,123.9h11.2l-9.1,6.6l3.5,10.6l-9.1-6.6l-9.1,6.6l3.5-10.6l-9.1-6.6h11.2
				l3.5-10.6L142.5,123.9z M92.9,96.9H104l3.5-10.6l3.5,10.6h11.2l-9.1,6.6l3.5,10.6l-9.1-6.6l-9.1,6.6l3.5-10.6L92.9,96.9z
				 M92.9,150.9H104l3.5-10.6l3.5,10.6h11.2l-9.1,6.6l3.5,10.6l-9.1-6.6l-9.1,6.6l3.5-10.6L92.9,150.9z M124.4,177.9h11.2l3.5-10.6
				l3.5,10.6h11.2l-9.1,6.6l3.5,10.6l-9.1-6.6l-9.1,6.6l3.5-10.6L124.4,177.9z M116.6,222.1l-9.1-6.6l-9.1,6.6l3.5-10.6l-9.1-6.6
				H104l3.5-10.6l3.5,10.6h11.2l-9.1,6.6L116.6,222.1z M139,221.2l3.5,10.6h11.2l-9.1,6.6l3.5,10.6l-9.1-6.6l-9.1,6.6l3.5-10.6
				l-9.1-6.6h11.2L139,221.2z M92.9,258.9H104l3.5-10.6l3.5,10.6h11.2l-9.1,6.6l3.5,10.6l-9.1-6.6l-9.1,6.6l3.5-10.6L92.9,258.9z"/>
			<polygon class="st4" points="231.4,325 235.6,325 233.5,323.5 			"/>
			<polygon class="st0" points="161.4,114.1 170.5,107.5 179.6,114.1 176.1,103.4 185.1,96.9 174,96.9 170.5,86.2 167,96.9 
				155.9,96.9 164.9,103.4 			"/>
			<polygon class="st0" points="224.4,114.1 233.5,107.5 242.6,114.1 239.1,103.4 248.1,96.9 237,96.9 233.5,86.2 230,96.9 
				218.9,96.9 227.9,103.4 			"/>
			<polygon class="st0" points="287.4,114.1 296.5,107.5 305.6,114.1 302.1,103.4 311.1,96.9 300,96.9 296.5,86.2 293,96.9 
				281.9,96.9 290.9,103.4 			"/>
			<polygon class="st0" points="350.4,114.1 359.5,107.5 368.6,114.1 365.1,103.4 374.1,96.9 363,96.9 359.5,86.2 356,96.9 
				344.9,96.9 353.9,103.4 			"/>
			<polygon class="st0" points="413.4,114.1 422.5,107.5 431.6,114.1 428.1,103.4 437.1,96.9 426,96.9 422.5,86.2 419,96.9 
				407.9,96.9 416.9,103.4 			"/>
			<polygon class="st0" points="135.5,123.9 124.4,123.9 133.4,130.4 129.9,141.1 139,134.5 148.1,141.1 144.6,130.4 153.6,123.9 
				142.5,123.9 139,113.2 			"/>
			<polygon class="st0" points="198.5,123.9 187.4,123.9 196.4,130.4 192.9,141.1 202,134.5 211.1,141.1 207.6,130.4 216.6,123.9 
				205.5,123.9 202,113.2 			"/>
			<polygon class="st0" points="261.5,123.9 250.4,123.9 259.4,130.4 255.9,141.1 265,134.5 274.1,141.1 270.6,130.4 279.6,123.9 
				268.5,123.9 265,113.2 			"/>
			<polygon class="st0" points="324.5,123.9 313.4,123.9 322.4,130.4 318.9,141.1 328,134.5 337.1,141.1 333.6,130.4 342.6,123.9 
				331.5,123.9 328,113.2 			"/>
			<polygon class="st0" points="387.5,123.9 376.4,123.9 385.4,130.4 381.9,141.1 391,134.5 400.1,141.1 396.6,130.4 405.6,123.9 
				394.5,123.9 391,113.2 			"/>
			<polygon class="st0" points="98.4,168.1 107.5,161.5 116.6,168.1 113.1,157.4 122.1,150.9 111,150.9 107.5,140.2 104,150.9 
				92.9,150.9 101.9,157.4 			"/>
			<polygon class="st0" points="170.5,161.5 179.6,168.1 176.1,157.4 185.1,150.9 174,150.9 170.5,140.2 167,150.9 155.9,150.9 
				164.9,157.4 161.4,168.1 			"/>
			<polygon class="st0" points="224.4,168.1 233.5,161.5 242.6,168.1 239.1,157.4 248.1,150.9 237,150.9 233.5,140.2 230,150.9 
				218.9,150.9 227.9,157.4 			"/>
			<polygon class="st0" points="287.4,168.1 296.5,161.5 305.6,168.1 302.1,157.4 311.1,150.9 300,150.9 296.5,140.2 293,150.9 
				281.9,150.9 290.9,157.4 			"/>
			<polygon class="st0" points="350.4,168.1 359.5,161.5 368.6,168.1 365.1,157.4 374.1,150.9 363,150.9 359.5,140.2 356,150.9 
				344.9,150.9 353.9,157.4 			"/>
			<polygon class="st0" points="437.1,150.9 426,150.9 422.5,140.2 419,150.9 407.9,150.9 416.9,157.4 413.4,168.1 422.5,161.5 
				431.6,168.1 428.1,157.4 			"/>
			<polygon class="st0" points="129.9,195.1 139,188.5 148.1,195.1 144.6,184.4 153.6,177.9 142.5,177.9 139,167.2 135.5,177.9 
				124.4,177.9 133.4,184.4 			"/>
			<polygon class="st0" points="192.9,195.1 202,188.5 211.1,195.1 207.6,184.4 216.6,177.9 205.5,177.9 202,167.2 198.5,177.9 
				187.4,177.9 196.4,184.4 			"/>
			<polygon class="st0" points="255.9,195.1 265,188.5 274.1,195.1 270.6,184.4 279.6,177.9 268.5,177.9 265,167.2 261.5,177.9 
				250.4,177.9 259.4,184.4 			"/>
			<polygon class="st0" points="342.6,177.9 331.5,177.9 328,167.2 324.5,177.9 313.4,177.9 322.4,184.4 318.9,195.1 328,188.5 
				337.1,195.1 333.6,184.4 			"/>
			<polygon class="st0" points="405.6,177.9 394.5,177.9 391,167.2 387.5,177.9 376.4,177.9 385.4,184.4 381.9,195.1 391,188.5 
				400.1,195.1 396.6,184.4 			"/>
			<polygon class="st0" points="111,204.9 107.5,194.2 104,204.9 92.9,204.9 101.9,211.4 98.4,222.1 107.5,215.5 116.6,222.1 
				113.1,211.4 122.1,204.9 			"/>
			<polygon class="st0" points="161.4,222.1 170.5,215.5 179.6,222.1 176.1,211.4 185.1,204.9 174,204.9 170.5,194.2 167,204.9 
				155.9,204.9 164.9,211.4 			"/>
			<polygon class="st0" points="224.4,222.1 233.5,215.5 242.6,222.1 239.1,211.4 248.1,204.9 237,204.9 233.5,194.2 230,204.9 
				218.9,204.9 227.9,211.4 			"/>
			<polygon class="st0" points="300,204.9 296.5,194.2 293,204.9 281.9,204.9 290.9,211.4 287.4,222.1 296.5,215.5 305.6,222.1 
				302.1,211.4 311.1,204.9 			"/>
			<polygon class="st0" points="363,204.9 359.5,194.2 356,204.9 344.9,204.9 353.9,211.4 350.4,222.1 359.5,215.5 368.6,222.1 
				365.1,211.4 374.1,204.9 			"/>
			<polygon class="st0" points="426,204.9 422.5,194.2 419,204.9 407.9,204.9 416.9,211.4 413.4,222.1 422.5,215.5 431.6,222.1 
				428.1,211.4 437.1,204.9 			"/>
			<polygon class="st0" points="124.4,231.9 133.4,238.4 129.9,249.1 139,242.5 148.1,249.1 144.6,238.4 153.6,231.9 142.5,231.9 
				139,221.2 135.5,231.9 			"/>
			<polygon class="st0" points="187.4,231.9 196.4,238.4 192.9,249.1 202,242.5 211.1,249.1 207.6,238.4 216.6,231.9 205.5,231.9 
				202,221.2 198.5,231.9 			"/>
			<polygon class="st0" points="261.5,231.9 250.4,231.9 259.4,238.4 255.9,249.1 265,242.5 274.1,249.1 270.6,238.4 279.6,231.9 
				268.5,231.9 265,221.2 			"/>
			<polygon class="st0" points="324.5,231.9 313.4,231.9 322.4,238.4 318.9,249.1 328,242.5 337.1,249.1 333.6,238.4 342.6,231.9 
				331.5,231.9 328,221.2 			"/>
			<polygon class="st0" points="387.5,231.9 376.4,231.9 385.4,238.4 381.9,249.1 391,242.5 400.1,249.1 396.6,238.4 405.6,231.9 
				394.5,231.9 391,221.2 			"/>
			<polygon class="st0" points="98.4,276.1 107.5,269.5 116.6,276.1 113.1,265.4 122.1,258.9 111,258.9 107.5,248.2 104,258.9 
				92.9,258.9 101.9,265.4 			"/>
			<polygon class="st0" points="176.1,265.4 185.1,258.9 174,258.9 170.5,248.2 167,258.9 155.9,258.9 164.9,265.4 161.4,276.1 
				170.5,269.5 179.6,276.1 			"/>
			<polygon class="st0" points="239.1,265.4 248.1,258.9 237,258.9 233.5,248.2 230,258.9 218.9,258.9 227.9,265.4 224.4,276.1 
				233.5,269.5 242.6,276.1 			"/>
			<polygon class="st0" points="302.1,265.4 311.1,258.9 300,258.9 296.5,248.2 293,258.9 281.9,258.9 290.9,265.4 287.4,276.1 
				296.5,269.5 305.6,276.1 			"/>
			<polygon class="st0" points="365.1,265.4 374.1,258.9 363,258.9 359.5,248.2 356,258.9 344.9,258.9 353.9,265.4 350.4,276.1 
				359.5,269.5 368.6,276.1 			"/>
			<polygon class="st0" points="437.1,258.9 426,258.9 422.5,248.2 419,258.9 407.9,258.9 416.9,265.4 413.4,276.1 422.5,269.5 
				431.6,276.1 428.1,265.4 			"/>
			<polygon class="st0" points="129.9,303.1 139,296.5 148.1,303.1 144.6,292.4 153.6,285.9 142.5,285.9 139,275.2 135.5,285.9 
				124.4,285.9 133.4,292.4 			"/>
			<polygon class="st0" points="205.5,285.9 202,275.2 198.5,285.9 187.4,285.9 196.4,292.4 192.9,303.1 202,296.5 211.1,303.1 
				207.6,292.4 216.6,285.9 			"/>
			<polygon class="st0" points="268.5,285.9 265,275.2 261.5,285.9 250.4,285.9 259.4,292.4 255.9,303.1 265,296.5 274.1,303.1 
				270.6,292.4 279.6,285.9 			"/>
			<polygon class="st0" points="331.5,285.9 328,275.2 324.5,285.9 313.4,285.9 322.4,292.4 318.9,303.1 328,296.5 337.1,303.1 
				333.6,292.4 342.6,285.9 			"/>
			<polygon class="st0" points="394.5,285.9 391,275.2 387.5,285.9 376.4,285.9 385.4,292.4 381.9,303.1 391,296.5 400.1,303.1 
				396.6,292.4 405.6,285.9 			"/>
			<polygon class="st0" points="122.1,312.9 111,312.9 107.5,302.2 104,312.9 92.9,312.9 101.9,319.4 100.1,325 105.4,325 
				107.5,323.5 109.6,325 114.9,325 113.1,319.4 			"/>
			<polygon class="st0" points="185.1,312.9 174,312.9 170.5,302.2 167,312.9 155.9,312.9 164.9,319.4 163.1,325 168.4,325 
				170.5,323.5 172.6,325 177.9,325 176.1,319.4 			"/>
			<polygon class="st0" points="248.1,312.9 237,312.9 233.5,302.2 230,312.9 218.9,312.9 227.9,319.4 226.1,325 231.4,325 
				233.5,323.5 235.6,325 240.9,325 239.1,319.4 			"/>
			<polygon class="st0" points="311.1,312.9 300,312.9 296.5,302.2 293,312.9 281.9,312.9 290.9,319.4 289.1,325 294.4,325 
				296.5,323.5 298.6,325 303.9,325 302.1,319.4 			"/>
			<polygon class="st0" points="374.1,312.9 363,312.9 359.5,302.2 356,312.9 344.9,312.9 353.9,319.4 352.1,325 357.4,325 
				359.5,323.5 361.6,325 366.9,325 365.1,319.4 			"/>
			<polygon class="st0" points="437.1,312.9 426,312.9 422.5,302.2 419,312.9 407.9,312.9 416.9,319.4 415.1,325 420.4,325 
				422.5,323.5 424.6,325 429.9,325 428.1,319.4 			"/>
			<polygon class="st0" points="98.4,114.1 107.5,107.5 116.6,114.1 113.1,103.4 122.1,96.9 111,96.9 107.5,86.2 104,96.9 
				92.9,96.9 101.9,103.4 			"/>
		</g>
	</g>
</g>
</svg>
