<?xml version="1.0" encoding="utf-8"?>
<!-- Generator: Adobe Illustrator 22.1.0, SVG Export Plug-In . SVG Version: 6.00 Build 0)  -->
<svg version="1.1" id="Layer_1" xmlns="http://www.w3.org/2000/svg" xmlns:xlink="http://www.w3.org/1999/xlink" x="0px" y="0px"
	 viewBox="0 0 1100 650" style="enable-background:new 0 0 1100 650;" xml:space="preserve">
<style type="text/css">
	.st0{fill:#F7F7F7;}
	.st1{fill:#333333;}
	.st2{fill:#FFFFFF;}
	.st3{fill:none;}
	.st4{fill:#CD2031;}
	.st5{fill:#243672;}
</style>
<g id="Layer_2_1_">
	<g>
		<rect x="1" y="1" class="st0" width="1098" height="648"/>
		<path class="st1" d="M1098,2v646H2V2H1098 M1100,0H0v650h1100V0L1100,0z"/>
	</g>
</g>
<circle class="st2" cx="550" cy="325" r="250"/>
<g id="Layer_1_2_">
	<g id="Layer_1_1_">
		<g>
			<path class="st3" d="M799.3,344.2H455H300.7c1,13.1,3,26,6,38.5h486.6C796.2,370.2,798.3,357.4,799.3,344.2z"/>
			<path class="st3" d="M455,228.8h325.8c-5.6-13.5-12.4-26.3-20.1-38.5H455V228.8z"/>
			<path class="st3" d="M455,151.9h275.4c-14.1-14.6-29.9-27.6-47.1-38.5H455V151.9z"/>
			<path class="st3" d="M455,305.8h344.3c-1-13.1-3-26-6-38.5H455V305.8z"/>
			<path class="st3" d="M780.8,421.2H319.2c5.6,13.5,12.4,26.3,20.1,38.5h421.4C768.5,447.5,775.2,434.6,780.8,421.2z"/>
			<path class="st3" d="M730.4,498.1H369.6c14.1,14.6,29.9,27.6,47.1,38.5h266.5C700.5,525.7,716.3,512.7,730.4,498.1z"/>
			<path class="st4" d="M683.3,113.5C644.7,89.1,599,75,550,75c-33.6,0-65.7,6.7-95,18.7v19.8H683.3z"/>
			<path class="st4" d="M455,190.4h305.7c-8.8-13.8-19-26.7-30.3-38.5H455V190.4z"/>
			<path class="st4" d="M455,267.3h338.3c-3.1-13.3-7.3-26.1-12.5-38.5H455V267.3z"/>
			<path class="st4" d="M455,344.2h344.3c0.5-6.3,0.7-12.8,0.7-19.2s-0.2-12.9-0.7-19.2H455V344.2z"/>
			<path class="st4" d="M793.3,382.7H306.7c3.1,13.3,7.3,26.1,12.5,38.5h461.7C786,408.8,790.2,396,793.3,382.7z"/>
			<path class="st4" d="M416.7,536.5C455.3,560.9,501,575,550,575s94.7-14.1,133.3-38.5H416.7z"/>
			<path class="st5" d="M455,305.8v-38.5v-38.5v-38.5v-38.5v-38.5V93.7c-8.9,3.7-17.6,7.9-26,12.5l2.6,7.9l-7.2-5.2
				c-7.9,4.6-15.5,9.6-22.8,15h4.1l-9.1,6.6l3.5,10.6l-9.1-6.6l-9.1,6.6l0.5-1.6c-4.1,3.7-8,7.5-11.8,11.4h3.5l-9.1,6.6l3.5,10.6
				l-8.2-6c-8.7,10.1-16.5,20.9-23.5,32.2l0.2,0.7l-0.5-0.3c-7.2,11.8-13.4,24.2-18.6,37.1h6.6l3.5-10.6l3.5,10.6h11.2l-9.1,6.6
				l3.5,10.6l-9.1-6.6l-9.1,6.6l3.5-10.6l-5.5-4c-3.1,7.9-5.8,16.1-8.1,24.4h2.3l-2.8,2.1c-1.2,4.5-2.3,9.1-3.2,13.7l0.5,1.5
				l-0.7-0.5c-2.4,12.1-4,24.6-4.6,37.3h10.8l-9.1,6.6l3.5,10.6l-5.5-4c0,6.1,0.3,12.2,0.7,18.2H455V305.8z M431.6,276.1l-9.1-6.6
				l-9.1,6.6l3.5-10.6l-9.1-6.6H419l3.5-10.6l3.5,10.6h11.2l-9.1,6.6L431.6,276.1z M387.5,285.9l3.5-10.6l3.5,10.6h11.2l-9.1,6.6
				l3.5,10.6l-9.1-6.6l-9.1,6.6l3.5-10.6l-9.1-6.6H387.5z M431.6,222.1l-9.1-6.6l-9.1,6.6l3.5-10.6l-9.1-6.6H419l3.5-10.6l3.5,10.6
				h11.2l-9.1,6.6L431.6,222.1z M407.9,150.9H419l3.5-10.6l3.5,10.6h11.2l-9.1,6.6l3.5,10.6l-9.1-6.6l-9.1,6.6l3.5-10.6L407.9,150.9
				z M376.4,177.9h11.2l3.5-10.6l3.5,10.6h11.2l-9.1,6.6l3.5,10.6l-9.1-6.6l-9.1,6.6l3.5-10.6L376.4,177.9z M368.6,222.1l-9.1-6.6
				l-9.1,6.6l3.5-10.6l-9.1-6.6H356l3.5-10.6l3.5,10.6h11.2l-9.1,6.6L368.6,222.1z M391,221.2l3.5,10.6h11.2l-9.1,6.6l3.5,10.6
				l-9.1-6.6l-9.1,6.6l3.5-10.6l-9.1-6.6h11.2L391,221.2z M344.9,258.9H356l3.5-10.6l3.5,10.6h11.2l-9.1,6.6l3.5,10.6l-9.1-6.6
				l-9.1,6.6l3.5-10.6L344.9,258.9z M337.1,303.1l-9.1-6.6l-9.1,6.6l3.5-10.6l-9.1-6.6h11.2l3.5-10.6l3.5,10.6h11.2l-9.1,6.6
				L337.1,303.1z M368.6,330.1l-9.1-6.6l-9.1,6.6l3.5-10.6l-9.1-6.6H356l3.5-10.6l3.5,10.6h11.2l-9.1,6.6L368.6,330.1z M431.6,330.1
				l-9.1-6.6l-9.1,6.6l3.5-10.6l-9.1-6.6H419l3.5-10.6l3.5,10.6h11.2l-9.1,6.6L431.6,330.1z"/>
			<path class="st2" d="M431.6,114.1l-2.6-7.9c-1.6,0.9-3.1,1.7-4.6,2.6L431.6,114.1z"/>
			<path class="st2" d="M391,134.5l9.1,6.6l-3.5-10.6l9.1-6.6h-4.1c-6.6,4.9-13,10.1-19,15.6l-0.5,1.6L391,134.5z"/>
			<path class="st2" d="M365.1,157.4l9.1-6.6h-3.5c-3.5,3.6-7,7.4-10.3,11.3l8.2,6L365.1,157.4z"/>
			<polygon class="st2" points="413.4,168.1 422.5,161.5 431.6,168.1 428.1,157.4 437.1,150.9 426,150.9 422.5,140.2 419,150.9 
				407.9,150.9 416.9,157.4 			"/>
			<path class="st2" d="M336.8,194.4c-0.1,0.1-0.2,0.2-0.2,0.4l0.5,0.3L336.8,194.4z"/>
			<polygon class="st2" points="381.9,195.1 391,188.5 400.1,195.1 396.6,184.4 405.6,177.9 394.5,177.9 391,167.2 387.5,177.9 
				376.4,177.9 385.4,184.4 			"/>
			<polygon class="st2" points="363,204.9 359.5,194.2 356,204.9 344.9,204.9 353.9,211.4 350.4,222.1 359.5,215.5 368.6,222.1 
				365.1,211.4 374.1,204.9 			"/>
			<polygon class="st2" points="426,204.9 422.5,194.2 419,204.9 407.9,204.9 416.9,211.4 413.4,222.1 422.5,215.5 431.6,222.1 
				428.1,211.4 437.1,204.9 			"/>
			<path class="st2" d="M318.9,249.1l9.1-6.6l9.1,6.6l-3.5-10.6l9.1-6.6h-11.2l-3.5-10.6l-3.5,10.6h-6.6c-0.3,0.9-0.7,1.7-1,2.6
				l5.5,4L318.9,249.1z"/>
			<polygon class="st2" points="376.4,231.9 385.4,238.4 381.9,249.1 391,242.5 400.1,249.1 396.6,238.4 405.6,231.9 394.5,231.9 
				391,221.2 387.5,231.9 			"/>
			<path class="st2" d="M305.1,274.6c-0.1,0.3-0.1,0.7-0.2,1l0.7,0.5L305.1,274.6z"/>
			<path class="st2" d="M308.9,258.9c-0.2,0.7-0.4,1.4-0.6,2.1l2.8-2.1H308.9z"/>
			<polygon class="st2" points="350.4,276.1 359.5,269.5 368.6,276.1 365.1,265.4 374.1,258.9 363,258.9 359.5,248.2 356,258.9 
				344.9,258.9 353.9,265.4 			"/>
			<polygon class="st2" points="437.1,258.9 426,258.9 422.5,248.2 419,258.9 407.9,258.9 416.9,265.4 413.4,276.1 422.5,269.5 
				431.6,276.1 428.1,265.4 			"/>
			<polygon class="st2" points="331.5,285.9 328,275.2 324.5,285.9 313.4,285.9 322.4,292.4 318.9,303.1 328,296.5 337.1,303.1 
				333.6,292.4 342.6,285.9 			"/>
			<polygon class="st2" points="381.9,303.1 391,296.5 400.1,303.1 396.6,292.4 405.6,285.9 394.5,285.9 391,275.2 387.5,285.9 
				376.4,285.9 385.4,292.4 			"/>
			<path class="st2" d="M302.1,319.4l9.1-6.6h-10.8c-0.2,4-0.3,8.1-0.3,12.1c0,0.4,0,0.7,0,1.1l5.5,4L302.1,319.4z"/>
			<polygon class="st2" points="363,312.9 359.5,302.2 356,312.9 344.9,312.9 353.9,319.4 350.4,330.1 359.5,323.5 368.6,330.1 
				365.1,319.4 374.1,312.9 			"/>
			<polygon class="st2" points="426,312.9 422.5,302.2 419,312.9 407.9,312.9 416.9,319.4 413.4,330.1 422.5,323.5 431.6,330.1 
				428.1,319.4 437.1,312.9 			"/>
			<path class="st4" d="M760.7,459.6H339.3c8.8,13.8,19,26.7,30.3,38.5h360.8C741.7,486.3,751.9,473.4,760.7,459.6z"/>
		</g>
	</g>
</g>
</svg>
