<?xml version="1.0" encoding="utf-8"?>
<!-- Generator: Adobe Illustrator 22.1.0, SVG Export Plug-In . SVG Version: 6.00 Build 0)  -->
<svg version="1.1" id="Layer_1" xmlns="http://www.w3.org/2000/svg" xmlns:xlink="http://www.w3.org/1999/xlink" x="0px" y="0px"
	 viewBox="0 0 1100 650" style="enable-background:new 0 0 1100 650;" xml:space="preserve">
<style type="text/css">
	.st0{fill:#F7F7F7;}
	.st1{fill:#333333;}
	.st2{fill:#FFFFFF;}
	.st3{fill:#CD2031;}
	.st4{fill:#243672;}
</style>
<g id="Layer_2_1_">
	<g>
		<rect x="1" y="1" class="st0" width="1098" height="648"/>
		<path class="st1" d="M1098,2v646H2V2H1098 M1100,0H0v650h1100V0L1100,0z"/>
	</g>
</g>
<rect x="75" y="75" class="st2" width="950" height="250"/>
<g id="Layer_1_2_">
	<g id="Layer_1_1_">
		<g>
			<rect x="455" y="75" class="st3" width="570" height="38.5"/>
			<rect x="455" y="151.9" class="st3" width="570" height="38.5"/>
			<rect x="455" y="228.8" class="st3" width="570" height="38.5"/>
			<rect x="455" y="305.8" class="st3" width="570" height="19.2"/>
			<path class="st4" d="M431.6,276.1l-9.1-6.6l-9.1,6.6l2.8-8.8h-50.6l2.8,8.8l-9.1-6.6l-9.1,6.6l2.8-8.8h-50.6l2.8,8.8l-9.1-6.6
				l-9.1,6.6l2.8-8.8h-50.6l2.8,8.8l-9.1-6.6l-9.1,6.6l2.8-8.8H176l2.8,8.8l-9.1-6.6l-9.1,6.6l2.8-8.8h-50.6l2.8,8.8l-9.1-6.6
				l-9.1,6.6l2.8-8.8H75v38.5h31.3l1.2-3.6l1.2,3.6h60.7l1.2-3.6l1.2,3.6h60.7l1.2-3.6l1.2,3.6h60.7l1.2-3.6l1.2,3.6h60.7l1.2-3.6
				l1.2,3.6h60.7l1.2-3.6l1.2,3.6H455v-38.5h-26.3L431.6,276.1z M148.1,303.1l-9.1-6.6l-9.1,6.6l3.5-10.6l-9.1-6.6h11.2l3.5-10.6
				l3.5,10.6h11.2l-9.1,6.6L148.1,303.1z M211.1,303.1l-9.1-6.6l-9.1,6.6l3.5-10.6l-9.1-6.6h11.2l3.5-10.6l3.5,10.6h11.2l-9.1,6.6
				L211.1,303.1z M274.1,303.1l-9.1-6.6l-9.1,6.6l3.5-10.6l-9.1-6.6h11.2l3.5-10.6l3.5,10.6h11.2l-9.1,6.6L274.1,303.1z
				 M337.1,303.1l-9.1-6.6l-9.1,6.6l3.5-10.6l-9.1-6.6h11.2l3.5-10.6l3.5,10.6h11.2l-9.1,6.6L337.1,303.1z M400.1,303.1l-9.1-6.6
				l-9.1,6.6l3.5-10.6l-9.1-6.6h11.2l3.5-10.6l3.5,10.6h11.2l-9.1,6.6L400.1,303.1z"/>
			<polygon class="st4" points="431.4,113.5 431.6,114.1 430.7,113.5 414.3,113.5 413.4,114.1 413.6,113.5 391.1,113.5 394.5,123.9 
				405.6,123.9 396.6,130.4 400.1,141.1 391,134.5 381.9,141.1 385.4,130.4 376.4,123.9 387.5,123.9 390.9,113.5 368.4,113.5 
				368.6,114.1 367.7,113.5 351.3,113.5 350.4,114.1 350.6,113.5 328.1,113.5 331.5,123.9 342.6,123.9 333.6,130.4 337.1,141.1 
				328,134.5 318.9,141.1 322.4,130.4 313.4,123.9 324.5,123.9 327.9,113.5 305.4,113.5 305.6,114.1 304.7,113.5 288.3,113.5 
				287.4,114.1 287.6,113.5 265.1,113.5 268.5,123.9 279.6,123.9 270.6,130.4 274.1,141.1 265,134.5 255.9,141.1 259.4,130.4 
				250.4,123.9 261.5,123.9 264.9,113.5 242.4,113.5 242.6,114.1 241.7,113.5 225.3,113.5 224.4,114.1 224.6,113.5 202.1,113.5 
				205.5,123.9 216.6,123.9 207.6,130.4 211.1,141.1 202,134.5 192.9,141.1 196.4,130.4 187.4,123.9 198.5,123.9 201.9,113.5 
				179.4,113.5 179.6,114.1 178.7,113.5 162.3,113.5 161.4,114.1 161.6,113.5 139.1,113.5 142.5,123.9 153.6,123.9 144.6,130.4 
				148.1,141.1 139,134.5 129.9,141.1 133.4,130.4 124.4,123.9 135.5,123.9 138.9,113.5 116.4,113.5 116.6,114.1 115.7,113.5 
				99.3,113.5 98.4,114.1 98.6,113.5 75,113.5 75,151.9 94.3,151.9 92.9,150.9 104,150.9 107.5,140.2 111,150.9 122.1,150.9 
				120.7,151.9 157.3,151.9 155.9,150.9 167,150.9 170.5,140.2 174,150.9 185.1,150.9 183.7,151.9 220.3,151.9 218.9,150.9 
				230,150.9 233.5,140.2 237,150.9 248.1,150.9 246.7,151.9 283.3,151.9 281.9,150.9 293,150.9 296.5,140.2 300,150.9 311.1,150.9 
				309.7,151.9 346.3,151.9 344.9,150.9 356,150.9 359.5,140.2 363,150.9 374.1,150.9 372.7,151.9 409.3,151.9 407.9,150.9 
				419,150.9 422.5,140.2 426,150.9 437.1,150.9 435.7,151.9 455,151.9 455,113.5 			"/>
			<path class="st4" d="M400.1,195.1l-6.5-4.7h-5.2l-6.5,4.7l1.5-4.7h-47.9l1.5,4.7l-6.5-4.7h-5.2l-6.5,4.7l1.5-4.7h-47.9l1.5,4.7
				l-6.5-4.7h-5.2l-6.5,4.7l1.5-4.7h-47.9l1.5,4.7l-6.5-4.7h-5.2l-6.5,4.7l1.5-4.7h-47.9l1.5,4.7l-6.5-4.7H136l-6.5,4.7l1.5-4.7H75
				v38.5h61.5l2.5-7.6l2.5,7.6h58l2.5-7.6l2.5,7.6h58l2.5-7.6l2.5,7.6h58l2.5-7.6l2.5,7.6h58l2.5-7.6l2.5,7.6H455v-38.5h-56.5
				L400.1,195.1z M116.6,222.1l-9.1-6.6l-9.1,6.6l3.5-10.6l-9.1-6.6H104l3.5-10.6l3.5,10.6h11.2l-9.1,6.6L116.6,222.1z M179.6,222.1
				l-9.1-6.6l-9.1,6.6l3.5-10.6l-9.1-6.6H167l3.5-10.6l3.5,10.6h11.2l-9.1,6.6L179.6,222.1z M242.6,222.1l-9.1-6.6l-9.1,6.6
				l3.5-10.6l-9.1-6.6H230l3.5-10.6l3.5,10.6h11.2l-9.1,6.6L242.6,222.1z M305.6,222.1l-9.1-6.6l-9.1,6.6l3.5-10.6l-9.1-6.6H293
				l3.5-10.6l3.5,10.6h11.2l-9.1,6.6L305.6,222.1z M368.6,222.1l-9.1-6.6l-9.1,6.6l3.5-10.6l-9.1-6.6H356l3.5-10.6l3.5,10.6h11.2
				l-9.1,6.6L368.6,222.1z M419,204.9l3.5-10.6l3.5,10.6h11.2l-9.1,6.6l3.5,10.6l-9.1-6.6l-9.1,6.6l3.5-10.6l-9.1-6.6H419z"/>
			<polygon class="st4" points="414.3,113.5 430.7,113.5 422.5,107.5 			"/>
			<polygon class="st4" points="101.9,103.4 92.9,96.9 104,96.9 107.5,86.2 111,96.9 122.1,96.9 113.1,103.4 116.4,113.5 
				138.9,113.5 139,113.2 139.1,113.5 161.6,113.5 164.9,103.4 155.9,96.9 167,96.9 170.5,86.2 174,96.9 185.1,96.9 176.1,103.4 
				179.4,113.5 201.9,113.5 202,113.2 202.1,113.5 224.6,113.5 227.9,103.4 218.9,96.9 230,96.9 233.5,86.2 237,96.9 248.1,96.9 
				239.1,103.4 242.4,113.5 264.9,113.5 265,113.2 265.1,113.5 287.6,113.5 290.9,103.4 281.9,96.9 293,96.9 296.5,86.2 300,96.9 
				311.1,96.9 302.1,103.4 305.4,113.5 327.9,113.5 328,113.2 328.1,113.5 350.6,113.5 353.9,103.4 344.9,96.9 356,96.9 359.5,86.2 
				363,96.9 374.1,96.9 365.1,103.4 368.4,113.5 390.9,113.5 391,113.2 391.1,113.5 413.6,113.5 416.9,103.4 407.9,96.9 419,96.9 
				422.5,86.2 426,96.9 437.1,96.9 428.1,103.4 431.4,113.5 455,113.5 455,75 75,75 75,113.5 98.6,113.5 			"/>
			<polygon class="st4" points="225.3,113.5 241.7,113.5 233.5,107.5 			"/>
			<polygon class="st4" points="351.3,113.5 367.7,113.5 359.5,107.5 			"/>
			<polygon class="st4" points="288.3,113.5 304.7,113.5 296.5,107.5 			"/>
			<polygon class="st4" points="162.3,113.5 178.7,113.5 170.5,107.5 			"/>
			<polygon class="st4" points="99.3,113.5 115.7,113.5 107.5,107.5 			"/>
			<polygon class="st4" points="136.4,190.4 141.6,190.4 139,188.5 			"/>
			<polygon class="st4" points="262.4,190.4 267.6,190.4 265,188.5 			"/>
			<polygon class="st4" points="199.4,190.4 204.6,190.4 202,188.5 			"/>
			<polygon class="st4" points="325.4,190.4 330.6,190.4 328,188.5 			"/>
			<polygon class="st4" points="428.1,157.4 431.6,168.1 422.5,161.5 413.4,168.1 416.9,157.4 409.3,151.9 372.7,151.9 365.1,157.4 
				368.6,168.1 359.5,161.5 350.4,168.1 353.9,157.4 346.3,151.9 309.7,151.9 302.1,157.4 305.6,168.1 296.5,161.5 287.4,168.1 
				290.9,157.4 283.3,151.9 246.7,151.9 239.1,157.4 242.6,168.1 233.5,161.5 224.4,168.1 227.9,157.4 220.3,151.9 183.7,151.9 
				176.1,157.4 179.6,168.1 170.5,161.5 161.4,168.1 164.9,157.4 157.3,151.9 120.7,151.9 113.1,157.4 116.6,168.1 107.5,161.5 
				98.4,168.1 101.9,157.4 94.3,151.9 75,151.9 75,190.4 131.5,190.4 133.4,184.4 124.4,177.9 135.5,177.9 139,167.2 142.5,177.9 
				153.6,177.9 144.6,184.4 146.5,190.4 194.5,190.4 196.4,184.4 187.4,177.9 198.5,177.9 202,167.2 205.5,177.9 216.6,177.9 
				207.6,184.4 209.5,190.4 257.5,190.4 259.4,184.4 250.4,177.9 261.5,177.9 265,167.2 268.5,177.9 279.6,177.9 270.6,184.4 
				272.5,190.4 320.5,190.4 322.4,184.4 313.4,177.9 324.5,177.9 328,167.2 331.5,177.9 342.6,177.9 333.6,184.4 335.5,190.4 
				383.5,190.4 385.4,184.4 376.4,177.9 387.5,177.9 391,167.2 394.5,177.9 405.6,177.9 396.6,184.4 398.5,190.4 455,190.4 
				455,151.9 435.7,151.9 			"/>
			<polygon class="st4" points="388.4,190.4 393.6,190.4 391,188.5 			"/>
			<polygon class="st4" points="394.5,231.9 405.6,231.9 396.6,238.4 400.1,249.1 391,242.5 381.9,249.1 385.4,238.4 376.4,231.9 
				387.5,231.9 388.5,228.8 330.5,228.8 331.5,231.9 342.6,231.9 333.6,238.4 337.1,249.1 328,242.5 318.9,249.1 322.4,238.4 
				313.4,231.9 324.5,231.9 325.5,228.8 267.5,228.8 268.5,231.9 279.6,231.9 270.6,238.4 274.1,249.1 265,242.5 255.9,249.1 
				259.4,238.4 250.4,231.9 261.5,231.9 262.5,228.8 204.5,228.8 205.5,231.9 216.6,231.9 207.6,238.4 211.1,249.1 202,242.5 
				192.9,249.1 196.4,238.4 187.4,231.9 198.5,231.9 199.5,228.8 141.5,228.8 142.5,231.9 153.6,231.9 144.6,238.4 148.1,249.1 
				139,242.5 129.9,249.1 133.4,238.4 124.4,231.9 135.5,231.9 136.5,228.8 75,228.8 75,267.3 101.3,267.3 101.9,265.4 92.9,258.9 
				104,258.9 107.5,248.2 111,258.9 122.1,258.9 113.1,265.4 113.7,267.3 164.3,267.3 164.9,265.4 155.9,258.9 167,258.9 
				170.5,248.2 174,258.9 185.1,258.9 176.1,265.4 176.7,267.3 227.3,267.3 227.9,265.4 218.9,258.9 230,258.9 233.5,248.2 
				237,258.9 248.1,258.9 239.1,265.4 239.7,267.3 290.3,267.3 290.9,265.4 281.9,258.9 293,258.9 296.5,248.2 300,258.9 
				311.1,258.9 302.1,265.4 302.7,267.3 353.3,267.3 353.9,265.4 344.9,258.9 356,258.9 359.5,248.2 363,258.9 374.1,258.9 
				365.1,265.4 365.7,267.3 416.3,267.3 416.9,265.4 407.9,258.9 419,258.9 422.5,248.2 426,258.9 437.1,258.9 428.1,265.4 
				428.7,267.3 455,267.3 455,228.8 393.5,228.8 			"/>
			<polygon class="st4" points="420.4,325 424.6,325 422.5,323.5 			"/>
			<polygon class="st4" points="374.1,312.9 365.1,319.4 366.9,325 415.1,325 416.9,319.4 407.9,312.9 419,312.9 421.3,305.8 
				360.7,305.8 363,312.9 			"/>
			<polygon class="st4" points="311.1,312.9 302.1,319.4 303.9,325 352.1,325 353.9,319.4 344.9,312.9 356,312.9 358.3,305.8 
				297.7,305.8 300,312.9 			"/>
			<polygon class="st4" points="168.4,325 172.6,325 170.5,323.5 			"/>
			<polygon class="st4" points="357.4,325 361.6,325 359.5,323.5 			"/>
			<polygon class="st4" points="231.4,325 235.6,325 233.5,323.5 			"/>
			<polygon class="st4" points="105.4,325 109.6,325 107.5,323.5 			"/>
			<polygon class="st4" points="294.4,325 298.6,325 296.5,323.5 			"/>
			<polygon class="st4" points="101.9,319.4 92.9,312.9 104,312.9 106.3,305.8 75,305.8 75,325 100.1,325 			"/>
			<polygon class="st4" points="185.1,312.9 176.1,319.4 177.9,325 226.1,325 227.9,319.4 218.9,312.9 230,312.9 232.3,305.8 
				171.7,305.8 174,312.9 			"/>
			<polygon class="st4" points="426,312.9 437.1,312.9 428.1,319.4 429.9,325 455,325 455,305.8 423.7,305.8 			"/>
			<polygon class="st4" points="122.1,312.9 113.1,319.4 114.9,325 163.1,325 164.9,319.4 155.9,312.9 167,312.9 169.3,305.8 
				108.7,305.8 111,312.9 			"/>
			<polygon class="st4" points="248.1,312.9 239.1,319.4 240.9,325 289.1,325 290.9,319.4 281.9,312.9 293,312.9 295.3,305.8 
				234.7,305.8 237,312.9 			"/>
			<polygon class="st2" points="179.6,114.1 179.4,113.5 178.7,113.5 			"/>
			<polygon class="st2" points="161.4,114.1 162.3,113.5 161.6,113.5 			"/>
			<polygon class="st2" points="185.1,96.9 174,96.9 170.5,86.2 167,96.9 155.9,96.9 164.9,103.4 161.6,113.5 162.3,113.5 
				170.5,107.5 178.7,113.5 179.4,113.5 176.1,103.4 			"/>
			<polygon class="st2" points="224.4,114.1 225.3,113.5 224.6,113.5 			"/>
			<polygon class="st2" points="242.6,114.1 242.4,113.5 241.7,113.5 			"/>
			<polygon class="st2" points="248.1,96.9 237,96.9 233.5,86.2 230,96.9 218.9,96.9 227.9,103.4 224.6,113.5 225.3,113.5 
				233.5,107.5 241.7,113.5 242.4,113.5 239.1,103.4 			"/>
			<polygon class="st2" points="305.6,114.1 305.4,113.5 304.7,113.5 			"/>
			<polygon class="st2" points="287.4,114.1 288.3,113.5 287.6,113.5 			"/>
			<polygon class="st2" points="311.1,96.9 300,96.9 296.5,86.2 293,96.9 281.9,96.9 290.9,103.4 287.6,113.5 288.3,113.5 
				296.5,107.5 304.7,113.5 305.4,113.5 302.1,103.4 			"/>
			<polygon class="st2" points="350.4,114.1 351.3,113.5 350.6,113.5 			"/>
			<polygon class="st2" points="368.6,114.1 368.4,113.5 367.7,113.5 			"/>
			<polygon class="st2" points="374.1,96.9 363,96.9 359.5,86.2 356,96.9 344.9,96.9 353.9,103.4 350.6,113.5 351.3,113.5 
				359.5,107.5 367.7,113.5 368.4,113.5 365.1,103.4 			"/>
			<polygon class="st2" points="431.6,114.1 431.4,113.5 430.7,113.5 			"/>
			<polygon class="st2" points="413.4,114.1 414.3,113.5 413.6,113.5 			"/>
			<polygon class="st2" points="437.1,96.9 426,96.9 422.5,86.2 419,96.9 407.9,96.9 416.9,103.4 413.6,113.5 414.3,113.5 
				422.5,107.5 430.7,113.5 431.4,113.5 428.1,103.4 			"/>
			<polygon class="st2" points="135.5,123.9 124.4,123.9 133.4,130.4 129.9,141.1 139,134.5 148.1,141.1 144.6,130.4 153.6,123.9 
				142.5,123.9 139.1,113.5 138.9,113.5 			"/>
			<polygon class="st2" points="138.9,113.5 139.1,113.5 139,113.2 			"/>
			<polygon class="st2" points="198.5,123.9 187.4,123.9 196.4,130.4 192.9,141.1 202,134.5 211.1,141.1 207.6,130.4 216.6,123.9 
				205.5,123.9 202.1,113.5 201.9,113.5 			"/>
			<polygon class="st2" points="201.9,113.5 202.1,113.5 202,113.2 			"/>
			<path class="st2" d="M261.5,123.9h-11.2l9.1,6.6l-3.5,10.6l9.1-6.6l9.1,6.6l-3.5-10.6l9.1-6.6h-11.2l-3.4-10.4h-0.2L261.5,123.9z
				 M265,128.6L265,128.6L265,128.6z"/>
			<polygon class="st2" points="264.9,113.5 265.1,113.5 265,113.2 			"/>
			<polygon class="st2" points="324.5,123.9 313.4,123.9 322.4,130.4 318.9,141.1 328,134.5 337.1,141.1 333.6,130.4 342.6,123.9 
				331.5,123.9 328.1,113.5 327.9,113.5 			"/>
			<polygon class="st2" points="327.9,113.5 328.1,113.5 328,113.2 			"/>
			<polygon class="st2" points="387.5,123.9 376.4,123.9 385.4,130.4 381.9,141.1 391,134.5 400.1,141.1 396.6,130.4 405.6,123.9 
				394.5,123.9 391.1,113.5 390.9,113.5 			"/>
			<polygon class="st2" points="390.9,113.5 391.1,113.5 391,113.2 			"/>
			<polygon class="st2" points="122.1,150.9 111,150.9 107.5,140.2 104,150.9 92.9,150.9 94.3,151.9 120.7,151.9 			"/>
			<polygon class="st2" points="98.4,168.1 107.5,161.5 116.6,168.1 113.1,157.4 120.7,151.9 94.3,151.9 101.9,157.4 			"/>
			<polygon class="st2" points="185.1,150.9 174,150.9 170.5,140.2 167,150.9 155.9,150.9 157.3,151.9 183.7,151.9 			"/>
			<polygon class="st2" points="161.4,168.1 170.5,161.5 179.6,168.1 176.1,157.4 183.7,151.9 157.3,151.9 164.9,157.4 			"/>
			<polygon class="st2" points="248.1,150.9 237,150.9 233.5,140.2 230,150.9 218.9,150.9 220.3,151.9 246.7,151.9 			"/>
			<polygon class="st2" points="224.4,168.1 233.5,161.5 242.6,168.1 239.1,157.4 246.7,151.9 220.3,151.9 227.9,157.4 			"/>
			<polygon class="st2" points="311.1,150.9 300,150.9 296.5,140.2 293,150.9 281.9,150.9 283.3,151.9 309.7,151.9 			"/>
			<polygon class="st2" points="287.4,168.1 296.5,161.5 305.6,168.1 302.1,157.4 309.7,151.9 283.3,151.9 290.9,157.4 			"/>
			<polygon class="st2" points="374.1,150.9 363,150.9 359.5,140.2 356,150.9 344.9,150.9 346.3,151.9 372.7,151.9 			"/>
			<polygon class="st2" points="350.4,168.1 359.5,161.5 368.6,168.1 365.1,157.4 372.7,151.9 346.3,151.9 353.9,157.4 			"/>
			<polygon class="st2" points="437.1,150.9 426,150.9 422.5,140.2 419,150.9 407.9,150.9 409.3,151.9 435.7,151.9 			"/>
			<polygon class="st2" points="413.4,168.1 422.5,161.5 431.6,168.1 428.1,157.4 435.7,151.9 409.3,151.9 416.9,157.4 			"/>
			<polygon class="st2" points="148.1,195.1 146.5,190.4 141.6,190.4 			"/>
			<polygon class="st2" points="136.4,190.4 131.5,190.4 129.9,195.1 			"/>
			<polygon class="st2" points="139,188.5 141.6,190.4 146.5,190.4 144.6,184.4 153.6,177.9 142.5,177.9 139,167.2 135.5,177.9 
				124.4,177.9 133.4,184.4 131.5,190.4 136.4,190.4 			"/>
			<polygon class="st2" points="211.1,195.1 209.5,190.4 204.6,190.4 			"/>
			<polygon class="st2" points="199.4,190.4 194.5,190.4 192.9,195.1 			"/>
			<polygon class="st2" points="202,188.5 204.6,190.4 209.5,190.4 207.6,184.4 216.6,177.9 205.5,177.9 202,167.2 198.5,177.9 
				187.4,177.9 196.4,184.4 194.5,190.4 199.4,190.4 			"/>
			<polygon class="st2" points="262.4,190.4 257.5,190.4 255.9,195.1 			"/>
			<polygon class="st2" points="274.1,195.1 272.5,190.4 267.6,190.4 			"/>
			<path class="st2" d="M265,188.5l2.6,1.9h4.9l-1.9-5.9l9.1-6.6h-11.2l-3.5-10.6l-3.5,10.6h-11.2l9.1,6.6l-1.9,5.9h4.9L265,188.5z
				 M265,182.6L265,182.6L265,182.6L265,182.6L265,182.6z"/>
			<polygon class="st2" points="337.1,195.1 335.5,190.4 330.6,190.4 			"/>
			<polygon class="st2" points="325.4,190.4 320.5,190.4 318.9,195.1 			"/>
			<polygon class="st2" points="328,188.5 330.6,190.4 335.5,190.4 333.6,184.4 342.6,177.9 331.5,177.9 328,167.2 324.5,177.9 
				313.4,177.9 322.4,184.4 320.5,190.4 325.4,190.4 			"/>
			<polygon class="st2" points="388.4,190.4 383.5,190.4 381.9,195.1 			"/>
			<polygon class="st2" points="400.1,195.1 398.5,190.4 393.6,190.4 			"/>
			<polygon class="st2" points="391,188.5 393.6,190.4 398.5,190.4 396.6,184.4 405.6,177.9 394.5,177.9 391,167.2 387.5,177.9 
				376.4,177.9 385.4,184.4 383.5,190.4 388.4,190.4 			"/>
			<polygon class="st2" points="111,204.9 107.5,194.2 104,204.9 92.9,204.9 101.9,211.4 98.4,222.1 107.5,215.5 116.6,222.1 
				113.1,211.4 122.1,204.9 			"/>
			<polygon class="st2" points="174,204.9 170.5,194.2 167,204.9 155.9,204.9 164.9,211.4 161.4,222.1 170.5,215.5 179.6,222.1 
				176.1,211.4 185.1,204.9 			"/>
			<polygon class="st2" points="237,204.9 233.5,194.2 230,204.9 218.9,204.9 227.9,211.4 224.4,222.1 233.5,215.5 242.6,222.1 
				239.1,211.4 248.1,204.9 			"/>
			<polygon class="st2" points="300,204.9 296.5,194.2 293,204.9 281.9,204.9 290.9,211.4 287.4,222.1 296.5,215.5 305.6,222.1 
				302.1,211.4 311.1,204.9 			"/>
			<polygon class="st2" points="363,204.9 359.5,194.2 356,204.9 344.9,204.9 353.9,211.4 350.4,222.1 359.5,215.5 368.6,222.1 
				365.1,211.4 374.1,204.9 			"/>
			<polygon class="st2" points="413.4,222.1 422.5,215.5 431.6,222.1 428.1,211.4 437.1,204.9 426,204.9 422.5,194.2 419,204.9 
				407.9,204.9 416.9,211.4 			"/>
			<polygon class="st2" points="139,221.2 136.5,228.8 141.5,228.8 			"/>
			<polygon class="st2" points="124.4,231.9 133.4,238.4 129.9,249.1 139,242.5 148.1,249.1 144.6,238.4 153.6,231.9 142.5,231.9 
				141.5,228.8 136.5,228.8 135.5,231.9 			"/>
			<polygon class="st2" points="202,221.2 199.5,228.8 204.5,228.8 			"/>
			<polygon class="st2" points="187.4,231.9 196.4,238.4 192.9,249.1 202,242.5 211.1,249.1 207.6,238.4 216.6,231.9 205.5,231.9 
				204.5,228.8 199.5,228.8 198.5,231.9 			"/>
			<polygon class="st2" points="265,221.2 262.5,228.8 267.5,228.8 			"/>
			<polygon class="st2" points="250.4,231.9 259.4,238.4 255.9,249.1 265,242.5 274.1,249.1 270.6,238.4 279.6,231.9 268.5,231.9 
				267.5,228.8 262.5,228.8 261.5,231.9 			"/>
			<polygon class="st2" points="328,221.2 325.5,228.8 330.5,228.8 			"/>
			<polygon class="st2" points="313.4,231.9 322.4,238.4 318.9,249.1 328,242.5 337.1,249.1 333.6,238.4 342.6,231.9 331.5,231.9 
				330.5,228.8 325.5,228.8 324.5,231.9 			"/>
			<polygon class="st2" points="391,221.2 388.5,228.8 393.5,228.8 			"/>
			<polygon class="st2" points="376.4,231.9 385.4,238.4 381.9,249.1 391,242.5 400.1,249.1 396.6,238.4 405.6,231.9 394.5,231.9 
				393.5,228.8 388.5,228.8 387.5,231.9 			"/>
			<polygon class="st2" points="107.5,269.5 116.6,276.1 113.7,267.3 101.3,267.3 98.4,276.1 			"/>
			<path class="st2" d="M113.1,265.4l9.1-6.6H111l-3.5-10.6l-3.5,10.6H92.9l9.1,6.6l-0.6,1.9h12.4L113.1,265.4z M107.5,263.6
				L107.5,263.6L107.5,263.6z"/>
			<polygon class="st2" points="170.5,269.5 179.6,276.1 176.7,267.3 164.3,267.3 161.4,276.1 			"/>
			<polygon class="st2" points="176.1,265.4 185.1,258.9 174,258.9 170.5,248.2 167,258.9 155.9,258.9 164.9,265.4 164.3,267.3 
				176.7,267.3 			"/>
			<polygon class="st2" points="233.5,269.5 242.6,276.1 239.7,267.3 227.3,267.3 224.4,276.1 			"/>
			<polygon class="st2" points="239.1,265.4 248.1,258.9 237,258.9 233.5,248.2 230,258.9 218.9,258.9 227.9,265.4 227.3,267.3 
				239.7,267.3 			"/>
			<polygon class="st2" points="296.5,269.5 305.6,276.1 302.7,267.3 290.3,267.3 287.4,276.1 			"/>
			<polygon class="st2" points="302.1,265.4 311.1,258.9 300,258.9 296.5,248.2 293,258.9 281.9,258.9 290.9,265.4 290.3,267.3 
				302.7,267.3 			"/>
			<polygon class="st2" points="359.5,269.5 368.6,276.1 365.7,267.3 353.3,267.3 350.4,276.1 			"/>
			<polygon class="st2" points="365.1,265.4 374.1,258.9 363,258.9 359.5,248.2 356,258.9 344.9,258.9 353.9,265.4 353.3,267.3 
				365.7,267.3 			"/>
			<polygon class="st2" points="422.5,269.5 431.6,276.1 428.7,267.3 416.3,267.3 413.4,276.1 			"/>
			<polygon class="st2" points="428.1,265.4 437.1,258.9 426,258.9 422.5,248.2 419,258.9 407.9,258.9 416.9,265.4 416.3,267.3 
				428.7,267.3 			"/>
			<polygon class="st2" points="142.5,285.9 139,275.2 135.5,285.9 124.4,285.9 133.4,292.4 129.9,303.1 139,296.5 148.1,303.1 
				144.6,292.4 153.6,285.9 			"/>
			<polygon class="st2" points="205.5,285.9 202,275.2 198.5,285.9 187.4,285.9 196.4,292.4 192.9,303.1 202,296.5 211.1,303.1 
				207.6,292.4 216.6,285.9 			"/>
			<polygon class="st2" points="268.5,285.9 265,275.2 261.5,285.9 250.4,285.9 259.4,292.4 255.9,303.1 265,296.5 274.1,303.1 
				270.6,292.4 279.6,285.9 			"/>
			<polygon class="st2" points="331.5,285.9 328,275.2 324.5,285.9 313.4,285.9 322.4,292.4 318.9,303.1 328,296.5 337.1,303.1 
				333.6,292.4 342.6,285.9 			"/>
			<polygon class="st2" points="394.5,285.9 391,275.2 387.5,285.9 376.4,285.9 385.4,292.4 381.9,303.1 391,296.5 400.1,303.1 
				396.6,292.4 405.6,285.9 			"/>
			<polygon class="st2" points="107.5,302.2 106.3,305.8 108.7,305.8 			"/>
			<path class="st2" d="M92.9,312.9l9.1,6.6l-1.8,5.6h5.3l2.1-1.5l2.1,1.5h5.3l-1.8-5.6l9.1-6.6H111l-2.3-7.1h-2.3l-2.3,7.1H92.9z
				 M107.5,317.6L107.5,317.6L107.5,317.6L107.5,317.6L107.5,317.6z"/>
			<polygon class="st2" points="170.5,302.2 169.3,305.8 171.7,305.8 			"/>
			<polygon class="st2" points="155.9,312.9 164.9,319.4 163.1,325 168.4,325 170.5,323.5 172.6,325 177.9,325 176.1,319.4 
				185.1,312.9 174,312.9 171.7,305.8 169.3,305.8 167,312.9 			"/>
			<polygon class="st2" points="233.5,302.2 232.3,305.8 234.7,305.8 			"/>
			<polygon class="st2" points="218.9,312.9 227.9,319.4 226.1,325 231.4,325 233.5,323.5 235.6,325 240.9,325 239.1,319.4 
				248.1,312.9 237,312.9 234.7,305.8 232.3,305.8 230,312.9 			"/>
			<polygon class="st2" points="296.5,302.2 295.3,305.8 297.7,305.8 			"/>
			<polygon class="st2" points="281.9,312.9 290.9,319.4 289.1,325 294.4,325 296.5,323.5 298.6,325 303.9,325 302.1,319.4 
				311.1,312.9 300,312.9 297.7,305.8 295.3,305.8 293,312.9 			"/>
			<polygon class="st2" points="359.5,302.2 358.3,305.8 360.7,305.8 			"/>
			<polygon class="st2" points="344.9,312.9 353.9,319.4 352.1,325 357.4,325 359.5,323.5 361.6,325 366.9,325 365.1,319.4 
				374.1,312.9 363,312.9 360.7,305.8 358.3,305.8 356,312.9 			"/>
			<polygon class="st2" points="422.5,302.2 421.3,305.8 423.7,305.8 			"/>
			<polygon class="st2" points="407.9,312.9 416.9,319.4 415.1,325 420.4,325 422.5,323.5 424.6,325 429.9,325 428.1,319.4 
				437.1,312.9 426,312.9 423.7,305.8 421.3,305.8 419,312.9 			"/>
			<polygon class="st2" points="98.4,114.1 99.3,113.5 98.6,113.5 			"/>
			<polygon class="st2" points="116.6,114.1 116.4,113.5 115.7,113.5 			"/>
			<polygon class="st2" points="122.1,96.9 111,96.9 107.5,86.2 104,96.9 92.9,96.9 101.9,103.4 98.6,113.5 99.3,113.5 107.5,107.5 
				115.7,113.5 116.4,113.5 113.1,103.4 			"/>
			<polygon class="st2" points="98.4,330.1 105.4,325 100.1,325 			"/>
			<polygon class="st2" points="116.6,330.1 114.9,325 109.6,325 			"/>
			<polygon class="st2" points="179.6,330.1 177.9,325 172.6,325 			"/>
			<polygon class="st2" points="161.4,330.1 168.4,325 163.1,325 			"/>
			<polygon class="st2" points="224.4,330.1 231.4,325 226.1,325 			"/>
			<polygon class="st2" points="242.6,330.1 240.9,325 235.6,325 			"/>
			<polygon class="st2" points="305.6,330.1 303.9,325 298.6,325 			"/>
			<polygon class="st2" points="287.4,330.1 294.4,325 289.1,325 			"/>
			<polygon class="st2" points="350.4,330.1 357.4,325 352.1,325 			"/>
			<polygon class="st2" points="368.6,330.1 366.9,325 361.6,325 			"/>
			<polygon class="st2" points="431.6,330.1 429.9,325 424.6,325 			"/>
			<polygon class="st2" points="413.4,330.1 420.4,325 415.1,325 			"/>
		</g>
	</g>
</g>
</svg>
